<?xml version="1.0" encoding="UTF-8" standalone="no"?>
<!-- Created with Inkscape (http://www.inkscape.org/) -->

<svg
   xmlns:dc="http://purl.org/dc/elements/1.1/"
   xmlns:cc="http://creativecommons.org/ns#"
   xmlns:rdf="http://www.w3.org/1999/02/22-rdf-syntax-ns#"
   xmlns:svg="http://www.w3.org/2000/svg"
   xmlns="http://www.w3.org/2000/svg"
   xmlns:inkscape="http://www.inkscape.org/namespaces/inkscape"
   version="1.1"
   width="121.25"
   height="121.25"
   id="svg2"
   xml:space="preserve"><metadata
     id="metadata8"><rdf:RDF><cc:Work
         rdf:about=""><dc:format>image/svg+xml</dc:format><dc:type
           rdf:resource="http://purl.org/dc/dcmitype/StillImage" /></cc:Work></rdf:RDF></metadata><defs
     id="defs6" /><g
     transform="matrix(1.25,0,0,-1.25,0,121.25)"
     id="g10"><g
       transform="scale(0.1,0.1)"
       id="g12"><path
         d="m 562.148,476.488 57.653,-148.59 c 6.879,-19.527 12.66,-40.32 12.66,-49.527 0,-16.101 -9.223,-31.101 -24.223,-40.32 -10.308,-7.973 -26.398,-11.563 -66.718,-17.18 l 0,-35.793 281.101,0 c -42.66,-30 -57.66,-56.398 -57.66,-96.7069 0,-45 32.187,-78.44141 74.84,-78.44141 42.66,0 71.41,15.00001 129.07,64.53121 L 950.43,98.6797 C 915.898,67.5781 895.121,56.0195 873.238,56.0195 c -31.09,0 -52.968,21.8789 -52.968,51.8785 0,26.563 16.101,55.313 44.851,77.18 l 0,35.793 C 790.27,232.27 776.52,244.93 734.961,352.121 l -244.223,617.5 -107.187,0 L 185.43,461.648 C 108.238,264.621 89.8008,238.051 12.6211,223.051 l -12.6601625,-2.18 0,-35.793 308.7500625,0 0,35.793 c -41.41,5.617 -61.09,10.309 -73.75,18.43 -17.191,11.41 -28.75,32.187 -28.75,52.969 0,17.191 8.129,49.531 21.879,85.16 l 36.871,99.058 297.187,0 z M 282.301,526.02 410.121,871.648 541.52,526.02 l -259.219,0 z"
         inkscape:connector-curvature="0"
         id="path14"
         style="fill:#000000;fill-opacity:1;fill-rule:nonzero;stroke:none" /></g></g></svg>