<?xml version="1.0" encoding="UTF-8" standalone="no"?>
<!-- Created with Inkscape (http://www.inkscape.org/) -->

<svg
   xmlns:dc="http://purl.org/dc/elements/1.1/"
   xmlns:cc="http://creativecommons.org/ns#"
   xmlns:rdf="http://www.w3.org/1999/02/22-rdf-syntax-ns#"
   xmlns:svg="http://www.w3.org/2000/svg"
   xmlns="http://www.w3.org/2000/svg"
   xmlns:inkscape="http://www.inkscape.org/namespaces/inkscape"
   version="1.1"
   width="67.5"
   height="105"
   id="svg2"
   xml:space="preserve"><metadata
     id="metadata8"><rdf:RDF><cc:Work
         rdf:about=""><dc:format>image/svg+xml</dc:format><dc:type
           rdf:resource="http://purl.org/dc/dcmitype/StillImage" /></cc:Work></rdf:RDF></metadata><defs
     id="defs6" /><g
     transform="matrix(1.25,0,0,-1.25,0,105)"
     id="g10"><g
       transform="scale(0.1,0.1)"
       id="g12"><path
         d="m 267.23,830.219 c -37.968,0 -69.07,-29.84 -69.07,-67.957 0,-36.883 31.102,-67.973 67.969,-67.973 36.883,0 67.973,31.09 67.973,67.973 0,36.867 -31.09,67.957 -66.872,67.957 z M 497.699,165.539 C 433.16,84.9102 385.98,56.1602 315.66,56.1602 c -118.59,0 -198.121,95.6288 -198.121,238.4418 0,64.527 11.563,120.937 33.441,165.777 26.399,55.312 71.399,82.973 134.68,82.973 60,0 114.07,-35.633 114.07,-75.942 l -1.101,-40.308 c 0,-33.442 25.32,-58.75 58.75,-58.75 33.441,0 58.75,27.66 58.75,63.277 0,37.973 -24.219,77.191 -65.617,108.281 -46.102,33.442 -100.313,49.531 -169.383,49.531 -82.969,0 -150.93,-25.312 -199.3673,-75.929 C 29.8789,460.379 0.0390625,381.012 0.0390625,299.129 0.0390625,127.57 114.102,10.0703 283.48,10.0703 c 110.469,0 187.649,41.3985 247.649,134.6917 l -33.43,20.777 z"
         inkscape:connector-curvature="0"
         id="path14"
         style="fill:#000000;fill-opacity:1;fill-rule:nonzero;stroke:none" /></g></g></svg>