<?xml version="1.0" encoding="UTF-8" standalone="no"?>
<!-- Created with Inkscape (http://www.inkscape.org/) -->

<svg
   xmlns:dc="http://purl.org/dc/elements/1.1/"
   xmlns:cc="http://creativecommons.org/ns#"
   xmlns:rdf="http://www.w3.org/1999/02/22-rdf-syntax-ns#"
   xmlns:svg="http://www.w3.org/2000/svg"
   xmlns="http://www.w3.org/2000/svg"
   xmlns:inkscape="http://www.inkscape.org/namespaces/inkscape"
   version="1.1"
   width="91.25"
   height="106.25"
   id="svg2"
   xml:space="preserve"><metadata
     id="metadata8"><rdf:RDF><cc:Work
         rdf:about=""><dc:format>image/svg+xml</dc:format><dc:type
           rdf:resource="http://purl.org/dc/dcmitype/StillImage" /></cc:Work></rdf:RDF></metadata><defs
     id="defs6" /><g
     transform="matrix(1.25,0,0,-1.25,0,106.25)"
     id="g10"><g
       transform="scale(0.1,0.1)"
       id="g12"><path
         d="m 444.73,528.32 c -62.191,42.66 -120.941,61.102 -191.25,61.102 -144.07,0 -253.4409375,-125.473 -253.4409375,-291.41 0,-71.403 24.2226375,-148.59 63.2812375,-200.4729 40.3087,-54.2188 110.6287,-87.5 182.0317,-87.5 36.878,0 77.187,9.2226 115.308,25.3203 33.289,15 50.629,26.4023 84.07,62.1797 l 0,-77.1797 193.43,0 0,34.5312 -13.75,2.3399 c -52.961,11.5586 -70.308,34.5312 -70.308,95.6285 l 0,693.43 -46.09,0 C 450.512,823.32 423.949,816.449 345.66,807.23 l 0,-35.781 24.219,-2.34 c 62.191,-5.629 74.851,-26.41 74.851,-128.91 l 0,-111.879 z m 0,-372.031 C 392.852,92.8594 343.32,65.3594 278.789,65.3594 c -57.66,0 -105.937,31.0898 -130.16,84.0626 -19.527,41.398 -31.09,97.808 -31.09,150.937 0,51.711 11.563,105.93 30,147.34 26.41,58.75 74.84,89.84 140.473,89.84 55.308,0 94.527,-17.18 156.718,-69.059 l 0,-312.191 z m 168.122,440.16 c 71.41,33.281 112.968,90.942 112.968,156.563 0,51.879 -35.781,94.527 -80.621,94.527 -39.219,0 -71.41,-32.34 -71.41,-70.309 0,-37.968 25.313,-65.621 62.191,-65.621 11.399,0 19.532,3.43 35.622,16.09 -3.442,-45 -22.973,-74.84 -71.403,-105.937 l 12.653,-25.313 z"
         inkscape:connector-curvature="0"
         id="path14"
         style="fill:#000000;fill-opacity:1;fill-rule:nonzero;stroke:none" /></g></g></svg>