<?xml version="1.0" encoding="UTF-8" standalone="no"?>
<!-- Created with Inkscape (http://www.inkscape.org/) -->

<svg
   xmlns:dc="http://purl.org/dc/elements/1.1/"
   xmlns:cc="http://creativecommons.org/ns#"
   xmlns:rdf="http://www.w3.org/1999/02/22-rdf-syntax-ns#"
   xmlns:svg="http://www.w3.org/2000/svg"
   xmlns="http://www.w3.org/2000/svg"
   xmlns:inkscape="http://www.inkscape.org/namespaces/inkscape"
   version="1.1"
   width="105"
   height="127.5"
   id="svg2"
   xml:space="preserve"><metadata
     id="metadata8"><rdf:RDF><cc:Work
         rdf:about=""><dc:format>image/svg+xml</dc:format><dc:type
           rdf:resource="http://purl.org/dc/dcmitype/StillImage" /></cc:Work></rdf:RDF></metadata><defs
     id="defs6" /><g
     transform="matrix(1.25,0,0,-1.25,0,127.5)"
     id="g10"><g
       transform="scale(0.1,0.1)"
       id="g12"><path
         d="M 103.672,175.93 C 103.672,81.3984 88.6719,57.1797 28.8281,49.2109 l -28.749975,-3.4296 0,-35.79302 351.249875,0 c 178.594,0 274.223,25.32032 354.844,95.63272 77.187,66.867 124.379,177.34 124.379,290.309 0,109.379 -44.852,223.441 -115.16,290.308 -79.532,74.852 -190,108.293 -364.063,108.293 l -351.249875,0 0,-35.793 28.749975,-3.429 C 88.6719,747.34 103.672,723.121 103.672,628.59 l 0,-452.66 z m 115.156,465.308 c 0,45 3.594,65.793 13.902,77.192 13.75,17.351 64.54,28.91 123.29,28.91 125.46,0 217.652,-40.309 275.308,-122.192 40.313,-57.5 63.281,-135.937 63.281,-221.089 0,-92.188 -26.41,-179.848 -73.589,-238.598 C 564.449,95.3086 471.172,57.1797 354.77,57.1797 c -56.411,0 -103.598,10.4687 -119.692,25.3086 -12.656,11.5703 -16.25,29.9997 -16.25,76.1017 l 0,482.648 z m 206.25,233.91 163.594,107.192 -16.094,28.75 -147.5,-52.969 -148.598,52.969 -15,-28.75 163.598,-107.192 z"
         inkscape:connector-curvature="0"
         id="path14"
         style="fill:#000000;fill-opacity:1;fill-rule:nonzero;stroke:none" /></g></g></svg>