<?xml version="1.0" encoding="UTF-8" standalone="no"?>
<!-- Created with Inkscape (http://www.inkscape.org/) -->

<svg
   xmlns:dc="http://purl.org/dc/elements/1.1/"
   xmlns:cc="http://creativecommons.org/ns#"
   xmlns:rdf="http://www.w3.org/1999/02/22-rdf-syntax-ns#"
   xmlns:svg="http://www.w3.org/2000/svg"
   xmlns="http://www.w3.org/2000/svg"
   xmlns:inkscape="http://www.inkscape.org/namespaces/inkscape"
   version="1.1"
   width="67.5"
   height="101.25"
   id="svg2"
   xml:space="preserve"><metadata
     id="metadata8"><rdf:RDF><cc:Work
         rdf:about=""><dc:format>image/svg+xml</dc:format><dc:type
           rdf:resource="http://purl.org/dc/dcmitype/StillImage" /></cc:Work></rdf:RDF></metadata><defs
     id="defs6" /><g
     transform="matrix(1.25,0,0,-1.25,0,101.25)"
     id="g10"><g
       transform="scale(0.1,0.1)"
       id="g12"><path
         d="M 497.699,165.52 C 433.16,84.8984 385.98,56.1484 315.66,56.1484 c -118.59,0 -198.121,95.6216 -198.121,238.4416 0,64.531 11.563,120.93 33.441,165.781 26.399,55.309 71.399,82.969 134.68,82.969 60,0 114.07,-35.629 114.07,-75.942 l -1.101,-40.308 c 0,-33.442 25.32,-58.75 58.75,-58.75 33.441,0 58.75,27.648 58.75,63.281 0,37.969 -24.219,77.188 -65.617,108.277 C 404.41,573.34 350.199,589.43 281.129,589.43 198.16,589.43 130.199,564.121 81.7617,513.488 29.8789,460.371 0.0390625,380.988 0.0390625,299.121 0.0390625,127.559 114.102,10.0586 283.48,10.0586 c 110.469,0 187.649,41.4023 247.649,134.6794 l -33.43,20.782 z m -306.41,504.539 160.16,33.429 c 49.531,10.473 71.403,27.66 71.403,57.66 0,24.223 -17.34,42.661 -40.313,42.661 -23.129,0 -54.219,-13.911 -87.66,-39.219 l -109.367,-78.281 5.777,-16.25 z"
         inkscape:connector-curvature="0"
         id="path14"
         style="fill:#000000;fill-opacity:1;fill-rule:nonzero;stroke:none" /></g></g></svg>