<?xml version="1.0" encoding="UTF-8" standalone="no"?>
<!-- Created with Inkscape (http://www.inkscape.org/) -->

<svg
   xmlns:dc="http://purl.org/dc/elements/1.1/"
   xmlns:cc="http://creativecommons.org/ns#"
   xmlns:rdf="http://www.w3.org/1999/02/22-rdf-syntax-ns#"
   xmlns:svg="http://www.w3.org/2000/svg"
   xmlns="http://www.w3.org/2000/svg"
   xmlns:inkscape="http://www.inkscape.org/namespaces/inkscape"
   version="1.1"
   width="95"
   height="128.75"
   id="svg2"
   xml:space="preserve"><metadata
     id="metadata8"><rdf:RDF><cc:Work
         rdf:about=""><dc:format>image/svg+xml</dc:format><dc:type
           rdf:resource="http://purl.org/dc/dcmitype/StillImage" /></cc:Work></rdf:RDF></metadata><defs
     id="defs6" /><g
     transform="matrix(1.25,0,0,-1.25,0,128.75)"
     id="g10"><g
       transform="scale(0.1,0.1)"
       id="g12"><path
         d="m 678.52,799.191 -37.969,0 -24.223,-48.441 C 548.359,802.629 478.051,824.5 378.98,824.5 286.801,824.5 178.52,773.719 108.199,697.781 38.0508,622.941 -0.078125,521.531 -0.078125,413.25 -0.078125,182.781 173.98,9.96875 406.641,9.96875 555.23,9.96875 672.73,75.6016 758.051,208.102 L 708.52,235.75 c -33.442,-49.531 -56.411,-74.84 -94.54,-102.5 -55.308,-41.3984 -130.152,-67.9687 -190,-67.9687 -71.402,0 -154.371,37.9687 -203.902,93.2777 -54.219,58.75 -84.219,152.191 -84.219,255.793 0,203.898 112.969,354.839 265,354.839 85.313,0 170.469,-48.441 224.692,-126.722 21.871,-32.34 35.777,-56.41 71.398,-120.938 l 36.879,0 -55.308,277.66 z m -280,90.938 163.589,107.18 -16.089,28.751 -147.5,-52.958 -148.598,52.958 -14.844,-28.751 163.442,-107.18 z"
         inkscape:connector-curvature="0"
         id="path14"
         style="fill:#000000;fill-opacity:1;fill-rule:nonzero;stroke:none" /></g></g></svg>