<?xml version="1.0" encoding="UTF-8" standalone="no"?>
<!-- Created with Inkscape (http://www.inkscape.org/) -->

<svg
   xmlns:dc="http://purl.org/dc/elements/1.1/"
   xmlns:cc="http://creativecommons.org/ns#"
   xmlns:rdf="http://www.w3.org/1999/02/22-rdf-syntax-ns#"
   xmlns:svg="http://www.w3.org/2000/svg"
   xmlns="http://www.w3.org/2000/svg"
   xmlns:inkscape="http://www.inkscape.org/namespaces/inkscape"
   version="1.1"
   width="95"
   height="133.75"
   id="svg2"
   xml:space="preserve"><metadata
     id="metadata8"><rdf:RDF><cc:Work
         rdf:about=""><dc:format>image/svg+xml</dc:format><dc:type
           rdf:resource="http://purl.org/dc/dcmitype/StillImage" /></cc:Work></rdf:RDF></metadata><defs
     id="defs6" /><g
     transform="matrix(1.25,0,0,-1.25,0,133.75)"
     id="g10"><g
       transform="scale(0.1,0.1)"
       id="g12"><path
         d="m 378.98,1060.58 -163.589,-107.029 15,-28.903 148.589,51.872 147.5,-51.872 16.098,28.903 -163.598,107.029 z m 299.54,-261.4 -37.969,0 -24.223,-48.442 c -67.969,51.883 -138.277,73.75 -237.348,73.75 -92.179,0 -200.46,-50.777 -270.781,-126.718 C 38.0508,622.93 -0.078125,521.52 -0.078125,413.238 -0.078125,182.77 173.98,9.96094 406.641,9.96094 c 148.589,0 266.089,65.61716 351.41,198.11706 l -49.531,27.66 c -33.442,-49.527 -56.411,-74.84 -94.54,-102.5 -55.308,-41.4099 -130.152,-67.9685 -190,-67.9685 -71.402,0 -154.371,37.9685 -203.902,93.2815 -54.219,58.75 -84.219,152.187 -84.219,255.777 0,203.91 112.969,354.852 265,354.852 85.313,0 170.469,-48.442 224.692,-126.719 21.871,-32.34 35.777,-56.41 71.398,-120.941 l 36.879,0 -55.308,277.66 z"
         inkscape:connector-curvature="0"
         id="path14"
         style="fill:#000000;fill-opacity:1;fill-rule:nonzero;stroke:none" /></g></g></svg>