<?xml version="1.0" encoding="UTF-8" standalone="no"?>
<!-- Created with Inkscape (http://www.inkscape.org/) -->

<svg
   xmlns:dc="http://purl.org/dc/elements/1.1/"
   xmlns:cc="http://creativecommons.org/ns#"
   xmlns:rdf="http://www.w3.org/1999/02/22-rdf-syntax-ns#"
   xmlns:svg="http://www.w3.org/2000/svg"
   xmlns="http://www.w3.org/2000/svg"
   xmlns:inkscape="http://www.inkscape.org/namespaces/inkscape"
   version="1.1"
   width="80"
   height="101.25"
   id="svg2"
   xml:space="preserve"><metadata
     id="metadata8"><rdf:RDF><cc:Work
         rdf:about=""><dc:format>image/svg+xml</dc:format><dc:type
           rdf:resource="http://purl.org/dc/dcmitype/StillImage" /></cc:Work></rdf:RDF></metadata><defs
     id="defs6" /><g
     transform="matrix(1.25,0,0,-1.25,0,101.25)"
     id="g10"><g
       transform="scale(0.1,0.1)"
       id="g12"><path
         d="M 388.281,347.559 C 250,332.559 244.219,331.461 193.59,318.809 65.6211,286.461 0,230.059 0,152.871 0,69.8984 74.8398,10.0586 177.34,10.0586 c 77.191,0 133.75,24.0625 210.941,88.5898 21.879,-62.1875 61.098,-88.5898 129.059,-88.5898 48.281,0 86.41,13.75 118.601,44.8398 l -21.882,30 c -19.528,-17.3398 -32.34,-23.1289 -51.868,-23.1289 -24.222,0 -44.851,12.8203 -54.07,32.3516 C 500,110.211 497.66,125.211 497.66,174.738 l 0,244.223 c 0,69.059 -18.441,104.848 -65.629,131.41 -42.652,24.059 -102.5,39.059 -155.472,39.059 -49.528,0 -111.868,-13.75 -157.969,-33.442 -54.0587,-24.058 -93.2814,-72.5 -93.2814,-112.808 0,-27.66 25.3125,-50.782 55.3125,-50.782 32.3479,0 58.7579,26.563 58.7579,58.911 l -1.098,32.179 c 0,33.442 51.879,59.852 116.25,59.852 81.879,0 133.75,-40.32 133.75,-103.602 l 0,-92.179 z m 0,-197.039 C 323.75,89.4297 275.309,65.3711 217.809,65.3711 162.5,65.3711 117.5,109.121 117.5,164.43 c 0,77.191 96.719,127.808 270.781,142.808 l 0,-156.718 z m -281.09,634.851 c 34.528,-73.75 102.5,-116.41 187.809,-116.41 79.379,0 154.379,46.098 190,116.41 l -26.41,20.617 c -39.211,-35.617 -103.75,-59.84 -161.399,-59.84 -59.851,0 -115.16,20.782 -163.601,59.84 l -26.399,-20.617 z"
         inkscape:connector-curvature="0"
         id="path14"
         style="fill:#000000;fill-opacity:1;fill-rule:nonzero;stroke:none" /></g></g></svg>