<?xml version="1.0" encoding="UTF-8" standalone="no"?>
<!-- Created with Inkscape (http://www.inkscape.org/) -->

<svg
   xmlns:dc="http://purl.org/dc/elements/1.1/"
   xmlns:cc="http://creativecommons.org/ns#"
   xmlns:rdf="http://www.w3.org/1999/02/22-rdf-syntax-ns#"
   xmlns:svg="http://www.w3.org/2000/svg"
   xmlns="http://www.w3.org/2000/svg"
   xmlns:inkscape="http://www.inkscape.org/namespaces/inkscape"
   version="1.1"
   width="80"
   height="95"
   id="svg2"
   xml:space="preserve"><metadata
     id="metadata8"><rdf:RDF><cc:Work
         rdf:about=""><dc:format>image/svg+xml</dc:format><dc:type
           rdf:resource="http://purl.org/dc/dcmitype/StillImage" /></cc:Work></rdf:RDF></metadata><defs
     id="defs6" /><g
     transform="matrix(1.25,0,0,-1.25,0,95)"
     id="g10"><g
       transform="scale(0.1,0.1)"
       id="g12"><path
         d="M 388.281,347.551 C 250,332.551 244.219,331.461 193.59,318.801 65.6211,286.461 0,230.051 0,152.859 0,69.8984 74.8398,10.0508 177.34,10.0508 c 77.191,0 133.75,24.0586 210.941,88.5976 21.879,-62.1875 61.098,-88.5976 129.059,-88.5976 48.281,0 86.41,13.75 118.601,44.8476 l -21.882,30 c -19.528,-17.3476 -32.34,-23.1289 -51.868,-23.1289 -24.222,0 -44.851,12.8086 -54.07,32.3399 C 500,110.211 497.66,125.211 497.66,174.738 l 0,244.223 c 0,69.059 -18.441,104.84 -65.629,131.398 -42.652,24.071 -102.5,39.071 -155.472,39.071 -49.528,0 -111.868,-13.75 -157.969,-33.442 -54.0587,-24.058 -93.2814,-72.5 -93.2814,-112.808 0,-27.66 25.3125,-50.782 55.3125,-50.782 32.3479,0 58.7579,26.563 58.7579,58.903 l -1.098,32.187 c 0,33.442 51.879,59.84 116.25,59.84 81.879,0 133.75,-40.308 133.75,-103.59 l 0,-92.187 z m 0,-197.031 C 323.75,89.4297 275.309,65.3594 217.809,65.3594 162.5,65.3594 117.5,109.109 117.5,164.43 c 0,77.179 96.719,127.808 270.781,142.808 l 0,-156.718 z m 71.41,603.75 -341.101,0 0,-57.661 341.101,0 0,57.661 z"
         inkscape:connector-curvature="0"
         id="path14"
         style="fill:#000000;fill-opacity:1;fill-rule:nonzero;stroke:none" /></g></g></svg>