<?xml version="1.0" encoding="UTF-8" standalone="no"?>
<!-- Created with Inkscape (http://www.inkscape.org/) -->

<svg
   xmlns:dc="http://purl.org/dc/elements/1.1/"
   xmlns:cc="http://creativecommons.org/ns#"
   xmlns:rdf="http://www.w3.org/1999/02/22-rdf-syntax-ns#"
   xmlns:svg="http://www.w3.org/2000/svg"
   xmlns="http://www.w3.org/2000/svg"
   xmlns:inkscape="http://www.inkscape.org/namespaces/inkscape"
   version="1.1"
   width="87.5"
   height="95"
   id="svg2"
   xml:space="preserve"><metadata
     id="metadata8"><rdf:RDF><cc:Work
         rdf:about=""><dc:format>image/svg+xml</dc:format><dc:type
           rdf:resource="http://purl.org/dc/dcmitype/StillImage" /></cc:Work></rdf:RDF></metadata><defs
     id="defs6" /><g
     transform="matrix(1.25,0,0,-1.25,0,95)"
     id="g10"><g
       transform="scale(0.1,0.1)"
       id="g12"><path
         d="m 614.059,249.621 c -19.528,-17.34 -32.34,-23.121 -51.868,-23.121 -24.222,0 -44.851,12.809 -54.07,32.34 -8.121,16.09 -10.461,31.09 -10.461,80.629 l 0,244.211 c 0,69.07 -18.441,104.851 -65.629,131.41 -42.652,24.058 -102.5,39.058 -155.472,39.058 -49.528,0 -111.868,-13.75 -157.969,-33.429 -54.0587,-24.071 -93.2814,-72.5 -93.2814,-112.821 0,-27.648 25.3125,-50.777 55.3125,-50.777 32.3479,0 58.7579,26.559 58.7579,58.91 l -1.098,32.188 c 0,33.429 51.879,59.84 116.25,59.84 81.879,0 133.75,-40.309 133.75,-103.59 l 0,-92.188 C 250,497.281 244.219,496.18 193.59,483.531 65.6211,451.18 0,394.781 0,317.59 0,234.621 74.8398,174.781 177.34,174.781 c 77.191,0 133.75,24.059 210.941,88.59 21.879,-60.941 61.098,-88.59 127.809,-88.59 5.789,0 11.57,0 21.879,1.09 -29.848,-22.973 -44.848,-52.973 -44.848,-87.4999 0,-45 32.188,-78.44141 75.938,-78.44141 41.562,0 71.41,15.00001 127.972,64.53911 L 678.59,98.6797 C 645.16,67.5898 623.281,56.0313 601.41,56.0313 c -30,0 -52.969,21.8671 -52.969,51.8667 0,20.782 16.09,54.223 34.528,67.973 l 37.972,30 15,13.75 -21.882,30 z M 388.281,315.25 C 323.75,254.148 275.309,230.09 217.809,230.09 162.5,230.09 117.5,273.84 117.5,329.148 c 0,77.192 96.719,127.821 270.781,142.821 l 0,-156.719 z"
         inkscape:connector-curvature="0"
         id="path14"
         style="fill:#000000;fill-opacity:1;fill-rule:nonzero;stroke:none" /></g></g></svg>