<?xml version="1.0" encoding="UTF-8" standalone="no"?>
<!-- Created with Inkscape (http://www.inkscape.org/) -->

<svg
   xmlns:dc="http://purl.org/dc/elements/1.1/"
   xmlns:cc="http://creativecommons.org/ns#"
   xmlns:rdf="http://www.w3.org/1999/02/22-rdf-syntax-ns#"
   xmlns:svg="http://www.w3.org/2000/svg"
   xmlns="http://www.w3.org/2000/svg"
   xmlns:inkscape="http://www.inkscape.org/namespaces/inkscape"
   version="1.1"
   width="66.25"
   height="95"
   id="svg2"
   xml:space="preserve"><metadata
     id="metadata8"><rdf:RDF><cc:Work
         rdf:about=""><dc:format>image/svg+xml</dc:format><dc:type
           rdf:resource="http://purl.org/dc/dcmitype/StillImage" /></cc:Work></rdf:RDF></metadata><defs
     id="defs6" /><g
     transform="matrix(1.25,0,0,-1.25,0,95)"
     id="g10"><g
       transform="scale(0.1,0.1)"
       id="g12"><path
         d="M 523.012,518.059 C 521.91,584.781 506.91,626.34 468.949,670.09 422.852,724.309 352.539,754.148 271.91,754.148 114.102,754.148 0.0390625,635.559 0.0390625,469.621 0.0390625,392.43 28.7891,315.25 75.9805,262.281 c 51.8715,-58.75 122.1795,-87.5 209.6795,-87.5 27.66,0 47.352,2.188 75,9.219 -40.461,-28.91 -56.558,-55.32 -56.558,-95.6289 0,-45 32.347,-78.44141 76.097,-78.44141 41.403,0 71.403,15.00001 127.813,64.53911 L 489.57,98.6797 C 456.289,67.5898 434.262,56.0313 412.379,56.0313 c -29.84,0 -52.969,21.8671 -52.969,51.8667 0,24.223 18.442,57.661 47.192,82.973 77.187,69.059 88.75,81.719 116.41,127.809 l -37.973,18.441 C 443.48,261.18 390.512,226.5 319.102,226.5 c -81.723,0 -141.723,41.559 -172.813,118.75 -17.187,40.309 -22.969,90.93 -22.969,172.809 l 399.692,0 z m -396.25,46.089 c 7.968,48.282 15,69.071 33.437,93.282 24.063,33.441 60.93,50.629 107.031,50.629 61.09,0 104.84,-28.75 126.719,-85.161 4.68,-12.648 10.461,-42.648 9.211,-55.308 l 0,-3.442 -276.398,0 z"
         inkscape:connector-curvature="0"
         id="path14"
         style="fill:#000000;fill-opacity:1;fill-rule:nonzero;stroke:none" /></g></g></svg>