<?xml version="1.0" encoding="UTF-8" standalone="no"?>
<!-- Created with Inkscape (http://www.inkscape.org/) -->

<svg
   xmlns:dc="http://purl.org/dc/elements/1.1/"
   xmlns:cc="http://creativecommons.org/ns#"
   xmlns:rdf="http://www.w3.org/1999/02/22-rdf-syntax-ns#"
   xmlns:svg="http://www.w3.org/2000/svg"
   xmlns="http://www.w3.org/2000/svg"
   xmlns:inkscape="http://www.inkscape.org/namespaces/inkscape"
   version="1.1"
   width="97.5"
   height="131.25"
   id="svg2"
   xml:space="preserve"><metadata
     id="metadata8"><rdf:RDF><cc:Work
         rdf:about=""><dc:format>image/svg+xml</dc:format><dc:type
           rdf:resource="http://purl.org/dc/dcmitype/StillImage" /></cc:Work></rdf:RDF></metadata><defs
     id="defs6" /><g
     transform="matrix(1.25,0,0,-1.25,0,131.25)"
     id="g10"><g
       transform="scale(0.1,0.1)"
       id="g12"><path
         d="m 199.301,1026.1 c 34.527,-73.748 102.5,-116.409 187.808,-116.409 79.532,0 154.371,46.09 190,116.409 l -26.41,20.78 c -39.219,-35.78 -103.75,-60.001 -161.25,-60.001 -60,0 -115.308,20.781 -163.59,60.001 l -26.558,-20.78 z m 458.59,-231.569 -657.812875,0 0,-35.781 28.749975,-3.43 c 59.8438,-7.968 74.8439,-32.191 74.8439,-126.718 l 0,-452.661 C 103.672,81.4102 88.6719,57.1914 28.8281,49.2188 L 0.078125,45.7813 0.078125,10 671.641,10 776.48,255.32 740.699,271.57 C 615.23,110.16 520.699,59.5313 349.141,59.5313 c -57.661,0 -96.871,10.3203 -115.313,32.1875 -10.308,13.9102 -15,32.3512 -15,69.2222 l 0,243.129 85.313,0 c 91.089,0 130.16,-40.32 141.718,-148.75 l 39.219,0 0,344.532 -39.219,0 C 429.77,480 404.301,453.602 306.48,453.602 l -87.652,0 0,195.777 c 0,73.75 30,95.621 131.402,95.621 156.719,0 244.219,-43.75 350.161,-172.809 l 36.879,15 -79.379,207.34 z"
         inkscape:connector-curvature="0"
         id="path14"
         style="fill:#000000;fill-opacity:1;fill-rule:nonzero;stroke:none" /></g></g></svg>