<?xml version="1.0" encoding="UTF-8" standalone="no"?>
<!-- Created with Inkscape (http://www.inkscape.org/) -->

<svg
   xmlns:dc="http://purl.org/dc/elements/1.1/"
   xmlns:cc="http://creativecommons.org/ns#"
   xmlns:rdf="http://www.w3.org/1999/02/22-rdf-syntax-ns#"
   xmlns:svg="http://www.w3.org/2000/svg"
   xmlns="http://www.w3.org/2000/svg"
   xmlns:inkscape="http://www.inkscape.org/namespaces/inkscape"
   version="1.1"
   width="97.5"
   height="121.25"
   id="svg2"
   xml:space="preserve"><metadata
     id="metadata8"><rdf:RDF><cc:Work
         rdf:about=""><dc:format>image/svg+xml</dc:format><dc:type
           rdf:resource="http://purl.org/dc/dcmitype/StillImage" /></cc:Work></rdf:RDF></metadata><defs
     id="defs6" /><g
     transform="matrix(1.25,0,0,-1.25,0,121.25)"
     id="g10"><g
       transform="scale(0.1,0.1)"
       id="g12"><path
         d="m 485.078,774.93 -39.219,0 C 429.77,655.078 404.301,628.68 306.48,628.68 l -87.652,0 0,195.781 c 0,73.75 30,95.617 131.402,95.617 156.719,0 244.219,-43.75 350.161,-172.808 l 36.879,15 -79.379,207.351 -657.812875,0 0,-35.793 28.749975,-3.43 C 88.6719,922.43 103.672,898.211 103.672,803.68 l 0,-452.66 c 0,-94.532 -15.0001,-118.75 -74.8439,-126.719 l -28.749975,-3.43 0,-35.793 628.901875,0 c -41.402,-30 -57.5,-56.398 -57.5,-96.7069 0,-45 32.192,-78.44141 74.848,-78.44141 42.652,0 72.5,15.00001 129.063,64.53121 L 756.949,98.6797 C 723.52,67.5781 701.641,56.0195 679.77,56.0195 c -31.098,0 -53.129,21.8789 -53.129,51.8785 0,26.563 17.339,55.313 45,77.18 l 104.839,245.32 -35.781,16.25 c -125.469,-161.41 -220,-212.027 -391.558,-212.027 -57.661,0 -96.871,10.309 -115.313,32.18 -10.308,13.91 -15,32.347 -15,69.219 l 0,243.128 85.313,0 c 91.089,0 130.16,-40.32 141.718,-148.75 l 39.219,0 0,344.532 z"
         inkscape:connector-curvature="0"
         id="path14"
         style="fill:#000000;fill-opacity:1;fill-rule:nonzero;stroke:none" /></g></g></svg>