<?xml version="1.0" encoding="UTF-8" standalone="no"?>
<!-- Created with Inkscape (http://www.inkscape.org/) -->

<svg
   xmlns:dc="http://purl.org/dc/elements/1.1/"
   xmlns:cc="http://creativecommons.org/ns#"
   xmlns:rdf="http://www.w3.org/1999/02/22-rdf-syntax-ns#"
   xmlns:svg="http://www.w3.org/2000/svg"
   xmlns="http://www.w3.org/2000/svg"
   xmlns:inkscape="http://www.inkscape.org/namespaces/inkscape"
   version="1.1"
   width="106.25"
   height="128.75"
   id="svg2"
   xml:space="preserve"><metadata
     id="metadata8"><rdf:RDF><cc:Work
         rdf:about=""><dc:format>image/svg+xml</dc:format><dc:type
           rdf:resource="http://purl.org/dc/dcmitype/StillImage" /></cc:Work></rdf:RDF></metadata><defs
     id="defs6" /><g
     transform="matrix(1.25,0,0,-1.25,0,128.75)"
     id="g10"><g
       transform="scale(0.1,0.1)"
       id="g12"><path
         d="m 669.301,809.5 -35.629,0 -23.121,-55.309 C 543.672,800.281 465.391,824.5 385.859,824.5 282.27,824.5 177.422,778.41 104.77,701.219 36.8008,626.379 -0.078125,529.5 -0.078125,420.129 -0.078125,186.219 170.551,9.96875 397.422,9.96875 496.48,9.96875 572.578,37.6289 658.98,104.5 l 36.879,-79.5312 54.063,0 0,207.3402 c 0,43.75 4.687,72.66 13.906,94.531 7.973,18.441 21.871,25.32 60.942,32.191 l 20.781,3.438 0,35.781 -314.531,0 0,-34.531 C 615.23,353.25 643.98,325.59 643.98,255.441 643.98,213.879 630.078,173.559 607.109,143.559 567.891,97.4688 489.609,65.2813 413.52,65.2813 247.73,65.2813 135.859,204.66 135.859,412 c 0,214.379 102.661,357.191 257.032,357.191 62.187,0 122.031,-24.222 182.031,-73.75 37.969,-32.191 67.969,-67.972 120.937,-142.812 l 43.75,12.652 L 669.301,809.5 z M 223.52,1007.63 c 34.531,-73.751 102.5,-116.411 187.808,-116.411 79.371,0 154.371,46.09 190,116.411 l -26.406,20.78 c -39.223,-35.781 -103.75,-60 -161.402,-60 -59.848,0 -115.161,20.781 -163.598,60 l -26.402,-20.78 z"
         inkscape:connector-curvature="0"
         id="path14"
         style="fill:#000000;fill-opacity:1;fill-rule:nonzero;stroke:none" /></g></g></svg>