<?xml version="1.0" encoding="UTF-8" standalone="no"?>
<!-- Created with Inkscape (http://www.inkscape.org/) -->

<svg
   xmlns:dc="http://purl.org/dc/elements/1.1/"
   xmlns:cc="http://creativecommons.org/ns#"
   xmlns:rdf="http://www.w3.org/1999/02/22-rdf-syntax-ns#"
   xmlns:svg="http://www.w3.org/2000/svg"
   xmlns="http://www.w3.org/2000/svg"
   xmlns:inkscape="http://www.inkscape.org/namespaces/inkscape"
   version="1.1"
   width="66.25"
   height="105"
   id="svg2"
   xml:space="preserve"><metadata
     id="metadata8"><rdf:RDF><cc:Work
         rdf:about=""><dc:format>image/svg+xml</dc:format><dc:type
           rdf:resource="http://purl.org/dc/dcmitype/StillImage" /></cc:Work></rdf:RDF></metadata><defs
     id="defs6" /><g
     transform="matrix(1.25,0,0,-1.25,0,105)"
     id="g10"><g
       transform="scale(0.1,0.1)"
       id="g12"><path
         d="M 72.5391,810.672 C 107.07,736.922 175.039,694.27 260.352,694.27 c 79.527,0 154.378,46.089 190.16,116.402 l -26.563,20.777 c -39.219,-35.777 -103.75,-60 -161.25,-60 -60,0 -115.16,20.789 -163.5974,60 L 72.5391,810.672 z M 485.039,172.391 C 443.48,96.4492 390.512,61.7695 319.102,61.7695 c -81.723,0 -141.723,41.5585 -172.813,118.7505 -17.187,40.308 -22.969,90.929 -22.969,172.808 l 399.692,0 C 521.91,420.051 506.91,461.609 468.949,505.359 422.852,559.578 352.539,589.422 271.91,589.422 114.102,589.422 0.0390625,470.828 0.0390625,304.891 0.0390625,227.699 28.7891,150.52 75.9805,97.5508 c 51.8715,-58.75 122.1795,-87.5 208.5895,-87.5 105.942,0 179.692,43.75 238.442,143.8982 l -37.973,18.442 z M 126.762,399.422 c 7.968,48.277 15,69.066 33.437,93.277 24.063,33.442 60.93,50.629 107.031,50.629 61.09,0 104.84,-28.75 126.719,-85.156 4.68,-12.652 10.461,-42.652 9.211,-55.313 l 0,-3.437 -276.398,0 z"
         inkscape:connector-curvature="0"
         id="path14"
         style="fill:#000000;fill-opacity:1;fill-rule:nonzero;stroke:none" /></g></g></svg>