<?xml version="1.0" encoding="UTF-8" standalone="no"?>
<!-- Created with Inkscape (http://www.inkscape.org/) -->

<svg
   xmlns:dc="http://purl.org/dc/elements/1.1/"
   xmlns:cc="http://creativecommons.org/ns#"
   xmlns:rdf="http://www.w3.org/1999/02/22-rdf-syntax-ns#"
   xmlns:svg="http://www.w3.org/2000/svg"
   xmlns="http://www.w3.org/2000/svg"
   xmlns:inkscape="http://www.inkscape.org/namespaces/inkscape"
   version="1.1"
   width="66.25"
   height="101.25"
   id="svg2"
   xml:space="preserve"><metadata
     id="metadata8"><rdf:RDF><cc:Work
         rdf:about=""><dc:format>image/svg+xml</dc:format><dc:type
           rdf:resource="http://purl.org/dc/dcmitype/StillImage" /></cc:Work></rdf:RDF></metadata><defs
     id="defs6" /><g
     transform="matrix(1.25,0,0,-1.25,0,101.25)"
     id="g10"><g
       transform="scale(0.1,0.1)"
       id="g12"><path
         d="M 485.039,172.379 C 443.48,96.4414 390.512,61.75 319.102,61.75 c -81.723,0 -141.723,41.57 -172.813,118.75 -17.187,40.32 -22.969,90.941 -22.969,172.82 l 399.692,0 C 521.91,420.039 506.91,461.602 468.949,505.352 422.852,559.57 352.539,589.41 271.91,589.41 114.102,589.41 0.0390625,470.82 0.0390625,304.879 0.0390625,227.691 28.7891,150.5 75.9805,97.5391 c 51.8715,-58.75 122.1795,-87.5 208.5895,-87.5 105.942,0 179.692,43.75 238.442,143.9019 l -37.973,18.438 z M 126.762,399.41 c 7.968,48.281 15,69.059 33.437,93.281 24.063,33.438 60.93,50.629 107.031,50.629 61.09,0 104.84,-28.75 126.719,-85.16 4.68,-12.66 10.461,-42.66 9.211,-55.308 l 0,-3.442 -276.398,0 z m 150.937,405.469 c -38.129,0 -69.219,-30 -69.219,-67.969 0,-36.871 31.09,-67.969 67.969,-67.969 36.871,0 67.961,31.098 67.961,67.969 0,36.879 -31.09,67.969 -66.711,67.969 z"
         inkscape:connector-curvature="0"
         id="path14"
         style="fill:#000000;fill-opacity:1;fill-rule:nonzero;stroke:none" /></g></g></svg>