<?xml version="1.0" encoding="UTF-8" standalone="no"?>
<!-- Created with Inkscape (http://www.inkscape.org/) -->

<svg
   xmlns:dc="http://purl.org/dc/elements/1.1/"
   xmlns:cc="http://creativecommons.org/ns#"
   xmlns:rdf="http://www.w3.org/1999/02/22-rdf-syntax-ns#"
   xmlns:svg="http://www.w3.org/2000/svg"
   xmlns="http://www.w3.org/2000/svg"
   xmlns:inkscape="http://www.inkscape.org/namespaces/inkscape"
   version="1.1"
   width="80"
   height="106.25"
   id="svg2"
   xml:space="preserve"><metadata
     id="metadata8"><rdf:RDF><cc:Work
         rdf:about=""><dc:format>image/svg+xml</dc:format><dc:type
           rdf:resource="http://purl.org/dc/dcmitype/StillImage" /></cc:Work></rdf:RDF></metadata><defs
     id="defs6" /><g
     transform="matrix(1.25,0,0,-1.25,0,106.25)"
     id="g10"><g
       transform="scale(0.1,0.1)"
       id="g12"><path
         d="m 444.73,636.781 0,-108.441 C 382.539,571 323.789,589.441 253.48,589.441 109.41,589.441 0.0390625,463.969 0.0390625,298.031 c 0,-71.402 24.2226375,-148.59 63.2812375,-200.4724 40.3087,-54.2188 110.6287,-87.5 182.0317,-87.5 36.878,0 77.187,9.2227 115.308,25.3203 33.289,15 50.629,26.4024 84.07,62.1797 l 0,-77.1797 193.43,0 0,34.5313 -13.75,2.3398 c -52.961,11.5586 -70.308,34.5313 -70.308,95.629 l 0,483.902 84.058,0 0,54.059 -84.058,0 0,155.469 -46.09,0 C 450.512,823.34 423.949,816.469 345.66,807.25 l 0,-35.781 24.219,-2.34 c 51.723,-5.629 70.16,-25.32 73.601,-78.289 l -146.25,0 0,-54.059 147.5,0 z m 0,-480.472 C 392.852,92.8789 343.32,65.3789 278.789,65.3789 c -57.66,0 -105.937,31.0899 -130.16,84.0621 -19.527,41.399 -31.09,97.809 -31.09,150.938 0,51.711 11.563,105.93 30,147.34 26.41,58.75 74.84,89.84 140.473,89.84 55.308,0 94.527,-17.18 156.718,-69.059 l 0,-312.191 z"
         inkscape:connector-curvature="0"
         id="path14"
         style="fill:#000000;fill-opacity:1;fill-rule:nonzero;stroke:none" /></g></g></svg>