<?xml version="1.0" encoding="UTF-8" standalone="no"?>
<!-- Created with Inkscape (http://www.inkscape.org/) -->

<svg
   xmlns:dc="http://purl.org/dc/elements/1.1/"
   xmlns:cc="http://creativecommons.org/ns#"
   xmlns:rdf="http://www.w3.org/1999/02/22-rdf-syntax-ns#"
   xmlns:svg="http://www.w3.org/2000/svg"
   xmlns="http://www.w3.org/2000/svg"
   xmlns:inkscape="http://www.inkscape.org/namespaces/inkscape"
   version="1.1"
   width="97.5"
   height="127.5"
   id="svg2"
   xml:space="preserve"><metadata
     id="metadata8"><rdf:RDF><cc:Work
         rdf:about=""><dc:format>image/svg+xml</dc:format><dc:type
           rdf:resource="http://purl.org/dc/dcmitype/StillImage" /></cc:Work></rdf:RDF></metadata><defs
     id="defs6" /><g
     transform="matrix(1.25,0,0,-1.25,0,127.5)"
     id="g10"><g
       transform="scale(0.1,0.1)"
       id="g12"><path
         d="m 657.891,794.539 -657.812875,0 0,-35.777 28.749975,-3.434 c 59.8438,-7.969 74.8439,-32.187 74.8439,-126.719 l 0,-452.66 C 103.672,81.4219 88.6719,57.1992 28.8281,49.2305 l -28.749975,-3.4414 0,-35.7774 671.562875,0 104.839,245.3163 -35.781,16.25 C 615.23,110.172 520.699,59.5391 349.141,59.5391 c -57.661,0 -96.871,10.3203 -115.313,32.1914 -10.308,13.9105 -15,32.3475 -15,69.2185 l 0,243.129 85.313,0 c 91.089,0 130.16,-40.316 141.718,-148.75 l 39.219,0 0,344.531 -39.219,0 C 429.77,480.012 404.301,453.609 306.48,453.609 l -87.652,0 0,195.782 c 0,73.75 30,95.621 131.402,95.621 156.719,0 244.219,-43.75 350.161,-172.813 l 36.879,15 -79.379,207.34 z m -281.09,217.821 c -38.129,0 -69.223,-30.001 -69.223,-67.969 0,-36.879 31.094,-68.129 67.973,-68.129 36.871,0 67.969,31.25 67.969,68.129 0,36.718 -31.098,67.969 -66.719,67.969 z"
         inkscape:connector-curvature="0"
         id="path14"
         style="fill:#000000;fill-opacity:1;fill-rule:nonzero;stroke:none" /></g></g></svg>