<?xml version="1.0" encoding="UTF-8" standalone="no"?>
<!-- Created with Inkscape (http://www.inkscape.org/) -->

<svg
   xmlns:dc="http://purl.org/dc/elements/1.1/"
   xmlns:cc="http://creativecommons.org/ns#"
   xmlns:rdf="http://www.w3.org/1999/02/22-rdf-syntax-ns#"
   xmlns:svg="http://www.w3.org/2000/svg"
   xmlns="http://www.w3.org/2000/svg"
   xmlns:inkscape="http://www.inkscape.org/namespaces/inkscape"
   version="1.1"
   width="76.25"
   height="135"
   id="svg2"
   xml:space="preserve"><metadata
     id="metadata8"><rdf:RDF><cc:Work
         rdf:about=""><dc:format>image/svg+xml</dc:format><dc:type
           rdf:resource="http://purl.org/dc/dcmitype/StillImage" /></cc:Work></rdf:RDF></metadata><defs
     id="defs6" /><g
     transform="matrix(1.25,0,0,-1.25,0,135)"
     id="g10"><g
       transform="scale(0.1,0.1)"
       id="g12"><path
         d="m 206.211,368.262 c -51.871,6.867 -74.84,20.777 -74.84,47.179 0,20.789 19.527,43.911 52.969,61.098 46.09,-15 69.058,-18.437 108.281,-18.437 82.969,0 145.149,21.878 187.809,63.437 32.191,33.441 54.058,85.152 54.058,130.152 0,63.289 -35.617,123.289 -95.617,163.598 23.117,34.531 41.559,49.531 61.09,49.531 8.129,0 11.559,-1.09 26.559,-10.308 12.66,-8.133 22.968,-11.571 34.531,-11.571 25.32,0 43.75,18.438 43.75,43.75 0,28.75 -25.313,49.539 -62.18,49.539 -34.531,0 -73.75,-15 -96.723,-39.218 -13.91,-13.75 -23.128,-25.321 -43.75,-63.282 -46.097,17.18 -72.66,22.961 -108.437,22.961 -131.25,0 -237.1915,-90.929 -237.1915,-205 0,-66.871 31.1016,-120.929 93.2815,-163.589 C 72.6211,462.789 36.8398,427.012 36.8398,372.941 c 0,-46.089 25.3086,-76.089 84.2112,-96.871 C 35.7383,243.879 -0.0390625,207.012 -0.0390625,150.602 -0.0390625,110.289 32.3008,69.9805 80.5898,49.1914 138.238,23.8789 214.34,9.98047 292.621,9.98047 c 186.719,0 307.649,73.75003 307.649,186.71053 0,31.098 -10.469,60.938 -27.649,82.821 -23.133,31.09 -65.781,47.34 -146.41,58.75 l -220,30 z m 93.277,451.558 c 79.532,0 117.5,-52.968 117.5,-162.34 0,-51.878 -9.218,-95.628 -26.398,-119.851 -18.442,-25.309 -55.32,-42.649 -94.539,-42.649 -81.711,0 -122.031,52.961 -122.031,163.59 0,101.41 46.101,161.25 125.468,161.25 z m 101.41,-582.808 c 85.313,-10.473 118.75,-32.352 118.75,-77.192 0,-26.558 -16.25,-50.781 -47.347,-70.3083 -34.531,-23.1328 -104.84,-36.8828 -179.68,-36.8828 -132.5,0 -223.4413,44.8516 -223.4413,109.3831 0,43.898 33.4413,80.617 95.6213,103.75 l 236.097,-28.75 z M 104.801,1052.63 c 34.539,-73.751 102.5,-116.4 187.82,-116.4 79.527,0 154.367,46.09 190.149,116.4 l -26.559,20.63 c -39.223,-35.63 -103.75,-59.85 -161.25,-59.85 -60,0 -115.16,20.78 -163.59,59.85 l -26.57,-20.63 z"
         inkscape:connector-curvature="0"
         id="path14"
         style="fill:#000000;fill-opacity:1;fill-rule:nonzero;stroke:none" /></g></g></svg>