<?xml version="1.0" encoding="UTF-8" standalone="no"?>
<!-- Created with Inkscape (http://www.inkscape.org/) -->

<svg
   xmlns:dc="http://purl.org/dc/elements/1.1/"
   xmlns:cc="http://creativecommons.org/ns#"
   xmlns:rdf="http://www.w3.org/1999/02/22-rdf-syntax-ns#"
   xmlns:svg="http://www.w3.org/2000/svg"
   xmlns="http://www.w3.org/2000/svg"
   xmlns:inkscape="http://www.inkscape.org/namespaces/inkscape"
   version="1.1"
   width="72.5"
   height="122.5"
   id="svg2"
   xml:space="preserve"><metadata
     id="metadata8"><rdf:RDF><cc:Work
         rdf:about=""><dc:format>image/svg+xml</dc:format><dc:type
           rdf:resource="http://purl.org/dc/dcmitype/StillImage" /></cc:Work></rdf:RDF></metadata><defs
     id="defs6" /><g
     transform="matrix(1.25,0,0,-1.25,0,122.5)"
     id="g10"><g
       transform="scale(0.1,0.1)"
       id="g12"><path
         d="m 489.141,975.941 89.839,0 0,-965.7808 -89.839,0 0,965.7808 z M 116.172,387.5 c -35.9415,0 -64.3712,11.172 -85.3126,33.59 -20.93752,22.5 -31.410181,50.199 -31.410181,83.129 0,33.011 10.472661,60 31.410181,80.941 20.9414,20.93 49.3711,31.399 85.3126,31.399 33.008,0 60,-10.469 80.937,-31.399 20.942,-20.941 31.411,-47.93 31.411,-80.941 0,-35.938 -10.469,-64.379 -31.411,-85.309 C 176.172,397.969 149.18,387.5 116.172,387.5 z"
         inkscape:connector-curvature="0"
         id="path14"
         style="fill:#000000;fill-opacity:1;fill-rule:nonzero;stroke:none" /></g></g></svg>