<?xml version="1.0" encoding="UTF-8" standalone="no"?>
<!-- Created with Inkscape (http://www.inkscape.org/) -->

<svg
   xmlns:dc="http://purl.org/dc/elements/1.1/"
   xmlns:cc="http://creativecommons.org/ns#"
   xmlns:rdf="http://www.w3.org/1999/02/22-rdf-syntax-ns#"
   xmlns:svg="http://www.w3.org/2000/svg"
   xmlns="http://www.w3.org/2000/svg"
   xmlns:inkscape="http://www.inkscape.org/namespaces/inkscape"
   version="1.1"
   width="43.75"
   height="93.75"
   id="svg2"
   xml:space="preserve"><metadata
     id="metadata8"><rdf:RDF><cc:Work
         rdf:about=""><dc:format>image/svg+xml</dc:format><dc:type
           rdf:resource="http://purl.org/dc/dcmitype/StillImage" /></cc:Work></rdf:RDF></metadata><defs
     id="defs6" /><g
     transform="matrix(1.25,0,0,-1.25,0,93.75)"
     id="g10"><g
       transform="scale(0.1,0.1)"
       id="g12"><path
         d="m 234.961,568.75 -39.063,0 C 125.59,556.09 87.6211,550.309 26.5195,545.621 l 0,-34.531 22.9688,-2.192 C 109.488,503.121 125.59,482.34 125.59,413.281 l 0,-270.781 c 0,-63.4414 -20.789,-89.8516 -71.4103,-95.6289 l -28.9102,-2.3398 0,-34.5313 308.7505,0 0,34.5313 -27.649,2.3398 c -51.723,5.7773 -71.41,32.1875 -71.41,95.6289 l 0,426.25 z m 106.09,175.148 -341.0900625,0 0,-57.648 341.0900625,0 0,57.648 z"
         inkscape:connector-curvature="0"
         id="path14"
         style="fill:#000000;fill-opacity:1;fill-rule:nonzero;stroke:none" /></g></g></svg>