<?xml version="1.0" encoding="UTF-8" standalone="no"?>
<!-- Created with Inkscape (http://www.inkscape.org/) -->

<svg
   xmlns:dc="http://purl.org/dc/elements/1.1/"
   xmlns:cc="http://creativecommons.org/ns#"
   xmlns:rdf="http://www.w3.org/1999/02/22-rdf-syntax-ns#"
   xmlns:svg="http://www.w3.org/2000/svg"
   xmlns="http://www.w3.org/2000/svg"
   xmlns:inkscape="http://www.inkscape.org/namespaces/inkscape"
   version="1.1"
   width="106.25"
   height="133.75"
   id="svg2"
   xml:space="preserve"><metadata
     id="metadata8"><rdf:RDF><cc:Work
         rdf:about=""><dc:format>image/svg+xml</dc:format><dc:type
           rdf:resource="http://purl.org/dc/dcmitype/StillImage" /></cc:Work></rdf:RDF></metadata><defs
     id="defs6" /><g
     transform="matrix(1.25,0,0,-1.25,0,133.75)"
     id="g10"><g
       transform="scale(0.1,0.1)"
       id="g12"><path
         d="m 423.98,1060.58 c -38.121,0 -69.21,-29.84 -69.21,-67.959 0,-36.883 31.089,-67.973 67.96,-67.973 36.879,0 67.969,31.09 67.969,67.973 0,36.869 -31.09,67.959 -66.719,67.959 z m 245.321,-251.092 -35.629,0 -23.121,-55.308 c -66.879,46.09 -145.16,70.308 -224.692,70.308 -103.589,0 -208.437,-46.09 -281.089,-123.277 C 36.8008,626.371 -0.078125,529.488 -0.078125,420.121 -0.078125,186.211 170.551,9.96094 397.422,9.96094 c 99.058,0 175.156,27.66016 261.558,94.52706 l 36.879,-79.5271 54.063,0 0,207.3401 c 0,43.75 4.687,72.66 13.906,94.527 7.973,18.442 21.871,25.32 60.942,32.192 l 20.781,3.441 0,35.777 -314.531,0 0,-34.527 c 84.21,-10.473 112.96,-38.133 112.96,-108.281 0,-41.559 -13.902,-81.879 -36.871,-111.879 -39.218,-46.0901 -117.5,-78.2815 -193.589,-78.2815 -165.79,0 -277.661,139.3785 -277.661,346.7185 0,214.383 102.661,357.192 257.032,357.192 62.187,0 122.031,-24.219 182.031,-73.75 37.969,-32.192 67.969,-67.969 120.937,-142.809 l 43.75,12.649 -70.308,244.218 z"
         inkscape:connector-curvature="0"
         id="path14"
         style="fill:#000000;fill-opacity:1;fill-rule:nonzero;stroke:none" /></g></g></svg>