<?xml version="1.0" encoding="UTF-8" standalone="no"?>
<!-- Created with Inkscape (http://www.inkscape.org/) -->

<svg
   xmlns:dc="http://purl.org/dc/elements/1.1/"
   xmlns:cc="http://creativecommons.org/ns#"
   xmlns:rdf="http://www.w3.org/1999/02/22-rdf-syntax-ns#"
   xmlns:svg="http://www.w3.org/2000/svg"
   xmlns="http://www.w3.org/2000/svg"
   xmlns:inkscape="http://www.inkscape.org/namespaces/inkscape"
   version="1.1"
   width="47.5"
   height="103.75"
   id="svg2"
   xml:space="preserve"><metadata
     id="metadata8"><rdf:RDF><cc:Work
         rdf:about=""><dc:format>image/svg+xml</dc:format><dc:type
           rdf:resource="http://purl.org/dc/dcmitype/StillImage" /></cc:Work></rdf:RDF></metadata><defs
     id="defs6" /><g
     transform="matrix(1.25,0,0,-1.25,0,103.75)"
     id="g10"><g
       transform="scale(0.1,0.1)"
       id="g12"><path
         d="M -0.0390625,800.301 C 34.4883,726.551 102.461,683.898 187.77,683.898 c 79.531,0 154.378,46.09 190.16,116.403 l -26.559,20.789 c -39.223,-35.789 -103.75,-60 -161.25,-60 -60,0 -115.1601,20.781 -163.6015,60 L -0.0390625,800.301 z M 244.18,568.738 l -39.059,0 C 134.801,556.09 96.8398,550.301 35.7383,545.621 l 0,-34.531 22.9726,-2.192 C 118.711,503.121 134.801,482.34 134.801,413.27 l 0,-270.782 c 0,-63.4372 -20.781,-89.8396 -71.4026,-95.6169 l -28.9101,-2.3516 0,-34.53122 308.7497,0 0,34.53122 -27.648,2.3516 c -51.719,5.7773 -71.41,32.1797 -71.41,95.6169 l 0,426.25 z"
         inkscape:connector-curvature="0"
         id="path14"
         style="fill:#000000;fill-opacity:1;fill-rule:nonzero;stroke:none" /></g></g></svg>