<?xml version="1.0" encoding="UTF-8" standalone="no"?>
<!-- Created with Inkscape (http://www.inkscape.org/) -->

<svg
   xmlns:dc="http://purl.org/dc/elements/1.1/"
   xmlns:cc="http://creativecommons.org/ns#"
   xmlns:rdf="http://www.w3.org/1999/02/22-rdf-syntax-ns#"
   xmlns:svg="http://www.w3.org/2000/svg"
   xmlns="http://www.w3.org/2000/svg"
   xmlns:inkscape="http://www.inkscape.org/namespaces/inkscape"
   version="1.1"
   width="107.5"
   height="100"
   id="svg2"
   xml:space="preserve"><metadata
     id="metadata8"><rdf:RDF><cc:Work
         rdf:about=""><dc:format>image/svg+xml</dc:format><dc:type
           rdf:resource="http://purl.org/dc/dcmitype/StillImage" /></cc:Work></rdf:RDF></metadata><defs
     id="defs6" /><g
     transform="matrix(1.25,0,0,-1.25,0,100)"
     id="g10"><g
       transform="scale(0.1,0.1)"
       id="g12"><path
         d="m 218.828,571.07 412.5,0 0,-114.058 -412.5,0 0,114.058 z m -115.156,0 0,-395.148 C 103.672,81.3906 88.6719,57.1719 28.8281,49.1992 l -28.749975,-3.4375 0,-35.78123 322.499875,0 0,35.78123 -28.75,3.4375 c -60,7.9727 -75,32.1914 -75,126.7228 l 0,231.558 412.5,0 0,-231.558 c 0,-94.5314 -15,-118.7501 -74.848,-126.7228 l -28.902,-3.4375 0,-35.78123 322.652,0 0,35.78123 -28.75,3.4375 c -60,7.9727 -75,32.1914 -75,126.7228 l 0,395.148 103.75,0 0,57.5 -103.75,0 c 0,94.539 15,118.75 75,126.719 l 28.75,3.441 0,35.782 -322.652,0 0,-35.782 28.902,-3.441 c 59.848,-7.969 74.848,-32.18 74.848,-126.719 l -412.5,0 c 0,94.539 15,118.75 75,126.719 l 28.75,3.441 0,35.782 -322.499875,0 0,-35.782 28.749975,-3.441 C 88.6719,747.32 103.672,723.109 103.672,628.57 l -103.593875,0 0,-57.5 103.593875,0 z"
         inkscape:connector-curvature="0"
         id="path14"
         style="fill:#000000;fill-opacity:1;fill-rule:nonzero;stroke:none" /></g></g></svg>