<?xml version="1.0" encoding="UTF-8" standalone="no"?>
<!-- Created with Inkscape (http://www.inkscape.org/) -->

<svg
   xmlns:dc="http://purl.org/dc/elements/1.1/"
   xmlns:cc="http://creativecommons.org/ns#"
   xmlns:rdf="http://www.w3.org/1999/02/22-rdf-syntax-ns#"
   xmlns:svg="http://www.w3.org/2000/svg"
   xmlns="http://www.w3.org/2000/svg"
   xmlns:inkscape="http://www.inkscape.org/namespaces/inkscape"
   version="1.1"
   width="106.25"
   height="140"
   id="svg2"
   xml:space="preserve"><metadata
     id="metadata8"><rdf:RDF><cc:Work
         rdf:about=""><dc:format>image/svg+xml</dc:format><dc:type
           rdf:resource="http://purl.org/dc/dcmitype/StillImage" /></cc:Work></rdf:RDF></metadata><defs
     id="defs6" /><g
     transform="matrix(1.25,0,0,-1.25,0,140)"
     id="g10"><g
       transform="scale(0.1,0.1)"
       id="g12"><path
         d="m 669.301,1103.26 -35.629,0 -23.121,-55.31 c -66.879,46.09 -145.16,70.31 -224.692,70.31 -103.589,0 -208.437,-46.09 -281.089,-123.28 C 36.8008,920.141 -0.078125,823.262 -0.078125,713.891 -0.078125,479.98 170.551,303.73 397.422,303.73 c 99.058,0 175.156,27.661 261.558,94.532 l 36.879,-79.532 54.063,0 0,207.348 c 0,43.75 4.687,72.652 13.906,94.531 7.973,18.43 21.871,25.313 60.942,32.18 l 20.781,3.441 0,35.782 -314.531,0 0,-34.532 c 84.21,-10.468 112.96,-38.121 112.96,-108.281 0,-41.558 -13.902,-81.871 -36.871,-111.871 -39.218,-46.098 -117.5,-78.289 -193.589,-78.289 -165.79,0 -277.661,139.383 -277.661,346.723 0,214.379 102.661,357.188 257.032,357.188 62.187,0 122.031,-24.22 182.031,-73.751 37.969,-32.187 67.969,-67.969 120.937,-142.808 l 43.75,12.648 -70.308,244.221 z M 373.199,9.98047 c 71.41,33.44143 112.973,91.09753 112.973,156.71853 0,51.879 -35.781,94.379 -80.621,94.379 -39.223,0 -71.41,-32.187 -71.41,-70.156 0,-38.133 25.308,-65.781 62.187,-65.781 11.402,0 19.531,3.437 35.621,16.25 C 428.52,96.3906 408.98,66.3906 360.551,35.2891 L 373.199,9.98047 z"
         inkscape:connector-curvature="0"
         id="path14"
         style="fill:#000000;fill-opacity:1;fill-rule:nonzero;stroke:none" /></g></g></svg>