<?xml version="1.0" encoding="UTF-8" standalone="no"?>
<!-- Created with Inkscape (http://www.inkscape.org/) -->

<svg
   xmlns:dc="http://purl.org/dc/elements/1.1/"
   xmlns:cc="http://creativecommons.org/ns#"
   xmlns:rdf="http://www.w3.org/1999/02/22-rdf-syntax-ns#"
   xmlns:svg="http://www.w3.org/2000/svg"
   xmlns="http://www.w3.org/2000/svg"
   xmlns:inkscape="http://www.inkscape.org/namespaces/inkscape"
   version="1.1"
   width="92.5"
   height="105"
   id="svg2"
   xml:space="preserve"><metadata
     id="metadata8"><rdf:RDF><cc:Work
         rdf:about=""><dc:format>image/svg+xml</dc:format><dc:type
           rdf:resource="http://purl.org/dc/dcmitype/StillImage" /></cc:Work></rdf:RDF></metadata><defs
     id="defs6" /><g
     transform="matrix(1.25,0,0,-1.25,0,105)"
     id="g10"><g
       transform="scale(0.1,0.1)"
       id="g12"><path
         d="m 115.23,647.039 -115.151875,0 0,-57.5 115.151875,0 0,-447.027 c 0,-63.4417 -20.7808,-89.8518 -71.4019,-95.6331 l -28.9062,-2.3398 0,-34.5274 310.0001,0 0,34.5274 -28.902,2.3398 c -50.629,5.7813 -71.411,32.1914 -71.411,95.6331 l 0,286.867 c 67.969,64.531 132.5,94.383 199.371,94.383 65.629,0 99.071,-39.071 99.071,-116.25 l 0,-265 c 0,-63.4417 -20.781,-89.8518 -71.41,-95.6331 l -28.75,-2.3398 0,-34.5274 309.839,0 0,34.5274 -28.75,2.3398 c -50.781,5.7813 -71.558,32.1914 -71.558,95.6331 l 0,271.867 c 0,71.41 -12.652,104.851 -51.723,131.25 -32.34,22.031 -76.09,33.441 -129.058,33.441 -79.532,0 -150.942,-29.84 -227.032,-95.629 l 0,106.098 114.063,0 0,57.5 -114.063,0 0,188.902 -46.089,0 C 119.77,812.98 93.3594,806.102 14.9219,796.879 l 0,-35.777 25.4687,-2.34 c 58.75,-5.633 73.7504,-24.071 74.8394,-111.723 z"
         inkscape:connector-curvature="0"
         id="path14"
         style="fill:#000000;fill-opacity:1;fill-rule:nonzero;stroke:none" /></g></g></svg>