<?xml version="1.0" encoding="UTF-8" standalone="no"?>
<!-- Created with Inkscape (http://www.inkscape.org/) -->

<svg
   xmlns:dc="http://purl.org/dc/elements/1.1/"
   xmlns:cc="http://creativecommons.org/ns#"
   xmlns:rdf="http://www.w3.org/1999/02/22-rdf-syntax-ns#"
   xmlns:svg="http://www.w3.org/2000/svg"
   xmlns="http://www.w3.org/2000/svg"
   xmlns:inkscape="http://www.inkscape.org/namespaces/inkscape"
   version="1.1"
   width="45"
   height="98.75"
   id="svg2"
   xml:space="preserve"><metadata
     id="metadata8"><rdf:RDF><cc:Work
         rdf:about=""><dc:format>image/svg+xml</dc:format><dc:type
           rdf:resource="http://purl.org/dc/dcmitype/StillImage" /></cc:Work></rdf:RDF></metadata><defs
     id="defs6" /><g
     transform="matrix(1.25,0,0,-1.25,0,98.75)"
     id="g10"><g
       transform="scale(0.1,0.1)"
       id="g12"><path
         d="M 320.309,777.172 C 307.66,761.078 287.969,751.859 265,751.859 c -15,0 -28.91,2.34 -56.41,10.469 -58.899,16.094 -82.969,20.621 -109.5314,20.621 C 54.2188,782.949 15,751.859 0,704.672 l 33.4414,-11.563 c 15,17.34 27.6484,23.121 44.8399,23.121 16.25,0 26.5587,-2.339 62.3397,-11.558 56.41,-16.094 81.719,-20.781 109.379,-20.781 55.309,0 86.41,25.308 103.75,82.968 l -33.441,10.313 z M 232.66,568.73 l -39.07,0 C 123.281,556.078 85.3086,550.301 24.2188,545.609 l 0,-34.531 22.9726,-2.187 c 59.9996,-5.782 76.0896,-26.563 76.0896,-95.621 l 0,-270.79 c 0,-63.4292 -20.781,-89.8394 -71.4021,-95.6206 l -28.9101,-2.3399 0,-34.53903 308.7502,0 0,34.53903 -27.66,2.3399 C 252.34,52.6406 232.66,79.0508 232.66,142.48 l 0,426.25 z"
         inkscape:connector-curvature="0"
         id="path14"
         style="fill:#000000;fill-opacity:1;fill-rule:nonzero;stroke:none" /></g></g></svg>