<?xml version="1.0" encoding="UTF-8" standalone="no"?>
<!-- Created with Inkscape (http://www.inkscape.org/) -->

<svg
   xmlns:dc="http://purl.org/dc/elements/1.1/"
   xmlns:cc="http://creativecommons.org/ns#"
   xmlns:rdf="http://www.w3.org/1999/02/22-rdf-syntax-ns#"
   xmlns:svg="http://www.w3.org/2000/svg"
   xmlns="http://www.w3.org/2000/svg"
   xmlns:inkscape="http://www.inkscape.org/namespaces/inkscape"
   version="1.1"
   width="90"
   height="136.25"
   id="svg2"
   xml:space="preserve"><metadata
     id="metadata8"><rdf:RDF><cc:Work
         rdf:about=""><dc:format>image/svg+xml</dc:format><dc:type
           rdf:resource="http://purl.org/dc/dcmitype/StillImage" /></cc:Work></rdf:RDF></metadata><defs
     id="defs6" /><g
     transform="matrix(1.25,0,0,-1.25,0,136.25)"
     id="g10"><g
       transform="scale(0.1,0.1)"
       id="g12"><path
         d="m 359.449,1087.2 -163.59,-107.188 15,-28.75 148.59,51.878 147.5,-51.878 16.102,28.75 -163.602,107.188 z m -149.84,-251.251 -46.089,0 C 104.77,812.98 78.3594,806.102 -0.078125,796.891 l 0,-35.789 25.468725,-2.34 c 62.1875,-5.621 74.8394,-26.41 74.8394,-128.91 l 0,-487.34 c 0,-63.4417 -20.7808,-89.8401 -71.4019,-95.6214 l -28.906225,-2.3515 0,-34.5274 310.000125,0 0,34.5274 -28.902,2.3515 c -50.629,5.7813 -71.411,32.1797 -71.411,95.6214 l 0,286.879 c 67.969,64.531 132.5,94.371 199.371,94.371 65.629,0 99.071,-39.063 99.071,-116.25 l 0,-265 c 0,-63.4417 -20.781,-89.8401 -71.41,-95.6214 l -28.75,-2.3515 0,-34.5274 309.839,0 0,34.5274 -28.75,2.3515 c -50.781,5.7813 -71.558,32.1797 -71.558,95.6214 l 0,271.879 c 0,71.398 -12.652,104.839 -51.723,131.25 -32.34,22.031 -76.09,33.429 -129.058,33.429 -79.532,0 -150.942,-29.84 -227.032,-95.621 l 0,352.5 z"
         inkscape:connector-curvature="0"
         id="path14"
         style="fill:#000000;fill-opacity:1;fill-rule:nonzero;stroke:none" /></g></g></svg>