<?xml version="1.0" encoding="UTF-8" standalone="no"?>
<!-- Created with Inkscape (http://www.inkscape.org/) -->

<svg
   xmlns:dc="http://purl.org/dc/elements/1.1/"
   xmlns:cc="http://creativecommons.org/ns#"
   xmlns:rdf="http://www.w3.org/1999/02/22-rdf-syntax-ns#"
   xmlns:svg="http://www.w3.org/2000/svg"
   xmlns="http://www.w3.org/2000/svg"
   xmlns:inkscape="http://www.inkscape.org/namespaces/inkscape"
   version="1.1"
   width="107.5"
   height="131.25"
   id="svg2"
   xml:space="preserve"><metadata
     id="metadata8"><rdf:RDF><cc:Work
         rdf:about=""><dc:format>image/svg+xml</dc:format><dc:type
           rdf:resource="http://purl.org/dc/dcmitype/StillImage" /></cc:Work></rdf:RDF></metadata><defs
     id="defs6" /><g
     transform="matrix(1.25,0,0,-1.25,0,131.25)"
     id="g10"><g
       transform="scale(0.1,0.1)"
       id="g12"><path
         d="M 425.078,1045.61 261.48,938.578 l 15,-28.906 148.598,51.879 147.5,-51.879 16.094,28.906 -163.594,107.032 z m -206.25,-588.59 0,171.558 c 0,94.531 15,118.75 75,126.723 l 28.75,3.429 0,35.79 -322.499875,0 0,-35.79 28.749975,-3.429 c 59.8438,-7.973 74.8439,-32.192 74.8439,-126.723 l 0,-452.656 C 103.672,81.3906 88.6719,57.1719 28.8281,49.1992 l -28.749975,-3.4297 0,-35.78903 322.499875,0 0,35.78903 -28.75,3.4297 c -60,7.9727 -75,32.1914 -75,126.7228 l 0,231.558 412.5,0 0,-231.558 c 0,-94.5314 -15,-118.7501 -74.848,-126.7228 l -28.902,-3.4297 0,-35.78903 322.652,0 0,35.78903 -28.75,3.4297 c -60,7.9727 -75,32.1914 -75,126.7228 l 0,452.656 c 0,94.531 15,118.75 75,126.723 l 28.75,3.429 0,35.79 -322.652,0 0,-35.79 28.902,-3.429 c 59.848,-7.973 74.848,-32.192 74.848,-126.723 l 0,-171.558 -412.5,0 z"
         inkscape:connector-curvature="0"
         id="path14"
         style="fill:#000000;fill-opacity:1;fill-rule:nonzero;stroke:none" /></g></g></svg>