<?xml version="1.0" encoding="UTF-8" standalone="no"?>
<!-- Created with Inkscape (http://www.inkscape.org/) -->

<svg
   xmlns:dc="http://purl.org/dc/elements/1.1/"
   xmlns:cc="http://creativecommons.org/ns#"
   xmlns:rdf="http://www.w3.org/1999/02/22-rdf-syntax-ns#"
   xmlns:svg="http://www.w3.org/2000/svg"
   xmlns="http://www.w3.org/2000/svg"
   xmlns:inkscape="http://www.inkscape.org/namespaces/inkscape"
   version="1.1"
   width="43.75"
   height="121.25"
   id="svg2"
   xml:space="preserve"><metadata
     id="metadata8"><rdf:RDF><cc:Work
         rdf:about=""><dc:format>image/svg+xml</dc:format><dc:type
           rdf:resource="http://purl.org/dc/dcmitype/StillImage" /></cc:Work></rdf:RDF></metadata><defs
     id="defs6" /><g
     transform="matrix(1.25,0,0,-1.25,0,121.25)"
     id="g10"><g
       transform="scale(0.1,0.1)"
       id="g12"><path
         d="m 228.16,628.578 c 0,95.633 12.66,116.41 74.852,126.723 l 22.968,3.437 0,35.782 -310.9409,0 0,-35.782 22.9726,-3.437 c 62.1873,-10.313 74.8403,-31.09 74.8403,-126.723 l 0,-452.648 c 0,-95.6292 -12.653,-116.4105 -74.8403,-126.7191 l -22.9726,-3.4414 0,-35.78122 310.9409,0 0,35.78122 -22.968,3.4414 C 240.82,59.5195 228.16,80.3008 228.16,175.93 l 0,452.648 z m 112.82,332.973 -340.9409375,0 0,-57.653 340.9409375,0 0,57.653 z"
         inkscape:connector-curvature="0"
         id="path14"
         style="fill:#000000;fill-opacity:1;fill-rule:nonzero;stroke:none" /></g></g></svg>