<?xml version="1.0" encoding="UTF-8" standalone="no"?>
<!-- Created with Inkscape (http://www.inkscape.org/) -->

<svg
   xmlns:dc="http://purl.org/dc/elements/1.1/"
   xmlns:cc="http://creativecommons.org/ns#"
   xmlns:rdf="http://www.w3.org/1999/02/22-rdf-syntax-ns#"
   xmlns:svg="http://www.w3.org/2000/svg"
   xmlns="http://www.w3.org/2000/svg"
   xmlns:inkscape="http://www.inkscape.org/namespaces/inkscape"
   version="1.1"
   width="52.5"
   height="121.25"
   id="svg2"
   xml:space="preserve"><metadata
     id="metadata8"><rdf:RDF><cc:Work
         rdf:about=""><dc:format>image/svg+xml</dc:format><dc:type
           rdf:resource="http://purl.org/dc/dcmitype/StillImage" /></cc:Work></rdf:RDF></metadata><defs
     id="defs6" /><g
     transform="matrix(1.25,0,0,-1.25,0,121.25)"
     id="g10"><g
       transform="scale(0.1,0.1)"
       id="g12"><path
         d="m 311.02,220.871 -22.969,3.43 c -62.192,10.32 -74.852,31.097 -74.852,126.719 l 0,452.66 c 0,95.621 12.66,116.398 74.852,126.718 l 22.969,3.43 0,35.793 -310.941875,0 0,-35.793 22.972675,-3.43 C 85.2305,920.078 97.8906,899.301 97.8906,803.68 l 0,-452.66 c 0,-95.622 -12.6601,-116.399 -74.8398,-126.719 l -22.972675,-3.43 0,-35.793 268.280875,0 c -42.5,-30 -57.5,-56.398 -57.5,-96.7069 0,-45 32.192,-78.44141 74.84,-78.44141 42.66,0 71.41,15.00001 129.071,64.53121 L 396.328,98.6797 C 361.801,67.5781 341.02,56.0195 319.141,56.0195 c -31.09,0 -52.969,21.8789 -52.969,51.8785 0,26.563 16.098,55.313 44.848,77.18 l 0,35.793 z"
         inkscape:connector-curvature="0"
         id="path14"
         style="fill:#000000;fill-opacity:1;fill-rule:nonzero;stroke:none" /></g></g></svg>