<?xml version="1.0" encoding="UTF-8" standalone="no"?>
<!-- Created with Inkscape (http://www.inkscape.org/) -->

<svg
   xmlns:dc="http://purl.org/dc/elements/1.1/"
   xmlns:cc="http://creativecommons.org/ns#"
   xmlns:rdf="http://www.w3.org/1999/02/22-rdf-syntax-ns#"
   xmlns:svg="http://www.w3.org/2000/svg"
   xmlns="http://www.w3.org/2000/svg"
   xmlns:inkscape="http://www.inkscape.org/namespaces/inkscape"
   version="1.1"
   width="45"
   height="126.25"
   id="svg2"
   xml:space="preserve"><metadata
     id="metadata8"><rdf:RDF><cc:Work
         rdf:about=""><dc:format>image/svg+xml</dc:format><dc:type
           rdf:resource="http://purl.org/dc/dcmitype/StillImage" /></cc:Work></rdf:RDF></metadata><defs
     id="defs6" /><g
     transform="matrix(1.25,0,0,-1.25,0,126.25)"
     id="g10"><g
       transform="scale(0.1,0.1)"
       id="g12"><path
         d="m 320.23,1003.12 c -12.652,-16.249 -32.179,-25.472 -55.308,-25.472 -15,0 -28.75,2.34 -56.402,10.473 -58.75,16.089 -82.969,20.619 -109.3794,20.619 -45,0 -84.2187,-31.092 -99.218725,-78.279 L 33.3594,918.898 c 15,17.34 27.6601,23.133 45,23.133 16.0898,0 26.4106,-2.351 62.1916,-11.57 56.398,-16.09 81.719,-20.781 109.371,-20.781 55.308,0 86.406,25.468 103.75,82.968 L 320.23,1003.12 z M 235.078,628.59 c 0,95.621 12.652,116.398 74.844,126.719 l 22.969,3.429 0,35.793 -310.9418,0 0,-35.793 22.9727,-3.429 C 107.109,744.988 119.77,724.211 119.77,628.59 l 0,-452.66 C 119.77,80.3086 107.109,59.5313 44.9219,49.2109 l -22.9727,-3.4296 0,-35.79302 310.9418,0 0,35.79302 -22.969,3.4296 C 247.73,59.5313 235.078,80.3086 235.078,175.93 l 0,452.66 z"
         inkscape:connector-curvature="0"
         id="path14"
         style="fill:#000000;fill-opacity:1;fill-rule:nonzero;stroke:none" /></g></g></svg>