<?xml version="1.0" encoding="UTF-8" standalone="no"?>
<!-- Created with Inkscape (http://www.inkscape.org/) -->

<svg
   xmlns:dc="http://purl.org/dc/elements/1.1/"
   xmlns:cc="http://creativecommons.org/ns#"
   xmlns:rdf="http://www.w3.org/1999/02/22-rdf-syntax-ns#"
   xmlns:svg="http://www.w3.org/2000/svg"
   xmlns="http://www.w3.org/2000/svg"
   xmlns:inkscape="http://www.inkscape.org/namespaces/inkscape"
   version="1.1"
   width="76.25"
   height="148.75"
   id="svg2"
   xml:space="preserve"><metadata
     id="metadata8"><rdf:RDF><cc:Work
         rdf:about=""><dc:format>image/svg+xml</dc:format><dc:type
           rdf:resource="http://purl.org/dc/dcmitype/StillImage" /></cc:Work></rdf:RDF></metadata><defs
     id="defs6" /><g
     transform="matrix(1.25,0,0,-1.25,0,148.75)"
     id="g10"><g
       transform="scale(0.1,0.1)"
       id="g12"><path
         d="m 304.18,1187.3 c -37.969,0 -69.219,-29.84 -69.219,-67.96 0,-36.88 31.25,-67.97 67.969,-67.97 36.871,0 67.968,31.09 67.968,67.97 0,36.87 -31.097,67.96 -66.718,67.96 z M 206.211,368.238 c -51.871,6.883 -74.84,20.782 -74.84,47.192 0,20.781 19.527,43.91 52.969,61.09 46.09,-15 69.058,-18.43 108.281,-18.43 82.969,0 145.149,21.871 187.809,63.43 32.191,33.441 54.058,85.16 54.058,130.16 0,63.281 -35.617,123.281 -95.617,163.59 23.117,34.531 41.559,49.531 61.09,49.531 8.129,0 11.559,-1.09 26.559,-10.313 12.66,-8.117 22.968,-11.558 34.531,-11.558 25.32,0 43.75,18.441 43.75,43.75 0,28.75 -25.313,49.531 -62.18,49.531 -34.531,0 -73.75,-15 -96.723,-39.223 -13.91,-13.75 -23.128,-25.308 -43.75,-63.277 -46.097,17.187 -72.66,22.969 -108.437,22.969 -131.25,0 -237.1915,-90.942 -237.1915,-205 0,-66.879 31.1016,-120.942 93.2815,-163.59 C 72.6211,462.77 36.8398,426.988 36.8398,372.93 c 0,-46.09 25.3086,-76.09 84.2112,-96.879 C 35.7383,243.871 -0.0390625,206.988 -0.0390625,150.59 -0.0390625,110.27 32.3008,69.9609 80.5898,49.1797 138.238,23.8711 214.34,9.96094 292.621,9.96094 479.34,9.96094 600.27,83.7109 600.27,196.68 c 0,31.09 -10.469,60.941 -27.649,82.808 -23.133,31.102 -65.781,47.352 -146.41,58.75 l -220,30 z m 93.277,451.563 c 79.532,0 117.5,-52.961 117.5,-162.34 0,-51.871 -9.218,-95.621 -26.398,-119.84 -18.442,-25.32 -55.32,-42.66 -94.539,-42.66 -81.711,0 -122.031,52.969 -122.031,163.59 0,101.41 46.101,161.25 125.468,161.25 z m 101.41,-582.813 c 85.313,-10.468 118.75,-32.34 118.75,-77.187 0,-26.563 -16.25,-50.781 -47.347,-70.3127 -34.531,-23.1172 -104.84,-36.8672 -179.68,-36.8672 -132.5,0 -223.4413,44.8398 -223.4413,109.3669 0,43.91 33.4413,80.633 95.6213,103.75 l 236.097,-28.75 z"
         inkscape:connector-curvature="0"
         id="path14"
         style="fill:#000000;fill-opacity:1;fill-rule:nonzero;stroke:none" /></g></g></svg>