<?xml version="1.0" encoding="UTF-8" standalone="no"?>
<!-- Created with Inkscape (http://www.inkscape.org/) -->

<svg
   xmlns:dc="http://purl.org/dc/elements/1.1/"
   xmlns:cc="http://creativecommons.org/ns#"
   xmlns:rdf="http://www.w3.org/1999/02/22-rdf-syntax-ns#"
   xmlns:svg="http://www.w3.org/2000/svg"
   xmlns="http://www.w3.org/2000/svg"
   xmlns:inkscape="http://www.inkscape.org/namespaces/inkscape"
   version="1.1"
   width="52.5"
   height="117.5"
   id="svg2"
   xml:space="preserve"><metadata
     id="metadata8"><rdf:RDF><cc:Work
         rdf:about=""><dc:format>image/svg+xml</dc:format><dc:type
           rdf:resource="http://purl.org/dc/dcmitype/StillImage" /></cc:Work></rdf:RDF></metadata><defs
     id="defs6" /><g
     transform="matrix(1.25,0,0,-1.25,0,117.5)"
     id="g10"><g
       transform="scale(0.1,0.1)"
       id="g12"><path
         d="m 209.609,743.859 -39.058,0 C 100.23,731.211 62.2695,725.43 1.17188,720.738 l 0,-34.527 22.96872,-2.191 c 60,-5.782 76.0894,-26.559 76.0894,-95.629 l 0,-270.782 c 0,-63.429 -20.7808,-89.839 -71.4019,-95.621 l -28.906225,-2.347 0,-34.532 266.250125,0 c -42.652,-30 -57.652,-56.398 -57.652,-96.7184 0,-45 32.179,-78.42966 74.839,-78.42966 42.661,0 71.411,14.99996 129.063,64.52736 L 393.98,98.7109 C 359.449,67.6094 338.672,56.0508 316.801,56.0508 c -31.102,0 -52.973,21.8789 -52.973,51.8792 0,26.558 16.094,55.308 44.844,77.179 l 0,34.532 -27.652,2.347 c -51.719,5.782 -71.411,32.192 -71.411,95.621 l 0,426.25 z m -52.968,194.692 c -39.063,0 -70.3129,-31.09 -70.3129,-69.063 0,-39.218 31.2499,-70.308 69.2229,-70.308 39.058,0 70.308,31.09 70.308,69.058 0,37.973 -31.25,70.313 -69.218,70.313 z"
         inkscape:connector-curvature="0"
         id="path14"
         style="fill:#000000;fill-opacity:1;fill-rule:nonzero;stroke:none" /></g></g></svg>