<?xml version="1.0" encoding="UTF-8" standalone="no"?>
<!-- Created with Inkscape (http://www.inkscape.org/) -->

<svg
   xmlns:dc="http://purl.org/dc/elements/1.1/"
   xmlns:cc="http://creativecommons.org/ns#"
   xmlns:rdf="http://www.w3.org/1999/02/22-rdf-syntax-ns#"
   xmlns:svg="http://www.w3.org/2000/svg"
   xmlns="http://www.w3.org/2000/svg"
   xmlns:inkscape="http://www.inkscape.org/namespaces/inkscape"
   version="1.1"
   width="47.5"
   height="131.25"
   id="svg2"
   xml:space="preserve"><metadata
     id="metadata8"><rdf:RDF><cc:Work
         rdf:about=""><dc:format>image/svg+xml</dc:format><dc:type
           rdf:resource="http://purl.org/dc/dcmitype/StillImage" /></cc:Work></rdf:RDF></metadata><defs
     id="defs6" /><g
     transform="matrix(1.25,0,0,-1.25,0,131.25)"
     id="g10"><g
       transform="scale(0.1,0.1)"
       id="g12"><path
         d="M 0.0390625,1026.1 C 34.5703,952.352 102.539,909.691 187.852,909.691 c 79.378,0 154.378,46.09 190,116.409 l -26.403,20.78 c -39.219,-35.78 -103.75,-60.001 -161.41,-60.001 -59.84,0 -115.1601,20.781 -163.5898,60.001 L 0.0390625,1026.1 z M 246.602,628.602 c 0,95.617 12.66,116.398 74.847,126.718 l 22.961,3.43 0,35.781 -310.9295,0 0,-35.781 22.9687,-3.43 C 118.629,745 131.289,724.219 131.289,628.602 l 0,-452.661 c 0,-95.6207 -12.66,-116.4097 -74.8398,-126.7222 l -22.9687,-3.4375 0,-35.7813 310.9295,0 0,35.7813 -22.961,3.4375 C 259.262,59.5313 246.602,80.3203 246.602,175.941 l 0,452.661 z"
         inkscape:connector-curvature="0"
         id="path14"
         style="fill:#000000;fill-opacity:1;fill-rule:nonzero;stroke:none" /></g></g></svg>