<?xml version="1.0" encoding="UTF-8" standalone="no"?>
<!-- Created with Inkscape (http://www.inkscape.org/) -->

<svg
   xmlns:dc="http://purl.org/dc/elements/1.1/"
   xmlns:cc="http://creativecommons.org/ns#"
   xmlns:rdf="http://www.w3.org/1999/02/22-rdf-syntax-ns#"
   xmlns:svg="http://www.w3.org/2000/svg"
   xmlns="http://www.w3.org/2000/svg"
   xmlns:inkscape="http://www.inkscape.org/namespaces/inkscape"
   version="1.1"
   width="76.25"
   height="145"
   id="svg2"
   xml:space="preserve"><metadata
     id="metadata8"><rdf:RDF><cc:Work
         rdf:about=""><dc:format>image/svg+xml</dc:format><dc:type
           rdf:resource="http://purl.org/dc/dcmitype/StillImage" /></cc:Work></rdf:RDF></metadata><defs
     id="defs6" /><g
     transform="matrix(1.25,0,0,-1.25,0,145)"
     id="g10"><g
       transform="scale(0.1,0.1)"
       id="g12"><path
         d="m 206.211,368.27 c -51.871,6.878 -74.84,20.781 -74.84,47.191 0,20.777 19.527,43.91 52.969,61.09 46.09,-15 69.058,-18.43 108.281,-18.43 82.969,0 145.149,21.867 187.809,63.43 32.191,33.437 54.058,85.16 54.058,130.16 0,63.277 -35.617,123.277 -95.617,163.59 23.117,34.527 41.559,49.527 61.09,49.527 8.129,0 11.559,-1.09 26.559,-10.308 12.66,-8.122 22.968,-11.559 34.531,-11.559 25.32,0 43.75,18.437 43.75,43.75 0,28.75 -25.313,49.527 -62.18,49.527 -34.531,0 -73.75,-15 -96.723,-39.218 -13.91,-13.75 -23.128,-25.309 -43.75,-63.282 -46.097,17.192 -72.66,22.973 -108.437,22.973 -131.25,0 -237.1915,-90.941 -237.1915,-205 0,-66.883 31.1016,-120.941 93.2815,-163.59 C 72.6211,462.801 36.8398,427.02 36.8398,372.961 c 0,-46.09 25.3086,-76.09 84.2112,-96.883 C 35.7383,243.898 -0.0390625,207.02 -0.0390625,150.621 -0.0390625,110.301 32.3008,69.9883 80.5898,49.2109 138.238,23.8984 214.34,9.98828 292.621,9.98828 c 186.719,0 307.649,73.75002 307.649,186.72272 0,31.09 -10.469,60.937 -27.649,82.809 -23.133,31.101 -65.781,47.351 -146.41,58.75 l -220,30 z m 93.277,451.558 c 79.532,0 117.5,-52.957 117.5,-162.34 0,-51.867 -9.218,-95.617 -26.398,-119.84 -18.442,-25.32 -55.32,-42.66 -94.539,-42.66 -81.711,0 -122.031,52.973 -122.031,163.59 0,101.41 46.101,161.25 125.468,161.25 z M 400.898,237.02 c 85.313,-10.469 118.75,-32.34 118.75,-77.192 0,-26.558 -16.25,-50.777 -47.347,-70.3085 -34.531,-23.1211 -104.84,-36.8711 -179.68,-36.8711 -132.5,0 -223.4413,44.8399 -223.4413,109.3716 0,43.91 33.4413,80.628 95.6213,103.75 l 236.097,-28.75 z m -72.5,919.22 C 256.988,1124.05 215.43,1065.3 215.43,999.68 c 0,-51.879 35.781,-94.532 80.621,-94.532 39.219,0 71.41,32.18 71.41,71.403 0,37.969 -25.313,65.629 -62.191,65.629 -11.559,0 -19.532,-3.44 -35.622,-16.1 3.442,43.75 22.973,73.75 71.403,104.85 l -12.653,25.31 z"
         inkscape:connector-curvature="0"
         id="path14"
         style="fill:#000000;fill-opacity:1;fill-rule:nonzero;stroke:none" /></g></g></svg>