<?xml version="1.0" encoding="UTF-8" standalone="no"?>
<!-- Created with Inkscape (http://www.inkscape.org/) -->

<svg
   xmlns:dc="http://purl.org/dc/elements/1.1/"
   xmlns:cc="http://creativecommons.org/ns#"
   xmlns:rdf="http://www.w3.org/1999/02/22-rdf-syntax-ns#"
   xmlns:svg="http://www.w3.org/2000/svg"
   xmlns="http://www.w3.org/2000/svg"
   xmlns:inkscape="http://www.inkscape.org/namespaces/inkscape"
   version="1.1"
   width="86.25"
   height="138.75"
   id="svg2"
   xml:space="preserve"><metadata
     id="metadata8"><rdf:RDF><cc:Work
         rdf:about=""><dc:format>image/svg+xml</dc:format><dc:type
           rdf:resource="http://purl.org/dc/dcmitype/StillImage" /></cc:Work></rdf:RDF></metadata><defs
     id="defs6" /><g
     transform="matrix(1.25,0,0,-1.25,0,138.75)"
     id="g10"><g
       transform="scale(0.1,0.1)"
       id="g12"><path
         d="m 688.98,565.281 -32.339,15 c -52.969,-75 -81.719,-107.191 -126.719,-140.633 -65.621,-49.527 -141.723,-77.179 -211.871,-77.179 -38.129,0 -71.571,11.562 -85.321,28.75 -9.21,11.562 -13.902,34.679 -13.902,69.222 l 0,476.868 c 0,93.441 16.25,120.941 75,126.721 l 36.871,3.44 0,35.78 -330.620875,0 0,-35.78 28.749975,-3.44 c 59.8438,-7.97 74.8439,-32.19 74.8439,-126.721 l 0,-452.661 c 0,-94.527 -15.0001,-118.75 -74.8439,-126.707 L 0.078125,354.5 l 0,-35.781 596.722875,0 92.179,246.562 z M 273.051,9.96875 C 344.449,43.3984 386.02,101.059 386.02,166.691 c 0,51.868 -35.79,94.368 -80.79,94.368 -39.058,0 -71.402,-32.188 -71.402,-70.161 0,-38.117 25.313,-65.777 62.192,-65.777 11.558,0 19.679,3.438 35.781,16.25 -3.442,-44.9999 -22.973,-74.9999 -71.41,-106.0897 l 12.66,-25.31255 z"
         inkscape:connector-curvature="0"
         id="path14"
         style="fill:#000000;fill-opacity:1;fill-rule:nonzero;stroke:none" /></g></g></svg>