<?xml version="1.0" encoding="UTF-8" standalone="no"?>
<!-- Created with Inkscape (http://www.inkscape.org/) -->

<svg
   xmlns:dc="http://purl.org/dc/elements/1.1/"
   xmlns:cc="http://creativecommons.org/ns#"
   xmlns:rdf="http://www.w3.org/1999/02/22-rdf-syntax-ns#"
   xmlns:svg="http://www.w3.org/2000/svg"
   xmlns="http://www.w3.org/2000/svg"
   xmlns:inkscape="http://www.inkscape.org/namespaces/inkscape"
   version="1.1"
   width="87.5"
   height="75"
   id="svg2"
   xml:space="preserve"><metadata
     id="metadata8"><rdf:RDF><cc:Work
         rdf:about=""><dc:format>image/svg+xml</dc:format><dc:type
           rdf:resource="http://purl.org/dc/dcmitype/StillImage" /></cc:Work></rdf:RDF></metadata><defs
     id="defs6" /><g
     transform="matrix(1.25,0,0,-1.25,0,75)"
     id="g10"><g
       transform="scale(0.1,0.1)"
       id="g12"><path
         d="m 218.828,302.559 23.121,0 c 57.5,0 70.321,1.25 103.602,-25.309 36.871,-30 60,-67.969 70.308,-169.379 C 420.551,64.1211 456.172,10.0586 529.922,10.0586 681.949,10.0586 695.859,131 695.859,131 l -41.558,7.969 c 0,0 -11.41,-56.4104 -50.629,-56.4104 -43.75,0 -52.973,30.0004 -64.531,64.5314 -20.782,62.191 -71.411,162.5 -201.563,172.808 81.723,30 127.813,109.383 137.031,179.692 2.34,18.441 9.219,26.558 27.661,26.558 20.781,0 8.121,-24.218 19.531,-42.648 9.219,-15 23.121,-24.219 62.34,-24.219 44.839,0 59.839,28.75 57.5,63.438 -3.442,51.711 -51.871,71.402 -99.063,72.5 -72.5,1.09 -118.598,-35.789 -134.687,-101.41 C 387.109,412.09 338.672,336 260.391,337.09 l -41.563,0 0,127.969 c 0,65.621 17.344,87.5 75,89.839 l 47.192,2.352 0,25.309 -341.098125,0 0,-25.309 28.906225,-2.352 c 59.8438,-4.679 74.8439,-23.117 74.8439,-89.839 l 0,-323.75 C 103.672,74.4297 88.6719,56 28.8281,51.4688 l -28.906225,-2.3477 0,-25.3125 341.098125,0 0,25.3125 -47.192,2.3477 c -57.656,2.3398 -75,22.9609 -75,89.8402 l 0,161.25 z"
         inkscape:connector-curvature="0"
         id="path14"
         style="fill:#000000;fill-opacity:1;fill-rule:nonzero;stroke:none" /></g></g></svg>