<?xml version="1.0" encoding="UTF-8" standalone="no"?>
<!-- Created with Inkscape (http://www.inkscape.org/) -->

<svg
   xmlns:dc="http://purl.org/dc/elements/1.1/"
   xmlns:cc="http://creativecommons.org/ns#"
   xmlns:rdf="http://www.w3.org/1999/02/22-rdf-syntax-ns#"
   xmlns:svg="http://www.w3.org/2000/svg"
   xmlns="http://www.w3.org/2000/svg"
   xmlns:inkscape="http://www.inkscape.org/namespaces/inkscape"
   version="1.1"
   width="38.75"
   height="143.75"
   id="svg2"
   xml:space="preserve"><metadata
     id="metadata8"><rdf:RDF><cc:Work
         rdf:about=""><dc:format>image/svg+xml</dc:format><dc:type
           rdf:resource="http://purl.org/dc/dcmitype/StillImage" /></cc:Work></rdf:RDF></metadata><defs
     id="defs6" /><g
     transform="matrix(1.25,0,0,-1.25,0,143.75)"
     id="g10"><g
       transform="scale(0.1,0.1)"
       id="g12"><path
         d="m 208.52,1144.68 -46.098,0 C 104.77,1121.71 78.3594,1114.84 -0.078125,1105.62 l 0,-35.78 24.218725,-2.35 c 62.1875,-5.62 75,-26.4 75,-128.9 l 0,-487.352 c 0,-63.429 -19.6914,-89.84 -71.5625,-95.617 l -27.656225,-2.351 0,-34.532 306.558125,0 0,34.532 -26.558,2.351 c -51.871,5.777 -71.402,32.188 -71.402,95.617 l 0,693.442 z M 112.891,9.98828 C 184.301,43.4297 225.859,101.09 225.859,166.711 c 0,51.879 -35.781,94.379 -80.781,94.379 -39.058,0 -71.4061,-32.192 -71.4061,-70.16 0,-38.121 25.4687,-65.782 62.1871,-65.782 11.563,0 19.692,3.442 35.782,16.25 C 168.199,96.3984 148.672,66.3984 100.23,35.3086 L 112.891,9.98828 z"
         inkscape:connector-curvature="0"
         id="path14"
         style="fill:#000000;fill-opacity:1;fill-rule:nonzero;stroke:none" /></g></g></svg>