<?xml version="1.0" encoding="UTF-8" standalone="no"?>
<!-- Created with Inkscape (http://www.inkscape.org/) -->

<svg
   xmlns:dc="http://purl.org/dc/elements/1.1/"
   xmlns:cc="http://creativecommons.org/ns#"
   xmlns:rdf="http://www.w3.org/1999/02/22-rdf-syntax-ns#"
   xmlns:svg="http://www.w3.org/2000/svg"
   xmlns="http://www.w3.org/2000/svg"
   xmlns:inkscape="http://www.inkscape.org/namespaces/inkscape"
   version="1.1"
   width="86.25"
   height="101.25"
   id="svg2"
   xml:space="preserve"><metadata
     id="metadata8"><rdf:RDF><cc:Work
         rdf:about=""><dc:format>image/svg+xml</dc:format><dc:type
           rdf:resource="http://purl.org/dc/dcmitype/StillImage" /></cc:Work></rdf:RDF></metadata><defs
     id="defs6" /><g
     transform="matrix(1.25,0,0,-1.25,0,101.25)"
     id="g10"><g
       transform="scale(0.1,0.1)"
       id="g12"><path
         d="m 688.98,256.559 -32.339,15 C 603.672,196.559 574.922,164.371 529.922,130.93 464.301,81.3984 388.199,53.75 318.051,53.75 c -38.129,0 -71.571,11.5586 -85.321,28.75 -9.21,11.5586 -13.902,34.68 -13.902,69.211 l 0,476.879 c 0,93.441 16.25,120.941 75,126.719 l 36.871,3.441 0,35.781 -330.620875,0 0,-35.781 28.749975,-3.441 C 88.6719,747.34 103.672,723.121 103.672,628.59 l 0,-452.66 C 103.672,81.3984 88.6719,57.1797 28.8281,49.2109 L 0.078125,45.7813 0.078125,10 596.801,10 688.98,256.559 z M 526.48,558.43 c 71.411,33.281 112.969,90.941 112.969,156.57 0,51.871 -35.777,94.531 -80.777,94.531 -39.063,0 -71.402,-32.351 -71.402,-70.32 0,-37.961 25.46,-65.621 62.179,-65.621 11.571,0 19.692,3.441 35.781,16.09 -3.429,-44.84 -22.96,-74.84 -71.402,-105.93 l 12.652,-25.32 z"
         inkscape:connector-curvature="0"
         id="path14"
         style="fill:#000000;fill-opacity:1;fill-rule:nonzero;stroke:none" /></g></g></svg>