<?xml version="1.0" encoding="UTF-8" standalone="no"?>
<!-- Created with Inkscape (http://www.inkscape.org/) -->

<svg
   xmlns:dc="http://purl.org/dc/elements/1.1/"
   xmlns:cc="http://creativecommons.org/ns#"
   xmlns:rdf="http://www.w3.org/1999/02/22-rdf-syntax-ns#"
   xmlns:svg="http://www.w3.org/2000/svg"
   xmlns="http://www.w3.org/2000/svg"
   xmlns:inkscape="http://www.inkscape.org/namespaces/inkscape"
   version="1.1"
   width="48.75"
   height="105"
   id="svg2"
   xml:space="preserve"><metadata
     id="metadata8"><rdf:RDF><cc:Work
         rdf:about=""><dc:format>image/svg+xml</dc:format><dc:type
           rdf:resource="http://purl.org/dc/dcmitype/StillImage" /></cc:Work></rdf:RDF></metadata><defs
     id="defs6" /><g
     transform="matrix(1.25,0,0,-1.25,0,105)"
     id="g10"><g
       transform="scale(0.1,0.1)"
       id="g12"><path
         d="m 208.52,835.93 -46.098,0 C 104.77,812.961 78.3594,806.078 -0.078125,796.859 l 0,-35.781 24.218725,-2.34 c 62.1875,-5.629 75,-26.41 75,-128.91 l 0,-487.34 c 0,-63.4372 -19.6914,-89.8474 -71.5625,-95.6286 l -27.656225,-2.3399 0,-34.53122 306.558125,0 0,34.53122 -26.558,2.3399 C 228.051,52.6406 208.52,79.0508 208.52,142.488 l 0,693.442 z m 65.621,-249.852 c 71.41,33.281 112.968,90.942 112.968,156.563 0,51.879 -35.781,94.539 -80.629,94.539 -39.21,0 -71.402,-32.352 -71.402,-70.321 0,-37.968 25.313,-65.621 62.192,-65.621 11.402,0 19.531,3.442 35.621,16.09 -3.442,-45 -22.969,-74.84 -71.411,-105.937 l 12.661,-25.313 z"
         inkscape:connector-curvature="0"
         id="path14"
         style="fill:#000000;fill-opacity:1;fill-rule:nonzero;stroke:none" /></g></g></svg>