<?xml version="1.0" encoding="UTF-8" standalone="no"?>
<!-- Created with Inkscape (http://www.inkscape.org/) -->

<svg
   xmlns:dc="http://purl.org/dc/elements/1.1/"
   xmlns:cc="http://creativecommons.org/ns#"
   xmlns:rdf="http://www.w3.org/1999/02/22-rdf-syntax-ns#"
   xmlns:svg="http://www.w3.org/2000/svg"
   xmlns="http://www.w3.org/2000/svg"
   xmlns:inkscape="http://www.inkscape.org/namespaces/inkscape"
   version="1.1"
   width="88.75"
   height="143.75"
   id="svg2"
   xml:space="preserve"><metadata
     id="metadata8"><rdf:RDF><cc:Work
         rdf:about=""><dc:format>image/svg+xml</dc:format><dc:type
           rdf:resource="http://purl.org/dc/dcmitype/StillImage" /></cc:Work></rdf:RDF></metadata><defs
     id="defs6" /><g
     transform="matrix(1.25,0,0,-1.25,0,143.75)"
     id="g10"><g
       transform="scale(0.1,0.1)"
       id="g12"><path
         d="m 389.449,696.559 51.723,46.089 c 70.308,62.192 122.187,85.313 221.25,100.313 l 0,34.527 -306.402,0 0,-33.429 c 43.75,-3.438 64.531,-15 64.531,-36.879 0,-13.75 -7.031,-24.219 -31.102,-44.84 l -179.84,-156.719 0,539.059 -46.089,0 c -58.75,-22.97 -85.1606,-29.84 -163.598125,-39.06 l 0,-35.78 25.468725,-2.35 c 62.1875,-5.62 74.8394,-26.4 74.8394,-128.9 l 0,-487.352 c 0,-63.429 -20.7808,-89.84 -71.4019,-95.617 l -28.906225,-2.351 0,-34.532 310.000125,0 0,34.532 -30,2.351 c -49.531,5.777 -70.313,33.438 -70.313,95.617 l 0,95.633 93.442,79.527 120.929,-175.16 c 19.54,-26.558 29.848,-51.867 29.848,-69.058 0,-16.25 -11.406,-24.219 -33.277,-26.559 l -31.102,-2.351 0,-34.532 310.942,0 0,36.883 C 647.422,364.84 603.672,394.84 561.02,451.238 L 389.449,696.559 z M 297.27,9.98828 C 368.672,43.4297 410.078,101.09 410.078,166.711 c 0,51.879 -35.629,94.379 -80.629,94.379 -39.219,0 -71.398,-32.192 -71.398,-70.16 0,-38.121 25.308,-65.782 62.179,-65.782 11.571,0 19.54,3.442 35.79,16.25 C 352.578,96.3984 332.891,66.3984 284.609,35.3086 L 297.27,9.98828 z"
         inkscape:connector-curvature="0"
         id="path14"
         style="fill:#000000;fill-opacity:1;fill-rule:nonzero;stroke:none" /></g></g></svg>