<?xml version="1.0" encoding="UTF-8" standalone="no"?>
<!-- Created with Inkscape (http://www.inkscape.org/) -->

<svg
   xmlns:dc="http://purl.org/dc/elements/1.1/"
   xmlns:cc="http://creativecommons.org/ns#"
   xmlns:rdf="http://www.w3.org/1999/02/22-rdf-syntax-ns#"
   xmlns:svg="http://www.w3.org/2000/svg"
   xmlns="http://www.w3.org/2000/svg"
   xmlns:inkscape="http://www.inkscape.org/namespaces/inkscape"
   version="1.1"
   width="66.25"
   height="131.25"
   id="svg2"
   xml:space="preserve"><metadata
     id="metadata8"><rdf:RDF><cc:Work
         rdf:about=""><dc:format>image/svg+xml</dc:format><dc:type
           rdf:resource="http://purl.org/dc/dcmitype/StillImage" /></cc:Work></rdf:RDF></metadata><defs
     id="defs6" /><g
     transform="matrix(1.25,0,0,-1.25,0,131.25)"
     id="g10"><g
       transform="scale(0.1,0.1)"
       id="g12"><path
         d="m 510.391,846.391 -39.219,0 C 399.77,832.488 361.801,827.949 297.27,823.27 l 0,-34.532 27.652,-2.187 c 58.75,-4.692 75.937,-26.563 75.937,-95.629 l 0,-397.5 c 0,-153.281 -3.437,-179.684 -27.66,-209.6837 -11.398,-12.6602 -33.429,-21.8789 -55.308,-21.8789 -26.411,0 -39.063,6.8789 -63.282,34.5312 -19.531,23.1294 -32.339,30.0004 -50.781,30.0004 -28.75,0 -52.969,-20.782 -52.969,-46.0902 0,-41.5625 49.532,-70.31252 123.282,-70.31252 62.187,0 122.187,19.53122 167.031,56.40232 52.969,42.6604 69.219,82.9684 69.219,167.0314 l 0,612.969 z m -56.563,194.689 c -39.058,0 -70.156,-31.09 -70.156,-69.06 0,-39.219 31.098,-70.321 69.058,-70.321 39.219,0 70.321,31.102 70.321,69.071 0,37.97 -31.102,70.31 -69.223,70.31 z m -244.219,-194.689 -39.058,0 C 100.23,833.738 62.2695,827.949 1.17188,823.27 l 0,-34.532 22.96872,-2.187 c 60,-5.781 76.0894,-26.563 76.0894,-95.629 l 0,-270.781 c 0,-63.442 -20.7808,-89.84 -71.4019,-95.621 l -28.906225,-2.348 0,-34.531 308.750125,0 0,34.531 -27.652,2.348 c -51.719,5.781 -71.411,32.179 -71.411,95.621 l 0,426.25 z m -52.968,194.689 c -39.063,0 -70.3129,-31.09 -70.3129,-69.06 0,-39.219 31.2499,-70.321 69.2229,-70.321 39.058,0 70.308,31.102 70.308,69.071 0,37.97 -31.25,70.31 -69.218,70.31 z"
         inkscape:connector-curvature="0"
         id="path14"
         style="fill:#000000;fill-opacity:1;fill-rule:nonzero;stroke:none" /></g></g></svg>