<?xml version="1.0" encoding="UTF-8" standalone="no"?>
<!-- Created with Inkscape (http://www.inkscape.org/) -->

<svg
   xmlns:dc="http://purl.org/dc/elements/1.1/"
   xmlns:cc="http://creativecommons.org/ns#"
   xmlns:rdf="http://www.w3.org/1999/02/22-rdf-syntax-ns#"
   xmlns:svg="http://www.w3.org/2000/svg"
   xmlns="http://www.w3.org/2000/svg"
   xmlns:inkscape="http://www.inkscape.org/namespaces/inkscape"
   version="1.1"
   width="85"
   height="133.75"
   id="svg2"
   xml:space="preserve"><metadata
     id="metadata8"><rdf:RDF><cc:Work
         rdf:about=""><dc:format>image/svg+xml</dc:format><dc:type
           rdf:resource="http://purl.org/dc/dcmitype/StillImage" /></cc:Work></rdf:RDF></metadata><defs
     id="defs6" /><g
     transform="matrix(1.25,0,0,-1.25,0,133.75)"
     id="g10"><g
       transform="scale(0.1,0.1)"
       id="g12"><path
         d="M 512.578,1060.58 348.98,953.551 l 15,-28.903 148.598,51.872 147.5,-51.872 16.094,28.903 -163.594,107.029 z M 576.02,643.551 c 0,94.527 15,118.75 74.839,126.719 l 28.75,3.441 0,35.777 -322.5,0 0,-35.777 28.75,-3.441 c 60,-7.969 75,-32.192 75,-126.719 l 0,-260.313 C 460.859,238.078 452.73,182.77 423.98,136.68 395.078,90.5781 338.672,65.2695 267.27,65.2695 c -88.75,0 -165.942,51.8785 -165.942,112.9685 0,18.442 5.781,29.84 23.121,46.09 20.629,18.293 28.75,34.543 28.75,55.16 0,38.133 -25.308,62.34 -63.2771,62.34 -53.1211,0 -90.000025,-42.648 -90.000025,-102.648 0,-65.629 40.308625,-137.032 102.656125,-178.4417 48.281,-32.3399 116.25,-50.77736 186.563,-50.77736 103.75,0 200.468,40.30856 246.558,102.50006 33.442,43.91 40.321,82.969 40.321,212.027 l 0,319.063 z"
         inkscape:connector-curvature="0"
         id="path14"
         style="fill:#000000;fill-opacity:1;fill-rule:nonzero;stroke:none" /></g></g></svg>