<?xml version="1.0" encoding="UTF-8" standalone="no"?>
<!-- Created with Inkscape (http://www.inkscape.org/) -->

<svg
   xmlns:dc="http://purl.org/dc/elements/1.1/"
   xmlns:cc="http://creativecommons.org/ns#"
   xmlns:rdf="http://www.w3.org/1999/02/22-rdf-syntax-ns#"
   xmlns:svg="http://www.w3.org/2000/svg"
   xmlns="http://www.w3.org/2000/svg"
   xmlns:inkscape="http://www.inkscape.org/namespaces/inkscape"
   version="1.1"
   width="40"
   height="127.5"
   id="svg2"
   xml:space="preserve"><metadata
     id="metadata8"><rdf:RDF><cc:Work
         rdf:about=""><dc:format>image/svg+xml</dc:format><dc:type
           rdf:resource="http://purl.org/dc/dcmitype/StillImage" /></cc:Work></rdf:RDF></metadata><defs
     id="defs6" /><g
     transform="matrix(1.25,0,0,-1.25,0,127.5)"
     id="g10"><g
       transform="scale(0.1,0.1)"
       id="g12"><path
         d="m 213.199,628.609 c 0,95.621 12.66,116.403 74.852,126.719 l 22.969,3.434 0,35.777 -310.941875,0 0,-35.777 22.972675,-3.434 C 85.2305,745.012 97.8906,724.23 97.8906,628.609 l 0,-452.66 C 97.8906,80.3281 85.2305,59.5391 23.0508,49.2305 l -22.972675,-3.4414 0,-35.7774 310.941875,0 0,35.7774 -22.969,3.4414 C 225.859,59.5391 213.199,80.3281 213.199,175.949 l 0,452.66 z m -55.308,383.751 c -38.121,0 -69.2191,-30.001 -69.2191,-67.969 0,-36.879 31.0981,-68.129 67.9691,-68.129 36.879,0 67.968,31.25 67.968,68.129 0,36.718 -31.089,67.969 -66.718,67.969 z"
         inkscape:connector-curvature="0"
         id="path14"
         style="fill:#000000;fill-opacity:1;fill-rule:nonzero;stroke:none" /></g></g></svg>