<?xml version="1.0" encoding="UTF-8" standalone="no"?>
<!-- Created with Inkscape (http://www.inkscape.org/) -->

<svg
   xmlns:dc="http://purl.org/dc/elements/1.1/"
   xmlns:cc="http://creativecommons.org/ns#"
   xmlns:rdf="http://www.w3.org/1999/02/22-rdf-syntax-ns#"
   xmlns:svg="http://www.w3.org/2000/svg"
   xmlns="http://www.w3.org/2000/svg"
   xmlns:inkscape="http://www.inkscape.org/namespaces/inkscape"
   version="1.1"
   width="58.75"
   height="135"
   id="svg2"
   xml:space="preserve"><metadata
     id="metadata8"><rdf:RDF><cc:Work
         rdf:about=""><dc:format>image/svg+xml</dc:format><dc:type
           rdf:resource="http://purl.org/dc/dcmitype/StillImage" /></cc:Work></rdf:RDF></metadata><defs
     id="defs6" /><g
     transform="matrix(1.25,0,0,-1.25,0,135)"
     id="g10"><g
       transform="scale(0.1,0.1)"
       id="g12"><path
         d="m 359.488,846.379 -39.218,0 C 248.871,832.48 210.898,827.941 146.371,823.262 l 0,-34.532 27.649,-2.191 c 58.75,-4.687 75.941,-26.559 75.941,-95.629 l 0,-397.5 c 0,-153.281 -3.441,-179.68 -27.66,-209.6795 -11.403,-12.6602 -33.281,-21.8789 -55.313,-21.8789 -26.398,0 -39.058,6.8789 -63.277,34.5273 -19.5313,23.1331 -32.3399,30.0001 -50.6212,30.0001 -28.9101,0 -53.1288625,-20.777 -53.1288625,-46.0899 0,-41.5586 49.5273625,-70.30863 123.2770625,-70.30863 62.192,0 122.192,19.53123 167.032,56.39843 52.968,42.6601 69.218,82.9731 69.218,167.0311 l 0,612.969 z M 302.93,1073.26 139.34,966.23 l 15,-28.91 148.59,51.871 147.5,-51.871 16.09,28.91 -163.59,107.03 z"
         inkscape:connector-curvature="0"
         id="path14"
         style="fill:#000000;fill-opacity:1;fill-rule:nonzero;stroke:none" /></g></g></svg>