<?xml version="1.0" encoding="UTF-8" standalone="no"?>
<!-- Created with Inkscape (http://www.inkscape.org/) -->

<svg
   xmlns:dc="http://purl.org/dc/elements/1.1/"
   xmlns:cc="http://creativecommons.org/ns#"
   xmlns:rdf="http://www.w3.org/1999/02/22-rdf-syntax-ns#"
   xmlns:svg="http://www.w3.org/2000/svg"
   xmlns="http://www.w3.org/2000/svg"
   xmlns:inkscape="http://www.inkscape.org/namespaces/inkscape"
   version="1.1"
   width="86.25"
   height="127.5"
   id="svg2"
   xml:space="preserve"><metadata
     id="metadata8"><rdf:RDF><cc:Work
         rdf:about=""><dc:format>image/svg+xml</dc:format><dc:type
           rdf:resource="http://purl.org/dc/dcmitype/StillImage" /></cc:Work></rdf:RDF></metadata><defs
     id="defs6" /><g
     transform="matrix(1.25,0,0,-1.25,0,127.5)"
     id="g10"><g
       transform="scale(0.1,0.1)"
       id="g12"><path
         d="m 688.98,256.559 -32.339,15 C 603.672,196.559 574.922,164.371 529.922,130.93 464.301,81.3984 388.199,53.7383 318.051,53.7383 c -38.129,0 -71.571,11.5703 -85.321,28.75 -9.21,11.5703 -13.902,34.6917 -13.902,69.2227 l 0,476.879 c 0,93.441 16.25,120.941 75,126.719 l 36.871,3.429 0,35.793 -330.620875,0 0,-35.793 28.749975,-3.429 C 88.6719,747.34 103.672,723.121 103.672,628.59 l 0,-452.66 C 103.672,81.3984 88.6719,57.1797 28.8281,49.2109 l -28.749975,-3.4296 0,-35.79302 596.722875,0 92.179,246.57072 z m -490.781,620.929 160.16,33.442 c 49.532,10.308 71.411,27.66 71.411,57.5 0,24.218 -17.348,42.66 -40.321,42.66 -23.121,0 -54.219,-13.75 -87.648,-39.219 l -109.379,-78.281 5.777,-16.102 z"
         inkscape:connector-curvature="0"
         id="path14"
         style="fill:#000000;fill-opacity:1;fill-rule:nonzero;stroke:none" /></g></g></svg>