<?xml version="1.0" encoding="UTF-8" standalone="no"?>
<!-- Created with Inkscape (http://www.inkscape.org/) -->

<svg
   xmlns:dc="http://purl.org/dc/elements/1.1/"
   xmlns:cc="http://creativecommons.org/ns#"
   xmlns:rdf="http://www.w3.org/1999/02/22-rdf-syntax-ns#"
   xmlns:svg="http://www.w3.org/2000/svg"
   xmlns="http://www.w3.org/2000/svg"
   xmlns:inkscape="http://www.inkscape.org/namespaces/inkscape"
   version="1.1"
   width="103.75"
   height="138.75"
   id="svg2"
   xml:space="preserve"><metadata
     id="metadata8"><rdf:RDF><cc:Work
         rdf:about=""><dc:format>image/svg+xml</dc:format><dc:type
           rdf:resource="http://purl.org/dc/dcmitype/StillImage" /></cc:Work></rdf:RDF></metadata><defs
     id="defs6" /><g
     transform="matrix(1.25,0,0,-1.25,0,138.75)"
     id="g10"><g
       transform="scale(0.1,0.1)"
       id="g12"><path
         d="m 828.359,318.719 0,34.531 C 749.922,370.59 720.078,393.559 663.52,481.219 L 444.77,838.25 582.891,959.191 c 70.308,59.999 133.75,96.869 183.281,106.089 l 7.969,2.19 0,35.78 -329.371,0 0,-35.78 11.402,-1.1 c 49.527,-4.53 66.879,-17.34 66.879,-47.18 0,-26.569 -9.223,-39.221 -67.973,-91.1 l -26.558,-22.969 -6.879,-5.781 -202.813,-183.121 0,221.09 c 0,93.441 17.344,122.191 75,126.721 l 47.192,3.44 0,35.78 -340.941875,0 0,-35.78 28.749975,-3.44 c 59.8438,-7.97 74.8439,-32.19 74.8439,-126.721 l 0,-452.661 c 0,-94.527 -15.0001,-118.75 -74.8439,-126.707 L 0.078125,354.5 l 0,-35.781 340.941875,0 0,35.781 -47.192,3.441 c -57.656,4.528 -75,33.278 -75,126.707 l 0,160.161 133.75,118.589 185.473,-296.089 c 19.527,-31.09 26.398,-48.438 26.398,-64.528 0,-27.66 -19.527,-41.41 -70.148,-46.09 -3.602,0 -11.571,-1.101 -20.781,-2.191 l 0,-35.781 354.839,0 z M 342.109,9.96875 C 413.52,43.3984 455.078,101.059 455.078,166.691 c 0,51.868 -35.777,94.368 -80.629,94.368 -39.219,0 -71.398,-32.188 -71.398,-70.161 0,-38.117 25.308,-65.777 62.179,-65.777 11.571,0 19.54,3.438 35.629,16.25 -3.437,-44.9999 -22.968,-74.9999 -71.41,-106.0897 l 12.66,-25.31255 z"
         inkscape:connector-curvature="0"
         id="path14"
         style="fill:#000000;fill-opacity:1;fill-rule:nonzero;stroke:none" /></g></g></svg>