<?xml version="1.0" encoding="UTF-8" standalone="no"?>
<!-- Created with Inkscape (http://www.inkscape.org/) -->

<svg
   xmlns:dc="http://purl.org/dc/elements/1.1/"
   xmlns:cc="http://creativecommons.org/ns#"
   xmlns:rdf="http://www.w3.org/1999/02/22-rdf-syntax-ns#"
   xmlns:svg="http://www.w3.org/2000/svg"
   xmlns="http://www.w3.org/2000/svg"
   xmlns:inkscape="http://www.inkscape.org/namespaces/inkscape"
   version="1.1"
   width="121.25"
   height="101.25"
   id="svg2"
   xml:space="preserve"><metadata
     id="metadata8"><rdf:RDF><cc:Work
         rdf:about=""><dc:format>image/svg+xml</dc:format><dc:type
           rdf:resource="http://purl.org/dc/dcmitype/StillImage" /></cc:Work></rdf:RDF></metadata><defs
     id="defs6" /><g
     transform="matrix(1.25,0,0,-1.25,0,101.25)"
     id="g10"><g
       transform="scale(0.1,0.1)"
       id="g12"><path
         d="m 859.449,643.551 c 0,94.527 15,118.75 74.852,126.719 l 28.75,3.441 0,35.777 -322.5,0 0,-35.777 28.75,-3.441 c 60,-7.969 75,-32.192 75,-126.719 l 0,-260.313 c 0,-145.16 -8.129,-200.468 -36.879,-246.558 C 678.52,90.5781 622.109,65.2695 550.699,65.2695 c -88.75,0 -165.929,51.8715 -165.929,112.9685 0,18.442 5.781,29.84 23.121,46.09 20.629,18.281 28.75,34.531 28.75,55.16 0,38.121 -25.313,62.34 -63.442,62.34 -52.969,0 -89.84,-42.648 -89.84,-102.648 0,-65.629 40.313,-137.039 102.661,-178.4417 48.281,-32.3477 116.25,-50.77736 186.558,-50.77736 103.75,0 200.473,40.30856 246.563,102.50006 33.437,43.898 40.308,82.969 40.308,212.027 l 0,319.063 z m -646.25,0 c 0,95.629 12.66,116.41 74.852,126.719 l 22.969,3.441 0,35.777 -310.941875,0 0,-35.777 L 23.0508,770.27 C 85.2305,759.961 97.8906,739.18 97.8906,643.551 l 0,-452.66 C 97.8906,95.2695 85.2305,74.4883 23.0508,64.1797 l -22.972675,-3.4414 0,-35.7774 310.941875,0 0,35.7774 -22.969,3.4414 C 225.859,74.4883 213.199,95.2695 213.199,190.891 l 0,452.66 z"
         inkscape:connector-curvature="0"
         id="path14"
         style="fill:#000000;fill-opacity:1;fill-rule:nonzero;stroke:none" /></g></g></svg>