<?xml version="1.0" encoding="UTF-8" standalone="no"?>
<!-- Created with Inkscape (http://www.inkscape.org/) -->

<svg
   xmlns:dc="http://purl.org/dc/elements/1.1/"
   xmlns:cc="http://creativecommons.org/ns#"
   xmlns:rdf="http://www.w3.org/1999/02/22-rdf-syntax-ns#"
   xmlns:svg="http://www.w3.org/2000/svg"
   xmlns="http://www.w3.org/2000/svg"
   xmlns:inkscape="http://www.inkscape.org/namespaces/inkscape"
   version="1.1"
   width="38.75"
   height="127.5"
   id="svg2"
   xml:space="preserve"><metadata
     id="metadata8"><rdf:RDF><cc:Work
         rdf:about=""><dc:format>image/svg+xml</dc:format><dc:type
           rdf:resource="http://purl.org/dc/dcmitype/StillImage" /></cc:Work></rdf:RDF></metadata><defs
     id="defs6" /><g
     transform="matrix(1.25,0,0,-1.25,0,127.5)"
     id="g10"><g
       transform="scale(0.1,0.1)"
       id="g12"><path
         d="m 208.52,835.93 -46.098,0 C 104.77,812.961 78.3594,806.09 -0.078125,796.871 l 0,-35.781 24.218725,-2.352 c 62.1875,-5.617 75,-26.398 75,-128.898 l 0,-487.352 c 0,-63.4294 -19.6914,-89.8396 -71.5625,-95.6169 l -27.656225,-2.3398 0,-34.54302 306.558125,0 0,34.54302 -26.558,2.3398 C 228.051,52.6484 208.52,79.0586 208.52,142.488 l 0,693.442 z M 38.0508,877.488 198.199,910.93 c 49.531,10.308 71.41,27.66 71.41,57.5 0,24.218 -17.339,42.66 -40.308,42.66 -23.129,0 -54.223,-13.75 -87.66,-39.219 L 32.2695,893.59 38.0508,877.488 z"
         inkscape:connector-curvature="0"
         id="path14"
         style="fill:#000000;fill-opacity:1;fill-rule:nonzero;stroke:none" /></g></g></svg>