<?xml version="1.0" encoding="UTF-8" standalone="no"?>
<!-- Created with Inkscape (http://www.inkscape.org/) -->

<svg
   xmlns:dc="http://purl.org/dc/elements/1.1/"
   xmlns:cc="http://creativecommons.org/ns#"
   xmlns:rdf="http://www.w3.org/1999/02/22-rdf-syntax-ns#"
   xmlns:svg="http://www.w3.org/2000/svg"
   xmlns="http://www.w3.org/2000/svg"
   xmlns:inkscape="http://www.inkscape.org/namespaces/inkscape"
   version="1.1"
   width="103.75"
   height="122.5"
   id="svg2"
   xml:space="preserve"><metadata
     id="metadata8"><rdf:RDF><cc:Work
         rdf:about=""><dc:format>image/svg+xml</dc:format><dc:type
           rdf:resource="http://purl.org/dc/dcmitype/StillImage" /></cc:Work></rdf:RDF></metadata><defs
     id="defs6" /><g
     transform="matrix(1.25,0,0,-1.25,0,122.5)"
     id="g10"><g
       transform="scale(0.1,0.1)"
       id="g12"><path
         d="M 414.77,824.5 C 183.199,824.5 -0.078125,645.898 -0.078125,420.121 -0.078125,187.469 177.422,9.96875 410.078,9.96875 c 126.723,0 251.25,57.65235 327.192,150.92925 56.402,69.071 85.308,156.723 85.308,253.442 0,237.34 -171.719,410.16 -407.808,410.16 z m -2.348,-55.32 c 168.129,0 274.219,-139.371 274.219,-361.711 0,-207.348 -108.282,-342.1877 -275.313,-342.1877 -168.277,0 -275.469,138.2777 -275.469,353.7497 0,211.867 109.532,350.149 276.563,350.149 z m 163.598,207.351 -340.942,0 0,-57.66 340.942,0 0,57.66 z"
         inkscape:connector-curvature="0"
         id="path14"
         style="fill:#000000;fill-opacity:1;fill-rule:nonzero;stroke:none" /></g></g></svg>