<?xml version="1.0" encoding="UTF-8" standalone="no"?>
<!-- Created with Inkscape (http://www.inkscape.org/) -->

<svg
   xmlns:dc="http://purl.org/dc/elements/1.1/"
   xmlns:cc="http://creativecommons.org/ns#"
   xmlns:rdf="http://www.w3.org/1999/02/22-rdf-syntax-ns#"
   xmlns:svg="http://www.w3.org/2000/svg"
   xmlns="http://www.w3.org/2000/svg"
   xmlns:inkscape="http://www.inkscape.org/namespaces/inkscape"
   version="1.1"
   width="101.25"
   height="138.75"
   id="svg2"
   xml:space="preserve"><metadata
     id="metadata8"><rdf:RDF><cc:Work
         rdf:about=""><dc:format>image/svg+xml</dc:format><dc:type
           rdf:resource="http://purl.org/dc/dcmitype/StillImage" /></cc:Work></rdf:RDF></metadata><defs
     id="defs6" /><g
     transform="matrix(1.25,0,0,-1.25,0,138.75)"
     id="g10"><g
       transform="scale(0.1,0.1)"
       id="g12"><path
         d="m 169.41,1016.84 427.352,-698.121 101.398,0 0,618.59 c 0,94.531 15,118.751 74.852,126.721 l 28.75,3.44 0,35.78 -284.532,0 0,-35.78 40.309,-3.44 c 58.75,-5.78 74.84,-33.28 74.84,-126.721 l 0,-455 -375.469,620.941 -256.8709375,0 0,-35.78 28.7500375,-3.44 c 59.8398,-7.97 74.8399,-32.19 74.8399,-126.721 l 0,-452.661 c 0,-94.527 -15.0001,-118.75 -74.8399,-126.707 L 0.0390625,354.5 l 0,-35.781 284.5309375,0 0,35.781 -40.308,3.441 c -58.75,5.778 -74.852,33.278 -74.852,126.707 l 0,532.192 z M 359.41,9.96875 C 430.82,43.3984 472.379,101.059 472.379,166.691 c 0,51.868 -35.777,94.368 -80.617,94.368 -39.223,0 -71.563,-32.188 -71.563,-70.161 0,-38.117 25.461,-65.777 62.34,-65.777 11.41,0 19.531,3.438 35.621,16.25 C 414.73,96.3711 395.199,66.3711 346.762,35.2813 L 359.41,9.96875 z"
         inkscape:connector-curvature="0"
         id="path14"
         style="fill:#000000;fill-opacity:1;fill-rule:nonzero;stroke:none" /></g></g></svg>