<?xml version="1.0" encoding="UTF-8" standalone="no"?>
<!-- Created with Inkscape (http://www.inkscape.org/) -->

<svg
   xmlns:dc="http://purl.org/dc/elements/1.1/"
   xmlns:cc="http://creativecommons.org/ns#"
   xmlns:rdf="http://www.w3.org/1999/02/22-rdf-syntax-ns#"
   xmlns:svg="http://www.w3.org/2000/svg"
   xmlns="http://www.w3.org/2000/svg"
   xmlns:inkscape="http://www.inkscape.org/namespaces/inkscape"
   version="1.1"
   width="71.25"
   height="105"
   id="svg2"
   xml:space="preserve"><metadata
     id="metadata8"><rdf:RDF><cc:Work
         rdf:about=""><dc:format>image/svg+xml</dc:format><dc:type
           rdf:resource="http://purl.org/dc/dcmitype/StillImage" /></cc:Work></rdf:RDF></metadata><defs
     id="defs6" /><g
     transform="matrix(1.25,0,0,-1.25,0,105)"
     id="g10"><g
       transform="scale(0.1,0.1)"
       id="g12"><path
         d="M 92.2305,810.672 C 126.762,736.922 194.73,694.27 279.879,694.27 c 79.531,0 154.383,46.089 190.16,116.402 l -26.559,20.777 c -39.07,-35.777 -103.601,-60 -161.25,-60 -59.851,0 -115.16,20.789 -163.601,60 L 92.2305,810.672 z M 278.789,589.422 C 198.16,589.422 126.762,561.77 80.6602,514.578 32.2305,463.949 0.0390625,378.641 0.0390625,298.02 0.0390625,124.109 111.762,10.0508 283.48,10.0508 c 167.032,0 279.84,115.1482 279.84,285.6212 0,74.848 -26.41,150.937 -69.058,203.906 -48.442,57.66 -125.633,89.844 -215.473,89.844 z m 1.09,-46.094 c 103.75,0 165.941,-95.629 165.941,-253.437 0,-146.25 -59.84,-233.7504 -161.25,-233.7504 -105.941,0 -167.031,88.5974 -167.031,244.2184 0,147.34 64.531,242.969 162.34,242.969 z"
         inkscape:connector-curvature="0"
         id="path14"
         style="fill:#000000;fill-opacity:1;fill-rule:nonzero;stroke:none" /></g></g></svg>