<?xml version="1.0" encoding="UTF-8" standalone="no"?>
<!-- Created with Inkscape (http://www.inkscape.org/) -->

<svg
   xmlns:dc="http://purl.org/dc/elements/1.1/"
   xmlns:cc="http://creativecommons.org/ns#"
   xmlns:rdf="http://www.w3.org/1999/02/22-rdf-syntax-ns#"
   xmlns:svg="http://www.w3.org/2000/svg"
   xmlns="http://www.w3.org/2000/svg"
   xmlns:inkscape="http://www.inkscape.org/namespaces/inkscape"
   version="1.1"
   width="77.5"
   height="138.75"
   id="svg2"
   xml:space="preserve"><metadata
     id="metadata8"><rdf:RDF><cc:Work
         rdf:about=""><dc:format>image/svg+xml</dc:format><dc:type
           rdf:resource="http://purl.org/dc/dcmitype/StillImage" /></cc:Work></rdf:RDF></metadata><defs
     id="defs6" /><g
     transform="matrix(1.25,0,0,-1.25,0,138.75)"
     id="g10"><g
       transform="scale(0.1,0.1)"
       id="g12"><path
         d="m 506.949,752.129 c 0,160.312 -57.5,240.461 -172.5,240.461 -66.988,0 -120.621,-23.899 -160.929,-71.711 -40.239,-47.738 -60.321,-113.129 -60.321,-196.25 l 0,-475 -113.429469,0 0,838.281 113.429469,0 0,-135.32 c 29.262,50.2 63.52,87.86 102.821,112.97 39.679,25.08 88.16,37.66 145.46,37.66 85,0 149.258,-29.92 192.821,-89.69 43.629,-59.69 65.469,-147.19 65.469,-262.499 l 0,-512.652 C 619.77,158.691 604.609,100.68 574.301,64.3086 543.551,28.3789 494.34,10.4102 426.641,10.4102 l -48.911,0 0,87.6484 27.5,0 c 38.211,0 64.731,8.4414 79.54,25.3204 14.761,16.793 22.179,55.109 22.179,115 l 0,513.75 z"
         inkscape:connector-curvature="0"
         id="path14"
         style="fill:#000000;fill-opacity:1;fill-rule:nonzero;stroke:none" /></g></g></svg>