<?xml version="1.0" encoding="UTF-8" standalone="no"?>
<!-- Created with Inkscape (http://www.inkscape.org/) -->

<svg
   xmlns:dc="http://purl.org/dc/elements/1.1/"
   xmlns:cc="http://creativecommons.org/ns#"
   xmlns:rdf="http://www.w3.org/1999/02/22-rdf-syntax-ns#"
   xmlns:svg="http://www.w3.org/2000/svg"
   xmlns="http://www.w3.org/2000/svg"
   xmlns:inkscape="http://www.inkscape.org/namespaces/inkscape"
   version="1.1"
   width="86.25"
   height="100"
   id="svg2"
   xml:space="preserve"><metadata
     id="metadata8"><rdf:RDF><cc:Work
         rdf:about=""><dc:format>image/svg+xml</dc:format><dc:type
           rdf:resource="http://purl.org/dc/dcmitype/StillImage" /></cc:Work></rdf:RDF></metadata><defs
     id="defs6" /><g
     transform="matrix(1.25,0,0,-1.25,0,100)"
     id="g10"><g
       transform="scale(0.1,0.1)"
       id="g12"><path
         d="m 103.672,331.391 0,-155.469 C 103.672,81.3906 88.6719,57.1719 28.8281,49.1992 l -28.749975,-3.4375 0,-35.78123 595.472875,0 93.429,246.55853 -33.429,15 C 602.578,196.539 573.672,164.359 528.828,130.922 464.301,81.3906 387.109,53.7305 318.051,53.7305 c -38.129,0 -71.571,11.5586 -85.321,28.75 -9.21,11.5586 -13.902,34.6915 -13.902,69.2185 l 0,251.09 164.844,117.5 0,66.883 -164.844,-117.5 0,158.898 c 0,93.442 16.25,120.942 75,126.719 l 36.871,3.441 0,35.782 -330.620875,0 0,-35.782 28.749975,-3.441 C 88.6719,747.32 103.672,723.109 103.672,628.57 l 0,-230.308 -99.06262,-73.75 0,-66.871 99.06262,73.75 z"
         inkscape:connector-curvature="0"
         id="path14"
         style="fill:#000000;fill-opacity:1;fill-rule:nonzero;stroke:none" /></g></g></svg>