<?xml version="1.0" encoding="UTF-8" standalone="no"?>
<!-- Created with Inkscape (http://www.inkscape.org/) -->

<svg
   xmlns:dc="http://purl.org/dc/elements/1.1/"
   xmlns:cc="http://creativecommons.org/ns#"
   xmlns:rdf="http://www.w3.org/1999/02/22-rdf-syntax-ns#"
   xmlns:svg="http://www.w3.org/2000/svg"
   xmlns="http://www.w3.org/2000/svg"
   xmlns:inkscape="http://www.inkscape.org/namespaces/inkscape"
   version="1.1"
   width="103.75"
   height="133.75"
   id="svg2"
   xml:space="preserve"><metadata
     id="metadata8"><rdf:RDF><cc:Work
         rdf:about=""><dc:format>image/svg+xml</dc:format><dc:type
           rdf:resource="http://purl.org/dc/dcmitype/StillImage" /></cc:Work></rdf:RDF></metadata><defs
     id="defs6" /><g
     transform="matrix(1.25,0,0,-1.25,0,133.75)"
     id="g10"><g
       transform="scale(0.1,0.1)"
       id="g12"><path
         d="m 222.27,1041.07 c 34.679,-73.75 102.652,-116.398 187.808,-116.398 79.531,0 154.371,46.09 190.152,116.398 l -26.558,20.78 c -39.223,-35.78 -103.594,-60 -161.25,-60 -59.844,0 -115.152,20.79 -163.594,60 L 222.27,1041.07 z M 414.77,824.512 C 183.199,824.512 -0.078125,645.922 -0.078125,420.141 -0.078125,187.48 177.422,9.98047 410.078,9.98047 c 126.723,0 251.25,57.66013 327.192,150.94153 56.402,69.058 85.308,156.719 85.308,253.43 0,237.347 -171.719,410.16 -407.808,410.16 z m -2.348,-55.313 c 168.129,0 274.219,-139.379 274.219,-361.719 0,-207.339 -108.282,-342.1909 -275.313,-342.1909 -168.277,0 -275.469,138.2809 -275.469,353.7499 0,211.883 109.532,350.16 276.563,350.16 z"
         inkscape:connector-curvature="0"
         id="path14"
         style="fill:#000000;fill-opacity:1;fill-rule:nonzero;stroke:none" /></g></g></svg>