<?xml version="1.0" encoding="UTF-8" standalone="no"?>
<!-- Created with Inkscape (http://www.inkscape.org/) -->

<svg
   xmlns:dc="http://purl.org/dc/elements/1.1/"
   xmlns:cc="http://creativecommons.org/ns#"
   xmlns:rdf="http://www.w3.org/1999/02/22-rdf-syntax-ns#"
   xmlns:svg="http://www.w3.org/2000/svg"
   xmlns="http://www.w3.org/2000/svg"
   xmlns:inkscape="http://www.inkscape.org/namespaces/inkscape"
   version="1.1"
   width="91.25"
   height="100"
   id="svg2"
   xml:space="preserve"><metadata
     id="metadata8"><rdf:RDF><cc:Work
         rdf:about=""><dc:format>image/svg+xml</dc:format><dc:type
           rdf:resource="http://purl.org/dc/dcmitype/StillImage" /></cc:Work></rdf:RDF></metadata><defs
     id="defs6" /><g
     transform="matrix(1.25,0,0,-1.25,0,100)"
     id="g10"><g
       transform="scale(0.1,0.1)"
       id="g12"><path
         d="m 213.051,568.75 -39.071,0 C 102.578,554.84 64.4492,550.309 -0.078125,545.629 l 0,-34.539 27.656225,-2.18 c 58.75,-4.691 76.0939,-26.57 76.0939,-95.629 l 0,-270.781 c 0,-63.4414 -20.7814,-89.8398 -71.4025,-95.6211 L 3.51953,44.5313 3.51953,10 313.359,10 l 0,34.5313 -28.75,2.3476 C 233.828,52.6602 213.051,79.0586 213.051,142.5 l 0,284.531 c 71.558,64.528 139.527,96.719 203.898,96.719 63.442,0 97.973,-40.309 97.973,-115.16 l 0,-266.09 c 0,-63.4414 -20.781,-89.8398 -71.402,-95.6211 l -28.75,-2.3476 0,-34.5313 309.839,0 0,34.5313 -28.75,2.3476 c -50.781,5.7813 -71.41,32.1797 -71.41,95.6211 l 0,284.531 c 0,95.629 -65.777,152.028 -174.058,152.028 -87.5,0 -155.469,-28.75 -237.34,-101.399 l 0,91.09 z m 101.398,90.941 160.16,33.438 c 49.532,10.461 71.411,27.652 71.411,57.652 0,24.219 -17.192,42.66 -40.321,42.66 -22.969,0 -54.058,-13.91 -87.5,-39.222 l -109.527,-78.278 5.777,-16.25 z"
         inkscape:connector-curvature="0"
         id="path14"
         style="fill:#000000;fill-opacity:1;fill-rule:nonzero;stroke:none" /></g></g></svg>