<?xml version="1.0" encoding="UTF-8" standalone="no"?>
<!-- Created with Inkscape (http://www.inkscape.org/) -->

<svg
   xmlns:dc="http://purl.org/dc/elements/1.1/"
   xmlns:cc="http://creativecommons.org/ns#"
   xmlns:rdf="http://www.w3.org/1999/02/22-rdf-syntax-ns#"
   xmlns:svg="http://www.w3.org/2000/svg"
   xmlns="http://www.w3.org/2000/svg"
   xmlns:inkscape="http://www.inkscape.org/namespaces/inkscape"
   version="1.1"
   width="66.25"
   height="112.5"
   id="svg2"
   xml:space="preserve"><metadata
     id="metadata8"><rdf:RDF><cc:Work
         rdf:about=""><dc:format>image/svg+xml</dc:format><dc:type
           rdf:resource="http://purl.org/dc/dcmitype/StillImage" /></cc:Work></rdf:RDF></metadata><defs
     id="defs6" /><g
     transform="matrix(1.25,0,0,-1.25,0,112.5)"
     id="g10"><g
       transform="scale(0.1,0.1)"
       id="g12"><path
         d="m 526.48,629.148 0,-390.777 C 526.48,158.289 511.172,100.238 480.551,64.3008 450.23,28.3711 401.172,10.3984 333.359,10.3984 l -142.66,0 0,87.6524 130.942,0 c 39.257,0 66.019,8.9882 80.308,26.8792 14.141,18.359 21.25,56.172 21.25,113.441 l 0,387.5 c 0,59.449 -11.64,103.981 -34.84,133.59 -23.129,29.57 -57.929,44.379 -104.379,44.379 -55.859,0 -99.839,-17.82 -132.031,-53.442 C 119.77,714.852 103.672,666.41 103.672,605.09 l 0,-355.469 -103.902469,0 0,628.899 103.902469,0 0,-97.649 c 24.687,37.809 53.668,66.008 87.027,84.68 33.75,18.75 72.5,28.129 116.25,28.129 72.27,0 126.961,-22.309 164.071,-66.879 36.949,-44.922 55.46,-110.781 55.46,-197.653 z"
         inkscape:connector-curvature="0"
         id="path14"
         style="fill:#000000;fill-opacity:1;fill-rule:nonzero;stroke:none" /></g></g></svg>