<?xml version="1.0" encoding="UTF-8" standalone="no"?>
<!-- Created with Inkscape (http://www.inkscape.org/) -->

<svg
   xmlns:dc="http://purl.org/dc/elements/1.1/"
   xmlns:cc="http://creativecommons.org/ns#"
   xmlns:rdf="http://www.w3.org/1999/02/22-rdf-syntax-ns#"
   xmlns:svg="http://www.w3.org/2000/svg"
   xmlns="http://www.w3.org/2000/svg"
   xmlns:inkscape="http://www.inkscape.org/namespaces/inkscape"
   version="1.1"
   width="40"
   height="105"
   id="svg2"
   xml:space="preserve"><metadata
     id="metadata8"><rdf:RDF><cc:Work
         rdf:about=""><dc:format>image/svg+xml</dc:format><dc:type
           rdf:resource="http://purl.org/dc/dcmitype/StillImage" /></cc:Work></rdf:RDF></metadata><defs
     id="defs6" /><g
     transform="matrix(1.25,0,0,-1.25,0,105)"
     id="g10"><g
       transform="scale(0.1,0.1)"
       id="g12"><path
         d="m 211.949,436.262 100.321,73.75 0,55.308 -100.321,-72.66 0,343.281 -46.09,0 C 108.359,812.98 81.8008,806.102 3.51953,796.879 l 0,-35.777 24.05857,-2.34 c 62.3438,-5.633 74.9999,-26.41 74.9999,-128.91 l 0,-198.122 -102.656125,-75 0,-56.41 102.656125,74.84 0,-232.648 c 0,-63.4417 -19.6874,-89.8518 -71.4061,-95.6331 l -27.65237,-2.3398 0,-34.5274 306.40247,0 0,34.5274 -26.563,2.3398 c -51.879,5.7813 -71.41,32.1914 -71.41,95.6331 l 0,293.75 z"
         inkscape:connector-curvature="0"
         id="path14"
         style="fill:#000000;fill-opacity:1;fill-rule:nonzero;stroke:none" /></g></g></svg>