<?xml version="1.0" encoding="UTF-8" standalone="no"?>
<!-- Created with Inkscape (http://www.inkscape.org/) -->

<svg
   xmlns:dc="http://purl.org/dc/elements/1.1/"
   xmlns:cc="http://creativecommons.org/ns#"
   xmlns:rdf="http://www.w3.org/1999/02/22-rdf-syntax-ns#"
   xmlns:svg="http://www.w3.org/2000/svg"
   xmlns="http://www.w3.org/2000/svg"
   xmlns:inkscape="http://www.inkscape.org/namespaces/inkscape"
   version="1.1"
   width="91.25"
   height="111.25"
   id="svg2"
   xml:space="preserve"><metadata
     id="metadata8"><rdf:RDF><cc:Work
         rdf:about=""><dc:format>image/svg+xml</dc:format><dc:type
           rdf:resource="http://purl.org/dc/dcmitype/StillImage" /></cc:Work></rdf:RDF></metadata><defs
     id="defs6" /><g
     transform="matrix(1.25,0,0,-1.25,0,111.25)"
     id="g10"><g
       transform="scale(0.1,0.1)"
       id="g12"><path
         d="m 213.051,877.469 -39.071,0 C 102.578,863.57 64.4492,859.031 -0.078125,854.352 l 0,-34.532 27.656225,-2.191 C 86.3281,812.941 103.672,791.07 103.672,722 l 0,-270.781 c 0,-63.438 -20.7814,-89.84 -71.4025,-95.617 l -28.74997,-2.352 0,-34.531 309.83947,0 0,34.531 -28.75,2.352 c -50.781,5.777 -71.558,32.179 -71.558,95.617 l 0,284.531 c 71.558,64.531 139.527,96.719 203.898,96.719 63.442,0 97.973,-40.309 97.973,-115.149 l 0,-266.101 c 0,-63.438 -20.781,-89.84 -71.402,-95.617 l -28.75,-2.352 0,-34.531 309.839,0 0,34.531 -28.75,2.352 c -50.781,5.777 -71.41,32.179 -71.41,95.617 l 0,284.531 c 0,95.629 -65.777,152.031 -174.058,152.031 -87.5,0 -155.469,-28.75 -237.34,-101.402 l 0,91.09 z M 320.23,9.96875 C 391.641,43.4102 433.199,101.07 433.199,166.691 c 0,51.879 -35.777,94.379 -80.621,94.379 -39.219,0 -71.558,-32.191 -71.558,-70.16 0,-38.129 25.46,-65.781 62.339,-65.781 11.411,0 19.532,3.441 35.621,16.25 C 375.551,96.3789 356.02,66.3789 307.578,35.2813 L 320.23,9.96875 z"
         inkscape:connector-curvature="0"
         id="path14"
         style="fill:#000000;fill-opacity:1;fill-rule:nonzero;stroke:none" /></g></g></svg>