<?xml version="1.0" encoding="UTF-8" standalone="no"?>
<!-- Created with Inkscape (http://www.inkscape.org/) -->

<svg
   xmlns:dc="http://purl.org/dc/elements/1.1/"
   xmlns:cc="http://creativecommons.org/ns#"
   xmlns:rdf="http://www.w3.org/1999/02/22-rdf-syntax-ns#"
   xmlns:svg="http://www.w3.org/2000/svg"
   xmlns="http://www.w3.org/2000/svg"
   xmlns:inkscape="http://www.inkscape.org/namespaces/inkscape"
   version="1.1"
   width="101.25"
   height="127.5"
   id="svg2"
   xml:space="preserve"><metadata
     id="metadata8"><rdf:RDF><cc:Work
         rdf:about=""><dc:format>image/svg+xml</dc:format><dc:type
           rdf:resource="http://purl.org/dc/dcmitype/StillImage" /></cc:Work></rdf:RDF></metadata><defs
     id="defs6" /><g
     transform="matrix(1.25,0,0,-1.25,0,127.5)"
     id="g10"><g
       transform="scale(0.1,0.1)"
       id="g12"><path
         d="M 169.41,708.121 596.762,9.98828 l 101.398,0 0,618.60172 c 0,94.531 15,118.75 74.852,126.719 l 28.75,3.429 0,35.793 -284.532,0 0,-35.793 40.309,-3.429 c 58.75,-5.778 74.84,-33.278 74.84,-126.719 l 0,-455 -375.469,620.941 -256.8709375,0 0,-35.793 L 28.7891,755.309 C 88.6289,747.34 103.629,723.121 103.629,628.59 l 0,-452.66 C 103.629,81.3984 88.6289,57.1797 28.7891,49.2109 l -28.7500375,-3.4296 0,-35.79302 284.5309375,0 0,35.79302 -40.308,3.4296 C 185.512,54.9883 169.41,82.4883 169.41,175.93 l 0,532.191 z m 226.879,167.027 163.59,107.192 -16.09,28.75 -147.5,-52.969 -148.59,52.969 -15,-28.75 163.59,-107.192 z"
         inkscape:connector-curvature="0"
         id="path14"
         style="fill:#000000;fill-opacity:1;fill-rule:nonzero;stroke:none" /></g></g></svg>