<?xml version="1.0" encoding="UTF-8" standalone="no"?>
<!-- Created with Inkscape (http://www.inkscape.org/) -->

<svg
   xmlns:dc="http://purl.org/dc/elements/1.1/"
   xmlns:cc="http://creativecommons.org/ns#"
   xmlns:rdf="http://www.w3.org/1999/02/22-rdf-syntax-ns#"
   xmlns:svg="http://www.w3.org/2000/svg"
   xmlns="http://www.w3.org/2000/svg"
   xmlns:inkscape="http://www.inkscape.org/namespaces/inkscape"
   version="1.1"
   width="87.5"
   height="130"
   id="svg2"
   xml:space="preserve"><metadata
     id="metadata8"><rdf:RDF><cc:Work
         rdf:about=""><dc:format>image/svg+xml</dc:format><dc:type
           rdf:resource="http://purl.org/dc/dcmitype/StillImage" /></cc:Work></rdf:RDF></metadata><defs
     id="defs6" /><g
     transform="matrix(1.25,0,0,-1.25,0,130)"
     id="g10"><g
       transform="scale(0.1,0.1)"
       id="g12"><path
         d="m 352.578,225.398 24.063,0 c 180.937,0 321.41,108.282 321.41,247.653 0,41.558 -10.321,85.308 -27.5,111.879 -34.692,55.148 -92.192,86.398 -216.723,116.25 l -143.906,34.531 c -111.723,27.648 -156.723,63.437 -156.723,125.617 0,69.07 73.75,123.281 169.379,123.281 110.621,0 202.813,-58.75 283.442,-182.031 l 36.871,13.91 -70.313,208.442 -41.558,0 -13.75,-41.41 c -64.54,39.06 -130.161,56.41 -217.821,56.41 -75.929,0 -137.027,-18.44 -184.219,-55.321 C 65.6992,945.398 35.6992,888.988 35.6992,833.68 c 0,-44.852 20.7813,-93.282 50.6289,-124.379 C 122.109,673.52 183.199,645.859 273.051,622.898 L 427.422,583.68 c 114.058,-27.66 153.129,-62.192 153.129,-131.25 0,-97.969 -89.852,-171.719 -208.442,-171.719 -132.5,0 -248.91,82.969 -329.5309,237.34 L -0.078125,504.148 74.9219,240.398 l 42.5001,0 22.027,57.653 c 50.629,-38.121 105.942,-58.75 178.442,-69.223 l -25.313,-78.277 c 24.223,8.129 39.223,11.558 54.223,11.558 44.84,0 69.058,-20.781 69.058,-58.75 0,-35.7809 -22.968,-62.3395 -52.968,-62.3395 -23.121,0 -33.442,8.1289 -45,34.6914 -7.969,20.6172 -17.192,27.6481 -35.621,27.6481 -16.098,0 -28.75,-12.6481 -28.75,-28.8981 0,-34.5312 51.71,-64.53121 111.71,-64.53121 63.29,0 105.942,39.21871 105.942,97.96831 0,52.961 -39.223,85.313 -101.402,85.313 -2.348,0 -6.879,0 -13.75,-1.25 -2.348,0 -8.129,0 -13.911,-1.102 l 10.469,34.539 z"
         inkscape:connector-curvature="0"
         id="path14"
         style="fill:#000000;fill-opacity:1;fill-rule:nonzero;stroke:none" /></g></g></svg>