<?xml version="1.0" encoding="UTF-8" standalone="no"?>
<!-- Created with Inkscape (http://www.inkscape.org/) -->

<svg
   xmlns:dc="http://purl.org/dc/elements/1.1/"
   xmlns:cc="http://creativecommons.org/ns#"
   xmlns:rdf="http://www.w3.org/1999/02/22-rdf-syntax-ns#"
   xmlns:svg="http://www.w3.org/2000/svg"
   xmlns="http://www.w3.org/2000/svg"
   xmlns:inkscape="http://www.inkscape.org/namespaces/inkscape"
   version="1.1"
   width="87.5"
   height="128.75"
   id="svg2"
   xml:space="preserve"><metadata
     id="metadata8"><rdf:RDF><cc:Work
         rdf:about=""><dc:format>image/svg+xml</dc:format><dc:type
           rdf:resource="http://purl.org/dc/dcmitype/StillImage" /></cc:Work></rdf:RDF></metadata><defs
     id="defs6" /><g
     transform="matrix(1.25,0,0,-1.25,0,128.75)"
     id="g10"><g
       transform="scale(0.1,0.1)"
       id="g12"><path
         d="m 572.578,809.5 -41.558,0 -13.75,-41.398 C 452.73,807.16 387.109,824.5 299.449,824.5 223.52,824.5 162.422,806.059 115.23,769.191 65.6992,729.969 35.6992,673.559 35.6992,618.25 c 0,-44.84 20.7813,-93.281 50.6289,-124.371 35.7809,-35.777 96.8709,-63.438 186.7229,-86.41 L 427.422,368.25 C 541.48,340.602 580.551,306.059 580.551,237 c 0,-97.969 -89.852,-171.7187 -208.442,-171.7187 -132.5,0 -248.91,82.9687 -329.5309,237.3477 L -0.078125,288.719 74.9219,24.9688 l 42.5001,0 22.027,57.6601 c 70.16,-49.5273 146.25,-72.66015 238.442,-72.66015 179.687,0 320.16,109.53125 320.16,247.66025 0,41.562 -10.321,85.312 -27.5,111.871 -34.692,55.16 -92.192,86.41 -216.723,116.25 l -143.906,34.531 c -111.723,27.66 -156.723,63.438 -156.723,125.629 0,69.059 73.75,123.281 169.379,123.281 110.621,0 202.813,-58.75 283.442,-182.031 L 642.891,601.059 572.578,809.5 z M 282.27,892.469 442.422,925.91 c 49.527,10.309 71.406,27.649 71.406,57.5 0,24.22 -17.348,42.65 -40.308,42.65 -23.129,0 -54.219,-13.75 -87.661,-39.208 l -109.379,-78.293 5.79,-16.09 z"
         inkscape:connector-curvature="0"
         id="path14"
         style="fill:#000000;fill-opacity:1;fill-rule:nonzero;stroke:none" /></g></g></svg>