<?xml version="1.0" encoding="UTF-8" standalone="no"?>
<!-- Created with Inkscape (http://www.inkscape.org/) -->

<svg
   xmlns:dc="http://purl.org/dc/elements/1.1/"
   xmlns:cc="http://creativecommons.org/ns#"
   xmlns:rdf="http://www.w3.org/1999/02/22-rdf-syntax-ns#"
   xmlns:svg="http://www.w3.org/2000/svg"
   xmlns="http://www.w3.org/2000/svg"
   xmlns:inkscape="http://www.inkscape.org/namespaces/inkscape"
   version="1.1"
   width="65"
   height="101.25"
   id="svg2"
   xml:space="preserve"><metadata
     id="metadata8"><rdf:RDF><cc:Work
         rdf:about=""><dc:format>image/svg+xml</dc:format><dc:type
           rdf:resource="http://purl.org/dc/dcmitype/StillImage" /></cc:Work></rdf:RDF></metadata><defs
     id="defs6" /><g
     transform="matrix(1.25,0,0,-1.25,0,101.25)"
     id="g10"><g
       transform="scale(0.1,0.1)"
       id="g12"><path
         d="m 259.219,230.07 21.871,0 c 132.5,0 233.91,80.629 233.91,186.571 0,78.281 -46.09,124.371 -146.41,148.589 l -160.149,39.219 c -27.66,6.871 -41.41,11.563 -54.062,17.192 -21.879,11.558 -35.789,32.339 -35.789,55.308 0,49.531 48.441,86.41 116.41,86.41 87.5,0 163.59,-55.32 201.559,-146.25 l 36.882,0 -36.882,177.34 -32.18,0 -11.57,-41.41 c -49.528,39.223 -100.149,56.41 -164.688,56.41 -117.5,0 -210.7812,-73.75 -210.7812,-168.129 0,-72.648 49.5391,-115.148 171.5702,-146.398 l 147.5,-36.883 c 57.5,-14.84 84.059,-39.059 84.059,-75.93 0,-60 -64.528,-105.937 -148.59,-105.937 -71.41,0 -141.719,31.09 -184.379,82.808 -20.6211,24.219 -32.1914,47.34 -48.2812,91.09 L 0,450.07 39.2188,244.922 l 37.9726,0 12.6484,48.437 C 135.941,257.73 170.469,242.73 224.691,233.512 l -26.57,-82.973 c 24.219,8.133 39.219,11.57 54.219,11.57 44.851,0 69.07,-20.789 69.07,-58.75 0,-35.7887 -22.969,-62.3473 -52.969,-62.3473 -23.132,0 -33.441,8.1289 -45,34.6875 -7.972,20.6211 -17.191,27.6598 -35.632,27.6598 -16.25,0 -28.899,-12.6598 -28.899,-28.9098 0,-34.5273 51.871,-64.52732 111.871,-64.52732 63.278,0 105.938,39.21872 105.938,97.96912 0,52.968 -39.219,85.308 -101.41,85.308 -2.34,0 -6.868,0 -13.75,-1.25 -2.34,0 -8.118,0 -13.899,-1.09 l 11.559,39.211 z"
         inkscape:connector-curvature="0"
         id="path14"
         style="fill:#000000;fill-opacity:1;fill-rule:nonzero;stroke:none" /></g></g></svg>