<?xml version="1.0" encoding="UTF-8" standalone="no"?>
<!-- Created with Inkscape (http://www.inkscape.org/) -->

<svg
   xmlns:dc="http://purl.org/dc/elements/1.1/"
   xmlns:cc="http://creativecommons.org/ns#"
   xmlns:rdf="http://www.w3.org/1999/02/22-rdf-syntax-ns#"
   xmlns:svg="http://www.w3.org/2000/svg"
   xmlns="http://www.w3.org/2000/svg"
   xmlns:inkscape="http://www.inkscape.org/namespaces/inkscape"
   version="1.1"
   width="62.5"
   height="100"
   id="svg2"
   xml:space="preserve"><metadata
     id="metadata8"><rdf:RDF><cc:Work
         rdf:about=""><dc:format>image/svg+xml</dc:format><dc:type
           rdf:resource="http://purl.org/dc/dcmitype/StillImage" /></cc:Work></rdf:RDF></metadata><defs
     id="defs6" /><g
     transform="matrix(1.25,0,0,-1.25,0,100)"
     id="g10"><g
       transform="scale(0.1,0.1)"
       id="g12"><path
         d="m 213.051,568.75 -39.071,0 C 102.578,554.84 64.4492,550.309 -0.078125,545.629 l 0,-34.539 27.656225,-2.18 c 58.75,-4.691 76.0939,-26.57 76.0939,-95.629 l 0,-270.781 c 0,-63.4414 -20.7814,-89.8398 -71.4025,-95.6211 L 3.51953,44.5313 3.51953,10 313.359,10 l 0,34.5313 -28.75,2.3476 C 233.828,52.6602 213.051,79.0586 213.051,142.5 l 0,282.191 c 41.558,46.09 72.648,64.528 106.09,64.528 19.531,0 27.66,-3.438 48.281,-17.188 19.687,-15 38.129,-20.781 58.75,-20.781 38.129,0 65.777,26.41 65.777,63.281 0,38.129 -34.527,64.528 -84.058,64.528 -26.563,0 -54.219,-5.778 -81.871,-18.43 -27.661,-11.41 -33.442,-16.098 -88.75,-63.289 -3.442,-3.43 -12.661,-11.559 -24.219,-20.781 l 0,92.191 z m 17.34,88.75 163.589,107.031 -16.089,28.91 -147.5,-53.132 -148.5902,53.132 -15,-28.91 L 230.391,657.5 z"
         inkscape:connector-curvature="0"
         id="path14"
         style="fill:#000000;fill-opacity:1;fill-rule:nonzero;stroke:none" /></g></g></svg>