<?xml version="1.0" encoding="UTF-8" standalone="no"?>
<!-- Created with Inkscape (http://www.inkscape.org/) -->

<svg
   xmlns:dc="http://purl.org/dc/elements/1.1/"
   xmlns:cc="http://creativecommons.org/ns#"
   xmlns:rdf="http://www.w3.org/1999/02/22-rdf-syntax-ns#"
   xmlns:svg="http://www.w3.org/2000/svg"
   xmlns="http://www.w3.org/2000/svg"
   xmlns:inkscape="http://www.inkscape.org/namespaces/inkscape"
   version="1.1"
   width="103.75"
   height="131.25"
   id="svg2"
   xml:space="preserve"><metadata
     id="metadata8"><rdf:RDF><cc:Work
         rdf:about=""><dc:format>image/svg+xml</dc:format><dc:type
           rdf:resource="http://purl.org/dc/dcmitype/StillImage" /></cc:Work></rdf:RDF></metadata><defs
     id="defs6" /><g
     transform="matrix(1.25,0,0,-1.25,0,131.25)"
     id="g10"><g
       transform="scale(0.1,0.1)"
       id="g12"><path
         d="M 414.77,824.488 C 183.199,824.488 -0.078125,645.898 -0.078125,420.121 -0.078125,187.461 177.422,9.96094 410.078,9.96094 c 126.723,0 251.25,57.66016 327.192,150.93706 56.402,69.063 85.308,156.723 85.308,253.442 0,237.34 -171.719,410.148 -407.808,410.148 z m -2.348,-55.308 c 168.129,0 274.219,-139.371 274.219,-361.719 0,-207.34 -108.282,-342.1797 -275.313,-342.1797 -168.277,0 -275.469,138.2777 -275.469,353.7497 0,211.867 109.532,350.149 276.563,350.149 z m -124.371,94.531 88.59,93.277 c 13.91,15 23.129,37.973 23.129,58.752 0,20.63 -11.571,33.44 -28.75,33.44 -25.469,0 -41.571,-18.44 -61.098,-69.219 l -40.313,-103.59 18.442,-12.66 z m 149.679,0 87.661,93.277 c 14.839,16.102 24.058,37.973 24.058,57.502 0,21.88 -10.308,34.69 -28.75,34.69 -25.308,0 -42.648,-19.69 -61.09,-69.219 l -40.308,-103.59 18.429,-12.66 z"
         inkscape:connector-curvature="0"
         id="path14"
         style="fill:#000000;fill-opacity:1;fill-rule:nonzero;stroke:none" /></g></g></svg>