<?xml version="1.0" encoding="UTF-8" standalone="no"?>
<!-- Created with Inkscape (http://www.inkscape.org/) -->

<svg
   xmlns:dc="http://purl.org/dc/elements/1.1/"
   xmlns:cc="http://creativecommons.org/ns#"
   xmlns:rdf="http://www.w3.org/1999/02/22-rdf-syntax-ns#"
   xmlns:svg="http://www.w3.org/2000/svg"
   xmlns="http://www.w3.org/2000/svg"
   xmlns:inkscape="http://www.inkscape.org/namespaces/inkscape"
   version="1.1"
   width="62.5"
   height="111.25"
   id="svg2"
   xml:space="preserve"><metadata
     id="metadata8"><rdf:RDF><cc:Work
         rdf:about=""><dc:format>image/svg+xml</dc:format><dc:type
           rdf:resource="http://purl.org/dc/dcmitype/StillImage" /></cc:Work></rdf:RDF></metadata><defs
     id="defs6" /><g
     transform="matrix(1.25,0,0,-1.25,0,111.25)"
     id="g10"><g
       transform="scale(0.1,0.1)"
       id="g12"><path
         d="m 213.051,877.469 -39.071,0 C 102.578,863.57 64.4492,859.031 -0.078125,854.352 l 0,-34.532 27.656225,-2.191 C 86.3281,812.941 103.672,791.07 103.672,722 l 0,-270.781 c 0,-63.438 -20.7814,-89.84 -71.4025,-95.617 l -28.74997,-2.352 0,-34.531 309.83947,0 0,34.531 -28.75,2.352 c -50.781,5.777 -71.558,32.179 -71.558,95.617 l 0,282.191 c 41.558,46.09 72.648,64.531 106.09,64.531 19.531,0 27.66,-3.441 48.281,-17.191 19.687,-15 38.129,-20.781 58.75,-20.781 38.129,0 65.777,26.41 65.777,63.281 0,38.129 -34.527,64.531 -84.058,64.531 -26.563,0 -54.219,-5.781 -81.871,-18.429 -27.661,-11.411 -33.442,-16.102 -88.75,-63.282 -3.442,-3.441 -12.661,-11.57 -24.219,-20.789 l 0,92.188 z M 124.449,9.96875 C 195.859,43.4102 237.27,101.07 237.27,166.691 c 0,51.879 -35.629,94.379 -80.629,94.379 -39.063,0 -71.4105,-32.191 -71.4105,-70.16 0,-38.129 25.3205,-65.781 62.1915,-65.781 11.558,0 19.687,3.441 35.777,16.25 C 179.77,96.3789 160.078,66.3789 111.801,35.2813 L 124.449,9.96875 z"
         inkscape:connector-curvature="0"
         id="path14"
         style="fill:#000000;fill-opacity:1;fill-rule:nonzero;stroke:none" /></g></g></svg>