<?xml version="1.0" encoding="UTF-8" standalone="no"?>
<!-- Created with Inkscape (http://www.inkscape.org/) -->

<svg
   xmlns:dc="http://purl.org/dc/elements/1.1/"
   xmlns:cc="http://creativecommons.org/ns#"
   xmlns:rdf="http://www.w3.org/1999/02/22-rdf-syntax-ns#"
   xmlns:svg="http://www.w3.org/2000/svg"
   xmlns="http://www.w3.org/2000/svg"
   xmlns:inkscape="http://www.inkscape.org/namespaces/inkscape"
   version="1.1"
   width="65"
   height="101.25"
   id="svg2"
   xml:space="preserve"><metadata
     id="metadata8"><rdf:RDF><cc:Work
         rdf:about=""><dc:format>image/svg+xml</dc:format><dc:type
           rdf:resource="http://purl.org/dc/dcmitype/StillImage" /></cc:Work></rdf:RDF></metadata><defs
     id="defs6" /><g
     transform="matrix(1.25,0,0,-1.25,0,101.25)"
     id="g10"><g
       transform="scale(0.1,0.1)"
       id="g12"><path
         d="m 436.559,574.43 -32.18,0 -11.57,-41.41 c -49.528,39.218 -100.149,56.41 -164.688,56.41 -117.5,0 -210.7812,-73.75 -210.7812,-168.121 0,-72.661 49.5391,-115.161 171.5702,-146.411 l 147.5,-36.878 c 57.5,-14.84 84.059,-39.059 84.059,-75.93 0,-60 -64.528,-105.9416 -148.59,-105.9416 -71.41,0 -141.719,31.0899 -184.379,82.8126 -20.6211,24.219 -32.1914,47.348 -48.2812,91.098 L 0,230.059 39.2188,24.8984 l 37.9726,0 12.6484,48.4414 C 152.031,26.1484 200.469,10.0586 275.309,10.0586 413.59,10.0586 515,89.4297 515,196.621 c 0,78.277 -46.09,124.367 -146.41,148.59 L 208.441,384.43 c -27.66,6.879 -41.41,11.558 -54.062,17.191 -21.879,11.559 -35.789,32.34 -35.789,55.309 0,49.531 48.441,86.41 116.41,86.41 87.5,0 163.59,-55.32 201.559,-146.25 l 36.882,0 -36.882,177.34 z m -248.75,95.629 160.16,33.429 c 49.531,10.473 71.41,27.66 71.41,57.66 0,24.223 -17.348,42.661 -40.32,42.661 -23.118,0 -54.219,-13.911 -87.649,-39.219 l -109.379,-78.281 5.778,-16.25 z"
         inkscape:connector-curvature="0"
         id="path14"
         style="fill:#000000;fill-opacity:1;fill-rule:nonzero;stroke:none" /></g></g></svg>