<?xml version="1.0" encoding="UTF-8" standalone="no"?>
<!-- Created with Inkscape (http://www.inkscape.org/) -->

<svg
   xmlns:dc="http://purl.org/dc/elements/1.1/"
   xmlns:cc="http://creativecommons.org/ns#"
   xmlns:rdf="http://www.w3.org/1999/02/22-rdf-syntax-ns#"
   xmlns:svg="http://www.w3.org/2000/svg"
   xmlns="http://www.w3.org/2000/svg"
   xmlns:inkscape="http://www.inkscape.org/namespaces/inkscape"
   version="1.1"
   width="87.5"
   height="133.75"
   id="svg2"
   xml:space="preserve"><metadata
     id="metadata8"><rdf:RDF><cc:Work
         rdf:about=""><dc:format>image/svg+xml</dc:format><dc:type
           rdf:resource="http://purl.org/dc/dcmitype/StillImage" /></cc:Work></rdf:RDF></metadata><defs
     id="defs6" /><g
     transform="matrix(1.25,0,0,-1.25,0,133.75)"
     id="g10"><g
       transform="scale(0.1,0.1)"
       id="g12"><path
         d="m 348.98,1060.58 -163.589,-107.029 15,-28.903 148.589,51.872 147.5,-51.872 16.098,28.903 -163.598,107.029 z m 223.598,-251.092 -41.558,0 -13.75,-41.41 c -64.54,39.07 -130.161,56.41 -217.821,56.41 -75.929,0 -137.027,-18.437 -184.219,-55.308 -49.5308,-39.219 -79.5308,-95.629 -79.5308,-150.942 0,-44.84 20.7813,-93.277 50.6289,-124.367 35.7809,-35.793 96.8709,-63.441 186.7229,-86.41 l 154.371,-39.223 c 114.058,-27.66 153.129,-62.187 153.129,-131.25 0,-97.968 -89.852,-171.7185 -208.442,-171.7185 -132.5,0 -248.91,82.9685 -329.5309,237.3515 L -0.078125,288.711 74.9219,24.9609 l 42.5001,0 22.027,57.6602 c 70.16,-49.543 146.25,-72.66016 238.442,-72.66016 179.687,0 320.16,109.52706 320.16,247.66006 0,41.559 -10.321,85.309 -27.5,111.867 -34.692,55.16 -92.192,86.41 -216.723,116.25 L 309.922,520.27 c -111.723,27.66 -156.723,63.441 -156.723,125.628 0,69.063 73.75,123.282 169.379,123.282 110.621,0 202.813,-58.75 283.442,-182.032 l 36.871,13.903 -70.313,208.437 z"
         inkscape:connector-curvature="0"
         id="path14"
         style="fill:#000000;fill-opacity:1;fill-rule:nonzero;stroke:none" /></g></g></svg>