<?xml version="1.0" encoding="UTF-8" standalone="no"?>
<!-- Created with Inkscape (http://www.inkscape.org/) -->

<svg
   xmlns:dc="http://purl.org/dc/elements/1.1/"
   xmlns:cc="http://creativecommons.org/ns#"
   xmlns:rdf="http://www.w3.org/1999/02/22-rdf-syntax-ns#"
   xmlns:svg="http://www.w3.org/2000/svg"
   xmlns="http://www.w3.org/2000/svg"
   xmlns:inkscape="http://www.inkscape.org/namespaces/inkscape"
   version="1.1"
   width="71.25"
   height="103.75"
   id="svg2"
   xml:space="preserve"><metadata
     id="metadata8"><rdf:RDF><cc:Work
         rdf:about=""><dc:format>image/svg+xml</dc:format><dc:type
           rdf:resource="http://purl.org/dc/dcmitype/StillImage" /></cc:Work></rdf:RDF></metadata><defs
     id="defs6" /><g
     transform="matrix(1.25,0,0,-1.25,0,103.75)"
     id="g10"><g
       transform="scale(0.1,0.1)"
       id="g12"><path
         d="M 278.789,589.422 C 198.16,589.422 126.762,561.77 80.6602,514.578 32.2305,463.961 0.0390625,378.641 0.0390625,298.02 0.0390625,124.109 111.762,10.0508 283.48,10.0508 c 167.032,0 279.84,115.1602 279.84,285.6212 0,74.848 -26.41,150.937 -69.058,203.906 -48.442,57.66 -125.633,89.844 -215.473,89.844 z m 1.09,-46.094 c 103.75,0 165.941,-95.617 165.941,-253.437 0,-146.25 -59.84,-233.7504 -161.25,-233.7504 -105.941,0 -167.031,88.5974 -167.031,244.2184 0,147.352 64.531,242.969 162.34,242.969 z m -122.027,97.973 88.75,93.277 c 13.75,15 22.968,38.133 22.968,58.75 0,20.781 -11.558,33.442 -28.75,33.442 -25.308,0 -41.558,-18.442 -61.09,-69.059 l -40.32,-103.75 18.442,-12.66 z m 149.687,0 87.66,93.277 c 15,16.094 24.211,38.133 24.211,57.66 0,21.871 -10.461,34.532 -28.898,34.532 -25.313,0 -42.66,-19.532 -61.102,-69.059 l -40.308,-103.75 18.437,-12.66 z"
         inkscape:connector-curvature="0"
         id="path14"
         style="fill:#000000;fill-opacity:1;fill-rule:nonzero;stroke:none" /></g></g></svg>