<?xml version="1.0" encoding="UTF-8" standalone="no"?>
<!-- Created with Inkscape (http://www.inkscape.org/) -->

<svg
   xmlns:dc="http://purl.org/dc/elements/1.1/"
   xmlns:cc="http://creativecommons.org/ns#"
   xmlns:rdf="http://www.w3.org/1999/02/22-rdf-syntax-ns#"
   xmlns:svg="http://www.w3.org/2000/svg"
   xmlns="http://www.w3.org/2000/svg"
   xmlns:inkscape="http://www.inkscape.org/namespaces/inkscape"
   version="1.1"
   width="105"
   height="138.75"
   id="svg2"
   xml:space="preserve"><metadata
     id="metadata8"><rdf:RDF><cc:Work
         rdf:about=""><dc:format>image/svg+xml</dc:format><dc:type
           rdf:resource="http://purl.org/dc/dcmitype/StillImage" /></cc:Work></rdf:RDF></metadata><defs
     id="defs6" /><g
     transform="matrix(1.25,0,0,-1.25,0,138.75)"
     id="g10"><g
       transform="scale(0.1,0.1)"
       id="g12"><path
         d="m 521.949,699.969 c 71.41,10.472 103.602,23.121 141.571,54.222 46.089,36.868 71.558,90.93 71.558,150.93 0,123.279 -100.308,198.129 -266.25,198.129 l -468.749875,0 0,-35.78 28.749975,-3.44 c 59.8438,-7.97 74.8439,-32.19 74.8439,-126.721 l 0,-452.661 c 0,-94.527 -15.0001,-118.75 -74.8439,-126.707 L 0.078125,354.5 l 0,-35.781 335.151875,0 0,35.781 -41.402,3.441 c -58.75,5.778 -75,33.278 -75,126.707 l 0,203.911 165.942,0 259.21,-369.84 192.348,0 0,35.781 c -56.406,10.309 -87.5,28.75 -123.277,74.84 L 521.949,699.969 z m -303.121,38.121 0,250 c 0,25.31 9.223,40.31 30,49.53 23.121,10.32 81.871,18.44 140.621,18.44 147.352,0 221.102,-51.87 221.102,-155.619 0,-50.632 -21.879,-96.722 -59.852,-126.722 -32.34,-25.321 -73.75,-35.629 -138.277,-35.629 l -193.594,0 z M 342.109,9.96875 C 413.52,43.3984 455.078,101.059 455.078,166.691 c 0,51.868 -35.777,94.368 -80.629,94.368 -39.219,0 -71.398,-32.188 -71.398,-70.161 0,-38.117 25.308,-65.777 62.179,-65.777 11.571,0 19.54,3.438 35.629,16.25 -3.437,-44.9999 -22.968,-74.9999 -71.41,-106.0897 l 12.66,-25.31255 z"
         inkscape:connector-curvature="0"
         id="path14"
         style="fill:#000000;fill-opacity:1;fill-rule:nonzero;stroke:none" /></g></g></svg>