<?xml version="1.0" encoding="UTF-8" standalone="no"?>
<!-- Created with Inkscape (http://www.inkscape.org/) -->

<svg
   xmlns:dc="http://purl.org/dc/elements/1.1/"
   xmlns:cc="http://creativecommons.org/ns#"
   xmlns:rdf="http://www.w3.org/1999/02/22-rdf-syntax-ns#"
   xmlns:svg="http://www.w3.org/2000/svg"
   xmlns="http://www.w3.org/2000/svg"
   xmlns:inkscape="http://www.inkscape.org/namespaces/inkscape"
   version="1.1"
   width="105"
   height="127.5"
   id="svg2"
   xml:space="preserve"><metadata
     id="metadata8"><rdf:RDF><cc:Work
         rdf:about=""><dc:format>image/svg+xml</dc:format><dc:type
           rdf:resource="http://purl.org/dc/dcmitype/StillImage" /></cc:Work></rdf:RDF></metadata><defs
     id="defs6" /><g
     transform="matrix(1.25,0,0,-1.25,0,127.5)"
     id="g10"><g
       transform="scale(0.1,0.1)"
       id="g12"><path
         d="m 521.949,391.238 c 71.41,10.473 103.602,23.133 141.571,54.223 46.089,36.879 71.558,90.937 71.558,150.937 0,123.282 -100.308,198.133 -266.25,198.133 l -468.749875,0 0,-35.793 28.749975,-3.429 C 88.6719,747.34 103.672,723.121 103.672,628.59 l 0,-452.66 C 103.672,81.3984 88.6719,57.1797 28.8281,49.2109 l -28.749975,-3.4296 0,-35.79302 335.151875,0 0,35.79302 -41.402,3.4296 c -58.75,5.7774 -75,33.2774 -75,126.7191 l 0,203.91 165.942,0 259.21,-369.85172 192.348,0 0,35.79302 c -56.406,10.3085 -87.5,28.75 -123.277,74.8397 L 521.949,391.238 z m -303.121,38.133 0,250 c 0,25.309 9.223,40.309 30,49.527 23.121,10.313 81.871,18.442 140.621,18.442 147.352,0 221.102,-51.879 221.102,-155.629 0,-50.621 -21.879,-96.723 -59.852,-126.723 -32.34,-25.308 -73.75,-35.617 -138.277,-35.617 l -193.594,0 z m 160.152,445.777 163.598,107.192 -16.098,28.75 -147.5,-52.969 -148.589,52.969 -15,-28.75 163.589,-107.192 z"
         inkscape:connector-curvature="0"
         id="path14"
         style="fill:#000000;fill-opacity:1;fill-rule:nonzero;stroke:none" /></g></g></svg>