<?xml version="1.0" encoding="UTF-8" standalone="no"?>
<!-- Created with Inkscape (http://www.inkscape.org/) -->

<svg
   xmlns:dc="http://purl.org/dc/elements/1.1/"
   xmlns:cc="http://creativecommons.org/ns#"
   xmlns:rdf="http://www.w3.org/1999/02/22-rdf-syntax-ns#"
   xmlns:svg="http://www.w3.org/2000/svg"
   xmlns="http://www.w3.org/2000/svg"
   xmlns:inkscape="http://www.inkscape.org/namespaces/inkscape"
   version="1.1"
   width="121.25"
   height="73.75"
   id="svg2"
   xml:space="preserve"><metadata
     id="metadata8"><rdf:RDF><cc:Work
         rdf:about=""><dc:format>image/svg+xml</dc:format><dc:type
           rdf:resource="http://purl.org/dc/dcmitype/StillImage" /></cc:Work></rdf:RDF></metadata><defs
     id="defs6" /><g
     transform="matrix(1.25,0,0,-1.25,0,73.75)"
     id="g10"><g
       transform="scale(0.1,0.1)"
       id="g12"><path
         d="M 928.48,168.949 C 882.539,92.8516 823.629,56.1406 747.699,56.1406 c -76.097,0 -141.719,43.75 -169.379,112.8084 -13.75,36.871 -19.531,70.313 -19.531,126.723 0,26.558 1.09,37.969 3.441,62.18 l 404.372,0 c 0,132.5 -104.84,231.57 -245.473,231.57 -87.5,0 -163.59,-35.633 -217.649,-103.602 C 447.07,552.539 367.539,589.422 279.879,589.422 114.102,589.422 0.0390625,469.57 0.0390625,295.672 0.0390625,128.641 114.102,10.0391 275.352,10.0391 367.539,10.0391 447.07,48.0117 503.48,118.32 562.23,45.6719 633.629,10.0391 720.039,10.0391 c 109.371,0 203.91,54.0625 246.563,140.4729 l -38.122,18.437 z m -643.91,383.59 c 104.84,0 160.16,-81.719 160.16,-236.09 0,-61.097 -10.468,-119.847 -27.66,-167.027 -24.218,-60.0001 -71.41,-93.2814 -135.941,-93.2814 -108.277,0 -163.59,82.8084 -163.59,242.9614 0,162.5 59.84,253.437 167.031,253.437 z m 280,-156.559 c 18.442,99.059 67.969,147.34 148.59,147.34 85.16,0 138.129,-55.308 138.129,-147.34 l -286.719,0 z"
         inkscape:connector-curvature="0"
         id="path14"
         style="fill:#000000;fill-opacity:1;fill-rule:nonzero;stroke:none" /></g></g></svg>