<?xml version="1.0" encoding="UTF-8" standalone="no"?>
<!-- Created with Inkscape (http://www.inkscape.org/) -->

<svg
   xmlns:dc="http://purl.org/dc/elements/1.1/"
   xmlns:cc="http://creativecommons.org/ns#"
   xmlns:rdf="http://www.w3.org/1999/02/22-rdf-syntax-ns#"
   xmlns:svg="http://www.w3.org/2000/svg"
   xmlns="http://www.w3.org/2000/svg"
   xmlns:inkscape="http://www.inkscape.org/namespaces/inkscape"
   version="1.1"
   width="168.75"
   height="103.75"
   id="svg2"
   xml:space="preserve"><metadata
     id="metadata8"><rdf:RDF><cc:Work
         rdf:about=""><dc:format>image/svg+xml</dc:format><dc:type
           rdf:resource="http://purl.org/dc/dcmitype/StillImage" /></cc:Work></rdf:RDF></metadata><defs
     id="defs6" /><g
     transform="matrix(1.25,0,0,-1.25,0,103.75)"
     id="g10"><g
       transform="scale(0.1,0.1)"
       id="g12"><path
         d="m 678.52,809.5 0,-89.84 C 600.23,787.629 504.609,824.5 403.199,824.5 175.078,824.5 -0.078125,648.25 -0.078125,417.781 -0.078125,187.469 173.98,9.96875 400.859,9.96875 c 106.09,0 201.563,39.22265 277.661,114.06225 l 0,-99.0622 569.06,0 100.31,251.1012 -39.22,17.34 C 1251.02,217.32 1216.48,180.441 1177.42,150.602 1111.64,102.16 1025.23,74.5 931.949,74.5 883.672,74.5 837.578,81.3789 819.141,90.6016 790.23,105.602 784.449,122.941 784.449,189.66 l 0,244.219 54.223,0 c 59.848,0 97.969,-7.969 119.848,-24.059 26.402,-20.789 46.09,-70.32 46.09,-115.32 l 0,-17.18 43.75,0 0,353.59 -43.75,0 0,-19.531 C 1004.61,573.41 988.359,529.5 968.828,511.07 946.949,492.629 907.73,483.41 839.77,483.41 l -55.321,0 0,134.84 c 0,86.41 3.602,104.852 25.473,122.191 17.187,13.75 52.969,19.528 112.808,19.528 87.66,0 169.38,-19.528 229.22,-55.309 39.22,-22.969 65.78,-48.441 114.07,-109.379 l 38.12,14.848 -89.84,199.371 -535.78,0 z M 402.109,769.191 c 161.25,0 271.871,-141.722 271.871,-347.972 C 673.98,207 565.699,65.2813 403.199,65.2813 c -161.25,0 -267.34,142.8207 -267.34,361.7187 0,206.25 106.09,342.191 266.25,342.191 z"
         inkscape:connector-curvature="0"
         id="path14"
         style="fill:#000000;fill-opacity:1;fill-rule:nonzero;stroke:none" /></g></g></svg>