<?xml version="1.0" encoding="UTF-8" standalone="no"?>
<!-- Created with Inkscape (http://www.inkscape.org/) -->

<svg
   xmlns:dc="http://purl.org/dc/elements/1.1/"
   xmlns:cc="http://creativecommons.org/ns#"
   xmlns:rdf="http://www.w3.org/1999/02/22-rdf-syntax-ns#"
   xmlns:svg="http://www.w3.org/2000/svg"
   xmlns="http://www.w3.org/2000/svg"
   xmlns:inkscape="http://www.inkscape.org/namespaces/inkscape"
   version="1.1"
   width="65"
   height="105"
   id="svg2"
   xml:space="preserve"><metadata
     id="metadata8"><rdf:RDF><cc:Work
         rdf:about=""><dc:format>image/svg+xml</dc:format><dc:type
           rdf:resource="http://purl.org/dc/dcmitype/StillImage" /></cc:Work></rdf:RDF></metadata><defs
     id="defs6" /><g
     transform="matrix(1.25,0,0,-1.25,0,105)"
     id="g10"><g
       transform="scale(0.1,0.1)"
       id="g12"><path
         d="M 257.969,830.219 94.5313,723.191 l 14.8477,-28.902 148.59,51.871 147.5,-51.871 16.09,28.902 -163.59,107.028 z m 178.59,-255.778 -32.18,0 -11.57,-41.402 c -49.528,39.223 -100.149,56.402 -164.688,56.402 -117.5,0 -210.7812,-73.75 -210.7812,-168.121 0,-72.66 49.5391,-115.16 171.5702,-146.41 l 147.5,-36.871 c 57.5,-14.848 84.059,-39.07 84.059,-75.937 0,-60 -64.528,-105.9418 -148.59,-105.9418 -71.41,0 -141.719,31.1015 -184.379,82.8088 C 66.8789,163.191 55.3086,186.32 39.2188,230.07 L 0,230.07 39.2188,24.9102 l 37.9726,0 12.6484,48.4414 C 152.031,26.1602 200.469,10.0703 275.309,10.0703 413.59,10.0703 515,89.4414 515,196.629 c 0,78.281 -46.09,124.383 -146.41,148.59 l -160.149,39.222 c -27.66,6.879 -41.41,11.571 -54.062,17.188 -21.879,11.562 -35.789,32.34 -35.789,55.312 0,49.528 48.441,86.411 116.41,86.411 87.5,0 163.59,-55.313 201.559,-146.25 l 36.882,0 -36.882,177.339 z"
         inkscape:connector-curvature="0"
         id="path14"
         style="fill:#000000;fill-opacity:1;fill-rule:nonzero;stroke:none" /></g></g></svg>