<?xml version="1.0" encoding="UTF-8" standalone="no"?>
<!-- Created with Inkscape (http://www.inkscape.org/) -->

<svg
   xmlns:dc="http://purl.org/dc/elements/1.1/"
   xmlns:cc="http://creativecommons.org/ns#"
   xmlns:rdf="http://www.w3.org/1999/02/22-rdf-syntax-ns#"
   xmlns:svg="http://www.w3.org/2000/svg"
   xmlns="http://www.w3.org/2000/svg"
   xmlns:inkscape="http://www.inkscape.org/namespaces/inkscape"
   version="1.1"
   width="100"
   height="138.75"
   id="svg2"
   xml:space="preserve"><metadata
     id="metadata8"><rdf:RDF><cc:Work
         rdf:about=""><dc:format>image/svg+xml</dc:format><dc:type
           rdf:resource="http://purl.org/dc/dcmitype/StillImage" /></cc:Work></rdf:RDF></metadata><defs
     id="defs6" /><g
     transform="matrix(1.25,0,0,-1.25,0,138.75)"
     id="g10"><g
       transform="scale(0.1,0.1)"
       id="g12"><path
         d="m 733.871,1103.25 -668.2812,0 L -0.0390625,900.441 38.0898,886.691 C 106.051,1006.53 185.43,1059.5 291.52,1059.5 c 37.968,0 50.628,-11.56 50.628,-46.1 l 0,-528.752 c 0,-93.429 -17.347,-122.179 -74.847,-126.707 l -45,-3.441 0,-35.781 354.847,0 0,35.781 -44.847,3.441 c -57.653,4.528 -75,33.278 -75,126.707 l 0,524.072 c 0,40.31 9.219,50.78 47.347,50.78 101.25,0 188.903,-60 253.442,-172.809 l 40.308,13.75 -64.527,202.809 z M 362.93,9.96875 C 434.34,43.3984 475.738,101.059 475.738,166.691 c 0,51.868 -35.617,94.368 -80.617,94.368 -39.223,0 -71.41,-32.188 -71.41,-70.161 0,-38.117 25.309,-65.777 62.187,-65.777 11.563,0 19.532,3.438 35.782,16.25 C 418.238,96.3711 398.551,66.3711 350.27,35.2813 L 362.93,9.96875 z"
         inkscape:connector-curvature="0"
         id="path14"
         style="fill:#000000;fill-opacity:1;fill-rule:nonzero;stroke:none" /></g></g></svg>