<?xml version="1.0" encoding="UTF-8" standalone="no"?>
<!-- Created with Inkscape (http://www.inkscape.org/) -->

<svg
   xmlns:dc="http://purl.org/dc/elements/1.1/"
   xmlns:cc="http://creativecommons.org/ns#"
   xmlns:rdf="http://www.w3.org/1999/02/22-rdf-syntax-ns#"
   xmlns:svg="http://www.w3.org/2000/svg"
   xmlns="http://www.w3.org/2000/svg"
   xmlns:inkscape="http://www.inkscape.org/namespaces/inkscape"
   version="1.1"
   width="105"
   height="133.75"
   id="svg2"
   xml:space="preserve"><metadata
     id="metadata8"><rdf:RDF><cc:Work
         rdf:about=""><dc:format>image/svg+xml</dc:format><dc:type
           rdf:resource="http://purl.org/dc/dcmitype/StillImage" /></cc:Work></rdf:RDF></metadata><defs
     id="defs6" /><g
     transform="matrix(1.25,0,0,-1.25,0,133.75)"
     id="g10"><g
       transform="scale(0.1,0.1)"
       id="g12"><path
         d="m 230.43,1041.07 c 34.531,-73.75 102.5,-116.398 187.808,-116.398 79.383,0 154.383,46.09 190,116.398 l -26.398,20.78 c -39.219,-35.78 -103.75,-60 -161.41,-60 -59.84,0 -115.16,20.79 -163.442,60 l -26.558,-20.78 z m 505.781,-397.5 c 0,94.532 15,118.75 74.84,126.719 l 28.75,3.441 0,35.782 -282.18,0 0,-35.782 37.969,-3.441 c 58.75,-5.777 74.84,-33.277 74.84,-126.719 l 0,-305.308 c 0,-124.371 -9.219,-169.223 -42.5,-208.442 C 592.148,88.4219 525.27,65.2891 440.121,65.2891 c -94.531,0 -163.601,30 -193.601,85.3129 -20.782,36.878 -27.649,80.628 -27.649,185.468 l 0,307.5 c 0,93.442 17.34,122.192 74.84,126.719 l 42.66,3.441 0,35.782 -336.4100625,0 0,-35.782 L 28.8711,770.289 C 88.7109,762.32 103.711,738.102 103.711,643.57 l 0,-385.929 c 0,-96.719 26.41,-148.602 101.41,-195.7894 57.5,-36.8711 122.027,-51.87113 217.649,-51.87113 131.41,0 210.781,26.55863 265,87.50003 34.531,39.2185 48.441,85.3085 48.441,162.4995 l 0,383.59 z"
         inkscape:connector-curvature="0"
         id="path14"
         style="fill:#000000;fill-opacity:1;fill-rule:nonzero;stroke:none" /></g></g></svg>