<?xml version="1.0" encoding="UTF-8" standalone="no"?>
<!-- Created with Inkscape (http://www.inkscape.org/) -->

<svg
   xmlns:dc="http://purl.org/dc/elements/1.1/"
   xmlns:cc="http://creativecommons.org/ns#"
   xmlns:rdf="http://www.w3.org/1999/02/22-rdf-syntax-ns#"
   xmlns:svg="http://www.w3.org/2000/svg"
   xmlns="http://www.w3.org/2000/svg"
   xmlns:inkscape="http://www.inkscape.org/namespaces/inkscape"
   version="1.1"
   width="100"
   height="127.5"
   id="svg2"
   xml:space="preserve"><metadata
     id="metadata8"><rdf:RDF><cc:Work
         rdf:about=""><dc:format>image/svg+xml</dc:format><dc:type
           rdf:resource="http://purl.org/dc/dcmitype/StillImage" /></cc:Work></rdf:RDF></metadata><defs
     id="defs6" /><g
     transform="matrix(1.25,0,0,-1.25,0,127.5)"
     id="g10"><g
       transform="scale(0.1,0.1)"
       id="g12"><path
         d="m 733.871,794.531 -668.2812,0 L -0.0390625,591.711 38.0898,577.961 c 67.9612,119.848 147.3402,172.82 253.4302,172.82 37.968,0 50.628,-11.57 50.628,-46.101 l 0,-528.75 c 0,-93.4417 -17.347,-122.1917 -74.847,-126.7191 l -45,-3.4296 0,-35.79302 354.847,0 0,35.79302 -44.847,3.4296 c -57.653,4.5274 -75,33.2774 -75,126.7191 l 0,524.058 c 0,40.321 9.219,50.793 47.347,50.793 101.25,0 188.903,-60 253.442,-172.82 l 40.308,13.75 -64.527,202.82 z m -334.07,80.617 163.597,107.192 -16.25,28.75 -147.347,-52.969 -148.59,52.969 -15,-28.75 163.59,-107.192 z"
         inkscape:connector-curvature="0"
         id="path14"
         style="fill:#000000;fill-opacity:1;fill-rule:nonzero;stroke:none" /></g></g></svg>