<?xml version="1.0" encoding="UTF-8" standalone="no"?>
<!-- Created with Inkscape (http://www.inkscape.org/) -->

<svg
   xmlns:dc="http://purl.org/dc/elements/1.1/"
   xmlns:cc="http://creativecommons.org/ns#"
   xmlns:rdf="http://www.w3.org/1999/02/22-rdf-syntax-ns#"
   xmlns:svg="http://www.w3.org/2000/svg"
   xmlns="http://www.w3.org/2000/svg"
   xmlns:inkscape="http://www.inkscape.org/namespaces/inkscape"
   version="1.1"
   width="105"
   height="136.25"
   id="svg2"
   xml:space="preserve"><metadata
     id="metadata8"><rdf:RDF><cc:Work
         rdf:about=""><dc:format>image/svg+xml</dc:format><dc:type
           rdf:resource="http://purl.org/dc/dcmitype/StillImage" /></cc:Work></rdf:RDF></metadata><defs
     id="defs6" /><g
     transform="matrix(1.25,0,0,-1.25,0,136.25)"
     id="g10"><g
       transform="scale(0.1,0.1)"
       id="g12"><path
         d="m 736.211,643.59 c 0,94.531 15,118.75 74.84,126.711 l 28.75,3.437 0,35.782 -282.18,0 0,-35.782 37.969,-3.437 c 58.75,-5.781 74.84,-33.281 74.84,-126.711 l 0,-305.32 c 0,-124.372 -9.219,-169.219 -42.5,-208.43 C 592.148,88.4297 525.27,65.3008 440.121,65.3008 c -94.531,0 -163.601,30 -193.601,85.3202 -20.782,36.867 -27.649,80.617 -27.649,185.469 l 0,307.5 c 0,93.43 17.34,122.18 74.84,126.711 l 42.66,3.437 0,35.782 -336.4100625,0 0,-35.782 L 28.8711,770.301 C 88.7109,762.34 103.711,738.121 103.711,643.59 l 0,-385.942 c 0,-96.718 26.41,-148.597 101.41,-195.7769 57.5,-36.8828 122.027,-51.88282 217.649,-51.88282 131.41,0 210.781,26.56252 265,87.50002 34.531,39.2227 48.441,85.3127 48.441,162.4997 l 0,383.602 z m -314.531,442.5 c -58.75,0 -107.192,-47.35 -107.192,-106.102 0,-58.75 47.192,-107.027 105.942,-107.027 58.75,0 106.09,48.277 106.09,107.027 0,57.662 -47.34,106.102 -104.84,106.102 z m 0,-42.66 c 33.441,0 62.191,-30 62.191,-63.442 0,-35.617 -28.75,-64.527 -63.441,-64.527 -35.629,0 -63.282,28.91 -63.282,64.527 0,35.782 28.75,63.442 64.532,63.442 z"
         inkscape:connector-curvature="0"
         id="path14"
         style="fill:#000000;fill-opacity:1;fill-rule:nonzero;stroke:none" /></g></g></svg>