<?xml version="1.0" encoding="UTF-8" standalone="no"?>
<!-- Created with Inkscape (http://www.inkscape.org/) -->

<svg
   xmlns:dc="http://purl.org/dc/elements/1.1/"
   xmlns:cc="http://creativecommons.org/ns#"
   xmlns:rdf="http://www.w3.org/1999/02/22-rdf-syntax-ns#"
   xmlns:svg="http://www.w3.org/2000/svg"
   xmlns="http://www.w3.org/2000/svg"
   xmlns:inkscape="http://www.inkscape.org/namespaces/inkscape"
   version="1.1"
   width="53.75"
   height="106.25"
   id="svg2"
   xml:space="preserve"><metadata
     id="metadata8"><rdf:RDF><cc:Work
         rdf:about=""><dc:format>image/svg+xml</dc:format><dc:type
           rdf:resource="http://purl.org/dc/dcmitype/StillImage" /></cc:Work></rdf:RDF></metadata><defs
     id="defs6" /><g
     transform="matrix(1.25,0,0,-1.25,0,106.25)"
     id="g10"><g
       transform="scale(0.1,0.1)"
       id="g12"><path
         d="m 371.02,579.109 -164.848,0 0,209.68 -43.75,0 C 163.52,647.07 112.891,583.641 -0.078125,579.109 l 0,-37.968 96.878925,0 0,-385.942 c 0,-56.5584 16.0902,-92.1873 52.9692,-115.3084 30,-18.4414 71.402,-29.8515 111.71,-29.8515 67.969,0 120.942,26.4101 162.5,80.6328 L 392.891,115.98 C 353.672,70.9805 327.109,56.1406 292.578,56.1406 c -58.75,0 -86.406,47.1794 -86.406,152.0314 l 0,332.969 164.848,0 0,37.968 z m -88.75,17.34 c 71.402,33.281 112.808,90.942 112.808,156.563 0,51.879 -35.629,94.527 -80.629,94.527 -39.058,0 -71.398,-32.34 -71.398,-70.309 0,-37.968 25.308,-65.621 62.179,-65.621 11.571,0 19.692,3.43 35.79,16.09 -3.442,-45 -23.129,-74.84 -71.411,-105.937 l 12.661,-25.313 z"
         inkscape:connector-curvature="0"
         id="path14"
         style="fill:#000000;fill-opacity:1;fill-rule:nonzero;stroke:none" /></g></g></svg>