<?xml version="1.0" encoding="UTF-8" standalone="no"?>
<!-- Created with Inkscape (http://www.inkscape.org/) -->

<svg
   xmlns:dc="http://purl.org/dc/elements/1.1/"
   xmlns:cc="http://creativecommons.org/ns#"
   xmlns:rdf="http://www.w3.org/1999/02/22-rdf-syntax-ns#"
   xmlns:svg="http://www.w3.org/2000/svg"
   xmlns="http://www.w3.org/2000/svg"
   xmlns:inkscape="http://www.inkscape.org/namespaces/inkscape"
   version="1.1"
   width="91.25"
   height="100"
   id="svg2"
   xml:space="preserve"><metadata
     id="metadata8"><rdf:RDF><cc:Work
         rdf:about=""><dc:format>image/svg+xml</dc:format><dc:type
           rdf:resource="http://purl.org/dc/dcmitype/StillImage" /></cc:Work></rdf:RDF></metadata><defs
     id="defs6" /><g
     transform="matrix(1.25,0,0,-1.25,0,100)"
     id="g10"><g
       transform="scale(0.1,0.1)"
       id="g12"><path
         d="m 508.051,787.539 c -12.66,-16.09 -32.192,-25.309 -55.321,-25.309 -15,0 -28.75,2.34 -56.402,10.469 -58.75,16.09 -82.969,20.621 -109.527,20.621 -44.852,0 -84.071,-31.09 -99.071,-78.281 l 33.442,-11.559 c 15,17.34 27.656,23.122 45,23.122 16.098,0 26.406,-2.34 62.187,-11.563 56.411,-16.09 81.719,-20.777 109.371,-20.777 55.321,0 86.411,25.308 103.75,82.968 l -33.429,10.309 z m 11.558,-767.1874 209.692,0 0,34.5273 -28.91,2.3516 C 649.77,63.0117 628.98,89.4102 628.98,152.852 l 0,426.25 -39.21,0 C 529.922,565.199 506.949,563.012 415.859,555.98 l 0,-34.531 27.661,-2.187 c 58.75,-4.692 76.089,-26.563 76.089,-95.633 l 0,-257.027 C 442.422,98.6289 374.449,65.3516 317.891,65.3516 c -72.5,0 -104.84,39.0584 -104.84,126.7184 l 0,387.032 -39.071,0 c -60,-13.903 -85.3081,-17.34 -174.058125,-23.122 l 0,-34.531 27.656225,-2.187 c 58.75,-4.692 76.0939,-26.563 76.0939,-95.633 l 0,-240.777 c 0,-57.653 10.308,-90.0004 36.879,-119.8403 31.09,-35.7812 74.84,-52.9726 134.84,-52.9726 82.808,0 146.25,27.6601 244.218,107.0309 l 0,-96.7184 z"
         inkscape:connector-curvature="0"
         id="path14"
         style="fill:#000000;fill-opacity:1;fill-rule:nonzero;stroke:none" /></g></g></svg>