<?xml version="1.0" encoding="UTF-8" standalone="no"?>
<!-- Created with Inkscape (http://www.inkscape.org/) -->

<svg
   xmlns:dc="http://purl.org/dc/elements/1.1/"
   xmlns:cc="http://creativecommons.org/ns#"
   xmlns:rdf="http://www.w3.org/1999/02/22-rdf-syntax-ns#"
   xmlns:svg="http://www.w3.org/2000/svg"
   xmlns="http://www.w3.org/2000/svg"
   xmlns:inkscape="http://www.inkscape.org/namespaces/inkscape"
   version="1.1"
   width="53.75"
   height="136.25"
   id="svg2"
   xml:space="preserve"><metadata
     id="metadata8"><rdf:RDF><cc:Work
         rdf:about=""><dc:format>image/svg+xml</dc:format><dc:type
           rdf:resource="http://purl.org/dc/dcmitype/StillImage" /></cc:Work></rdf:RDF></metadata><defs
     id="defs6" /><g
     transform="matrix(1.25,0,0,-1.25,0,136.25)"
     id="g10"><g
       transform="scale(0.1,0.1)"
       id="g12"><path
         d="m 371.02,877.469 -164.848,0 0,209.691 -43.75,0 C 163.52,945.441 112.891,882 -0.078125,877.469 l 0,-37.969 96.878925,0 0,-385.93 c 0,-56.57 16.0902,-92.191 52.9692,-115.32 30,-18.43 71.402,-29.84 111.71,-29.84 67.969,0 120.942,26.41 162.5,80.621 l -31.089,25.321 c -39.219,-45 -65.782,-59.852 -100.313,-59.852 -58.75,0 -86.406,47.191 -86.406,152.031 l 0,332.969 164.848,0 0,37.969 z M 158.98,9.96875 C 230.391,43.4102 271.801,101.07 271.801,166.691 c 0,51.879 -35.629,94.379 -80.629,94.379 -39.063,0 -71.402,-32.191 -71.402,-70.16 0,-38.129 25.308,-65.781 62.179,-65.781 11.571,0 19.692,3.441 35.781,16.25 C 214.301,96.3789 194.609,66.3789 146.328,35.2813 L 158.98,9.96875 z"
         inkscape:connector-curvature="0"
         id="path14"
         style="fill:#000000;fill-opacity:1;fill-rule:nonzero;stroke:none" /></g></g></svg>