<?xml version="1.0" encoding="UTF-8" standalone="no"?>
<!-- Created with Inkscape (http://www.inkscape.org/) -->

<svg
   xmlns:dc="http://purl.org/dc/elements/1.1/"
   xmlns:cc="http://creativecommons.org/ns#"
   xmlns:rdf="http://www.w3.org/1999/02/22-rdf-syntax-ns#"
   xmlns:svg="http://www.w3.org/2000/svg"
   xmlns="http://www.w3.org/2000/svg"
   xmlns:inkscape="http://www.inkscape.org/namespaces/inkscape"
   version="1.1"
   width="100"
   height="100"
   id="svg2"
   xml:space="preserve"><metadata
     id="metadata8"><rdf:RDF><cc:Work
         rdf:about=""><dc:format>image/svg+xml</dc:format><dc:type
           rdf:resource="http://purl.org/dc/dcmitype/StillImage" /></cc:Work></rdf:RDF></metadata><defs
     id="defs6" /><g
     transform="matrix(1.25,0,0,-1.25,0,100)"
     id="g10"><g
       transform="scale(0.1,0.1)"
       id="g12"><path
         d="m 342.148,481.23 -115.16,0 0,-57.66 115.16,0 0,-247.648 c 0,-93.4415 -17.347,-122.1915 -74.847,-126.7228 l -45,-3.4375 0,-35.78123 354.847,0 0,35.78123 -44.847,3.4375 c -57.653,4.5313 -75,33.2813 -75,126.7228 l 0,247.648 110.629,0 0,57.66 -110.629,0 0,218.75 c 0,40.309 9.219,50.782 47.347,50.782 101.25,0 188.903,-60 253.442,-172.813 l 40.308,13.75 -64.527,202.813 -668.2812,0 L -0.0390625,591.699 38.0898,577.949 C 106.051,697.789 185.43,750.762 291.52,750.762 c 37.968,0 50.628,-11.563 50.628,-46.09 l 0,-223.442 z"
         inkscape:connector-curvature="0"
         id="path14"
         style="fill:#000000;fill-opacity:1;fill-rule:nonzero;stroke:none" /></g></g></svg>