<?xml version="1.0" encoding="UTF-8" standalone="no"?>
<!-- Created with Inkscape (http://www.inkscape.org/) -->

<svg
   xmlns:dc="http://purl.org/dc/elements/1.1/"
   xmlns:cc="http://creativecommons.org/ns#"
   xmlns:rdf="http://www.w3.org/1999/02/22-rdf-syntax-ns#"
   xmlns:svg="http://www.w3.org/2000/svg"
   xmlns="http://www.w3.org/2000/svg"
   xmlns:inkscape="http://www.inkscape.org/namespaces/inkscape"
   version="1.1"
   width="91.25"
   height="108.75"
   id="svg2"
   xml:space="preserve"><metadata
     id="metadata8"><rdf:RDF><cc:Work
         rdf:about=""><dc:format>image/svg+xml</dc:format><dc:type
           rdf:resource="http://purl.org/dc/dcmitype/StillImage" /></cc:Work></rdf:RDF></metadata><defs
     id="defs6" /><g
     transform="matrix(1.25,0,0,-1.25,0,108.75)"
     id="g10"><g
       transform="scale(0.1,0.1)"
       id="g12"><path
         d="m 519.609,20.3516 209.692,0 0,34.5273 -28.91,2.3516 C 649.77,63.0117 628.98,89.4102 628.98,152.852 l 0,426.25 -39.21,0 C 529.922,565.191 506.949,563.012 415.859,555.98 l 0,-34.539 27.661,-2.179 c 58.75,-4.692 76.089,-26.571 76.089,-95.633 l 0,-257.027 C 442.422,98.6289 374.449,65.3516 317.891,65.3516 c -72.5,0 -104.84,39.0584 -104.84,126.7184 l 0,387.032 -39.071,0 c -60,-13.911 -85.3081,-17.34 -174.058125,-23.122 l 0,-34.539 27.656225,-2.179 c 58.75,-4.692 76.0939,-26.571 76.0939,-95.633 l 0,-240.777 c 0,-57.661 10.308,-90.0004 36.879,-119.8403 31.09,-35.7812 74.84,-52.9726 134.84,-52.9726 82.808,0 146.25,27.6523 244.218,107.0309 l 0,-96.7184 z M 369.77,863.629 c -58.75,0 -107.04,-47.188 -107.04,-105.938 0,-58.75 47.192,-107.179 105.942,-107.179 58.75,0 105.937,48.429 105.937,107.179 0,57.5 -47.187,105.938 -104.839,105.938 z m 0,-42.649 c 33.429,0 62.179,-29.851 62.179,-63.289 0,-35.781 -28.75,-64.531 -63.277,-64.531 -35.781,0 -63.442,28.75 -63.442,64.531 0,35.629 28.911,63.289 64.54,63.289 z"
         inkscape:connector-curvature="0"
         id="path14"
         style="fill:#000000;fill-opacity:1;fill-rule:nonzero;stroke:none" /></g></g></svg>