<?xml version="1.0" encoding="UTF-8" standalone="no"?>
<!-- Created with Inkscape (http://www.inkscape.org/) -->

<svg
   xmlns:dc="http://purl.org/dc/elements/1.1/"
   xmlns:cc="http://creativecommons.org/ns#"
   xmlns:rdf="http://www.w3.org/1999/02/22-rdf-syntax-ns#"
   xmlns:svg="http://www.w3.org/2000/svg"
   xmlns="http://www.w3.org/2000/svg"
   xmlns:inkscape="http://www.inkscape.org/namespaces/inkscape"
   version="1.1"
   width="53.75"
   height="98.75"
   id="svg2"
   xml:space="preserve"><metadata
     id="metadata8"><rdf:RDF><cc:Work
         rdf:about=""><dc:format>image/svg+xml</dc:format><dc:type
           rdf:resource="http://purl.org/dc/dcmitype/StillImage" /></cc:Work></rdf:RDF></metadata><defs
     id="defs6" /><g
     transform="matrix(1.25,0,0,-1.25,0,98.75)"
     id="g10"><g
       transform="scale(0.1,0.1)"
       id="g12"><path
         d="m 97.9688,390.199 -97.9688,0 0,-57.66 97.9688,0 0,-177.34 c 0,-56.5701 16.0902,-92.1873 52.9722,-115.3201 30,-18.4297 71.399,-29.8398 111.719,-29.8398 67.961,0 120.93,26.4101 162.5,80.6328 L 394.059,115.98 C 354.84,70.9805 328.281,56.1289 293.75,56.1289 235,56.1289 207.34,103.32 207.34,208.172 l 0,124.367 164.851,0 0,57.66 -164.851,0 0,150.93 164.851,0 0,37.973 -164.851,0 0,209.687 -43.75,0 C 164.691,647.07 114.059,583.629 1.08984,579.102 l 0,-37.973 96.87896,0 0,-150.93 z"
         inkscape:connector-curvature="0"
         id="path14"
         style="fill:#000000;fill-opacity:1;fill-rule:nonzero;stroke:none" /></g></g></svg>