<?xml version="1.0" encoding="UTF-8" standalone="no"?>
<!-- Created with Inkscape (http://www.inkscape.org/) -->

<svg
   xmlns:dc="http://purl.org/dc/elements/1.1/"
   xmlns:cc="http://creativecommons.org/ns#"
   xmlns:rdf="http://www.w3.org/1999/02/22-rdf-syntax-ns#"
   xmlns:svg="http://www.w3.org/2000/svg"
   xmlns="http://www.w3.org/2000/svg"
   xmlns:inkscape="http://www.inkscape.org/namespaces/inkscape"
   version="1.1"
   width="91.25"
   height="105"
   id="svg2"
   xml:space="preserve"><metadata
     id="metadata8"><rdf:RDF><cc:Work
         rdf:about=""><dc:format>image/svg+xml</dc:format><dc:type
           rdf:resource="http://purl.org/dc/dcmitype/StillImage" /></cc:Work></rdf:RDF></metadata><defs
     id="defs6" /><g
     transform="matrix(1.25,0,0,-1.25,0,105)"
     id="g10"><g
       transform="scale(0.1,0.1)"
       id="g12"><path
         d="m 175.078,810.672 c 34.531,-73.75 102.5,-116.402 187.813,-116.402 79.531,0 154.379,46.089 190.16,116.402 l -26.571,20.777 c -39.21,-35.777 -103.75,-60 -161.25,-60 -60,0 -115.308,20.789 -163.589,60 l -26.563,-20.777 z m 344.531,-790.3126 209.692,0 0,34.5312 -28.91,2.3477 C 649.77,63.0195 628.98,89.4219 628.98,152.859 l 0,426.25 -39.21,0 C 529.922,565.199 506.949,563.02 415.859,555.988 l 0,-34.539 27.661,-2.179 c 58.75,-4.692 76.089,-26.571 76.089,-95.629 l 0,-257.032 C 442.422,98.6406 374.449,65.3594 317.891,65.3594 c -72.5,0 -104.84,39.0626 -104.84,126.7186 l 0,387.031 -39.071,0 c -60,-13.91 -85.3081,-17.339 -174.058125,-23.121 l 0,-34.539 27.656225,-2.179 c 58.75,-4.692 76.0939,-26.571 76.0939,-95.629 l 0,-240.782 c 0,-57.66 10.308,-89.9996 36.879,-119.8395 31.09,-35.7812 74.84,-52.9687 134.84,-52.9687 82.808,0 146.25,27.6484 244.218,107.0272 l 0,-96.7186 z"
         inkscape:connector-curvature="0"
         id="path14"
         style="fill:#000000;fill-opacity:1;fill-rule:nonzero;stroke:none" /></g></g></svg>