<?xml version="1.0" encoding="UTF-8" standalone="no"?>
<!-- Created with Inkscape (http://www.inkscape.org/) -->

<svg
   xmlns:dc="http://purl.org/dc/elements/1.1/"
   xmlns:cc="http://creativecommons.org/ns#"
   xmlns:rdf="http://www.w3.org/1999/02/22-rdf-syntax-ns#"
   xmlns:svg="http://www.w3.org/2000/svg"
   xmlns="http://www.w3.org/2000/svg"
   xmlns:inkscape="http://www.inkscape.org/namespaces/inkscape"
   version="1.1"
   width="105"
   height="128.75"
   id="svg2"
   xml:space="preserve"><metadata
     id="metadata8"><rdf:RDF><cc:Work
         rdf:about=""><dc:format>image/svg+xml</dc:format><dc:type
           rdf:resource="http://purl.org/dc/dcmitype/StillImage" /></cc:Work></rdf:RDF></metadata><defs
     id="defs6" /><g
     transform="matrix(1.25,0,0,-1.25,0,128.75)"
     id="g10"><g
       transform="scale(0.1,0.1)"
       id="g12"><path
         d="m 563.398,1018.1 c -12.66,-16.25 -32.347,-25.471 -55.308,-25.471 -15,0 -28.91,2.34 -56.41,10.471 -58.75,16.09 -82.969,20.62 -109.532,20.62 -44.847,0 -84.058,-31.091 -99.058,-78.279 l 33.43,-11.562 c 15,17.34 27.66,23.121 44.851,23.121 16.25,0 26.559,-2.34 62.34,-11.559 56.41,-16.089 81.719,-20.781 109.379,-20.781 55.308,0 86.398,25.469 103.75,82.97 l -33.442,10.47 z M 736.211,643.559 c 0,94.543 15,118.75 74.84,126.722 l 28.75,3.438 0,35.781 -282.18,0 0,-35.781 37.969,-3.438 C 654.34,764.5 670.43,737 670.43,643.559 l 0,-305.309 c 0,-124.371 -9.219,-169.219 -42.5,-208.441 C 592.148,88.4102 525.27,65.2813 440.121,65.2813 c -94.531,0 -163.601,30 -193.601,85.3207 -20.782,36.867 -27.649,80.617 -27.649,185.457 l 0,307.5 c 0,93.441 17.34,122.191 74.84,126.722 l 42.66,3.438 0,35.781 -336.4100625,0 0,-35.781 28.9101625,-3.438 c 59.8398,-7.972 74.8399,-32.179 74.8399,-126.722 l 0,-385.93 c 0,-96.719 26.41,-148.598 101.41,-195.7774 57.5,-36.8828 122.027,-51.88285 217.649,-51.88285 131.41,0 210.781,26.56255 265,87.50005 34.531,39.2222 48.441,85.3122 48.441,162.5002 l 0,383.59 z"
         inkscape:connector-curvature="0"
         id="path14"
         style="fill:#000000;fill-opacity:1;fill-rule:nonzero;stroke:none" /></g></g></svg>