<?xml version="1.0" encoding="UTF-8" standalone="no"?>
<!-- Created with Inkscape (http://www.inkscape.org/) -->

<svg
   xmlns:dc="http://purl.org/dc/elements/1.1/"
   xmlns:cc="http://creativecommons.org/ns#"
   xmlns:rdf="http://www.w3.org/1999/02/22-rdf-syntax-ns#"
   xmlns:svg="http://www.w3.org/2000/svg"
   xmlns="http://www.w3.org/2000/svg"
   xmlns:inkscape="http://www.inkscape.org/namespaces/inkscape"
   version="1.1"
   width="101.25"
   height="131.25"
   id="svg2"
   xml:space="preserve"><metadata
     id="metadata8"><rdf:RDF><cc:Work
         rdf:about=""><dc:format>image/svg+xml</dc:format><dc:type
           rdf:resource="http://purl.org/dc/dcmitype/StillImage" /></cc:Work></rdf:RDF></metadata><defs
     id="defs6" /><g
     transform="matrix(1.25,0,0,-1.25,0,131.25)"
     id="g10"><g
       transform="scale(0.1,0.1)"
       id="g12"><path
         d="m 400.98,1045.61 -163.601,-107.032 14.851,-28.906 148.75,51.879 147.34,-51.879 16.25,28.906 -163.59,107.032 z m 42.5,-706.09 190.149,291.402 c 59.851,92.187 87.5,111.719 168.133,127.808 l 0,35.79 -286.723,0 0,-35.79 c 62.191,-10.308 84.063,-22.96 84.063,-50.621 0,-13.75 -6.872,-32.187 -18.442,-49.531 L 417.07,407.48 254.57,670.141 c -12.66,20.629 -17.191,31.089 -17.191,41.41 0,26.558 20.633,37.969 90.941,47.179 l 0,35.79 -328.2809375,0 0,-35.79 C 64.5703,743.891 85.1992,726.551 135.98,643.578 l 192.34,-306.406 0,-161.25 c 0,-93.4415 -17.191,-122.1915 -74.84,-126.7228 l -47.191,-3.4297 0,-35.78903 359.371,0 0,35.78903 -47.18,3.4297 c -57.66,4.5313 -75,33.2813 -75,126.7228 l 0,163.598 z"
         inkscape:connector-curvature="0"
         id="path14"
         style="fill:#000000;fill-opacity:1;fill-rule:nonzero;stroke:none" /></g></g></svg>