<?xml version="1.0" encoding="UTF-8" standalone="no"?>
<!-- Created with Inkscape (http://www.inkscape.org/) -->

<svg
   xmlns:dc="http://purl.org/dc/elements/1.1/"
   xmlns:cc="http://creativecommons.org/ns#"
   xmlns:rdf="http://www.w3.org/1999/02/22-rdf-syntax-ns#"
   xmlns:svg="http://www.w3.org/2000/svg"
   xmlns="http://www.w3.org/2000/svg"
   xmlns:inkscape="http://www.inkscape.org/namespaces/inkscape"
   version="1.1"
   width="68.75"
   height="100"
   id="svg2"
   xml:space="preserve"><metadata
     id="metadata8"><rdf:RDF><cc:Work
         rdf:about=""><dc:format>image/svg+xml</dc:format><dc:type
           rdf:resource="http://purl.org/dc/dcmitype/StillImage" /></cc:Work></rdf:RDF></metadata><defs
     id="defs6" /><g
     transform="matrix(1.25,0,0,-1.25,0,100)"
     id="g10"><g
       transform="scale(0.1,0.1)"
       id="g12"><path
         d="m 540.391,192.012 -32.34,11.558 C 434.301,87.1719 366.328,44.5117 250.078,44.5117 c -43.906,0 -66.879,3.4375 -109.527,16.0977 L 526.48,539.98 l -12.652,28.75 -430.9374,0 -64.3711,-169.371 35.6211,-12.66 c 27.6602,56.41 47.1874,80.621 79.5314,102.5 40.308,27.66 104.848,45 167.027,45 25.321,0 42.66,-2.34 77.192,-9.219 L 0.078125,43.4219 18.5195,9.98047 l 459.5315,0 62.34,182.03153 z m -228.121,602.5 c -38.129,0 -69.219,-30 -69.219,-67.973 0,-36.867 31.09,-67.969 67.969,-67.969 36.871,0 67.96,31.102 67.96,67.969 0,36.883 -31.089,67.973 -66.71,67.973 z"
         inkscape:connector-curvature="0"
         id="path14"
         style="fill:#000000;fill-opacity:1;fill-rule:nonzero;stroke:none" /></g></g></svg>