<?xml version="1.0" encoding="UTF-8" standalone="no"?>
<!-- Created with Inkscape (http://www.inkscape.org/) -->

<svg
   xmlns:dc="http://purl.org/dc/elements/1.1/"
   xmlns:cc="http://creativecommons.org/ns#"
   xmlns:rdf="http://www.w3.org/1999/02/22-rdf-syntax-ns#"
   xmlns:svg="http://www.w3.org/2000/svg"
   xmlns="http://www.w3.org/2000/svg"
   xmlns:inkscape="http://www.inkscape.org/namespaces/inkscape"
   version="1.1"
   width="93.75"
   height="127.5"
   id="svg2"
   xml:space="preserve"><metadata
     id="metadata8"><rdf:RDF><cc:Work
         rdf:about=""><dc:format>image/svg+xml</dc:format><dc:type
           rdf:resource="http://purl.org/dc/dcmitype/StillImage" /></cc:Work></rdf:RDF></metadata><defs
     id="defs6" /><g
     transform="matrix(1.25,0,0,-1.25,0,127.5)"
     id="g10"><g
       transform="scale(0.1,0.1)"
       id="g12"><path
         d="m 744.262,246.109 -35.782,15 C 639.41,115.949 527.699,59.5391 309.879,59.5391 c -51.867,0 -82.969,2.3515 -147.5,9.2226 l 539.223,683.1293 -12.653,42.648 -570.32,0 -84.0587,-208.43 37.9688,-13.91 C 165.82,700.012 253.48,746.109 404.41,746.109 c 50.629,0 86.41,-3.437 138.129,-13.75 L 0.0390625,45.7891 21.9102,10.0117 l 639.3788,0 82.973,236.0973 z M 400.98,1012.36 c -38.128,0 -69.218,-30.001 -69.218,-67.969 0,-36.879 31.09,-68.129 67.968,-68.129 36.872,0 67.969,31.25 67.969,68.129 0,36.718 -31.097,67.969 -66.719,67.969 z"
         inkscape:connector-curvature="0"
         id="path14"
         style="fill:#000000;fill-opacity:1;fill-rule:nonzero;stroke:none" /></g></g></svg>