<?xml version="1.0" encoding="UTF-8" standalone="no"?>
<!-- Created with Inkscape (http://www.inkscape.org/) -->

<svg
   xmlns:dc="http://purl.org/dc/elements/1.1/"
   xmlns:cc="http://creativecommons.org/ns#"
   xmlns:rdf="http://www.w3.org/1999/02/22-rdf-syntax-ns#"
   xmlns:svg="http://www.w3.org/2000/svg"
   xmlns="http://www.w3.org/2000/svg"
   xmlns:inkscape="http://www.inkscape.org/namespaces/inkscape"
   version="1.1"
   width="146.25"
   height="131.25"
   id="svg2"
   xml:space="preserve"><metadata
     id="metadata8"><rdf:RDF><cc:Work
         rdf:about=""><dc:format>image/svg+xml</dc:format><dc:type
           rdf:resource="http://purl.org/dc/dcmitype/StillImage" /></cc:Work></rdf:RDF></metadata><defs
     id="defs6" /><g
     transform="matrix(1.25,0,0,-1.25,0,131.25)"
     id="g10"><g
       transform="scale(0.1,0.1)"
       id="g12"><path
         d="m 584.102,1045.61 -163.59,-107.032 15,-28.906 148.59,51.879 147.5,-51.879 16.097,28.906 -163.597,107.032 z M 813.32,9.98047 1036.91,632.02 c 36.72,101.402 57.5,122.179 131.25,126.71 l 0,35.79 -290.308,0 0,-35.79 c 42.66,-5.621 47.187,-6.871 57.66,-11.402 22.968,-11.558 37.968,-34.527 37.968,-58.75 0,-11.558 -3.441,-31.098 -6.878,-42.656 L 812.23,166.699 643.949,679.359 c -3.437,7.969 -4.539,16.09 -4.539,26.411 0,23.121 12.66,39.21 35.629,45 12.66,3.429 17.34,4.531 48.441,7.96 l 0,35.79 -315.628,0 0,-35.79 C 483.789,741.551 512.699,709.199 542.539,603.27 L 405.512,164.359 237.379,671.23 c -4.68,12.661 -7.027,25.321 -7.027,36.879 0,33.442 19.687,46.09 82.968,50.621 l 0,35.79 -313.2809375,0 0,-35.79 C 79.5703,739.199 87.5391,731.078 123.32,632.02 L 339.879,9.98047 l 67.973,0 L 575.98,513.422 745.352,9.98047 l 67.968,0 z"
         inkscape:connector-curvature="0"
         id="path14"
         style="fill:#000000;fill-opacity:1;fill-rule:nonzero;stroke:none" /></g></g></svg>