<?xml version="1.0" encoding="UTF-8" standalone="no"?>
<!-- Created with Inkscape (http://www.inkscape.org/) -->

<svg
   xmlns:dc="http://purl.org/dc/elements/1.1/"
   xmlns:cc="http://creativecommons.org/ns#"
   xmlns:rdf="http://www.w3.org/1999/02/22-rdf-syntax-ns#"
   xmlns:svg="http://www.w3.org/2000/svg"
   xmlns="http://www.w3.org/2000/svg"
   xmlns:inkscape="http://www.inkscape.org/namespaces/inkscape"
   version="1.1"
   width="105"
   height="93.75"
   id="svg2"
   xml:space="preserve"><metadata
     id="metadata8"><rdf:RDF><cc:Work
         rdf:about=""><dc:format>image/svg+xml</dc:format><dc:type
           rdf:resource="http://purl.org/dc/dcmitype/StillImage" /></cc:Work></rdf:RDF></metadata><defs
     id="defs6" /><g
     transform="matrix(1.25,0,0,-1.25,0,93.75)"
     id="g10"><g
       transform="scale(0.1,0.1)"
       id="g12"><path
         d="m 628.98,743.859 -39.21,0 C 529.922,729.961 506.949,727.77 415.859,720.738 l 0,-34.527 27.661,-2.191 c 58.75,-4.692 76.089,-26.559 76.089,-95.629 l 0,-257.032 c -77.187,-67.968 -145.16,-101.25 -201.718,-101.25 -72.5,0 -104.84,39.071 -104.84,126.719 l 0,387.031 -39.071,0 C 113.98,729.961 88.6719,726.52 -0.078125,720.738 l 0,-34.527 27.656225,-2.191 c 58.75,-4.692 76.0939,-26.559 76.0939,-95.629 l 0,-240.782 c 0,-57.648 10.308,-90 36.879,-119.839 31.09,-35.782 74.84,-52.969 134.84,-52.969 82.808,0 146.25,27.66 244.218,107.027 l 0,-96.719 167.032,0 c -42.661,-30 -57.661,-56.398 -57.661,-96.7184 0,-45 32.348,-78.42966 74.848,-78.42966 42.652,0 71.402,14.99996 129.063,64.52736 L 814.449,98.7109 C 779.922,67.6094 759.141,56.0508 737.27,56.0508 c -31.098,0 -52.969,21.8789 -52.969,51.8792 0,26.558 16.09,55.308 45,77.179 l 0,34.532 -28.91,2.347 C 649.77,227.77 628.98,254.18 628.98,317.609 l 0,426.25 z"
         inkscape:connector-curvature="0"
         id="path14"
         style="fill:#000000;fill-opacity:1;fill-rule:nonzero;stroke:none" /></g></g></svg>