<?xml version="1.0" encoding="UTF-8" standalone="no"?>
<!-- Created with Inkscape (http://www.inkscape.org/) -->

<svg
   xmlns:dc="http://purl.org/dc/elements/1.1/"
   xmlns:cc="http://creativecommons.org/ns#"
   xmlns:rdf="http://www.w3.org/1999/02/22-rdf-syntax-ns#"
   xmlns:svg="http://www.w3.org/2000/svg"
   xmlns="http://www.w3.org/2000/svg"
   xmlns:inkscape="http://www.inkscape.org/namespaces/inkscape"
   version="1.1"
   width="105"
   height="131.25"
   id="svg2"
   xml:space="preserve"><metadata
     id="metadata8"><rdf:RDF><cc:Work
         rdf:about=""><dc:format>image/svg+xml</dc:format><dc:type
           rdf:resource="http://purl.org/dc/dcmitype/StillImage" /></cc:Work></rdf:RDF></metadata><defs
     id="defs6" /><g
     transform="matrix(1.25,0,0,-1.25,0,131.25)"
     id="g10"><g
       transform="scale(0.1,0.1)"
       id="g12"><path
         d="m 736.211,643.559 c 0,94.531 15,118.75 74.84,126.722 l 28.75,3.43 0,35.777 -282.18,0 0,-35.777 37.969,-3.43 c 58.75,-5.793 74.84,-33.293 74.84,-126.722 l 0,-305.321 c 0,-124.367 -9.219,-169.207 -42.5,-208.429 C 592.148,88.3984 525.27,65.2813 440.121,65.2813 c -94.531,0 -163.601,30 -193.601,85.3087 -20.782,36.871 -27.649,80.621 -27.649,185.469 l 0,307.5 c 0,93.429 17.34,122.179 74.84,126.722 l 42.66,3.43 0,35.777 -336.4100625,0 0,-35.777 28.9101625,-3.43 C 88.7109,762.309 103.711,738.09 103.711,643.559 l 0,-385.938 c 0,-96.723 26.41,-148.59 101.41,-195.7812 57.5,-36.8789 122.027,-51.87886 217.649,-51.87886 131.41,0 210.781,26.57036 265,87.49996 34.531,39.2191 48.441,85.3201 48.441,162.5001 l 0,383.598 z m -345.621,220.152 88.59,93.277 c 13.91,15 23.121,37.973 23.121,58.752 0,20.63 -11.563,33.44 -28.75,33.44 -25.461,0 -41.563,-18.44 -61.09,-69.219 l -40.313,-103.59 18.442,-12.66 z m 149.68,0 87.66,93.277 c 14.84,16.102 24.058,37.973 24.058,57.502 0,21.88 -10.308,34.69 -28.75,34.69 -25.308,0 -42.648,-19.69 -61.09,-69.219 l -40.308,-103.59 18.43,-12.66 z"
         inkscape:connector-curvature="0"
         id="path14"
         style="fill:#000000;fill-opacity:1;fill-rule:nonzero;stroke:none" /></g></g></svg>