<?xml version="1.0" encoding="UTF-8" standalone="no"?>
<!-- Created with Inkscape (http://www.inkscape.org/) -->

<svg
   xmlns:dc="http://purl.org/dc/elements/1.1/"
   xmlns:cc="http://creativecommons.org/ns#"
   xmlns:rdf="http://www.w3.org/1999/02/22-rdf-syntax-ns#"
   xmlns:svg="http://www.w3.org/2000/svg"
   xmlns="http://www.w3.org/2000/svg"
   xmlns:inkscape="http://www.inkscape.org/namespaces/inkscape"
   version="1.1"
   width="68.75"
   height="100"
   id="svg2"
   xml:space="preserve"><metadata
     id="metadata8"><rdf:RDF><cc:Work
         rdf:about=""><dc:format>image/svg+xml</dc:format><dc:type
           rdf:resource="http://purl.org/dc/dcmitype/StillImage" /></cc:Work></rdf:RDF></metadata><defs
     id="defs6" /><g
     transform="matrix(1.25,0,0,-1.25,0,100)"
     id="g10"><g
       transform="scale(0.1,0.1)"
       id="g12"><path
         d="m 540.391,192.031 -32.34,11.559 C 434.301,87.1914 366.328,44.5313 250.078,44.5313 c -43.906,0 -66.879,3.4375 -109.527,16.0976 L 526.48,540 l -12.652,28.75 -430.9374,0 -64.3711,-169.371 35.6211,-12.66 c 27.6602,56.41 47.1874,80.621 79.5314,102.5 40.308,27.66 104.848,45 167.027,45 25.321,0 42.66,-2.34 77.192,-9.219 L 0.078125,43.4414 18.5195,10 l 459.5315,0 62.34,182.031 z m -238.59,465.469 163.59,107.031 -16.09,28.91 -147.5,-53.132 -148.602,53.132 -15,-28.91 L 301.801,657.5 z"
         inkscape:connector-curvature="0"
         id="path14"
         style="fill:#000000;fill-opacity:1;fill-rule:nonzero;stroke:none" /></g></g></svg>