<?xml version="1.0" encoding="UTF-8" standalone="no"?>
<!-- Created with Inkscape (http://www.inkscape.org/) -->

<svg
   xmlns:dc="http://purl.org/dc/elements/1.1/"
   xmlns:cc="http://creativecommons.org/ns#"
   xmlns:rdf="http://www.w3.org/1999/02/22-rdf-syntax-ns#"
   xmlns:svg="http://www.w3.org/2000/svg"
   xmlns="http://www.w3.org/2000/svg"
   xmlns:inkscape="http://www.inkscape.org/namespaces/inkscape"
   version="1.1"
   width="82.5"
   height="137.5"
   id="svg2"
   xml:space="preserve"><metadata
     id="metadata8"><rdf:RDF><cc:Work
         rdf:about=""><dc:format>image/svg+xml</dc:format><dc:type
           rdf:resource="http://purl.org/dc/dcmitype/StillImage" /></cc:Work></rdf:RDF></metadata><defs
     id="defs6" /><g
     transform="matrix(1.25,0,0,-1.25,0,137.5)"
     id="g10"><g
       transform="scale(0.1,0.1)"
       id="g12"><path
         d="m 329.449,1097.49 -163.59,-107.029 15,-28.91 148.59,51.879 147.5,-51.879 16.102,28.91 -163.602,107.029 z M 354.77,395.93 210.859,746.078 c -3.437,8.133 -4.687,15 -4.687,23.133 0,24.219 17.348,36.867 62.187,42.648 l 0,34.532 -268.437125,0 0,-35.782 C 56.4805,802.641 70.2305,791.078 92.1094,738.109 L 298.359,256.551 269.609,189.68 C 244.141,127.488 203.828,84.8281 172.73,84.8281 c -11.402,0 -22.96,7.0313 -37.96,21.8829 -28.75,31.25 -40.3208,38.117 -63.2895,38.117 -33.4297,0 -61.0899,-26.558 -61.0899,-56.5585 0,-44.8398 46.0899,-78.28122 108.2814,-78.28122 46.098,0 87.5,19.53122 125.469,58.75002 35.781,36.8707 60,77.1917 97.968,169.3707 L 541.48,705.77 c 27.661,64.531 55.321,89.839 117.5,104.839 l 0,35.782 -253.429,0 0,-34.532 c 60.929,-11.558 78.277,-24.218 78.277,-56.558 0,-20.621 -8.129,-52.973 -21.879,-87.5 L 354.77,395.93 z"
         inkscape:connector-curvature="0"
         id="path14"
         style="fill:#000000;fill-opacity:1;fill-rule:nonzero;stroke:none" /></g></g></svg>