<?xml version="1.0" encoding="UTF-8" standalone="no"?>
<!-- Created with Inkscape (http://www.inkscape.org/) -->

<svg
   xmlns:dc="http://purl.org/dc/elements/1.1/"
   xmlns:cc="http://creativecommons.org/ns#"
   xmlns:rdf="http://www.w3.org/1999/02/22-rdf-syntax-ns#"
   xmlns:svg="http://www.w3.org/2000/svg"
   xmlns="http://www.w3.org/2000/svg"
   xmlns:inkscape="http://www.inkscape.org/namespaces/inkscape"
   version="1.1"
   width="93.75"
   height="127.5"
   id="svg2"
   xml:space="preserve"><metadata
     id="metadata8"><rdf:RDF><cc:Work
         rdf:about=""><dc:format>image/svg+xml</dc:format><dc:type
           rdf:resource="http://purl.org/dc/dcmitype/StillImage" /></cc:Work></rdf:RDF></metadata><defs
     id="defs6" /><g
     transform="matrix(1.25,0,0,-1.25,0,127.5)"
     id="g10"><g
       transform="scale(0.1,0.1)"
       id="g12"><path
         d="m 744.262,246.09 -35.782,15 C 639.41,115.93 527.699,59.5313 309.879,59.5313 c -51.867,0 -82.969,2.3398 -147.5,9.207 l 539.223,683.1327 -12.653,42.66 -570.32,0 L 34.5703,586.09 72.5391,572.18 C 165.82,699.988 253.48,746.09 404.41,746.09 c 50.629,0 86.41,-3.442 138.129,-13.75 L 0.0390625,45.7813 21.9102,9.98828 l 639.3788,0 L 744.262,246.09 z M 398.629,875.148 562.23,982.34 l -16.101,28.75 -147.5,-52.969 -148.59,52.969 -15,-28.75 163.59,-107.192 z"
         inkscape:connector-curvature="0"
         id="path14"
         style="fill:#000000;fill-opacity:1;fill-rule:nonzero;stroke:none" /></g></g></svg>