<?xml version="1.0" encoding="UTF-8" standalone="no"?>
<!-- Created with Inkscape (http://www.inkscape.org/) -->

<svg
   xmlns:dc="http://purl.org/dc/elements/1.1/"
   xmlns:cc="http://creativecommons.org/ns#"
   xmlns:rdf="http://www.w3.org/1999/02/22-rdf-syntax-ns#"
   xmlns:svg="http://www.w3.org/2000/svg"
   xmlns="http://www.w3.org/2000/svg"
   xmlns:inkscape="http://www.inkscape.org/namespaces/inkscape"
   version="1.1"
   width="91.25"
   height="103.75"
   id="svg2"
   xml:space="preserve"><metadata
     id="metadata8"><rdf:RDF><cc:Work
         rdf:about=""><dc:format>image/svg+xml</dc:format><dc:type
           rdf:resource="http://purl.org/dc/dcmitype/StillImage" /></cc:Work></rdf:RDF></metadata><defs
     id="defs6" /><g
     transform="matrix(1.25,0,0,-1.25,0,103.75)"
     id="g10"><g
       transform="scale(0.1,0.1)"
       id="g12"><path
         d="m 519.609,20.3594 209.692,0 0,34.5312 -28.91,2.3477 C 649.77,63.0195 628.98,89.4219 628.98,152.859 l 0,426.25 -39.21,0 C 529.922,565.211 506.949,563.02 415.859,555.988 l 0,-34.527 27.661,-2.191 c 58.75,-4.692 76.089,-26.559 76.089,-95.629 l 0,-257.032 C 442.422,98.6406 374.449,65.3594 317.891,65.3594 c -72.5,0 -104.84,39.0626 -104.84,126.7186 l 0,387.031 -39.071,0 C 113.98,565.211 88.6719,561.77 -0.078125,555.988 l 0,-34.527 27.656225,-2.191 c 58.75,-4.692 76.0939,-26.559 76.0939,-95.629 l 0,-240.782 c 0,-57.648 10.308,-89.9996 36.879,-119.8395 31.09,-35.7812 74.84,-52.9687 134.84,-52.9687 82.808,0 146.25,27.6601 244.218,107.0272 l 0,-96.7186 z M 246.48,641.301 l 88.75,93.277 c 13.75,15 22.969,38.133 22.969,58.75 0,20.781 -11.398,33.442 -28.75,33.442 -25.308,0 -41.398,-18.442 -61.09,-69.059 l -40.308,-103.75 18.429,-12.66 z m 149.848,0 87.5,93.277 c 15,16.094 24.223,38.133 24.223,57.66 0,21.871 -10.321,34.532 -28.75,34.532 -25.473,0 -42.66,-19.532 -61.102,-69.059 l -40.308,-103.75 18.437,-12.66 z"
         inkscape:connector-curvature="0"
         id="path14"
         style="fill:#000000;fill-opacity:1;fill-rule:nonzero;stroke:none" /></g></g></svg>