<?xml version="1.0" encoding="UTF-8" standalone="no"?>
<!-- Created with Inkscape (http://www.inkscape.org/) -->

<svg
   xmlns:dc="http://purl.org/dc/elements/1.1/"
   xmlns:cc="http://creativecommons.org/ns#"
   xmlns:rdf="http://www.w3.org/1999/02/22-rdf-syntax-ns#"
   xmlns:svg="http://www.w3.org/2000/svg"
   xmlns="http://www.w3.org/2000/svg"
   xmlns:inkscape="http://www.inkscape.org/namespaces/inkscape"
   version="1.1"
   width="105"
   height="121.25"
   id="svg2"
   xml:space="preserve"><metadata
     id="metadata8"><rdf:RDF><cc:Work
         rdf:about=""><dc:format>image/svg+xml</dc:format><dc:type
           rdf:resource="http://purl.org/dc/dcmitype/StillImage" /></cc:Work></rdf:RDF></metadata><defs
     id="defs6" /><g
     transform="matrix(1.25,0,0,-1.25,0,121.25)"
     id="g10"><g
       transform="scale(0.1,0.1)"
       id="g12"><path
         d="M 699.34,98.6797 C 665.898,67.5781 644.02,56.0195 622.148,56.0195 c -30,0 -52.968,21.8789 -52.968,51.8785 0,31.09 16.09,54.223 79.371,110.622 70.32,62.191 87.66,103.601 87.66,201.558 l 0,383.602 c 0,94.531 15,118.75 74.84,126.718 l 28.75,3.43 0,35.793 -282.18,0 0,-35.793 37.969,-3.43 c 58.75,-5.777 74.84,-33.277 74.84,-126.718 l 0,-305.309 c 0,-124.383 -9.219,-169.223 -42.5,-208.441 -35.782,-41.41 -102.66,-64.532 -187.809,-64.532 -94.531,0 -163.601,30 -193.601,85.313 -20.782,36.867 -27.649,80.617 -27.649,185.469 l 0,307.5 c 0,93.441 17.34,122.191 74.84,126.718 l 42.66,3.43 0,35.793 -336.4100625,0 0,-35.793 28.9101625,-3.43 C 88.7109,922.43 103.711,898.211 103.711,803.68 l 0,-385.942 c 0,-96.718 26.41,-148.59 101.41,-195.777 57.5,-35.781 122.027,-51.883 215.309,-51.883 60,0 104.84,4.692 153.281,17.352 -43.75,-33.442 -59.84,-58.75 -59.84,-99.0589 0,-45 32.18,-78.44141 75.93,-78.44141 41.57,0 71.41,15.00001 127.969,64.53121 l -18.43,24.2188 z"
         inkscape:connector-curvature="0"
         id="path14"
         style="fill:#000000;fill-opacity:1;fill-rule:nonzero;stroke:none" /></g></g></svg>