<?xml version="1.0" encoding="UTF-8" standalone="no"?>
<!-- Created with Inkscape (http://www.inkscape.org/) -->

<svg
   xmlns:dc="http://purl.org/dc/elements/1.1/"
   xmlns:cc="http://creativecommons.org/ns#"
   xmlns:rdf="http://www.w3.org/1999/02/22-rdf-syntax-ns#"
   xmlns:svg="http://www.w3.org/2000/svg"
   xmlns="http://www.w3.org/2000/svg"
   xmlns:inkscape="http://www.inkscape.org/namespaces/inkscape"
   version="1.1"
   width="118.75"
   height="102.5"
   id="svg2"
   xml:space="preserve"><metadata
     id="metadata8"><rdf:RDF><cc:Work
         rdf:about=""><dc:format>image/svg+xml</dc:format><dc:type
           rdf:resource="http://purl.org/dc/dcmitype/StillImage" /></cc:Work></rdf:RDF></metadata><defs
     id="defs6" /><g
     transform="matrix(1.25,0,0,-1.25,0,102.5)"
     id="g10"><g
       transform="scale(0.1,0.1)"
       id="g12"><path
         d="M 474.691,819.859 311.09,712.82 l 14.851,-28.898 148.75,51.867 147.34,-51.867 16.25,28.898 -163.59,107.039 z m 192.34,-706.097 -119.84,342.027 c -3.441,10.473 -5.781,23.133 -5.781,31.102 0,28.898 18.43,40.308 69.211,47.339 l 0,34.532 -274.211,0 0,-34.532 c 55.309,-12.66 69.059,-24.218 90.93,-78.441 l 19.691,-48.277 -111.871,-295 -122.039,343.277 c -3.43,9.223 -6.871,30 -6.871,39.223 0,24.218 19.531,35.777 65.629,39.218 l 0,34.532 -271.879,0 0,-34.532 c 43.75,-4.691 69.0586,-26.558 89.8398,-78.441 L 261.559,10.0117 l 74.851,0 135.93,330.6293 115.16,-330.6293 80.621,0 161.258,407.8083 c 32.34,77.192 56.562,100.16 118.742,116.41 l 0,34.532 -254.68,0 0,-34.532 c 54.219,-3.441 85.309,-27.66 85.309,-66.871 0,-12.66 -3.441,-35.629 -8.129,-49.539 L 667.031,113.762 z"
         inkscape:connector-curvature="0"
         id="path14"
         style="fill:#000000;fill-opacity:1;fill-rule:nonzero;stroke:none" /></g></g></svg>