<?xml version="1.0" encoding="UTF-8" standalone="no"?>
<!-- Created with Inkscape (http://www.inkscape.org/) -->

<svg
   xmlns:dc="http://purl.org/dc/elements/1.1/"
   xmlns:cc="http://creativecommons.org/ns#"
   xmlns:rdf="http://www.w3.org/1999/02/22-rdf-syntax-ns#"
   xmlns:svg="http://www.w3.org/2000/svg"
   xmlns="http://www.w3.org/2000/svg"
   xmlns:inkscape="http://www.inkscape.org/namespaces/inkscape"
   version="1.1"
   width="57.5"
   height="107.5"
   id="svg2"
   xml:space="preserve"><metadata
     id="metadata8"><rdf:RDF><cc:Work
         rdf:about=""><dc:format>image/svg+xml</dc:format><dc:type
           rdf:resource="http://purl.org/dc/dcmitype/StillImage" /></cc:Work></rdf:RDF></metadata><defs
     id="defs6" /><g
     transform="matrix(1.25,0,0,-1.25,0,107.5)"
     id="g10"><g
       transform="scale(0.1,0.1)"
       id="g12"><path
         d="m 100.23,530.762 0,-388.282 c 0,-63.4409 -20.7808,-89.8394 -71.4019,-95.6206 l -28.906225,-2.3477 0,-34.53123 310.000125,0 0,34.53123 -28.902,2.3477 c -50.629,5.7812 -71.411,32.1797 -71.411,95.6206 l 0,548.282 c 0,43.91 8.121,69.218 26.563,88.75 16.098,16.097 37.969,26.566 57.656,26.566 19.531,0 36.871,-11.566 54.063,-33.437 16.089,-21.879 32.339,-32.352 52.968,-32.352 27.661,0 52.969,23.133 52.969,49.691 0,37.969 -42.5,65.629 -99.058,65.629 -66.719,0 -141.719,-26.57 -191.25,-67.968 -47.192,-38.129 -63.29,-80.629 -63.29,-164.852 l 0,-54.059 -96.71047,0 0,-37.968 96.71047,0 z"
         inkscape:connector-curvature="0"
         id="path14"
         style="fill:#000000;fill-opacity:1;fill-rule:nonzero;stroke:none" /></g></g></svg>