<?xml version="1.0" encoding="UTF-8" standalone="no"?>
<!-- Created with Inkscape (http://www.inkscape.org/) -->

<svg
   xmlns:dc="http://purl.org/dc/elements/1.1/"
   xmlns:cc="http://creativecommons.org/ns#"
   xmlns:rdf="http://www.w3.org/1999/02/22-rdf-syntax-ns#"
   xmlns:svg="http://www.w3.org/2000/svg"
   xmlns="http://www.w3.org/2000/svg"
   xmlns:inkscape="http://www.inkscape.org/namespaces/inkscape"
   version="1.1"
   width="81.25"
   height="113.75"
   id="svg2"
   xml:space="preserve"><metadata
     id="metadata8"><rdf:RDF><cc:Work
         rdf:about=""><dc:format>image/svg+xml</dc:format><dc:type
           rdf:resource="http://purl.org/dc/dcmitype/StillImage" /></cc:Work></rdf:RDF></metadata><defs
     id="defs6" /><g
     transform="matrix(1.25,0,0,-1.25,0,113.75)"
     id="g10"><g
       transform="scale(0.1,0.1)"
       id="g12"><path
         d="m 541.84,340.23 c 0,75.942 -15.551,135.629 -46.57,179.071 -31.481,43.121 -74.532,64.679 -129.219,64.679 -54.68,0 -97.731,-21.558 -129.063,-64.679 C 205.82,475.859 190.27,416.172 190.27,340.23 c 0,-76.05 15.55,-135.742 46.718,-179.058 31.332,-43.121 74.383,-64.6915 129.063,-64.6915 54.687,0 97.738,21.5705 129.219,64.6915 31.019,43.316 46.57,103.008 46.57,179.058 z M 190.27,559.77 c 21.761,37.378 49.3,65.07 82.66,83.121 32.89,18.32 72.379,27.5 118.441,27.5 76.328,0 138.277,-30.313 185.777,-90.942 47.891,-60.621 71.872,-140.39 71.872,-239.219 0,-98.859 -23.981,-178.589 -71.872,-239.21 -47.5,-60.6294 -109.449,-90.9419 -185.777,-90.9419 -46.062,0 -85.551,9.1836 -118.441,27.5 -33.36,17.8907 -60.899,45.6211 -82.66,83.1209 l 0,-94.3709 -103.8989,0 0,720.9419 -86.4101625,0 0,70.308 86.4101625,0 0,82.5 103.8989,0 0,-82.5 182.5,0 0,-70.308 -182.5,0 0,-187.5 z"
         inkscape:connector-curvature="0"
         id="path14"
         style="fill:#000000;fill-opacity:1;fill-rule:nonzero;stroke:none" /></g></g></svg>