<?xml version="1.0" encoding="UTF-8" standalone="no"?>
<!-- Created with Inkscape (http://www.inkscape.org/) -->

<svg
   xmlns:dc="http://purl.org/dc/elements/1.1/"
   xmlns:cc="http://creativecommons.org/ns#"
   xmlns:rdf="http://www.w3.org/1999/02/22-rdf-syntax-ns#"
   xmlns:svg="http://www.w3.org/2000/svg"
   xmlns="http://www.w3.org/2000/svg"
   xmlns:inkscape="http://www.inkscape.org/namespaces/inkscape"
   version="1.1"
   width="103.75"
   height="113.75"
   id="svg2"
   xml:space="preserve"><metadata
     id="metadata8"><rdf:RDF><cc:Work
         rdf:about=""><dc:format>image/svg+xml</dc:format><dc:type
           rdf:resource="http://purl.org/dc/dcmitype/StillImage" /></cc:Work></rdf:RDF></metadata><defs
     id="defs6" /><g
     transform="matrix(1.25,0,0,-1.25,0,113.75)"
     id="g10"><g
       transform="scale(0.1,0.1)"
       id="g12"><path
         d="m 385.199,787.73 c -82.308,0 -147.738,-30.742 -196.25,-92.179 -48.437,-61.371 -72.66,-145 -72.66,-250.942 0,-105.55 24.223,-189.019 72.66,-250.468 48.512,-61.371 113.942,-92.032 196.25,-92.032 82.379,0 147.571,30.661 195.621,92.032 48.129,61.449 72.192,144.918 72.192,250.468 0,105.942 -24.063,189.571 -72.192,250.942 -48.05,61.437 -113.242,92.179 -195.621,92.179 z m 0,92.192 c 117.571,0 211.563,-39.453 281.871,-118.281 70.391,-78.75 105.629,-184.45 105.629,-317.032 C 772.699,312.5 737.461,207.031 667.07,128.199 596.762,49.4492 502.77,10.0781 385.199,10.0781 267.27,10.0781 173.012,49.3398 102.379,127.891 31.8398,206.52 -3.39844,312.109 -3.39844,444.609 c 0,132.582 35.23824,238.282 105.77744,317.032 70.633,78.828 164.891,118.281 282.82,118.281 z m 214.063,-131.563 0,66.719 c 22.886,-16.797 42.578,-29.219 59.058,-37.348 16.45,-8.039 30.469,-12.031 42.032,-12.031 17.269,0 30.199,5.16 38.75,15.473 8.628,10.308 12.968,25.547 12.968,45.777 0,11.961 -1.41,23.75 -4.218,35.321 -2.813,11.64 -7.032,23.281 -12.653,34.839 l 74.68,0 c 3.75,-14.3 6.57,-27.769 8.441,-40.468 1.879,-12.731 2.809,-24.692 2.809,-35.942 0,-45.621 -8.199,-79.219 -24.527,-100.777 -16.25,-21.481 -41.801,-32.192 -76.563,-32.192 -17.93,0 -36.719,4.93 -56.41,14.848 -19.68,9.883 -41.168,25.152 -64.367,45.781 z"
         inkscape:connector-curvature="0"
         id="path14"
         style="fill:#000000;fill-opacity:1;fill-rule:nonzero;stroke:none" /></g></g></svg>