<?xml version="1.0" encoding="UTF-8" standalone="no"?>
<!-- Created with Inkscape (http://www.inkscape.org/) -->

<svg
   xmlns:dc="http://purl.org/dc/elements/1.1/"
   xmlns:cc="http://creativecommons.org/ns#"
   xmlns:rdf="http://www.w3.org/1999/02/22-rdf-syntax-ns#"
   xmlns:svg="http://www.w3.org/2000/svg"
   xmlns="http://www.w3.org/2000/svg"
   xmlns:inkscape="http://www.inkscape.org/namespaces/inkscape"
   version="1.1"
   width="103.75"
   height="112.5"
   id="svg2"
   xml:space="preserve"><metadata
     id="metadata8"><rdf:RDF><cc:Work
         rdf:about=""><dc:format>image/svg+xml</dc:format><dc:type
           rdf:resource="http://purl.org/dc/dcmitype/StillImage" /></cc:Work></rdf:RDF></metadata><defs
     id="defs6" /><g
     transform="matrix(1.25,0,0,-1.25,0,112.5)"
     id="g10"><g
       transform="scale(0.1,0.1)"
       id="g12"><path
         d="m 2.69922,863.359 113.90278,0 0,-509.218 c 0,-89.922 16.289,-154.61 48.91,-194.063 32.578,-39.488 85.347,-59.219 158.277,-59.219 72.691,0 125.313,19.731 157.813,59.219 32.578,39.453 48.91,104.141 48.91,194.063 l 0,509.218 113.898,0 0,-523.281 C 644.41,230.781 617.379,148.238 563.32,92.4219 509.262,36.6797 429.41,8.82813 323.789,8.82813 217.852,8.82813 137.852,36.6797 83.7891,92.4219 29.7305,148.238 2.69922,230.781 2.69922,340.078 l 0,523.281 z m 597.17978,-126.25 0,66.719 c 22.891,-16.797 42.582,-29.219 59.07,-37.348 16.442,-8.039 30.461,-12.031 42.031,-12.031 17.258,0 30.192,5.16 38.75,15.473 8.629,10.308 12.969,25.547 12.969,45.777 0,11.961 -1.41,23.75 -4.219,35.321 -2.82,11.64 -7.031,23.281 -12.66,34.839 l 74.692,0 c 3.75,-14.3 6.558,-27.769 8.437,-40.468 1.871,-12.731 2.813,-24.692 2.813,-35.942 0,-45.621 -8.211,-79.219 -24.532,-100.777 -16.25,-21.481 -41.8,-32.192 -76.57,-32.192 -17.93,0 -36.711,4.93 -56.398,14.848 -19.692,9.883 -41.172,25.152 -64.383,45.781 z"
         inkscape:connector-curvature="0"
         id="path14"
         style="fill:#000000;fill-opacity:1;fill-rule:nonzero;stroke:none" /></g></g></svg>