<?xml version="1.0" encoding="UTF-8" standalone="no"?>
<!-- Created with Inkscape (http://www.inkscape.org/) -->

<svg
   xmlns:dc="http://purl.org/dc/elements/1.1/"
   xmlns:cc="http://creativecommons.org/ns#"
   xmlns:rdf="http://www.w3.org/1999/02/22-rdf-syntax-ns#"
   xmlns:svg="http://www.w3.org/2000/svg"
   xmlns="http://www.w3.org/2000/svg"
   xmlns:inkscape="http://www.inkscape.org/namespaces/inkscape"
   version="1.1"
   width="86.25"
   height="92.5"
   id="svg2"
   xml:space="preserve"><metadata
     id="metadata8"><rdf:RDF><cc:Work
         rdf:about=""><dc:format>image/svg+xml</dc:format><dc:type
           rdf:resource="http://purl.org/dc/dcmitype/StillImage" /></cc:Work></rdf:RDF></metadata><defs
     id="defs6" /><g
     transform="matrix(1.25,0,0,-1.25,0,92.5)"
     id="g10"><g
       transform="scale(0.1,0.1)"
       id="g12"><path
         d="m 458.199,588.328 0,66.723 c 22.891,-16.801 42.582,-29.223 59.071,-37.352 16.441,-8.039 30.46,-12.027 42.031,-12.027 17.258,0 30.187,5.156 38.75,15.469 8.629,10.308 12.969,25.55 12.969,45.781 0,11.949 -1.411,23.75 -4.219,35.308 -2.821,11.641 -7.031,23.29 -12.66,34.848 l 74.687,0 c 3.75,-14.297 6.563,-27.777 8.442,-40.469 1.871,-12.738 2.808,-24.687 2.808,-35.937 0,-45.621 -8.199,-79.223 -24.527,-100.781 -16.25,-21.481 -41.801,-32.192 -76.571,-32.192 -17.929,0 -36.71,4.922 -56.402,14.852 -19.687,9.879 -41.168,25.148 -64.379,45.777 z M -1.32813,274.422 l 0,380.777 103.43713,0 0,-376.719 c 0,-59.609 11.563,-104.289 34.692,-134.058 C 160,114.73 194.84,99.8906 241.328,99.8906 c 55.703,0 99.762,17.7304 132.192,53.2814 32.378,35.629 48.589,84.098 48.589,145.469 l 0,356.558 103.282,0 0,-628.8982 -103.282,0 0,96.5582 C 396.988,84.7305 367.891,56.3711 334.77,37.8594 301.641,19.3398 263.199,10.0508 219.449,10.0508 147.148,10.0508 92.2695,32.4688 54.7695,77.3906 17.3398,122.27 -1.32813,187.941 -1.32813,274.422 z"
         inkscape:connector-curvature="0"
         id="path14"
         style="fill:#000000;fill-opacity:1;fill-rule:nonzero;stroke:none" /></g></g></svg>