<?xml version="1.0" encoding="UTF-8" standalone="no"?>
<!-- Created with Inkscape (http://www.inkscape.org/) -->

<svg
   xmlns:dc="http://purl.org/dc/elements/1.1/"
   xmlns:cc="http://creativecommons.org/ns#"
   xmlns:rdf="http://www.w3.org/1999/02/22-rdf-syntax-ns#"
   xmlns:svg="http://www.w3.org/2000/svg"
   xmlns="http://www.w3.org/2000/svg"
   xmlns:inkscape="http://www.inkscape.org/namespaces/inkscape"
   version="1.1"
   width="81.25"
   height="155"
   id="svg2"
   xml:space="preserve"><metadata
     id="metadata8"><rdf:RDF><cc:Work
         rdf:about=""><dc:format>image/svg+xml</dc:format><dc:type
           rdf:resource="http://purl.org/dc/dcmitype/StillImage" /></cc:Work></rdf:RDF></metadata><defs
     id="defs6" /><g
     transform="matrix(1.25,0,0,-1.25,0,155)"
     id="g10"><g
       transform="scale(0.1,0.1)"
       id="g12"><path
         d="m -0.121094,864.578 113.910094,0 0,-509.219 c 0,-89.918 16.289,-154.609 48.91,-194.058 32.571,-39.5 85.352,-59.223 158.281,-59.223 72.692,0 125.309,19.723 157.809,59.223 32.582,39.449 48.91,104.14 48.91,194.058 l 0,509.219 113.903,0 0,-523.277 C 641.602,232 614.57,149.461 560.512,93.6406 506.449,37.8984 426.602,10.0508 320.98,10.0508 215.039,10.0508 135.039,37.8984 80.9805,93.6406 26.9102,149.461 -0.121094,232 -0.121094,341.301 l 0,523.277 z M 260.352,1223.17 l 110.16,-148.28 -85.942,0 -129.218,148.28 105,0 z m 114.847,-166.25 113.903,0 0,-114.061 -113.903,0 0,114.061 z m -219.539,0 113.91,0 0,-114.061 -113.91,0 0,114.061 z"
         inkscape:connector-curvature="0"
         id="path14"
         style="fill:#000000;fill-opacity:1;fill-rule:nonzero;stroke:none" /></g></g></svg>