<?xml version="1.0" encoding="UTF-8" standalone="no"?>
<!-- Created with Inkscape (http://www.inkscape.org/) -->

<svg
   xmlns:dc="http://purl.org/dc/elements/1.1/"
   xmlns:cc="http://creativecommons.org/ns#"
   xmlns:rdf="http://www.w3.org/1999/02/22-rdf-syntax-ns#"
   xmlns:svg="http://www.w3.org/2000/svg"
   xmlns="http://www.w3.org/2000/svg"
   xmlns:inkscape="http://www.inkscape.org/namespaces/inkscape"
   version="1.1"
   width="81.25"
   height="153.75"
   id="svg2"
   xml:space="preserve"><metadata
     id="metadata8"><rdf:RDF><cc:Work
         rdf:about=""><dc:format>image/svg+xml</dc:format><dc:type
           rdf:resource="http://purl.org/dc/dcmitype/StillImage" /></cc:Work></rdf:RDF></metadata><defs
     id="defs6" /><g
     transform="matrix(1.25,0,0,-1.25,0,153.75)"
     id="g10"><g
       transform="scale(0.1,0.1)"
       id="g12"><path
         d="m -0.121094,864.602 113.910094,0 0,-509.223 c 0,-89.918 16.289,-154.609 48.91,-194.059 32.571,-39.492 85.352,-59.218 158.281,-59.218 72.692,0 125.309,19.726 157.809,59.218 32.582,39.45 48.91,104.141 48.91,194.059 l 0,509.223 113.903,0 0,-523.282 c 0,-109.3 -27.032,-191.84 -81.09,-247.6598 C 506.449,37.9219 426.602,10.0703 320.98,10.0703 215.039,10.0703 135.039,37.9219 80.9805,93.6602 26.9102,149.48 -0.121094,232.02 -0.121094,341.32 l 0,523.282 z M 383.32,1223.2 l 103.75,0 -127.968,-148.29 -85.942,0 110.16,148.29 z m -8.121,-166.25 113.903,0 0,-114.071 -113.903,0 0,114.071 z m -219.539,0 113.91,0 0,-114.071 -113.91,0 0,114.071 z"
         inkscape:connector-curvature="0"
         id="path14"
         style="fill:#000000;fill-opacity:1;fill-rule:nonzero;stroke:none" /></g></g></svg>