<?xml version="1.0" encoding="UTF-8" standalone="no"?>
<!-- Created with Inkscape (http://www.inkscape.org/) -->

<svg
   xmlns:dc="http://purl.org/dc/elements/1.1/"
   xmlns:cc="http://creativecommons.org/ns#"
   xmlns:rdf="http://www.w3.org/1999/02/22-rdf-syntax-ns#"
   xmlns:svg="http://www.w3.org/2000/svg"
   xmlns="http://www.w3.org/2000/svg"
   xmlns:inkscape="http://www.inkscape.org/namespaces/inkscape"
   version="1.1"
   width="66.25"
   height="131.25"
   id="svg2"
   xml:space="preserve"><metadata
     id="metadata8"><rdf:RDF><cc:Work
         rdf:about=""><dc:format>image/svg+xml</dc:format><dc:type
           rdf:resource="http://purl.org/dc/dcmitype/StillImage" /></cc:Work></rdf:RDF></metadata><defs
     id="defs6" /><g
     transform="matrix(1.25,0,0,-1.25,0,131.25)"
     id="g10"><g
       transform="scale(0.1,0.1)"
       id="g12"><path
         d="m -0.230469,274.449 0,380.781 103.429469,0 0,-376.71 c 0,-59.61 11.571,-104.301 34.692,-134.071 23.199,-29.679 58.05,-44.5271 104.531,-44.5271 55.699,0 99.769,17.7381 132.187,53.2771 32.379,35.629 48.59,84.102 48.59,145.473 l 0,356.558 103.281,0 0,-628.9019 -103.281,0 0,96.5629 C 398.09,84.7695 368.98,56.4102 335.859,37.8906 302.73,19.3789 264.301,10.0781 220.551,10.0781 148.238,10.0781 93.3594,32.5 55.8594,77.4219 18.4414,122.301 -0.230469,187.969 -0.230469,274.449 z M 315.551,1043.2 l 103.75,0 -127.973,-148.278 -85.937,0 110.16,148.278 z m -8.129,-166.251 113.906,0 0,-114.058 -113.906,0 0,114.058 z m -219.5314,0 113.9104,0 0,-114.058 -113.9104,0 0,114.058 z"
         inkscape:connector-curvature="0"
         id="path14"
         style="fill:#000000;fill-opacity:1;fill-rule:nonzero;stroke:none" /></g></g></svg>