<?xml version="1.0" encoding="UTF-8" standalone="no"?>
<!-- Created with Inkscape (http://www.inkscape.org/) -->

<svg
   xmlns:dc="http://purl.org/dc/elements/1.1/"
   xmlns:cc="http://creativecommons.org/ns#"
   xmlns:rdf="http://www.w3.org/1999/02/22-rdf-syntax-ns#"
   xmlns:svg="http://www.w3.org/2000/svg"
   xmlns="http://www.w3.org/2000/svg"
   xmlns:inkscape="http://www.inkscape.org/namespaces/inkscape"
   version="1.1"
   width="66.25"
   height="118.75"
   id="svg2"
   xml:space="preserve"><metadata
     id="metadata8"><rdf:RDF><cc:Work
         rdf:about=""><dc:format>image/svg+xml</dc:format><dc:type
           rdf:resource="http://purl.org/dc/dcmitype/StillImage" /></cc:Work></rdf:RDF></metadata><defs
     id="defs6" /><g
     transform="matrix(1.25,0,0,-1.25,0,118.75)"
     id="g10"><g
       transform="scale(0.1,0.1)"
       id="g12"><path
         d="m -0.230469,274.449 0,380.781 103.429469,0 0,-376.718 c 0,-59.614 11.571,-104.301 34.692,-134.063 23.199,-29.687 58.05,-44.5388 104.531,-44.5388 55.699,0 99.769,17.7378 132.187,53.2888 32.379,35.621 48.59,84.102 48.59,145.461 l 0,356.57 103.281,0 0,-628.9097 -103.281,0 0,96.5587 C 398.09,84.7617 368.98,56.3984 335.859,37.8789 302.73,19.3711 264.301,10.0703 220.551,10.0703 148.238,10.0703 93.3594,32.4883 55.8594,77.4102 18.4414,122.301 -0.230469,187.961 -0.230469,274.449 z M 218.051,734.91 80.5508,946.16 l 77.9692,0 101.089,-137.648 101.09,137.648 77.973,0 -137.5,-211.25 -83.121,0 z"
         inkscape:connector-curvature="0"
         id="path14"
         style="fill:#000000;fill-opacity:1;fill-rule:nonzero;stroke:none" /></g></g></svg>