<?xml version="1.0" encoding="UTF-8" standalone="no"?>
<!-- Created with Inkscape (http://www.inkscape.org/) -->

<svg
   xmlns:dc="http://purl.org/dc/elements/1.1/"
   xmlns:cc="http://creativecommons.org/ns#"
   xmlns:rdf="http://www.w3.org/1999/02/22-rdf-syntax-ns#"
   xmlns:svg="http://www.w3.org/2000/svg"
   xmlns="http://www.w3.org/2000/svg"
   xmlns:inkscape="http://www.inkscape.org/namespaces/inkscape"
   version="1.1"
   width="103.75"
   height="137.5"
   id="svg2"
   xml:space="preserve"><metadata
     id="metadata8"><rdf:RDF><cc:Work
         rdf:about=""><dc:format>image/svg+xml</dc:format><dc:type
           rdf:resource="http://purl.org/dc/dcmitype/StillImage" /></cc:Work></rdf:RDF></metadata><defs
     id="defs6" /><g
     transform="matrix(1.25,0,0,-1.25,0,137.5)"
     id="g10"><g
       transform="scale(0.1,0.1)"
       id="g12"><path
         d="m 425.512,1093.17 103.75,0 -127.973,-148.279 -85.937,0 110.16,148.279 z M 385.199,787.699 c -82.308,0 -147.738,-30.738 -196.25,-92.179 -48.437,-61.372 -72.66,-145 -72.66,-250.942 0,-105.547 24.223,-189.027 72.66,-250.469 48.512,-61.371 113.942,-92.031 196.25,-92.031 82.379,0 147.571,30.66 195.621,92.031 48.129,61.442 72.192,144.922 72.192,250.469 0,105.942 -24.063,189.57 -72.192,250.942 -48.05,61.441 -113.242,92.179 -195.621,92.179 z m 0,92.192 c 117.571,0 211.563,-39.45 281.871,-118.282 C 737.461,682.859 772.699,577.16 772.699,444.578 772.699,312.469 737.461,207 667.07,128.172 596.762,49.4219 502.77,10.0508 385.199,10.0508 c -117.929,0 -212.187,39.25 -282.82,117.8082 -70.5392,78.629 -105.77744,184.219 -105.77744,316.719 0,132.582 35.23824,238.281 105.77744,317.031 70.633,78.832 164.891,118.282 282.82,118.282 z m 214.063,-131.563 0,66.723 c 22.886,-16.801 42.578,-29.223 59.058,-37.352 16.45,-8.039 30.469,-12.027 42.032,-12.027 17.269,0 30.199,5.156 38.75,15.469 8.628,10.308 12.968,25.55 12.968,45.781 0,11.949 -1.41,23.75 -4.218,35.308 -2.813,11.641 -7.032,23.29 -12.653,34.848 l 74.68,0 c 3.75,-14.297 6.57,-27.777 8.441,-40.469 1.879,-12.738 2.809,-24.687 2.809,-35.937 0,-45.621 -8.199,-79.223 -24.527,-100.781 -16.25,-21.481 -41.801,-32.192 -76.563,-32.192 -17.93,0 -36.719,4.922 -56.41,14.852 -19.68,9.879 -41.168,25.148 -64.367,45.777 z"
         inkscape:connector-curvature="0"
         id="path14"
         style="fill:#000000;fill-opacity:1;fill-rule:nonzero;stroke:none" /></g></g></svg>