<?xml version="1.0" encoding="UTF-8" standalone="no"?>
<!-- Created with Inkscape (http://www.inkscape.org/) -->

<svg
   xmlns:dc="http://purl.org/dc/elements/1.1/"
   xmlns:cc="http://creativecommons.org/ns#"
   xmlns:rdf="http://www.w3.org/1999/02/22-rdf-syntax-ns#"
   xmlns:svg="http://www.w3.org/2000/svg"
   xmlns="http://www.w3.org/2000/svg"
   xmlns:inkscape="http://www.inkscape.org/namespaces/inkscape"
   version="1.1"
   width="77.5"
   height="147.5"
   id="svg2"
   xml:space="preserve"><metadata
     id="metadata8"><rdf:RDF><cc:Work
         rdf:about=""><dc:format>image/svg+xml</dc:format><dc:type
           rdf:resource="http://purl.org/dc/dcmitype/StillImage" /></cc:Work></rdf:RDF></metadata><defs
     id="defs6" /><g
     transform="matrix(1.25,0,0,-1.25,0,147.5)"
     id="g10"><g
       transform="scale(0.1,0.1)"
       id="g12"><path
         d="M 335.699,191.199 C 306.52,116.309 278.09,67.4492 250.391,44.6289 222.66,21.8203 185.59,10.4102 139.141,10.4102 l -82.5004,0 0,86.4101 60.6294,0 c 28.429,0 50.5,6.8007 66.25,20.3087 15.699,13.441 33.16,45.281 52.339,95.473 l 18.442,47.187 -254.379125,618.75 109.527125,0 196.571,-491.879 196.558,491.879 109.371,0 -276.25,-687.34 z m -143.898,978.281 158.277,-210 -85.777,0 -183.1291,210 110.6291,0 z"
         inkscape:connector-curvature="0"
         id="path14"
         style="fill:#000000;fill-opacity:1;fill-rule:nonzero;stroke:none" /></g></g></svg>