<?xml version="1.0" encoding="UTF-8" standalone="no"?>
<!-- Created with Inkscape (http://www.inkscape.org/) -->

<svg
   xmlns:dc="http://purl.org/dc/elements/1.1/"
   xmlns:cc="http://creativecommons.org/ns#"
   xmlns:rdf="http://www.w3.org/1999/02/22-rdf-syntax-ns#"
   xmlns:svg="http://www.w3.org/2000/svg"
   xmlns="http://www.w3.org/2000/svg"
   xmlns:inkscape="http://www.inkscape.org/namespaces/inkscape"
   version="1.1"
   width="73.75"
   height="142.5"
   id="svg2"
   xml:space="preserve"><metadata
     id="metadata8"><rdf:RDF><cc:Work
         rdf:about=""><dc:format>image/svg+xml</dc:format><dc:type
           rdf:resource="http://purl.org/dc/dcmitype/StillImage" /></cc:Work></rdf:RDF></metadata><defs
     id="defs6" /><g
     transform="matrix(1.25,0,0,-1.25,0,142.5)"
     id="g10"><g
       transform="scale(0.1,0.1)"
       id="g12"><path
         d="m 582.699,572.512 0,-50.633 -475,0 c 4.449,-71.051 25.852,-125.231 64.211,-162.5 38.442,-37.301 91.918,-55.93 160.469,-55.93 39.691,0 78.133,4.84 115.32,14.531 37.262,9.758 74.25,24.411 110.93,43.899 l 0,-97.649 C 521.52,248.48 483.52,236.488 444.57,228.289 c -38.871,-8.199 -78.359,-12.34 -118.441,-12.34 -100.309,0 -179.801,29.141 -238.4298,87.5 -58.5586,58.43 -87.820294,137.422 -87.820294,237.031 0,102.891 27.742194,184.571 83.281294,245 55.6288,60.5 130.6288,90.782 224.9998,90.782 84.57,0 151.449,-27.274 200.629,-81.723 49.262,-54.488 73.91,-128.519 73.91,-222.027 z M 479.41,602.82 c -0.738,56.559 -16.558,101.641 -47.5,135.309 -30.859,33.641 -71.711,50.473 -122.648,50.473 -57.621,0 -103.75,-16.332 -138.442,-48.903 -34.609,-32.5 -54.492,-78.359 -59.691,-137.5 l 368.281,0.621 z m -351.25,532.34 66.25,0 c 4.141,-28.12 15.32,-49.21 33.442,-63.28 18.128,-13.98 43.476,-20.93 76.097,-20.93 32.18,0 57.223,6.91 75.153,20.78 18.007,13.82 29.449,35 34.378,63.43 l 66.25,0 c -3.75,-53.55 -20.429,-93.82 -50,-120.78 -29.609,-26.989 -71.531,-40.47 -125.781,-40.47 -54.301,0 -96.219,13.481 -125.789,40.47 -29.609,26.96 -46.25,67.23 -50,120.78 z M 311.129,232.199 c 20.633,-23.211 35.98,-44.609 46.101,-64.219 10.071,-19.691 15.149,-38.519 15.149,-56.57 0,-33.3202 -11.25,-58.4686 -33.75,-75.4608 -22.5,-17.0781 -55.859,-25.6289 -100,-25.6289 -17.18,0 -33.981,1.168 -50.309,3.4414 -16.25,2.2969 -32.422,5.6992 -48.441,10.1485 l 0,73.4414 c 12.699,-6.3321 25.98,-10.9414 39.851,-13.75 13.821,-2.8125 29.571,-4.2227 47.18,-4.2227 22.07,0 38.68,4.5313 49.852,13.6016 11.25,8.9805 16.867,22.0315 16.867,39.2185 0,11.25 -4.02,25.071 -12.027,41.403 -8.051,16.25 -20.473,35.777 -37.34,58.597 l 66.867,0 z"
         inkscape:connector-curvature="0"
         id="path14"
         style="fill:#000000;fill-opacity:1;fill-rule:nonzero;stroke:none" /></g></g></svg>