<?xml version="1.0" encoding="UTF-8" standalone="no"?>
<!-- Created with Inkscape (http://www.inkscape.org/) -->

<svg
   xmlns:dc="http://purl.org/dc/elements/1.1/"
   xmlns:cc="http://creativecommons.org/ns#"
   xmlns:rdf="http://www.w3.org/1999/02/22-rdf-syntax-ns#"
   xmlns:svg="http://www.w3.org/2000/svg"
   xmlns="http://www.w3.org/2000/svg"
   xmlns:inkscape="http://www.inkscape.org/namespaces/inkscape"
   version="1.1"
   width="78.75"
   height="126.25"
   id="svg2"
   xml:space="preserve"><metadata
     id="metadata8"><rdf:RDF><cc:Work
         rdf:about=""><dc:format>image/svg+xml</dc:format><dc:type
           rdf:resource="http://purl.org/dc/dcmitype/StillImage" /></cc:Work></rdf:RDF></metadata><defs
     id="defs6" /><g
     transform="matrix(1.25,0,0,-1.25,0,126.25)"
     id="g10"><g
       transform="scale(0.1,0.1)"
       id="g12"><path
         d="m 236.129,884.289 105.633,0 118.437,-149.379 -77.969,0 -93.281,100 -93.289,-100 -77.961,0 118.43,149.379 z m 293.75,118.911 103.75,0 -127.969,-148.29 -85.93,0 110.149,148.29 z M 288.48,582.73 c -55.429,0 -99.218,-21.64 -131.41,-64.851 -32.191,-43.238 -48.281,-102.457 -48.281,-177.649 0,-75.242 15.981,-134.5 47.973,-177.82 32.066,-43.238 75.968,-64.8397 131.718,-64.8397 55.071,0 98.75,21.7187 130.93,65.1597 32.192,43.43 48.289,102.571 48.289,177.5 0,74.45 -16.097,133.469 -48.289,177.032 -32.18,43.629 -75.859,65.468 -130.93,65.468 z m 0,87.649 c 89.879,0 160.469,-29.219 211.719,-87.649 51.25,-58.359 76.871,-139.179 76.871,-242.5 0,-102.929 -25.621,-183.71 -76.871,-242.3511 C 448.949,39.3281 378.359,10.0703 288.48,10.0703 198.238,10.0703 127.578,39.3281 76.4492,97.8789 25.3906,156.52 -0.121094,237.301 -0.121094,340.23 c 0,103.321 25.511694,184.141 76.570294,242.5 51.1288,58.43 121.7888,87.649 212.0308,87.649 z"
         inkscape:connector-curvature="0"
         id="path14"
         style="fill:#000000;fill-opacity:1;fill-rule:nonzero;stroke:none" /></g></g></svg>