<?xml version="1.0" encoding="UTF-8" standalone="no"?>
<!-- Created with Inkscape (http://www.inkscape.org/) -->

<svg
   xmlns:dc="http://purl.org/dc/elements/1.1/"
   xmlns:cc="http://creativecommons.org/ns#"
   xmlns:rdf="http://www.w3.org/1999/02/22-rdf-syntax-ns#"
   xmlns:svg="http://www.w3.org/2000/svg"
   xmlns="http://www.w3.org/2000/svg"
   xmlns:inkscape="http://www.inkscape.org/namespaces/inkscape"
   version="1.1"
   width="82.5"
   height="133.75"
   id="svg2"
   xml:space="preserve"><metadata
     id="metadata8"><rdf:RDF><cc:Work
         rdf:about=""><dc:format>image/svg+xml</dc:format><dc:type
           rdf:resource="http://purl.org/dc/dcmitype/StillImage" /></cc:Work></rdf:RDF></metadata><defs
     id="defs6" /><g
     transform="matrix(1.25,0,0,-1.25,0,133.75)"
     id="g10"><g
       transform="scale(0.1,0.1)"
       id="g12"><path
         d="m 196.641,141.73 103.281,0 0,-131.4097 -103.281,0 0,131.4097 z m 200.781,472.34 c 24.258,-8.242 47.887,-25.859 70.937,-52.808 23.012,-26.992 46.129,-64.063 69.371,-111.25 l 115.161,-229.063 -121.871,0 -107.192,215 c -27.738,56.129 -54.609,93.352 -80.629,111.711 -26.051,18.442 -61.519,27.66 -106.398,27.66 l -123.602,0 0,-354.371 -113.429469,0 0,838.281 256.089469,0 c 95.821,0 167.34,-20.08 214.532,-60.16 47.187,-40 70.781,-100.429 70.781,-181.25 0,-52.808 -12.301,-96.64 -36.871,-131.41 -24.5,-34.801 -60.121,-58.898 -106.879,-72.34 z m -284.223,352.032 0,-297.653 142.66,0 c 54.692,0 95.942,12.571 123.75,37.813 27.891,25.308 41.871,62.5 41.871,111.558 0,49.059 -13.98,86.02 -41.871,110.942 -27.808,24.879 -69.058,37.34 -123.75,37.34 l -142.66,0 z"
         inkscape:connector-curvature="0"
         id="path14"
         style="fill:#000000;fill-opacity:1;fill-rule:nonzero;stroke:none" /></g></g></svg>