<?xml version="1.0" encoding="UTF-8" standalone="no"?>
<!-- Created with Inkscape (http://www.inkscape.org/) -->

<svg
   xmlns:dc="http://purl.org/dc/elements/1.1/"
   xmlns:cc="http://creativecommons.org/ns#"
   xmlns:rdf="http://www.w3.org/1999/02/22-rdf-syntax-ns#"
   xmlns:svg="http://www.w3.org/2000/svg"
   xmlns="http://www.w3.org/2000/svg"
   xmlns:inkscape="http://www.inkscape.org/namespaces/inkscape"
   version="1.1"
   width="46.25"
   height="111.25"
   id="svg2"
   xml:space="preserve"><metadata
     id="metadata8"><rdf:RDF><cc:Work
         rdf:about=""><dc:format>image/svg+xml</dc:format><dc:type
           rdf:resource="http://purl.org/dc/dcmitype/StillImage" /></cc:Work></rdf:RDF></metadata><defs
     id="defs6" /><g
     transform="matrix(1.25,0,0,-1.25,0,111.25)"
     id="g10"><g
       transform="scale(0.1,0.1)"
       id="g12"><path
         d="m 145.078,883.77 103.281,0 0,-130.79 -103.281,0 0,130.79 z M 368.199,542.359 c -11.558,6.762 -24.219,11.719 -37.969,14.84 -13.671,3.211 -28.71,4.852 -45.152,4.852 -58.437,0 -103.277,-19.031 -134.527,-57.031 -31.25,-38.051 -46.879,-92.622 -46.879,-163.75 l 0,-331.2505 -103.902469,0 0,628.9025 103.902469,0 0,-97.652 c 21.758,38.121 50.039,66.441 84.848,85 34.761,18.511 77.07,27.808 126.871,27.808 7.07,0 14.918,-0.469 23.589,-1.406 8.641,-0.942 18.168,-2.344 28.598,-4.223 l 0.621,-106.09 z"
         inkscape:connector-curvature="0"
         id="path14"
         style="fill:#000000;fill-opacity:1;fill-rule:nonzero;stroke:none" /></g></g></svg>