<?xml version="1.0" encoding="UTF-8" standalone="no"?>
<!-- Created with Inkscape (http://www.inkscape.org/) -->

<svg
   xmlns:dc="http://purl.org/dc/elements/1.1/"
   xmlns:cc="http://creativecommons.org/ns#"
   xmlns:rdf="http://www.w3.org/1999/02/22-rdf-syntax-ns#"
   xmlns:svg="http://www.w3.org/2000/svg"
   xmlns="http://www.w3.org/2000/svg"
   xmlns:inkscape="http://www.inkscape.org/namespaces/inkscape"
   version="1.1"
   width="97.5"
   height="156.25"
   id="svg2"
   xml:space="preserve"><metadata
     id="metadata8"><rdf:RDF><cc:Work
         rdf:about=""><dc:format>image/svg+xml</dc:format><dc:type
           rdf:resource="http://purl.org/dc/dcmitype/StillImage" /></cc:Work></rdf:RDF></metadata><defs
     id="defs6" /><g
     transform="matrix(1.25,0,0,-1.25,0,156.25)"
     id="g10"><g
       transform="scale(0.1,0.1)"
       id="g12"><path
         d="m 388.441,787.719 c -82.312,0 -147.742,-30.739 -196.25,-92.188 -48.441,-61.371 -72.66,-145 -72.66,-250.941 0,-105.539 24.219,-189.02 72.66,-250.469 48.508,-61.359 113.938,-92.031 196.25,-92.031 82.379,0 147.579,30.672 195.618,92.031 48.132,61.449 72.191,144.93 72.191,250.469 0,105.941 -24.059,189.57 -72.191,250.941 -48.039,61.449 -113.239,92.188 -195.618,92.188 z m 0,92.191 C 506.02,879.91 600,840.449 670.309,761.621 740.699,682.871 775.941,577.172 775.941,444.59 775.941,312.48 740.699,207.02 670.309,128.191 600,49.4414 506.02,10.0586 388.441,10.0586 270.512,10.0586 176.25,49.3203 105.621,127.871 35.0781,206.512 -0.160156,312.09 -0.160156,444.59 c 0,132.582 35.238256,238.281 105.781156,317.031 70.629,78.828 164.891,118.289 282.82,118.289 z M 335,1094.28 l 105.621,0 118.438,-149.37 -77.969,0 -93.281,100 -93.278,-100 -77.972,0 L 335,1094.28 z m 50.621,52.81 -32.031,18.44 c -9.371,5.31 -16.988,8.95 -22.809,10.94 -5.742,2.07 -10.902,3.12 -15.472,3.12 -13.43,0 -23.899,-4.68 -31.399,-14.06 -7.5,-9.3 -11.25,-22.34 -11.25,-39.22 l 0,-3.44 -70.16,0 c 0,37.82 9.609,67.74 28.91,89.85 19.25,22.07 45,33.12 77.18,33.12 13.519,0 25.98,-1.52 37.351,-4.53 11.438,-2.93 26.129,-9.45 44.059,-19.53 l 32.031,-16.87 c 8.629,-4.93 16.129,-8.52 22.5,-10.79 6.328,-2.18 12.348,-3.28 17.969,-3.28 11.949,0 21.719,4.73 29.219,14.22 7.5,9.57 11.25,22.07 11.25,37.5 l 0,3.28 70.152,0 c -0.742,-37.42 -10.742,-67.26 -30,-89.53 -19.293,-22.3 -44.641,-33.44 -76.09,-33.44 -12.73,0 -24.652,1.49 -35.781,4.54 -11.051,3 -26.25,9.57 -45.629,19.68 z"
         inkscape:connector-curvature="0"
         id="path14"
         style="fill:#000000;fill-opacity:1;fill-rule:nonzero;stroke:none" /></g></g></svg>