<?xml version="1.0" encoding="UTF-8" standalone="no"?>
<!-- Created with Inkscape (http://www.inkscape.org/) -->

<svg
   xmlns:dc="http://purl.org/dc/elements/1.1/"
   xmlns:cc="http://creativecommons.org/ns#"
   xmlns:rdf="http://www.w3.org/1999/02/22-rdf-syntax-ns#"
   xmlns:svg="http://www.w3.org/2000/svg"
   xmlns="http://www.w3.org/2000/svg"
   xmlns:inkscape="http://www.inkscape.org/namespaces/inkscape"
   version="1.1"
   width="72.5"
   height="110"
   id="svg2"
   xml:space="preserve"><metadata
     id="metadata8"><rdf:RDF><cc:Work
         rdf:about=""><dc:format>image/svg+xml</dc:format><dc:type
           rdf:resource="http://purl.org/dc/dcmitype/StillImage" /></cc:Work></rdf:RDF></metadata><defs
     id="defs6" /><g
     transform="matrix(1.25,0,0,-1.25,0,110)"
     id="g10"><g
       transform="scale(0.1,0.1)"
       id="g12"><path
         d="m 253.48,232.18 66.872,0 c -16.872,-22.809 -29.332,-42.418 -37.34,-58.91 -8.051,-16.442 -12.032,-30.5 -12.032,-42.18 0,-17.192 5.071,-30.078 15.309,-38.7502 10.313,-8.6406 25.551,-12.9687 45.781,-12.9687 11.95,0 23.75,1.3984 35.309,4.2187 11.641,2.8086 23.32,7.0313 35,12.6485 l 0,-74.6875 c -14.289,-3.75 -27.77,-6.5625 -40.469,-8.4297 -12.73,-1.8828 -24.68,-2.8203 -35.93,-2.8203 -45.75,0 -79.378,8.2109 -100.941,24.539 -21.488,16.25 -32.187,41.7891 -32.187,76.5582 0,18.051 4.918,36.872 14.847,56.563 10,19.609 25.231,41.019 45.781,64.219 z m 35,556.41 c -55.429,0 -99.218,-21.641 -131.41,-64.852 C 124.879,680.5 108.789,621.281 108.789,546.09 c 0,-75.238 15.981,-134.5 47.973,-177.82 32.066,-43.239 75.968,-64.84 131.718,-64.84 55.071,0 98.75,21.718 130.93,65.16 32.192,43.43 48.289,102.57 48.289,177.5 0,74.449 -16.097,133.469 -48.289,177.031 -32.18,43.629 -75.859,65.469 -130.93,65.469 z m 0,87.648 c 89.879,0 160.469,-29.218 211.719,-87.648 51.25,-58.36 76.871,-139.18 76.871,-242.5 0,-102.93 -25.621,-183.711 -76.871,-242.352 -51.25,-58.547 -121.84,-87.808 -211.719,-87.808 -90.242,0 -160.902,29.261 -212.0308,87.808 -51.0586,58.641 -76.570294,139.422 -76.570294,242.352 0,103.32 25.511694,184.14 76.570294,242.5 51.1288,58.43 121.7888,87.648 212.0308,87.648 z"
         inkscape:connector-curvature="0"
         id="path14"
         style="fill:#000000;fill-opacity:1;fill-rule:nonzero;stroke:none" /></g></g></svg>