<?xml version="1.0" encoding="UTF-8" standalone="no"?>
<!-- Created with Inkscape (http://www.inkscape.org/) -->

<svg
   xmlns:dc="http://purl.org/dc/elements/1.1/"
   xmlns:cc="http://creativecommons.org/ns#"
   xmlns:rdf="http://www.w3.org/1999/02/22-rdf-syntax-ns#"
   xmlns:svg="http://www.w3.org/2000/svg"
   xmlns="http://www.w3.org/2000/svg"
   xmlns:inkscape="http://www.inkscape.org/namespaces/inkscape"
   version="1.1"
   width="68.75"
   height="153.75"
   id="svg2"
   xml:space="preserve"><metadata
     id="metadata8"><rdf:RDF><cc:Work
         rdf:about=""><dc:format>image/svg+xml</dc:format><dc:type
           rdf:resource="http://purl.org/dc/dcmitype/StillImage" /></cc:Work></rdf:RDF></metadata><defs
     id="defs6" /><g
     transform="matrix(1.25,0,0,-1.25,0,153.75)"
     id="g10"><g
       transform="scale(0.1,0.1)"
       id="g12"><path
         d="m -0.230469,848.281 530.152469,0 0,-95.312 -416.723,0 0,-248.278 399.223,0 0,-95.472 -399.223,0 0,-303.75 426.879,0 0,-95.469 -540.308469,0 0,838.281 z M 216.641,1077.97 l 105.629,0 118.429,-149.38 -77.969,0 -93.281,100 -93.277,-100 -77.9728,0 118.4418,149.38 z m 50.629,52.81 -32.04,18.44 c -9.371,5.31 -16.992,8.94 -22.808,10.94 -5.742,2.07 -10.902,3.12 -15.473,3.12 -13.429,0 -23.898,-4.69 -31.398,-14.06 -7.5,-9.3 -11.25,-22.34 -11.25,-39.22 l 0,-3.44 -70.1604,0 c 0,37.82 9.6094,67.74 28.9104,89.85 19.25,22.07 45,33.12 77.179,33.12 13.52,0 25.981,-1.52 37.348,-4.53 11.442,-2.93 26.133,-9.45 44.063,-19.53 l 32.031,-16.88 c 8.629,-4.92 16.129,-8.51 22.5,-10.78 6.328,-2.19 12.348,-3.28 17.969,-3.28 11.949,0 21.718,4.73 29.218,14.22 7.5,9.57 11.25,22.07 11.25,37.5 l 0,3.28 70.161,0 c -0.75,-37.42 -10.75,-67.26 -30,-89.53 -19.301,-22.3 -44.649,-33.44 -76.098,-33.44 -12.731,0 -24.652,1.49 -35.781,4.53 -11.051,3.01 -26.25,9.57 -45.621,19.69 z"
         inkscape:connector-curvature="0"
         id="path14"
         style="fill:#000000;fill-opacity:1;fill-rule:nonzero;stroke:none" /></g></g></svg>