<?xml version="1.0" encoding="UTF-8" standalone="no"?>
<!-- Created with Inkscape (http://www.inkscape.org/) -->

<svg
   xmlns:dc="http://purl.org/dc/elements/1.1/"
   xmlns:cc="http://creativecommons.org/ns#"
   xmlns:rdf="http://www.w3.org/1999/02/22-rdf-syntax-ns#"
   xmlns:svg="http://www.w3.org/2000/svg"
   xmlns="http://www.w3.org/2000/svg"
   xmlns:inkscape="http://www.inkscape.org/namespaces/inkscape"
   version="1.1"
   width="97.5"
   height="153.75"
   id="svg2"
   xml:space="preserve"><metadata
     id="metadata8"><rdf:RDF><cc:Work
         rdf:about=""><dc:format>image/svg+xml</dc:format><dc:type
           rdf:resource="http://purl.org/dc/dcmitype/StillImage" /></cc:Work></rdf:RDF></metadata><defs
     id="defs6" /><g
     transform="matrix(1.25,0,0,-1.25,0,153.75)"
     id="g10"><g
       transform="scale(0.1,0.1)"
       id="g12"><path
         d="m 388.441,787.73 c -82.312,0 -147.742,-30.75 -196.25,-92.191 -48.441,-61.367 -72.66,-145 -72.66,-250.937 0,-105.551 24.219,-189.024 72.66,-250.473 48.508,-61.359 113.938,-92.027 196.25,-92.027 82.379,0 147.579,30.668 195.618,92.027 48.132,61.449 72.191,144.922 72.191,250.473 0,105.937 -24.059,189.57 -72.191,250.937 C 536.02,756.98 470.82,787.73 388.441,787.73 z m 0,92.18 C 506.02,879.91 600,840.461 670.309,761.629 740.699,682.879 775.941,577.18 775.941,444.602 775.941,312.488 740.699,207.02 670.309,128.199 600,49.4492 506.02,10.0703 388.441,10.0703 270.512,10.0703 176.25,49.3281 105.621,127.879 35.0781,206.52 -0.160156,312.102 -0.160156,444.602 c 0,132.578 35.238256,238.277 105.781156,317.027 70.629,78.832 164.891,118.281 282.82,118.281 z m -62.66,343.29 110.16,-148.29 -85.941,0 -129.219,148.29 105,0 z m -100.941,-200 335.941,0 0,-83.13 -335.941,0 0,83.13 z"
         inkscape:connector-curvature="0"
         id="path14"
         style="fill:#000000;fill-opacity:1;fill-rule:nonzero;stroke:none" /></g></g></svg>