<?xml version="1.0" encoding="UTF-8" standalone="no"?>
<!-- Created with Inkscape (http://www.inkscape.org/) -->

<svg
   xmlns:dc="http://purl.org/dc/elements/1.1/"
   xmlns:cc="http://creativecommons.org/ns#"
   xmlns:rdf="http://www.w3.org/1999/02/22-rdf-syntax-ns#"
   xmlns:svg="http://www.w3.org/2000/svg"
   xmlns="http://www.w3.org/2000/svg"
   xmlns:inkscape="http://www.inkscape.org/namespaces/inkscape"
   version="1.1"
   width="67.5"
   height="138.75"
   id="svg2"
   xml:space="preserve"><metadata
     id="metadata8"><rdf:RDF><cc:Work
         rdf:about=""><dc:format>image/svg+xml</dc:format><dc:type
           rdf:resource="http://purl.org/dc/dcmitype/StillImage" /></cc:Work></rdf:RDF></metadata><defs
     id="defs6" /><g
     transform="matrix(1.25,0,0,-1.25,0,138.75)"
     id="g10"><g
       transform="scale(0.1,0.1)"
       id="g12"><path
         d="m 82.5391,1103.9 66.2499,0 c 4.141,-28.13 15.313,-49.22 33.441,-63.28 18.122,-13.99 43.469,-20.94 76.09,-20.94 32.192,0 57.231,6.91 75.16,20.78 18,13.83 29.45,35 34.372,63.44 l 66.25,0 c -3.75,-53.56 -20.43,-93.83 -50,-120.779 -29.614,-26.992 -71.524,-40.473 -125.782,-40.473 -54.3,0 -96.211,13.481 -125.781,40.473 C 102.93,1010.07 86.2891,1050.34 82.5391,1103.9 z M 325.039,537.02 c -83.559,0 -141.41,-9.532 -173.59,-28.59 -32.187,-19.059 -48.289,-51.641 -48.289,-97.66 0,-36.68 12.07,-65.782 36.25,-87.34 24.141,-21.559 57.039,-32.34 98.602,-32.34 57.258,0 103.199,20.308 137.808,60.93 34.571,40.628 51.879,94.609 51.879,162.031 l 0,22.969 -102.66,0 z m 206.09,42.66 0,-358.75 -103.43,0 0,95.468 C 404.141,278.16 374.77,249.988 339.57,231.871 304.34,213.738 261.328,204.68 210.512,204.68 c -64.383,0 -115.5901,18.011 -153.6018,54.058 -38.0391,36.141 -57.031294,84.571 -57.031294,145.313 0,70.711 23.640594,124.07 70.941394,160 47.3787,35.937 118.0507,53.91 212.0317,53.91 l 144.847,0 0,10 c 0,47.578 -15.629,84.379 -46.879,110.309 -31.25,26.019 -75.121,39.07 -131.558,39.07 -35.942,0 -70.942,-4.34 -105,-12.969 -34.063,-8.562 -66.8401,-21.41 -98.2815,-38.601 l 0,95.468 c 37.8086,14.571 74.4495,25.512 109.9995,32.813 35.622,7.269 70.231,10.937 103.899,10.937 90.941,0 158.832,-23.59 203.75,-70.777 45,-47.191 67.5,-118.711 67.5,-214.531 z m -340.617,-437.969 103.277,0 0,-131.4102 -103.277,0 0,131.4102 z"
         inkscape:connector-curvature="0"
         id="path14"
         style="fill:#000000;fill-opacity:1;fill-rule:nonzero;stroke:none" /></g></g></svg>