<?xml version="1.0" encoding="UTF-8" standalone="no"?>
<!-- Created with Inkscape (http://www.inkscape.org/) -->

<svg
   xmlns:dc="http://purl.org/dc/elements/1.1/"
   xmlns:cc="http://creativecommons.org/ns#"
   xmlns:rdf="http://www.w3.org/1999/02/22-rdf-syntax-ns#"
   xmlns:svg="http://www.w3.org/2000/svg"
   xmlns="http://www.w3.org/2000/svg"
   xmlns:inkscape="http://www.inkscape.org/namespaces/inkscape"
   version="1.1"
   width="62.5"
   height="118.75"
   id="svg2"
   xml:space="preserve"><metadata
     id="metadata8"><rdf:RDF><cc:Work
         rdf:about=""><dc:format>image/svg+xml</dc:format><dc:type
           rdf:resource="http://purl.org/dc/dcmitype/StillImage" /></cc:Work></rdf:RDF></metadata><defs
     id="defs6" /><g
     transform="matrix(1.25,0,0,-1.25,0,118.75)"
     id="g10"><g
       transform="scale(0.1,0.1)"
       id="g12"><path
         d="m 446.949,636.629 0,-97.649 c -29.289,15 -59.648,26.25 -91.09,33.75 -31.48,7.5 -64.019,11.25 -97.66,11.25 -51.25,0 -89.758,-7.89 -115.469,-23.601 -25.621,-15.738 -38.429,-39.328 -38.429,-70.777 0,-23.981 9.14,-42.774 27.5,-56.403 18.429,-13.679 55.308,-26.679 110.621,-39.07 l 35.469,-7.809 c 73.32,-15.742 125.39,-37.929 156.25,-66.558 30.937,-28.672 46.41,-68.672 46.41,-120 0,-58.364 -23.129,-104.5315 -69.379,-138.6018 C 365,27.1016 301.48,10.0703 220.551,10.0703 c -33.672,0 -68.75,3.2813 -105.321,9.8399 C 78.75,26.4805 40.3086,36.2383 -0.078125,49.2891 l 0,106.7229 C 38.0508,136.199 75.6211,121.32 112.73,111.32 c 37.071,-9.922 73.79,-14.8395 110.161,-14.8395 48.629,0 86.019,8.3205 112.187,24.9995 26.25,16.641 39.371,40.149 39.371,70.469 0,28.121 -9.488,49.602 -28.429,64.531 -18.872,15 -60.321,29.411 -124.379,43.282 l -35.942,8.437 C 121.719,321.629 75.5508,342.301 47.1094,370.23 18.6719,398.121 4.44922,436.398 4.44922,485.07 c 0,59.141 20.94138,104.84 62.82028,137.032 41.9495,32.187 101.4805,48.277 178.5895,48.277 38.2,0 74.141,-2.809 107.813,-8.43 33.629,-5.629 64.726,-14.07 93.277,-25.32 z m -349.2185,311.25 114.6915,0 0,-114.68 -114.6915,0 0,114.68 z m 285.4685,-1.719 111.723,0 -183.121,-211.25 -85.942,0 157.34,211.25 z"
         inkscape:connector-curvature="0"
         id="path14"
         style="fill:#000000;fill-opacity:1;fill-rule:nonzero;stroke:none" /></g></g></svg>