<?xml version="1.0" encoding="UTF-8" standalone="no"?>
<!-- Created with Inkscape (http://www.inkscape.org/) -->

<svg
   xmlns:dc="http://purl.org/dc/elements/1.1/"
   xmlns:cc="http://creativecommons.org/ns#"
   xmlns:rdf="http://www.w3.org/1999/02/22-rdf-syntax-ns#"
   xmlns:svg="http://www.w3.org/2000/svg"
   xmlns="http://www.w3.org/2000/svg"
   xmlns:inkscape="http://www.inkscape.org/namespaces/inkscape"
   version="1.1"
   width="96.25"
   height="153.75"
   id="svg2"
   xml:space="preserve"><metadata
     id="metadata8"><rdf:RDF><cc:Work
         rdf:about=""><dc:format>image/svg+xml</dc:format><dc:type
           rdf:resource="http://purl.org/dc/dcmitype/StillImage" /></cc:Work></rdf:RDF></metadata><defs
     id="defs6" /><g
     transform="matrix(1.25,0,0,-1.25,0,153.75)"
     id="g10"><g
       transform="scale(0.1,0.1)"
       id="g12"><path
         d="m 384.141,736.559 -153.911,-417.18 308.29,0 -154.379,417.18 z m -64.063,111.722 128.594,0 L 768.199,10 650.23,10 573.828,225 196.02,225 119.609,10 0.078125,10 320.078,848.281 z m 10.621,229.689 105.629,0 118.442,-149.38 -77.969,0 -93.281,100 -93.29,-100 -77.96,0 118.429,149.38 z m 50.629,52.81 -32.027,18.44 c -9.379,5.31 -17,8.94 -22.821,10.94 -5.742,2.07 -10.89,3.12 -15.46,3.12 -13.442,0 -23.911,-4.69 -31.411,-14.06 -7.5,-9.3 -11.25,-22.34 -11.25,-39.22 l 0,-3.44 -70.16,0 c 0,37.82 9.61,67.74 28.91,89.85 19.262,22.07 45,33.12 77.192,33.12 13.508,0 25.969,-1.52 37.34,-4.53 11.449,-2.93 26.129,-9.45 44.058,-19.53 l 32.031,-16.88 c 8.641,-4.92 16.141,-8.51 22.5,-10.78 6.329,-2.19 12.348,-3.28 17.969,-3.28 11.961,0 21.723,4.73 29.223,14.22 7.5,9.57 11.25,22.07 11.25,37.5 l 0,3.28 70.156,0 c -0.738,-37.42 -10.738,-67.26 -30,-89.53 -19.297,-22.3 -44.648,-33.44 -76.098,-33.44 -12.73,0 -24.64,1.49 -35.781,4.53 -11.051,3.01 -26.25,9.57 -45.621,19.69 z"
         inkscape:connector-curvature="0"
         id="path14"
         style="fill:#000000;fill-opacity:1;fill-rule:nonzero;stroke:none" /></g></g></svg>