<?xml version="1.0" encoding="UTF-8" standalone="no"?>
<!-- Created with Inkscape (http://www.inkscape.org/) -->

<svg
   xmlns:dc="http://purl.org/dc/elements/1.1/"
   xmlns:cc="http://creativecommons.org/ns#"
   xmlns:rdf="http://www.w3.org/1999/02/22-rdf-syntax-ns#"
   xmlns:svg="http://www.w3.org/2000/svg"
   xmlns="http://www.w3.org/2000/svg"
   xmlns:inkscape="http://www.inkscape.org/namespaces/inkscape"
   version="1.1"
   width="97.5"
   height="158.75"
   id="svg2"
   xml:space="preserve"><metadata
     id="metadata8"><rdf:RDF><cc:Work
         rdf:about=""><dc:format>image/svg+xml</dc:format><dc:type
           rdf:resource="http://purl.org/dc/dcmitype/StillImage" /></cc:Work></rdf:RDF></metadata><defs
     id="defs6" /><g
     transform="matrix(1.25,0,0,-1.25,0,158.75)"
     id="g10"><g
       transform="scale(0.1,0.1)"
       id="g12"><path
         d="m 224.84,1269.08 335.941,0 0,-83.13 -335.941,0 0,83.13 z m 127.5,-1036.881 66.879,0 c -16.879,-22.808 -29.34,-42.418 -37.34,-58.898 -8.051,-16.449 -12.039,-30.512 -12.039,-42.192 0,-17.187 5.082,-30.078 15.32,-38.7496 10.309,-8.6289 25.539,-12.9688 45.781,-12.9688 11.95,0 23.75,1.4102 35.309,4.2188 11.641,2.8125 23.32,7.0312 35,12.6601 l 0,-74.6914 c -14.301,-3.75 -27.77,-6.5586 -40.469,-8.4375 -12.73,-1.8711 -24.691,-2.8125 -35.941,-2.8125 -45.738,0 -79.371,8.2032 -100.93,24.5313 -21.488,16.25 -32.191,41.8008 -32.191,76.5626 0,18.047 4.922,36.879 14.84,56.558 10,19.61 25.242,41.02 45.781,64.219 z m 36.101,761.41 c -82.312,0 -147.742,-30.738 -196.25,-92.187 -48.441,-61.371 -72.66,-145 -72.66,-250.942 0,-105.539 24.219,-189.019 72.66,-250.46 48.508,-61.372 113.938,-92.04 196.25,-92.04 82.379,0 147.579,30.668 195.618,92.04 48.132,61.441 72.191,144.921 72.191,250.46 0,105.942 -24.059,189.571 -72.191,250.942 -48.039,61.449 -113.239,92.187 -195.618,92.187 z m 0,92.191 C 506.02,1085.8 600,1046.34 670.309,967.52 740.699,888.77 775.941,783.059 775.941,650.48 775.941,518.379 740.699,412.91 670.309,334.078 600,255.328 506.02,215.949 388.441,215.949 270.512,215.949 176.25,255.211 105.621,333.77 35.0781,412.398 -0.160156,517.98 -0.160156,650.48 c 0,132.579 35.238256,238.29 105.781156,317.04 70.629,78.82 164.891,118.28 282.82,118.28 z"
         inkscape:connector-curvature="0"
         id="path14"
         style="fill:#000000;fill-opacity:1;fill-rule:nonzero;stroke:none" /></g></g></svg>