<?xml version="1.0" encoding="UTF-8" standalone="no"?>
<!-- Created with Inkscape (http://www.inkscape.org/) -->

<svg
   xmlns:dc="http://purl.org/dc/elements/1.1/"
   xmlns:cc="http://creativecommons.org/ns#"
   xmlns:rdf="http://www.w3.org/1999/02/22-rdf-syntax-ns#"
   xmlns:svg="http://www.w3.org/2000/svg"
   xmlns="http://www.w3.org/2000/svg"
   xmlns:inkscape="http://www.inkscape.org/namespaces/inkscape"
   version="1.1"
   width="77.5"
   height="141.25"
   id="svg2"
   xml:space="preserve"><metadata
     id="metadata8"><rdf:RDF><cc:Work
         rdf:about=""><dc:format>image/svg+xml</dc:format><dc:type
           rdf:resource="http://purl.org/dc/dcmitype/StillImage" /></cc:Work></rdf:RDF></metadata><defs
     id="defs6" /><g
     transform="matrix(1.25,0,0,-1.25,0,141.25)"
     id="g10"><g
       transform="scale(0.1,0.1)"
       id="g12"><path
         d="m 255.391,1123.39 103.281,0 0,-130.781 -103.281,0 0,130.781 z M 335.699,191.199 C 306.52,116.32 278.09,67.4492 250.391,44.6406 222.66,21.8281 185.59,10.4219 139.141,10.4219 l -82.5004,0 0,86.4062 60.6294,0 c 28.429,0 50.5,6.8009 66.25,20.3129 15.699,13.437 33.16,45.269 52.339,95.468 l 18.442,47.192 -254.379125,618.75 109.527125,0 196.571,-491.879 196.558,491.879 109.371,0 -276.25,-687.352 z"
         inkscape:connector-curvature="0"
         id="path14"
         style="fill:#000000;fill-opacity:1;fill-rule:nonzero;stroke:none" /></g></g></svg>