<?xml version="1.0" encoding="UTF-8" standalone="no"?>
<!-- Created with Inkscape (http://www.inkscape.org/) -->

<svg
   xmlns:dc="http://purl.org/dc/elements/1.1/"
   xmlns:cc="http://creativecommons.org/ns#"
   xmlns:rdf="http://www.w3.org/1999/02/22-rdf-syntax-ns#"
   xmlns:svg="http://www.w3.org/2000/svg"
   xmlns="http://www.w3.org/2000/svg"
   xmlns:inkscape="http://www.inkscape.org/namespaces/inkscape"
   version="1.1"
   width="73.75"
   height="137.5"
   id="svg2"
   xml:space="preserve"><metadata
     id="metadata8"><rdf:RDF><cc:Work
         rdf:about=""><dc:format>image/svg+xml</dc:format><dc:type
           rdf:resource="http://purl.org/dc/dcmitype/StillImage" /></cc:Work></rdf:RDF></metadata><defs
     id="defs6" /><g
     transform="matrix(1.25,0,0,-1.25,0,137.5)"
     id="g10"><g
       transform="scale(0.1,0.1)"
       id="g12"><path
         d="m 367.5,1093.2 103.75,0 -127.969,-148.278 -85.941,0 110.16,148.278 z m -268.2812,4.85 114.6912,0 0,-115.159 -114.6912,0 0,115.159 z m 440.3122,-260.941 0,-110.629 C 496.41,747.109 455.699,762.461 417.5,772.578 379.379,782.66 342.539,787.73 307.031,787.73 245.23,787.73 197.578,775.738 164.059,751.801 130.621,727.809 113.91,693.75 113.91,649.609 113.91,612.5 125,584.488 147.191,565.551 169.449,546.68 211.719,531.48 273.91,519.922 l 68.43,-14.063 c 84.691,-16.058 147.109,-44.379 187.351,-85 C 569.879,380.23 590,325.859 590,257.73 590,176.48 562.73,114.84 508.281,72.8906 453.789,31.0195 373.98,10.0781 268.91,10.0781 c -39.691,0 -81.961,4.4922 -126.719,13.4414 C 97.5,32.4609 51.1719,45.7383 3.28125,63.3594 l 0,116.8706 C 49.3008,154.379 94.4102,134.922 138.59,121.801 c 44.14,-13.129 87.582,-19.692 130.32,-19.692 64.68,0 114.61,12.692 149.84,38.121 35.199,25.508 52.809,61.879 52.809,109.071 0,41.129 -12.649,73.32 -37.969,96.558 -25.231,23.2 -66.68,40.621 -124.371,52.192 L 240.16,411.48 c -84.609,16.879 -145.7811,43.29 -183.6014,79.219 -37.8086,35.942 -56.718756,85.942 -56.718756,150 0,74.071 26.101556,132.422 78.281256,175.16 52.2699,42.692 124.2579,64.063 215.9379,64.063 39.382,0 79.421,-3.594 120.16,-10.781 40.82,-7.11 82.582,-17.77 125.312,-32.032 z"
         inkscape:connector-curvature="0"
         id="path14"
         style="fill:#000000;fill-opacity:1;fill-rule:nonzero;stroke:none" /></g></g></svg>