<?xml version="1.0" encoding="UTF-8" standalone="no"?>
<!-- Created with Inkscape (http://www.inkscape.org/) -->

<svg
   xmlns:dc="http://purl.org/dc/elements/1.1/"
   xmlns:cc="http://creativecommons.org/ns#"
   xmlns:rdf="http://www.w3.org/1999/02/22-rdf-syntax-ns#"
   xmlns:svg="http://www.w3.org/2000/svg"
   xmlns="http://www.w3.org/2000/svg"
   xmlns:inkscape="http://www.inkscape.org/namespaces/inkscape"
   version="1.1"
   width="100"
   height="111.25"
   id="svg2"
   xml:space="preserve"><metadata
     id="metadata8"><rdf:RDF><cc:Work
         rdf:about=""><dc:format>image/svg+xml</dc:format><dc:type
           rdf:resource="http://purl.org/dc/dcmitype/StillImage" /></cc:Work></rdf:RDF></metadata><defs
     id="defs6" /><g
     transform="matrix(1.25,0,0,-1.25,0,111.25)"
     id="g10"><g
       transform="scale(0.1,0.1)"
       id="g12"><path
         d="m 732.191,464.281 0,-167.34 67.809,0 0,-49.382 -67.809,0 0,-143.118 C 688.32,73.2695 640,49.75 587.191,33.8086 534.449,17.9883 478.16,10.0586 418.281,10.0586 287.23,10.0586 184.73,48.3398 110.781,124.91 36.8008,201.469 -0.160156,308.031 -0.160156,444.59 c 0,137.07 36.960956,243.91 110.941156,320.469 73.949,76.562 176.449,114.851 307.5,114.851 54.571,0 106.449,-6.801 155.629,-20.32 49.25,-13.43 94.68,-33.281 136.25,-59.531 l 0,-120.618 c -41.879,35.508 -86.41,62.219 -133.601,80.149 -47.18,18.012 -96.789,27.031 -148.75,27.031 -102.61,0 -179.649,-28.672 -231.09,-85.93 -51.489,-57.312 -77.188,-142.66 -77.188,-256.101 0,-113.039 25.699,-198.199 77.188,-255.469 51.441,-57.301 128.48,-85.93 231.09,-85.93 40,0 75.711,3.43 107.191,10.309 31.449,6.949 59.73,17.73 84.84,32.34 l 0,101.719 -142.031,0 0,49.382 142.031,0 0,74.219 -185.309,0 0,93.121 297.66,0 z"
         inkscape:connector-curvature="0"
         id="path14"
         style="fill:#000000;fill-opacity:1;fill-rule:nonzero;stroke:none" /></g></g></svg>