<?xml version="1.0" encoding="UTF-8" standalone="no"?>
<!-- Created with Inkscape (http://www.inkscape.org/) -->

<svg
   xmlns:dc="http://purl.org/dc/elements/1.1/"
   xmlns:cc="http://creativecommons.org/ns#"
   xmlns:rdf="http://www.w3.org/1999/02/22-rdf-syntax-ns#"
   xmlns:svg="http://www.w3.org/2000/svg"
   xmlns="http://www.w3.org/2000/svg"
   xmlns:inkscape="http://www.inkscape.org/namespaces/inkscape"
   version="1.1"
   width="61.25"
   height="113.75"
   id="svg2"
   xml:space="preserve"><metadata
     id="metadata8"><rdf:RDF><cc:Work
         rdf:about=""><dc:format>image/svg+xml</dc:format><dc:type
           rdf:resource="http://purl.org/dc/dcmitype/StillImage" /></cc:Work></rdf:RDF></metadata><defs
     id="defs6" /><g
     transform="matrix(1.25,0,0,-1.25,0,113.75)"
     id="g10"><g
       transform="scale(0.1,0.1)"
       id="g12"><path
         d="m 197.27,900.078 103.281,0 0,-130.777 -103.281,0 0,130.777 z m 249.679,-263.437 0,-97.661 c -29.289,15 -59.648,26.25 -91.09,33.75 -31.48,7.5 -64.019,11.25 -97.66,11.25 -51.25,0 -89.758,-7.89 -115.469,-23.589 -25.621,-15.743 -38.429,-39.34 -38.429,-70.782 0,-23.988 9.14,-42.769 27.5,-56.41 18.429,-13.668 55.308,-26.679 110.621,-39.058 l 35.469,-7.813 c 73.32,-15.738 125.39,-37.93 156.25,-66.558 30.937,-28.68 46.41,-68.68 46.41,-120 0,-58.36 -23.129,-104.5395 -69.379,-138.5981 C 365,27.1094 301.48,10.0781 220.551,10.0781 c -33.672,0 -68.75,3.2813 -105.321,9.8438 C 78.75,26.4805 40.3086,36.25 -0.078125,49.3008 l 0,106.7192 C 38.0508,136.211 75.6211,121.328 112.73,111.328 c 37.071,-9.918 73.79,-14.8475 110.161,-14.8475 48.629,0 86.019,8.3205 112.187,24.9995 26.25,16.641 39.371,40.161 39.371,70.469 0,28.129 -9.488,49.61 -28.429,64.531 -18.872,15 -60.321,29.418 -124.379,43.29 l -35.942,8.429 C 121.719,321.641 75.5508,342.301 47.1094,370.23 18.6719,398.121 4.44922,436.41 4.44922,485.078 c 0,59.141 20.94138,104.844 62.82028,137.031 41.9495,32.192 101.4805,48.282 178.5895,48.282 38.2,0 74.141,-2.813 107.813,-8.442 33.629,-5.621 64.726,-14.058 93.277,-25.308 z"
         inkscape:connector-curvature="0"
         id="path14"
         style="fill:#000000;fill-opacity:1;fill-rule:nonzero;stroke:none" /></g></g></svg>