<?xml version="1.0" encoding="UTF-8" standalone="no"?>
<!-- Created with Inkscape (http://www.inkscape.org/) -->

<svg
   xmlns:dc="http://purl.org/dc/elements/1.1/"
   xmlns:cc="http://creativecommons.org/ns#"
   xmlns:rdf="http://www.w3.org/1999/02/22-rdf-syntax-ns#"
   xmlns:svg="http://www.w3.org/2000/svg"
   xmlns="http://www.w3.org/2000/svg"
   xmlns:inkscape="http://www.inkscape.org/namespaces/inkscape"
   version="1.1"
   width="88.75"
   height="135"
   id="svg2"
   xml:space="preserve"><metadata
     id="metadata8"><rdf:RDF><cc:Work
         rdf:about=""><dc:format>image/svg+xml</dc:format><dc:type
           rdf:resource="http://purl.org/dc/dcmitype/StillImage" /></cc:Work></rdf:RDF></metadata><defs
     id="defs6" /><g
     transform="matrix(1.25,0,0,-1.25,0,135)"
     id="g10"><g
       transform="scale(0.1,0.1)"
       id="g12"><path
         d="m 113.199,976.23 0,-651.878 137.031,0 c 115.711,0 200.391,26.168 254.071,78.597 53.75,52.379 80.621,135.071 80.621,248.121 0,112.27 -26.871,194.532 -80.621,246.719 -53.68,52.262 -138.36,78.441 -254.071,78.441 l -137.031,0 z m -113.429469,93.12 233.121469,0 c 162.379,0 281.597,-33.83 357.66,-101.401 76.008,-67.5 114.058,-173.129 114.058,-316.879 0,-144.492 -38.238,-250.621 -114.687,-318.441 C 513.551,264.898 394.531,231.07 232.891,231.07 l -233.121469,0 0,838.28 z M 271.641,231.07 c 20.629,-23.199 35.98,-44.609 46.089,-64.218 10.079,-19.692 15.161,-38.512 15.161,-56.563 0,-33.3202 -11.25,-58.4804 -33.75,-75.4687 -22.5,-17.0703 -55.86,-25.62108 -100,-25.62108 -17.192,0 -33.981,1.17188 -50.313,3.42968 -16.25,2.3125 -32.418,5.7109 -48.437,10.1602 l 0,73.4414 c 12.699,-6.3321 25.98,-10.9414 39.839,-13.75 13.829,-2.8203 29.571,-4.2188 47.192,-4.2188 22.066,0 38.668,4.5274 49.848,13.5899 11.25,8.9884 16.871,22.0274 16.871,39.2184 0,11.25 -4.02,25.078 -12.032,41.41 -8.05,16.25 -20.468,35.782 -37.339,58.59 l 66.871,0 z"
         inkscape:connector-curvature="0"
         id="path14"
         style="fill:#000000;fill-opacity:1;fill-rule:nonzero;stroke:none" /></g></g></svg>