<?xml version="1.0" encoding="UTF-8" standalone="no"?>
<!-- Created with Inkscape (http://www.inkscape.org/) -->

<svg
   xmlns:dc="http://purl.org/dc/elements/1.1/"
   xmlns:cc="http://creativecommons.org/ns#"
   xmlns:rdf="http://www.w3.org/1999/02/22-rdf-syntax-ns#"
   xmlns:svg="http://www.w3.org/2000/svg"
   xmlns="http://www.w3.org/2000/svg"
   xmlns:inkscape="http://www.inkscape.org/namespaces/inkscape"
   version="1.1"
   width="78.75"
   height="120"
   id="svg2"
   xml:space="preserve"><metadata
     id="metadata8"><rdf:RDF><cc:Work
         rdf:about=""><dc:format>image/svg+xml</dc:format><dc:type
           rdf:resource="http://purl.org/dc/dcmitype/StillImage" /></cc:Work></rdf:RDF></metadata><defs
     id="defs6" /><g
     transform="matrix(1.25,0,0,-1.25,0,120)"
     id="g10"><g
       transform="scale(0.1,0.1)"
       id="g12"><path
         d="m 400.82,588.328 0,66.723 c 22.891,-16.801 42.578,-29.223 59.059,-37.352 16.449,-8.039 30.473,-12.027 42.031,-12.027 17.27,0 30.199,5.156 38.75,15.469 8.641,10.308 12.969,25.55 12.969,45.781 0,11.949 -1.399,23.75 -4.219,35.308 -2.808,11.641 -7.031,23.29 -12.648,34.848 l 74.687,0 c 3.75,-14.297 6.563,-27.777 8.43,-40.469 1.883,-12.738 2.82,-24.687 2.82,-35.937 0,-45.621 -8.211,-79.223 -24.539,-100.781 -16.25,-21.481 -41.789,-32.192 -76.558,-32.192 -17.93,0 -36.723,4.922 -56.403,14.852 -19.687,9.879 -41.179,25.148 -64.379,45.777 z m -115.16,-5.629 c -55.43,0 -99.211,-21.64 -131.398,-64.84 -32.192,-43.238 -48.282,-102.461 -48.282,-177.66 0,-75.23 15.969,-134.488 47.969,-177.808 32.071,-43.243 75.973,-64.8402 131.711,-64.8402 55.078,0 98.75,21.7192 130.942,65.1482 32.187,43.442 48.277,102.582 48.277,177.5 0,74.461 -16.09,133.481 -48.277,177.031 -32.192,43.641 -75.864,65.469 -130.942,65.469 z m 0,87.66 c 89.891,0 160.469,-29.218 211.719,-87.66 51.25,-58.359 76.883,-139.179 76.883,-242.5 0,-102.929 -25.633,-183.711 -76.883,-242.3396 C 446.129,39.3008 375.551,10.0508 285.66,10.0508 c -90.23,0 -160.89,29.25 -212.0311,87.8086 C 22.5781,156.488 -2.92969,237.27 -2.92969,340.199 c 0,103.321 25.50779,184.141 76.55859,242.5 51.1411,58.442 121.8011,87.66 212.0311,87.66 z M 183.32,929.27 c 41.879,19.058 82.418,28.589 121.719,28.589 38.941,0 70.313,-7.968 94.063,-23.91 23.828,-15.859 35.777,-36.328 35.777,-61.398 0,-22.821 -16.52,-46.41 -49.527,-70.781 L 360.66,783.801 c -13.121,-9.692 -20.43,-16.25 -21.871,-19.692 -2.617,-5.937 -3.91,-14.918 -3.91,-26.879 l -66.867,0 0,6.719 c 0,15 2.808,27.539 8.437,37.66 5.621,10.082 17.961,22.071 37.031,35.942 l 25.309,19.058 c 17.191,12.692 25.781,26.563 25.781,41.563 0,7.808 -5.781,15.078 -17.34,21.879 -11.57,6.75 -30.71,10.148 -57.351,10.148 -33.668,0 -69.18,-9.758 -106.559,-29.219 l 0,48.29 z"
         inkscape:connector-curvature="0"
         id="path14"
         style="fill:#000000;fill-opacity:1;fill-rule:nonzero;stroke:none" /></g></g></svg>