<?xml version="1.0" encoding="UTF-8" standalone="no"?>
<!-- Created with Inkscape (http://www.inkscape.org/) -->

<svg
   xmlns:dc="http://purl.org/dc/elements/1.1/"
   xmlns:cc="http://creativecommons.org/ns#"
   xmlns:rdf="http://www.w3.org/1999/02/22-rdf-syntax-ns#"
   xmlns:svg="http://www.w3.org/2000/svg"
   xmlns="http://www.w3.org/2000/svg"
   xmlns:inkscape="http://www.inkscape.org/namespaces/inkscape"
   version="1.1"
   width="71.25"
   height="147.5"
   id="svg2"
   xml:space="preserve"><metadata
     id="metadata8"><rdf:RDF><cc:Work
         rdf:about=""><dc:format>image/svg+xml</dc:format><dc:type
           rdf:resource="http://purl.org/dc/dcmitype/StillImage" /></cc:Work></rdf:RDF></metadata><defs
     id="defs6" /><g
     transform="matrix(1.25,0,0,-1.25,0,147.5)"
     id="g10"><g
       transform="scale(0.1,0.1)"
       id="g12"><path
         d="m 103.672,344.012 0,-333.6018 -103.902469,0 0,868.1288 103.902469,0 0,-95.469 c 21.758,37.379 49.219,65.16 82.348,83.282 33.121,18.199 72.691,27.347 118.75,27.347 76.32,0 138.351,-30.32 186.089,-90.937 47.692,-60.633 71.563,-140.391 71.563,-239.223 0,-98.867 -23.871,-178.59 -71.563,-239.219 -47.738,-60.621 -109.769,-90.941 -186.089,-90.941 -46.059,0 -85.629,9.07 -118.75,27.191 -33.129,18.129 -60.59,45.942 -82.348,83.442 z M 455.23,563.539 c 0,75.941 -15.621,135.512 -46.871,178.75 -31.25,43.32 -74.218,65 -128.91,65 -54.679,0 -97.648,-21.68 -128.898,-65 -31.25,-43.238 -46.879,-102.809 -46.879,-178.75 0,-76.059 15.629,-135.699 46.879,-178.91 31.25,-43.238 74.219,-64.84 128.898,-64.84 54.692,0 97.66,21.602 128.91,64.84 31.25,43.211 46.871,102.851 46.871,178.91 z m -164.21,605.941 111.71,0 -183.121,-211.25 -85.937,0 157.348,211.25 z"
         inkscape:connector-curvature="0"
         id="path14"
         style="fill:#000000;fill-opacity:1;fill-rule:nonzero;stroke:none" /></g></g></svg>