<?xml version="1.0" encoding="UTF-8" standalone="no"?>
<!-- Created with Inkscape (http://www.inkscape.org/) -->

<svg
   xmlns:dc="http://purl.org/dc/elements/1.1/"
   xmlns:cc="http://creativecommons.org/ns#"
   xmlns:rdf="http://www.w3.org/1999/02/22-rdf-syntax-ns#"
   xmlns:svg="http://www.w3.org/2000/svg"
   xmlns="http://www.w3.org/2000/svg"
   xmlns:inkscape="http://www.inkscape.org/namespaces/inkscape"
   version="1.1"
   width="67.5"
   height="143.75"
   id="svg2"
   xml:space="preserve"><metadata
     id="metadata8"><rdf:RDF><cc:Work
         rdf:about=""><dc:format>image/svg+xml</dc:format><dc:type
           rdf:resource="http://purl.org/dc/dcmitype/StillImage" /></cc:Work></rdf:RDF></metadata><defs
     id="defs6" /><g
     transform="matrix(1.25,0,0,-1.25,0,143.75)"
     id="g10"><g
       transform="scale(0.1,0.1)"
       id="g12"><path
         d="m 325.039,537.039 c -83.559,0 -141.41,-9.527 -173.59,-28.59 -32.187,-19.07 -48.289,-51.648 -48.289,-97.66 0,-36.68 12.07,-65.777 36.25,-87.34 24.141,-21.57 57.039,-32.347 98.602,-32.347 57.258,0 103.199,20.308 137.808,60.937 34.571,40.621 51.879,94.609 51.879,162.031 l 0,22.969 -102.66,0 z m 206.09,42.66 0,-358.75 -103.43,0 0,95.461 c -23.558,-38.238 -52.929,-66.398 -88.129,-84.531 -35.23,-18.117 -78.242,-27.18 -129.058,-27.18 -64.383,0 -115.5901,18 -153.6018,54.063 -38.0391,36.129 -57.031294,84.566 -57.031294,145.308 0,70.7 23.640594,124.059 70.941394,160 47.3787,35.942 118.0507,53.91 212.0317,53.91 l 144.847,0 0,10 c 0,47.571 -15.629,84.372 -46.879,110.309 -31.25,26.012 -75.121,39.063 -131.558,39.063 -35.942,0 -70.942,-4.332 -105,-12.973 -34.063,-8.551 -66.8401,-21.399 -98.2815,-38.59 l 0,95.473 c 37.8086,14.566 74.4495,25.508 109.9995,32.808 35.622,7.27 70.231,10.942 103.899,10.942 90.941,0 158.832,-23.602 203.75,-70.782 45,-47.191 67.5,-118.71 67.5,-214.531 z m -304.367,561.091 83.117,0 137.5,-211.251 -77.969,0 -101.09,137.661 -101.09,-137.661 -77.9683,0 137.5003,211.251 z m -46.25,-999.06 103.277,0 0,-131.4097 -103.277,0 0,131.4097 z"
         inkscape:connector-curvature="0"
         id="path14"
         style="fill:#000000;fill-opacity:1;fill-rule:nonzero;stroke:none" /></g></g></svg>