<?xml version="1.0" encoding="UTF-8" standalone="no"?>
<!-- Created with Inkscape (http://www.inkscape.org/) -->

<svg
   xmlns:dc="http://purl.org/dc/elements/1.1/"
   xmlns:cc="http://creativecommons.org/ns#"
   xmlns:rdf="http://www.w3.org/1999/02/22-rdf-syntax-ns#"
   xmlns:svg="http://www.w3.org/2000/svg"
   xmlns="http://www.w3.org/2000/svg"
   xmlns:inkscape="http://www.inkscape.org/namespaces/inkscape"
   version="1.1"
   width="73.75"
   height="160"
   id="svg2"
   xml:space="preserve"><metadata
     id="metadata8"><rdf:RDF><cc:Work
         rdf:about=""><dc:format>image/svg+xml</dc:format><dc:type
           rdf:resource="http://purl.org/dc/dcmitype/StillImage" /></cc:Work></rdf:RDF></metadata><defs
     id="defs6" /><g
     transform="matrix(1.25,0,0,-1.25,0,160)"
     id="g10"><g
       transform="scale(0.1,0.1)"
       id="g12"><path
         d="m 239.219,1272.67 114.691,0 0,-115.15 -114.691,0 0,115.15 z m -5.469,-1130.94 103.281,0 0,-131.4019 -103.281,0 0,131.4019 z m 305.781,890 0,-110.621 c -43.121,20.621 -83.832,35.981 -122.031,46.09 -38.121,10.082 -74.961,15.16 -110.469,15.16 -61.801,0 -109.453,-11.988 -142.972,-35.937 -33.438,-23.981 -50.149,-58.043 -50.149,-102.192 0,-37.101 11.09,-65.109 33.281,-84.058 22.258,-18.871 64.528,-34.063 126.719,-45.621 l 68.43,-14.071 c 84.691,-16.05 147.109,-44.371 187.351,-85 C 569.879,574.859 590,520.48 590,452.359 590,371.109 562.73,309.469 508.281,267.52 453.789,225.641 373.98,204.699 268.91,204.699 c -39.691,0 -81.961,4.5 -126.719,13.442 C 97.5,227.09 51.1719,240.371 3.28125,257.98 l 0,116.879 C 49.3008,349 94.4102,329.551 138.59,316.422 c 44.14,-13.121 87.582,-19.692 130.32,-19.692 64.68,0 114.61,12.7 149.84,38.129 35.199,25.512 52.809,61.871 52.809,109.063 0,41.129 -12.649,73.316 -37.969,96.558 -25.231,23.211 -66.68,40.629 -124.371,52.192 L 240.16,606.109 C 155.551,622.98 94.3789,649.391 56.5586,685.328 18.75,721.27 -0.160156,771.27 -0.160156,835.328 c 0,74.063 26.101556,132.422 78.281256,175.152 52.2699,42.7 124.2579,64.07 215.9379,64.07 39.382,0 79.421,-3.6 120.16,-10.78 40.82,-7.11 82.582,-17.78 125.312,-32.04 z"
         inkscape:connector-curvature="0"
         id="path14"
         style="fill:#000000;fill-opacity:1;fill-rule:nonzero;stroke:none" /></g></g></svg>