<?xml version="1.0" encoding="UTF-8" standalone="no"?>
<!-- Created with Inkscape (http://www.inkscape.org/) -->

<svg
   xmlns:dc="http://purl.org/dc/elements/1.1/"
   xmlns:cc="http://creativecommons.org/ns#"
   xmlns:rdf="http://www.w3.org/1999/02/22-rdf-syntax-ns#"
   xmlns:svg="http://www.w3.org/2000/svg"
   xmlns="http://www.w3.org/2000/svg"
   xmlns:inkscape="http://www.inkscape.org/namespaces/inkscape"
   version="1.1"
   width="71.25"
   height="136.25"
   id="svg2"
   xml:space="preserve"><metadata
     id="metadata8"><rdf:RDF><cc:Work
         rdf:about=""><dc:format>image/svg+xml</dc:format><dc:type
           rdf:resource="http://purl.org/dc/dcmitype/StillImage" /></cc:Work></rdf:RDF></metadata><defs
     id="defs6" /><g
     transform="matrix(1.25,0,0,-1.25,0,136.25)"
     id="g10"><g
       transform="scale(0.1,0.1)"
       id="g12"><path
         d="m -3.82813,1080.05 103.27733,0 0,-130.78 -103.27733,0 0,130.78 z M 456.328,340.199 c 0,75.942 -15.629,135.512 -46.879,178.75 -31.25,43.321 -74.219,65 -128.898,65 -54.692,0 -97.66,-21.679 -128.91,-65 -31.25,-43.238 -46.871,-102.808 -46.871,-178.75 0,-76.051 15.621,-135.699 46.871,-178.898 31.25,-43.25 74.218,-64.8518 128.91,-64.8518 54.679,0 97.648,21.6018 128.898,64.8518 31.25,43.199 46.879,102.847 46.879,178.898 z M 104.77,559.73 c 21.75,37.391 49.21,65.161 82.339,83.29 33.121,18.199 72.692,27.339 118.75,27.339 76.332,0 138.36,-30.308 186.09,-90.937 47.699,-60.621 71.571,-140.391 71.571,-239.223 0,-98.859 -23.872,-178.59 -71.571,-239.219 -47.73,-60.6206 -109.758,-90.9292 -186.09,-90.9292 -46.058,0 -85.629,9.0586 -118.75,27.1797 C 153.98,55.3594 126.52,83.1719 104.77,120.672 l 0,-94.3712 -103.910625,0 0,873.7502 103.910625,0 0,-340.321 z"
         inkscape:connector-curvature="0"
         id="path14"
         style="fill:#000000;fill-opacity:1;fill-rule:nonzero;stroke:none" /></g></g></svg>