<?xml version="1.0" encoding="UTF-8" standalone="no"?>
<!-- Created with Inkscape (http://www.inkscape.org/) -->

<svg
   xmlns:dc="http://purl.org/dc/elements/1.1/"
   xmlns:cc="http://creativecommons.org/ns#"
   xmlns:rdf="http://www.w3.org/1999/02/22-rdf-syntax-ns#"
   xmlns:svg="http://www.w3.org/2000/svg"
   xmlns="http://www.w3.org/2000/svg"
   xmlns:inkscape="http://www.inkscape.org/namespaces/inkscape"
   version="1.1"
   width="66.25"
   height="120"
   id="svg2"
   xml:space="preserve"><metadata
     id="metadata8"><rdf:RDF><cc:Work
         rdf:about=""><dc:format>image/svg+xml</dc:format><dc:type
           rdf:resource="http://purl.org/dc/dcmitype/StillImage" /></cc:Work></rdf:RDF></metadata><defs
     id="defs6" /><g
     transform="matrix(1.25,0,0,-1.25,0,120)"
     id="g10"><g
       transform="scale(0.1,0.1)"
       id="g12"><path
         d="m -0.230469,274.422 0,380.777 103.429469,0 0,-376.719 c 0,-59.609 11.571,-104.289 34.692,-134.058 23.199,-29.692 58.05,-44.5314 104.531,-44.5314 55.699,0 99.769,17.7304 132.187,53.2814 32.379,35.629 48.59,84.098 48.59,145.469 l 0,356.558 103.281,0 0,-628.8982 -103.281,0 0,96.5582 C 398.09,84.7305 368.98,56.3711 335.859,37.8594 302.73,19.3398 264.301,10.0508 220.551,10.0508 148.238,10.0508 93.3594,32.4688 55.8594,77.3906 18.4414,122.27 -0.230469,187.941 -0.230469,274.422 z M 151.801,929.27 c 41.871,19.058 82.418,28.589 121.719,28.589 38.941,0 70.308,-7.968 94.058,-23.91 23.832,-15.859 35.781,-36.328 35.781,-61.398 0,-22.821 -16.519,-46.41 -49.531,-70.781 l -24.687,-17.969 c -13.121,-9.692 -20.43,-16.25 -21.871,-19.692 -2.622,-5.937 -3.911,-14.918 -3.911,-26.879 l -66.879,0 0,6.719 c 0,15 2.821,27.539 8.442,37.66 5.629,10.082 17.969,22.071 37.027,35.942 l 25.321,19.058 c 17.179,12.692 25.781,26.563 25.781,41.563 0,7.808 -5.781,15.078 -17.352,21.879 -11.558,6.75 -30.699,10.148 -57.34,10.148 -33.668,0 -69.179,-9.758 -106.558,-29.219 l 0,48.29 z"
         inkscape:connector-curvature="0"
         id="path14"
         style="fill:#000000;fill-opacity:1;fill-rule:nonzero;stroke:none" /></g></g></svg>