<?xml version="1.0" encoding="UTF-8" standalone="no"?>
<!-- Created with Inkscape (http://www.inkscape.org/) -->

<svg
   xmlns:dc="http://purl.org/dc/elements/1.1/"
   xmlns:cc="http://creativecommons.org/ns#"
   xmlns:rdf="http://www.w3.org/1999/02/22-rdf-syntax-ns#"
   xmlns:svg="http://www.w3.org/2000/svg"
   xmlns="http://www.w3.org/2000/svg"
   xmlns:inkscape="http://www.inkscape.org/namespaces/inkscape"
   version="1.1"
   width="96.25"
   height="152.5"
   id="svg2"
   xml:space="preserve"><metadata
     id="metadata8"><rdf:RDF><cc:Work
         rdf:about=""><dc:format>image/svg+xml</dc:format><dc:type
           rdf:resource="http://purl.org/dc/dcmitype/StillImage" /></cc:Work></rdf:RDF></metadata><defs
     id="defs6" /><g
     transform="matrix(1.25,0,0,-1.25,0,152.5)"
     id="g10"><g
       transform="scale(0.1,0.1)"
       id="g12"><path
         d="M 384.141,736.551 230.23,319.359 l 308.29,0 -154.379,417.192 z m -64.063,111.719 128.594,0 319.527,-838.28953 -117.969,0 L 573.828,224.98 196.02,224.98 119.609,9.98047 0.078125,9.98047 320.078,848.27 z m 140.621,334.68 c 41.879,19.07 82.422,28.6 121.723,28.6 38.949,0 70.308,-7.97 94.058,-23.91 23.829,-15.86 35.79,-36.33 35.79,-61.41 0,-22.81 -16.532,-46.4 -49.54,-70.78 l -24.679,-17.97 c -13.129,-9.68 -20.43,-16.25 -21.879,-19.68 -2.621,-5.94 -3.902,-14.93 -3.902,-26.878 l -66.879,0 0,6.719 c 0,14.999 2.808,27.539 8.437,37.659 5.621,10.07 17.973,22.07 37.031,35.93 l 25.313,19.07 c 17.187,12.69 25.777,26.56 25.777,41.56 0,7.81 -5.777,15.08 -17.34,21.87 -11.558,6.76 -30.699,10.16 -57.339,10.16 -33.68,0 -69.18,-9.77 -106.571,-29.22 l 0,48.28 z m -130,-105 105.629,0 118.442,-149.372 -77.969,0 -93.281,100.002 -93.29,-100.002 -77.96,0 118.429,149.372 z"
         inkscape:connector-curvature="0"
         id="path14"
         style="fill:#000000;fill-opacity:1;fill-rule:nonzero;stroke:none" /></g></g></svg>