<?xml version="1.0" encoding="UTF-8" standalone="no"?>
<!-- Created with Inkscape (http://www.inkscape.org/) -->

<svg
   xmlns:dc="http://purl.org/dc/elements/1.1/"
   xmlns:cc="http://creativecommons.org/ns#"
   xmlns:rdf="http://www.w3.org/1999/02/22-rdf-syntax-ns#"
   xmlns:svg="http://www.w3.org/2000/svg"
   xmlns="http://www.w3.org/2000/svg"
   xmlns:inkscape="http://www.inkscape.org/namespaces/inkscape"
   version="1.1"
   width="72.5"
   height="131.25"
   id="svg2"
   xml:space="preserve"><metadata
     id="metadata8"><rdf:RDF><cc:Work
         rdf:about=""><dc:format>image/svg+xml</dc:format><dc:type
           rdf:resource="http://purl.org/dc/dcmitype/StillImage" /></cc:Work></rdf:RDF></metadata><defs
     id="defs6" /><g
     transform="matrix(1.25,0,0,-1.25,0,131.25)"
     id="g10"><g
       transform="scale(0.1,0.1)"
       id="g12"><path
         d="m 288.48,582.699 c -55.429,0 -99.218,-21.64 -131.41,-64.84 -32.191,-43.238 -48.281,-102.461 -48.281,-177.66 0,-75.23 15.981,-134.488 47.973,-177.808 32.066,-43.243 75.968,-64.8402 131.718,-64.8402 55.071,0 98.75,21.7192 130.93,65.1482 32.192,43.442 48.289,102.582 48.289,177.5 0,74.461 -16.097,133.481 -48.289,177.031 -32.18,43.641 -75.859,65.469 -130.93,65.469 z m 0,87.66 c 89.879,0 160.469,-29.218 211.719,-87.66 51.25,-58.359 76.871,-139.179 76.871,-242.5 0,-102.929 -25.621,-183.711 -76.871,-242.3396 -51.25,-58.5586 -121.84,-87.8086 -211.719,-87.8086 -90.242,0 -160.902,29.25 -212.0308,87.8086 C 25.3906,156.488 -0.121094,237.27 -0.121094,340.199 c 0,103.321 25.511694,184.141 76.570294,242.5 51.1288,58.442 121.7888,87.66 212.0308,87.66 z m 101.399,362.811 103.75,0 -127.969,-148.279 -85.93,0 110.149,148.279 z M 286.762,787.078 254.73,805.52 c -9.378,5.308 -17,8.941 -22.82,10.929 -5.738,2.071 -10.89,3.129 -15.461,3.129 -13.437,0 -23.91,-4.687 -31.41,-14.058 -7.5,-9.301 -11.25,-22.348 -11.25,-39.219 l 0,-3.442 -70.16,0 c 0,37.813 9.609,67.731 28.91,89.84 19.262,22.071 45,33.129 77.191,33.129 13.508,0 25.969,-1.527 37.34,-4.527 11.45,-2.93 26.129,-9.461 44.059,-19.531 l 32.031,-16.879 c 8.641,-4.922 16.141,-8.52 22.5,-10.782 6.328,-2.187 12.352,-3.281 17.969,-3.281 11.961,0 21.723,4.723 29.223,14.223 7.5,9.57 11.25,22.07 11.25,37.5 l 0,3.277 70.16,0 c -0.742,-37.418 -10.742,-67.269 -30,-89.527 -19.301,-22.313 -44.653,-33.442 -76.102,-33.442 -12.73,0 -24.64,1.481 -35.781,4.532 -11.051,3.007 -26.25,9.57 -45.617,19.687 z"
         inkscape:connector-curvature="0"
         id="path14"
         style="fill:#000000;fill-opacity:1;fill-rule:nonzero;stroke:none" /></g></g></svg>