<?xml version="1.0" encoding="UTF-8" standalone="no"?>
<!-- Created with Inkscape (http://www.inkscape.org/) -->

<svg
   xmlns:dc="http://purl.org/dc/elements/1.1/"
   xmlns:cc="http://creativecommons.org/ns#"
   xmlns:rdf="http://www.w3.org/1999/02/22-rdf-syntax-ns#"
   xmlns:svg="http://www.w3.org/2000/svg"
   xmlns="http://www.w3.org/2000/svg"
   xmlns:inkscape="http://www.inkscape.org/namespaces/inkscape"
   version="1.1"
   width="71.25"
   height="141.25"
   id="svg2"
   xml:space="preserve"><metadata
     id="metadata8"><rdf:RDF><cc:Work
         rdf:about=""><dc:format>image/svg+xml</dc:format><dc:type
           rdf:resource="http://purl.org/dc/dcmitype/StillImage" /></cc:Work></rdf:RDF></metadata><defs
     id="defs6" /><g
     transform="matrix(1.25,0,0,-1.25,0,141.25)"
     id="g10"><g
       transform="scale(0.1,0.1)"
       id="g12"><path
         d="m 225.078,1123.39 103.281,0 0,-130.781 -103.281,0 0,130.781 z m -121.406,-779.37 0,-333.5981 -103.902469,0 0,868.1291 103.902469,0 0,-95.473 c 21.758,37.383 49.219,65.152 82.348,83.281 33.121,18.2 72.691,27.34 118.75,27.34 76.32,0 138.351,-30.308 186.089,-90.929 47.692,-60.629 71.563,-140.391 71.563,-239.219 0,-98.871 -23.871,-178.602 -71.563,-239.223 -47.738,-60.629 -109.769,-90.937 -186.089,-90.937 -46.059,0 -85.629,9.058 -118.75,27.187 -33.129,18.121 -60.59,45.942 -82.348,83.442 z M 455.23,563.551 c 0,75.929 -15.621,135.5 -46.871,178.75 -31.25,43.32 -74.218,65 -128.91,65 -54.679,0 -97.648,-21.68 -128.898,-65 -31.25,-43.25 -46.879,-102.821 -46.879,-178.75 0,-76.063 15.629,-135.711 46.879,-178.91 31.25,-43.243 74.219,-64.84 128.898,-64.84 54.692,0 97.66,21.597 128.91,64.84 31.25,43.199 46.871,102.847 46.871,178.91 z"
         inkscape:connector-curvature="0"
         id="path14"
         style="fill:#000000;fill-opacity:1;fill-rule:nonzero;stroke:none" /></g></g></svg>