<?xml version="1.0" encoding="UTF-8" standalone="no"?>
<!-- Created with Inkscape (http://www.inkscape.org/) -->

<svg
   xmlns:dc="http://purl.org/dc/elements/1.1/"
   xmlns:cc="http://creativecommons.org/ns#"
   xmlns:rdf="http://www.w3.org/1999/02/22-rdf-syntax-ns#"
   xmlns:svg="http://www.w3.org/2000/svg"
   xmlns="http://www.w3.org/2000/svg"
   xmlns:inkscape="http://www.inkscape.org/namespaces/inkscape"
   version="1.1"
   width="67.5"
   height="130"
   id="svg2"
   xml:space="preserve"><metadata
     id="metadata8"><rdf:RDF><cc:Work
         rdf:about=""><dc:format>image/svg+xml</dc:format><dc:type
           rdf:resource="http://purl.org/dc/dcmitype/StillImage" /></cc:Work></rdf:RDF></metadata><defs
     id="defs6" /><g
     transform="matrix(1.25,0,0,-1.25,0,130)"
     id="g10"><g
       transform="scale(0.1,0.1)"
       id="g12"><path
         d="m 325.039,342.41 c -83.559,0 -141.41,-9.539 -173.59,-28.601 -32.187,-19.059 -48.289,-51.637 -48.289,-97.649 0,-36.68 12.07,-65.789 36.25,-87.351 24.141,-21.559 57.039,-32.3402 98.602,-32.3402 57.258,0 103.199,20.3122 137.808,60.9412 34.571,40.621 51.879,94.61 51.879,162.031 l 0,22.969 -102.66,0 z m 206.09,42.649 0,-358.7504 -103.43,0 0,95.4724 C 404.141,83.5391 374.77,55.3711 339.57,37.25 304.34,19.1211 261.328,10.0586 210.512,10.0586 146.129,10.0586 94.9219,28.0703 56.9102,64.1211 18.8711,100.262 -0.121094,148.699 -0.121094,209.441 c 0,70.7 23.640594,124.059 70.941394,160 47.3787,35.93 118.0507,53.899 212.0317,53.899 l 144.847,0 0,10 c 0,47.582 -15.629,84.379 -46.879,110.32 -31.25,26.012 -75.121,39.059 -131.558,39.059 -35.942,0 -70.942,-4.34 -105,-12.969 -34.063,-8.551 -66.8401,-21.41 -98.2815,-38.59 l 0,95.461 c 37.8086,14.578 74.4495,25.508 109.9995,32.82 35.622,7.258 70.231,10.93 103.899,10.93 90.941,0 158.832,-23.59 203.75,-70.781 45,-47.18 67.5,-118.711 67.5,-214.531 z m -443.5899,499.222 66.2499,0 c 4.883,-20.23 16.602,-35.703 35.16,-46.41 18.512,-10.621 43.321,-15.93 74.371,-15.93 30.7,0 55.16,5.149 73.282,15.469 18.128,10.309 30.199,25.93 36.25,46.871 l 66.25,0 C 435.352,839.789 418.48,806.039 388.48,783.031 358.551,759.98 316.84,748.5 263.32,748.5 c -53.98,0 -95.859,11.41 -125.621,34.219 -29.687,22.812 -46.4099,56.64 -50.1599,101.562 z m 173.5899,52.809 -32.027,18.441 c -9.372,5.309 -16.993,8.949 -22.813,10.938 -5.738,2.07 -10.898,3.121 -15.469,3.121 -13.441,0 -23.91,-4.68 -31.41,-14.059 -7.5,-9.301 -11.25,-22.34 -11.25,-39.222 l 0,-3.438 -70.1483,0 c 0,37.82 9.6094,67.738 28.8983,89.849 19.262,22.07 45,33.12 77.192,33.12 13.519,0 25.976,-1.52 37.347,-4.53 11.442,-2.93 26.129,-9.45 44.063,-19.53 l 32.027,-16.87 c 8.633,-4.93 16.133,-8.519 22.5,-10.789 6.332,-2.18 12.34,-3.281 17.973,-3.281 11.949,0 21.718,4.73 29.218,14.219 7.5,9.571 11.25,22.071 11.25,37.501 l 0,3.28 70.149,0 c -0.738,-37.418 -10.738,-67.262 -30,-89.531 -19.289,-22.297 -44.649,-33.438 -76.09,-33.438 -12.738,0 -24.648,1.488 -35.777,4.539 -11.063,3 -26.25,9.57 -45.633,19.68 z"
         inkscape:connector-curvature="0"
         id="path14"
         style="fill:#000000;fill-opacity:1;fill-rule:nonzero;stroke:none" /></g></g></svg>