<?xml version="1.0" encoding="UTF-8" standalone="no"?>
<!-- Created with Inkscape (http://www.inkscape.org/) -->

<svg
   xmlns:dc="http://purl.org/dc/elements/1.1/"
   xmlns:cc="http://creativecommons.org/ns#"
   xmlns:rdf="http://www.w3.org/1999/02/22-rdf-syntax-ns#"
   xmlns:svg="http://www.w3.org/2000/svg"
   xmlns="http://www.w3.org/2000/svg"
   xmlns:inkscape="http://www.inkscape.org/namespaces/inkscape"
   version="1.1"
   width="97.5"
   height="152.5"
   id="svg2"
   xml:space="preserve"><metadata
     id="metadata8"><rdf:RDF><cc:Work
         rdf:about=""><dc:format>image/svg+xml</dc:format><dc:type
           rdf:resource="http://purl.org/dc/dcmitype/StillImage" /></cc:Work></rdf:RDF></metadata><defs
     id="defs6" /><g
     transform="matrix(1.25,0,0,-1.25,0,152.5)"
     id="g10"><g
       transform="scale(0.1,0.1)"
       id="g12"><path
         d="m 388.441,787.73 c -82.312,0 -147.742,-30.742 -196.25,-92.179 -48.441,-61.371 -72.66,-145 -72.66,-250.942 0,-105.55 24.219,-189.019 72.66,-250.468 48.508,-61.371 113.938,-92.032 196.25,-92.032 82.379,0 147.579,30.661 195.618,92.032 48.132,61.449 72.191,144.918 72.191,250.468 0,105.942 -24.059,189.571 -72.191,250.942 C 536.02,756.988 470.82,787.73 388.441,787.73 z m 0,92.192 c 117.579,0 211.559,-39.453 281.868,-118.281 70.39,-78.75 105.632,-184.45 105.632,-317.032 0,-132.109 -35.242,-237.578 -105.632,-316.41 C 600,49.4492 506.02,10.0781 388.441,10.0781 270.512,10.0781 176.25,49.3398 105.621,127.891 35.0781,206.52 -0.160156,312.109 -0.160156,444.609 c 0,132.582 35.238256,238.282 105.781156,317.032 70.629,78.828 164.891,118.281 282.82,118.281 z m 137.34,333.278 110.16,-148.28 -85.941,0 -129.219,148.28 105,0 z M 335,1094.3 l 105.621,0 118.438,-149.378 -77.969,0 -93.281,99.998 -93.278,-99.998 -77.972,0 L 335,1094.3 z"
         inkscape:connector-curvature="0"
         id="path14"
         style="fill:#000000;fill-opacity:1;fill-rule:nonzero;stroke:none" /></g></g></svg>