<?xml version="1.0" encoding="UTF-8" standalone="no"?>
<!-- Created with Inkscape (http://www.inkscape.org/) -->

<svg
   xmlns:dc="http://purl.org/dc/elements/1.1/"
   xmlns:cc="http://creativecommons.org/ns#"
   xmlns:rdf="http://www.w3.org/1999/02/22-rdf-syntax-ns#"
   xmlns:svg="http://www.w3.org/2000/svg"
   xmlns="http://www.w3.org/2000/svg"
   xmlns:inkscape="http://www.inkscape.org/namespaces/inkscape"
   version="1.1"
   width="71.25"
   height="140"
   id="svg2"
   xml:space="preserve"><metadata
     id="metadata8"><rdf:RDF><cc:Work
         rdf:about=""><dc:format>image/svg+xml</dc:format><dc:type
           rdf:resource="http://purl.org/dc/dcmitype/StillImage" /></cc:Work></rdf:RDF></metadata><defs
     id="defs6" /><g
     transform="matrix(1.25,0,0,-1.25,0,140)"
     id="g10"><g
       transform="scale(0.1,0.1)"
       id="g12"><path
         d="m 456.129,1110.05 103.281,0 0,-130.78 -103.281,0 0,130.78 z m 2.5,-550.32 0,340.321 103.281,0 0,-873.7502 -103.281,0 0,94.3712 C 436.949,83.1719 409.57,55.3594 376.449,37.2305 343.32,19.1094 303.52,10.0508 257.07,10.0508 c -75.941,0 -137.808,30.3086 -185.6208,90.9292 -47.7383,60.629 -71.570294,140.36 -71.570294,239.219 0,98.832 23.831994,178.602 71.570294,239.223 47.8128,60.629 109.6798,90.937 185.6208,90.937 46.45,0 86.25,-9.14 119.379,-27.339 33.121,-18.129 60.5,-45.899 82.18,-83.29 z M 106.602,340.199 c 0,-76.051 15.628,-135.699 46.878,-178.898 31.25,-43.25 74.219,-64.8518 128.899,-64.8518 54.57,0 97.582,21.6018 129.07,64.8518 31.442,43.199 47.18,102.847 47.18,178.898 0,75.942 -15.738,135.512 -47.18,178.75 -31.488,43.321 -74.5,65 -129.07,65 -54.68,0 -97.649,-21.679 -128.899,-65 -31.25,-43.238 -46.878,-102.808 -46.878,-178.75 z"
         inkscape:connector-curvature="0"
         id="path14"
         style="fill:#000000;fill-opacity:1;fill-rule:nonzero;stroke:none" /></g></g></svg>