<?xml version="1.0" encoding="UTF-8" standalone="no"?>
<!-- Created with Inkscape (http://www.inkscape.org/) -->

<svg
   xmlns:dc="http://purl.org/dc/elements/1.1/"
   xmlns:cc="http://creativecommons.org/ns#"
   xmlns:rdf="http://www.w3.org/1999/02/22-rdf-syntax-ns#"
   xmlns:svg="http://www.w3.org/2000/svg"
   xmlns="http://www.w3.org/2000/svg"
   xmlns:inkscape="http://www.inkscape.org/namespaces/inkscape"
   version="1.1"
   width="86.25"
   height="118.75"
   id="svg2"
   xml:space="preserve"><metadata
     id="metadata8"><rdf:RDF><cc:Work
         rdf:about=""><dc:format>image/svg+xml</dc:format><dc:type
           rdf:resource="http://purl.org/dc/dcmitype/StillImage" /></cc:Work></rdf:RDF></metadata><defs
     id="defs6" /><g
     transform="matrix(1.25,0,0,-1.25,0,118.75)"
     id="g10"><g
       transform="scale(0.1,0.1)"
       id="g12"><path
         d="m 177.109,946.16 158.282,-210 -85.782,0 -183.1285,210 110.6285,0 z m 281.09,-357.808 0,66.718 c 22.891,-16.8 42.582,-29.218 59.071,-37.34 16.441,-8.05 30.46,-12.031 42.031,-12.031 17.258,0 30.187,5.153 38.75,15.461 8.629,10.32 12.969,25.551 12.969,45.789 0,11.949 -1.411,23.75 -4.219,35.313 -2.821,11.636 -7.031,23.277 -12.66,34.84 l 74.687,0 c 3.75,-14.301 6.563,-27.774 8.442,-40.473 1.871,-12.731 2.808,-24.68 2.808,-35.93 0,-45.629 -8.199,-79.219 -24.527,-100.789 -16.25,-21.48 -41.801,-32.18 -76.571,-32.18 -17.929,0 -36.71,4.918 -56.402,14.84 -19.687,9.879 -41.168,25.16 -64.379,45.782 z M -1.32813,274.449 l 0,380.781 103.43713,0 0,-376.718 c 0,-59.614 11.563,-104.301 34.692,-134.063 C 160,114.762 194.84,99.9102 241.328,99.9102 c 55.703,0 99.762,17.7378 132.192,53.2888 32.378,35.621 48.589,84.102 48.589,145.461 l 0,356.57 103.282,0 0,-628.9097 -103.282,0 0,96.5587 C 396.988,84.7617 367.891,56.3984 334.77,37.8789 301.641,19.3711 263.199,10.0703 219.449,10.0703 147.148,10.0703 92.2695,32.4883 54.7695,77.4102 17.3398,122.301 -1.32813,187.961 -1.32813,274.449 z"
         inkscape:connector-curvature="0"
         id="path14"
         style="fill:#000000;fill-opacity:1;fill-rule:nonzero;stroke:none" /></g></g></svg>