<?xml version="1.0" encoding="UTF-8" standalone="no"?>
<!-- Created with Inkscape (http://www.inkscape.org/) -->

<svg
   xmlns:dc="http://purl.org/dc/elements/1.1/"
   xmlns:cc="http://creativecommons.org/ns#"
   xmlns:rdf="http://www.w3.org/1999/02/22-rdf-syntax-ns#"
   xmlns:svg="http://www.w3.org/2000/svg"
   xmlns="http://www.w3.org/2000/svg"
   xmlns:inkscape="http://www.inkscape.org/namespaces/inkscape"
   version="1.1"
   width="73.75"
   height="135"
   id="svg2"
   xml:space="preserve"><metadata
     id="metadata8"><rdf:RDF><cc:Work
         rdf:about=""><dc:format>image/svg+xml</dc:format><dc:type
           rdf:resource="http://purl.org/dc/dcmitype/StillImage" /></cc:Work></rdf:RDF></metadata><defs
     id="defs6" /><g
     transform="matrix(1.25,0,0,-1.25,0,135)"
     id="g10"><g
       transform="scale(0.1,0.1)"
       id="g12"><path
         d="m 233.75,141.719 103.281,0 0,-131.4104 -103.281,0 0,131.4104 z m 305.781,890.001 0,-110.63 C 496.41,941.719 455.699,957.07 417.5,967.191 379.379,977.27 342.539,982.34 307.031,982.34 245.23,982.34 197.578,970.352 164.059,946.41 130.621,922.422 113.91,888.359 113.91,844.219 c 0,-37.11 11.09,-65.117 33.281,-84.059 22.258,-18.871 64.528,-34.07 126.719,-45.629 l 68.43,-14.062 c 84.691,-16.059 147.109,-44.379 187.351,-85 C 569.879,574.84 590,520.469 590,452.34 590,371.09 562.73,309.449 508.281,267.5 453.789,225.621 373.98,204.691 268.91,204.691 c -39.691,0 -81.961,4.489 -126.719,13.43 C 97.5,227.07 51.1719,240.352 3.28125,257.969 l 0,116.871 C 49.3008,348.98 94.4102,329.531 138.59,316.41 c 44.14,-13.129 87.582,-19.691 130.32,-19.691 64.68,0 114.61,12.691 149.84,38.121 35.199,25.512 52.809,61.879 52.809,109.07 0,41.129 -12.649,73.32 -37.969,96.559 -25.231,23.203 -66.68,40.621 -124.371,52.191 l -69.059,13.43 c -84.609,16.879 -145.7811,43.289 -183.6014,79.219 -37.8086,35.941 -56.718756,85.941 -56.718756,150 0,74.07 26.101556,132.421 78.281256,175.161 52.2699,42.69 124.2579,64.06 215.9379,64.06 39.382,0 79.421,-3.59 120.16,-10.78 40.82,-7.11 82.582,-17.77 125.312,-32.03 z"
         inkscape:connector-curvature="0"
         id="path14"
         style="fill:#000000;fill-opacity:1;fill-rule:nonzero;stroke:none" /></g></g></svg>