<?xml version="1.0" encoding="UTF-8" standalone="no"?>
<!-- Created with Inkscape (http://www.inkscape.org/) -->

<svg
   xmlns:dc="http://purl.org/dc/elements/1.1/"
   xmlns:cc="http://creativecommons.org/ns#"
   xmlns:rdf="http://www.w3.org/1999/02/22-rdf-syntax-ns#"
   xmlns:svg="http://www.w3.org/2000/svg"
   xmlns="http://www.w3.org/2000/svg"
   xmlns:inkscape="http://www.inkscape.org/namespaces/inkscape"
   version="1.1"
   width="81.25"
   height="151.25"
   id="svg2"
   xml:space="preserve"><metadata
     id="metadata8"><rdf:RDF><cc:Work
         rdf:about=""><dc:format>image/svg+xml</dc:format><dc:type
           rdf:resource="http://purl.org/dc/dcmitype/StillImage" /></cc:Work></rdf:RDF></metadata><defs
     id="defs6" /><g
     transform="matrix(1.25,0,0,-1.25,0,151.25)"
     id="g10"><g
       transform="scale(0.1,0.1)"
       id="g12"><path
         d="m 159.41,1023.19 335.942,0 0,-83.131 -335.942,0 0,83.131 z m 215.789,183.75 113.903,0 0,-114.07 -113.903,0 0,114.07 z m -219.539,0 113.91,0 0,-114.07 -113.91,0 0,114.07 z M -0.121094,864.59 l 113.910094,0 0,-509.219 c 0,-89.922 16.289,-154.601 48.91,-194.062 32.571,-39.489 85.352,-59.219 158.281,-59.219 72.692,0 125.309,19.73 157.809,59.219 32.582,39.461 48.91,104.14 48.91,194.062 l 0,509.219 113.903,0 0,-523.281 C 641.602,232.02 614.57,149.48 560.512,93.6602 506.449,37.9102 426.602,10.0586 320.98,10.0586 215.039,10.0586 135.039,37.9102 80.9805,93.6602 26.9102,149.48 -0.121094,232.02 -0.121094,341.309 l 0,523.281 z"
         inkscape:connector-curvature="0"
         id="path14"
         style="fill:#000000;fill-opacity:1;fill-rule:nonzero;stroke:none" /></g></g></svg>