<?xml version="1.0" encoding="UTF-8" standalone="no"?>
<!-- Created with Inkscape (http://www.inkscape.org/) -->

<svg
   xmlns:dc="http://purl.org/dc/elements/1.1/"
   xmlns:cc="http://creativecommons.org/ns#"
   xmlns:rdf="http://www.w3.org/1999/02/22-rdf-syntax-ns#"
   xmlns:svg="http://www.w3.org/2000/svg"
   xmlns="http://www.w3.org/2000/svg"
   xmlns:inkscape="http://www.inkscape.org/namespaces/inkscape"
   version="1.1"
   width="103.75"
   height="145"
   id="svg2"
   xml:space="preserve"><metadata
     id="metadata8"><rdf:RDF><cc:Work
         rdf:about=""><dc:format>image/svg+xml</dc:format><dc:type
           rdf:resource="http://purl.org/dc/dcmitype/StillImage" /></cc:Work></rdf:RDF></metadata><defs
     id="defs6" /><g
     transform="matrix(1.25,0,0,-1.25,0,145)"
     id="g10"><g
       transform="scale(0.1,0.1)"
       id="g12"><path
         d="m 2.69922,863.34 113.90278,0 0,-509.219 c 0,-89.922 16.289,-154.609 48.91,-194.07 32.578,-39.492 85.347,-59.211 158.277,-59.211 72.691,0 125.313,19.719 157.813,59.211 32.578,39.461 48.91,104.148 48.91,194.07 l 0,509.219 113.898,0 0,-523.289 C 644.41,230.762 617.379,148.219 563.32,92.3984 509.262,36.6602 429.41,8.80078 323.789,8.80078 217.852,8.80078 137.852,36.6602 83.7891,92.3984 29.7305,148.219 2.69922,230.762 2.69922,340.051 l 0,523.289 z M 599.879,737.09 l 0,66.711 c 22.891,-16.789 42.582,-29.211 59.07,-37.34 16.442,-8.051 30.461,-12.031 42.031,-12.031 17.258,0 30.192,5.16 38.75,15.468 8.629,10.313 12.969,25.551 12.969,45.782 0,11.949 -1.41,23.75 -4.219,35.308 -2.82,11.641 -7.031,23.282 -12.66,34.852 l 74.692,0 c 3.75,-14.301 6.558,-27.781 8.437,-40.469 1.871,-12.742 2.813,-24.691 2.813,-35.941 0,-45.629 -8.211,-79.219 -24.532,-100.782 -16.25,-21.488 -41.8,-32.187 -76.57,-32.187 -17.93,0 -36.711,4.918 -56.398,14.84 -19.692,9.89 -41.172,25.16 -64.383,45.789 z m -387.5,390.93 c 41.883,19.07 82.422,28.6 121.723,28.6 38.949,0 70.308,-7.97 94.058,-23.91 23.828,-15.86 35.789,-36.33 35.789,-61.41 0,-22.81 -16.527,-46.4 -49.539,-70.78 l -24.68,-17.969 c -13.128,-9.68 -20.429,-16.25 -21.878,-19.68 -2.622,-5.941 -3.903,-14.922 -3.903,-26.883 l -66.879,0 0,6.723 c 0,15 2.809,27.539 8.442,37.66 5.617,10.078 17.968,22.069 37.027,35.929 l 25.313,19.07 c 17.187,12.69 25.777,26.56 25.777,41.56 0,7.81 -5.777,15.08 -17.34,21.87 -11.559,6.76 -30.699,10.16 -57.34,10.16 -33.679,0 -69.179,-9.76 -106.57,-29.22 l 0,48.28 z"
         inkscape:connector-curvature="0"
         id="path14"
         style="fill:#000000;fill-opacity:1;fill-rule:nonzero;stroke:none" /></g></g></svg>