<?xml version="1.0" encoding="UTF-8" standalone="no"?>
<!-- Created with Inkscape (http://www.inkscape.org/) -->

<svg
   xmlns:dc="http://purl.org/dc/elements/1.1/"
   xmlns:cc="http://creativecommons.org/ns#"
   xmlns:rdf="http://www.w3.org/1999/02/22-rdf-syntax-ns#"
   xmlns:svg="http://www.w3.org/2000/svg"
   xmlns="http://www.w3.org/2000/svg"
   xmlns:inkscape="http://www.inkscape.org/namespaces/inkscape"
   version="1.1"
   width="81.25"
   height="133.75"
   id="svg2"
   xml:space="preserve"><metadata
     id="metadata8"><rdf:RDF><cc:Work
         rdf:about=""><dc:format>image/svg+xml</dc:format><dc:type
           rdf:resource="http://purl.org/dc/dcmitype/StillImage" /></cc:Work></rdf:RDF></metadata><defs
     id="defs6" /><g
     transform="matrix(1.25,0,0,-1.25,0,133.75)"
     id="g10"><g
       transform="scale(0.1,0.1)"
       id="g12"><path
         d="m -0.121094,1059.23 113.910094,0 0,-509.218 c 0,-89.922 16.289,-154.614 48.91,-194.063 32.571,-39.5 85.352,-59.219 158.281,-59.219 72.692,0 125.309,19.719 157.809,59.219 32.582,39.449 48.91,104.141 48.91,194.063 l 0,509.218 113.903,0 0,-523.281 c 0,-109.301 -27.032,-191.84 -81.09,-247.66 -54.063,-55.738 -133.91,-83.59 -239.532,-83.59 -105.941,0 -185.941,27.852 -239.9995,83.59 -54.0703,55.82 -81.101594,138.359 -81.101594,247.66 l 0,523.281 z M 269.57,141.73 l 103.282,0 0,-131.4097 -103.282,0 0,131.4097 z"
         inkscape:connector-curvature="0"
         id="path14"
         style="fill:#000000;fill-opacity:1;fill-rule:nonzero;stroke:none" /></g></g></svg>