<?xml version="1.0" encoding="UTF-8" standalone="no"?>
<!-- Created with Inkscape (http://www.inkscape.org/) -->

<svg
   xmlns:dc="http://purl.org/dc/elements/1.1/"
   xmlns:cc="http://creativecommons.org/ns#"
   xmlns:rdf="http://www.w3.org/1999/02/22-rdf-syntax-ns#"
   xmlns:svg="http://www.w3.org/2000/svg"
   xmlns="http://www.w3.org/2000/svg"
   xmlns:inkscape="http://www.inkscape.org/namespaces/inkscape"
   version="1.1"
   width="115"
   height="108.75"
   id="svg2"
   xml:space="preserve"><metadata
     id="metadata8"><rdf:RDF><cc:Work
         rdf:about=""><dc:format>image/svg+xml</dc:format><dc:type
           rdf:resource="http://purl.org/dc/dcmitype/StillImage" /></cc:Work></rdf:RDF></metadata><defs
     id="defs6" /><g
     transform="matrix(1.25,0,0,-1.25,0,108.75)"
     id="g10"><g
       transform="scale(0.1,0.1)"
       id="g12"><path
         d="m 405.078,141.711 103.281,0 0,-131.4102 -103.281,0 0,131.4102 z m 88.281,587.34 c 25.821,46.449 56.719,80.711 92.661,102.82 35.929,22.07 78.281,33.117 127.031,33.117 65.39,0 115.859,-22.929 151.398,-68.75 35.629,-45.859 53.442,-111.09 53.442,-195.777 l 0,-379.531 -103.911,0 0,376.25 c 0,60.199 -10.699,104.879 -32.031,134.058 -21.25,29.262 -53.828,43.91 -97.648,43.91 -53.563,0 -95.86,-17.808 -126.879,-53.437 C 526.371,686.16 510.859,637.73 510.859,576.398 l 0,-355.468 -103.91,0 0,376.25 c 0,60.621 -10.699,105.39 -32.027,134.371 -21.371,29.07 -54.301,43.597 -98.75,43.597 -52.813,0 -94.801,-17.886 -125.942,-53.597 -31.05,-35.742 -46.558,-84.141 -46.558,-145.153 l 0,-355.468 -103.902469,0 0,628.91 103.902469,0 0,-97.66 c 23.629,38.519 51.918,66.949 84.848,85.308 32.89,18.321 72.031,27.5 117.339,27.5 45.621,0 84.411,-11.636 116.411,-34.84 32.07,-23.238 55.781,-56.949 71.089,-101.097 z"
         inkscape:connector-curvature="0"
         id="path14"
         style="fill:#000000;fill-opacity:1;fill-rule:nonzero;stroke:none" /></g></g></svg>