<?xml version="1.0" encoding="UTF-8" standalone="no"?>
<!-- Created with Inkscape (http://www.inkscape.org/) -->

<svg
   xmlns:dc="http://purl.org/dc/elements/1.1/"
   xmlns:cc="http://creativecommons.org/ns#"
   xmlns:rdf="http://www.w3.org/1999/02/22-rdf-syntax-ns#"
   xmlns:svg="http://www.w3.org/2000/svg"
   xmlns="http://www.w3.org/2000/svg"
   xmlns:inkscape="http://www.inkscape.org/namespaces/inkscape"
   version="1.1"
   width="71.25"
   height="138.75"
   id="svg2"
   xml:space="preserve"><metadata
     id="metadata8"><rdf:RDF><cc:Work
         rdf:about=""><dc:format>image/svg+xml</dc:format><dc:type
           rdf:resource="http://purl.org/dc/dcmitype/StillImage" /></cc:Work></rdf:RDF></metadata><defs
     id="defs6" /><g
     transform="matrix(1.25,0,0,-1.25,0,138.75)"
     id="g10"><g
       transform="scale(0.1,0.1)"
       id="g12"><path
         d="m 458.629,571.359 c 0,74.879 -15.469,132.891 -46.399,174.063 -30.859,41.25 -74.14,61.879 -129.851,61.879 -55.43,0 -98.59,-20.629 -129.527,-61.879 -30.864,-41.172 -46.25,-99.184 -46.25,-174.063 0,-74.488 15.386,-132.339 46.25,-173.589 30.937,-41.18 74.097,-61.719 129.527,-61.719 55.711,0 98.992,20.539 129.851,61.719 30.93,41.25 46.399,99.101 46.399,173.589 z M 561.91,327.77 C 561.91,220.699 538.16,141.051 490.66,88.8594 443.16,36.5898 370.352,10.4219 272.23,10.4219 c -36.371,0 -70.628,2.7383 -102.82,8.1289 -32.18,5.4297 -63.43,13.75 -93.7498,25 l 0,100.4692 c 30.3198,-16.45 60.2378,-28.598 89.8518,-36.411 29.566,-7.8902 59.718,-11.8785 90.468,-11.8785 67.692,0 118.36,17.7385 152.032,53.1285 33.75,35.43 50.617,88.871 50.617,160.313 l 0,51.098 c -21.359,-37.11 -48.707,-64.809 -82.027,-83.129 -33.243,-18.36 -73.082,-27.5 -119.532,-27.5 -77.109,0 -139.218,29.379 -186.4098,88.129 -47.1797,58.75 -70.781294,136.601 -70.781294,233.589 0,97.379 23.601594,175.469 70.781294,234.219 47.1918,58.75 109.3008,88.121 186.4098,88.121 46.45,0 86.289,-9.179 119.532,-27.5 33.32,-18.359 60.668,-46.051 82.027,-83.121 l 0,95.473 103.281,0 0,-550.781 z m -465.9295,778.75 335.9295,0 0,-83.13 -335.9295,0 0,83.13 z"
         inkscape:connector-curvature="0"
         id="path14"
         style="fill:#000000;fill-opacity:1;fill-rule:nonzero;stroke:none" /></g></g></svg>