<?xml version="1.0" encoding="UTF-8" standalone="no"?>
<!-- Created with Inkscape (http://www.inkscape.org/) -->

<svg
   xmlns:dc="http://purl.org/dc/elements/1.1/"
   xmlns:cc="http://creativecommons.org/ns#"
   xmlns:rdf="http://www.w3.org/1999/02/22-rdf-syntax-ns#"
   xmlns:svg="http://www.w3.org/2000/svg"
   xmlns="http://www.w3.org/2000/svg"
   xmlns:inkscape="http://www.inkscape.org/namespaces/inkscape"
   version="1.1"
   width="115"
   height="117.5"
   id="svg2"
   xml:space="preserve"><metadata
     id="metadata8"><rdf:RDF><cc:Work
         rdf:about=""><dc:format>image/svg+xml</dc:format><dc:type
           rdf:resource="http://purl.org/dc/dcmitype/StillImage" /></cc:Work></rdf:RDF></metadata><defs
     id="defs6" /><g
     transform="matrix(1.25,0,0,-1.25,0,117.5)"
     id="g10"><g
       transform="scale(0.1,0.1)"
       id="g12"><path
         d="m 493.359,518.129 c 25.821,46.449 56.719,80.711 92.661,102.82 35.929,22.071 78.281,33.121 127.031,33.121 65.39,0 115.859,-22.929 151.398,-68.75 35.629,-45.859 53.442,-111.09 53.442,-195.781 l 0,-379.5273 -103.911,0 0,376.2503 c 0,60.187 -10.699,104.879 -32.031,134.058 -21.25,29.258 -53.828,43.91 -97.648,43.91 -53.563,0 -95.86,-17.82 -126.879,-53.441 -31.051,-35.551 -46.563,-83.988 -46.563,-145.309 l 0,-355.4683 -103.91,0 0,376.2503 c 0,60.617 -10.699,105.386 -32.027,134.367 -21.371,29.07 -54.301,43.601 -98.75,43.601 -52.813,0 -94.801,-17.89 -125.942,-53.601 -31.05,-35.738 -46.558,-84.141 -46.558,-145.149 l 0,-355.4683 -103.902469,0 0,628.8983 103.902469,0 0,-97.648 c 23.629,38.508 51.918,66.949 84.848,85.308 32.89,18.321 72.031,27.5 117.339,27.5 45.621,0 84.411,-11.64 116.411,-34.84 32.07,-23.25 55.781,-56.96 71.089,-101.101 z m -2.339,411.723 111.71,0 -183.121,-211.25 -85.937,0 157.348,211.25 z"
         inkscape:connector-curvature="0"
         id="path14"
         style="fill:#000000;fill-opacity:1;fill-rule:nonzero;stroke:none" /></g></g></svg>