<?xml version="1.0" encoding="UTF-8" standalone="no"?>
<!-- Created with Inkscape (http://www.inkscape.org/) -->

<svg
   xmlns:dc="http://purl.org/dc/elements/1.1/"
   xmlns:cc="http://creativecommons.org/ns#"
   xmlns:rdf="http://www.w3.org/1999/02/22-rdf-syntax-ns#"
   xmlns:svg="http://www.w3.org/2000/svg"
   xmlns="http://www.w3.org/2000/svg"
   xmlns:inkscape="http://www.inkscape.org/namespaces/inkscape"
   version="1.1"
   width="46.25"
   height="135"
   id="svg2"
   xml:space="preserve"><metadata
     id="metadata8"><rdf:RDF><cc:Work
         rdf:about=""><dc:format>image/svg+xml</dc:format><dc:type
           rdf:resource="http://purl.org/dc/dcmitype/StillImage" /></cc:Work></rdf:RDF></metadata><defs
     id="defs6" /><g
     transform="matrix(1.25,0,0,-1.25,0,135)"
     id="g10"><g
       transform="scale(0.1,0.1)"
       id="g12"><path
         d="m 24.9219,1077.81 335.9371,0 0,-83.119 -335.9371,0 0,83.119 z M 5.07813,141.719 l 103.28087,0 0,-131.4104 -103.28087,0 0,131.4104 z M 368.199,753.281 c -11.558,6.758 -24.219,11.719 -37.969,14.84 -13.671,3.207 -28.71,4.848 -45.152,4.848 -58.437,0 -103.277,-19.02 -134.527,-57.028 -31.25,-38.05 -46.879,-92.621 -46.879,-163.75 l 0,-331.25 -103.902469,0 0,628.899 103.902469,0 0,-97.649 c 21.758,38.118 50.039,66.438 84.848,85 34.761,18.508 77.07,27.809 126.871,27.809 7.07,0 14.918,-0.469 23.589,-1.41 8.641,-0.93 18.168,-2.34 28.598,-4.211 l 0.621,-106.098 z"
         inkscape:connector-curvature="0"
         id="path14"
         style="fill:#000000;fill-opacity:1;fill-rule:nonzero;stroke:none" /></g></g></svg>