<?xml version="1.0" encoding="UTF-8" standalone="no"?>
<!-- Created with Inkscape (http://www.inkscape.org/) -->

<svg
   xmlns:dc="http://purl.org/dc/elements/1.1/"
   xmlns:cc="http://creativecommons.org/ns#"
   xmlns:rdf="http://www.w3.org/1999/02/22-rdf-syntax-ns#"
   xmlns:svg="http://www.w3.org/2000/svg"
   xmlns="http://www.w3.org/2000/svg"
   xmlns:inkscape="http://www.inkscape.org/namespaces/inkscape"
   version="1.1"
   width="73.75"
   height="108.75"
   id="svg2"
   xml:space="preserve"><metadata
     id="metadata8"><rdf:RDF><cc:Work
         rdf:about=""><dc:format>image/svg+xml</dc:format><dc:type
           rdf:resource="http://purl.org/dc/dcmitype/StillImage" /></cc:Work></rdf:RDF></metadata><defs
     id="defs6" /><g
     transform="matrix(1.25,0,0,-1.25,0,108.75)"
     id="g10"><g
       transform="scale(0.1,0.1)"
       id="g12"><path
         d="m 582.699,561.238 0,-50.617 -475,0 c 4.449,-71.062 25.852,-125.242 64.211,-162.5 38.442,-37.312 91.918,-55.941 160.469,-55.941 39.691,0 78.133,4.84 115.32,14.531 37.262,9.769 74.25,24.418 110.93,43.91 l 0,-97.66 C 521.52,237.219 483.52,225.23 444.57,217.02 c -38.871,-8.2 -78.359,-12.34 -118.441,-12.34 -100.309,0 -179.801,29.14 -238.4298,87.5 -58.5586,58.441 -87.820294,137.422 -87.820294,237.031 0,102.891 27.742194,184.57 83.281294,245 55.6288,60.508 130.6288,90.777 224.9998,90.777 84.57,0 151.449,-27.258 200.629,-81.718 49.262,-54.489 73.91,-128.508 73.91,-222.032 z M 479.41,591.551 c -0.738,56.57 -16.558,101.648 -47.5,135.32 -30.859,33.629 -71.711,50.469 -122.648,50.469 -57.621,0 -103.75,-16.328 -138.442,-48.91 -34.609,-32.5 -54.492,-78.36 -59.691,-137.5 l 368.281,0.621 z m -233.281,-449.84 103.281,0 0,-131.4102 -103.281,0 0,131.4102 z"
         inkscape:connector-curvature="0"
         id="path14"
         style="fill:#000000;fill-opacity:1;fill-rule:nonzero;stroke:none" /></g></g></svg>