<?xml version="1.0" encoding="UTF-8" standalone="no"?>
<!-- Created with Inkscape (http://www.inkscape.org/) -->

<svg
   xmlns:dc="http://purl.org/dc/elements/1.1/"
   xmlns:cc="http://creativecommons.org/ns#"
   xmlns:rdf="http://www.w3.org/1999/02/22-rdf-syntax-ns#"
   xmlns:svg="http://www.w3.org/2000/svg"
   xmlns="http://www.w3.org/2000/svg"
   xmlns:inkscape="http://www.inkscape.org/namespaces/inkscape"
   version="1.1"
   width="72.5"
   height="108.75"
   id="svg2"
   xml:space="preserve"><metadata
     id="metadata8"><rdf:RDF><cc:Work
         rdf:about=""><dc:format>image/svg+xml</dc:format><dc:type
           rdf:resource="http://purl.org/dc/dcmitype/StillImage" /></cc:Work></rdf:RDF></metadata><defs
     id="defs6" /><g
     transform="matrix(1.25,0,0,-1.25,0,108.75)"
     id="g10"><g
       transform="scale(0.1,0.1)"
       id="g12"><path
         d="m 288.48,777.34 c -55.429,0 -99.218,-21.641 -131.41,-64.852 -32.191,-43.238 -48.281,-102.457 -48.281,-177.648 0,-75.238 15.981,-134.5 47.973,-177.82 32.066,-43.239 75.968,-64.84 131.718,-64.84 55.071,0 98.75,21.718 130.93,65.16 32.192,43.43 48.289,102.57 48.289,177.5 0,74.449 -16.097,133.469 -48.289,177.031 -32.18,43.629 -75.859,65.469 -130.93,65.469 z m 0,87.648 c 89.879,0 160.469,-29.218 211.719,-87.648 51.25,-58.36 76.871,-139.18 76.871,-242.5 0,-102.93 -25.621,-183.711 -76.871,-242.352 -51.25,-58.547 -121.84,-87.808 -211.719,-87.808 -90.242,0 -160.902,29.261 -212.0308,87.808 -51.0586,58.641 -76.570294,139.422 -76.570294,242.352 0,103.32 25.511694,184.14 76.570294,242.5 51.1288,58.43 121.7888,87.648 212.0308,87.648 z m -52.351,-723.277 103.281,0 0,-131.4102 -103.281,0 0,131.4102 z"
         inkscape:connector-curvature="0"
         id="path14"
         style="fill:#000000;fill-opacity:1;fill-rule:nonzero;stroke:none" /></g></g></svg>