<?xml version="1.0" encoding="UTF-8" standalone="no"?>
<!-- Created with Inkscape (http://www.inkscape.org/) -->

<svg
   xmlns:dc="http://purl.org/dc/elements/1.1/"
   xmlns:cc="http://creativecommons.org/ns#"
   xmlns:rdf="http://www.w3.org/1999/02/22-rdf-syntax-ns#"
   xmlns:svg="http://www.w3.org/2000/svg"
   xmlns="http://www.w3.org/2000/svg"
   xmlns:inkscape="http://www.inkscape.org/namespaces/inkscape"
   version="1.1"
   width="97.5"
   height="136.25"
   id="svg2"
   xml:space="preserve"><metadata
     id="metadata8"><rdf:RDF><cc:Work
         rdf:about=""><dc:format>image/svg+xml</dc:format><dc:type
           rdf:resource="http://purl.org/dc/dcmitype/StillImage" /></cc:Work></rdf:RDF></metadata><defs
     id="defs6" /><g
     transform="matrix(1.25,0,0,-1.25,0,136.25)"
     id="g10"><g
       transform="scale(0.1,0.1)"
       id="g12"><path
         d="m 352.34,232.191 66.879,0 C 402.34,209.379 389.879,189.77 381.879,173.281 373.828,156.84 369.84,142.77 369.84,131.09 c 0,-17.18 5.082,-30.07 15.32,-38.7502 10.309,-8.6289 25.539,-12.9609 45.781,-12.9609 11.95,0 23.75,1.4024 35.309,4.2109 11.641,2.8204 23.32,7.0313 35,12.6602 l 0,-74.6914 C 486.949,17.8086 473.48,15 460.781,13.1211 448.051,11.25 436.09,10.3086 424.84,10.3086 c -45.738,0 -79.371,8.2109 -100.93,24.5312 -21.488,16.25 -32.191,41.8008 -32.191,76.5702 0,18.039 4.922,36.871 14.84,56.559 10,19.609 25.242,41.011 45.781,64.222 z m 36.101,761.399 c -82.312,0 -147.742,-30.738 -196.25,-92.18 -48.441,-61.371 -72.66,-145 -72.66,-250.941 0,-105.547 24.219,-189.02 72.66,-250.469 48.508,-61.371 113.938,-92.031 196.25,-92.031 82.379,0 147.579,30.66 195.618,92.031 48.132,61.449 72.191,144.922 72.191,250.469 0,105.941 -24.059,189.57 -72.191,250.941 -48.039,61.442 -113.239,92.18 -195.618,92.18 z m 0,92.19 c 117.579,0 211.559,-39.45 281.868,-118.28 70.39,-78.75 105.632,-184.449 105.632,-317.031 0,-132.11 -35.242,-237.578 -105.632,-316.41 C 600,255.309 506.02,215.941 388.441,215.941 270.512,215.941 176.25,255.199 105.621,333.75 35.0781,412.379 -0.160156,517.969 -0.160156,650.469 c 0,132.582 35.238256,238.281 105.781156,317.031 70.629,78.83 164.891,118.28 282.82,118.28 z"
         inkscape:connector-curvature="0"
         id="path14"
         style="fill:#000000;fill-opacity:1;fill-rule:nonzero;stroke:none" /></g></g></svg>