<?xml version="1.0" encoding="UTF-8" standalone="no"?>
<!-- Created with Inkscape (http://www.inkscape.org/) -->

<svg
   xmlns:dc="http://purl.org/dc/elements/1.1/"
   xmlns:cc="http://creativecommons.org/ns#"
   xmlns:rdf="http://www.w3.org/1999/02/22-rdf-syntax-ns#"
   xmlns:svg="http://www.w3.org/2000/svg"
   xmlns="http://www.w3.org/2000/svg"
   xmlns:inkscape="http://www.inkscape.org/namespaces/inkscape"
   version="1.1"
   width="82.5"
   height="157.5"
   id="svg2"
   xml:space="preserve"><metadata
     id="metadata8"><rdf:RDF><cc:Work
         rdf:about=""><dc:format>image/svg+xml</dc:format><dc:type
           rdf:resource="http://purl.org/dc/dcmitype/StillImage" /></cc:Work></rdf:RDF></metadata><defs
     id="defs6" /><g
     transform="matrix(1.25,0,0,-1.25,0,157.5)"
     id="g10"><g
       transform="scale(0.1,0.1)"
       id="g12"><path
         d="m 76.4805,1257.83 335.9415,0 0,-83.13 -335.9415,0 0,83.13 z m 120.1605,-1116.1 103.281,0 0,-131.4019 -103.281,0 0,131.4019 z m 200.781,472.348 c 24.258,-8.238 47.887,-25.859 70.937,-52.808 23.012,-27 46.129,-64.071 69.371,-111.25 l 115.161,-229.071 -121.871,0 -107.192,215 c -27.738,56.141 -54.609,93.36 -80.629,111.723 -26.051,18.437 -61.519,27.656 -106.398,27.656 l -123.602,0 0,-354.379 -113.429469,0 0,838.281 256.089469,0 c 95.821,0 167.34,-20.07 214.532,-60.152 47.187,-40 70.781,-100.43 70.781,-181.25 0,-52.808 -12.301,-96.637 -36.871,-131.406 -24.5,-34.801 -60.121,-58.902 -106.879,-72.344 z m -284.223,352.031 0,-297.66 142.66,0 c 54.692,0 95.942,12.582 123.75,37.821 27.891,25.308 41.871,62.5 41.871,111.558 0,49.063 -13.98,86.012 -41.871,110.942 -27.808,24.878 -69.058,37.339 -123.75,37.339 l -142.66,0 z"
         inkscape:connector-curvature="0"
         id="path14"
         style="fill:#000000;fill-opacity:1;fill-rule:nonzero;stroke:none" /></g></g></svg>