<?xml version="1.0" encoding="UTF-8" standalone="no"?>
<!-- Created with Inkscape (http://www.inkscape.org/) -->

<svg
   xmlns:dc="http://purl.org/dc/elements/1.1/"
   xmlns:cc="http://creativecommons.org/ns#"
   xmlns:rdf="http://www.w3.org/1999/02/22-rdf-syntax-ns#"
   xmlns:svg="http://www.w3.org/2000/svg"
   xmlns="http://www.w3.org/2000/svg"
   xmlns:inkscape="http://www.inkscape.org/namespaces/inkscape"
   version="1.1"
   width="77.5"
   height="127.5"
   id="svg2"
   xml:space="preserve"><metadata
     id="metadata8"><rdf:RDF><cc:Work
         rdf:about=""><dc:format>image/svg+xml</dc:format><dc:type
           rdf:resource="http://purl.org/dc/dcmitype/StillImage" /></cc:Work></rdf:RDF></metadata><defs
     id="defs6" /><g
     transform="matrix(1.25,0,0,-1.25,0,127.5)"
     id="g10"><g
       transform="scale(0.1,0.1)"
       id="g12"><path
         d="m 366.129,989.301 c 41.883,19.059 82.422,28.589 121.723,28.589 38.949,0 70.308,-7.97 94.058,-23.91 23.828,-15.859 35.789,-36.32 35.789,-61.402 0,-22.808 -16.527,-46.406 -49.539,-70.777 l -24.68,-17.973 c -13.128,-9.687 -20.429,-16.25 -21.878,-19.687 -2.622,-5.942 -3.903,-14.922 -3.903,-26.871 l -66.879,0 0,6.71 c 0,15 2.809,27.54 8.442,37.661 5.617,10.078 17.968,22.07 37.027,35.937 l 25.313,19.063 c 17.187,12.699 25.777,26.558 25.777,41.558 0,7.821 -5.777,15.082 -17.34,21.879 -11.559,6.762 -30.699,10.152 -57.34,10.152 -33.679,0 -69.179,-9.761 -106.57,-29.21 l 0,48.281 z m -130,-105 105.633,0 118.437,-149.379 -77.969,0 -93.281,100 -93.289,-100 -77.961,0 118.43,149.379 z M 288.48,582.73 c -55.429,0 -99.218,-21.64 -131.41,-64.839 C 124.879,474.648 108.789,415.43 108.789,340.23 108.789,265 124.77,205.738 156.762,162.422 188.828,119.18 232.73,97.5781 288.48,97.5781 c 55.071,0 98.75,21.7229 130.93,65.1519 32.192,43.442 48.289,102.579 48.289,177.5 0,74.461 -16.097,133.481 -48.289,177.04 -32.18,43.628 -75.859,65.46 -130.93,65.46 z m 0,87.661 c 89.879,0 160.469,-29.219 211.719,-87.661 51.25,-58.351 76.871,-139.179 76.871,-242.5 0,-102.929 -25.621,-183.71 -76.871,-242.3394 C 448.949,39.3398 378.359,10.0781 288.48,10.0781 198.238,10.0781 127.578,39.3398 76.4492,97.8906 25.3906,156.52 -0.121094,237.301 -0.121094,340.23 c 0,103.321 25.511694,184.149 76.570294,242.5 51.1288,58.442 121.7888,87.661 212.0308,87.661 z"
         inkscape:connector-curvature="0"
         id="path14"
         style="fill:#000000;fill-opacity:1;fill-rule:nonzero;stroke:none" /></g></g></svg>