<?xml version="1.0" encoding="UTF-8" standalone="no"?>
<!-- Created with Inkscape (http://www.inkscape.org/) -->

<svg
   xmlns:dc="http://purl.org/dc/elements/1.1/"
   xmlns:cc="http://creativecommons.org/ns#"
   xmlns:rdf="http://www.w3.org/1999/02/22-rdf-syntax-ns#"
   xmlns:svg="http://www.w3.org/2000/svg"
   xmlns="http://www.w3.org/2000/svg"
   xmlns:inkscape="http://www.inkscape.org/namespaces/inkscape"
   version="1.1"
   width="73.75"
   height="143.75"
   id="svg2"
   xml:space="preserve"><metadata
     id="metadata8"><rdf:RDF><cc:Work
         rdf:about=""><dc:format>image/svg+xml</dc:format><dc:type
           rdf:resource="http://purl.org/dc/dcmitype/StillImage" /></cc:Work></rdf:RDF></metadata><defs
     id="defs6" /><g
     transform="matrix(1.25,0,0,-1.25,0,143.75)"
     id="g10"><g
       transform="scale(0.1,0.1)"
       id="g12"><path
         d="m 246.129,141.73 103.281,0 0,-131.4097 -103.281,0 0,131.4097 z m 336.57,419.532 0,-50.633 -475,0 c 4.449,-71.051 25.852,-125.231 64.211,-162.5 38.442,-37.301 91.918,-55.93 160.469,-55.93 39.691,0 78.133,4.84 115.32,14.531 37.262,9.758 74.25,24.411 110.93,43.899 l 0,-97.649 C 521.52,237.23 483.52,225.238 444.57,217.039 c -38.871,-8.199 -78.359,-12.34 -118.441,-12.34 -100.309,0 -179.801,29.141 -238.4298,87.5 -58.5586,58.43 -87.820294,137.422 -87.820294,237.031 0,102.891 27.742194,184.571 83.281294,245 55.6288,60.5 130.6288,90.782 224.9998,90.782 84.57,0 151.449,-27.274 200.629,-81.723 49.262,-54.488 73.91,-128.519 73.91,-222.027 z M 479.41,591.57 c -0.738,56.559 -16.558,101.641 -47.5,135.309 -30.859,33.641 -71.711,50.473 -122.648,50.473 -57.621,0 -103.75,-16.332 -138.442,-48.903 -34.609,-32.5 -54.492,-78.359 -59.691,-137.5 l 368.281,0.621 z m -233.281,-449.84 103.281,0 0,-131.4097 -103.281,0 0,131.4097 z m 16.25,999.06 83.133,0 137.5,-211.251 -77.973,0 -101.09,137.661 -101.097,-137.661 -77.973,0 137.5,211.251 z"
         inkscape:connector-curvature="0"
         id="path14"
         style="fill:#000000;fill-opacity:1;fill-rule:nonzero;stroke:none" /></g></g></svg>