<?xml version="1.0" encoding="UTF-8" standalone="no"?>
<!-- Created with Inkscape (http://www.inkscape.org/) -->

<svg
   xmlns:dc="http://purl.org/dc/elements/1.1/"
   xmlns:cc="http://creativecommons.org/ns#"
   xmlns:rdf="http://www.w3.org/1999/02/22-rdf-syntax-ns#"
   xmlns:svg="http://www.w3.org/2000/svg"
   xmlns="http://www.w3.org/2000/svg"
   xmlns:inkscape="http://www.inkscape.org/namespaces/inkscape"
   version="1.1"
   width="96.25"
   height="152.5"
   id="svg2"
   xml:space="preserve"><metadata
     id="metadata8"><rdf:RDF><cc:Work
         rdf:about=""><dc:format>image/svg+xml</dc:format><dc:type
           rdf:resource="http://purl.org/dc/dcmitype/StillImage" /></cc:Work></rdf:RDF></metadata><defs
     id="defs6" /><g
     transform="matrix(1.25,0,0,-1.25,0,152.5)"
     id="g10"><g
       transform="scale(0.1,0.1)"
       id="g12"><path
         d="m 384.141,736.551 -153.911,-417.18 308.29,0 -154.379,417.18 z m -64.063,111.719 128.594,0 319.527,-838.28172 -117.969,0 -76.402,214.99972 -377.808,0 L 119.609,9.98828 0.078125,9.98828 320.078,848.27 z m -112.348,209.69 66.25,0 c 4.891,-20.23 16.61,-35.7 35.161,-46.41 18.519,-10.62 43.32,-15.929 74.379,-15.929 30.699,0 55.152,5.149 73.281,15.469 18.121,10.31 30.187,25.93 36.25,46.87 l 66.25,0 C 555.551,1013.47 538.672,979.719 508.672,956.711 478.75,933.66 437.031,922.18 383.52,922.18 c -53.989,0 -95.86,11.41 -125.629,34.218 -29.692,22.813 -46.411,56.642 -50.161,101.562 z m 173.598,52.81 -32.027,18.44 c -9.379,5.31 -17,8.95 -22.821,10.94 -5.742,2.07 -10.89,3.12 -15.46,3.12 -13.442,0 -23.911,-4.68 -31.411,-14.06 -7.5,-9.3 -11.25,-22.34 -11.25,-39.22 l 0,-3.44 -70.16,0 c 0,37.82 9.61,67.74 28.91,89.85 19.262,22.07 45,33.12 77.192,33.12 13.508,0 25.969,-1.52 37.34,-4.53 11.449,-2.93 26.129,-9.45 44.058,-19.53 l 32.031,-16.87 c 8.641,-4.93 16.141,-8.52 22.5,-10.79 6.329,-2.18 12.348,-3.28 17.969,-3.28 11.961,0 21.723,4.73 29.223,14.22 7.5,9.57 11.25,22.07 11.25,37.5 l 0,3.28 70.156,0 c -0.738,-37.42 -10.738,-67.26 -30,-89.53 -19.297,-22.3 -44.648,-33.44 -76.098,-33.44 -12.73,0 -24.64,1.49 -35.781,4.54 -11.051,3 -26.25,9.57 -45.621,19.68 z"
         inkscape:connector-curvature="0"
         id="path14"
         style="fill:#000000;fill-opacity:1;fill-rule:nonzero;stroke:none" /></g></g></svg>