<?xml version="1.0" encoding="UTF-8" standalone="no"?>
<!-- Created with Inkscape (http://www.inkscape.org/) -->

<svg
   xmlns:dc="http://purl.org/dc/elements/1.1/"
   xmlns:cc="http://creativecommons.org/ns#"
   xmlns:rdf="http://www.w3.org/1999/02/22-rdf-syntax-ns#"
   xmlns:svg="http://www.w3.org/2000/svg"
   xmlns="http://www.w3.org/2000/svg"
   xmlns:inkscape="http://www.inkscape.org/namespaces/inkscape"
   version="1.1"
   width="82.5"
   height="112.5"
   id="svg2"
   xml:space="preserve"><metadata
     id="metadata8"><rdf:RDF><cc:Work
         rdf:about=""><dc:format>image/svg+xml</dc:format><dc:type
           rdf:resource="http://purl.org/dc/dcmitype/StillImage" /></cc:Work></rdf:RDF></metadata><defs
     id="defs6" /><g
     transform="matrix(1.25,0,0,-1.25,0,112.5)"
     id="g10"><g
       transform="scale(0.1,0.1)"
       id="g12"><path
         d="m 458.629,571.34 c 0,74.879 -15.469,132.89 -46.399,174.058 -30.859,41.25 -74.14,61.872 -129.851,61.872 -55.43,0 -98.59,-20.622 -129.527,-61.872 -30.864,-41.168 -46.25,-99.179 -46.25,-174.058 0,-74.5 15.386,-132.352 46.25,-173.602 30.937,-41.168 74.097,-61.718 129.527,-61.718 55.711,0 98.992,20.55 129.851,61.718 30.93,41.25 46.399,99.102 46.399,173.602 z M 561.91,327.738 c 0,-41.25 -3.551,-78.316 -10.621,-111.25 l 100.473,0 0,-39.367 -111.102,0 C 528.98,142.352 512.301,112.98 490.66,88.9883 443.16,36.6094 370.352,10.3984 272.23,10.3984 c -36.371,0 -70.628,2.7305 -102.82,8.1211 -32.18,5.4297 -63.43,13.75 -93.7498,25 l 0,100.4685 c 30.3198,-16.437 60.2378,-28.59 89.8518,-36.398 29.566,-7.8908 59.718,-11.8791 90.468,-11.8791 67.692,0 118.43,17.8091 152.18,53.4371 7.82,8.551 14.891,18.082 21.25,28.59 l -357.0311,0 0,38.75 373.9101,0 c 8.199,26.563 12.34,57.422 12.34,92.66 l 0,51.09 c -21.359,-37.109 -48.707,-64.797 -82.027,-83.117 -33.243,-18.359 -73.082,-27.5 -119.532,-27.5 -77.109,0 -139.218,29.367 -186.4098,88.117 -47.1797,58.75 -70.781294,136.602 -70.781294,233.602 0,97.379 23.601594,175.461 70.781294,234.211 47.1918,58.75 109.3008,88.129 186.4098,88.129 46.45,0 86.289,-9.18 119.532,-27.5 33.32,-18.36 60.668,-46.059 82.027,-83.129 l 0,95.469 103.281,0 0,-550.782 z"
         inkscape:connector-curvature="0"
         id="path14"
         style="fill:#000000;fill-opacity:1;fill-rule:nonzero;stroke:none" /></g></g></svg>