<?xml version="1.0" encoding="UTF-8" standalone="no"?>
<!-- Created with Inkscape (http://www.inkscape.org/) -->

<svg
   xmlns:dc="http://purl.org/dc/elements/1.1/"
   xmlns:cc="http://creativecommons.org/ns#"
   xmlns:rdf="http://www.w3.org/1999/02/22-rdf-syntax-ns#"
   xmlns:svg="http://www.w3.org/2000/svg"
   xmlns="http://www.w3.org/2000/svg"
   xmlns:inkscape="http://www.inkscape.org/namespaces/inkscape"
   version="1.1"
   width="71.25"
   height="137.5"
   id="svg2"
   xml:space="preserve"><metadata
     id="metadata8"><rdf:RDF><cc:Work
         rdf:about=""><dc:format>image/svg+xml</dc:format><dc:type
           rdf:resource="http://purl.org/dc/dcmitype/StillImage" /></cc:Work></rdf:RDF></metadata><defs
     id="defs6" /><g
     transform="matrix(1.25,0,0,-1.25,0,137.5)"
     id="g10"><g
       transform="scale(0.1,0.1)"
       id="g12"><path
         d="m 226.129,141.172 103.281,0 0,-131.40247 -103.281,0 0,131.40247 z m 232.5,612.656 0,340.312 103.281,0 0,-873.749 -103.281,0 0,94.379 c -21.68,-37.5 -49.059,-65.321 -82.18,-83.442 -33.129,-18.129 -72.929,-27.187 -119.379,-27.187 -75.941,0 -137.808,30.308 -185.6208,90.937 -47.7383,60.621 -71.570294,140.352 -71.570294,239.223 0,98.82 23.831994,178.59 71.570294,239.219 47.8128,60.621 109.6798,90.929 185.6208,90.929 46.45,0 86.25,-9.14 119.379,-27.34 33.121,-18.129 60.5,-45.898 82.18,-83.281 z M 106.602,534.301 c 0,-76.063 15.628,-135.711 46.878,-178.91 31.25,-43.243 74.219,-64.84 128.899,-64.84 54.57,0 97.582,21.597 129.07,64.84 31.442,43.199 47.18,102.847 47.18,178.91 0,75.929 -15.738,135.5 -47.18,178.75 -31.488,43.32 -74.5,65 -129.07,65 -54.68,0 -97.649,-21.68 -128.899,-65 -31.25,-43.25 -46.878,-102.821 -46.878,-178.75 z"
         inkscape:connector-curvature="0"
         id="path14"
         style="fill:#000000;fill-opacity:1;fill-rule:nonzero;stroke:none" /></g></g></svg>