<?xml version="1.0" encoding="UTF-8" standalone="no"?>
<!-- Created with Inkscape (http://www.inkscape.org/) -->

<svg
   xmlns:dc="http://purl.org/dc/elements/1.1/"
   xmlns:cc="http://creativecommons.org/ns#"
   xmlns:rdf="http://www.w3.org/1999/02/22-rdf-syntax-ns#"
   xmlns:svg="http://www.w3.org/2000/svg"
   xmlns="http://www.w3.org/2000/svg"
   xmlns:inkscape="http://www.inkscape.org/namespaces/inkscape"
   version="1.1"
   width="32.5"
   height="118.75"
   id="svg2"
   xml:space="preserve"><metadata
     id="metadata8"><rdf:RDF><cc:Work
         rdf:about=""><dc:format>image/svg+xml</dc:format><dc:type
           rdf:resource="http://purl.org/dc/dcmitype/StillImage" /></cc:Work></rdf:RDF></metadata><defs
     id="defs6" /><g
     transform="matrix(1.25,0,0,-1.25,0,118.75)"
     id="g10"><g
       transform="scale(0.1,0.1)"
       id="g12"><path
         d="m 70.1992,638.91 103.2808,0 0,-628.91 -103.2808,0 0,628.91 z M 1.44922,912.969 c 41.87108,19.062 82.42188,28.59 121.71078,28.59 38.949,0 70.32,-7.969 94.07,-23.899 23.821,-15.859 35.782,-36.332 35.782,-61.41 0,-22.809 -16.532,-46.41 -49.532,-70.781 L 178.789,767.5 c -13.129,-9.691 -20.43,-16.25 -21.879,-19.691 -2.609,-5.93 -3.898,-14.918 -3.898,-26.868 l -66.8831,0 0,6.719 c 0,15 2.8203,27.539 8.4414,37.649 5.6287,10.082 17.9687,22.07 37.0317,35.941 l 25.308,19.059 c 17.192,12.703 25.789,26.57 25.789,41.57 0,7.812 -5.789,15.07 -17.347,21.871 -11.563,6.762 -30.704,10.16 -57.34,10.16 -33.6722,0 -69.1839,-9.769 -106.56278,-29.219 l 0,48.278 z"
         inkscape:connector-curvature="0"
         id="path14"
         style="fill:#000000;fill-opacity:1;fill-rule:nonzero;stroke:none" /></g></g></svg>