<?xml version="1.0" encoding="UTF-8" standalone="no"?>
<!-- Created with Inkscape (http://www.inkscape.org/) -->

<svg
   xmlns:dc="http://purl.org/dc/elements/1.1/"
   xmlns:cc="http://creativecommons.org/ns#"
   xmlns:rdf="http://www.w3.org/1999/02/22-rdf-syntax-ns#"
   xmlns:svg="http://www.w3.org/2000/svg"
   xmlns="http://www.w3.org/2000/svg"
   xmlns:inkscape="http://www.inkscape.org/namespaces/inkscape"
   version="1.1"
   width="106.25"
   height="128.75"
   id="svg2"
   xml:space="preserve"><metadata
     id="metadata8"><rdf:RDF><cc:Work
         rdf:about=""><dc:format>image/svg+xml</dc:format><dc:type
           rdf:resource="http://purl.org/dc/dcmitype/StillImage" /></cc:Work></rdf:RDF></metadata><defs
     id="defs6" /><g
     transform="matrix(1.25,0,0,-1.25,0,128.75)"
     id="g10"><g
       transform="scale(0.1,0.1)"
       id="g12"><path
         d="m -0.078125,638.91 103.277125,0 129.223,-490.781 128.598,490.781 121.871,0 129.058,-490.781 128.602,490.781 103.277,0 -164.379,-628.8983 -121.871,0 L 422.27,525.48 286.328,10.0117 l -121.879,0 L -0.078125,638.91 z M 504.449,865.789 c 0,23.512 -8.238,43.512 -24.679,60 -16.489,16.563 -36.68,24.84 -60.629,24.84 -24.371,0 -44.692,-8.199 -60.942,-24.527 -16.25,-16.25 -24.371,-36.372 -24.371,-60.313 0,-24.379 8.121,-44.687 24.371,-60.937 16.25,-16.25 36.571,-24.372 60.942,-24.372 23.949,0 44.14,8.2 60.629,24.68 16.441,16.449 24.679,36.641 24.679,60.629 z m 68.602,0 c 0,-43.051 -14.93,-79.527 -44.692,-109.527 -29.808,-29.922 -66.211,-44.852 -109.218,-44.852 -43.051,0 -79.45,14.93 -109.219,44.852 -29.801,30 -44.692,66.476 -44.692,109.527 0,43.012 14.891,79.41 44.692,109.223 29.769,29.758 66.168,44.688 109.219,44.688 43.007,0 79.41,-14.93 109.218,-44.688 29.762,-29.813 44.692,-66.211 44.692,-109.223 z"
         inkscape:connector-curvature="0"
         id="path14"
         style="fill:#000000;fill-opacity:1;fill-rule:nonzero;stroke:none" /></g></g></svg>