<?xml version="1.0" encoding="UTF-8" standalone="no"?>
<!-- Created with Inkscape (http://www.inkscape.org/) -->

<svg
   xmlns:dc="http://purl.org/dc/elements/1.1/"
   xmlns:cc="http://creativecommons.org/ns#"
   xmlns:rdf="http://www.w3.org/1999/02/22-rdf-syntax-ns#"
   xmlns:svg="http://www.w3.org/2000/svg"
   xmlns="http://www.w3.org/2000/svg"
   xmlns:inkscape="http://www.inkscape.org/namespaces/inkscape"
   version="1.1"
   width="73.75"
   height="120"
   id="svg2"
   xml:space="preserve"><metadata
     id="metadata8"><rdf:RDF><cc:Work
         rdf:about=""><dc:format>image/svg+xml</dc:format><dc:type
           rdf:resource="http://purl.org/dc/dcmitype/StillImage" /></cc:Work></rdf:RDF></metadata><defs
     id="defs6" /><g
     transform="matrix(1.25,0,0,-1.25,0,120)"
     id="g10"><g
       transform="scale(0.1,0.1)"
       id="g12"><path
         d="m 582.699,366.609 0,-50.629 -475,0 c 4.449,-71.05 25.852,-125.23 64.211,-162.5 38.442,-37.3 91.918,-55.9292 160.469,-55.9292 39.691,0 78.133,4.8402 115.32,14.5272 37.262,9.762 74.25,24.41 110.93,43.902 l 0,-97.6519 C 521.52,42.5898 483.52,30.5898 444.57,22.3906 405.699,14.1914 366.211,10.0508 326.129,10.0508 225.82,10.0508 146.328,39.1914 87.6992,97.5508 29.1406,155.98 -0.121094,234.969 -0.121094,334.578 c 0,102.891 27.742194,184.57 83.281294,245 55.6288,60.512 130.6288,90.781 224.9998,90.781 84.57,0 151.449,-27.269 200.629,-81.718 49.262,-54.493 73.91,-128.52 73.91,-222.032 z M 479.41,396.922 c -0.738,56.558 -16.558,101.637 -47.5,135.308 -30.859,33.641 -71.711,50.469 -122.648,50.469 -57.621,0 -103.75,-16.328 -138.442,-48.898 -34.609,-32.5 -54.492,-78.36 -59.691,-137.5 l 368.281,0.621 z M 186.129,929.27 c 41.883,19.058 82.422,28.589 121.723,28.589 38.949,0 70.308,-7.968 94.058,-23.91 23.828,-15.859 35.789,-36.328 35.789,-61.398 0,-22.821 -16.527,-46.41 -49.539,-70.781 l -24.68,-17.969 c -13.128,-9.692 -20.429,-16.25 -21.878,-19.692 -2.622,-5.937 -3.903,-14.918 -3.903,-26.879 l -66.879,0 0,6.719 c 0,15 2.809,27.539 8.442,37.66 5.617,10.082 17.968,22.071 37.027,35.942 l 25.313,19.058 c 17.187,12.692 25.777,26.563 25.777,41.563 0,7.808 -5.777,15.078 -17.34,21.879 -11.559,6.75 -30.699,10.148 -57.34,10.148 -33.679,0 -69.179,-9.758 -106.57,-29.219 l 0,48.29 z"
         inkscape:connector-curvature="0"
         id="path14"
         style="fill:#000000;fill-opacity:1;fill-rule:nonzero;stroke:none" /></g></g></svg>