<?xml version="1.0" encoding="UTF-8" standalone="no"?>
<!-- Created with Inkscape (http://www.inkscape.org/) -->

<svg
   xmlns:dc="http://purl.org/dc/elements/1.1/"
   xmlns:cc="http://creativecommons.org/ns#"
   xmlns:rdf="http://www.w3.org/1999/02/22-rdf-syntax-ns#"
   xmlns:svg="http://www.w3.org/2000/svg"
   xmlns="http://www.w3.org/2000/svg"
   xmlns:inkscape="http://www.inkscape.org/namespaces/inkscape"
   version="1.1"
   width="68.75"
   height="133.75"
   id="svg2"
   xml:space="preserve"><metadata
     id="metadata8"><rdf:RDF><cc:Work
         rdf:about=""><dc:format>image/svg+xml</dc:format><dc:type
           rdf:resource="http://purl.org/dc/dcmitype/StillImage" /></cc:Work></rdf:RDF></metadata><defs
     id="defs6" /><g
     transform="matrix(1.25,0,0,-1.25,0,133.75)"
     id="g10"><g
       transform="scale(0.1,0.1)"
       id="g12"><path
         d="m 192.109,1061.73 114.692,0 0,-115.152 -114.692,0 0,115.152 z m -78.91,-306.558 0,-315 142.66,0 c 52.813,0 93.59,13.629 122.34,40.937 28.832,27.379 43.281,66.332 43.281,116.871 0,50.079 -14.449,88.79 -43.281,116.098 -28.75,27.383 -69.527,41.094 -122.34,41.094 l -142.66,0 z m -113.429469,93.129 256.089469,0 c 93.942,0 165,-21.25 213.121,-63.75 48.129,-42.422 72.192,-104.61 72.192,-186.571 0,-82.808 -24.063,-145.39 -72.192,-187.652 C 420.859,368.02 349.801,346.891 255.859,346.891 l -142.66,0 0,-336.8715 -113.429469,0 0,838.2815 z"
         inkscape:connector-curvature="0"
         id="path14"
         style="fill:#000000;fill-opacity:1;fill-rule:nonzero;stroke:none" /></g></g></svg>