<?xml version="1.0" encoding="UTF-8" standalone="no"?>
<!-- Created with Inkscape (http://www.inkscape.org/) -->

<svg
   xmlns:dc="http://purl.org/dc/elements/1.1/"
   xmlns:cc="http://creativecommons.org/ns#"
   xmlns:rdf="http://www.w3.org/1999/02/22-rdf-syntax-ns#"
   xmlns:svg="http://www.w3.org/2000/svg"
   xmlns="http://www.w3.org/2000/svg"
   xmlns:inkscape="http://www.inkscape.org/namespaces/inkscape"
   version="1.1"
   width="103.75"
   height="136.25"
   id="svg2"
   xml:space="preserve"><metadata
     id="metadata8"><rdf:RDF><cc:Work
         rdf:about=""><dc:format>image/svg+xml</dc:format><dc:type
           rdf:resource="http://purl.org/dc/dcmitype/StillImage" /></cc:Work></rdf:RDF></metadata><defs
     id="defs6" /><g
     transform="matrix(1.25,0,0,-1.25,0,136.25)"
     id="g10"><g
       transform="scale(0.1,0.1)"
       id="g12"><path
         d="m 293.16,1081.92 110.16,-148.279 -85.941,0 -129.219,148.279 105,0 z M 2.69922,863.328 l 113.90278,0 0,-509.219 c 0,-89.918 16.289,-154.609 48.91,-194.058 32.578,-39.5 85.347,-59.223 158.277,-59.223 72.691,0 125.313,19.723 157.813,59.223 32.578,39.449 48.91,104.14 48.91,194.058 l 0,509.219 113.898,0 0,-523.277 C 644.41,230.75 617.379,148.211 563.32,92.3906 509.262,36.6484 429.41,8.80078 323.789,8.80078 217.852,8.80078 137.852,36.6484 83.7891,92.3906 29.7305,148.211 2.69922,230.75 2.69922,340.051 l 0,523.277 z m 597.17978,-126.25 0,66.723 c 22.891,-16.801 42.582,-29.223 59.07,-37.352 16.442,-8.039 30.461,-12.027 42.031,-12.027 17.258,0 30.192,5.156 38.75,15.469 8.629,10.308 12.969,25.55 12.969,45.781 0,11.949 -1.41,23.75 -4.219,35.308 -2.82,11.641 -7.031,23.29 -12.66,34.848 l 74.692,0 c 3.75,-14.297 6.558,-27.777 8.437,-40.469 1.871,-12.738 2.813,-24.687 2.813,-35.937 0,-45.621 -8.211,-79.223 -24.532,-100.781 -16.25,-21.481 -41.8,-32.192 -76.57,-32.192 -17.93,0 -36.711,4.922 -56.398,14.852 -19.692,9.879 -41.172,25.148 -64.383,45.777 z"
         inkscape:connector-curvature="0"
         id="path14"
         style="fill:#000000;fill-opacity:1;fill-rule:nonzero;stroke:none" /></g></g></svg>