<?xml version="1.0" encoding="UTF-8" standalone="no"?>
<!-- Created with Inkscape (http://www.inkscape.org/) -->

<svg
   xmlns:dc="http://purl.org/dc/elements/1.1/"
   xmlns:cc="http://creativecommons.org/ns#"
   xmlns:rdf="http://www.w3.org/1999/02/22-rdf-syntax-ns#"
   xmlns:svg="http://www.w3.org/2000/svg"
   xmlns="http://www.w3.org/2000/svg"
   xmlns:inkscape="http://www.inkscape.org/namespaces/inkscape"
   version="1.1"
   width="71.25"
   height="138.75"
   id="svg2"
   xml:space="preserve"><metadata
     id="metadata8"><rdf:RDF><cc:Work
         rdf:about=""><dc:format>image/svg+xml</dc:format><dc:type
           rdf:resource="http://purl.org/dc/dcmitype/StillImage" /></cc:Work></rdf:RDF></metadata><defs
     id="defs6" /><g
     transform="matrix(1.25,0,0,-1.25,0,138.75)"
     id="g10"><g
       transform="scale(0.1,0.1)"
       id="g12"><path
         d="m 458.629,765.641 0,340.309 103.281,0 0,-873.751 -103.281,0 0,94.379 C 436.949,289.078 409.57,261.27 376.449,243.141 343.32,225.02 303.52,215.949 257.07,215.949 c -75.941,0 -137.808,30.321 -185.6208,90.942 -47.7383,60.629 -71.570294,140.347 -71.570294,239.218 0,98.832 23.831994,178.59 71.570294,239.219 47.8128,60.621 109.6798,90.942 185.6208,90.942 46.45,0 86.25,-9.141 119.379,-27.348 33.121,-18.121 60.5,-45.902 82.18,-83.281 z M 106.602,546.109 c 0,-76.058 15.628,-135.699 46.878,-178.91 31.25,-43.238 74.219,-64.84 128.899,-64.84 54.57,0 97.582,21.602 129.07,64.84 31.442,43.211 47.18,102.852 47.18,178.91 0,75.942 -15.738,135.512 -47.18,178.75 -31.488,43.321 -74.5,65 -129.07,65 -54.68,0 -97.649,-21.679 -128.899,-65 -31.25,-43.238 -46.878,-102.808 -46.878,-178.75 z M 261.129,232.199 C 281.762,209 297.109,187.59 307.23,167.98 c 10.071,-19.679 15.149,-38.511 15.149,-56.558 0,-33.3204 -11.25,-58.4728 -33.75,-75.4728 -22.5,-17.0703 -55.859,-25.6211 -100,-25.6211 -17.18,0 -33.981,1.1719 -50.309,3.4414 -16.25,2.3008 -32.422,5.6993 -48.4411,10.1524 l 0,73.4375 c 12.6991,-6.3281 25.9801,-10.9375 39.8511,-13.75 13.821,-2.8086 29.571,-4.2188 47.18,-4.2188 22.07,0 38.68,4.5313 49.852,13.5899 11.25,8.9885 16.867,22.0395 16.867,39.2185 0,11.25 -4.02,25.082 -12.027,41.41 -8.051,16.25 -20.473,35.782 -37.34,58.59 l 66.867,0 z"
         inkscape:connector-curvature="0"
         id="path14"
         style="fill:#000000;fill-opacity:1;fill-rule:nonzero;stroke:none" /></g></g></svg>