<?xml version="1.0" encoding="UTF-8" standalone="no"?>
<!-- Created with Inkscape (http://www.inkscape.org/) -->

<svg
   xmlns:dc="http://purl.org/dc/elements/1.1/"
   xmlns:cc="http://creativecommons.org/ns#"
   xmlns:rdf="http://www.w3.org/1999/02/22-rdf-syntax-ns#"
   xmlns:svg="http://www.w3.org/2000/svg"
   xmlns="http://www.w3.org/2000/svg"
   xmlns:inkscape="http://www.inkscape.org/namespaces/inkscape"
   version="1.1"
   width="68.75"
   height="135"
   id="svg2"
   xml:space="preserve"><metadata
     id="metadata8"><rdf:RDF><cc:Work
         rdf:about=""><dc:format>image/svg+xml</dc:format><dc:type
           rdf:resource="http://purl.org/dc/dcmitype/StillImage" /></cc:Work></rdf:RDF></metadata><defs
     id="defs6" /><g
     transform="matrix(1.25,0,0,-1.25,0,135)"
     id="g10"><g
       transform="scale(0.1,0.1)"
       id="g12"><path
         d="m 290.391,1076.88 103.75,0 -127.969,-148.29 -85.942,0 110.161,148.29 z m -177.192,-321.72 0,-315 142.66,0 c 52.813,0 93.59,13.629 122.34,40.93 28.832,27.39 43.281,66.332 43.281,116.879 0,50.082 -14.449,88.793 -43.281,116.09 -28.75,27.39 -69.527,41.101 -122.34,41.101 l -142.66,0 z m -113.429469,93.121 256.089469,0 c 93.942,0 165,-21.25 213.121,-63.75 48.129,-42.422 72.192,-104.609 72.192,-186.562 0,-82.809 -24.063,-145.391 -72.192,-187.66 -48.121,-42.297 -119.179,-63.43 -213.121,-63.43 l -142.66,0 0,-336.879 -113.429469,0 0,838.281 z"
         inkscape:connector-curvature="0"
         id="path14"
         style="fill:#000000;fill-opacity:1;fill-rule:nonzero;stroke:none" /></g></g></svg>