<?xml version="1.0" encoding="UTF-8" standalone="no"?>
<!-- Created with Inkscape (http://www.inkscape.org/) -->

<svg
   xmlns:dc="http://purl.org/dc/elements/1.1/"
   xmlns:cc="http://creativecommons.org/ns#"
   xmlns:rdf="http://www.w3.org/1999/02/22-rdf-syntax-ns#"
   xmlns:svg="http://www.w3.org/2000/svg"
   xmlns="http://www.w3.org/2000/svg"
   xmlns:inkscape="http://www.inkscape.org/namespaces/inkscape"
   version="1.1"
   width="92.5"
   height="131.25"
   id="svg2"
   xml:space="preserve"><metadata
     id="metadata8"><rdf:RDF><cc:Work
         rdf:about=""><dc:format>image/svg+xml</dc:format><dc:type
           rdf:resource="http://purl.org/dc/dcmitype/StillImage" /></cc:Work></rdf:RDF></metadata><defs
     id="defs6" /><g
     transform="matrix(1.25,0,0,-1.25,0,131.25)"
     id="g10"><g
       transform="scale(0.1,0.1)"
       id="g12"><path
         d="m 619.84,145.859 0,225.313 -185.309,0 0,93.129 297.66,0 0,-359.852 C 688.32,73.2813 640,49.7695 587.191,33.8281 534.449,18.0117 478.16,10.0781 418.281,10.0781 287.23,10.0781 184.73,48.3594 110.781,124.922 36.8008,201.48 -0.160156,308.051 -0.160156,444.609 c 0,137.071 36.960956,243.911 110.941156,320.469 73.949,76.563 176.449,114.844 307.5,114.844 54.571,0 106.449,-6.801 155.629,-20.313 49.25,-13.437 94.68,-33.281 136.25,-59.531 l 0,-120.629 c -41.879,35.512 -86.41,62.231 -133.601,80.16 -47.18,18.012 -96.789,27.032 -148.75,27.032 -102.61,0 -179.649,-28.672 -231.09,-85.942 -51.489,-57.301 -77.188,-142.648 -77.188,-256.09 0,-113.05 25.699,-198.199 77.188,-255.468 51.441,-57.301 128.48,-85.942 231.09,-85.942 40,0 75.711,3.442 107.191,10.321 31.449,6.949 59.73,17.73 84.84,32.339 z m -395,897.341 335.941,0 0,-83.122 -335.941,0 0,83.122 z"
         inkscape:connector-curvature="0"
         id="path14"
         style="fill:#000000;fill-opacity:1;fill-rule:nonzero;stroke:none" /></g></g></svg>