<?xml version="1.0" encoding="UTF-8" standalone="no"?>
<!-- Created with Inkscape (http://www.inkscape.org/) -->

<svg
   xmlns:dc="http://purl.org/dc/elements/1.1/"
   xmlns:cc="http://creativecommons.org/ns#"
   xmlns:rdf="http://www.w3.org/1999/02/22-rdf-syntax-ns#"
   xmlns:svg="http://www.w3.org/2000/svg"
   xmlns="http://www.w3.org/2000/svg"
   xmlns:inkscape="http://www.inkscape.org/namespaces/inkscape"
   version="1.1"
   width="77.5"
   height="113.75"
   id="svg2"
   xml:space="preserve"><metadata
     id="metadata8"><rdf:RDF><cc:Work
         rdf:about=""><dc:format>image/svg+xml</dc:format><dc:type
           rdf:resource="http://purl.org/dc/dcmitype/StillImage" /></cc:Work></rdf:RDF></metadata><defs
     id="defs6" /><g
     transform="matrix(1.25,0,0,-1.25,0,113.75)"
     id="g10"><g
       transform="scale(0.1,0.1)"
       id="g12"><path
         d="m -0.078125,638.922 109.527125,0 196.571,-527.813 196.558,527.813 109.371,0 -235.777,-628.9025 -140.313,0 L -0.078125,638.922 z M 311.02,779.23 278.98,810.172 c -8.242,7.5 -15.46,13.008 -21.71,16.558 -6.18,3.52 -11.68,5.321 -16.571,5.321 -14.179,0 -24.648,-6.84 -31.398,-20.473 C 202.5,797.91 198.75,775.719 198.051,745.02 l -70.16,0 c 0.699,50.5 10.629,89.531 29.687,117.031 19.141,27.578 45.781,41.398 79.844,41.398 14.137,0 27.226,-2.648 39.219,-7.969 11.949,-5.23 24.879,-14.019 38.75,-26.402 l 32.031,-30.777 c 8.199,-7.5 15.387,-13.051 21.558,-16.571 6.25,-3.55 11.801,-5.308 16.719,-5.308 14.141,0 24.61,6.797 31.41,20.469 6.762,13.629 10.512,35.82 11.25,66.558 l 70.161,0 C 497.77,852.91 487.809,813.84 468.672,786.27 c -19.063,-27.5 -45.621,-41.25 -79.692,-41.25 -14.179,0 -27.261,2.57 -39.21,7.808 -12,5.313 -24.93,14.102 -38.75,26.402 z"
         inkscape:connector-curvature="0"
         id="path14"
         style="fill:#000000;fill-opacity:1;fill-rule:nonzero;stroke:none" /></g></g></svg>