<?xml version="1.0" encoding="UTF-8" standalone="no"?>
<!-- Created with Inkscape (http://www.inkscape.org/) -->

<svg
   xmlns:dc="http://purl.org/dc/elements/1.1/"
   xmlns:cc="http://creativecommons.org/ns#"
   xmlns:rdf="http://www.w3.org/1999/02/22-rdf-syntax-ns#"
   xmlns:svg="http://www.w3.org/2000/svg"
   xmlns="http://www.w3.org/2000/svg"
   xmlns:inkscape="http://www.inkscape.org/namespaces/inkscape"
   version="1.1"
   width="75"
   height="133.75"
   id="svg2"
   xml:space="preserve"><metadata
     id="metadata8"><rdf:RDF><cc:Work
         rdf:about=""><dc:format>image/svg+xml</dc:format><dc:type
           rdf:resource="http://purl.org/dc/dcmitype/StillImage" /></cc:Work></rdf:RDF></metadata><defs
     id="defs6" /><g
     transform="matrix(1.25,0,0,-1.25,0,133.75)"
     id="g10"><g
       transform="scale(0.1,0.1)"
       id="g12"><path
         d="m 222.109,1061.71 114.692,0 0,-115.159 -114.692,0 0,115.159 z m -108.91,-651.409 0,-307.031 182.031,0 c 60.942,0 106.098,12.582 135.469,37.82 29.461,25.308 44.223,63.941 44.223,115.93 0,52.39 -14.762,91.019 -44.223,115.941 -29.371,24.879 -74.527,37.34 -135.469,37.34 l -182.031,0 z m 0,344.847 0,-252.66 167.973,0 c 55.387,0 96.637,10.352 123.75,31.102 27.187,20.82 40.777,52.539 40.777,95.148 0,42.274 -13.59,73.91 -40.777,94.852 -27.113,21.012 -68.363,31.558 -123.75,31.558 l -167.973,0 z m -113.429469,93.122 289.839469,0 c 86.442,0 153.051,-17.969 199.84,-53.899 46.762,-35.941 70.16,-87.031 70.16,-153.281 0,-51.25 -11.988,-92.039 -35.937,-122.352 -23.981,-30.308 -59.141,-49.218 -105.473,-56.718 55.711,-11.989 98.992,-36.989 129.852,-75 30.929,-38.04 46.398,-85.469 46.398,-142.34 0,-74.918 -25.469,-132.77 -76.398,-173.5902 C 467.191,30.3398 394.801,9.98828 300.859,9.98828 l -301.089469,0 0,838.28172 z"
         inkscape:connector-curvature="0"
         id="path14"
         style="fill:#000000;fill-opacity:1;fill-rule:nonzero;stroke:none" /></g></g></svg>