<?xml version="1.0" encoding="UTF-8" standalone="no"?>
<!-- Created with Inkscape (http://www.inkscape.org/) -->

<svg
   xmlns:dc="http://purl.org/dc/elements/1.1/"
   xmlns:cc="http://creativecommons.org/ns#"
   xmlns:rdf="http://www.w3.org/1999/02/22-rdf-syntax-ns#"
   xmlns:svg="http://www.w3.org/2000/svg"
   xmlns="http://www.w3.org/2000/svg"
   xmlns:inkscape="http://www.inkscape.org/namespaces/inkscape"
   version="1.1"
   width="86.25"
   height="116.25"
   id="svg2"
   xml:space="preserve"><metadata
     id="metadata8"><rdf:RDF><cc:Work
         rdf:about=""><dc:format>image/svg+xml</dc:format><dc:type
           rdf:resource="http://purl.org/dc/dcmitype/StillImage" /></cc:Work></rdf:RDF></metadata><defs
     id="defs6" /><g
     transform="matrix(1.25,0,0,-1.25,0,116.25)"
     id="g10"><g
       transform="scale(0.1,0.1)"
       id="g12"><path
         d="m 458.199,782.949 0,66.723 c 22.891,-16.801 42.582,-29.223 59.071,-37.344 16.441,-8.047 30.46,-12.027 42.031,-12.027 17.258,0 30.187,5.148 38.75,15.469 8.629,10.308 12.969,25.539 12.969,45.781 0,11.949 -1.411,23.75 -4.219,35.308 -2.821,11.641 -7.031,23.282 -12.66,34.84 l 74.687,0 c 3.75,-14.289 6.563,-27.769 8.442,-40.469 1.871,-12.73 2.808,-24.679 2.808,-35.929 0,-45.629 -8.199,-79.223 -24.527,-100.781 -16.25,-21.489 -41.801,-32.192 -76.571,-32.192 -17.929,0 -36.71,4.922 -56.402,14.844 -19.687,9.879 -41.168,25.156 -64.379,45.777 z M -1.32813,469.051 l 0,380.777 103.43713,0 0,-376.719 c 0,-59.609 11.563,-104.3 34.692,-134.058 C 160,309.359 194.84,294.52 241.328,294.52 c 55.703,0 99.762,17.73 132.192,53.281 32.378,35.621 48.589,84.097 48.589,145.469 l 0,356.558 103.282,0 0,-628.906 -103.282,0 0,96.558 C 396.988,279.359 367.891,251 334.77,232.48 301.641,213.969 263.199,204.672 219.449,204.672 147.148,204.672 92.2695,227.09 54.7695,272.02 17.3398,316.898 -1.32813,382.559 -1.32813,469.051 z M 200.699,141.699 l 103.281,0 0,-131.3982 -103.281,0 0,131.3982 z"
         inkscape:connector-curvature="0"
         id="path14"
         style="fill:#000000;fill-opacity:1;fill-rule:nonzero;stroke:none" /></g></g></svg>