<?xml version="1.0" encoding="UTF-8" standalone="no"?>
<!-- Created with Inkscape (http://www.inkscape.org/) -->

<svg
   xmlns:dc="http://purl.org/dc/elements/1.1/"
   xmlns:cc="http://creativecommons.org/ns#"
   xmlns:rdf="http://www.w3.org/1999/02/22-rdf-syntax-ns#"
   xmlns:svg="http://www.w3.org/2000/svg"
   xmlns="http://www.w3.org/2000/svg"
   xmlns:inkscape="http://www.inkscape.org/namespaces/inkscape"
   version="1.1"
   width="103.75"
   height="146.25"
   id="svg2"
   xml:space="preserve"><metadata
     id="metadata8"><rdf:RDF><cc:Work
         rdf:about=""><dc:format>image/svg+xml</dc:format><dc:type
           rdf:resource="http://purl.org/dc/dcmitype/StillImage" /></cc:Work></rdf:RDF></metadata><defs
     id="defs6" /><g
     transform="matrix(1.25,0,0,-1.25,0,146.25)"
     id="g10"><g
       transform="scale(0.1,0.1)"
       id="g12"><path
         d="m 385.199,787.711 c -82.308,0 -147.738,-30.742 -196.25,-92.191 -48.437,-61.36 -72.66,-145 -72.66,-250.93 0,-105.551 24.223,-189.031 72.66,-250.469 48.512,-61.371 113.942,-92.031 196.25,-92.031 82.379,0 147.571,30.66 195.621,92.031 48.129,61.438 72.192,144.918 72.192,250.469 0,105.93 -24.063,189.57 -72.192,250.93 -48.05,61.449 -113.242,92.191 -195.621,92.191 z m 0,92.187 c 117.571,0 211.563,-39.449 281.871,-118.277 C 737.461,682.871 772.699,577.16 772.699,444.59 772.699,312.48 737.461,207.012 667.07,128.18 596.762,49.4297 502.77,10.0508 385.199,10.0508 267.27,10.0508 173.012,49.3086 102.379,127.871 31.8398,206.5 -3.39844,312.09 -3.39844,444.59 c 0,132.57 35.23824,238.281 105.77744,317.031 70.633,78.828 164.891,118.277 282.82,118.277 z m 214.063,-131.558 0,66.711 c 22.886,-16.789 42.578,-29.211 59.058,-37.34 16.45,-8.051 30.469,-12.031 42.032,-12.031 17.269,0 30.199,5.16 38.75,15.468 8.628,10.313 12.968,25.551 12.968,45.782 0,11.949 -1.41,23.75 -4.218,35.308 -2.813,11.641 -7.032,23.282 -12.653,34.852 l 74.68,0 c 3.75,-14.301 6.57,-27.781 8.441,-40.469 1.879,-12.742 2.809,-24.691 2.809,-35.941 0,-45.629 -8.199,-79.219 -24.527,-100.782 -16.25,-21.488 -41.801,-32.187 -76.563,-32.187 -17.93,0 -36.719,4.918 -56.41,14.84 -19.68,9.89 -41.168,25.16 -64.367,45.789 z m -317.5,390.93 c 41.867,19.07 82.418,28.6 121.718,28.6 38.942,0 70.309,-7.97 94.059,-23.91 23.832,-15.86 35.781,-36.33 35.781,-61.41 0,-22.81 -16.519,-46.4 -49.531,-70.78 l -24.687,-17.969 c -13.122,-9.68 -20.43,-16.25 -21.872,-19.68 -2.621,-5.941 -3.91,-14.922 -3.91,-26.883 l -66.871,0 0,6.723 c 0,15 2.813,27.539 8.43,37.66 5.633,10.079 17.973,22.069 37.031,35.929 l 25.32,19.07 c 17.18,12.69 25.782,26.56 25.782,41.56 0,7.81 -5.782,15.08 -17.352,21.87 -11.558,6.76 -30.699,10.16 -57.34,10.16 -33.672,0 -69.179,-9.76 -106.558,-29.22 l 0,48.28 z"
         inkscape:connector-curvature="0"
         id="path14"
         style="fill:#000000;fill-opacity:1;fill-rule:nonzero;stroke:none" /></g></g></svg>