<?xml version="1.0" encoding="UTF-8" standalone="no"?>
<!-- Created with Inkscape (http://www.inkscape.org/) -->

<svg
   xmlns:dc="http://purl.org/dc/elements/1.1/"
   xmlns:cc="http://creativecommons.org/ns#"
   xmlns:rdf="http://www.w3.org/1999/02/22-rdf-syntax-ns#"
   xmlns:svg="http://www.w3.org/2000/svg"
   xmlns="http://www.w3.org/2000/svg"
   xmlns:inkscape="http://www.inkscape.org/namespaces/inkscape"
   version="1.1"
   width="96.25"
   height="150"
   id="svg2"
   xml:space="preserve"><metadata
     id="metadata8"><rdf:RDF><cc:Work
         rdf:about=""><dc:format>image/svg+xml</dc:format><dc:type
           rdf:resource="http://purl.org/dc/dcmitype/StillImage" /></cc:Work></rdf:RDF></metadata><defs
     id="defs6" /><g
     transform="matrix(1.25,0,0,-1.25,0,150)"
     id="g10"><g
       transform="scale(0.1,0.1)"
       id="g12"><path
         d="M 384.141,736.578 230.23,319.391 l 308.29,0 -154.379,417.187 z m -64.063,111.723 128.594,0 319.527,-838.2815 -117.969,0 -76.402,215.0005 -377.808,0 -76.411,-215.0005 -119.530875,0 L 320.078,848.301 z m 10.621,229.679 105.629,0 118.442,-149.371 -77.969,0 -93.281,100.001 -93.29,-100.001 -77.96,0 118.429,149.371 z m 293.75,118.91 103.75,0 -127.969,-148.28 -85.929,0 110.148,148.28 z"
         inkscape:connector-curvature="0"
         id="path14"
         style="fill:#000000;fill-opacity:1;fill-rule:nonzero;stroke:none" /></g></g></svg>