<?xml version="1.0" encoding="UTF-8" standalone="no"?>
<!-- Created with Inkscape (http://www.inkscape.org/) -->

<svg
   xmlns:dc="http://purl.org/dc/elements/1.1/"
   xmlns:cc="http://creativecommons.org/ns#"
   xmlns:rdf="http://www.w3.org/1999/02/22-rdf-syntax-ns#"
   xmlns:svg="http://www.w3.org/2000/svg"
   xmlns="http://www.w3.org/2000/svg"
   xmlns:inkscape="http://www.inkscape.org/namespaces/inkscape"
   version="1.1"
   width="68.75"
   height="145"
   id="svg2"
   xml:space="preserve"><metadata
     id="metadata8"><rdf:RDF><cc:Work
         rdf:about=""><dc:format>image/svg+xml</dc:format><dc:type
           rdf:resource="http://purl.org/dc/dcmitype/StillImage" /></cc:Work></rdf:RDF></metadata><defs
     id="defs6" /><g
     transform="matrix(1.25,0,0,-1.25,0,145)"
     id="g10"><g
       transform="scale(0.1,0.1)"
       id="g12"><path
         d="m -0.230469,848.27 530.152469,0 0,-95.309 -416.723,0 0,-248.281 399.223,0 0,-95.469 -399.223,0 0,-303.75 426.879,0 0,-95.47272 -540.308469,0 0,838.28172 z M 146.641,1122.96 c 41.879,19.06 82.418,28.59 121.718,28.59 38.942,0 70.313,-7.96 94.063,-23.9 23.828,-15.86 35.777,-36.33 35.777,-61.41 0,-22.81 -16.519,-46.4 -49.527,-70.779 L 323.98,977.488 c -13.121,-9.687 -20.429,-16.25 -21.871,-19.687 -2.621,-5.93 -3.91,-14.922 -3.91,-26.871 l -66.871,0 0,6.718 c 0,15 2.813,27.543 8.442,37.653 5.621,10.078 17.96,22.078 37.031,35.939 l 25.308,19.06 c 17.192,12.7 25.782,26.57 25.782,41.57 0,7.81 -5.782,15.08 -17.34,21.87 -11.571,6.76 -30.711,10.16 -57.352,10.16 -33.668,0 -69.179,-9.77 -106.558,-29.22 l 0,48.28 z"
         inkscape:connector-curvature="0"
         id="path14"
         style="fill:#000000;fill-opacity:1;fill-rule:nonzero;stroke:none" /></g></g></svg>