<?xml version="1.0" encoding="UTF-8" standalone="no"?>
<!-- Created with Inkscape (http://www.inkscape.org/) -->

<svg
   xmlns:dc="http://purl.org/dc/elements/1.1/"
   xmlns:cc="http://creativecommons.org/ns#"
   xmlns:rdf="http://www.w3.org/1999/02/22-rdf-syntax-ns#"
   xmlns:svg="http://www.w3.org/2000/svg"
   xmlns="http://www.w3.org/2000/svg"
   xmlns:inkscape="http://www.inkscape.org/namespaces/inkscape"
   version="1.1"
   width="97.5"
   height="153.75"
   id="svg2"
   xml:space="preserve"><metadata
     id="metadata8"><rdf:RDF><cc:Work
         rdf:about=""><dc:format>image/svg+xml</dc:format><dc:type
           rdf:resource="http://purl.org/dc/dcmitype/StillImage" /></cc:Work></rdf:RDF></metadata><defs
     id="defs6" /><g
     transform="matrix(1.25,0,0,-1.25,0,153.75)"
     id="g10"><g
       transform="scale(0.1,0.1)"
       id="g12"><path
         d="m 388.441,787.73 c -82.312,0 -147.742,-30.75 -196.25,-92.191 -48.441,-61.367 -72.66,-145 -72.66,-250.937 0,-105.551 24.219,-189.024 72.66,-250.473 48.508,-61.359 113.938,-92.027 196.25,-92.027 82.379,0 147.579,30.668 195.618,92.027 48.132,61.449 72.191,144.922 72.191,250.473 0,105.937 -24.059,189.57 -72.191,250.937 C 536.02,756.98 470.82,787.73 388.441,787.73 z m 0,92.18 C 506.02,879.91 600,840.461 670.309,761.629 740.699,682.879 775.941,577.18 775.941,444.602 775.941,312.488 740.699,207.02 670.309,128.199 600,49.4492 506.02,10.0703 388.441,10.0703 270.512,10.0703 176.25,49.3281 105.621,127.879 35.0781,206.52 -0.160156,312.102 -0.160156,444.602 c 0,132.578 35.238256,238.277 105.781156,317.027 70.629,78.832 164.891,118.281 282.82,118.281 z m 100.309,343.29 103.75,0 -127.969,-148.29 -85.941,0 110.16,148.29 z M 385.621,977.102 353.59,995.539 c -9.371,5.311 -16.988,8.941 -22.809,10.941 -5.742,2.07 -10.902,3.12 -15.472,3.12 -13.43,0 -23.899,-4.69 -31.399,-14.061 -7.5,-9.301 -11.25,-22.34 -11.25,-39.219 l 0,-3.441 -70.16,0 c 0,37.82 9.609,67.741 28.91,89.851 19.25,22.07 45,33.12 77.18,33.12 13.519,0 25.98,-1.52 37.351,-4.53 11.438,-2.93 26.129,-9.45 44.059,-19.53 l 32.031,-16.88 c 8.629,-4.92 16.129,-8.51 22.5,-10.78 6.328,-2.18 12.348,-3.28 17.969,-3.28 11.949,0 21.719,4.73 29.219,14.22 7.5,9.57 11.25,22.07 11.25,37.5 l 0,3.28 70.152,0 c -0.742,-37.42 -10.742,-67.26 -30,-89.53 -19.293,-22.3 -44.641,-33.441 -76.09,-33.441 -12.73,0 -24.652,1.492 -35.781,4.531 -11.051,3.012 -26.25,9.57 -45.629,19.692 z"
         inkscape:connector-curvature="0"
         id="path14"
         style="fill:#000000;fill-opacity:1;fill-rule:nonzero;stroke:none" /></g></g></svg>