<?xml version="1.0" encoding="UTF-8" standalone="no"?>
<!-- Created with Inkscape (http://www.inkscape.org/) -->

<svg
   xmlns:dc="http://purl.org/dc/elements/1.1/"
   xmlns:cc="http://creativecommons.org/ns#"
   xmlns:rdf="http://www.w3.org/1999/02/22-rdf-syntax-ns#"
   xmlns:svg="http://www.w3.org/2000/svg"
   xmlns="http://www.w3.org/2000/svg"
   xmlns:inkscape="http://www.inkscape.org/namespaces/inkscape"
   version="1.1"
   width="75"
   height="133.75"
   id="svg2"
   xml:space="preserve"><metadata
     id="metadata8"><rdf:RDF><cc:Work
         rdf:about=""><dc:format>image/svg+xml</dc:format><dc:type
           rdf:resource="http://purl.org/dc/dcmitype/StillImage" /></cc:Work></rdf:RDF></metadata><defs
     id="defs6" /><g
     transform="matrix(1.25,0,0,-1.25,0,133.75)"
     id="g10"><g
       transform="scale(0.1,0.1)"
       id="g12"><path
         d="m 113.199,621.262 0,-307.032 182.031,0 c 60.942,0 106.098,12.571 135.469,37.809 29.461,25.313 44.223,63.941 44.223,115.941 0,52.379 -14.762,91.008 -44.223,115.93 -29.371,24.891 -74.527,37.352 -135.469,37.352 l -182.031,0 z m 0,344.84 0,-252.653 167.973,0 c 55.387,0 96.637,10.352 123.75,31.09 27.187,20.82 40.777,52.539 40.777,95.16 0,42.262 -13.59,73.903 -40.777,94.84 -27.113,21.012 -68.363,31.563 -123.75,31.563 l -167.973,0 z m -113.429469,93.128 289.839469,0 c 86.442,0 153.051,-17.97 199.84,-53.91 46.762,-35.941 70.16,-87.031 70.16,-153.281 0,-51.25 -11.988,-92.027 -35.937,-122.34 -23.981,-30.32 -59.141,-49.219 -105.473,-56.719 55.711,-12 98.992,-37 129.852,-75 30.929,-38.05 46.398,-85.468 46.398,-142.351 0,-74.918 -25.469,-132.77 -76.398,-173.59 -50.86,-40.738 -123.25,-61.09 -217.192,-61.09 l -301.089469,0 0,838.281 z M 216.641,141.73 l 103.281,0 0,-131.4097 -103.281,0 0,131.4097 z"
         inkscape:connector-curvature="0"
         id="path14"
         style="fill:#000000;fill-opacity:1;fill-rule:nonzero;stroke:none" /></g></g></svg>