<?xml version="1.0" encoding="UTF-8" standalone="no"?>
<!-- Created with Inkscape (http://www.inkscape.org/) -->

<svg
   xmlns:dc="http://purl.org/dc/elements/1.1/"
   xmlns:cc="http://creativecommons.org/ns#"
   xmlns:rdf="http://www.w3.org/1999/02/22-rdf-syntax-ns#"
   xmlns:svg="http://www.w3.org/2000/svg"
   xmlns="http://www.w3.org/2000/svg"
   xmlns:inkscape="http://www.inkscape.org/namespaces/inkscape"
   version="1.1"
   width="51.25"
   height="137.5"
   id="svg2"
   xml:space="preserve"><metadata
     id="metadata8"><rdf:RDF><cc:Work
         rdf:about=""><dc:format>image/svg+xml</dc:format><dc:type
           rdf:resource="http://purl.org/dc/dcmitype/StillImage" /></cc:Work></rdf:RDF></metadata><defs
     id="defs6" /><g
     transform="matrix(1.25,0,0,-1.25,0,137.5)"
     id="g10"><g
       transform="scale(0.1,0.1)"
       id="g12"><path
         d="m 193.238,1093.73 103.282,0 0,-130.781 -103.282,0 0,130.781 z m 207.032,-210 0,-85.929 -98.75,0 c -37.11,0 -62.891,-7.5 -77.34,-22.5 -14.379,-14.93 -21.559,-41.84 -21.559,-80.781 l 0,-55.629 170.149,0 0,-80.313 -170.149,0 0,-548.59753 -103.9101,0 0,548.59753 -98.7499625,0 0,80.313 98.7499625,0 0,43.75 c 0,70 16.2891,120.98 48.9101,152.968 32.578,32.071 84.258,48.121 155,48.121 l 97.649,0 z"
         inkscape:connector-curvature="0"
         id="path14"
         style="fill:#000000;fill-opacity:1;fill-rule:nonzero;stroke:none" /></g></g></svg>