<?xml version="1.0" encoding="UTF-8" standalone="no"?>
<!-- Created with Inkscape (http://www.inkscape.org/) -->

<svg
   xmlns:dc="http://purl.org/dc/elements/1.1/"
   xmlns:cc="http://creativecommons.org/ns#"
   xmlns:rdf="http://www.w3.org/1999/02/22-rdf-syntax-ns#"
   xmlns:svg="http://www.w3.org/2000/svg"
   xmlns="http://www.w3.org/2000/svg"
   xmlns:inkscape="http://www.inkscape.org/namespaces/inkscape"
   version="1.1"
   width="96.25"
   height="152.5"
   id="svg2"
   xml:space="preserve"><metadata
     id="metadata8"><rdf:RDF><cc:Work
         rdf:about=""><dc:format>image/svg+xml</dc:format><dc:type
           rdf:resource="http://purl.org/dc/dcmitype/StillImage" /></cc:Work></rdf:RDF></metadata><defs
     id="defs6" /><g
     transform="matrix(1.25,0,0,-1.25,0,152.5)"
     id="g10"><g
       transform="scale(0.1,0.1)"
       id="g12"><path
         d="M 384.141,736.57 230.23,319.379 l 308.29,0 -154.379,417.191 z m -64.063,111.719 128.594,0 319.527,-838.2773 -117.969,0 -76.402,215.0003 -377.808,0 -76.411,-215.0003 -119.530875,0 L 320.078,848.289 z m -112.348,209.691 66.25,0 c 4.891,-20.24 16.61,-35.71 35.161,-46.41 18.519,-10.62 43.32,-15.941 74.379,-15.941 30.699,0 55.152,5.161 73.281,15.471 18.121,10.31 30.187,25.94 36.25,46.88 l 66.25,0 c -3.75,-44.5 -20.629,-78.25 -50.629,-101.25 -29.922,-23.05 -71.641,-34.531 -125.152,-34.531 -53.989,0 -95.86,11.403 -125.629,34.211 -29.692,22.82 -46.411,56.64 -50.161,101.57 z m 113.75,148.9 110.161,-148.28 -85.942,0 -129.219,148.28 105,0 z"
         inkscape:connector-curvature="0"
         id="path14"
         style="fill:#000000;fill-opacity:1;fill-rule:nonzero;stroke:none" /></g></g></svg>