<?xml version="1.0" encoding="UTF-8" standalone="no"?>
<!-- Created with Inkscape (http://www.inkscape.org/) -->

<svg
   xmlns:dc="http://purl.org/dc/elements/1.1/"
   xmlns:cc="http://creativecommons.org/ns#"
   xmlns:rdf="http://www.w3.org/1999/02/22-rdf-syntax-ns#"
   xmlns:svg="http://www.w3.org/2000/svg"
   xmlns="http://www.w3.org/2000/svg"
   xmlns:inkscape="http://www.inkscape.org/namespaces/inkscape"
   version="1.1"
   width="81.25"
   height="153.75"
   id="svg2"
   xml:space="preserve"><metadata
     id="metadata8"><rdf:RDF><cc:Work
         rdf:about=""><dc:format>image/svg+xml</dc:format><dc:type
           rdf:resource="http://purl.org/dc/dcmitype/StillImage" /></cc:Work></rdf:RDF></metadata><defs
     id="defs6" /><g
     transform="matrix(1.25,0,0,-1.25,0,153.75)"
     id="g10"><g
       transform="scale(0.1,0.1)"
       id="g12"><path
         d="m 423.32,1223.2 103.75,0 -127.968,-148.29 -85.942,0 110.16,148.29 z M 320.199,977.102 288.16,995.539 c -9.371,5.311 -16.988,8.941 -22.808,10.941 -5.743,2.07 -10.903,3.12 -15.473,3.12 -13.43,0 -23.899,-4.69 -31.399,-14.061 -7.5,-9.301 -11.25,-22.34 -11.25,-39.219 l 0,-3.441 -70.16,0 c 0,37.82 9.61,67.741 28.91,89.851 19.25,22.07 45,33.12 77.18,33.12 13.52,0 25.981,-1.52 37.352,-4.53 11.437,-2.93 26.129,-9.45 44.058,-19.53 l 32.032,-16.88 c 8.628,-4.92 16.128,-8.51 22.5,-10.78 6.328,-2.18 12.347,-3.28 17.968,-3.28 11.95,0 21.719,4.73 29.219,14.22 7.5,9.57 11.25,22.07 11.25,37.5 l 0,3.28 70.16,0 c -0.75,-37.42 -10.75,-67.26 -30,-89.53 -19.301,-22.3 -44.648,-33.441 -76.097,-33.441 -12.731,0 -24.653,1.492 -35.782,4.531 -11.05,3.012 -26.25,9.57 -45.621,19.692 z m -320.320094,-112.5 113.910094,0 0,-509.223 c 0,-89.918 16.289,-154.609 48.91,-194.059 32.571,-39.492 85.352,-59.218 158.281,-59.218 72.692,0 125.309,19.726 157.809,59.218 32.582,39.45 48.91,104.141 48.91,194.059 l 0,509.223 113.903,0 0,-523.282 c 0,-109.3 -27.032,-191.84 -81.09,-247.6598 C 506.449,37.9219 426.602,10.0703 320.98,10.0703 215.039,10.0703 135.039,37.9219 80.9805,93.6602 26.9102,149.48 -0.121094,232.02 -0.121094,341.32 l 0,523.282 z"
         inkscape:connector-curvature="0"
         id="path14"
         style="fill:#000000;fill-opacity:1;fill-rule:nonzero;stroke:none" /></g></g></svg>