<?xml version="1.0" encoding="UTF-8" standalone="no"?>
<!-- Created with Inkscape (http://www.inkscape.org/) -->

<svg
   xmlns:dc="http://purl.org/dc/elements/1.1/"
   xmlns:cc="http://creativecommons.org/ns#"
   xmlns:rdf="http://www.w3.org/1999/02/22-rdf-syntax-ns#"
   xmlns:svg="http://www.w3.org/2000/svg"
   xmlns="http://www.w3.org/2000/svg"
   xmlns:inkscape="http://www.inkscape.org/namespaces/inkscape"
   version="1.1"
   width="73.75"
   height="130"
   id="svg2"
   xml:space="preserve"><metadata
     id="metadata8"><rdf:RDF><cc:Work
         rdf:about=""><dc:format>image/svg+xml</dc:format><dc:type
           rdf:resource="http://purl.org/dc/dcmitype/StillImage" /></cc:Work></rdf:RDF></metadata><defs
     id="defs6" /><g
     transform="matrix(1.25,0,0,-1.25,0,130)"
     id="g10"><g
       transform="scale(0.1,0.1)"
       id="g12"><path
         d="m 246.129,884.27 105.633,0 118.437,-149.372 -77.969,0 -93.281,100 -93.289,-100 -77.961,0 118.43,149.372 z m 50.633,52.82 -32.032,18.43 c -9.378,5.32 -17,8.949 -22.82,10.941 -5.738,2.07 -10.89,3.129 -15.461,3.129 -13.437,0 -23.91,-4.692 -31.41,-14.07 -7.5,-9.29 -11.25,-22.34 -11.25,-39.219 l 0,-3.43 -70.16,0 c 0,37.809 9.609,67.731 28.91,89.839 19.262,22.07 45,33.13 77.191,33.13 13.508,0 25.969,-1.53 37.34,-4.54 11.45,-2.92 26.129,-9.45 44.059,-19.53 l 32.031,-16.872 c 8.641,-4.918 16.141,-8.519 22.5,-10.777 6.328,-2.191 12.352,-3.281 17.969,-3.281 11.961,0 21.723,4.719 29.223,14.211 7.5,9.579 11.25,22.079 11.25,37.499 l 0,3.29 70.16,0 c -0.742,-37.43 -10.742,-67.27 -30,-89.539 -19.301,-22.301 -44.653,-33.43 -76.102,-33.43 -12.73,0 -24.64,1.481 -35.781,4.527 -11.051,3.012 -26.25,9.571 -45.617,19.692 z m 285.937,-570.469 0,-50.633 -475,0 c 4.449,-71.047 25.852,-125.226 64.211,-162.5 38.442,-37.297 91.918,-55.9372 160.469,-55.9372 39.691,0 78.133,4.8472 115.32,14.5392 37.262,9.762 74.25,24.41 110.93,43.898 l 0,-97.6482 C 521.52,42.5898 483.52,30.6016 444.57,22.3984 405.699,14.1992 366.211,10.0508 326.129,10.0508 225.82,10.0508 146.328,39.1992 87.6992,97.5508 29.1406,155.988 -0.121094,234.98 -0.121094,334.59 c 0,102.89 27.742194,184.57 83.281294,245 55.6288,60.5 130.6288,90.781 224.9998,90.781 84.57,0 151.449,-27.269 200.629,-81.723 49.262,-54.488 73.91,-128.519 73.91,-222.027 z M 479.41,396.93 c -0.738,56.558 -16.558,101.64 -47.5,135.308 -30.859,33.641 -71.711,50.473 -122.648,50.473 -57.621,0 -103.75,-16.332 -138.442,-48.91 -34.609,-32.5 -54.492,-78.352 -59.691,-137.5 l 368.281,0.629 z"
         inkscape:connector-curvature="0"
         id="path14"
         style="fill:#000000;fill-opacity:1;fill-rule:nonzero;stroke:none" /></g></g></svg>