<?xml version="1.0" encoding="UTF-8" standalone="no"?>
<!-- Created with Inkscape (http://www.inkscape.org/) -->

<svg
   xmlns:dc="http://purl.org/dc/elements/1.1/"
   xmlns:cc="http://creativecommons.org/ns#"
   xmlns:rdf="http://www.w3.org/1999/02/22-rdf-syntax-ns#"
   xmlns:svg="http://www.w3.org/2000/svg"
   xmlns="http://www.w3.org/2000/svg"
   xmlns:inkscape="http://www.inkscape.org/namespaces/inkscape"
   version="1.1"
   width="81.25"
   height="133.75"
   id="svg2"
   xml:space="preserve"><metadata
     id="metadata8"><rdf:RDF><cc:Work
         rdf:about=""><dc:format>image/svg+xml</dc:format><dc:type
           rdf:resource="http://purl.org/dc/dcmitype/StillImage" /></cc:Work></rdf:RDF></metadata><defs
     id="defs6" /><g
     transform="matrix(1.25,0,0,-1.25,0,133.75)"
     id="g10"><g
       transform="scale(0.1,0.1)"
       id="g12"><path
         d="m 216.02,1061.56 113.902,0 0,-113.439 -113.902,0 0,113.439 z m -219.53953,0 113.91053,0 0,-113.439 -113.91053,0 0,113.439 z M 641.801,389.531 641.801,10 538.52,10 l 0,376.25 c 0,59.449 -11.641,103.98 -34.848,133.59 -23.121,29.57 -57.934,44.379 -104.371,44.379 -55.86,0 -99.852,-17.809 -132.031,-53.438 -32.192,-35.551 -48.29,-83.98 -48.29,-145.312 l 0,-355.469 -103.902,0 0,873.75 103.902,0 0,-342.5 c 24.692,37.809 53.79,66.02 87.348,84.691 33.512,18.75 72.192,28.118 115.942,28.118 72.261,0 126.91,-22.418 163.902,-67.18 37.066,-44.688 55.629,-110.469 55.629,-197.348 z"
         inkscape:connector-curvature="0"
         id="path14"
         style="fill:#000000;fill-opacity:1;fill-rule:nonzero;stroke:none" /></g></g></svg>