<?xml version="1.0" encoding="UTF-8" standalone="no"?>
<!-- Created with Inkscape (http://www.inkscape.org/) -->

<svg
   xmlns:dc="http://purl.org/dc/elements/1.1/"
   xmlns:cc="http://creativecommons.org/ns#"
   xmlns:rdf="http://www.w3.org/1999/02/22-rdf-syntax-ns#"
   xmlns:svg="http://www.w3.org/2000/svg"
   xmlns="http://www.w3.org/2000/svg"
   xmlns:inkscape="http://www.inkscape.org/namespaces/inkscape"
   version="1.1"
   width="97.5"
   height="135"
   id="svg2"
   xml:space="preserve"><metadata
     id="metadata8"><rdf:RDF><cc:Work
         rdf:about=""><dc:format>image/svg+xml</dc:format><dc:type
           rdf:resource="http://purl.org/dc/dcmitype/StillImage" /></cc:Work></rdf:RDF></metadata><defs
     id="defs6" /><g
     transform="matrix(1.25,0,0,-1.25,0,135)"
     id="g10"><g
       transform="scale(0.1,0.1)"
       id="g12"><path
         d="m 388.441,982.34 c -82.312,0 -147.742,-30.738 -196.25,-92.18 -48.441,-61.371 -72.66,-145 -72.66,-250.941 0,-105.547 24.219,-189.02 72.66,-250.469 48.508,-61.371 113.938,-92.031 196.25,-92.031 82.379,0 147.579,30.66 195.618,92.031 48.132,61.449 72.191,144.922 72.191,250.469 0,105.941 -24.059,189.57 -72.191,250.941 -48.039,61.442 -113.239,92.18 -195.618,92.18 z m 0,92.19 c 117.579,0 211.559,-39.45 281.868,-118.28 70.39,-78.75 105.632,-184.449 105.632,-317.031 0,-132.11 -35.242,-237.578 -105.632,-316.41 C 600,244.059 506.02,204.691 388.441,204.691 270.512,204.691 176.25,243.949 105.621,322.5 35.0781,401.129 -0.160156,506.719 -0.160156,639.219 c 0,132.582 35.238256,238.281 105.781156,317.031 70.629,78.83 164.891,118.28 282.82,118.28 z M 335,141.719 l 103.281,0 0,-131.4104 -103.281,0 0,131.4104 z"
         inkscape:connector-curvature="0"
         id="path14"
         style="fill:#000000;fill-opacity:1;fill-rule:nonzero;stroke:none" /></g></g></svg>