<?xml version="1.0" encoding="UTF-8" standalone="no"?>
<!-- Created with Inkscape (http://www.inkscape.org/) -->

<svg
   xmlns:dc="http://purl.org/dc/elements/1.1/"
   xmlns:cc="http://creativecommons.org/ns#"
   xmlns:rdf="http://www.w3.org/1999/02/22-rdf-syntax-ns#"
   xmlns:svg="http://www.w3.org/2000/svg"
   xmlns="http://www.w3.org/2000/svg"
   xmlns:inkscape="http://www.inkscape.org/namespaces/inkscape"
   version="1.1"
   width="67.5"
   height="130"
   id="svg2"
   xml:space="preserve"><metadata
     id="metadata8"><rdf:RDF><cc:Work
         rdf:about=""><dc:format>image/svg+xml</dc:format><dc:type
           rdf:resource="http://purl.org/dc/dcmitype/StillImage" /></cc:Work></rdf:RDF></metadata><defs
     id="defs6" /><g
     transform="matrix(1.25,0,0,-1.25,0,130)"
     id="g10"><g
       transform="scale(0.1,0.1)"
       id="g12"><path
         d="m 210.512,884.27 105.617,0 118.441,-149.372 -77.968,0 -93.282,100 -93.281,-100 -77.9687,0 118.4417,149.372 z m 50.617,52.82 -32.027,18.43 c -9.372,5.32 -16.993,8.949 -22.813,10.941 -5.738,2.07 -10.898,3.129 -15.469,3.129 -13.441,0 -23.91,-4.692 -31.41,-14.07 -7.5,-9.29 -11.25,-22.34 -11.25,-39.219 l 0,-3.43 -70.1483,0 c 0,37.809 9.6094,67.731 28.8983,89.839 19.262,22.07 45,33.13 77.192,33.13 13.519,0 25.976,-1.53 37.347,-4.54 11.442,-2.92 26.129,-9.45 44.063,-19.53 l 32.027,-16.872 c 8.633,-4.918 16.133,-8.519 22.5,-10.777 6.332,-2.191 12.34,-3.281 17.973,-3.281 11.949,0 21.718,4.719 29.218,14.211 7.5,9.579 11.25,22.079 11.25,37.499 l 0,3.29 70.149,0 c -0.738,-37.43 -10.738,-67.27 -30,-89.539 -19.289,-22.301 -44.649,-33.43 -76.09,-33.43 -12.738,0 -24.648,1.481 -35.777,4.527 -11.063,3.012 -26.25,9.571 -45.633,19.692 z m 63.91,-594.692 c -83.559,0 -141.41,-9.527 -173.59,-28.597 -32.187,-19.063 -48.289,-51.641 -48.289,-97.653 0,-36.679 12.07,-65.777 36.25,-87.347 24.141,-21.563 57.039,-32.3401 98.602,-32.3401 57.258,0 103.199,20.3091 137.808,60.9371 34.571,40.622 51.879,94.614 51.879,162.032 l 0,22.968 -102.66,0 z m 206.09,42.653 0,-358.7502 -103.43,0 0,95.4692 C 404.141,83.5313 374.77,55.3711 339.57,37.2383 304.34,19.1211 261.328,10.0508 210.512,10.0508 146.129,10.0508 94.9219,28.0586 56.9102,64.1211 18.8711,100.25 -0.121094,148.691 -0.121094,209.43 c 0,70.699 23.640594,124.058 70.941394,160 47.3787,35.941 118.0507,53.91 212.0317,53.91 l 144.847,0 0,10 c 0,47.57 -15.629,84.371 -46.879,110.308 -31.25,26.012 -75.121,39.063 -131.558,39.063 -35.942,0 -70.942,-4.332 -105,-12.973 -34.063,-8.547 -66.8401,-21.398 -98.2815,-38.59 l 0,95.473 c 37.8086,14.57 74.4495,25.508 109.9995,32.809 35.622,7.269 70.231,10.941 103.899,10.941 90.941,0 158.832,-23.601 203.75,-70.781 45,-47.192 67.5,-118.711 67.5,-214.539 z"
         inkscape:connector-curvature="0"
         id="path14"
         style="fill:#000000;fill-opacity:1;fill-rule:nonzero;stroke:none" /></g></g></svg>