<?xml version="1.0" encoding="UTF-8" standalone="no"?>
<!-- Created with Inkscape (http://www.inkscape.org/) -->

<svg
   xmlns:dc="http://purl.org/dc/elements/1.1/"
   xmlns:cc="http://creativecommons.org/ns#"
   xmlns:rdf="http://www.w3.org/1999/02/22-rdf-syntax-ns#"
   xmlns:svg="http://www.w3.org/2000/svg"
   xmlns="http://www.w3.org/2000/svg"
   xmlns:inkscape="http://www.inkscape.org/namespaces/inkscape"
   version="1.1"
   width="88.75"
   height="135"
   id="svg2"
   xml:space="preserve"><metadata
     id="metadata8"><rdf:RDF><cc:Work
         rdf:about=""><dc:format>image/svg+xml</dc:format><dc:type
           rdf:resource="http://purl.org/dc/dcmitype/StillImage" /></cc:Work></rdf:RDF></metadata><defs
     id="defs6" /><g
     transform="matrix(1.25,0,0,-1.25,0,135)"
     id="g10"><g
       transform="scale(0.1,0.1)"
       id="g12"><path
         d="m 352.578,970.801 -32.027,18.429 c -9.379,5.321 -17,8.95 -22.821,10.94 -5.742,2.07 -10.89,3.13 -15.46,3.13 -13.442,0 -23.911,-4.691 -31.411,-14.07 -7.5,-9.289 -11.25,-22.339 -11.25,-39.21 l 0,-3.442 -70.16,0 c 0,37.813 9.61,67.732 28.91,89.842 19.262,22.07 45,33.13 77.192,33.13 13.508,0 25.969,-1.53 37.34,-4.53 11.449,-2.93 26.129,-9.46 44.058,-19.54 l 32.031,-16.87 c 8.641,-4.92 16.141,-8.52 22.5,-10.78 6.329,-2.19 12.348,-3.28 17.969,-3.28 11.961,0 21.723,4.72 29.223,14.22 7.5,9.57 11.25,22.07 11.25,37.5 l 0,3.28 70.156,0 c -0.738,-37.42 -10.738,-67.27 -30,-89.53 -19.297,-22.309 -44.648,-33.442 -76.098,-33.442 -12.73,0 -24.64,1.481 -35.781,4.531 -11.051,3.012 -26.25,9.571 -45.621,19.692 z m -352.499875,-122.5 121.722875,0 232.5,-344.692 230.777,344.692 121.871,0 -296.398,-439.071 0,-399.2105 -114.071,0 0,399.2105 L 0.078125,848.301 z"
         inkscape:connector-curvature="0"
         id="path14"
         style="fill:#000000;fill-opacity:1;fill-rule:nonzero;stroke:none" /></g></g></svg>