<?xml version="1.0" encoding="UTF-8" standalone="no"?>
<!-- Created with Inkscape (http://www.inkscape.org/) -->

<svg
   xmlns:dc="http://purl.org/dc/elements/1.1/"
   xmlns:cc="http://creativecommons.org/ns#"
   xmlns:rdf="http://www.w3.org/1999/02/22-rdf-syntax-ns#"
   xmlns:svg="http://www.w3.org/2000/svg"
   xmlns="http://www.w3.org/2000/svg"
   xmlns:inkscape="http://www.inkscape.org/namespaces/inkscape"
   version="1.1"
   width="78.75"
   height="118.75"
   id="svg2"
   xml:space="preserve"><metadata
     id="metadata8"><rdf:RDF><cc:Work
         rdf:about=""><dc:format>image/svg+xml</dc:format><dc:type
           rdf:resource="http://purl.org/dc/dcmitype/StillImage" /></cc:Work></rdf:RDF></metadata><defs
     id="defs6" /><g
     transform="matrix(1.25,0,0,-1.25,0,118.75)"
     id="g10"><g
       transform="scale(0.1,0.1)"
       id="g12"><path
         d="m 359.262,946.16 111.718,0 -183.128,-211.25 -85.942,0 157.352,211.25 z m 41.558,-357.808 0,66.718 c 22.891,-16.8 42.578,-29.218 59.059,-37.34 16.449,-8.05 30.473,-12.031 42.031,-12.031 17.27,0 30.199,5.153 38.75,15.461 8.641,10.32 12.969,25.551 12.969,45.789 0,11.949 -1.399,23.75 -4.219,35.313 -2.808,11.636 -7.031,23.277 -12.648,34.84 l 74.687,0 c 3.75,-14.301 6.563,-27.774 8.43,-40.473 1.883,-12.731 2.82,-24.68 2.82,-35.93 0,-45.629 -8.211,-79.219 -24.539,-100.789 -16.25,-21.48 -41.789,-32.18 -76.558,-32.18 -17.93,0 -36.723,4.918 -56.403,14.84 -19.687,9.879 -41.179,25.16 -64.379,45.782 z M 285.66,582.73 c -55.43,0 -99.211,-21.64 -131.398,-64.851 C 122.07,474.641 105.98,415.422 105.98,340.23 c 0,-75.242 15.969,-134.5 47.969,-177.82 32.071,-43.238 75.973,-64.8397 131.711,-64.8397 55.078,0 98.75,21.7187 130.942,65.1597 32.187,43.43 48.277,102.571 48.277,177.5 0,74.45 -16.09,133.469 -48.277,177.032 -32.192,43.629 -75.864,65.468 -130.942,65.468 z m 0,87.649 c 89.891,0 160.469,-29.219 211.719,-87.649 51.25,-58.359 76.883,-139.179 76.883,-242.5 0,-102.929 -25.633,-183.71 -76.883,-242.3511 C 446.129,39.3281 375.551,10.0703 285.66,10.0703 195.43,10.0703 124.77,39.3281 73.6289,97.8789 22.5781,156.52 -2.92969,237.301 -2.92969,340.23 c 0,103.321 25.50779,184.141 76.55859,242.5 51.1411,58.43 121.8011,87.649 212.0311,87.649 z"
         inkscape:connector-curvature="0"
         id="path14"
         style="fill:#000000;fill-opacity:1;fill-rule:nonzero;stroke:none" /></g></g></svg>