<?xml version="1.0" encoding="UTF-8" standalone="no"?>
<!-- Created with Inkscape (http://www.inkscape.org/) -->

<svg
   xmlns:dc="http://purl.org/dc/elements/1.1/"
   xmlns:cc="http://creativecommons.org/ns#"
   xmlns:rdf="http://www.w3.org/1999/02/22-rdf-syntax-ns#"
   xmlns:svg="http://www.w3.org/2000/svg"
   xmlns="http://www.w3.org/2000/svg"
   xmlns:inkscape="http://www.inkscape.org/namespaces/inkscape"
   version="1.1"
   width="96.25"
   height="165"
   id="svg2"
   xml:space="preserve"><metadata
     id="metadata8"><rdf:RDF><cc:Work
         rdf:about=""><dc:format>image/svg+xml</dc:format><dc:type
           rdf:resource="http://purl.org/dc/dcmitype/StillImage" /></cc:Work></rdf:RDF></metadata><defs
     id="defs6" /><g
     transform="matrix(1.25,0,0,-1.25,0,165)"
     id="g10"><g
       transform="scale(0.1,0.1)"
       id="g12"><path
         d="m 222.73,1313.91 66.25,0 c 4.141,-28.12 15.321,-49.21 33.442,-63.28 18.129,-13.98 43.476,-20.93 76.098,-20.93 32.179,0 57.218,6.91 75.152,20.78 18.008,13.82 29.449,35 34.379,63.43 l 66.25,0 c -3.75,-53.55 -20.43,-93.82 -50,-120.78 -29.61,-26.99 -71.531,-40.47 -125.781,-40.47 -54.301,0 -96.219,13.48 -125.79,40.47 -29.609,26.96 -46.25,67.23 -50,120.78 z M 384.141,947.512 230.23,530.32 l 308.29,0 -154.379,417.192 z m -64.063,111.718 128.594,0 319.527,-838.281 -117.969,0 -76.402,215 -377.808,0 -76.411,-215 -119.530875,0 L 320.078,1059.23 z m 10.621,-917.5 103.281,0 0,-131.4097 -103.281,0 0,131.4097 z"
         inkscape:connector-curvature="0"
         id="path14"
         style="fill:#000000;fill-opacity:1;fill-rule:nonzero;stroke:none" /></g></g></svg>