<?xml version="1.0" encoding="UTF-8" standalone="no"?>
<!-- Created with Inkscape (http://www.inkscape.org/) -->

<svg
   xmlns:dc="http://purl.org/dc/elements/1.1/"
   xmlns:cc="http://creativecommons.org/ns#"
   xmlns:rdf="http://www.w3.org/1999/02/22-rdf-syntax-ns#"
   xmlns:svg="http://www.w3.org/2000/svg"
   xmlns="http://www.w3.org/2000/svg"
   xmlns:inkscape="http://www.inkscape.org/namespaces/inkscape"
   version="1.1"
   width="50"
   height="128.75"
   id="svg2"
   xml:space="preserve"><metadata
     id="metadata8"><rdf:RDF><cc:Work
         rdf:about=""><dc:format>image/svg+xml</dc:format><dc:type
           rdf:resource="http://purl.org/dc/dcmitype/StillImage" /></cc:Work></rdf:RDF></metadata><defs
     id="defs6" /><g
     transform="matrix(1.25,0,0,-1.25,0,128.75)"
     id="g10"><g
       transform="scale(0.1,0.1)"
       id="g12"><path
         d="m 188.75,141.73 103.281,0 0,-131.4097 -103.281,0 0,131.4097 z m -9.059,886.72 0,-178.598 212.809,0 0,-80.313 -212.809,0 0,-341.41 c 0,-51.25 6.95,-84.219 20.93,-98.899 14.07,-14.609 42.578,-21.878 85.629,-21.878 l 106.25,0 0,-86.403 -106.25,0 c -79.691,0 -134.691,14.84 -165,44.531 -30.3086,29.758 -45.4687,83.981 -45.4687,162.649 l 0,341.41 -75.7813,0 0,80.313 75.7813,0 0,178.598 103.9097,0 z"
         inkscape:connector-curvature="0"
         id="path14"
         style="fill:#000000;fill-opacity:1;fill-rule:nonzero;stroke:none" /></g></g></svg>