<?xml version="1.0" encoding="UTF-8" standalone="no"?>
<!-- Created with Inkscape (http://www.inkscape.org/) -->

<svg
   xmlns:dc="http://purl.org/dc/elements/1.1/"
   xmlns:cc="http://creativecommons.org/ns#"
   xmlns:rdf="http://www.w3.org/1999/02/22-rdf-syntax-ns#"
   xmlns:svg="http://www.w3.org/2000/svg"
   xmlns="http://www.w3.org/2000/svg"
   xmlns:inkscape="http://www.inkscape.org/namespaces/inkscape"
   version="1.1"
   width="72.5"
   height="135"
   id="svg2"
   xml:space="preserve"><metadata
     id="metadata8"><rdf:RDF><cc:Work
         rdf:about=""><dc:format>image/svg+xml</dc:format><dc:type
           rdf:resource="http://purl.org/dc/dcmitype/StillImage" /></cc:Work></rdf:RDF></metadata><defs
     id="defs6" /><g
     transform="matrix(1.25,0,0,-1.25,0,135)"
     id="g10"><g
       transform="scale(0.1,0.1)"
       id="g12"><path
         d="m 115.98,1079.06 335.93,0 0,-83.119 -335.93,0 0,83.119 z m 137.5,-856.869 66.872,0 C 303.48,199.379 291.02,179.77 283.012,163.281 274.961,146.84 270.98,132.77 270.98,121.09 c 0,-17.18 5.071,-30.0705 15.309,-38.7502 10.313,-8.6289 25.551,-12.9609 45.781,-12.9609 11.95,0 23.75,1.4024 35.309,4.2109 11.641,2.8204 23.32,7.0313 35,12.6602 l 0,-74.6914 C 388.09,7.80859 374.609,5 361.91,3.12109 349.18,1.25 337.23,0.308594 325.98,0.308594 c -45.75,0 -79.378,8.210936 -100.941,24.531206 -21.488,16.25 -32.187,41.8008 -32.187,76.5702 0,18.039 4.918,36.871 14.847,56.559 10,19.609 25.231,41.011 45.781,64.222 z m 35,556.399 c -55.429,0 -99.218,-21.641 -131.41,-64.84 -32.191,-43.238 -48.281,-102.461 -48.281,-177.66 0,-75.231 15.981,-134.488 47.973,-177.809 32.066,-43.242 75.968,-64.84 131.718,-64.84 55.071,0 98.75,21.719 130.93,65.149 32.192,43.441 48.289,102.582 48.289,177.5 0,74.461 -16.097,133.48 -48.289,177.031 -32.18,43.641 -75.859,65.469 -130.93,65.469 z m 0,87.66 c 89.879,0 160.469,-29.219 211.719,-87.66 51.25,-58.36 76.871,-139.18 76.871,-242.5 0,-102.93 -25.621,-183.711 -76.871,-242.34 -51.25,-58.551 -121.84,-87.809 -211.719,-87.809 -90.242,0 -160.902,29.258 -212.0308,87.809 -51.0586,58.629 -76.570294,139.41 -76.570294,242.34 0,103.32 25.511694,184.14 76.570294,242.5 51.1288,58.441 121.7888,87.66 212.0308,87.66 z"
         inkscape:connector-curvature="0"
         id="path14"
         style="fill:#000000;fill-opacity:1;fill-rule:nonzero;stroke:none" /></g></g></svg>