<?xml version="1.0" encoding="UTF-8" standalone="no"?>
<!-- Created with Inkscape (http://www.inkscape.org/) -->

<svg
   xmlns:dc="http://purl.org/dc/elements/1.1/"
   xmlns:cc="http://creativecommons.org/ns#"
   xmlns:rdf="http://www.w3.org/1999/02/22-rdf-syntax-ns#"
   xmlns:svg="http://www.w3.org/2000/svg"
   xmlns="http://www.w3.org/2000/svg"
   xmlns:inkscape="http://www.inkscape.org/namespaces/inkscape"
   version="1.1"
   width="66.25"
   height="108.75"
   id="svg2"
   xml:space="preserve"><metadata
     id="metadata8"><rdf:RDF><cc:Work
         rdf:about=""><dc:format>image/svg+xml</dc:format><dc:type
           rdf:resource="http://purl.org/dc/dcmitype/StillImage" /></cc:Work></rdf:RDF></metadata><defs
     id="defs6" /><g
     transform="matrix(1.25,0,0,-1.25,0,108.75)"
     id="g10"><g
       transform="scale(0.1,0.1)"
       id="g12"><path
         d="m -0.230469,469.051 0,380.789 103.429469,0 0,-376.719 c 0,-59.609 11.571,-104.301 34.692,-134.07 23.199,-29.68 58.05,-44.531 104.531,-44.531 55.699,0 99.769,17.742 132.187,53.281 32.379,35.629 48.59,84.109 48.59,145.469 l 0,356.57 103.281,0 0,-628.91 -103.281,0 0,96.558 c -25.109,-38.117 -54.219,-66.476 -87.34,-85 C 302.73,213.98 264.301,204.68 220.551,204.68 148.238,204.68 93.3594,227.102 55.8594,272.02 18.4414,316.91 -0.230469,382.57 -0.230469,469.051 z M 201.801,141.711 l 103.277,0 0,-131.4102 -103.277,0 0,131.4102 z"
         inkscape:connector-curvature="0"
         id="path14"
         style="fill:#000000;fill-opacity:1;fill-rule:nonzero;stroke:none" /></g></g></svg>