<?xml version="1.0" encoding="UTF-8" standalone="no"?>
<!-- Created with Inkscape (http://www.inkscape.org/) -->

<svg
   xmlns:dc="http://purl.org/dc/elements/1.1/"
   xmlns:cc="http://creativecommons.org/ns#"
   xmlns:rdf="http://www.w3.org/1999/02/22-rdf-syntax-ns#"
   xmlns:svg="http://www.w3.org/2000/svg"
   xmlns="http://www.w3.org/2000/svg"
   xmlns:inkscape="http://www.inkscape.org/namespaces/inkscape"
   version="1.1"
   width="61.25"
   height="108.75"
   id="svg2"
   xml:space="preserve"><metadata
     id="metadata8"><rdf:RDF><cc:Work
         rdf:about=""><dc:format>image/svg+xml</dc:format><dc:type
           rdf:resource="http://purl.org/dc/dcmitype/StillImage" /></cc:Work></rdf:RDF></metadata><defs
     id="defs6" /><g
     transform="matrix(1.25,0,0,-1.25,0,108.75)"
     id="g10"><g
       transform="scale(0.1,0.1)"
       id="g12"><path
         d="m 197.27,141.148 103.281,0 0,-131.40972 -103.281,0 0,131.40972 z m 249.679,689.532 0,-97.66 c -29.289,15 -59.648,26.25 -91.09,33.75 -31.48,7.5 -64.019,11.25 -97.66,11.25 -51.25,0 -89.758,-7.891 -115.469,-23.59 -25.621,-15.739 -38.429,-39.34 -38.429,-70.782 0,-23.988 9.14,-42.769 27.5,-56.41 18.429,-13.668 55.308,-26.679 110.621,-39.058 l 35.469,-7.809 c 73.32,-15.742 125.39,-37.93 156.25,-66.57 30.937,-28.672 46.41,-68.672 46.41,-120 0,-58.352 -23.129,-104.531 -69.379,-138.59 C 365,221.148 301.48,204.121 220.551,204.121 c -33.672,0 -68.75,3.277 -105.321,9.84 -36.48,6.559 -74.9214,16.328 -115.308125,29.379 l 0,106.711 C 38.0508,330.25 75.6211,315.371 112.73,305.371 c 37.071,-9.922 73.79,-14.851 110.161,-14.851 48.629,0 86.019,8.32 112.187,25 26.25,16.64 39.371,40.16 39.371,70.468 0,28.133 -9.488,49.614 -28.429,64.532 -18.872,15 -60.321,29.421 -124.379,43.281 l -35.942,8.437 C 121.719,515.68 75.5508,536.34 47.1094,564.27 18.6719,592.16 4.44922,630.449 4.44922,679.121 c 0,59.141 20.94138,104.84 62.82028,137.027 41.9495,32.192 101.4805,48.282 178.5895,48.282 38.2,0 74.141,-2.809 107.813,-8.442 33.629,-5.617 64.726,-14.058 93.277,-25.308 z"
         inkscape:connector-curvature="0"
         id="path14"
         style="fill:#000000;fill-opacity:1;fill-rule:nonzero;stroke:none" /></g></g></svg>