<?xml version="1.0" encoding="UTF-8" standalone="no"?>
<!-- Created with Inkscape (http://www.inkscape.org/) -->

<svg
   xmlns:dc="http://purl.org/dc/elements/1.1/"
   xmlns:cc="http://creativecommons.org/ns#"
   xmlns:rdf="http://www.w3.org/1999/02/22-rdf-syntax-ns#"
   xmlns:svg="http://www.w3.org/2000/svg"
   xmlns="http://www.w3.org/2000/svg"
   xmlns:inkscape="http://www.inkscape.org/namespaces/inkscape"
   version="1.1"
   width="90"
   height="111.25"
   id="svg2"
   xml:space="preserve"><metadata
     id="metadata8"><rdf:RDF><cc:Work
         rdf:about=""><dc:format>image/svg+xml</dc:format><dc:type
           rdf:resource="http://purl.org/dc/dcmitype/StillImage" /></cc:Work></rdf:RDF></metadata><defs
     id="defs6" /><g
     transform="matrix(1.25,0,0,-1.25,0,111.25)"
     id="g10"><g
       transform="scale(0.1,0.1)"
       id="g12"><path
         d="m 476.602,738.34 c -40.864,33.629 -93.832,50.461 -158.903,50.461 -23.988,0 -45.551,-2.262 -64.687,-6.711 -19.063,-4.5 -37.5,-12.738 -55.313,-24.692 -17.738,-11.988 -32.578,-27.738 -44.539,-47.187 -11.988,-19.492 -21.558,-44.84 -28.75,-76.09 -7.109,-31.25 -10.621,-67.66 -10.621,-109.223 l 0,-498.5972 -113.910094,0 0,512.6602 c 0,49.059 5.320314,92.969 15.941394,131.719 10.6992,38.75 25.3906,71.09 44.0586,97.031 18.75,26.019 41.5701,47.66 68.4411,64.84 26.95,17.269 55.981,29.687 87.032,37.187 31.128,7.5 65.238,11.25 102.347,11.25 81.25,0 150.313,-18.437 207.18,-55.308 56.883,-36.879 95.633,-90.7 116.25,-161.41 -77.5,0 -140.309,-11.719 -188.43,-35.149 -48.129,-23.441 -72.187,-52.93 -72.187,-88.441 0,-16.879 6.25,-31.641 18.75,-44.219 12.578,-12.5 28.789,-22.973 48.59,-31.41 19.878,-8.352 41.918,-16.711 66.097,-25.153 24.141,-8.437 48.281,-18.519 72.34,-30.16 24.141,-11.558 46.133,-25.226 65.941,-40.937 19.879,-15.742 36.09,-36.711 48.59,-62.961 12.578,-26.18 18.91,-56.41 18.91,-90.789 0,-61.481 -24.808,-111.012 -74.378,-148.5901 C 595.738,28.8398 531.449,10.0508 452.379,10.0508 c -67.418,0 -138.707,17.7383 -213.899,53.289 l 0,116.8712 c 40.821,-25.859 77.809,-45.313 110.93,-58.441 33.129,-13.122 70.469,-19.68 112.039,-19.68 36.641,0 69.102,11.012 97.34,33.121 28.32,22.07 42.5,49.57 42.5,82.5 0,19.879 -3.867,37.269 -11.559,52.187 -7.742,15 -18.128,27.262 -31.25,36.872 -13.05,9.57 -28.089,18.171 -45.16,25.781 -16.992,7.699 -34.84,14.539 -53.59,20.469 -18.75,6.019 -37.5,12.39 -56.25,19.07 -18.679,6.75 -36.531,14.84 -53.601,24.211 -16.988,9.379 -32.027,20.199 -45.149,32.5 -13.128,12.39 -23.558,28.211 -31.25,47.5 -7.621,19.258 -11.41,41.449 -11.41,66.57 0,53.508 20.821,97.809 62.5,132.809 41.758,35 92.418,55.859 152.032,62.66 z"
         inkscape:connector-curvature="0"
         id="path14"
         style="fill:#000000;fill-opacity:1;fill-rule:nonzero;stroke:none" /></g></g></svg>