<?xml version="1.0" encoding="UTF-8" standalone="no"?>
<!-- Created with Inkscape (http://www.inkscape.org/) -->

<svg
   xmlns:dc="http://purl.org/dc/elements/1.1/"
   xmlns:cc="http://creativecommons.org/ns#"
   xmlns:rdf="http://www.w3.org/1999/02/22-rdf-syntax-ns#"
   xmlns:svg="http://www.w3.org/2000/svg"
   xmlns="http://www.w3.org/2000/svg"
   xmlns:inkscape="http://www.inkscape.org/namespaces/inkscape"
   version="1.1"
   width="68.75"
   height="163.75"
   id="svg2"
   xml:space="preserve"><metadata
     id="metadata8"><rdf:RDF><cc:Work
         rdf:about=""><dc:format>image/svg+xml</dc:format><dc:type
           rdf:resource="http://purl.org/dc/dcmitype/StillImage" /></cc:Work></rdf:RDF></metadata><defs
     id="defs6" /><g
     transform="matrix(1.25,0,0,-1.25,0,163.75)"
     id="g10"><g
       transform="scale(0.1,0.1)"
       id="g12"><path
         d="m 93.6719,1300.17 66.2501,0 c 4.879,-20.23 16.598,-35.7 35.156,-46.4 18.512,-10.63 43.32,-15.94 74.371,-15.94 30.711,0 55.16,5.15 73.281,15.47 18.129,10.31 30.2,25.93 36.25,46.87 l 66.25,0 c -3.75,-44.49 -20.621,-78.24 -50.621,-101.25 -29.918,-23.05 -71.64,-34.53 -125.16,-34.53 -53.98,0 -95.859,11.41 -125.621,34.22 -29.687,22.81 -46.4061,56.64 -50.1561,101.56 z m -93.902369,-229.69 530.152469,0 0,-95.308 -416.723,0 0,-248.281 399.223,0 0,-95.469 -399.223,0 0,-303.75 426.879,0 0,-95.473 -540.308469,0 0,838.281 z M 331.641,232.199 C 352.27,209 367.621,187.59 377.73,167.98 c 10.079,-19.679 15.161,-38.511 15.161,-56.558 0,-33.3204 -11.25,-58.4728 -33.75,-75.4728 -22.5,-17.0703 -55.86,-25.6211 -100,-25.6211 -17.192,0 -33.981,1.1719 -50.313,3.4414 -16.25,2.3008 -32.418,5.6993 -48.437,10.1524 l 0,73.4375 c 12.699,-6.3281 25.98,-10.9375 39.839,-13.75 13.829,-2.8086 29.571,-4.2188 47.192,-4.2188 22.066,0 38.668,4.5313 49.848,13.5899 11.25,8.9885 16.871,22.0395 16.871,39.2185 0,11.25 -4.02,25.082 -12.032,41.41 -8.05,16.25 -20.468,35.782 -37.339,58.59 l 66.871,0 z"
         inkscape:connector-curvature="0"
         id="path14"
         style="fill:#000000;fill-opacity:1;fill-rule:nonzero;stroke:none" /></g></g></svg>