<?xml version="1.0" encoding="UTF-8" standalone="no"?>
<!-- Created with Inkscape (http://www.inkscape.org/) -->

<svg
   xmlns:dc="http://purl.org/dc/elements/1.1/"
   xmlns:cc="http://creativecommons.org/ns#"
   xmlns:rdf="http://www.w3.org/1999/02/22-rdf-syntax-ns#"
   xmlns:svg="http://www.w3.org/2000/svg"
   xmlns="http://www.w3.org/2000/svg"
   xmlns:inkscape="http://www.inkscape.org/namespaces/inkscape"
   version="1.1"
   width="96.25"
   height="136.25"
   id="svg2"
   xml:space="preserve"><metadata
     id="metadata8"><rdf:RDF><cc:Work
         rdf:about=""><dc:format>image/svg+xml</dc:format><dc:type
           rdf:resource="http://purl.org/dc/dcmitype/StillImage" /></cc:Work></rdf:RDF></metadata><defs
     id="defs6" /><g
     transform="matrix(1.25,0,0,-1.25,0,136.25)"
     id="g10"><g
       transform="scale(0.1,0.1)"
       id="g12"><path
         d="M 320.078,9.98828 0.078125,848.27 118.52,848.27 384.141,142.488 650.23,848.27 l 117.969,0 -319.527,-838.28172 -128.594,0 z m 86.25,949.22272 -32.027,30.937 c -8.25,7.5 -15.473,13.012 -21.723,16.562 -6.168,3.52 -11.68,5.31 -16.558,5.31 -14.18,0 -24.649,-6.83 -31.411,-20.469 -6.8,-13.672 -10.55,-35.852 -11.25,-66.563 l -70.16,0 c 0.711,50.512 10.629,89.532 29.692,117.032 19.14,27.58 45.781,41.41 79.839,41.41 14.149,0 27.231,-2.66 39.219,-7.97 11.961,-5.23 24.891,-14.02 38.75,-26.41 l 32.031,-30.78 c 8.211,-7.5 15.391,-13.04 21.571,-16.56 6.25,-3.55 11.789,-5.312 16.719,-5.312 14.14,0 24.601,6.802 31.402,20.472 6.758,13.63 10.508,35.82 11.25,66.56 l 70.156,0 c -0.738,-50.55 -10.707,-89.61 -29.848,-117.192 -19.058,-27.5 -45.621,-41.25 -79.679,-41.25 -14.18,0 -27.27,2.582 -39.223,7.813 -11.988,5.32 -24.918,14.109 -38.75,26.41 z"
         inkscape:connector-curvature="0"
         id="path14"
         style="fill:#000000;fill-opacity:1;fill-rule:nonzero;stroke:none" /></g></g></svg>