<?xml version="1.0" encoding="UTF-8" standalone="no"?>
<!-- Created with Inkscape (http://www.inkscape.org/) -->

<svg
   xmlns:dc="http://purl.org/dc/elements/1.1/"
   xmlns:cc="http://creativecommons.org/ns#"
   xmlns:rdf="http://www.w3.org/1999/02/22-rdf-syntax-ns#"
   xmlns:svg="http://www.w3.org/2000/svg"
   xmlns="http://www.w3.org/2000/svg"
   xmlns:inkscape="http://www.inkscape.org/namespaces/inkscape"
   version="1.1"
   width="96.25"
   height="145"
   id="svg2"
   xml:space="preserve"><metadata
     id="metadata8"><rdf:RDF><cc:Work
         rdf:about=""><dc:format>image/svg+xml</dc:format><dc:type
           rdf:resource="http://purl.org/dc/dcmitype/StillImage" /></cc:Work></rdf:RDF></metadata><defs
     id="defs6" /><g
     transform="matrix(1.25,0,0,-1.25,0,145)"
     id="g10"><g
       transform="scale(0.1,0.1)"
       id="g12"><path
         d="m 384.141,736.551 -153.911,-417.18 308.29,0 -154.379,417.18 z m -64.063,111.719 128.594,0 319.527,-838.28172 -117.969,0 -76.402,214.99972 -377.808,0 L 119.609,9.98828 0.078125,9.98828 320.078,848.27 z m -49.379,274.69 c 41.879,19.06 82.422,28.59 121.723,28.59 38.949,0 70.308,-7.96 94.058,-23.9 23.829,-15.86 35.79,-36.33 35.79,-61.41 0,-22.81 -16.532,-46.4 -49.54,-70.779 l -24.679,-17.973 c -13.129,-9.687 -20.43,-16.25 -21.879,-19.687 -2.621,-5.93 -3.902,-14.922 -3.902,-26.871 l -66.879,0 0,6.718 c 0,15 2.808,27.543 8.437,37.653 5.621,10.078 17.973,22.078 37.031,35.939 l 25.313,19.06 c 17.187,12.7 25.777,26.57 25.777,41.57 0,7.81 -5.777,15.08 -17.34,21.87 -11.558,6.76 -30.699,10.16 -57.339,10.16 -33.68,0 -69.18,-9.77 -106.571,-29.22 l 0,48.28 z"
         inkscape:connector-curvature="0"
         id="path14"
         style="fill:#000000;fill-opacity:1;fill-rule:nonzero;stroke:none" /></g></g></svg>