<?xml version="1.0" encoding="UTF-8" standalone="no"?>
<!-- Created with Inkscape (http://www.inkscape.org/) -->

<svg
   xmlns:dc="http://purl.org/dc/elements/1.1/"
   xmlns:cc="http://creativecommons.org/ns#"
   xmlns:rdf="http://www.w3.org/1999/02/22-rdf-syntax-ns#"
   xmlns:svg="http://www.w3.org/2000/svg"
   xmlns="http://www.w3.org/2000/svg"
   xmlns:inkscape="http://www.inkscape.org/namespaces/inkscape"
   version="1.1"
   width="76.25"
   height="126.25"
   id="svg2"
   xml:space="preserve"><metadata
     id="metadata8"><rdf:RDF><cc:Work
         rdf:about=""><dc:format>image/svg+xml</dc:format><dc:type
           rdf:resource="http://purl.org/dc/dcmitype/StillImage" /></cc:Work></rdf:RDF></metadata><defs
     id="defs6" /><g
     transform="matrix(1.25,0,0,-1.25,0,126.25)"
     id="g10"><g
       transform="scale(0.1,0.1)"
       id="g12"><path
         d="m 210.512,884.289 105.617,0 118.441,-149.379 -77.968,0 -93.282,100 -93.281,-100 -77.9687,0 118.4417,149.379 z m 293.75,118.911 103.75,0 -127.973,-148.29 -85.937,0 110.16,148.29 z M 325.039,342.41 c -83.559,0 -141.41,-9.531 -173.59,-28.59 -32.187,-19.058 -48.289,-51.64 -48.289,-97.66 0,-36.68 12.07,-65.781 36.25,-87.34 24.141,-21.558 57.039,-32.3395 98.602,-32.3395 57.258,0 103.199,20.3085 137.808,60.9295 34.571,40.629 51.879,94.61 51.879,162.039 l 0,22.961 -102.66,0 z m 206.09,42.66 0,-358.7497 -103.43,0 0,95.4687 C 404.141,83.5508 374.77,55.3789 339.57,37.2617 304.34,19.1289 261.328,10.0703 210.512,10.0703 146.129,10.0703 94.9219,28.0781 56.9102,64.1289 18.8711,100.27 -0.121094,148.699 -0.121094,209.449 c 0,70.699 23.640594,124.063 70.941394,160 47.3787,35.93 118.0507,53.903 212.0317,53.903 l 144.847,0 0,10 c 0,47.578 -15.629,84.378 -46.879,110.308 -31.25,26.02 -75.121,39.07 -131.558,39.07 -35.942,0 -70.942,-4.339 -105,-12.968 -34.063,-8.563 -66.8401,-21.41 -98.2815,-38.602 l 0,95.469 c 37.8086,14.57 74.4495,25.512 109.9995,32.82 35.622,7.262 70.231,10.93 103.899,10.93 90.941,0 158.832,-23.59 203.75,-70.777 45,-47.192 67.5,-118.711 67.5,-214.532 z"
         inkscape:connector-curvature="0"
         id="path14"
         style="fill:#000000;fill-opacity:1;fill-rule:nonzero;stroke:none" /></g></g></svg>