<?xml version="1.0" encoding="UTF-8" standalone="no"?>
<!-- Created with Inkscape (http://www.inkscape.org/) -->

<svg
   xmlns:dc="http://purl.org/dc/elements/1.1/"
   xmlns:cc="http://creativecommons.org/ns#"
   xmlns:rdf="http://www.w3.org/1999/02/22-rdf-syntax-ns#"
   xmlns:svg="http://www.w3.org/2000/svg"
   xmlns="http://www.w3.org/2000/svg"
   xmlns:inkscape="http://www.inkscape.org/namespaces/inkscape"
   version="1.1"
   width="97.5"
   height="161.25"
   id="svg2"
   xml:space="preserve"><metadata
     id="metadata8"><rdf:RDF><cc:Work
         rdf:about=""><dc:format>image/svg+xml</dc:format><dc:type
           rdf:resource="http://purl.org/dc/dcmitype/StillImage" /></cc:Work></rdf:RDF></metadata><defs
     id="defs6" /><g
     transform="matrix(1.25,0,0,-1.25,0,161.25)"
     id="g10"><g
       transform="scale(0.1,0.1)"
       id="g12"><path
         d="m 388.441,972.359 c -82.312,0 -147.742,-30.738 -196.25,-92.187 -48.441,-61.371 -72.66,-145 -72.66,-250.942 0,-105.539 24.219,-189.019 72.66,-250.46 48.508,-61.372 113.938,-92.04 196.25,-92.04 82.379,0 147.579,30.668 195.618,92.04 48.132,61.441 72.191,144.921 72.191,250.46 0,105.942 -24.059,189.571 -72.191,250.942 -48.039,61.449 -113.239,92.187 -195.618,92.187 z m 0,92.191 c 117.579,0 211.559,-39.46 281.868,-118.28 70.39,-78.75 105.632,-184.461 105.632,-317.04 0,-132.109 -35.242,-237.57 -105.632,-316.402 C 600,234.078 506.02,194.699 388.441,194.699 270.512,194.699 176.25,233.961 105.621,312.52 35.0781,391.148 -0.160156,496.73 -0.160156,629.23 c 0,132.579 35.238256,238.29 105.781156,317.04 70.629,78.82 164.891,118.28 282.82,118.28 z M 335,1278.92 l 105.621,0 118.438,-149.37 -77.969,0 -93.281,100 -93.278,-100 -77.972,0 L 335,1278.92 z m 0,-1147.19 103.281,0 0,-131.401875 -103.281,0 0,131.401875 z"
         inkscape:connector-curvature="0"
         id="path14"
         style="fill:#000000;fill-opacity:1;fill-rule:nonzero;stroke:none" /></g></g></svg>