<?xml version="1.0" encoding="UTF-8" standalone="no"?>
<!-- Created with Inkscape (http://www.inkscape.org/) -->

<svg
   xmlns:dc="http://purl.org/dc/elements/1.1/"
   xmlns:cc="http://creativecommons.org/ns#"
   xmlns:rdf="http://www.w3.org/1999/02/22-rdf-syntax-ns#"
   xmlns:svg="http://www.w3.org/2000/svg"
   xmlns="http://www.w3.org/2000/svg"
   xmlns:inkscape="http://www.inkscape.org/namespaces/inkscape"
   version="1.1"
   width="53.75"
   height="133.75"
   id="svg2"
   xml:space="preserve"><metadata
     id="metadata8"><rdf:RDF><cc:Work
         rdf:about=""><dc:format>image/svg+xml</dc:format><dc:type
           rdf:resource="http://purl.org/dc/dcmitype/StillImage" /></cc:Work></rdf:RDF></metadata><defs
     id="defs6" /><g
     transform="matrix(1.25,0,0,-1.25,0,133.75)"
     id="g10"><g
       transform="scale(0.1,0.1)"
       id="g12"><path
         d="m 208.359,817.5 0,-178.59 212.813,0 0,-80.32 -212.813,0 0,-341.399 c 0,-51.25 6.95,-84.222 20.942,-98.91 14.058,-14.609 42.578,-21.8708 85.621,-21.8708 l 106.25,0 0,-86.4102 -106.25,0 C 235.23,10 180.23,24.8398 149.922,54.5313 119.609,84.3008 104.449,138.52 104.449,217.191 l 0,341.399 -75.7771,0 0,80.32 75.7771,0 0,178.59 103.91,0 z m 9.692,244.06 113.898,0 0,-113.439 -113.898,0 0,113.439 z m -219.53147,0 113.90247,0 0,-113.439 -113.90247,0 0,113.439 z"
         inkscape:connector-curvature="0"
         id="path14"
         style="fill:#000000;fill-opacity:1;fill-rule:nonzero;stroke:none" /></g></g></svg>