<?xml version="1.0" encoding="UTF-8" standalone="no"?>
<!-- Created with Inkscape (http://www.inkscape.org/) -->

<svg
   xmlns:dc="http://purl.org/dc/elements/1.1/"
   xmlns:cc="http://creativecommons.org/ns#"
   xmlns:rdf="http://www.w3.org/1999/02/22-rdf-syntax-ns#"
   xmlns:svg="http://www.w3.org/2000/svg"
   xmlns="http://www.w3.org/2000/svg"
   xmlns:inkscape="http://www.inkscape.org/namespaces/inkscape"
   version="1.1"
   width="103.75"
   height="135"
   id="svg2"
   xml:space="preserve"><metadata
     id="metadata8"><rdf:RDF><cc:Work
         rdf:about=""><dc:format>image/svg+xml</dc:format><dc:type
           rdf:resource="http://purl.org/dc/dcmitype/StillImage" /></cc:Work></rdf:RDF></metadata><defs
     id="defs6" /><g
     transform="matrix(1.25,0,0,-1.25,0,135)"
     id="g10"><g
       transform="scale(0.1,0.1)"
       id="g12"><path
         d="m 323.012,975.859 -32.032,18.442 c -9.378,5.308 -17,8.939 -22.82,10.929 -5.738,2.07 -10.89,3.13 -15.461,3.13 -13.437,0 -23.91,-4.69 -31.41,-14.059 -7.5,-9.301 -11.25,-22.352 -11.25,-39.223 l 0,-3.437 -70.16,0 c 0,37.808 9.609,67.739 28.91,89.839 19.262,22.07 45,33.13 77.191,33.13 13.508,0 25.969,-1.52 37.34,-4.53 11.45,-2.93 26.129,-9.46 44.059,-19.53 l 32.031,-16.88 c 8.641,-4.92 16.141,-8.51 22.5,-10.78 6.328,-2.19 12.352,-3.28 17.969,-3.28 11.961,0 21.723,4.73 29.223,14.22 7.5,9.57 11.25,22.07 11.25,37.5 l 0,3.28 70.16,0 c -0.742,-37.42 -10.742,-67.27 -30,-89.532 -19.301,-22.308 -44.653,-33.437 -76.102,-33.437 -12.73,0 -24.64,1.48 -35.781,4.531 -11.051,3.008 -26.25,9.566 -45.617,19.687 z m -320.31278,-112.5 113.90278,0 0,-509.218 c 0,-89.922 16.289,-154.61 48.91,-194.063 32.578,-39.488 85.347,-59.219 158.277,-59.219 72.691,0 125.313,19.731 157.813,59.219 32.578,39.453 48.91,104.141 48.91,194.063 l 0,509.218 113.898,0 0,-523.281 C 644.41,230.781 617.379,148.238 563.32,92.4219 509.262,36.6797 429.41,8.82813 323.789,8.82813 217.852,8.82813 137.852,36.6797 83.7891,92.4219 29.7305,148.238 2.69922,230.781 2.69922,340.078 l 0,523.281 z m 597.17978,-126.25 0,66.719 c 22.891,-16.797 42.582,-29.219 59.07,-37.348 16.442,-8.039 30.461,-12.031 42.031,-12.031 17.258,0 30.192,5.16 38.75,15.473 8.629,10.308 12.969,25.547 12.969,45.777 0,11.961 -1.41,23.75 -4.219,35.321 -2.82,11.64 -7.031,23.281 -12.66,34.839 l 74.692,0 c 3.75,-14.3 6.558,-27.769 8.437,-40.468 1.871,-12.731 2.813,-24.692 2.813,-35.942 0,-45.621 -8.211,-79.219 -24.532,-100.777 -16.25,-21.481 -41.8,-32.192 -76.57,-32.192 -17.93,0 -36.711,4.93 -56.398,14.848 -19.692,9.883 -41.172,25.152 -64.383,45.781 z"
         inkscape:connector-curvature="0"
         id="path14"
         style="fill:#000000;fill-opacity:1;fill-rule:nonzero;stroke:none" /></g></g></svg>