<?xml version="1.0" encoding="UTF-8" standalone="no"?>
<!-- Created with Inkscape (http://www.inkscape.org/) -->

<svg
   xmlns:dc="http://purl.org/dc/elements/1.1/"
   xmlns:cc="http://creativecommons.org/ns#"
   xmlns:rdf="http://www.w3.org/1999/02/22-rdf-syntax-ns#"
   xmlns:svg="http://www.w3.org/2000/svg"
   xmlns="http://www.w3.org/2000/svg"
   xmlns:inkscape="http://www.inkscape.org/namespaces/inkscape"
   version="1.1"
   width="66.25"
   height="108.75"
   id="svg2"
   xml:space="preserve"><metadata
     id="metadata8"><rdf:RDF><cc:Work
         rdf:about=""><dc:format>image/svg+xml</dc:format><dc:type
           rdf:resource="http://purl.org/dc/dcmitype/StillImage" /></cc:Work></rdf:RDF></metadata><defs
     id="defs6" /><g
     transform="matrix(1.25,0,0,-1.25,0,108.75)"
     id="g10"><g
       transform="scale(0.1,0.1)"
       id="g12"><path
         d="m 215.078,141.711 103.281,0 0,-131.4102 -103.281,0 0,131.4102 z m 311.402,458.75 0,-379.531 -103.281,0 0,376.25 c 0,59.449 -11.64,103.98 -34.84,133.59 -23.129,29.57 -57.929,44.378 -104.379,44.378 -55.859,0 -99.839,-17.808 -132.031,-53.437 C 119.77,686.16 103.672,637.73 103.672,576.398 l 0,-355.468 -103.902469,0 0,628.91 103.902469,0 0,-97.66 c 24.687,37.808 53.789,66.019 87.348,84.691 33.511,18.75 72.179,28.117 115.929,28.117 72.27,0 126.922,-22.418 163.91,-67.187 37.071,-44.68 55.621,-110.461 55.621,-197.34 z"
         inkscape:connector-curvature="0"
         id="path14"
         style="fill:#000000;fill-opacity:1;fill-rule:nonzero;stroke:none" /></g></g></svg>