<?xml version="1.0" encoding="UTF-8" standalone="no"?>
<!-- Created with Inkscape (http://www.inkscape.org/) -->

<svg
   xmlns:dc="http://purl.org/dc/elements/1.1/"
   xmlns:cc="http://creativecommons.org/ns#"
   xmlns:rdf="http://www.w3.org/1999/02/22-rdf-syntax-ns#"
   xmlns:svg="http://www.w3.org/2000/svg"
   xmlns="http://www.w3.org/2000/svg"
   xmlns:inkscape="http://www.inkscape.org/namespaces/inkscape"
   version="1.1"
   width="81.25"
   height="126.25"
   id="svg2"
   xml:space="preserve"><metadata
     id="metadata8"><rdf:RDF><cc:Work
         rdf:about=""><dc:format>image/svg+xml</dc:format><dc:type
           rdf:resource="http://purl.org/dc/dcmitype/StillImage" /></cc:Work></rdf:RDF></metadata><defs
     id="defs6" /><g
     transform="matrix(1.25,0,0,-1.25,0,126.25)"
     id="g10"><g
       transform="scale(0.1,0.1)"
       id="g12"><path
         d="m 246.129,884.289 105.633,0 118.437,-149.379 -77.969,0 -93.281,100 -93.289,-100 -77.961,0 118.43,149.379 z m 293.75,118.911 103.75,0 -127.969,-148.29 -85.93,0 110.149,148.29 z m 42.82,-636.571 0,-50.617 -475,0 c 4.449,-71.063 25.852,-125.242 64.211,-162.5 38.442,-37.313 91.918,-55.9417 160.469,-55.9417 39.691,0 78.133,4.8397 115.32,14.5317 37.262,9.769 74.25,24.418 110.93,43.91 l 0,-97.6604 C 521.52,42.6094 483.52,30.6211 444.57,22.4102 405.699,14.2109 366.211,10.0703 326.129,10.0703 225.82,10.0703 146.328,39.2109 87.6992,97.5703 29.1406,156.012 -0.121094,234.988 -0.121094,334.602 c 0,102.886 27.742194,184.57 83.281294,245 55.6288,60.507 130.6288,90.777 224.9998,90.777 84.57,0 151.449,-27.258 200.629,-81.719 49.262,-54.488 73.91,-128.512 73.91,-222.031 z m -103.289,30.32 c -0.738,56.563 -16.558,101.641 -47.5,135.313 -30.859,33.629 -71.711,50.468 -122.648,50.468 -57.621,0 -103.75,-16.332 -138.442,-48.91 -34.609,-32.5 -54.492,-78.359 -59.691,-137.5 l 368.281,0.629 z"
         inkscape:connector-curvature="0"
         id="path14"
         style="fill:#000000;fill-opacity:1;fill-rule:nonzero;stroke:none" /></g></g></svg>