<?xml version="1.0" encoding="UTF-8" standalone="no"?>
<!-- Created with Inkscape (http://www.inkscape.org/) -->

<svg
   xmlns:dc="http://purl.org/dc/elements/1.1/"
   xmlns:cc="http://creativecommons.org/ns#"
   xmlns:rdf="http://www.w3.org/1999/02/22-rdf-syntax-ns#"
   xmlns:svg="http://www.w3.org/2000/svg"
   xmlns="http://www.w3.org/2000/svg"
   xmlns:inkscape="http://www.inkscape.org/namespaces/inkscape"
   version="1.1"
   width="86.25"
   height="116.25"
   id="svg2"
   xml:space="preserve"><metadata
     id="metadata8"><rdf:RDF><cc:Work
         rdf:about=""><dc:format>image/svg+xml</dc:format><dc:type
           rdf:resource="http://purl.org/dc/dcmitype/StillImage" /></cc:Work></rdf:RDF></metadata><defs
     id="defs6" /><g
     transform="matrix(1.25,0,0,-1.25,0,116.25)"
     id="g10"><g
       transform="scale(0.1,0.1)"
       id="g12"><path
         d="m 256.328,795.551 -32.027,30.929 c -8.25,7.5 -15.473,13.008 -21.723,16.571 -6.168,3.508 -11.68,5.308 -16.558,5.308 -14.18,0 -24.649,-6.839 -31.411,-20.468 -6.8,-13.672 -10.55,-35.86 -11.25,-66.563 l -70.1598,0 c 0.711,50.512 10.6289,89.531 29.6918,117.031 19.14,27.582 45.781,41.411 79.839,41.411 14.149,0 27.231,-2.661 39.219,-7.969 11.961,-5.242 24.891,-14.031 38.75,-26.41 l 32.031,-30.782 c 8.211,-7.5 15.391,-13.05 21.571,-16.558 6.25,-3.563 11.789,-5.321 16.719,-5.321 14.14,0 24.601,6.801 31.402,20.469 6.758,13.641 10.508,35.821 11.25,66.571 l 70.156,0 c -0.738,-50.551 -10.707,-89.61 -29.848,-117.192 -19.058,-27.5 -45.621,-41.25 -79.679,-41.25 -14.18,0 -27.27,2.582 -39.223,7.813 -11.988,5.308 -24.918,14.097 -38.75,26.41 z m 201.871,-207.192 0,66.719 c 22.891,-16.797 42.582,-29.219 59.071,-37.348 16.441,-8.039 30.46,-12.031 42.031,-12.031 17.258,0 30.187,5.16 38.75,15.473 8.629,10.308 12.969,25.547 12.969,45.777 0,11.961 -1.411,23.75 -4.219,35.321 -2.821,11.64 -7.031,23.281 -12.66,34.839 l 74.687,0 c 3.75,-14.3 6.563,-27.769 8.442,-40.468 1.871,-12.731 2.808,-24.692 2.808,-35.942 0,-45.621 -8.199,-79.219 -24.527,-100.777 -16.25,-21.481 -41.801,-32.192 -76.571,-32.192 -17.929,0 -36.71,4.93 -56.402,14.848 -19.687,9.883 -41.168,25.152 -64.379,45.781 z m -459.52713,-313.91 0,380.781 103.43713,0 0,-376.71 c 0,-59.61 11.563,-104.301 34.692,-134.071 C 160,114.77 194.84,99.9219 241.328,99.9219 c 55.703,0 99.762,17.7381 132.192,53.2771 32.378,35.629 48.589,84.102 48.589,145.473 l 0,356.558 103.282,0 0,-628.9019 -103.282,0 0,96.5629 C 396.988,84.7695 367.891,56.4102 334.77,37.8906 301.641,19.3789 263.199,10.0781 219.449,10.0781 147.148,10.0781 92.2695,32.5 54.7695,77.4219 17.3398,122.301 -1.32813,187.969 -1.32813,274.449 z"
         inkscape:connector-curvature="0"
         id="path14"
         style="fill:#000000;fill-opacity:1;fill-rule:nonzero;stroke:none" /></g></g></svg>