<?xml version="1.0" encoding="UTF-8" standalone="no"?>
<!-- Created with Inkscape (http://www.inkscape.org/) -->

<svg
   xmlns:dc="http://purl.org/dc/elements/1.1/"
   xmlns:cc="http://creativecommons.org/ns#"
   xmlns:rdf="http://www.w3.org/1999/02/22-rdf-syntax-ns#"
   xmlns:svg="http://www.w3.org/2000/svg"
   xmlns="http://www.w3.org/2000/svg"
   xmlns:inkscape="http://www.inkscape.org/namespaces/inkscape"
   version="1.1"
   width="78.75"
   height="116.25"
   id="svg2"
   xml:space="preserve"><metadata
     id="metadata8"><rdf:RDF><cc:Work
         rdf:about=""><dc:format>image/svg+xml</dc:format><dc:type
           rdf:resource="http://purl.org/dc/dcmitype/StillImage" /></cc:Work></rdf:RDF></metadata><defs
     id="defs6" /><g
     transform="matrix(1.25,0,0,-1.25,0,116.25)"
     id="g10"><g
       transform="scale(0.1,0.1)"
       id="g12"><path
         d="M 278.949,795.551 246.91,826.48 c -8.238,7.5 -15.461,13.008 -21.711,16.571 -6.179,3.508 -11.679,5.308 -16.57,5.308 -14.18,0 -24.649,-6.839 -31.399,-20.468 -6.8,-13.672 -10.55,-35.86 -11.25,-66.563 l -70.1597,0 c 0.6992,50.512 10.6287,89.531 29.6917,117.031 19.136,27.582 45.777,41.411 79.84,41.411 14.136,0 27.226,-2.661 39.218,-7.969 11.95,-5.242 24.879,-14.031 38.75,-26.41 l 32.032,-30.782 c 8.199,-7.5 15.386,-13.05 21.558,-16.558 6.25,-3.563 11.801,-5.321 16.719,-5.321 14.141,0 24.609,6.801 31.41,20.469 6.762,13.641 10.512,35.821 11.25,66.571 l 70.16,0 c -0.75,-50.551 -10.711,-89.61 -29.847,-117.192 -19.063,-27.5 -45.622,-41.25 -79.692,-41.25 -14.18,0 -27.262,2.582 -39.211,7.813 -12,5.308 -24.929,14.097 -38.75,26.41 z m 121.871,-207.192 0,66.719 c 22.891,-16.797 42.578,-29.219 59.059,-37.348 16.449,-8.039 30.473,-12.031 42.031,-12.031 17.27,0 30.199,5.16 38.75,15.473 8.641,10.308 12.969,25.547 12.969,45.777 0,11.961 -1.399,23.75 -4.219,35.321 -2.808,11.64 -7.031,23.281 -12.648,34.839 l 74.687,0 c 3.75,-14.3 6.563,-27.769 8.43,-40.468 1.883,-12.731 2.82,-24.692 2.82,-35.942 0,-45.621 -8.211,-79.219 -24.539,-100.777 -16.25,-21.481 -41.789,-32.192 -76.558,-32.192 -17.93,0 -36.723,4.93 -56.403,14.848 -19.687,9.883 -41.179,25.152 -64.379,45.781 z M 285.66,582.73 c -55.43,0 -99.211,-21.64 -131.398,-64.839 C 122.07,474.648 105.98,415.43 105.98,340.23 105.98,265 121.949,205.738 153.949,162.422 186.02,119.18 229.922,97.5781 285.66,97.5781 c 55.078,0 98.75,21.7229 130.942,65.1519 32.187,43.442 48.277,102.579 48.277,177.5 0,74.461 -16.09,133.481 -48.277,177.04 -32.192,43.628 -75.864,65.46 -130.942,65.46 z m 0,87.661 c 89.891,0 160.469,-29.219 211.719,-87.661 51.25,-58.351 76.883,-139.179 76.883,-242.5 0,-102.929 -25.633,-183.71 -76.883,-242.3394 C 446.129,39.3398 375.551,10.0781 285.66,10.0781 195.43,10.0781 124.77,39.3398 73.6289,97.8906 22.5781,156.52 -2.92969,237.301 -2.92969,340.23 c 0,103.321 25.50779,184.149 76.55859,242.5 51.1411,58.442 121.8011,87.661 212.0311,87.661 z"
         inkscape:connector-curvature="0"
         id="path14"
         style="fill:#000000;fill-opacity:1;fill-rule:nonzero;stroke:none" /></g></g></svg>