<?xml version="1.0" encoding="UTF-8" standalone="no"?>
<!-- Created with Inkscape (http://www.inkscape.org/) -->

<svg
   xmlns:dc="http://purl.org/dc/elements/1.1/"
   xmlns:cc="http://creativecommons.org/ns#"
   xmlns:rdf="http://www.w3.org/1999/02/22-rdf-syntax-ns#"
   xmlns:svg="http://www.w3.org/2000/svg"
   xmlns="http://www.w3.org/2000/svg"
   xmlns:inkscape="http://www.inkscape.org/namespaces/inkscape"
   version="1.1"
   width="78.75"
   height="116.25"
   id="svg2"
   xml:space="preserve"><metadata
     id="metadata8"><rdf:RDF><cc:Work
         rdf:about=""><dc:format>image/svg+xml</dc:format><dc:type
           rdf:resource="http://purl.org/dc/dcmitype/StillImage" /></cc:Work></rdf:RDF></metadata><defs
     id="defs6" /><g
     transform="matrix(1.25,0,0,-1.25,0,116.25)"
     id="g10"><g
       transform="scale(0.1,0.1)"
       id="g12"><path
         d="m 400.82,782.949 0,66.723 c 22.891,-16.801 42.578,-29.223 59.059,-37.344 16.449,-8.047 30.473,-12.027 42.031,-12.027 17.27,0 30.199,5.148 38.75,15.469 8.641,10.308 12.969,25.539 12.969,45.781 0,11.949 -1.399,23.75 -4.219,35.308 -2.808,11.641 -7.031,23.282 -12.648,34.84 l 74.687,0 c 3.75,-14.289 6.563,-27.769 8.43,-40.469 1.883,-12.73 2.82,-24.679 2.82,-35.929 0,-45.629 -8.211,-79.223 -24.539,-100.781 -16.25,-21.489 -41.789,-32.192 -76.558,-32.192 -17.93,0 -36.723,4.922 -56.403,14.844 -19.687,9.879 -41.179,25.156 -64.379,45.777 z m -115.16,-5.621 c -55.43,0 -99.211,-21.637 -131.398,-64.848 C 122.07,669.238 105.98,610.02 105.98,534.828 c 0,-75.238 15.969,-134.488 47.969,-177.808 32.071,-43.25 75.973,-64.848 131.711,-64.848 55.078,0 98.75,21.719 130.942,65.156 32.187,43.442 48.277,102.582 48.277,177.5 0,74.453 -16.09,133.473 -48.277,177.031 -32.192,43.629 -75.864,65.469 -130.942,65.469 z m 0,87.652 c 89.891,0 160.469,-29.21 211.719,-87.652 51.25,-58.359 76.883,-139.18 76.883,-242.5 0,-102.93 -25.633,-183.707 -76.883,-242.348 -51.25,-58.55 -121.828,-87.808 -211.719,-87.808 -90.23,0 -160.89,29.258 -212.0311,87.808 -51.0508,58.641 -76.55859,139.418 -76.55859,242.348 0,103.32 25.50779,184.141 76.55859,242.5 C 124.77,835.77 195.43,864.98 285.66,864.98 z m -52.34,-723.281 103.282,0 0,-131.3982 -103.282,0 0,131.3982 z"
         inkscape:connector-curvature="0"
         id="path14"
         style="fill:#000000;fill-opacity:1;fill-rule:nonzero;stroke:none" /></g></g></svg>