<?xml version="1.0" encoding="UTF-8" standalone="no"?>
<!-- Created with Inkscape (http://www.inkscape.org/) -->

<svg
   xmlns:dc="http://purl.org/dc/elements/1.1/"
   xmlns:cc="http://creativecommons.org/ns#"
   xmlns:rdf="http://www.w3.org/1999/02/22-rdf-syntax-ns#"
   xmlns:svg="http://www.w3.org/2000/svg"
   xmlns="http://www.w3.org/2000/svg"
   xmlns:inkscape="http://www.inkscape.org/namespaces/inkscape"
   version="1.1"
   width="32.5"
   height="145"
   id="svg2"
   xml:space="preserve"><metadata
     id="metadata8"><rdf:RDF><cc:Work
         rdf:about=""><dc:format>image/svg+xml</dc:format><dc:type
           rdf:resource="http://purl.org/dc/dcmitype/StillImage" /></cc:Work></rdf:RDF></metadata><defs
     id="defs6" /><g
     transform="matrix(1.25,0,0,-1.25,0,145)"
     id="g10"><g
       transform="scale(0.1,0.1)"
       id="g12"><path
         d="m 62.1914,848.27 113.4296,0 0,-838.28172 -113.4296,0 0,838.28172 z m -63.132806,274.69 c 41.882806,19.06 82.421906,28.59 121.722406,28.59 38.949,0 70.309,-7.96 94.059,-23.9 23.832,-15.86 35.781,-36.33 35.781,-61.41 0,-22.81 -16.519,-46.4 -49.531,-70.779 l -24.68,-17.973 c -13.129,-9.687 -20.43,-16.25 -21.879,-19.687 -2.621,-5.93 -3.91,-14.922 -3.91,-26.871 l -66.871,0 0,6.718 c 0,15 2.8086,27.543 8.4414,37.653 5.6172,10.078 17.9686,22.078 37.0276,35.939 l 25.312,19.06 c 17.188,12.7 25.778,26.57 25.778,41.57 0,7.81 -5.778,15.08 -17.34,21.87 -11.559,6.76 -30.699,10.16 -57.348,10.16 -33.6718,0 -69.1718,-9.77 -106.562406,-29.22 l 0,48.28 z"
         inkscape:connector-curvature="0"
         id="path14"
         style="fill:#000000;fill-opacity:1;fill-rule:nonzero;stroke:none" /></g></g></svg>