<?xml version="1.0" encoding="UTF-8" standalone="no"?>
<!-- Created with Inkscape (http://www.inkscape.org/) -->

<svg
   xmlns:dc="http://purl.org/dc/elements/1.1/"
   xmlns:cc="http://creativecommons.org/ns#"
   xmlns:rdf="http://www.w3.org/1999/02/22-rdf-syntax-ns#"
   xmlns:svg="http://www.w3.org/2000/svg"
   xmlns="http://www.w3.org/2000/svg"
   xmlns:inkscape="http://www.inkscape.org/namespaces/inkscape"
   version="1.1"
   width="72.5"
   height="130"
   id="svg2"
   xml:space="preserve"><metadata
     id="metadata8"><rdf:RDF><cc:Work
         rdf:about=""><dc:format>image/svg+xml</dc:format><dc:type
           rdf:resource="http://purl.org/dc/dcmitype/StillImage" /></cc:Work></rdf:RDF></metadata><defs
     id="defs6" /><g
     transform="matrix(1.25,0,0,-1.25,0,130)"
     id="g10"><g
       transform="scale(0.1,0.1)"
       id="g12"><path
         d="m 236.129,884.27 105.633,0 118.437,-149.372 -77.969,0 -93.281,100 -93.289,-100 -77.961,0 118.43,149.372 z m 50.633,52.82 -32.032,18.43 c -9.378,5.32 -17,8.949 -22.82,10.941 -5.738,2.07 -10.89,3.129 -15.461,3.129 -13.437,0 -23.91,-4.692 -31.41,-14.07 -7.5,-9.29 -11.25,-22.34 -11.25,-39.219 l 0,-3.43 -70.16,0 c 0,37.809 9.609,67.731 28.91,89.839 19.262,22.07 45,33.13 77.191,33.13 13.508,0 25.969,-1.53 37.34,-4.54 11.45,-2.92 26.129,-9.45 44.059,-19.53 l 32.031,-16.872 c 8.641,-4.918 16.141,-8.519 22.5,-10.777 6.328,-2.191 12.352,-3.281 17.969,-3.281 11.961,0 21.723,4.719 29.223,14.211 7.5,9.579 11.25,22.079 11.25,37.499 l 0,3.29 70.16,0 c -0.742,-37.43 -10.742,-67.27 -30,-89.539 -19.301,-22.301 -44.653,-33.43 -76.102,-33.43 -12.73,0 -24.64,1.481 -35.781,4.527 -11.051,3.012 -26.25,9.571 -45.617,19.692 z m 1.718,-354.379 c -55.429,0 -99.218,-21.641 -131.41,-64.84 -32.191,-43.242 -48.281,-102.461 -48.281,-177.66 0,-75.231 15.981,-134.492 47.973,-177.813 32.066,-43.238 75.968,-64.8472 131.718,-64.8472 55.071,0 98.75,21.7192 130.93,65.1602 32.192,43.437 48.289,102.578 48.289,177.5 0,74.449 -16.097,133.48 -48.289,177.027 -32.18,43.641 -75.859,65.473 -130.93,65.473 z m 0,87.66 c 89.879,0 160.469,-29.223 211.719,-87.66 51.25,-58.359 76.871,-139.18 76.871,-242.5 C 577.07,237.281 551.449,156.5 500.199,97.8711 448.949,39.3086 378.359,10.0508 288.48,10.0508 198.238,10.0508 127.578,39.3086 76.4492,97.8711 25.3906,156.5 -0.121094,237.281 -0.121094,340.211 c 0,103.32 25.511694,184.141 76.570294,242.5 51.1288,58.437 121.7888,87.66 212.0308,87.66 z"
         inkscape:connector-curvature="0"
         id="path14"
         style="fill:#000000;fill-opacity:1;fill-rule:nonzero;stroke:none" /></g></g></svg>