<?xml version="1.0" encoding="UTF-8" standalone="no"?>
<!-- Created with Inkscape (http://www.inkscape.org/) -->

<svg
   xmlns:dc="http://purl.org/dc/elements/1.1/"
   xmlns:cc="http://creativecommons.org/ns#"
   xmlns:rdf="http://www.w3.org/1999/02/22-rdf-syntax-ns#"
   xmlns:svg="http://www.w3.org/2000/svg"
   xmlns="http://www.w3.org/2000/svg"
   xmlns:inkscape="http://www.inkscape.org/namespaces/inkscape"
   version="1.1"
   width="93.75"
   height="135"
   id="svg2"
   xml:space="preserve"><metadata
     id="metadata8"><rdf:RDF><cc:Work
         rdf:about=""><dc:format>image/svg+xml</dc:format><dc:type
           rdf:resource="http://purl.org/dc/dcmitype/StillImage" /></cc:Work></rdf:RDF></metadata><defs
     id="defs6" /><g
     transform="matrix(1.25,0,0,-1.25,0,135)"
     id="g10"><g
       transform="scale(0.1,0.1)"
       id="g12"><path
         d="m 103.238,1071.04 113.442,0 0,-343.591 412.191,0 0,343.591 113.43,0 0,-838.278 -113.43,0 0,399.218 -412.191,0 0,-399.218 -113.442,0 0,838.278 z m 71.883,-838.278 c 20.617,-23.211 35.969,-44.614 46.09,-64.223 10.078,-19.687 15.16,-38.519 15.16,-56.559 0,-33.3198 -11.25,-58.48 -33.75,-75.4683 -22.5,-17.0703 -55.859,-25.6328 -100,-25.6328 -17.1913,0 -33.9921,1.1719 -50.3202,3.4414 -16.25,2.3008 -32.4219,5.6992 -48.42971,10.1602 l 0,73.4297 C 16.5586,91.5898 29.8398,86.9805 43.7109,84.1602 c 13.8282,-2.8086 29.5704,-4.211 47.1875,-4.211 22.0706,0 38.6716,4.5313 49.8396,13.5899 11.25,8.9809 16.883,22.0309 16.883,39.2229 0,11.25 -4.031,25.078 -12.031,41.398 -8.051,16.25 -20.469,35.789 -37.352,58.602 l 66.883,0 z"
         inkscape:connector-curvature="0"
         id="path14"
         style="fill:#000000;fill-opacity:1;fill-rule:nonzero;stroke:none" /></g></g></svg>