<?xml version="1.0" encoding="UTF-8" standalone="no"?>
<!-- Created with Inkscape (http://www.inkscape.org/) -->

<svg
   xmlns:dc="http://purl.org/dc/elements/1.1/"
   xmlns:cc="http://creativecommons.org/ns#"
   xmlns:rdf="http://www.w3.org/1999/02/22-rdf-syntax-ns#"
   xmlns:svg="http://www.w3.org/2000/svg"
   xmlns="http://www.w3.org/2000/svg"
   xmlns:inkscape="http://www.inkscape.org/namespaces/inkscape"
   version="1.1"
   width="82.5"
   height="133.75"
   id="svg2"
   xml:space="preserve"><metadata
     id="metadata8"><rdf:RDF><cc:Work
         rdf:about=""><dc:format>image/svg+xml</dc:format><dc:type
           rdf:resource="http://purl.org/dc/dcmitype/StillImage" /></cc:Work></rdf:RDF></metadata><defs
     id="defs6" /><g
     transform="matrix(1.25,0,0,-1.25,0,133.75)"
     id="g10"><g
       transform="scale(0.1,0.1)"
       id="g12"><path
         d="m 192.109,1061.72 114.692,0 0,-115.161 -114.692,0 0,115.161 z M 397.422,403.121 c 24.258,-8.242 47.887,-25.851 70.937,-52.812 23.012,-26.989 46.129,-64.059 69.371,-111.25 L 652.891,10 531.02,10 423.828,225 c -27.738,56.129 -54.609,93.359 -80.629,111.719 -26.051,18.441 -61.519,27.66 -106.398,27.66 l -123.602,0 0,-354.379 -113.429469,0 0,838.281 256.089469,0 c 95.821,0 167.34,-20.082 214.532,-60.16 47.187,-40 70.781,-100.422 70.781,-181.242 0,-52.82 -12.301,-96.649 -36.871,-131.41 -24.5,-34.809 -60.121,-58.91 -106.879,-72.348 z m -284.223,352.039 0,-297.66 142.66,0 c 54.692,0 95.942,12.578 123.75,37.809 27.891,25.312 41.871,62.5 41.871,111.57 0,49.062 -13.98,86.012 -41.871,110.93 -27.808,24.89 -69.058,37.351 -123.75,37.351 l -142.66,0 z"
         inkscape:connector-curvature="0"
         id="path14"
         style="fill:#000000;fill-opacity:1;fill-rule:nonzero;stroke:none" /></g></g></svg>