<?xml version="1.0" encoding="UTF-8" standalone="no"?>
<!-- Created with Inkscape (http://www.inkscape.org/) -->

<svg
   xmlns:dc="http://purl.org/dc/elements/1.1/"
   xmlns:cc="http://creativecommons.org/ns#"
   xmlns:rdf="http://www.w3.org/1999/02/22-rdf-syntax-ns#"
   xmlns:svg="http://www.w3.org/2000/svg"
   xmlns="http://www.w3.org/2000/svg"
   xmlns:inkscape="http://www.inkscape.org/namespaces/inkscape"
   version="1.1"
   width="72.5"
   height="143.75"
   id="svg2"
   xml:space="preserve"><metadata
     id="metadata8"><rdf:RDF><cc:Work
         rdf:about=""><dc:format>image/svg+xml</dc:format><dc:type
           rdf:resource="http://purl.org/dc/dcmitype/StillImage" /></cc:Work></rdf:RDF></metadata><defs
     id="defs6" /><g
     transform="matrix(1.25,0,0,-1.25,0,143.75)"
     id="g10"><g
       transform="scale(0.1,0.1)"
       id="g12"><path
         d="m 236.129,141.73 103.281,0 0,-131.4097 -103.281,0 0,131.4097 z m 52.351,635.622 c -55.429,0 -99.218,-21.641 -131.41,-64.84 -32.191,-43.242 -48.281,-102.461 -48.281,-177.66 0,-75.231 15.981,-134.493 47.973,-177.813 32.066,-43.238 75.968,-64.84 131.718,-64.84 55.071,0 98.75,21.711 130.93,65.153 32.192,43.437 48.289,102.578 48.289,177.5 0,74.449 -16.097,133.476 -48.289,177.027 -32.18,43.641 -75.859,65.473 -130.93,65.473 z m 0,87.66 c 89.879,0 160.469,-29.223 211.719,-87.66 51.25,-58.364 76.871,-139.18 76.871,-242.5 0,-102.93 -25.621,-183.711 -76.871,-242.34 -51.25,-58.563 -121.84,-87.813 -211.719,-87.813 -90.242,0 -160.902,29.25 -212.0308,87.813 -51.0586,58.629 -76.570294,139.41 -76.570294,242.34 0,103.32 25.511694,184.136 76.570294,242.5 51.1288,58.437 121.7888,87.66 212.0308,87.66 z m -52.351,-723.282 103.281,0 0,-131.4097 -103.281,0 0,131.4097 z m 6.25,999.06 83.133,0 137.5,-211.251 -77.973,0 -101.09,137.661 -101.097,-137.661 -77.973,0 137.5,211.251 z"
         inkscape:connector-curvature="0"
         id="path14"
         style="fill:#000000;fill-opacity:1;fill-rule:nonzero;stroke:none" /></g></g></svg>