<?xml version="1.0" encoding="UTF-8" standalone="no"?>
<!-- Created with Inkscape (http://www.inkscape.org/) -->

<svg
   xmlns:dc="http://purl.org/dc/elements/1.1/"
   xmlns:cc="http://creativecommons.org/ns#"
   xmlns:rdf="http://www.w3.org/1999/02/22-rdf-syntax-ns#"
   xmlns:svg="http://www.w3.org/2000/svg"
   xmlns="http://www.w3.org/2000/svg"
   xmlns:inkscape="http://www.inkscape.org/namespaces/inkscape"
   version="1.1"
   width="103.75"
   height="137.5"
   id="svg2"
   xml:space="preserve"><metadata
     id="metadata8"><rdf:RDF><cc:Work
         rdf:about=""><dc:format>image/svg+xml</dc:format><dc:type
           rdf:resource="http://purl.org/dc/dcmitype/StillImage" /></cc:Work></rdf:RDF></metadata><defs
     id="defs6" /><g
     transform="matrix(1.25,0,0,-1.25,0,137.5)"
     id="g10"><g
       transform="scale(0.1,0.1)"
       id="g12"><path
         d="m 385.199,982.359 c -82.308,0 -147.738,-30.738 -196.25,-92.187 -48.437,-61.371 -72.66,-145 -72.66,-250.942 0,-105.539 24.223,-189.019 72.66,-250.46 48.512,-61.372 113.942,-92.04 196.25,-92.04 82.379,0 147.571,30.668 195.621,92.04 48.129,61.441 72.192,144.921 72.192,250.46 0,105.942 -24.063,189.571 -72.192,250.942 -48.05,61.449 -113.242,92.187 -195.621,92.187 z m 0,92.191 c 117.571,0 211.563,-39.46 281.871,-118.28 70.391,-78.75 105.629,-184.461 105.629,-317.04 0,-132.101 -35.238,-237.57 -105.629,-316.402 -70.308,-78.75 -164.3,-118.129 -281.871,-118.129 -117.929,0 -212.187,39.262 -282.82,117.821 -70.5392,78.628 -105.77744,184.21 -105.77744,316.71 0,132.579 35.23824,238.29 105.77744,317.04 70.633,78.82 164.891,118.28 282.82,118.28 z m 214.063,-131.57 0,66.72 c 22.886,-16.79 42.578,-29.22 59.058,-37.341 16.45,-8.05 30.469,-12.031 42.032,-12.031 17.269,0 30.199,5.152 38.75,15.473 8.628,10.308 12.968,25.539 12.968,45.779 0,11.95 -1.41,23.75 -4.218,35.31 -2.813,11.64 -7.032,23.28 -12.653,34.84 l 74.68,0 c 3.75,-14.29 6.57,-27.77 8.441,-40.46 1.879,-12.74 2.809,-24.69 2.809,-35.94 0,-45.631 -8.199,-79.221 -24.527,-100.779 -16.25,-21.492 -41.801,-32.192 -76.563,-32.192 -17.93,0 -36.719,4.922 -56.41,14.84 -19.68,9.891 -41.168,25.16 -64.367,45.781 z m -257.5,-801.25 103.277,0 0,-131.4019 -103.277,0 0,131.4019 z"
         inkscape:connector-curvature="0"
         id="path14"
         style="fill:#000000;fill-opacity:1;fill-rule:nonzero;stroke:none" /></g></g></svg>