<?xml version="1.0" encoding="UTF-8" standalone="no"?>
<!-- Created with Inkscape (http://www.inkscape.org/) -->

<svg
   xmlns:dc="http://purl.org/dc/elements/1.1/"
   xmlns:cc="http://creativecommons.org/ns#"
   xmlns:rdf="http://www.w3.org/1999/02/22-rdf-syntax-ns#"
   xmlns:svg="http://www.w3.org/2000/svg"
   xmlns="http://www.w3.org/2000/svg"
   xmlns:inkscape="http://www.inkscape.org/namespaces/inkscape"
   version="1.1"
   width="71.25"
   height="137.5"
   id="svg2"
   xml:space="preserve"><metadata
     id="metadata8"><rdf:RDF><cc:Work
         rdf:about=""><dc:format>image/svg+xml</dc:format><dc:type
           rdf:resource="http://purl.org/dc/dcmitype/StillImage" /></cc:Work></rdf:RDF></metadata><defs
     id="defs6" /><g
     transform="matrix(1.25,0,0,-1.25,0,137.5)"
     id="g10"><g
       transform="scale(0.1,0.1)"
       id="g12"><path
         d="m 455.23,534.859 c 0,75.942 -15.621,135.512 -46.871,178.75 -31.25,43.321 -74.218,65 -128.91,65 -54.679,0 -97.648,-21.679 -128.898,-65 -31.25,-43.238 -46.879,-102.808 -46.879,-178.75 0,-76.058 15.629,-135.699 46.879,-178.91 31.25,-43.238 74.219,-64.84 128.898,-64.84 54.692,0 97.66,21.602 128.91,64.84 31.25,43.211 46.871,102.852 46.871,178.91 z M 103.672,754.391 c 21.758,37.379 49.219,65.16 82.348,83.281 33.121,18.207 72.691,27.348 118.75,27.348 76.32,0 138.351,-30.321 186.089,-90.942 47.692,-60.629 71.563,-140.387 71.563,-239.219 0,-98.871 -23.871,-178.589 -71.563,-239.218 C 443.121,235.02 381.09,204.699 304.77,204.699 c -46.059,0 -85.629,9.071 -118.75,27.192 -33.129,18.129 -60.59,45.937 -82.348,83.437 l 0,-94.379 -103.902469,0 0,873.751 103.902469,0 0,-340.309 z m 111.406,-612.661 103.281,0 0,-131.4019 -103.281,0 0,131.4019 z"
         inkscape:connector-curvature="0"
         id="path14"
         style="fill:#000000;fill-opacity:1;fill-rule:nonzero;stroke:none" /></g></g></svg>