<?xml version="1.0" encoding="UTF-8" standalone="no"?>
<!-- Created with Inkscape (http://www.inkscape.org/) -->

<svg
   xmlns:dc="http://purl.org/dc/elements/1.1/"
   xmlns:cc="http://creativecommons.org/ns#"
   xmlns:rdf="http://www.w3.org/1999/02/22-rdf-syntax-ns#"
   xmlns:svg="http://www.w3.org/2000/svg"
   xmlns="http://www.w3.org/2000/svg"
   xmlns:inkscape="http://www.inkscape.org/namespaces/inkscape"
   version="1.1"
   width="115"
   height="111.25"
   id="svg2"
   xml:space="preserve"><metadata
     id="metadata8"><rdf:RDF><cc:Work
         rdf:about=""><dc:format>image/svg+xml</dc:format><dc:type
           rdf:resource="http://purl.org/dc/dcmitype/StillImage" /></cc:Work></rdf:RDF></metadata><defs
     id="defs6" /><g
     transform="matrix(1.25,0,0,-1.25,0,111.25)"
     id="g10"><g
       transform="scale(0.1,0.1)"
       id="g12"><path
         d="m 405.078,883.77 103.281,0 0,-130.79 -103.281,0 0,130.79 z m 88.281,-365.629 c 25.821,46.449 56.719,80.699 92.661,102.808 35.929,22.071 78.281,33.129 127.031,33.129 65.39,0 115.859,-22.93 151.398,-68.75 35.629,-45.859 53.442,-111.098 53.442,-195.777 l 0,-379.5315 -103.911,0 0,376.2505 c 0,60.191 -10.699,104.878 -32.031,134.058 -21.25,29.262 -53.828,43.902 -97.648,43.902 -53.563,0 -95.86,-17.808 -126.879,-53.429 C 526.371,475.25 510.859,426.809 510.859,365.48 l 0,-355.4605 -103.91,0 0,376.2505 c 0,60.621 -10.699,105.39 -32.027,134.371 -21.371,29.058 -54.301,43.589 -98.75,43.589 -52.813,0 -94.801,-17.89 -125.942,-53.589 C 119.18,474.898 103.672,426.5 103.672,365.48 l 0,-355.4605 -103.902469,0 0,628.9025 103.902469,0 0,-97.652 c 23.629,38.511 51.918,66.949 84.848,85.308 32.89,18.32 72.031,27.5 117.339,27.5 45.621,0 84.411,-11.637 116.411,-34.848 32.07,-23.242 55.781,-56.949 71.089,-101.089 z"
         inkscape:connector-curvature="0"
         id="path14"
         style="fill:#000000;fill-opacity:1;fill-rule:nonzero;stroke:none" /></g></g></svg>