<?xml version="1.0" encoding="UTF-8" standalone="no"?>
<!-- Created with Inkscape (http://www.inkscape.org/) -->

<svg
   xmlns:dc="http://purl.org/dc/elements/1.1/"
   xmlns:cc="http://creativecommons.org/ns#"
   xmlns:rdf="http://www.w3.org/1999/02/22-rdf-syntax-ns#"
   xmlns:svg="http://www.w3.org/2000/svg"
   xmlns="http://www.w3.org/2000/svg"
   xmlns:inkscape="http://www.inkscape.org/namespaces/inkscape"
   version="1.1"
   width="67.5"
   height="128.75"
   id="svg2"
   xml:space="preserve"><metadata
     id="metadata8"><rdf:RDF><cc:Work
         rdf:about=""><dc:format>image/svg+xml</dc:format><dc:type
           rdf:resource="http://purl.org/dc/dcmitype/StillImage" /></cc:Work></rdf:RDF></metadata><defs
     id="defs6" /><g
     transform="matrix(1.25,0,0,-1.25,0,128.75)"
     id="g10"><g
       transform="scale(0.1,0.1)"
       id="g12"><path
         d="m 325.039,342.41 c -83.559,0 -141.41,-9.539 -173.59,-28.601 -32.187,-19.059 -48.289,-51.637 -48.289,-97.649 0,-36.68 12.07,-65.789 36.25,-87.351 24.141,-21.559 57.039,-32.3402 98.602,-32.3402 57.258,0 103.199,20.3122 137.808,60.9412 34.571,40.621 51.879,94.61 51.879,162.031 l 0,22.969 -102.66,0 z m 206.09,42.649 0,-358.7504 -103.43,0 0,95.4724 C 404.141,83.5391 374.77,55.3711 339.57,37.25 304.34,19.1211 261.328,10.0586 210.512,10.0586 146.129,10.0586 94.9219,28.0703 56.9102,64.1211 18.8711,100.262 -0.121094,148.699 -0.121094,209.441 c 0,70.7 23.640594,124.059 70.941394,160 47.3787,35.93 118.0507,53.899 212.0317,53.899 l 144.847,0 0,10 c 0,47.582 -15.629,84.379 -46.879,110.32 -31.25,26.012 -75.121,39.059 -131.558,39.059 -35.942,0 -70.942,-4.34 -105,-12.969 -34.063,-8.551 -66.8401,-21.41 -98.2815,-38.59 l 0,95.461 c 37.8086,14.578 74.4495,25.508 109.9995,32.82 35.622,7.258 70.231,10.93 103.899,10.93 90.941,0 158.832,-23.59 203.75,-70.781 45,-47.18 67.5,-118.711 67.5,-214.531 z m -325.149,492.972 114.68,0 0,-115.16 -114.68,0 0,115.16 z m -105.628,145.159 335.937,0 0,-83.131 -335.937,0 0,83.131 z"
         inkscape:connector-curvature="0"
         id="path14"
         style="fill:#000000;fill-opacity:1;fill-rule:nonzero;stroke:none" /></g></g></svg>