<?xml version="1.0" encoding="UTF-8" standalone="no"?>
<!-- Created with Inkscape (http://www.inkscape.org/) -->

<svg
   xmlns:dc="http://purl.org/dc/elements/1.1/"
   xmlns:cc="http://creativecommons.org/ns#"
   xmlns:rdf="http://www.w3.org/1999/02/22-rdf-syntax-ns#"
   xmlns:svg="http://www.w3.org/2000/svg"
   xmlns="http://www.w3.org/2000/svg"
   xmlns:inkscape="http://www.inkscape.org/namespaces/inkscape"
   version="1.1"
   width="77.5"
   height="143.75"
   id="svg2"
   xml:space="preserve"><metadata
     id="metadata8"><rdf:RDF><cc:Work
         rdf:about=""><dc:format>image/svg+xml</dc:format><dc:type
           rdf:resource="http://purl.org/dc/dcmitype/StillImage" /></cc:Work></rdf:RDF></metadata><defs
     id="defs6" /><g
     transform="matrix(1.25,0,0,-1.25,0,143.75)"
     id="g10"><g
       transform="scale(0.1,0.1)"
       id="g12"><path
         d="m 321.02,1018.86 -32.04,30.94 c -8.242,7.5 -15.46,13 -21.71,16.56 -6.18,3.52 -11.68,5.31 -16.571,5.31 -14.179,0 -24.648,-6.83 -31.398,-20.47 -6.801,-13.67 -10.551,-35.86 -11.25,-66.559 l -70.16,0 c 0.699,50.509 10.629,89.529 29.687,117.029 19.141,27.58 45.781,41.41 79.844,41.41 14.137,0 27.226,-2.66 39.219,-7.97 11.949,-5.23 24.879,-14.02 38.75,-26.41 l 32.031,-30.78 c 8.199,-7.5 15.387,-13.04 21.558,-16.56 6.25,-3.56 11.801,-5.31 16.719,-5.31 14.141,0 24.61,6.79 31.41,20.47 6.762,13.63 10.512,35.82 11.25,66.56 l 70.161,0 c -0.75,-50.55 -10.711,-89.61 -29.848,-117.19 -19.063,-27.499 -45.621,-41.249 -79.692,-41.249 -14.179,0 -27.261,2.578 -39.21,7.808 -12,5.321 -24.93,14.101 -38.75,26.411 z M 335.699,191.199 C 306.52,116.32 278.09,67.4492 250.391,44.6406 222.66,21.8281 185.59,10.4219 139.141,10.4219 l -82.5004,0 0,86.4062 60.6294,0 c 28.429,0 50.5,6.8009 66.25,20.3129 15.699,13.437 33.16,45.269 52.339,95.468 l 18.442,47.192 -254.379125,618.75 109.527125,0 196.571,-491.879 196.558,491.879 109.371,0 -276.25,-687.352 z"
         inkscape:connector-curvature="0"
         id="path14"
         style="fill:#000000;fill-opacity:1;fill-rule:nonzero;stroke:none" /></g></g></svg>