<?xml version="1.0" encoding="UTF-8" standalone="no"?>
<!-- Created with Inkscape (http://www.inkscape.org/) -->

<svg
   xmlns:dc="http://purl.org/dc/elements/1.1/"
   xmlns:cc="http://creativecommons.org/ns#"
   xmlns:rdf="http://www.w3.org/1999/02/22-rdf-syntax-ns#"
   xmlns:svg="http://www.w3.org/2000/svg"
   xmlns="http://www.w3.org/2000/svg"
   xmlns:inkscape="http://www.inkscape.org/namespaces/inkscape"
   version="1.1"
   width="81.25"
   height="146.25"
   id="svg2"
   xml:space="preserve"><metadata
     id="metadata8"><rdf:RDF><cc:Work
         rdf:about=""><dc:format>image/svg+xml</dc:format><dc:type
           rdf:resource="http://purl.org/dc/dcmitype/StillImage" /></cc:Work></rdf:RDF></metadata><defs
     id="defs6" /><g
     transform="matrix(1.25,0,0,-1.25,0,146.25)"
     id="g10"><g
       transform="scale(0.1,0.1)"
       id="g12"><path
         d="m -0.121094,864.59 113.910094,0 0,-509.219 c 0,-89.922 16.289,-154.609 48.91,-194.07 32.571,-39.492 85.352,-59.211 158.281,-59.211 72.692,0 125.309,19.719 157.809,59.211 32.582,39.461 48.91,104.148 48.91,194.07 l 0,509.219 113.903,0 0,-523.289 C 641.602,232.012 614.57,149.469 560.512,93.6484 506.449,37.9102 426.602,10.0508 320.98,10.0508 215.039,10.0508 135.039,37.9102 80.9805,93.6484 26.9102,149.469 -0.121094,232.012 -0.121094,341.301 l 0,523.289 z M 209.57,1139.27 c 41.879,19.07 82.418,28.6 121.719,28.6 38.941,0 70.313,-7.97 94.063,-23.91 23.828,-15.86 35.777,-36.33 35.777,-61.41 0,-22.81 -16.52,-46.4 -49.527,-70.78 L 386.91,993.801 c -13.121,-9.68 -20.43,-16.25 -21.871,-19.68 -2.617,-5.941 -3.91,-14.922 -3.91,-26.883 l -66.867,0 0,6.723 c 0,15 2.808,27.539 8.437,37.66 5.621,10.079 17.961,22.069 37.031,35.929 l 25.309,19.07 c 17.191,12.69 25.781,26.56 25.781,41.56 0,7.81 -5.781,15.08 -17.34,21.87 -11.57,6.76 -30.71,10.16 -57.351,10.16 -33.668,0 -69.18,-9.76 -106.559,-29.22 l 0,48.28 z"
         inkscape:connector-curvature="0"
         id="path14"
         style="fill:#000000;fill-opacity:1;fill-rule:nonzero;stroke:none" /></g></g></svg>