<?xml version="1.0" encoding="UTF-8" standalone="no"?>
<!-- Created with Inkscape (http://www.inkscape.org/) -->

<svg
   xmlns:dc="http://purl.org/dc/elements/1.1/"
   xmlns:cc="http://creativecommons.org/ns#"
   xmlns:rdf="http://www.w3.org/1999/02/22-rdf-syntax-ns#"
   xmlns:svg="http://www.w3.org/2000/svg"
   xmlns="http://www.w3.org/2000/svg"
   xmlns:inkscape="http://www.inkscape.org/namespaces/inkscape"
   version="1.1"
   width="66.25"
   height="133.75"
   id="svg2"
   xml:space="preserve"><metadata
     id="metadata8"><rdf:RDF><cc:Work
         rdf:about=""><dc:format>image/svg+xml</dc:format><dc:type
           rdf:resource="http://purl.org/dc/dcmitype/StillImage" /></cc:Work></rdf:RDF></metadata><defs
     id="defs6" /><g
     transform="matrix(1.25,0,0,-1.25,0,133.75)"
     id="g10"><g
       transform="scale(0.1,0.1)"
       id="g12"><path
         d="m -3.82813,1063.73 103.27733,0 0,-130.781 -103.27733,0 0,130.781 z M 527.578,389.52 l 0,-379.53953 -103.277,0 0,376.24953 c 0,59.461 -11.641,103.989 -34.852,133.598 -23.121,29.57 -57.929,44.371 -104.371,44.371 -55.859,0 -99.848,-17.808 -132.027,-53.429 C 120.859,475.219 104.77,426.781 104.77,365.449 l 0,-355.46853 -103.910625,0 0,873.74953 103.910625,0 0,-342.5 c 24.679,37.821 53.781,66.02 87.339,84.692 33.512,18.75 72.192,28.129 115.942,28.129 72.258,0 126.91,-22.43 163.898,-67.192 37.071,-44.687 55.629,-110.468 55.629,-197.339 z"
         inkscape:connector-curvature="0"
         id="path14"
         style="fill:#000000;fill-opacity:1;fill-rule:nonzero;stroke:none" /></g></g></svg>