<?xml version="1.0" encoding="UTF-8" standalone="no"?>
<!-- Created with Inkscape (http://www.inkscape.org/) -->

<svg
   xmlns:dc="http://purl.org/dc/elements/1.1/"
   xmlns:cc="http://creativecommons.org/ns#"
   xmlns:rdf="http://www.w3.org/1999/02/22-rdf-syntax-ns#"
   xmlns:svg="http://www.w3.org/2000/svg"
   xmlns="http://www.w3.org/2000/svg"
   xmlns:inkscape="http://www.inkscape.org/namespaces/inkscape"
   version="1.1"
   width="88.75"
   height="133.75"
   id="svg2"
   xml:space="preserve"><metadata
     id="metadata8"><rdf:RDF><cc:Work
         rdf:about=""><dc:format>image/svg+xml</dc:format><dc:type
           rdf:resource="http://purl.org/dc/dcmitype/StillImage" /></cc:Work></rdf:RDF></metadata><defs
     id="defs6" /><g
     transform="matrix(1.25,0,0,-1.25,0,133.75)"
     id="g10"><g
       transform="scale(0.1,0.1)"
       id="g12"><path
         d="m 256.641,141.16 103.281,0 0,-131.39828 -103.281,0 0,131.39828 z m -143.442,824.379 0,-651.879 137.031,0 c 115.711,0 200.391,26.18 254.071,78.602 53.75,52.379 80.621,135.078 80.621,248.117 0,112.269 -26.871,194.531 -80.621,246.723 -53.68,52.269 -138.36,78.437 -254.071,78.437 l -137.031,0 z m -113.429469,93.121 233.121469,0 c 162.379,0 281.597,-33.82 357.66,-101.398 76.008,-67.5 114.058,-173.133 114.058,-316.883 0,-144.488 -38.238,-250.617 -114.687,-318.43 -76.371,-67.738 -195.391,-101.57 -357.031,-101.57 l -233.121469,0 0,838.281 z"
         inkscape:connector-curvature="0"
         id="path14"
         style="fill:#000000;fill-opacity:1;fill-rule:nonzero;stroke:none" /></g></g></svg>