<?xml version="1.0" encoding="UTF-8" standalone="no"?>
<!-- Created with Inkscape (http://www.inkscape.org/) -->

<svg
   xmlns:dc="http://purl.org/dc/elements/1.1/"
   xmlns:cc="http://creativecommons.org/ns#"
   xmlns:rdf="http://www.w3.org/1999/02/22-rdf-syntax-ns#"
   xmlns:svg="http://www.w3.org/2000/svg"
   xmlns="http://www.w3.org/2000/svg"
   xmlns:inkscape="http://www.inkscape.org/namespaces/inkscape"
   version="1.1"
   width="77.5"
   height="148.75"
   id="svg2"
   xml:space="preserve"><metadata
     id="metadata8"><rdf:RDF><cc:Work
         rdf:about=""><dc:format>image/svg+xml</dc:format><dc:type
           rdf:resource="http://purl.org/dc/dcmitype/StillImage" /></cc:Work></rdf:RDF></metadata><defs
     id="defs6" /><g
     transform="matrix(1.25,0,0,-1.25,0,148.75)"
     id="g10"><g
       transform="scale(0.1,0.1)"
       id="g12"><path
         d="M 335.699,191.199 C 306.52,116.32 278.09,67.4492 250.391,44.6406 222.66,21.8281 185.59,10.4219 139.141,10.4219 l -82.5004,0 0,86.4062 60.6294,0 c 28.429,0 50.5,6.8009 66.25,20.3129 15.699,13.437 33.16,45.269 52.339,95.468 l 18.442,47.192 -254.379125,618.75 109.527125,0 196.571,-491.879 196.558,491.879 109.371,0 -276.25,-687.352 z M 195.391,1152.61 c 41.879,19.06 82.418,28.59 121.718,28.59 38.942,0 70.313,-7.97 94.063,-23.9 23.828,-15.86 35.777,-36.33 35.777,-61.41 0,-22.81 -16.519,-46.41 -49.527,-70.78 l -24.692,-17.97 c -13.121,-9.691 -20.429,-16.249 -21.871,-19.691 -2.621,-5.929 -3.91,-14.918 -3.91,-26.871 l -66.871,0 0,6.723 c 0,15 2.813,27.539 8.442,37.649 5.621,10.08 17.96,22.07 37.031,35.94 l 25.308,19.06 c 17.192,12.7 25.782,26.57 25.782,41.57 0,7.81 -5.782,15.07 -17.34,21.87 -11.571,6.76 -30.711,10.16 -57.352,10.16 -33.668,0 -69.179,-9.77 -106.558,-29.22 l 0,48.28 z"
         inkscape:connector-curvature="0"
         id="path14"
         style="fill:#000000;fill-opacity:1;fill-rule:nonzero;stroke:none" /></g></g></svg>