<?xml version="1.0" encoding="UTF-8" standalone="no"?>
<!-- Created with Inkscape (http://www.inkscape.org/) -->

<svg
   xmlns:dc="http://purl.org/dc/elements/1.1/"
   xmlns:cc="http://creativecommons.org/ns#"
   xmlns:rdf="http://www.w3.org/1999/02/22-rdf-syntax-ns#"
   xmlns:svg="http://www.w3.org/2000/svg"
   xmlns="http://www.w3.org/2000/svg"
   xmlns:inkscape="http://www.inkscape.org/namespaces/inkscape"
   version="1.1"
   width="77.5"
   height="158.75"
   id="svg2"
   xml:space="preserve"><metadata
     id="metadata8"><rdf:RDF><cc:Work
         rdf:about=""><dc:format>image/svg+xml</dc:format><dc:type
           rdf:resource="http://purl.org/dc/dcmitype/StillImage" /></cc:Work></rdf:RDF></metadata><defs
     id="defs6" /><g
     transform="matrix(1.25,0,0,-1.25,0,158.75)"
     id="g10"><g
       transform="scale(0.1,0.1)"
       id="g12"><path
         d="M 335.699,191.199 C 306.52,116.309 278.09,67.4492 250.391,44.6289 222.66,21.8203 185.59,10.4102 139.141,10.4102 l -82.5004,0 0,86.4101 60.6294,0 c 28.429,0 50.5,6.8007 66.25,20.3087 15.699,13.441 33.16,45.281 52.339,95.473 l 18.442,47.187 -254.379125,618.75 109.527125,0 196.571,-491.879 196.558,491.879 109.371,0 -276.25,-687.34 z m 72.821,914.211 c 0,23.52 -8.25,43.52 -24.692,60 -16.488,16.57 -36.68,24.85 -60.629,24.85 -24.371,0 -44.679,-8.21 -60.929,-24.53 -16.25,-16.25 -24.379,-36.37 -24.379,-60.32 0,-24.37 8.129,-44.68 24.379,-60.93 16.25,-16.25 36.558,-24.38 60.929,-24.38 23.949,0 44.141,8.2 60.629,24.69 16.442,16.44 24.692,36.64 24.692,60.62 z m 68.589,0 c 0,-43.04 -14.918,-79.53 -44.687,-109.531 -29.801,-29.918 -66.211,-44.84 -109.223,-44.84 -43.039,0 -79.449,14.922 -109.219,44.84 -29.8,30.001 -44.679,66.491 -44.679,109.531 0,43.01 14.879,79.42 44.679,109.22 29.77,29.77 66.18,44.69 109.219,44.69 43.012,0 79.422,-14.92 109.223,-44.69 29.769,-29.8 44.687,-66.21 44.687,-109.22 z"
         inkscape:connector-curvature="0"
         id="path14"
         style="fill:#000000;fill-opacity:1;fill-rule:nonzero;stroke:none" /></g></g></svg>