<?xml version="1.0" encoding="UTF-8" standalone="no"?>
<!-- Created with Inkscape (http://www.inkscape.org/) -->

<svg
   xmlns:dc="http://purl.org/dc/elements/1.1/"
   xmlns:cc="http://creativecommons.org/ns#"
   xmlns:rdf="http://www.w3.org/1999/02/22-rdf-syntax-ns#"
   xmlns:svg="http://www.w3.org/2000/svg"
   xmlns="http://www.w3.org/2000/svg"
   xmlns:inkscape="http://www.inkscape.org/namespaces/inkscape"
   version="1.1"
   width="68.75"
   height="135"
   id="svg2"
   xml:space="preserve"><metadata
     id="metadata8"><rdf:RDF><cc:Work
         rdf:about=""><dc:format>image/svg+xml</dc:format><dc:type
           rdf:resource="http://purl.org/dc/dcmitype/StillImage" /></cc:Work></rdf:RDF></metadata><defs
     id="defs6" /><g
     transform="matrix(1.25,0,0,-1.25,0,135)"
     id="g10"><g
       transform="scale(0.1,0.1)"
       id="g12"><path
         d="m 257.27,970.801 -32.04,18.429 c -9.371,5.321 -16.992,8.95 -22.808,10.94 -5.742,2.07 -10.902,3.13 -15.473,3.13 -13.429,0 -23.898,-4.691 -31.398,-14.07 -7.5,-9.289 -11.25,-22.339 -11.25,-39.21 l 0,-3.442 -70.1604,0 c 0,37.813 9.6094,67.732 28.9104,89.842 19.25,22.07 45,33.13 77.179,33.13 13.52,0 25.981,-1.53 37.348,-4.53 11.442,-2.93 26.133,-9.46 44.063,-19.54 l 32.031,-16.87 c 8.629,-4.92 16.129,-8.52 22.5,-10.78 6.328,-2.19 12.348,-3.28 17.969,-3.28 11.949,0 21.718,4.72 29.218,14.22 7.5,9.57 11.25,22.07 11.25,37.5 l 0,3.28 70.161,0 c -0.75,-37.42 -10.75,-67.27 -30,-89.53 -19.301,-22.309 -44.649,-33.442 -76.098,-33.442 -12.731,0 -24.652,1.481 -35.781,4.531 -11.051,3.012 -26.25,9.571 -45.621,19.692 z m -257.500469,-122.5 530.152469,0 0,-95.321 -416.723,0 0,-248.281 399.223,0 0,-95.469 -399.223,0 0,-303.75 426.879,0 0,-95.4605 -540.308469,0 0,838.2815 z"
         inkscape:connector-curvature="0"
         id="path14"
         style="fill:#000000;fill-opacity:1;fill-rule:nonzero;stroke:none" /></g></g></svg>