<?xml version="1.0" encoding="UTF-8" standalone="no"?>
<!-- Created with Inkscape (http://www.inkscape.org/) -->

<svg
   xmlns:dc="http://purl.org/dc/elements/1.1/"
   xmlns:cc="http://creativecommons.org/ns#"
   xmlns:rdf="http://www.w3.org/1999/02/22-rdf-syntax-ns#"
   xmlns:svg="http://www.w3.org/2000/svg"
   xmlns="http://www.w3.org/2000/svg"
   xmlns:inkscape="http://www.inkscape.org/namespaces/inkscape"
   version="1.1"
   width="103.75"
   height="137.5"
   id="svg2"
   xml:space="preserve"><metadata
     id="metadata8"><rdf:RDF><cc:Work
         rdf:about=""><dc:format>image/svg+xml</dc:format><dc:type
           rdf:resource="http://purl.org/dc/dcmitype/StillImage" /></cc:Work></rdf:RDF></metadata><defs
     id="defs6" /><g
     transform="matrix(1.25,0,0,-1.25,0,137.5)"
     id="g10"><g
       transform="scale(0.1,0.1)"
       id="g12"><path
         d="m 2.69922,1069.23 113.90278,0 0,-509.21 c 0,-89.93 16.289,-154.61 48.91,-194.071 32.578,-39.488 85.347,-59.219 158.277,-59.219 72.691,0 125.313,19.731 157.813,59.219 32.578,39.461 48.91,104.141 48.91,194.071 l 0,509.21 113.898,0 0,-523.281 c 0,-109.289 -27.031,-191.828 -81.09,-247.648 -54.058,-55.75 -133.91,-83.602 -239.531,-83.602 -105.937,0 -185.937,27.852 -239.9999,83.602 C 29.7305,354.121 2.69922,436.66 2.69922,545.949 l 0,523.281 z M 599.879,942.98 l 0,66.72 c 22.891,-16.79 42.582,-29.22 59.07,-37.341 16.442,-8.05 30.461,-12.031 42.031,-12.031 17.258,0 30.192,5.152 38.75,15.473 8.629,10.308 12.969,25.539 12.969,45.779 0,11.95 -1.41,23.75 -4.219,35.31 -2.82,11.64 -7.031,23.28 -12.66,34.84 l 74.692,0 c 3.75,-14.29 6.558,-27.77 8.437,-40.46 1.871,-12.74 2.813,-24.69 2.813,-35.94 0,-45.631 -8.211,-79.221 -24.532,-100.779 -16.25,-21.492 -41.8,-32.192 -76.57,-32.192 -17.93,0 -36.711,4.922 -56.398,14.84 -19.692,9.891 -41.172,25.16 -64.383,45.781 z m -327.5,-801.25 103.281,0 0,-131.4019 -103.281,0 0,131.4019 z"
         inkscape:connector-curvature="0"
         id="path14"
         style="fill:#000000;fill-opacity:1;fill-rule:nonzero;stroke:none" /></g></g></svg>