<?xml version="1.0" encoding="UTF-8" standalone="no"?>
<!-- Created with Inkscape (http://www.inkscape.org/) -->

<svg
   xmlns:dc="http://purl.org/dc/elements/1.1/"
   xmlns:cc="http://creativecommons.org/ns#"
   xmlns:rdf="http://www.w3.org/1999/02/22-rdf-syntax-ns#"
   xmlns:svg="http://www.w3.org/2000/svg"
   xmlns="http://www.w3.org/2000/svg"
   xmlns:inkscape="http://www.inkscape.org/namespaces/inkscape"
   version="1.1"
   width="67.5"
   height="120"
   id="svg2"
   xml:space="preserve"><metadata
     id="metadata8"><rdf:RDF><cc:Work
         rdf:about=""><dc:format>image/svg+xml</dc:format><dc:type
           rdf:resource="http://purl.org/dc/dcmitype/StillImage" /></cc:Work></rdf:RDF></metadata><defs
     id="defs6" /><g
     transform="matrix(1.25,0,0,-1.25,0,120)"
     id="g10"><g
       transform="scale(0.1,0.1)"
       id="g12"><path
         d="m 325.039,342.391 c -83.559,0 -141.41,-9.532 -173.59,-28.59 -32.187,-19.071 -48.289,-51.641 -48.289,-97.66 0,-36.68 12.07,-65.782 36.25,-87.34 24.141,-21.571 57.039,-32.3518 98.602,-32.3518 57.258,0 103.199,20.3208 137.808,60.9418 34.571,40.629 51.879,94.609 51.879,162.031 l 0,22.969 -102.66,0 z m 206.09,42.66 0,-358.7502 -103.43,0 0,95.4692 C 404.141,83.5195 374.77,55.3594 339.57,37.2305 304.34,19.1094 261.328,10.0508 210.512,10.0508 c -64.383,0 -115.5901,18 -153.6018,54.0586 C 18.8711,100.238 -0.121094,148.68 -0.121094,209.422 c 0,70.699 23.640594,124.058 70.941394,160 47.3787,35.937 118.0507,53.906 212.0317,53.906 l 144.847,0 0,10 c 0,47.582 -15.629,84.371 -46.879,110.313 -31.25,26.019 -75.121,39.058 -131.558,39.058 -35.942,0 -70.942,-4.328 -105,-12.969 -34.063,-8.55 -66.8401,-21.402 -98.2815,-38.589 l 0,95.468 c 37.8086,14.571 74.4495,25.512 109.9995,32.813 35.622,7.269 70.231,10.937 103.899,10.937 90.941,0 158.832,-23.589 203.75,-70.781 45,-47.187 67.5,-118.707 67.5,-214.527 z M 150.512,929.27 c 41.867,19.058 82.418,28.589 121.718,28.589 38.942,0 70.309,-7.968 94.059,-23.91 23.832,-15.859 35.781,-36.328 35.781,-61.398 0,-22.821 -16.519,-46.41 -49.531,-70.781 l -24.687,-17.969 c -13.122,-9.692 -20.43,-16.25 -21.872,-19.692 -2.621,-5.937 -3.91,-14.918 -3.91,-26.879 l -66.871,0 0,6.719 c 0,15 2.813,27.539 8.43,37.66 5.633,10.082 17.973,22.071 37.031,35.942 l 25.32,19.058 c 17.18,12.692 25.782,26.563 25.782,41.563 0,7.808 -5.782,15.078 -17.352,21.879 -11.558,6.75 -30.699,10.148 -57.34,10.148 -33.672,0 -69.179,-9.758 -106.558,-29.219 l 0,48.29 z"
         inkscape:connector-curvature="0"
         id="path14"
         style="fill:#000000;fill-opacity:1;fill-rule:nonzero;stroke:none" /></g></g></svg>