<?xml version="1.0" encoding="UTF-8" standalone="no"?>
<!-- Created with Inkscape (http://www.inkscape.org/) -->

<svg
   xmlns:dc="http://purl.org/dc/elements/1.1/"
   xmlns:cc="http://creativecommons.org/ns#"
   xmlns:rdf="http://www.w3.org/1999/02/22-rdf-syntax-ns#"
   xmlns:svg="http://www.w3.org/2000/svg"
   xmlns="http://www.w3.org/2000/svg"
   xmlns:inkscape="http://www.inkscape.org/namespaces/inkscape"
   version="1.1"
   width="88.75"
   height="145"
   id="svg2"
   xml:space="preserve"><metadata
     id="metadata8"><rdf:RDF><cc:Work
         rdf:about=""><dc:format>image/svg+xml</dc:format><dc:type
           rdf:resource="http://purl.org/dc/dcmitype/StillImage" /></cc:Work></rdf:RDF></metadata><defs
     id="defs6" /><g
     transform="matrix(1.25,0,0,-1.25,0,145)"
     id="g10"><g
       transform="scale(0.1,0.1)"
       id="g12"><path
         d="m 0.078125,848.27 121.722875,0 232.5,-344.692 230.777,344.692 121.871,0 -296.398,-439.071 0,-399.21853 -114.071,0 0,399.21853 L 0.078125,848.27 z M 241.949,1122.95 c 41.879,19.07 82.43,28.6 121.723,28.6 38.949,0 70.308,-7.97 94.058,-23.91 23.829,-15.86 35.79,-36.33 35.79,-61.41 0,-22.81 -16.532,-46.4 -49.54,-70.781 L 419.301,977.48 c -13.129,-9.679 -20.43,-16.25 -21.879,-19.679 -2.621,-5.942 -3.902,-14.93 -3.902,-26.879 l -66.879,0 0,6.719 c 0,15 2.808,27.539 8.437,37.66 5.621,10.07 17.973,22.07 37.031,35.929 l 25.313,19.07 c 17.187,12.69 25.777,26.56 25.777,41.56 0,7.81 -5.777,15.08 -17.34,21.87 -11.558,6.76 -30.699,10.16 -57.339,10.16 -33.68,0 -69.18,-9.77 -106.571,-29.22 l 0,48.28 z"
         inkscape:connector-curvature="0"
         id="path14"
         style="fill:#000000;fill-opacity:1;fill-rule:nonzero;stroke:none" /></g></g></svg>