<?xml version="1.0" encoding="UTF-8" standalone="no"?>
<!-- Created with Inkscape (http://www.inkscape.org/) -->

<svg
   xmlns:dc="http://purl.org/dc/elements/1.1/"
   xmlns:cc="http://creativecommons.org/ns#"
   xmlns:rdf="http://www.w3.org/1999/02/22-rdf-syntax-ns#"
   xmlns:svg="http://www.w3.org/2000/svg"
   xmlns="http://www.w3.org/2000/svg"
   xmlns:inkscape="http://www.inkscape.org/namespaces/inkscape"
   version="1.1"
   width="78.75"
   height="138.75"
   id="svg2"
   xml:space="preserve"><metadata
     id="metadata8"><rdf:RDF><cc:Work
         rdf:about=""><dc:format>image/svg+xml</dc:format><dc:type
           rdf:resource="http://purl.org/dc/dcmitype/StillImage" /></cc:Work></rdf:RDF></metadata><defs
     id="defs6" /><g
     transform="matrix(1.25,0,0,-1.25,0,138.75)"
     id="g10"><g
       transform="scale(0.1,0.1)"
       id="g12"><path
         d="m 629.961,612.301 0,-379.531 -103.281,0 0,376.25 c 0,59.449 -11.641,103.98 -34.84,133.589 -23.129,29.571 -57.93,44.371 -104.379,44.371 -55.859,0 -99.84,-17.808 -132.031,-53.429 C 223.238,698 207.148,649.559 207.148,588.23 l 0,-355.46 -103.91,0 0,873.75 103.91,0 0,-342.5 c 24.692,37.808 53.793,66.011 87.34,84.679 33.524,18.75 72.192,28.129 115.942,28.129 72.269,0 126.91,-22.418 163.91,-67.187 37.07,-44.692 55.621,-110.469 55.621,-197.34 z M 173.551,232.77 c 20.629,-23.211 35.98,-44.61 46.097,-64.219 10.082,-19.692 15.153,-38.52 15.153,-56.571 0,-33.3198 -11.25,-58.4683 -33.75,-75.4605 -22.5,-17.0703 -55.852,-25.6289 -100,-25.6289 -17.1799,0 -33.9807,1.168 -50.3127,3.4375 -16.25,2.3008 -32.418,5.7032 -48.43752,10.1524 l 0,73.4414 C 15,91.5898 28.2813,86.9805 42.1484,84.1719 c 13.8321,-2.8125 29.5704,-4.2227 47.1914,-4.2227 22.0702,0 38.6722,4.5313 49.8402,13.6016 11.25,8.9802 16.871,22.0272 16.871,39.2192 0,11.25 -4.02,25.07 -12.031,41.402 -8.04,16.25 -20.469,35.777 -37.34,58.598 l 66.871,0 z"
         inkscape:connector-curvature="0"
         id="path14"
         style="fill:#000000;fill-opacity:1;fill-rule:nonzero;stroke:none" /></g></g></svg>