<?xml version="1.0" encoding="UTF-8" standalone="no"?>
<!-- Created with Inkscape (http://www.inkscape.org/) -->

<svg
   xmlns:dc="http://purl.org/dc/elements/1.1/"
   xmlns:cc="http://creativecommons.org/ns#"
   xmlns:rdf="http://www.w3.org/1999/02/22-rdf-syntax-ns#"
   xmlns:svg="http://www.w3.org/2000/svg"
   xmlns="http://www.w3.org/2000/svg"
   xmlns:inkscape="http://www.inkscape.org/namespaces/inkscape"
   version="1.1"
   width="66.25"
   height="146.25"
   id="svg2"
   xml:space="preserve"><metadata
     id="metadata8"><rdf:RDF><cc:Work
         rdf:about=""><dc:format>image/svg+xml</dc:format><dc:type
           rdf:resource="http://purl.org/dc/dcmitype/StillImage" /></cc:Work></rdf:RDF></metadata><defs
     id="defs6" /><g
     transform="matrix(1.25,0,0,-1.25,0,146.25)"
     id="g10"><g
       transform="scale(0.1,0.1)"
       id="g12"><path
         d="m 257.422,795.539 -32.031,30.941 c -8.243,7.5 -15.469,13 -21.719,16.559 -6.172,3.512 -11.684,5.313 -16.563,5.313 -14.179,0 -24.648,-6.832 -31.41,-20.473 -6.789,-13.668 -10.539,-35.859 -11.25,-66.559 l -70.1482,0 C 75,811.828 84.9219,850.852 103.98,878.352 c 19.141,27.578 45.79,41.41 79.848,41.41 14.141,0 27.223,-2.66 39.223,-7.973 11.949,-5.238 24.879,-14.019 38.75,-26.41 l 32.027,-30.777 c 8.203,-7.5 15.391,-13.051 21.563,-16.563 6.25,-3.559 11.8,-5.309 16.718,-5.309 14.141,0 24.61,6.79 31.411,20.469 6.75,13.629 10.5,35.821 11.25,66.563 l 70.152,0 c -0.742,-50.551 -10.703,-89.614 -29.844,-117.192 -19.058,-27.5 -45.629,-41.25 -79.687,-41.25 -14.18,0 -27.27,2.578 -39.219,7.809 -11.992,5.32 -24.922,14.101 -38.75,26.41 z m -257.652469,-521.09 0,380.781 103.429469,0 0,-376.718 c 0,-59.614 11.571,-104.301 34.692,-134.063 23.199,-29.687 58.05,-44.5388 104.531,-44.5388 55.699,0 99.769,17.7378 132.187,53.2888 32.379,35.621 48.59,84.102 48.59,145.461 l 0,356.57 103.281,0 0,-628.9097 -103.281,0 0,96.5587 C 398.09,84.7617 368.98,56.3984 335.859,37.8789 302.73,19.3711 264.301,10.0703 220.551,10.0703 148.238,10.0703 93.3594,32.4883 55.8594,77.4102 18.4414,122.301 -0.230469,187.961 -0.230469,274.449 z M 347.73,1166.16 l 111.719,0 -183.121,-211.25 -85.937,0 157.339,211.25 z"
         inkscape:connector-curvature="0"
         id="path14"
         style="fill:#000000;fill-opacity:1;fill-rule:nonzero;stroke:none" /></g></g></svg>