<?xml version="1.0" encoding="UTF-8" standalone="no"?>
<!-- Created with Inkscape (http://www.inkscape.org/) -->

<svg
   xmlns:dc="http://purl.org/dc/elements/1.1/"
   xmlns:cc="http://creativecommons.org/ns#"
   xmlns:rdf="http://www.w3.org/1999/02/22-rdf-syntax-ns#"
   xmlns:svg="http://www.w3.org/2000/svg"
   xmlns="http://www.w3.org/2000/svg"
   xmlns:inkscape="http://www.inkscape.org/namespaces/inkscape"
   version="1.1"
   width="72.5"
   height="120"
   id="svg2"
   xml:space="preserve"><metadata
     id="metadata8"><rdf:RDF><cc:Work
         rdf:about=""><dc:format>image/svg+xml</dc:format><dc:type
           rdf:resource="http://purl.org/dc/dcmitype/StillImage" /></cc:Work></rdf:RDF></metadata><defs
     id="defs6" /><g
     transform="matrix(1.25,0,0,-1.25,0,120)"
     id="g10"><g
       transform="scale(0.1,0.1)"
       id="g12"><path
         d="m 288.48,582.699 c -55.429,0 -99.218,-21.64 -131.41,-64.84 -32.191,-43.238 -48.281,-102.461 -48.281,-177.66 0,-75.23 15.981,-134.488 47.973,-177.808 32.066,-43.243 75.968,-64.8402 131.718,-64.8402 55.071,0 98.75,21.7192 130.93,65.1482 32.192,43.442 48.289,102.582 48.289,177.5 0,74.461 -16.097,133.481 -48.289,177.031 -32.18,43.641 -75.859,65.469 -130.93,65.469 z m 0,87.66 c 89.879,0 160.469,-29.218 211.719,-87.66 51.25,-58.359 76.871,-139.179 76.871,-242.5 0,-102.929 -25.621,-183.711 -76.871,-242.3396 -51.25,-58.5586 -121.84,-87.8086 -211.719,-87.8086 -90.242,0 -160.902,29.25 -212.0308,87.8086 C 25.3906,156.488 -0.121094,237.27 -0.121094,340.199 c 0,103.321 25.511694,184.141 76.570294,242.5 51.1288,58.442 121.7888,87.66 212.0308,87.66 z M 186.129,929.27 c 41.883,19.058 82.422,28.589 121.723,28.589 38.949,0 70.308,-7.968 94.058,-23.91 23.828,-15.859 35.789,-36.328 35.789,-61.398 0,-22.821 -16.527,-46.41 -49.539,-70.781 l -24.68,-17.969 c -13.128,-9.692 -20.429,-16.25 -21.878,-19.692 -2.622,-5.937 -3.903,-14.918 -3.903,-26.879 l -66.879,0 0,6.719 c 0,15 2.809,27.539 8.442,37.66 5.617,10.082 17.968,22.071 37.027,35.942 l 25.313,19.058 c 17.187,12.692 25.777,26.563 25.777,41.563 0,7.808 -5.777,15.078 -17.34,21.879 -11.559,6.75 -30.699,10.148 -57.34,10.148 -33.679,0 -69.179,-9.758 -106.57,-29.219 l 0,48.29 z"
         inkscape:connector-curvature="0"
         id="path14"
         style="fill:#000000;fill-opacity:1;fill-rule:nonzero;stroke:none" /></g></g></svg>