<?xml version="1.0" encoding="UTF-8" standalone="no"?>
<!-- Created with Inkscape (http://www.inkscape.org/) -->

<svg
   xmlns:dc="http://purl.org/dc/elements/1.1/"
   xmlns:cc="http://creativecommons.org/ns#"
   xmlns:rdf="http://www.w3.org/1999/02/22-rdf-syntax-ns#"
   xmlns:svg="http://www.w3.org/2000/svg"
   xmlns="http://www.w3.org/2000/svg"
   xmlns:inkscape="http://www.inkscape.org/namespaces/inkscape"
   version="1.1"
   width="66.25"
   height="128.75"
   id="svg2"
   xml:space="preserve"><metadata
     id="metadata8"><rdf:RDF><cc:Work
         rdf:about=""><dc:format>image/svg+xml</dc:format><dc:type
           rdf:resource="http://purl.org/dc/dcmitype/StillImage" /></cc:Work></rdf:RDF></metadata><defs
     id="defs6" /><g
     transform="matrix(1.25,0,0,-1.25,0,128.75)"
     id="g10"><g
       transform="scale(0.1,0.1)"
       id="g12"><path
         d="m 101.641,843.191 335.937,0 0,-83.132 -335.937,0 0,83.132 z m 215.781,183.749 113.906,0 0,-114.069 -113.906,0 0,114.069 z m -219.5314,0 113.9104,0 0,-114.069 -113.9104,0 0,114.069 z m -98.121069,-752.499 0,380.778 103.429469,0 0,-376.719 c 0,-59.609 11.571,-104.301 34.692,-134.059 23.199,-29.691 58.05,-44.5308 104.531,-44.5308 55.699,0 99.769,17.7308 132.187,53.2808 32.379,35.618 48.59,84.098 48.59,145.469 l 0,356.559 103.281,0 0,-628.9104 -103.281,0 0,96.5624 C 398.09,84.75 368.98,56.3906 335.859,37.8711 302.73,19.3594 264.301,10.0586 220.551,10.0586 148.238,10.0586 93.3594,32.4805 55.8594,77.4102 18.4414,122.289 -0.230469,187.949 -0.230469,274.441 z"
         inkscape:connector-curvature="0"
         id="path14"
         style="fill:#000000;fill-opacity:1;fill-rule:nonzero;stroke:none" /></g></g></svg>