<?xml version="1.0" encoding="UTF-8" standalone="no"?>
<!-- Created with Inkscape (http://www.inkscape.org/) -->

<svg
   xmlns:dc="http://purl.org/dc/elements/1.1/"
   xmlns:cc="http://creativecommons.org/ns#"
   xmlns:rdf="http://www.w3.org/1999/02/22-rdf-syntax-ns#"
   xmlns:svg="http://www.w3.org/2000/svg"
   xmlns="http://www.w3.org/2000/svg"
   xmlns:inkscape="http://www.inkscape.org/namespaces/inkscape"
   version="1.1"
   width="75"
   height="127.5"
   id="svg2"
   xml:space="preserve"><metadata
     id="metadata8"><rdf:RDF><cc:Work
         rdf:about=""><dc:format>image/svg+xml</dc:format><dc:type
           rdf:resource="http://purl.org/dc/dcmitype/StillImage" /></cc:Work></rdf:RDF></metadata><defs
     id="defs6" /><g
     transform="matrix(1.25,0,0,-1.25,0,127.5)"
     id="g10"><g
       transform="scale(0.1,0.1)"
       id="g12"><path
         d="m 340.512,989.301 c 41.867,19.059 82.418,28.589 121.718,28.589 38.942,0 70.309,-7.97 94.059,-23.91 23.832,-15.859 35.781,-36.32 35.781,-61.402 0,-22.808 -16.519,-46.406 -49.531,-70.777 l -24.687,-17.973 c -13.122,-9.687 -20.43,-16.25 -21.872,-19.687 -2.621,-5.942 -3.91,-14.922 -3.91,-26.871 l -66.871,0 0,6.71 c 0,15 2.813,27.54 8.43,37.661 5.633,10.078 17.973,22.07 37.031,35.937 l 25.32,19.063 c 17.18,12.699 25.782,26.558 25.782,41.558 0,7.821 -5.782,15.082 -17.352,21.879 -11.558,6.762 -30.699,10.152 -57.34,10.152 -33.672,0 -69.179,-9.761 -106.558,-29.21 l 0,48.281 z m -130,-105 105.617,0 118.441,-149.379 -77.968,0 -93.282,100 -93.281,-100 -77.9687,0 118.4417,149.379 z M 325.039,342.422 c -83.559,0 -141.41,-9.531 -173.59,-28.594 -32.187,-19.058 -48.289,-51.637 -48.289,-97.656 0,-36.684 12.07,-65.781 36.25,-87.344 24.141,-21.558 57.039,-32.3475 98.602,-32.3475 57.258,0 103.199,20.3205 137.808,60.9415 34.571,40.629 51.879,94.609 51.879,162.027 l 0,22.973 -102.66,0 z m 206.09,42.656 0,-358.7499 -103.43,0 0,95.4729 C 404.141,83.5508 374.77,55.3906 339.57,37.2695 304.34,19.1406 261.328,10.0781 210.512,10.0781 146.129,10.0781 94.9219,28.0898 56.9102,64.1406 18.8711,100.27 -0.121094,148.711 -0.121094,209.449 c 0,70.711 23.640594,124.071 70.941394,160 47.3787,35.942 118.0507,53.91 212.0317,53.91 l 144.847,0 0,10 c 0,47.582 -15.629,84.371 -46.879,110.313 -31.25,26.019 -75.121,39.058 -131.558,39.058 -35.942,0 -70.942,-4.332 -105,-12.96 -34.063,-8.559 -66.8401,-21.411 -98.2815,-38.598 l 0,95.469 c 37.8086,14.57 74.4495,25.507 109.9995,32.808 35.622,7.27 70.231,10.942 103.899,10.942 90.941,0 158.832,-23.59 203.75,-70.782 45,-47.187 67.5,-118.711 67.5,-214.531 z"
         inkscape:connector-curvature="0"
         id="path14"
         style="fill:#000000;fill-opacity:1;fill-rule:nonzero;stroke:none" /></g></g></svg>