<?xml version="1.0" encoding="UTF-8" standalone="no"?>
<!-- Created with Inkscape (http://www.inkscape.org/) -->

<svg
   xmlns:dc="http://purl.org/dc/elements/1.1/"
   xmlns:cc="http://creativecommons.org/ns#"
   xmlns:rdf="http://www.w3.org/1999/02/22-rdf-syntax-ns#"
   xmlns:svg="http://www.w3.org/2000/svg"
   xmlns="http://www.w3.org/2000/svg"
   xmlns:inkscape="http://www.inkscape.org/namespaces/inkscape"
   version="1.1"
   width="73.75"
   height="136.25"
   id="svg2"
   xml:space="preserve"><metadata
     id="metadata8"><rdf:RDF><cc:Work
         rdf:about=""><dc:format>image/svg+xml</dc:format><dc:type
           rdf:resource="http://purl.org/dc/dcmitype/StillImage" /></cc:Work></rdf:RDF></metadata><defs
     id="defs6" /><g
     transform="matrix(1.25,0,0,-1.25,0,136.25)"
     id="g10"><g
       transform="scale(0.1,0.1)"
       id="g12"><path
         d="m 582.699,366.641 0,-50.621 -475,0 c 4.449,-71.059 25.852,-125.239 64.211,-162.5 38.442,-37.309 91.918,-55.9419 160.469,-55.9419 39.691,0 78.133,4.8439 115.32,14.5309 37.262,9.77 74.25,24.411 110.93,43.911 l 0,-97.6606 C 521.52,42.6211 483.52,30.6211 444.57,22.4219 405.699,14.2188 366.211,10.0781 326.129,10.0781 225.82,10.0781 146.328,39.2188 87.6992,97.5781 29.1406,156.02 -0.121094,235 -0.121094,334.609 c 0,102.891 27.742194,184.571 83.281294,245 55.6288,60.512 130.6288,90.782 224.9998,90.782 84.57,0 151.449,-27.27 200.629,-81.719 49.262,-54.492 73.91,-128.512 73.91,-222.031 z M 479.41,396.949 c -0.738,56.571 -16.558,101.641 -47.5,135.321 -30.859,33.628 -71.711,50.46 -122.648,50.46 -57.621,0 -103.75,-16.32 -138.442,-48.902 -34.609,-32.5 -54.492,-78.359 -59.691,-137.5 l 368.281,0.621 z m -109.531,686.251 103.75,0 -127.969,-148.278 -85.93,0 110.149,148.278 z M 145.98,883.199 l 335.93,0 0,-83.121 -335.93,0 0,83.121 z"
         inkscape:connector-curvature="0"
         id="path14"
         style="fill:#000000;fill-opacity:1;fill-rule:nonzero;stroke:none" /></g></g></svg>