<?xml version="1.0" encoding="UTF-8" standalone="no"?>
<!-- Created with Inkscape (http://www.inkscape.org/) -->

<svg
   xmlns:dc="http://purl.org/dc/elements/1.1/"
   xmlns:cc="http://creativecommons.org/ns#"
   xmlns:rdf="http://www.w3.org/1999/02/22-rdf-syntax-ns#"
   xmlns:svg="http://www.w3.org/2000/svg"
   xmlns="http://www.w3.org/2000/svg"
   xmlns:inkscape="http://www.inkscape.org/namespaces/inkscape"
   version="1.1"
   width="71.25"
   height="146.25"
   id="svg2"
   xml:space="preserve"><metadata
     id="metadata8"><rdf:RDF><cc:Work
         rdf:about=""><dc:format>image/svg+xml</dc:format><dc:type
           rdf:resource="http://purl.org/dc/dcmitype/StillImage" /></cc:Work></rdf:RDF></metadata><defs
     id="defs6" /><g
     transform="matrix(1.25,0,0,-1.25,0,146.25)"
     id="g10"><g
       transform="scale(0.1,0.1)"
       id="g12"><path
         d="m 458.629,571.34 c 0,74.89 -15.469,132.89 -46.399,174.07 -30.859,41.25 -74.14,61.871 -129.851,61.871 -55.43,0 -98.59,-20.621 -129.527,-61.871 -30.864,-41.18 -46.25,-99.18 -46.25,-174.07 0,-74.488 15.386,-132.34 46.25,-173.59 30.937,-41.172 74.097,-61.719 129.527,-61.719 55.711,0 98.992,20.547 129.851,61.719 30.93,41.25 46.399,99.102 46.399,173.59 z M 561.91,327.75 C 561.91,220.68 538.16,141.031 490.66,88.8398 443.16,36.5781 370.352,10.4102 272.23,10.4102 c -36.371,0 -70.628,2.7304 -102.82,8.1211 -32.18,5.4296 -63.43,13.75 -93.7498,25 l 0,100.4687 c 30.3198,-16.449 60.2378,-28.59 89.8518,-36.41 29.566,-7.8908 59.718,-11.8712 90.468,-11.8712 67.692,0 118.36,17.7302 152.032,53.1212 33.75,35.43 50.617,88.871 50.617,160.32 l 0,51.09 C 437.27,323.141 409.922,295.449 376.602,277.129 343.359,258.77 303.52,249.629 257.07,249.629 179.961,249.629 117.852,279 70.6602,337.75 23.4805,396.5 -0.121094,474.352 -0.121094,571.34 c 0,97.39 23.601594,175.469 70.781294,234.219 47.1918,58.75 109.3008,88.132 186.4098,88.132 46.45,0 86.289,-9.179 119.532,-27.5 33.32,-18.363 60.668,-46.062 82.027,-83.132 l 0,95.472 103.281,0 0,-550.781 z m -239.84,841.72 111.719,0 -183.129,-211.251 -85.93,0 157.34,211.251 z"
         inkscape:connector-curvature="0"
         id="path14"
         style="fill:#000000;fill-opacity:1;fill-rule:nonzero;stroke:none" /></g></g></svg>