<?xml version="1.0" encoding="UTF-8" standalone="no"?>
<!-- Created with Inkscape (http://www.inkscape.org/) -->

<svg
   xmlns:dc="http://purl.org/dc/elements/1.1/"
   xmlns:cc="http://creativecommons.org/ns#"
   xmlns:rdf="http://www.w3.org/1999/02/22-rdf-syntax-ns#"
   xmlns:svg="http://www.w3.org/2000/svg"
   xmlns="http://www.w3.org/2000/svg"
   xmlns:inkscape="http://www.inkscape.org/namespaces/inkscape"
   version="1.1"
   width="66.25"
   height="147.5"
   id="svg2"
   xml:space="preserve"><metadata
     id="metadata8"><rdf:RDF><cc:Work
         rdf:about=""><dc:format>image/svg+xml</dc:format><dc:type
           rdf:resource="http://purl.org/dc/dcmitype/StillImage" /></cc:Work></rdf:RDF></metadata><defs
     id="defs6" /><g
     transform="matrix(1.25,0,0,-1.25,0,147.5)"
     id="g10"><g
       transform="scale(0.1,0.1)"
       id="g12"><path
         d="m 526.48,629.16 0,-618.7498 -103.281,0 0,615.4688 c 0,59.461 -11.64,103.992 -34.84,133.601 -23.129,29.571 -57.929,44.372 -104.379,44.372 -55.859,0 -99.839,-17.813 -132.031,-53.442 -32.179,-35.539 -48.277,-83.98 -48.277,-145.308 l 0,-355.473 -103.902469,0 0,628.91 103.902469,0 0,-97.66 c 24.687,37.82 53.668,66.019 87.027,84.691 33.75,18.75 72.5,28.129 116.25,28.129 72.27,0 126.961,-22.308 164.071,-66.879 36.949,-44.922 55.46,-110.781 55.46,-197.66 z m -452.0308,454.38 0,83.12 135.7808,0 0,-88.75 -75.152,0 c 0,-58.75 25.043,-87.609 75.152,-86.558 l 0,-57.813 c -90.539,0 -135.7808,50 -135.7808,150.001 z m 336.5708,85.94 111.71,0 -183.121,-211.25 -85.937,0 157.348,211.25 z M 154.922,10.4102 l -83.1212,0 c -9.8125,0 -19.5313,6.2109 -29.2227,18.6015 -7.5,9.6875 -11.25,23.1172 -11.25,40.3086 l 0,128.5897 83.7499,0 0,-128.5897 c 0,-5.1992 1.801,-10.039 5.473,-14.5312 4.57,-4.8789 9.449,-7.3399 14.679,-7.3399 l 19.692,0 0,-37.039 z"
         inkscape:connector-curvature="0"
         id="path14"
         style="fill:#000000;fill-opacity:1;fill-rule:nonzero;stroke:none" /></g></g></svg>