<?xml version="1.0" encoding="UTF-8" standalone="no"?>
<!-- Created with Inkscape (http://www.inkscape.org/) -->

<svg
   xmlns:dc="http://purl.org/dc/elements/1.1/"
   xmlns:cc="http://creativecommons.org/ns#"
   xmlns:rdf="http://www.w3.org/1999/02/22-rdf-syntax-ns#"
   xmlns:svg="http://www.w3.org/2000/svg"
   xmlns="http://www.w3.org/2000/svg"
   xmlns:inkscape="http://www.inkscape.org/namespaces/inkscape"
   version="1.1"
   width="96.25"
   height="136.25"
   id="svg2"
   xml:space="preserve"><metadata
     id="metadata8"><rdf:RDF><cc:Work
         rdf:about=""><dc:format>image/svg+xml</dc:format><dc:type
           rdf:resource="http://purl.org/dc/dcmitype/StillImage" /></cc:Work></rdf:RDF></metadata><defs
     id="defs6" /><g
     transform="matrix(1.25,0,0,-1.25,0,136.25)"
     id="g10"><g
       transform="scale(0.1,0.1)"
       id="g12"><path
         d="m 469.449,922.961 c 0,23.629 -8.359,43.789 -25,60.469 -16.679,16.64 -36.789,25 -60.308,25 -23.981,0 -44.141,-8.2 -60.469,-24.532 -16.25,-16.25 -24.371,-36.558 -24.371,-60.937 0,-23.551 8.199,-43.551 24.679,-60 16.45,-16.481 36.489,-24.691 60.161,-24.691 23.519,0 43.629,8.21 60.308,24.691 16.641,16.449 25,36.449 25,60 z m -85.308,-186.41 -152.813,-417.18 306.094,0 -153.281,417.18 z m -84.84,57.82 c -22.821,15.391 -40.082,33.828 -51.723,55.309 -11.558,21.558 -17.348,45.98 -17.348,73.281 0,43.129 14.848,79.609 44.54,109.529 29.761,30 66.25,45 109.371,45 42.578,0 78.949,-15.11 109.058,-45.31 30.199,-30.12 45.321,-66.52 45.321,-109.219 0,-26.172 -5.899,-50.27 -17.661,-72.34 -11.8,-22.109 -28.91,-40.859 -51.41,-56.25 l 298.75,-784.38272 -117.969,0 -76.402,214.99972 -377.808,0 L 119.609,9.98828 0.078125,9.98828 299.301,794.371 z m 345.148,282.499 103.75,0 -127.969,-148.28 -85.929,0 110.148,148.28 z"
         inkscape:connector-curvature="0"
         id="path14"
         style="fill:#000000;fill-opacity:1;fill-rule:nonzero;stroke:none" /></g></g></svg>