<?xml version="1.0" encoding="UTF-8" standalone="no"?>
<!-- Created with Inkscape (http://www.inkscape.org/) -->

<svg
   xmlns:dc="http://purl.org/dc/elements/1.1/"
   xmlns:cc="http://creativecommons.org/ns#"
   xmlns:rdf="http://www.w3.org/1999/02/22-rdf-syntax-ns#"
   xmlns:svg="http://www.w3.org/2000/svg"
   xmlns="http://www.w3.org/2000/svg"
   xmlns:inkscape="http://www.inkscape.org/namespaces/inkscape"
   version="1.1"
   width="78.75"
   height="123.75"
   id="svg2"
   xml:space="preserve"><metadata
     id="metadata8"><rdf:RDF><cc:Work
         rdf:about=""><dc:format>image/svg+xml</dc:format><dc:type
           rdf:resource="http://purl.org/dc/dcmitype/StillImage" /></cc:Work></rdf:RDF></metadata><defs
     id="defs6" /><g
     transform="matrix(1.25,0,0,-1.25,0,123.75)"
     id="g10"><g
       transform="scale(0.1,0.1)"
       id="g12"><path
         d="M 467.621,512.719 194.18,180.219 c 15.39,-15.739 32.73,-27.348 52.031,-34.848 19.258,-7.5 41.019,-11.25 65.309,-11.25 55.082,0 98.75,21.719 130.941,65.16 32.187,43.438 48.277,102.578 48.277,177.5 0,29.571 -1.867,55.309 -5.617,77.188 -3.75,21.871 -9.609,41.441 -17.5,58.75 z M 427.77,573.34 c -15.739,15.32 -33.239,26.762 -52.5,34.379 -19.29,7.691 -40.54,11.562 -63.75,11.562 -56.481,0 -100.54,-21.992 -132.18,-65.941 -31.68,-43.981 -47.5,-105.43 -47.5,-184.371 0,-26.989 1.75,-50.778 5.308,-71.41 3.633,-20.539 9.141,-39.45 16.563,-56.719 L 427.77,573.34 z M 83.5508,156.16 c -20.2305,28.75 -35.3906,61.559 -45.461,98.43 -10.121,36.879 -15.1601,77.582 -15.1601,122.191 0,103.321 25.5117,184.141 76.5586,242.5 51.1327,58.438 121.8007,87.66 212.0317,87.66 34.89,0 67.191,-4.812 96.878,-14.382 29.762,-9.489 57.223,-23.981 82.34,-43.438 L 568.711,743.5 622.148,699.121 540.121,598.5 c 19.758,-28.75 34.719,-61.68 44.84,-98.75 10.078,-37.109 15.16,-78.09 15.16,-122.969 0,-102.929 -25.633,-183.711 -76.883,-242.34 C 471.988,75.8789 401.41,46.6211 311.52,46.6211 c -35.93,0 -68.981,4.9297 -99.059,14.6875 C 182.34,71 155.469,85.3711 131.84,104.441 L 53.8711,10.0586 -0.0390625,53.8086 83.5508,156.16 z m 261.5702,826.559 111.719,0 -183.129,-211.25 -85.941,0 157.351,211.25 z"
         inkscape:connector-curvature="0"
         id="path14"
         style="fill:#000000;fill-opacity:1;fill-rule:nonzero;stroke:none" /></g></g></svg>