<?xml version="1.0" encoding="UTF-8" standalone="no"?>
<!-- Created with Inkscape (http://www.inkscape.org/) -->

<svg
   xmlns:dc="http://purl.org/dc/elements/1.1/"
   xmlns:cc="http://creativecommons.org/ns#"
   xmlns:rdf="http://www.w3.org/1999/02/22-rdf-syntax-ns#"
   xmlns:svg="http://www.w3.org/2000/svg"
   xmlns="http://www.w3.org/2000/svg"
   xmlns:inkscape="http://www.inkscape.org/namespaces/inkscape"
   version="1.1"
   width="78.75"
   height="137.5"
   id="svg2"
   xml:space="preserve"><metadata
     id="metadata8"><rdf:RDF><cc:Work
         rdf:about=""><dc:format>image/svg+xml</dc:format><dc:type
           rdf:resource="http://purl.org/dc/dcmitype/StillImage" /></cc:Work></rdf:RDF></metadata><defs
     id="defs6" /><g
     transform="matrix(1.25,0,0,-1.25,0,137.5)"
     id="g10"><g
       transform="scale(0.1,0.1)"
       id="g12"><path
         d="m 325.039,342.398 c -83.559,0 -141.41,-9.527 -173.59,-28.597 -32.187,-19.063 -48.289,-51.641 -48.289,-97.653 0,-36.679 12.07,-65.777 36.25,-87.347 24.141,-21.563 57.039,-32.3401 98.602,-32.3401 57.258,0 103.199,20.3091 137.808,60.9371 34.571,40.622 51.879,94.614 51.879,162.032 l 0,22.968 -102.66,0 z m 206.09,42.653 0,-358.7502 -103.43,0 0,95.4692 C 404.141,83.5313 374.77,55.3711 339.57,37.2383 304.34,19.1211 261.328,10.0508 210.512,10.0508 146.129,10.0508 94.9219,28.0586 56.9102,64.1211 18.8711,100.25 -0.121094,148.691 -0.121094,209.43 c 0,70.699 23.640594,124.058 70.941394,160 47.3787,35.941 118.0507,53.91 212.0317,53.91 l 144.847,0 0,10 c 0,47.57 -15.629,84.371 -46.879,110.308 -31.25,26.012 -75.121,39.063 -131.558,39.063 -35.942,0 -70.942,-4.332 -105,-12.973 -34.063,-8.547 -66.8401,-21.398 -98.2815,-38.59 l 0,95.473 c 37.8086,14.57 74.4495,25.508 109.9995,32.809 35.622,7.269 70.231,10.941 103.899,10.941 90.941,0 158.832,-23.601 203.75,-70.781 45,-47.192 67.5,-118.711 67.5,-214.539 z m -177.5,497.039 c 0,23.512 -8.238,43.512 -24.68,60 -16.488,16.558 -36.679,24.84 -60.629,24.84 -24.371,0 -44.691,-8.2 -60.941,-24.532 -16.25,-16.25 -24.367,-36.367 -24.367,-60.308 0,-24.379 8.117,-44.692 24.367,-60.942 16.25,-16.25 36.57,-24.378 60.941,-24.378 23.95,0 44.141,8.21 60.629,24.691 16.442,16.449 24.68,36.641 24.68,60.629 z m 68.601,0 c 0,-43.051 -14.929,-79.539 -44.691,-109.539 -29.809,-29.922 -66.211,-44.84 -109.219,-44.84 -43.05,0 -79.449,14.918 -109.218,44.84 -29.801,30 -44.692,66.488 -44.692,109.539 0,43 14.891,79.41 44.692,109.211 29.769,29.769 66.168,44.689 109.218,44.689 43.008,0 79.41,-14.92 109.219,-44.689 C 407.301,961.5 422.23,925.09 422.23,882.09 z m 102.032,211.09 103.75,0 -127.973,-148.282 -85.937,0 110.16,148.282 z"
         inkscape:connector-curvature="0"
         id="path14"
         style="fill:#000000;fill-opacity:1;fill-rule:nonzero;stroke:none" /></g></g></svg>