<?xml version="1.0" encoding="UTF-8" standalone="no"?>
<!-- Created with Inkscape (http://www.inkscape.org/) -->

<svg
   xmlns:dc="http://purl.org/dc/elements/1.1/"
   xmlns:cc="http://creativecommons.org/ns#"
   xmlns:rdf="http://www.w3.org/1999/02/22-rdf-syntax-ns#"
   xmlns:svg="http://www.w3.org/2000/svg"
   xmlns="http://www.w3.org/2000/svg"
   xmlns:inkscape="http://www.inkscape.org/namespaces/inkscape"
   version="1.1"
   width="141.25"
   height="117.5"
   id="svg2"
   xml:space="preserve"><metadata
     id="metadata8"><rdf:RDF><cc:Work
         rdf:about=""><dc:format>image/svg+xml</dc:format><dc:type
           rdf:resource="http://purl.org/dc/dcmitype/StillImage" /></cc:Work></rdf:RDF></metadata><defs
     id="defs6" /><g
     transform="matrix(1.25,0,0,-1.25,0,117.5)"
     id="g10"><g
       transform="scale(0.1,0.1)"
       id="g12"><path
         d="m 490,848.289 113.441,0 0,-343.59 412.179,0 0,343.59 113.44,0 0,-838.2773 -113.44,0 0,399.2183 -412.179,0 0,-399.2183 -113.441,0 0,838.2773 z M 142.031,843.91 c 0,-100 -45.2693,-150 -135.781,-150 l 0,57.82 c 50.0781,-1.058 75.1602,27.809 75.1602,86.559 l -74.69145,0 0,88.75 135.31225,0 0,-83.129 z m 141.25,85.942 158.278,-210 -85.778,0 -183.121,210 110.621,0 z"
         inkscape:connector-curvature="0"
         id="path14"
         style="fill:#000000;fill-opacity:1;fill-rule:nonzero;stroke:none" /></g></g></svg>