<?xml version="1.0" encoding="UTF-8" standalone="no"?>
<!-- Created with Inkscape (http://www.inkscape.org/) -->

<svg
   xmlns:dc="http://purl.org/dc/elements/1.1/"
   xmlns:cc="http://creativecommons.org/ns#"
   xmlns:rdf="http://www.w3.org/1999/02/22-rdf-syntax-ns#"
   xmlns:svg="http://www.w3.org/2000/svg"
   xmlns="http://www.w3.org/2000/svg"
   xmlns:inkscape="http://www.inkscape.org/namespaces/inkscape"
   version="1.1"
   width="66.25"
   height="117.5"
   id="svg2"
   xml:space="preserve"><metadata
     id="metadata8"><rdf:RDF><cc:Work
         rdf:about=""><dc:format>image/svg+xml</dc:format><dc:type
           rdf:resource="http://purl.org/dc/dcmitype/StillImage" /></cc:Work></rdf:RDF></metadata><defs
     id="defs6" /><g
     transform="matrix(1.25,0,0,-1.25,0,117.5)"
     id="g10"><g
       transform="scale(0.1,0.1)"
       id="g12"><path
         d="m 526.48,389.551 0,-379.5315 -103.281,0 0,376.2505 c 0,59.449 -11.64,103.98 -34.84,133.589 C 365.23,549.43 330.43,564.23 283.98,564.23 228.121,564.23 184.141,546.422 151.949,510.801 119.77,475.25 103.672,426.809 103.672,365.48 l 0,-355.4605 -103.902469,0 0,628.9025 103.902469,0 0,-97.652 c 24.687,37.808 53.789,66.011 87.348,84.679 33.511,18.75 72.179,28.129 115.929,28.129 72.27,0 126.922,-22.418 163.91,-67.187 37.071,-44.692 55.621,-110.469 55.621,-197.34 z m -265,540.308 158.29,-210 -85.79,0 -183.121,210 110.621,0 z"
         inkscape:connector-curvature="0"
         id="path14"
         style="fill:#000000;fill-opacity:1;fill-rule:nonzero;stroke:none" /></g></g></svg>