<?xml version="1.0" encoding="UTF-8" standalone="no"?>
<!-- Created with Inkscape (http://www.inkscape.org/) -->

<svg
   xmlns:dc="http://purl.org/dc/elements/1.1/"
   xmlns:cc="http://creativecommons.org/ns#"
   xmlns:rdf="http://www.w3.org/1999/02/22-rdf-syntax-ns#"
   xmlns:svg="http://www.w3.org/2000/svg"
   xmlns="http://www.w3.org/2000/svg"
   xmlns:inkscape="http://www.inkscape.org/namespaces/inkscape"
   version="1.1"
   width="98.75"
   height="140"
   id="svg2"
   xml:space="preserve"><metadata
     id="metadata8"><rdf:RDF><cc:Work
         rdf:about=""><dc:format>image/svg+xml</dc:format><dc:type
           rdf:resource="http://purl.org/dc/dcmitype/StillImage" /></cc:Work></rdf:RDF></metadata><defs
     id="defs6" /><g
     transform="matrix(1.25,0,0,-1.25,0,140)"
     id="g10"><g
       transform="scale(0.1,0.1)"
       id="g12"><path
         d="m 406.051,1116.25 103.75,0 -127.961,-148.281 -85.942,0 110.153,148.281 z m 213.75,-442.5 -402.653,-475 c 23.204,-23.98 49.883,-42.27 80,-54.84 30.192,-12.5 63.051,-18.75 98.59,-18.75 82.383,0 147.582,30.66 195.633,92.031 48.117,61.438 72.18,144.918 72.18,250.469 0,41.949 -3.672,80.149 -10.93,114.531 -7.312,34.45 -18.242,65 -32.82,91.559 z m -46.09,63.441 c -22.813,23.938 -49.301,42.188 -79.371,54.688 -30.121,12.57 -62.969,18.902 -98.602,18.902 -82.297,0 -147.726,-30.742 -196.25,-92.191 -48.437,-61.36 -72.648,-145 -72.648,-250.93 0,-41.879 3.629,-80.43 10.93,-115.629 7.269,-35.23 18.21,-65.551 32.82,-90.941 L 573.711,737.191 z M 95.4297,172.34 C 66.1289,210.551 44.1016,254.379 29.3398,303.75 14.5313,353.121 7.14844,407.73 7.14844,467.66 c 0,132.57 35.23046,238.281 105.78156,317.031 70.621,78.829 164.879,118.278 282.808,118.278 48.641,0 93.641,-7.27 135,-21.719 41.453,-14.371 78.442,-35.629 110.942,-63.75 l 90.941,107.34 57.34,-50 -95.473,-111.25 c 29.141,-38.551 51.25,-82.731 66.25,-132.5 15,-49.801 22.5,-104.289 22.5,-163.43 0,-132.109 -35.226,-237.582 -105.617,-316.41 C 607.301,72.5 513.32,33.1211 395.738,33.1211 c -47.929,0 -92.578,7 -133.898,20.9375 C 220.469,68.1211 182.77,89.2188 148.711,117.34 L 57.7695,10 -0.0390625,59.5313 95.4297,172.34 z"
         inkscape:connector-curvature="0"
         id="path14"
         style="fill:#000000;fill-opacity:1;fill-rule:nonzero;stroke:none" /></g></g></svg>