<?xml version="1.0" encoding="UTF-8" standalone="no"?>
<!-- Created with Inkscape (http://www.inkscape.org/) -->

<svg
   xmlns:dc="http://purl.org/dc/elements/1.1/"
   xmlns:cc="http://creativecommons.org/ns#"
   xmlns:rdf="http://www.w3.org/1999/02/22-rdf-syntax-ns#"
   xmlns:svg="http://www.w3.org/2000/svg"
   xmlns="http://www.w3.org/2000/svg"
   xmlns:inkscape="http://www.inkscape.org/namespaces/inkscape"
   version="1.1"
   width="46.25"
   height="147.5"
   id="svg2"
   xml:space="preserve"><metadata
     id="metadata8"><rdf:RDF><cc:Work
         rdf:about=""><dc:format>image/svg+xml</dc:format><dc:type
           rdf:resource="http://purl.org/dc/dcmitype/StillImage" /></cc:Work></rdf:RDF></metadata><defs
     id="defs6" /><g
     transform="matrix(1.25,0,0,-1.25,0,147.5)"
     id="g10"><g
       transform="scale(0.1,0.1)"
       id="g12"><path
         d="m 146.762,958.23 -137.50028,211.25 77.96878,0 101.0895,-137.66 101.09,137.66 77.969,0 -137.5,-211.25 -83.117,0 z m -17.5,-79.691 103.277,0 0,-640.16 C 232.539,158.301 217.27,100.262 186.762,64.3203 156.211,28.3789 107.109,10.4102 39.4102,10.4102 l -39.3711375,0 0,87.6601 27.5000375,0 c 39.2617,0 66.0117,9.0587 80.3129,27.1917 14.257,18.117 21.41,55.859 21.41,113.117 l 0,640.16 z"
         inkscape:connector-curvature="0"
         id="path14"
         style="fill:#000000;fill-opacity:1;fill-rule:nonzero;stroke:none" /></g></g></svg>