<?xml version="1.0" encoding="UTF-8" standalone="no"?>
<!-- Created with Inkscape (http://www.inkscape.org/) -->

<svg
   xmlns:dc="http://purl.org/dc/elements/1.1/"
   xmlns:cc="http://creativecommons.org/ns#"
   xmlns:rdf="http://www.w3.org/1999/02/22-rdf-syntax-ns#"
   xmlns:svg="http://www.w3.org/2000/svg"
   xmlns="http://www.w3.org/2000/svg"
   xmlns:inkscape="http://www.inkscape.org/namespaces/inkscape"
   version="1.1"
   width="70"
   height="108.75"
   id="svg2"
   xml:space="preserve"><metadata
     id="metadata8"><rdf:RDF><cc:Work
         rdf:about=""><dc:format>image/svg+xml</dc:format><dc:type
           rdf:resource="http://purl.org/dc/dcmitype/StillImage" /></cc:Work></rdf:RDF></metadata><defs
     id="defs6" /><g
     transform="matrix(1.25,0,0,-1.25,0,108.75)"
     id="g10"><g
       transform="scale(0.1,0.1)"
       id="g12"><path
         d="m 244.609,286.25 0,-180.781 312.813,0 0,-95.469 -557.500125,0 0,95.469 132.500125,0 0,180.781 -107.3439,0 0,80.309 107.3439,0 0,80.32 -111.7228,0 0,80.312 111.7228,0 0,53.278 c 0,97.691 20,169.301 60,214.84 40.078,45.511 103.598,68.281 190.469,68.281 22.808,0 48.32,-2.93 76.558,-8.75 28.211,-5.86 57.11,-14.18 86.723,-25 l 0,-102.18 c -28.442,15.309 -55.434,26.789 -80.942,34.531 -25.429,7.688 -49.531,11.559 -72.339,11.559 -55.43,0 -94.02,-14.531 -115.782,-43.59 -21.679,-29.07 -32.5,-83.25 -32.5,-162.5 l 0,-40.469 219.692,0 0,-80.312 -219.692,0 0,-80.32 224.063,0 0,-80.309 -224.063,0 z"
         inkscape:connector-curvature="0"
         id="path14"
         style="fill:#000000;fill-opacity:1;fill-rule:nonzero;stroke:none" /></g></g></svg>