<?xml version="1.0" encoding="UTF-8" standalone="no"?>
<!-- Created with Inkscape (http://www.inkscape.org/) -->

<svg
   xmlns:dc="http://purl.org/dc/elements/1.1/"
   xmlns:cc="http://creativecommons.org/ns#"
   xmlns:rdf="http://www.w3.org/1999/02/22-rdf-syntax-ns#"
   xmlns:svg="http://www.w3.org/2000/svg"
   xmlns="http://www.w3.org/2000/svg"
   xmlns:inkscape="http://www.inkscape.org/namespaces/inkscape"
   version="1.1"
   width="43.75"
   height="61.25"
   id="svg2"
   xml:space="preserve"><metadata
     id="metadata8"><rdf:RDF><cc:Work
         rdf:about=""><dc:format>image/svg+xml</dc:format><dc:type
           rdf:resource="http://purl.org/dc/dcmitype/StillImage" /></cc:Work></rdf:RDF></metadata><defs
     id="defs6" /><g
     transform="matrix(1.25,0,0,-1.25,0,61.25)"
     id="g10"><g
       transform="scale(0.1,0.1)"
       id="g12"><path
         d="m 22.3008,482.34 286.4102,0 0,-53.281 -219.5313,0 0,-114.528 c 10.5117,3.321 21.1723,5.778 32.0313,7.348 10.391,1.441 20.859,2.18 31.41,2.18 60.309,0 108,-14.45 143.117,-43.278 35.203,-28.441 52.813,-67.191 52.813,-116.25 C 348.551,113.98 330.43,74.7305 294.18,46.7188 258.238,18.9805 207.301,5.16016 141.371,5.16016 118.949,5.16016 95.9414,6.83984 72.3008,10.1602 48.75,13.5195 24.6484,18.5195 -0.0390625,25.3086 l 0,63.4414 C 21.2109,78.6289 43.4414,70.9805 66.6797,65.7813 89.8789,60.8594 114.41,58.4414 140.27,58.4414 c 41.57,0 74.46,9.5274 98.75,28.5899 24.378,19.1407 36.57,44.9997 36.57,77.4997 0,32.578 -12.192,58.438 -36.57,77.5 -24.29,19.141 -57.18,28.75 -98.75,28.75 -19.489,0 -38.981,-1.871 -58.4302,-5.621 -19.5,-3.75 -39.3398,-9.609 -59.539,-17.5 l 0,234.68 z"
         inkscape:connector-curvature="0"
         id="path14"
         style="fill:#000000;fill-opacity:1;fill-rule:nonzero;stroke:none" /></g></g></svg>