<?xml version="1.0" encoding="UTF-8" standalone="no"?>
<!-- Created with Inkscape (http://www.inkscape.org/) -->

<svg
   xmlns:dc="http://purl.org/dc/elements/1.1/"
   xmlns:cc="http://creativecommons.org/ns#"
   xmlns:rdf="http://www.w3.org/1999/02/22-rdf-syntax-ns#"
   xmlns:svg="http://www.w3.org/2000/svg"
   xmlns="http://www.w3.org/2000/svg"
   xmlns:inkscape="http://www.inkscape.org/namespaces/inkscape"
   version="1.1"
   width="43.75"
   height="61.25"
   id="svg2"
   xml:space="preserve"><metadata
     id="metadata8"><rdf:RDF><cc:Work
         rdf:about=""><dc:format>image/svg+xml</dc:format><dc:type
           rdf:resource="http://purl.org/dc/dcmitype/StillImage" /></cc:Work></rdf:RDF></metadata><defs
     id="defs6" /><g
     transform="matrix(1.25,0,0,-1.25,0,61.25)"
     id="g10"><g
       transform="scale(0.1,0.1)"
       id="g12"><path
         d="m 22.3008,486.602 286.4102,0 0,-53.282 -219.5313,0 0,-114.531 c 10.5117,3.32 21.1723,5.781 32.0313,7.34 10.391,1.449 20.859,2.191 31.41,2.191 60.309,0 108,-14.449 143.117,-43.281 35.203,-28.437 52.813,-67.187 52.813,-116.25 0,-50.551 -18.121,-89.8085 -54.371,-117.8085 C 258.238,23.2383 207.301,9.41016 141.371,9.41016 118.949,9.41016 95.9414,11.0508 72.3008,14.4102 48.75,17.7305 24.6484,22.7695 -0.0390625,29.5703 l 0,63.4414 C 21.2109,82.8906 43.4414,75.2305 66.6797,70.0391 89.8789,65.1211 114.41,62.6992 140.27,62.6992 c 41.57,0 74.46,9.5313 98.75,28.5899 24.378,19.1409 36.57,44.9999 36.57,77.4999 0,32.582 -12.192,58.441 -36.57,77.5 -24.29,19.141 -57.18,28.75 -98.75,28.75 -19.489,0 -38.981,-1.879 -58.4302,-5.629 -19.5,-3.75 -39.3398,-9.609 -59.539,-17.5 l 0,234.692 z"
         inkscape:connector-curvature="0"
         id="path14"
         style="fill:#000000;fill-opacity:1;fill-rule:nonzero;stroke:none" /></g></g></svg>