<?xml version="1.0" encoding="UTF-8" standalone="no"?>
<!-- Created with Inkscape (http://www.inkscape.org/) -->

<svg
   xmlns:dc="http://purl.org/dc/elements/1.1/"
   xmlns:cc="http://creativecommons.org/ns#"
   xmlns:rdf="http://www.w3.org/1999/02/22-rdf-syntax-ns#"
   xmlns:svg="http://www.w3.org/2000/svg"
   xmlns="http://www.w3.org/2000/svg"
   xmlns:inkscape="http://www.inkscape.org/namespaces/inkscape"
   version="1.1"
   width="47.5"
   height="62.5"
   id="svg2"
   xml:space="preserve"><metadata
     id="metadata8"><rdf:RDF><cc:Work
         rdf:about=""><dc:format>image/svg+xml</dc:format><dc:type
           rdf:resource="http://purl.org/dc/dcmitype/StillImage" /></cc:Work></rdf:RDF></metadata><defs
     id="defs6" /><g
     transform="matrix(1.25,0,0,-1.25,0,62.5)"
     id="g10"><g
       transform="scale(0.1,0.1)"
       id="g12"><path
         d="m 192.461,274.68 c -32.93,0 -58.91,-9.77 -77.973,-29.219 C 95.3086,225.539 85.7383,198.59 85.7383,164.52 c 0,-33.668 9.5703,-60.231 28.7497,-79.6802 19.063,-19.8085 45.043,-29.6914 77.973,-29.6914 32.578,0 58.437,9.8829 77.5,29.6914 19.141,19.4492 28.75,46.0122 28.75,79.6802 0,34.07 -9.609,61.019 -28.75,80.941 -19.063,19.449 -44.922,29.219 -77.5,29.219 z m 144.84,198.75 0,-57.809 c -18.352,7.5 -36.832,13.117 -55.461,16.867 -18.75,4.063 -37.309,6.102 -55.629,6.102 -47.93,0 -84.609,-14.031 -110,-42.039 C 90.6602,368 76.0508,325.148 72.3008,267.961 c 14.2578,18.32 32.0782,32.34 53.4372,42.027 21.641,9.774 45.203,14.692 70.633,14.692 54.367,0 97.219,-14.301 128.59,-42.809 31.449,-28.75 47.187,-67.891 47.187,-117.351 0,-47.5 -16.488,-86.0512 -49.378,-115.6216 C 290.16,19.7188 246.719,5.14844 192.461,5.14844 129.961,5.14844 82.2305,25.9297 49.3398,67.4883 16.4102,109.051 -0.0390625,169.449 -0.0390625,248.738 c 0,74.141 20.1992625,133.133 60.6288625,176.883 40.3902,44.25 94.6802,66.399 162.8082,66.399 18.321,0 36.872,-1.52 55.622,-4.532 18.64,-3.437 38.05,-8.117 58.281,-14.058 z"
         inkscape:connector-curvature="0"
         id="path14"
         style="fill:#000000;fill-opacity:1;fill-rule:nonzero;stroke:none" /></g></g></svg>