<?xml version="1.0" encoding="UTF-8" standalone="no"?>
<!-- Created with Inkscape (http://www.inkscape.org/) -->

<svg
   xmlns:dc="http://purl.org/dc/elements/1.1/"
   xmlns:cc="http://creativecommons.org/ns#"
   xmlns:rdf="http://www.w3.org/1999/02/22-rdf-syntax-ns#"
   xmlns:svg="http://www.w3.org/2000/svg"
   xmlns="http://www.w3.org/2000/svg"
   xmlns:inkscape="http://www.inkscape.org/namespaces/inkscape"
   version="1.1"
   width="115"
   height="107.5"
   id="svg2"
   xml:space="preserve"><metadata
     id="metadata8"><rdf:RDF><cc:Work
         rdf:about=""><dc:format>image/svg+xml</dc:format><dc:type
           rdf:resource="http://purl.org/dc/dcmitype/StillImage" /></cc:Work></rdf:RDF></metadata><defs
     id="defs6" /><g
     transform="matrix(1.25,0,0,-1.25,0,107.5)"
     id="g10"><g
       transform="scale(0.1,0.1)"
       id="g12"><path
         d="M 506.949,257.02 C 477.34,236.781 445.898,221.621 412.578,211.551 379.34,201.43 344.18,196.391 307.109,196.391 c -95.121,0 -170.121,29.097 -224.9996,87.339 -54.8086,58.211 -82.187525,137.86 -82.187525,238.911 0,101.019 27.378925,180.66 82.187525,238.91 54.8786,58.199 129.8786,87.34 224.9996,87.34 37.813,0 73.282,-4.961 106.411,-14.84 33.121,-9.93 64.25,-24.961 93.429,-45.16 l 0,-89.371 c -28.429,26.558 -58.859,46.402 -91.25,59.531 -32.418,13.121 -66.949,19.679 -103.59,19.679 -71.879,0 -126.949,-21.949 -165.16,-65.781 C 108.828,669.199 89.7695,605.77 89.7695,522.641 89.7695,439.52 108.828,376 146.949,332.172 c 38.211,-43.75 93.281,-65.621 165.16,-65.621 36.641,0 71.172,6.558 103.59,19.679 32.391,13.129 62.821,32.969 91.25,59.54 l 0,293.121 397.66,0 0,-71.871 -312.808,0 0,-185.942 299.84,0 0,-71.879 -299.84,0 0,-227.3396 320,0 0,-71.87893 -404.852,0 0,247.03953 z"
         inkscape:connector-curvature="0"
         id="path14"
         style="fill:#000000;fill-opacity:1;fill-rule:nonzero;stroke:none" /></g></g></svg>