<?xml version="1.0" encoding="UTF-8" standalone="no"?>
<!-- Created with Inkscape (http://www.inkscape.org/) -->

<svg
   xmlns:dc="http://purl.org/dc/elements/1.1/"
   xmlns:cc="http://creativecommons.org/ns#"
   xmlns:rdf="http://www.w3.org/1999/02/22-rdf-syntax-ns#"
   xmlns:svg="http://www.w3.org/2000/svg"
   xmlns="http://www.w3.org/2000/svg"
   xmlns:inkscape="http://www.inkscape.org/namespaces/inkscape"
   version="1.1"
   width="180"
   height="102.5"
   id="svg2"
   xml:space="preserve"><metadata
     id="metadata8"><rdf:RDF><cc:Work
         rdf:about=""><dc:format>image/svg+xml</dc:format><dc:type
           rdf:resource="http://purl.org/dc/dcmitype/StillImage" /></cc:Work></rdf:RDF></metadata><defs
     id="defs6" /><g
     transform="matrix(1.25,0,0,-1.25,0,102.5)"
     id="g10"><g
       transform="scale(0.1,0.1)"
       id="g12"><path
         d="m 199.34,812.98 c -48.442,0 -96.879,-19.531 -129.0705,-51.871 -42.6484,-43.75 -70.3085625,-118.597 -70.3085625,-191.25 0,-145.16 81.8788625,-245.308 199.3790625,-245.308 117.5,0 200.461,99.058 200.461,240.777 0,147.5 -81.871,247.652 -200.461,247.652 z m 2.18,-42.652 c 72.66,0 111.878,-70.316 111.878,-200.469 0,-131.25 -40.308,-202.66 -112.968,-202.66 -72.5,0 -114.0589,70.16 -114.0589,195.781 0,70.321 18.4299,144.071 42.6489,172.821 17.351,21.871 43.75,34.527 72.5,34.527 z m 591.101,33.434 -67.973,0 -534.527,-784.5315 67.969,0 534.531,784.5315 z m -12.66,-305.313 c -48.441,0 -96.871,-19.527 -129.063,-51.871 -42.66,-43.75 -70.308,-118.598 -70.308,-191.25 0,-145.156 81.871,-245.3163 199.371,-245.3163 117.5,0 200.469,99.0663 200.469,240.7893 0,147.5 -81.879,247.648 -200.469,247.648 z m 2.187,-42.648 c 72.653,0 111.872,-70.16 111.872,-200.473 0,-131.25 -40.309,-202.6561 -114.059,-202.6561 -71.41,0 -112.973,70.3081 -112.973,195.7771 0,70.313 18.442,144.063 42.66,172.813 17.34,21.879 43.75,34.539 72.5,34.539 z m 450.472,42.648 c -48.28,0 -96.72,-19.527 -128.91,-51.871 -42.66,-43.75 -70.31,-118.598 -70.31,-191.25 0,-145.156 81.72,-245.3163 199.22,-245.3163 117.5,0 200.47,99.0663 200.47,240.7893 0,147.5 -81.72,247.648 -200.47,247.648 z m 2.34,-42.648 c 72.66,0 111.72,-70.16 111.72,-200.473 0,-131.25 -40.31,-202.6561 -114.06,-202.6561 -71.41,0 -112.82,71.4061 -112.82,195.7771 0,70.313 18.44,144.063 42.66,172.813 17.19,21.879 43.75,34.539 72.5,34.539 z"
         inkscape:connector-curvature="0"
         id="path14"
         style="fill:#000000;fill-opacity:1;fill-rule:nonzero;stroke:none" /></g></g></svg>