<?xml version="1.0" encoding="UTF-8" standalone="no"?>
<!-- Created with Inkscape (http://www.inkscape.org/) -->

<svg
   xmlns:dc="http://purl.org/dc/elements/1.1/"
   xmlns:cc="http://creativecommons.org/ns#"
   xmlns:rdf="http://www.w3.org/1999/02/22-rdf-syntax-ns#"
   xmlns:svg="http://www.w3.org/2000/svg"
   xmlns="http://www.w3.org/2000/svg"
   xmlns:inkscape="http://www.inkscape.org/namespaces/inkscape"
   version="1.1"
   width="78.75"
   height="111.25"
   id="svg2"
   xml:space="preserve"><metadata
     id="metadata8"><rdf:RDF><cc:Work
         rdf:about=""><dc:format>image/svg+xml</dc:format><dc:type
           rdf:resource="http://purl.org/dc/dcmitype/StillImage" /></cc:Work></rdf:RDF></metadata><defs
     id="defs6" /><g
     transform="matrix(1.25,0,0,-1.25,0,111.25)"
     id="g10"><g
       transform="scale(0.1,0.1)"
       id="g12"><path
         d="m 403.051,103.25 c 36.328,2.578 70.969,11.172 103.898,25.781 39.692,17.578 76.922,44.219 111.723,79.84 l 0,-118.5897 C 582.422,63.4102 543.98,43.2891 503.359,29.9688 462.73,16.6484 419.77,9.96875 374.449,9.96875 258.398,9.96875 166.949,48.7188 100.078,126.219 33.2813,203.719 -0.078125,309.66 -0.078125,444.031 c 0,134.77 33.359425,241.02 100.156125,318.75 66.871,77.699 158.32,116.559 274.371,116.559 46.02,0 89.379,-6.68 130,-20 40.629,-13.36 78.672,-33.281 114.223,-59.84 l 0,-119.531 c -34.801,35.511 -72.031,62.07 -111.723,79.691 -39.679,17.57 -81.789,26.399 -126.25,26.399 -87.609,0 -154.758,-29.329 -201.398,-87.969 -46.571,-58.551 -69.852,-143.238 -69.852,-254.059 0,-110.429 23.172,-194.801 69.531,-253.121 35.2,-43.871 81.45,-71.41 138.75,-82.66 l 0,483.59 85.321,0 0,-88.281 c 18,34.461 41.398,60.043 70.148,76.722 28.832,16.641 63.91,25 105.16,25 5.512,0 11.801,-0.429 18.911,-1.25 7.179,-0.742 15.07,-2.031 23.75,-3.91 l 0.46,-95.461 c -9.679,6.012 -20.152,10.461 -31.402,13.281 -11.25,2.809 -23.598,4.219 -37.027,4.219 -47.93,0 -84.93,-17.039 -110.942,-51.101 C 416.051,437 403.051,387.941 403.051,323.871 l 0,-220.621 z"
         inkscape:connector-curvature="0"
         id="path14"
         style="fill:#000000;fill-opacity:1;fill-rule:nonzero;stroke:none" /></g></g></svg>