<?xml version="1.0" encoding="UTF-8" standalone="no"?>
<!-- Created with Inkscape (http://www.inkscape.org/) -->

<svg
   xmlns:dc="http://purl.org/dc/elements/1.1/"
   xmlns:cc="http://creativecommons.org/ns#"
   xmlns:rdf="http://www.w3.org/1999/02/22-rdf-syntax-ns#"
   xmlns:svg="http://www.w3.org/2000/svg"
   xmlns="http://www.w3.org/2000/svg"
   xmlns:inkscape="http://www.inkscape.org/namespaces/inkscape"
   version="1.1"
   width="21.25"
   height="73.75"
   id="svg2"
   xml:space="preserve"><metadata
     id="metadata8"><rdf:RDF><cc:Work
         rdf:about=""><dc:format>image/svg+xml</dc:format><dc:type
           rdf:resource="http://purl.org/dc/dcmitype/StillImage" /></cc:Work></rdf:RDF></metadata><defs
     id="defs6" /><g
     transform="matrix(1.25,0,0,-1.25,0,73.75)"
     id="g10"><g
       transform="scale(0.1,0.1)"
       id="g12"><path
         d="m -0.121094,582.789 56.722694,0 c 35.6289,-49.379 62.1874,-97.66 79.6874,-144.84 17.262,-47.5 25.941,-94.687 25.941,-141.57 0,-46.789 -8.679,-93.899 -25.941,-141.399 C 118.789,107.051 92.2305,58.5703 56.6016,9.51172 l -56.722694,0 C 31.3281,57.3984 54.7305,105.129 70.0391,152.629 c 15.6992,47.582 23.5898,95.512 23.5898,143.75 0,48.32 -7.8906,96.101 -23.5898,143.281 -15.3086,47.192 -38.711,94.891 -70.160194,143.129 z"
         inkscape:connector-curvature="0"
         id="path14"
         style="fill:#000000;fill-opacity:1;fill-rule:nonzero;stroke:none" /></g></g></svg>