<?xml version="1.0" encoding="UTF-8" standalone="no"?>
<!-- Created with Inkscape (http://www.inkscape.org/) -->

<svg
   xmlns:dc="http://purl.org/dc/elements/1.1/"
   xmlns:cc="http://creativecommons.org/ns#"
   xmlns:rdf="http://www.w3.org/1999/02/22-rdf-syntax-ns#"
   xmlns:svg="http://www.w3.org/2000/svg"
   xmlns="http://www.w3.org/2000/svg"
   xmlns:inkscape="http://www.inkscape.org/namespaces/inkscape"
   version="1.1"
   width="46.25"
   height="62.5"
   id="svg2"
   xml:space="preserve"><metadata
     id="metadata8"><rdf:RDF><cc:Work
         rdf:about=""><dc:format>image/svg+xml</dc:format><dc:type
           rdf:resource="http://purl.org/dc/dcmitype/StillImage" /></cc:Work></rdf:RDF></metadata><defs
     id="defs6" /><g
     transform="matrix(1.25,0,0,-1.25,0,62.5)"
     id="g10"><g
       transform="scale(0.1,0.1)"
       id="g12"><path
         d="m 267.109,216.59 c -19.808,16.449 -47.109,24.691 -81.879,24.691 -34.8,0 -62.14,-8.242 -82.031,-24.691 -19.8006,-16.168 -29.6795,-38.238 -29.6795,-66.25 0,-28.43 9.8789,-50.7384 29.6795,-66.8712 19.891,-16.0586 47.231,-24.0586 82.031,-24.0586 34.379,0 61.649,8.1992 81.879,24.6796 19.879,16.0192 29.84,38.0512 29.84,66.1012 0,28.118 -9.961,50.231 -29.84,66.399 z M 112.27,268.781 c -31.4887,6.758 -55.8598,19.297 -73.1294,37.66 -17.5,18.75 -26.25,41.559 -26.25,68.43 0,37.5 15.3086,67.078 45.9375,88.75 30.7032,21.758 72.8519,32.66 126.4019,32.66 53.52,0 95.629,-10.902 126.25,-32.66 30.321,-21.672 45.469,-51.25 45.469,-88.75 0,-27.73 -8.59,-50.543 -25.777,-68.43 -17.621,-18.363 -41.953,-30.902 -72.973,-37.66 C 291.84,261.98 319.18,247.77 340.23,226.121 360,205.5 369.922,180.23 369.922,150.34 369.922,105.031 354.02,70.1914 322.27,45.8086 290.078,21.5195 244.379,9.41016 185.23,9.41016 125.621,9.41016 79.9609,21.5195 48.1992,45.8086 16.0195,70.1914 -0.078125,105.031 -0.078125,150.34 c 0,29.14 9.878905,54.422 29.687525,75.781 20.1914,20.938 47.7304,35.16 82.6606,42.66 z m -27.0395,100 c 0,-23.672 8.789,-42.582 26.4105,-56.722 17.187,-13.86 41.718,-20.778 73.589,-20.778 30.321,0 54.61,6.918 72.969,20.778 17.891,13.441 26.879,32.351 26.879,56.722 0,23.52 -8.988,42.418 -26.879,56.719 -17.609,13.828 -41.949,20.781 -72.969,20.781 -31.05,0 -55.582,-6.953 -73.589,-20.781 C 94.0195,411.949 85.2305,393.039 85.2305,368.781 z"
         inkscape:connector-curvature="0"
         id="path14"
         style="fill:#000000;fill-opacity:1;fill-rule:nonzero;stroke:none" /></g></g></svg>