<?xml version="1.0" encoding="UTF-8" standalone="no"?>
<!-- Created with Inkscape (http://www.inkscape.org/) -->

<svg
   xmlns:dc="http://purl.org/dc/elements/1.1/"
   xmlns:cc="http://creativecommons.org/ns#"
   xmlns:rdf="http://www.w3.org/1999/02/22-rdf-syntax-ns#"
   xmlns:svg="http://www.w3.org/2000/svg"
   xmlns="http://www.w3.org/2000/svg"
   xmlns:inkscape="http://www.inkscape.org/namespaces/inkscape"
   version="1.1"
   width="47.5"
   height="62.5"
   id="svg2"
   xml:space="preserve"><metadata
     id="metadata8"><rdf:RDF><cc:Work
         rdf:about=""><dc:format>image/svg+xml</dc:format><dc:type
           rdf:resource="http://purl.org/dc/dcmitype/StillImage" /></cc:Work></rdf:RDF></metadata><defs
     id="defs6" /><g
     transform="matrix(1.25,0,0,-1.25,0,62.5)"
     id="g10"><g
       transform="scale(0.1,0.1)"
       id="g12"><path
         d="m 271.051,393.738 c -18.672,32.192 -46.871,48.282 -84.68,48.282 -37.82,0 -66.101,-16.09 -84.851,-48.282 -19.0591,-32.187 -28.5903,-80.539 -28.5903,-145 0,-64.687 9.5312,-113.117 28.5903,-145.308 18.75,-32.1917 47.031,-48.2816 84.851,-48.2816 37.809,0 66.008,16.0899 84.68,48.2816 19.148,32.191 28.75,80.621 28.75,145.308 0,64.461 -9.602,112.813 -28.75,145 z m -84.68,98.282 c 60.188,0 106.168,-20.782 137.969,-62.34 31.871,-41.559 47.808,-101.879 47.808,-180.942 0,-79.289 -15.937,-139.687 -47.808,-181.2497 C 292.539,25.9297 246.559,5.14844 186.371,5.14844 125.738,5.14844 79.4883,25.9297 47.6211,67.4883 15.8203,109.051 -0.0390625,169.449 -0.0390625,248.738 c 0,79.063 15.8593625,139.383 47.6601625,180.942 31.8672,41.558 78.1169,62.34 138.7499,62.34 z"
         inkscape:connector-curvature="0"
         id="path14"
         style="fill:#000000;fill-opacity:1;fill-rule:nonzero;stroke:none" /></g></g></svg>