<?xml version="1.0" encoding="UTF-8" standalone="no"?>
<!-- Created with Inkscape (http://www.inkscape.org/) -->

<svg
   xmlns:dc="http://purl.org/dc/elements/1.1/"
   xmlns:cc="http://creativecommons.org/ns#"
   xmlns:rdf="http://www.w3.org/1999/02/22-rdf-syntax-ns#"
   xmlns:svg="http://www.w3.org/2000/svg"
   xmlns="http://www.w3.org/2000/svg"
   xmlns:inkscape="http://www.inkscape.org/namespaces/inkscape"
   version="1.1"
   width="47.5"
   height="62.5"
   id="svg2"
   xml:space="preserve"><metadata
     id="metadata8"><rdf:RDF><cc:Work
         rdf:about=""><dc:format>image/svg+xml</dc:format><dc:type
           rdf:resource="http://purl.org/dc/dcmitype/StillImage" /></cc:Work></rdf:RDF></metadata><defs
     id="defs6" /><g
     transform="matrix(1.25,0,0,-1.25,0,62.5)"
     id="g10"><g
       transform="scale(0.1,0.1)"
       id="g12"><path
         d="m 271.051,398 c -18.672,32.191 -46.871,48.281 -84.68,48.281 -37.82,0 -66.101,-16.09 -84.851,-48.281 -19.0591,-32.191 -28.5903,-80.551 -28.5903,-145 0,-64.691 9.5312,-113.129 28.5903,-145.309 18.75,-32.191 47.031,-48.2808 84.851,-48.2808 37.809,0 66.008,16.0898 84.68,48.2808 19.148,32.18 28.75,80.618 28.75,145.309 0,64.449 -9.602,112.809 -28.75,145 z m -84.68,98.281 c 60.188,0 106.168,-20.781 137.969,-62.34 C 356.211,392.371 372.148,332.059 372.148,253 372.148,173.699 356.211,113.309 324.34,71.75 292.539,30.1914 246.559,9.41016 186.371,9.41016 125.738,9.41016 79.4883,30.1914 47.6211,71.75 15.8203,113.309 -0.0390625,173.699 -0.0390625,253 c 0,79.059 15.8593625,139.371 47.6601625,180.941 31.8672,41.559 78.1169,62.34 138.7499,62.34 z"
         inkscape:connector-curvature="0"
         id="path14"
         style="fill:#000000;fill-opacity:1;fill-rule:nonzero;stroke:none" /></g></g></svg>