<?xml version="1.0" encoding="UTF-8" standalone="no"?>
<!-- Created with Inkscape (http://www.inkscape.org/) -->

<svg
   xmlns:dc="http://purl.org/dc/elements/1.1/"
   xmlns:cc="http://creativecommons.org/ns#"
   xmlns:rdf="http://www.w3.org/1999/02/22-rdf-syntax-ns#"
   xmlns:svg="http://www.w3.org/2000/svg"
   xmlns="http://www.w3.org/2000/svg"
   xmlns:inkscape="http://www.inkscape.org/namespaces/inkscape"
   version="1.1"
   width="115"
   height="107.5"
   id="svg2"
   xml:space="preserve"><metadata
     id="metadata8"><rdf:RDF><cc:Work
         rdf:about=""><dc:format>image/svg+xml</dc:format><dc:type
           rdf:resource="http://purl.org/dc/dcmitype/StillImage" /></cc:Work></rdf:RDF></metadata><defs
     id="defs6" /><g
     transform="matrix(1.25,0,0,-1.25,0,107.5)"
     id="g10"><g
       transform="scale(0.1,0.1)"
       id="g12"><path
         d="m 297.422,10.1602 -95.473,0 205,498.5898 c -1.871,52.809 -12.57,92.5 -32.027,119.059 -21.371,28.832 -54.301,43.281 -98.75,43.281 -52.813,0 -94.762,-17.77 -125.781,-53.281 -31.172,-36.36 -46.719,-84.84 -46.719,-145.469 l 0,-355.461 -103.902469,0 0,628.902 103.902469,0 0,-97.66 c 23.207,38.129 51.488,66.57 84.848,85.32 32.89,18.321 72.031,27.5 117.339,27.5 45.621,0 84.371,-11.64 116.25,-34.851 20.192,-14.18 37.231,-32.891 51.09,-56.09 l 74.692,182.5 95.468,0 -49.379,-120.16 c 34.379,19.07 74.071,28.601 119.071,28.601 65.39,0 115.859,-23.05 151.398,-69.062 35.629,-46.059 53.442,-111.219 53.442,-195.469 l 0,-379.531 -103.911,0 0,376.242 c 0,60.199 -10.699,104.891 -32.031,134.07 -21.25,29.258 -53.828,43.899 -97.648,43.899 -53.563,0 -95.86,-17.809 -126.879,-53.43 -31.051,-35.551 -46.563,-83.988 -46.563,-145.32 l 0,-355.461 -103.91,0 0,160 L 297.422,10.1602 z"
         inkscape:connector-curvature="0"
         id="path14"
         style="fill:#000000;fill-opacity:1;fill-rule:nonzero;stroke:none" /></g></g></svg>