<?xml version="1.0" encoding="UTF-8" standalone="no"?>
<!-- Created with Inkscape (http://www.inkscape.org/) -->

<svg
   xmlns:dc="http://purl.org/dc/elements/1.1/"
   xmlns:cc="http://creativecommons.org/ns#"
   xmlns:rdf="http://www.w3.org/1999/02/22-rdf-syntax-ns#"
   xmlns:svg="http://www.w3.org/2000/svg"
   xmlns="http://www.w3.org/2000/svg"
   xmlns:inkscape="http://www.inkscape.org/namespaces/inkscape"
   version="1.1"
   width="47.5"
   height="62.5"
   id="svg2"
   xml:space="preserve"><metadata
     id="metadata8"><rdf:RDF><cc:Work
         rdf:about=""><dc:format>image/svg+xml</dc:format><dc:type
           rdf:resource="http://purl.org/dc/dcmitype/StillImage" /></cc:Work></rdf:RDF></metadata><defs
     id="defs6" /><g
     transform="matrix(1.25,0,0,-1.25,0,62.5)"
     id="g10"><g
       transform="scale(0.1,0.1)"
       id="g12"><path
         d="m 34.7305,23.5898 0,57.8086 c 18.3203,-7.4179 36.8711,-13.1992 55.6211,-17.3476 18.7504,-3.75 37.0704,-5.6211 55.0004,-5.6211 48.32,0 85.199,14.0586 110.628,42.1913 25.071,28 39.532,70.859 43.282,128.59 -13.133,-17.621 -30.942,-31.481 -53.442,-41.563 -21.25,-9.808 -44.8,-14.687 -70.621,-14.687 -53.988,0 -96.6795,14.219 -128.1287,42.66 -31.4805,28.508 -47.191394,67.5 -47.191394,116.867 0,48.211 16.292994,86.762 48.910194,115.633 32.8906,29.25 76.4809,43.899 130.7809,43.899 62.5,0 110.039,-20.782 142.66,-62.34 32.891,-41.559 49.372,-102.032 49.372,-181.41 0,-74.18 -20,-133.122 -60,-176.8716 C 271.172,27.2188 216.91,5.14844 148.789,5.14844 130.43,5.14844 111.91,6.62891 93.1602,9.51953 74.4102,12.9609 54.9219,17.6484 34.7305,23.5898 z M 179.57,222.488 c 33.008,0 59.059,9.692 78.129,29.063 19.063,19.461 28.59,46.449 28.59,80.937 0,33.633 -9.527,60.203 -28.59,79.692 -19.07,19.879 -45.121,29.84 -78.129,29.84 -31.8,0 -57.621,-9.961 -77.5,-29.84 -19.4919,-19.489 -29.2184,-46.059 -29.2184,-79.692 0,-34.488 9.7265,-61.476 29.2184,-80.937 19.141,-19.371 45,-29.063 77.5,-29.063 z"
         inkscape:connector-curvature="0"
         id="path14"
         style="fill:#000000;fill-opacity:1;fill-rule:nonzero;stroke:none" /></g></g></svg>