<?xml version="1.0" encoding="UTF-8" standalone="no"?>
<!-- Created with Inkscape (http://www.inkscape.org/) -->

<svg
   xmlns:dc="http://purl.org/dc/elements/1.1/"
   xmlns:cc="http://creativecommons.org/ns#"
   xmlns:rdf="http://www.w3.org/1999/02/22-rdf-syntax-ns#"
   xmlns:svg="http://www.w3.org/2000/svg"
   xmlns="http://www.w3.org/2000/svg"
   xmlns:inkscape="http://www.inkscape.org/namespaces/inkscape"
   version="1.1"
   width="42.5"
   height="47.5"
   id="svg2"
   xml:space="preserve"><metadata
     id="metadata8"><rdf:RDF><cc:Work
         rdf:about=""><dc:format>image/svg+xml</dc:format><dc:type
           rdf:resource="http://purl.org/dc/dcmitype/StillImage" /></cc:Work></rdf:RDF></metadata><defs
     id="defs6" /><g
     transform="matrix(1.25,0,0,-1.25,0,47.5)"
     id="g10"><g
       transform="scale(0.1,0.1)"
       id="g12"><path
         d="m 331.68,222.219 0,-212.80884 -65,0 0,210.46084 c 0,33.328 -7.34,58.328 -22.032,75 -14.609,16.649 -36.488,25 -65.628,25 -35.231,0 -62.93,-10.07 -83.1216,-30.152 -20.2382,-20 -30.3086,-47.188 -30.3086,-81.559 l 0,-198.74984 -65.789019,0 0,352.03084 65.789019,0 0,-54.531 c 15.3086,21.012 33.5118,36.75 54.6802,47.18 21.14,10.512 45.55,15.781 73.281,15.781 45.32,0 79.609,-12.57 102.969,-37.652 23.441,-25.117 35.16,-61.797 35.16,-110 z"
         inkscape:connector-curvature="0"
         id="path14"
         style="fill:#000000;fill-opacity:1;fill-rule:nonzero;stroke:none" /></g></g></svg>