<?xml version="1.0" encoding="UTF-8" standalone="no"?>
<!-- Created with Inkscape (http://www.inkscape.org/) -->

<svg
   xmlns:dc="http://purl.org/dc/elements/1.1/"
   xmlns:cc="http://creativecommons.org/ns#"
   xmlns:rdf="http://www.w3.org/1999/02/22-rdf-syntax-ns#"
   xmlns:svg="http://www.w3.org/2000/svg"
   xmlns="http://www.w3.org/2000/svg"
   xmlns:inkscape="http://www.inkscape.org/namespaces/inkscape"
   version="1.1"
   width="46.25"
   height="62.5"
   id="svg2"
   xml:space="preserve"><metadata
     id="metadata8"><rdf:RDF><cc:Work
         rdf:about=""><dc:format>image/svg+xml</dc:format><dc:type
           rdf:resource="http://purl.org/dc/dcmitype/StillImage" /></cc:Work></rdf:RDF></metadata><defs
     id="defs6" /><g
     transform="matrix(1.25,0,0,-1.25,0,62.5)"
     id="g10"><g
       transform="scale(0.1,0.1)"
       id="g12"><path
         d="m 267.109,212.34 c -19.808,16.441 -47.109,24.68 -81.879,24.68 -34.8,0 -62.14,-8.239 -82.031,-24.68 -19.8006,-16.18 -29.6795,-38.25 -29.6795,-66.25 0,-28.442 9.8789,-50.7502 29.6795,-66.8791 19.891,-16.0507 47.231,-24.0625 82.031,-24.0625 34.379,0 61.649,8.2032 81.879,24.6914 19.879,16.0118 29.84,38.0392 29.84,66.0902 0,28.121 -9.961,50.23 -29.84,66.41 z M 112.27,264.52 c -31.4887,6.761 -55.8598,19.3 -73.1294,37.66 -17.5,18.75 -26.25,41.558 -26.25,68.441 0,37.5 15.3086,67.07 45.9375,88.75 30.7032,21.75 72.8519,32.649 126.4019,32.649 53.52,0 95.629,-10.899 126.25,-32.649 30.321,-21.68 45.469,-51.25 45.469,-88.75 0,-27.742 -8.59,-50.551 -25.777,-68.441 -17.621,-18.36 -41.953,-30.899 -72.973,-37.66 33.641,-6.79 60.981,-21.008 82.031,-42.649 C 360,201.238 369.922,175.969 369.922,146.09 369.922,100.77 354.02,65.9297 322.27,41.5508 290.078,17.3008 244.379,5.14844 185.23,5.14844 125.621,5.14844 79.9609,17.3008 48.1992,41.5508 16.0195,65.9297 -0.078125,100.77 -0.078125,146.09 c 0,29.14 9.878905,54.41 29.687525,75.781 20.1914,20.93 47.7304,35.149 82.6606,42.649 z m -27.0395,100 c 0,-23.668 8.789,-42.571 26.4105,-56.719 17.187,-13.86 41.718,-20.781 73.589,-20.781 30.321,0 54.61,6.921 72.969,20.781 17.891,13.437 26.879,32.347 26.879,56.719 0,23.519 -8.988,42.429 -26.879,56.718 -17.609,13.832 -41.949,20.782 -72.969,20.782 -31.05,0 -55.582,-6.95 -73.589,-20.782 C 94.0195,407.691 85.2305,388.781 85.2305,364.52 z"
         inkscape:connector-curvature="0"
         id="path14"
         style="fill:#000000;fill-opacity:1;fill-rule:nonzero;stroke:none" /></g></g></svg>