<?xml version="1.0" encoding="UTF-8" standalone="no"?>
<!-- Created with Inkscape (http://www.inkscape.org/) -->

<svg
   xmlns:dc="http://purl.org/dc/elements/1.1/"
   xmlns:cc="http://creativecommons.org/ns#"
   xmlns:rdf="http://www.w3.org/1999/02/22-rdf-syntax-ns#"
   xmlns:svg="http://www.w3.org/2000/svg"
   xmlns="http://www.w3.org/2000/svg"
   xmlns:inkscape="http://www.inkscape.org/namespaces/inkscape"
   version="1.1"
   width="21.25"
   height="73.75"
   id="svg2"
   xml:space="preserve"><metadata
     id="metadata8"><rdf:RDF><cc:Work
         rdf:about=""><dc:format>image/svg+xml</dc:format><dc:type
           rdf:resource="http://purl.org/dc/dcmitype/StillImage" /></cc:Work></rdf:RDF></metadata><defs
     id="defs6" /><g
     transform="matrix(1.25,0,0,-1.25,0,73.75)"
     id="g10"><g
       transform="scale(0.1,0.1)"
       id="g12"><path
         d="M 162.27,578.531 C 130.781,530.289 107.34,482.59 91.9492,435.41 76.6406,388.219 68.9805,340.449 68.9805,292.129 c 0,-48.25 7.6601,-96.18 22.9687,-143.75 C 107.34,100.879 130.781,53.1797 162.27,5.25 l -56.719,0 c -35.2424,49.0586 -61.6408,97.539 -79.2229,145.469 -17.61716,47.5 -26.406225,94.609 -26.406225,141.41 0,46.871 8.789065,94.062 26.406225,141.562 17.1914,47.188 43.5938,95.469 79.2229,144.84 l 56.719,0 z"
         inkscape:connector-curvature="0"
         id="path14"
         style="fill:#000000;fill-opacity:1;fill-rule:nonzero;stroke:none" /></g></g></svg>