<?xml version="1.0" encoding="UTF-8" standalone="no"?>
<!-- Created with Inkscape (http://www.inkscape.org/) -->

<svg
   xmlns:dc="http://purl.org/dc/elements/1.1/"
   xmlns:cc="http://creativecommons.org/ns#"
   xmlns:rdf="http://www.w3.org/1999/02/22-rdf-syntax-ns#"
   xmlns:svg="http://www.w3.org/2000/svg"
   xmlns="http://www.w3.org/2000/svg"
   xmlns:inkscape="http://www.inkscape.org/namespaces/inkscape"
   version="1.1"
   width="135"
   height="106.25"
   id="svg2"
   xml:space="preserve"><metadata
     id="metadata8"><rdf:RDF><cc:Work
         rdf:about=""><dc:format>image/svg+xml</dc:format><dc:type
           rdf:resource="http://purl.org/dc/dcmitype/StillImage" /></cc:Work></rdf:RDF></metadata><defs
     id="defs6" /><g
     transform="matrix(1.25,0,0,-1.25,0,106.25)"
     id="g10"><g
       transform="scale(0.1,0.1)"
       id="g12"><path
         d="m 68.9805,593.449 -16.8711,65.621 -52.187525,0 0,80.309 32.500025,0 -27.50002,108.91 114.68712,0 26.871,-108.91 298.129,0 27.032,108.91 127.5,0 26.879,-108.91 298.121,0 27.031,108.91 115.158,0 -27.66,-108.91 32.03,0 0,-80.309 -52.18,0 -16.25,-65.621 68.43,0 0,-80.32 -88.591,0 -126.41,-503.1173 -142.648,0 -122.352,503.1173 -109.527,0 -123.594,-503.1173 -142.656,0 -125.7814,503.1173 -89.218725,0 0,80.32 69.058625,0 z m 613.7495,-80.32 92.661,-373.43 92.66,373.43 -185.321,0 z m -36.558,145.941 16.406,-65.621 225.152,0 16.25,65.621 -257.808,0 z m -442.973,-145.941 92.66,-373.43 92.661,373.43 -185.321,0 z m 313.91,145.941 -16.25,-65.621 70.161,0 -15.79,65.621 -38.121,0 z m -350.468,0 16.41,-65.621 225.148,0 16.25,65.621 -257.808,0 z"
         inkscape:connector-curvature="0"
         id="path14"
         style="fill:#000000;fill-opacity:1;fill-rule:nonzero;stroke:none" /></g></g></svg>