<?xml version="1.0" encoding="UTF-8" standalone="no"?>
<!-- Created with Inkscape (http://www.inkscape.org/) -->

<svg
   xmlns:dc="http://purl.org/dc/elements/1.1/"
   xmlns:cc="http://creativecommons.org/ns#"
   xmlns:rdf="http://www.w3.org/1999/02/22-rdf-syntax-ns#"
   xmlns:svg="http://www.w3.org/2000/svg"
   xmlns="http://www.w3.org/2000/svg"
   xmlns:inkscape="http://www.inkscape.org/namespaces/inkscape"
   version="1.1"
   width="133.75"
   height="108.75"
   id="svg2"
   xml:space="preserve"><metadata
     id="metadata8"><rdf:RDF><cc:Work
         rdf:about=""><dc:format>image/svg+xml</dc:format><dc:type
           rdf:resource="http://purl.org/dc/dcmitype/StillImage" /></cc:Work></rdf:RDF></metadata><defs
     id="defs6" /><g
     transform="matrix(1.25,0,0,-1.25,0,108.75)"
     id="g10"><g
       transform="scale(0.1,0.1)"
       id="g12"><path
         d="m 113.199,771.48 0,-297.66 142.66,0 c 54.692,0 95.942,12.578 123.75,37.809 27.891,25.32 41.871,62.5 41.871,111.57 0,49.063 -13.98,86.012 -41.871,110.93 -27.808,24.891 -69.058,37.351 -123.75,37.351 l -142.66,0 z m 537.5,-741.2495 2.192,-3.9102 -121.871,0 L 423.828,241.32 c -27.738,56.129 -54.609,93.36 -80.629,111.719 -26.051,18.441 -61.519,27.66 -106.398,27.66 l -123.602,0 0,-354.3787 -113.429469,0 0,838.2817 256.089469,0 c 95.821,0 167.34,-20.082 214.532,-60.153 47.187,-40 70.781,-100.429 70.781,-181.25 0,-52.82 -12.301,-96.648 -36.871,-131.41 -24.5,-34.809 -60.121,-58.91 -106.879,-72.34 24.258,-8.25 47.887,-25.859 70.937,-52.82 23.012,-26.988 46.129,-64.059 69.371,-111.25 l 51.098,-101.09 c 36.641,-19.059 72.973,-33.277 108.902,-42.66 37.071,-10.109 73.79,-15.1485 110.161,-15.1485 48.629,0 86.019,8.3205 112.187,24.9995 26.25,16.641 39.371,40.149 39.371,70.469 0,28.121 -9.488,49.602 -28.429,64.531 -18.872,15 -60.282,29.411 -124.219,43.282 l -35.942,8.437 c -64.058,13.43 -110.308,34.102 -138.75,62.031 -28.437,27.891 -42.66,66.168 -42.66,114.84 0,59.141 20.942,104.84 62.821,137.032 41.949,32.187 101.48,48.277 178.589,48.277 38.2,0 74.141,-2.809 107.813,-8.43 33.75,-5.629 64.848,-14.07 93.278,-25.32 l 0,-97.649 c -29.29,15 -59.649,26.25 -91.091,33.75 -31.371,7.5 -63.91,11.25 -97.66,11.25 -51.25,0 -89.758,-7.89 -115.469,-23.601 -25.621,-15.738 -38.429,-39.328 -38.429,-70.777 0,-23.981 9.14,-42.774 27.5,-56.403 18.429,-13.679 55.347,-26.679 110.777,-39.07 l 35.313,-7.809 c 73.32,-15.742 125.39,-37.929 156.249,-66.558 30.94,-28.672 46.41,-68.672 46.41,-120 0,-58.364 -23.13,-104.5315 -69.378,-138.6018 C 950,27.1016 886.48,10.0703 805.551,10.0703 c -33.672,0 -68.672,3.3594 -105,10 -16.492,3.0508 -33.09,6.4102 -49.852,10.1602 z"
         inkscape:connector-curvature="0"
         id="path14"
         style="fill:#000000;fill-opacity:1;fill-rule:nonzero;stroke:none" /></g></g></svg>