<?xml version="1.0" encoding="UTF-8" standalone="no"?>
<!-- Created with Inkscape (http://www.inkscape.org/) -->

<svg
   xmlns:dc="http://purl.org/dc/elements/1.1/"
   xmlns:cc="http://creativecommons.org/ns#"
   xmlns:rdf="http://www.w3.org/1999/02/22-rdf-syntax-ns#"
   xmlns:svg="http://www.w3.org/2000/svg"
   xmlns="http://www.w3.org/2000/svg"
   xmlns:inkscape="http://www.inkscape.org/namespaces/inkscape"
   version="1.1"
   width="43.75"
   height="33.75"
   id="svg2"
   xml:space="preserve"><metadata
     id="metadata8"><rdf:RDF><cc:Work
         rdf:about=""><dc:format>image/svg+xml</dc:format><dc:type
           rdf:resource="http://purl.org/dc/dcmitype/StillImage" /></cc:Work></rdf:RDF></metadata><defs
     id="defs6" /><g
     transform="matrix(1.25,0,0,-1.25,0,33.75)"
     id="g10"><g
       transform="scale(0.1,0.1)"
       id="g12"><path
         d="M 308.711,262.328 C 238.398,229.98 195.898,171.23 195.898,105.609 c 0,-52.9684 36.872,-95.62853 80.622,-95.62853 39.07,0 71.41,32.34763 71.41,71.41013 0,38.1214 -26.559,65.7814 -61.09,65.7814 -11.57,0 -20.789,-3.594 -36.879,-16.25 3.437,43.906 24.219,76.09 71.41,106.09 l -12.66,25.316 z m -195.781,0 C 41.5195,229.98 -0.0390625,171.23 -0.0390625,105.609 -0.0390625,52.6406 36.8398,9.98047 80.5898,9.98047 c 39.2112,0 71.3982,32.34763 71.3982,71.41013 0,38.1214 -25.308,65.7814 -60.9372,65.7814 -12.6524,0 -20.7813,-3.594 -36.8711,-16.25 3.4414,45 24.2187,76.09 71.4103,106.09 l -12.66,25.316 z"
         inkscape:connector-curvature="0"
         id="path14"
         style="fill:#000000;fill-opacity:1;fill-rule:nonzero;stroke:none" /></g></g></svg>