<?xml version="1.0" encoding="UTF-8" standalone="no"?>
<!-- Created with Inkscape (http://www.inkscape.org/) -->

<svg
   xmlns:dc="http://purl.org/dc/elements/1.1/"
   xmlns:cc="http://creativecommons.org/ns#"
   xmlns:rdf="http://www.w3.org/1999/02/22-rdf-syntax-ns#"
   xmlns:svg="http://www.w3.org/2000/svg"
   xmlns="http://www.w3.org/2000/svg"
   xmlns:inkscape="http://www.inkscape.org/namespaces/inkscape"
   version="1.1"
   width="91.25"
   height="106.25"
   id="svg2"
   xml:space="preserve"><metadata
     id="metadata8"><rdf:RDF><cc:Work
         rdf:about=""><dc:format>image/svg+xml</dc:format><dc:type
           rdf:resource="http://purl.org/dc/dcmitype/StillImage" /></cc:Work></rdf:RDF></metadata><defs
     id="defs6" /><g
     transform="matrix(1.25,0,0,-1.25,0,106.25)"
     id="g10"><g
       transform="scale(0.1,0.1)"
       id="g12"><path
         d="m 263.871,539.539 -44.383,115.621 0,-115.621 44.383,0 z m 57.809,-151.559 -31.559,82.5 -70.633,0 0,-82.5 102.192,0 z m -212.34,460.309 152.808,0 118.442,-308.75 128.59,0 0,308.75 110,0 0,-308.75 109.531,0 0,-69.059 -109.531,0 0,-82.5 109.531,0 0,-69.07 -109.531,0 0,-308.8983 -152.66,0 -118.43,308.8983 -128.602,0 0,-308.8983 -110.148,0 0,308.8983 -109.539219,0 0,69.07 109.539219,0 0,82.5 -109.539219,0 0,69.059 109.539219,0 0,308.75 z m 297.648,-377.809 31.41,-82.5 70.782,0 0,82.5 -102.192,0 z m 57.813,-151.57 44.379,-115.781 0,115.781 -44.379,0 z"
         inkscape:connector-curvature="0"
         id="path14"
         style="fill:#000000;fill-opacity:1;fill-rule:nonzero;stroke:none" /></g></g></svg>