<?xml version="1.0" encoding="UTF-8" standalone="no"?>
<!-- Created with Inkscape (http://www.inkscape.org/) -->

<svg
   xmlns:dc="http://purl.org/dc/elements/1.1/"
   xmlns:cc="http://creativecommons.org/ns#"
   xmlns:rdf="http://www.w3.org/1999/02/22-rdf-syntax-ns#"
   xmlns:svg="http://www.w3.org/2000/svg"
   xmlns="http://www.w3.org/2000/svg"
   xmlns:inkscape="http://www.inkscape.org/namespaces/inkscape"
   version="1.1"
   width="56.25"
   height="108.75"
   id="svg2"
   xml:space="preserve"><metadata
     id="metadata8"><rdf:RDF><cc:Work
         rdf:about=""><dc:format>image/svg+xml</dc:format><dc:type
           rdf:resource="http://purl.org/dc/dcmitype/StillImage" /></cc:Work></rdf:RDF></metadata><defs
     id="defs6" /><g
     transform="matrix(1.25,0,0,-1.25,0,108.75)"
     id="g10"><g
       transform="scale(0.1,0.1)"
       id="g12"><path
         d="m 247.461,235.16 -107.191,0 0,528.43 C 128.59,760.551 116.762,756.602 104.801,751.719 71.1289,738.672 36.1289,719.609 -0.199219,694.531 l 0,105.469 C 35,821.328 70.6602,837.27 106.84,847.809 c 36.129,10.511 73.469,15.781 112.031,15.781 68.828,0 124.141,-18.199 165.93,-54.531 41.758,-36.36 62.66,-84.289 62.66,-143.75 0,-28.43 -6.801,-55.539 -20.313,-81.25 -13.437,-25.618 -37.027,-54.528 -70.777,-86.719 l -49.383,-48.281 c -17.609,-17.61 -30.078,-31.36 -37.34,-41.25 -7.308,-9.918 -12.457,-19.528 -15.468,-28.899 -2.192,-7.82 -3.871,-17.351 -5,-28.601 -1.168,-11.25 -1.719,-26.637 -1.719,-46.09 l 0,-69.059 z m -110.621,-82.5 114.058,0 0,-142.66 -114.058,0 0,142.66 z m 110.621,613.121 0,-241.402 25.309,25.312 c 21.332,19.758 36.761,38.469 46.25,56.09 9.57,17.578 14.378,35.547 14.378,53.91 0,33.321 -12.187,60.231 -36.558,80.778 -13.871,11.64 -30.32,20.082 -49.379,25.312 z"
         inkscape:connector-curvature="0"
         id="path14"
         style="fill:#000000;fill-opacity:1;fill-rule:nonzero;stroke:none" /></g></g></svg>