<?xml version="1.0" encoding="UTF-8" standalone="no"?>
<!-- Created with Inkscape (http://www.inkscape.org/) -->

<svg
   xmlns:dc="http://purl.org/dc/elements/1.1/"
   xmlns:cc="http://creativecommons.org/ns#"
   xmlns:rdf="http://www.w3.org/1999/02/22-rdf-syntax-ns#"
   xmlns:svg="http://www.w3.org/2000/svg"
   xmlns="http://www.w3.org/2000/svg"
   xmlns:inkscape="http://www.inkscape.org/namespaces/inkscape"
   version="1.1"
   width="43.75"
   height="62.5"
   id="svg2"
   xml:space="preserve"><metadata
     id="metadata8"><rdf:RDF><cc:Work
         rdf:about=""><dc:format>image/svg+xml</dc:format><dc:type
           rdf:resource="http://purl.org/dc/dcmitype/StillImage" /></cc:Work></rdf:RDF></metadata><defs
     id="defs6" /><g
     transform="matrix(1.25,0,0,-1.25,0,62.5)"
     id="g10"><g
       transform="scale(0.1,0.1)"
       id="g12"><path
         d="m 239.102,267.34 c 34.449,-6.801 61.128,-20.391 80,-40.789 18.949,-20.313 28.437,-45.852 28.437,-76.563 0,-46.476 -17.809,-82.2575 -53.437,-107.3396 -35.551,-25 -86.403,-37.49996 -152.653,-37.49996 -21.371,0 -43.7498,1.99219 -67.1873,5.94136 -23.3633,3.8594 -48.1328,9.5313 -74.382794,17.0313 l 0,67.9687 C 19.3398,85.9688 40.2305,78.4688 62.5391,73.5898 84.8008,68.6602 108.52,66.2383 133.629,66.2383 c 40.711,0 72.269,7.3828 94.691,22.1914 22.5,14.7693 33.75,35.3083 33.75,61.5583 0,27.703 -10.39,48.633 -31.09,62.813 -20.75,14.258 -51.371,21.41 -91.878,21.41 l -48.2817,0 0,60.629 52.8087,0 c 35.199,0 61.883,5.859 80,17.648 18.211,11.883 27.351,28.992 27.351,51.41 0,21.762 -9.378,38.321 -28.128,49.692 -18.75,11.441 -45.903,17.18 -81.403,17.18 -15,0 -32.039,-1.719 -51.0974,-5.149 -19.0625,-3.359 -43.8321,-9.34 -74.2227,-17.973 l 0,64.692 c 27.3906,6.32 53.0508,11.172 77.0313,14.531 23.9488,3.43 46.1798,5.149 66.7188,5.149 53.949,0 96.723,-11.09 128.281,-33.282 31.641,-22.109 47.5,-51.636 47.5,-88.59 0,-25.859 -8.43,-47.777 -25.308,-65.777 -16.801,-17.93 -40.551,-30.281 -71.25,-37.031 z"
         inkscape:connector-curvature="0"
         id="path14"
         style="fill:#000000;fill-opacity:1;fill-rule:nonzero;stroke:none" /></g></g></svg>