<?xml version="1.0" encoding="UTF-8" standalone="no"?>
<!-- Created with Inkscape (http://www.inkscape.org/) -->

<svg
   xmlns:dc="http://purl.org/dc/elements/1.1/"
   xmlns:cc="http://creativecommons.org/ns#"
   xmlns:rdf="http://www.w3.org/1999/02/22-rdf-syntax-ns#"
   xmlns:svg="http://www.w3.org/2000/svg"
   xmlns="http://www.w3.org/2000/svg"
   xmlns:inkscape="http://www.inkscape.org/namespaces/inkscape"
   version="1.1"
   width="43.75"
   height="33.75"
   id="svg2"
   xml:space="preserve"><metadata
     id="metadata8"><rdf:RDF><cc:Work
         rdf:about=""><dc:format>image/svg+xml</dc:format><dc:type
           rdf:resource="http://purl.org/dc/dcmitype/StillImage" /></cc:Work></rdf:RDF></metadata><defs
     id="defs6" /><g
     transform="matrix(1.25,0,0,-1.25,0,33.75)"
     id="g10"><g
       transform="scale(0.1,0.1)"
       id="g12"><path
         d="M 39.1797,9.98047 C 110.59,43.4219 151.988,101.078 151.988,166.699 c 0,52.973 -36.867,95.629 -80.6169,95.629 -39.0703,0 -71.4101625,-32.348 -71.4101625,-70.316 0,-39.211 26.5585625,-66.871 62.1874625,-66.871 11.5625,0 19.6914,3.589 35.7813,16.25 C 94.4883,97.4805 73.7109,66.3906 26.5195,35.3008 L 39.1797,9.98047 z m 195.7813,0 C 306.371,43.4219 347.93,101.078 347.93,166.699 c 0,52.973 -36.879,95.629 -80.629,95.629 -39.211,0 -71.403,-32.348 -71.403,-70.316 0,-37.961 26.403,-66.871 62.192,-66.871 11.398,0 19.531,3.589 35.621,16.25 C 290.27,96.3906 269.488,66.3906 222.301,35.3008 l 12.66,-25.32033 z"
         inkscape:connector-curvature="0"
         id="path14"
         style="fill:#000000;fill-opacity:1;fill-rule:nonzero;stroke:none" /></g></g></svg>