<?xml version="1.0" encoding="UTF-8" standalone="no"?>
<!-- Created with Inkscape (http://www.inkscape.org/) -->

<svg
   xmlns:dc="http://purl.org/dc/elements/1.1/"
   xmlns:cc="http://creativecommons.org/ns#"
   xmlns:rdf="http://www.w3.org/1999/02/22-rdf-syntax-ns#"
   xmlns:svg="http://www.w3.org/2000/svg"
   xmlns="http://www.w3.org/2000/svg"
   xmlns:inkscape="http://www.inkscape.org/namespaces/inkscape"
   version="1.1"
   width="77.5"
   height="120"
   id="svg2"
   xml:space="preserve"><metadata
     id="metadata8"><rdf:RDF><cc:Work
         rdf:about=""><dc:format>image/svg+xml</dc:format><dc:type
           rdf:resource="http://purl.org/dc/dcmitype/StillImage" /></cc:Work></rdf:RDF></metadata><defs
     id="defs6" /><g
     transform="matrix(1.25,0,0,-1.25,0,120)"
     id="g10"><g
       transform="scale(0.1,0.1)"
       id="g12"><path
         d="m 425,911.41 c 24.262,-3.039 48.012,-8.082 71.25,-15.148 l 16.871,58.898 87.039,0 -26.41,-92.648 c 15,-8.242 29.41,-17.621 43.281,-28.133 l 0,-119.527 c -21.801,22.378 -44.652,41.289 -68.59,56.718 l -179.062,-634.058 10.152,0 c 44.449,0 86.449,8.789 125.938,26.398 39.57,17.578 76.761,44.219 111.562,79.852 l 0,-118.602 C 580.66,98.2891 542.27,78.0508 501.879,64.5391 461.449,51.1016 418.59,44.3789 373.281,44.3789 c -10.121,0 -20,0.3906 -29.691,1.1016 l -10.149,-35.3203 -87.031,0 14.059,48.75 c -24.379,6.7617 -47.27,15.789 -68.59,27.039 l -21.258,-75.789 -87.0312,0 L 120,139.23 c -7.109,6.75 -13.828,14.059 -20.1602,21.872 -66.6796,77.5 -99.999956,183.437 -99.999956,317.808 0,134.77 33.320356,241.141 99.999956,319.07 59.8902,69.141 139.2622,107.5 238.1292,115 l 11.722,42.18 87.649,0 L 425,911.41 z M 309.84,813.602 C 255.551,802.039 211.949,775.238 179.059,733.289 132.191,674.539 108.75,589.73 108.75,478.91 c 0,-89.058 15.352,-161.32 46.09,-216.711 l 155,551.403 z m 161.719,-6.09 c -23.239,7.066 -47.418,11.328 -72.5,12.808 L 220,185.32 c 19.879,-15 41.949,-26.41 66.25,-34.218 l 185.309,656.41 z"
         inkscape:connector-curvature="0"
         id="path14"
         style="fill:#000000;fill-opacity:1;fill-rule:nonzero;stroke:none" /></g></g></svg>