<?xml version="1.0" encoding="UTF-8" standalone="no"?>
<!-- Created with Inkscape (http://www.inkscape.org/) -->

<svg
   xmlns:dc="http://purl.org/dc/elements/1.1/"
   xmlns:cc="http://creativecommons.org/ns#"
   xmlns:rdf="http://www.w3.org/1999/02/22-rdf-syntax-ns#"
   xmlns:svg="http://www.w3.org/2000/svg"
   xmlns="http://www.w3.org/2000/svg"
   xmlns:inkscape="http://www.inkscape.org/namespaces/inkscape"
   version="1.1"
   width="82.5"
   height="103.75"
   id="svg2"
   xml:space="preserve"><metadata
     id="metadata8"><rdf:RDF><cc:Work
         rdf:about=""><dc:format>image/svg+xml</dc:format><dc:type
           rdf:resource="http://purl.org/dc/dcmitype/StillImage" /></cc:Work></rdf:RDF></metadata><defs
     id="defs6" /><g
     transform="matrix(1.25,0,0,-1.25,0,103.75)"
     id="g10"><g
       transform="scale(0.1,0.1)"
       id="g12"><path
         d="m 23.0898,371.691 -23.1288625,-66.722 67.9687625,0 C 108.238,125.129 237.301,9.96875 399.801,9.96875 c 75.937,0 142.82,24.22265 200.469,72.66015 l 0,79.3711 c -30,-32.18 -46.09,-46.09 -67.969,-59.84 C 494.18,79.1914 449.34,65.2813 413.551,65.2813 c -77.18,0 -157.813,55.3207 -198.121,135.9377 -16.09,30 -25.309,57.66 -34.532,103.75 l 252.34,0 22.973,66.722 -283.441,0 c -2.18,18.438 -2.18,28.911 -2.18,42.661 0,9.218 0,19.527 1.09,35.777 l 312.191,0 22.969,66.723 -327.039,0 c 28.75,156.718 110.469,252.339 217.66,252.339 62.187,0 126.719,-35.781 167.027,-91.089 16.102,-21.883 26.563,-37.973 55.313,-86.25 l 31.097,0 -21.878,207.339 -32.18,0 -19.692,-48.441 c -57.5,51.879 -117.5,73.75 -200.468,73.75 -95.629,0 -202.66,-71.398 -260.309,-172.809 C 93.3984,610.129 76.0508,565.281 66.8398,516.852 l -43.75,0 -23.1288625,-66.723 57.6601625,0 c -1.1016,-15 -1.1016,-23.129 -1.1016,-34.688 0,-13.75 0,-25.312 1.1016,-43.75 l -34.5313,0 z"
         inkscape:connector-curvature="0"
         id="path14"
         style="fill:#000000;fill-opacity:1;fill-rule:nonzero;stroke:none" /></g></g></svg>