<?xml version="1.0" encoding="UTF-8" standalone="no"?>
<!-- Created with Inkscape (http://www.inkscape.org/) -->

<svg
   xmlns:dc="http://purl.org/dc/elements/1.1/"
   xmlns:cc="http://creativecommons.org/ns#"
   xmlns:rdf="http://www.w3.org/1999/02/22-rdf-syntax-ns#"
   xmlns:svg="http://www.w3.org/2000/svg"
   xmlns="http://www.w3.org/2000/svg"
   xmlns:inkscape="http://www.inkscape.org/namespaces/inkscape"
   version="1.1"
   width="115"
   height="20"
   id="svg2"
   xml:space="preserve"><metadata
     id="metadata8"><rdf:RDF><cc:Work
         rdf:about=""><dc:format>image/svg+xml</dc:format><dc:type
           rdf:resource="http://purl.org/dc/dcmitype/StillImage" /></cc:Work></rdf:RDF></metadata><defs
     id="defs6" /><g
     transform="matrix(1.25,0,0,-1.25,0,20)"
     id="g10"><g
       transform="scale(0.1,0.1)"
       id="g12"><path
         d="M 74.8789,157.5 C 33.3203,157.5 0.0390625,125.148 0.0390625,84.8398 0.0390625,43.4297 33.3203,10 73.7891,10 c 40.3129,0 73.5899,33.4297 73.5899,73.75 0,40.309 -33.277,73.75 -72.5001,73.75 z m 385.9411,0 c -41.558,0 -74.84,-32.352 -74.84,-72.6602 C 385.98,43.4297 419.262,10 459.73,10 c 40.309,0 73.59,33.4297 73.59,73.75 0,40.309 -33.281,73.75 -72.5,73.75 z m 384.692,0 C 804.102,157.5 770.66,125.148 770.66,84.8398 770.66,43.4297 804.102,10 844.41,10 c 40.32,0 73.75,33.4297 73.75,73.75 0,40.309 -33.43,73.75 -72.648,73.75 z"
         inkscape:connector-curvature="0"
         id="path14"
         style="fill:#000000;fill-opacity:1;fill-rule:nonzero;stroke:none" /></g></g></svg>