<?xml version="1.0" encoding="UTF-8" standalone="no"?>
<!-- Created with Inkscape (http://www.inkscape.org/) -->

<svg
   xmlns:dc="http://purl.org/dc/elements/1.1/"
   xmlns:cc="http://creativecommons.org/ns#"
   xmlns:rdf="http://www.w3.org/1999/02/22-rdf-syntax-ns#"
   xmlns:svg="http://www.w3.org/2000/svg"
   xmlns="http://www.w3.org/2000/svg"
   xmlns:inkscape="http://www.inkscape.org/namespaces/inkscape"
   version="1.1"
   width="47.5"
   height="62.5"
   id="svg2"
   xml:space="preserve"><metadata
     id="metadata8"><rdf:RDF><cc:Work
         rdf:about=""><dc:format>image/svg+xml</dc:format><dc:type
           rdf:resource="http://purl.org/dc/dcmitype/StillImage" /></cc:Work></rdf:RDF></metadata><defs
     id="defs6" /><g
     transform="matrix(1.25,0,0,-1.25,0,62.5)"
     id="g10"><g
       transform="scale(0.1,0.1)"
       id="g12"><path
         d="m 34.7305,27.8398 0,57.8204 c 18.3203,-7.4297 36.8711,-13.211 55.6211,-17.3516 18.7504,-3.75 37.0704,-5.6172 55.0004,-5.6172 48.32,0 85.199,14.0586 110.628,42.1796 25.071,28.008 39.532,70.859 43.282,128.598 -13.133,-17.617 -30.942,-31.489 -53.442,-41.559 -21.25,-9.808 -44.8,-14.691 -70.621,-14.691 -53.988,0 -96.6795,14.222 -128.1287,42.652 -31.4805,28.52 -47.191394,67.5 -47.191394,116.879 0,48.199 16.292994,86.762 48.910194,115.621 32.8906,29.258 76.4809,43.91 130.7809,43.91 62.5,0 110.039,-20.781 142.66,-62.34 32.891,-41.57 49.372,-102.031 49.372,-181.41 0,-74.179 -20,-133.121 -60,-176.8708 C 271.172,31.4805 216.91,9.41016 148.789,9.41016 c -18.359,0 -36.879,1.44144 -55.6288,4.37114 -18.75,3.4375 -38.2383,8.1289 -58.4297,14.0585 z M 179.57,226.75 c 33.008,0 59.059,9.691 78.129,29.059 19.063,19.461 28.59,46.453 28.59,80.941 0,33.629 -9.527,60.199 -28.59,79.691 -19.07,19.879 -45.121,29.84 -78.129,29.84 -31.8,0 -57.621,-9.961 -77.5,-29.84 -19.4919,-19.492 -29.2184,-46.062 -29.2184,-79.691 0,-34.488 9.7265,-61.48 29.2184,-80.941 19.141,-19.368 45,-29.059 77.5,-29.059 z"
         inkscape:connector-curvature="0"
         id="path14"
         style="fill:#000000;fill-opacity:1;fill-rule:nonzero;stroke:none" /></g></g></svg>