<?xml version="1.0" encoding="UTF-8" standalone="no"?>
<!-- Created with Inkscape (http://www.inkscape.org/) -->

<svg
   xmlns:dc="http://purl.org/dc/elements/1.1/"
   xmlns:cc="http://creativecommons.org/ns#"
   xmlns:rdf="http://www.w3.org/1999/02/22-rdf-syntax-ns#"
   xmlns:svg="http://www.w3.org/2000/svg"
   xmlns="http://www.w3.org/2000/svg"
   xmlns:inkscape="http://www.inkscape.org/namespaces/inkscape"
   version="1.1"
   width="162.5"
   height="108.75"
   id="svg2"
   xml:space="preserve"><metadata
     id="metadata8"><rdf:RDF><cc:Work
         rdf:about=""><dc:format>image/svg+xml</dc:format><dc:type
           rdf:resource="http://purl.org/dc/dcmitype/StillImage" /></cc:Work></rdf:RDF></metadata><defs
     id="defs6" /><g
     transform="matrix(1.25,0,0,-1.25,0,108.75)"
     id="g10"><g
       transform="scale(0.1,0.1)"
       id="g12"><path
         d="m 106.48,771.48 0,-315 134.219,0 c 49.77,0 88.211,13.629 115.321,40.93 27.179,27.391 40.781,66.328 40.781,116.879 0,50.082 -13.602,88.789 -40.781,116.09 -27.11,27.391 -65.551,41.101 -115.321,41.101 l -134.219,0 z M 508.52,598.512 C 506.328,523.59 484.059,466.32 441.801,426.629 396.051,384.328 329.02,363.199 240.699,363.199 l -134.219,0 0,-336.8787 -106.710469,0 0,838.2817 240.929469,0 c 88.321,0 155.352,-21.172 201.102,-63.442 32.5,-30.621 53.277,-71.398 62.34,-122.34 l 45.468,0 0,178.59 97.661,0 0,-178.59 200.46,0 0,-80.308 -200.46,0 0,-341.41 c 0,-51.25 6.601,-84.223 19.839,-98.903 13.321,-14.609 40.192,-21.879 80.621,-21.879 l 96.098,0 0,19.692 C 879.77,136.199 915.23,121.32 950.23,111.32 c 35,-9.922 69.54,-14.8395 103.6,-14.8395 45.62,0 80.78,8.3205 105.47,24.9995 24.76,16.641 37.18,40.149 37.18,70.469 0,28.121 -8.9,49.602 -26.71,64.531 -17.82,15 -56.84,29.411 -117.04,43.282 l -33.75,8.437 c -60.308,13.43 -103.859,34.102 -130.621,62.031 -26.679,27.891 -40,66.168 -40,114.84 0,59.141 19.731,104.84 59.219,137.032 39.453,32.187 95.512,48.277 168.122,48.277 35.94,0 69.69,-2.809 101.25,-8.43 31.64,-5.629 60.98,-14.07 87.97,-25.32 l 0,-97.649 c -27.73,15 -56.37,26.25 -85.94,33.75 -29.6,7.5 -60.27,11.25 -92.03,11.25 -48.36,0 -84.61,-7.89 -108.751,-23.601 -24.058,-15.738 -36.09,-39.328 -36.09,-70.777 0,-23.981 8.672,-42.774 26.09,-56.403 17.391,-13.679 52.071,-26.679 104.071,-39.07 l 33.12,-7.809 c 69.26,-15.742 118.36,-37.929 147.34,-66.558 29.07,-28.672 43.6,-68.672 43.6,-120 0,-58.364 -21.84,-104.5315 -65.47,-138.6018 -43.56,-34.0586 -103.36,-51.0899 -179.38,-51.0899 -31.79,0 -64.8,3.2813 -99.058,9.8399 -34.301,6.5703 -70.473,16.3281 -108.594,29.3789 l 0,0.6211 -96.098,0 c -75.23,0 -127.031,14.8515 -155.46,44.539 -28.442,29.7618 -42.661,83.9808 -42.661,162.6528 l 0,341.41 -41.089,0 z"
         inkscape:connector-curvature="0"
         id="path14"
         style="fill:#000000;fill-opacity:1;fill-rule:nonzero;stroke:none" /></g></g></svg>