<?xml version="1.0" encoding="UTF-8" standalone="no"?>
<!-- Created with Inkscape (http://www.inkscape.org/) -->

<svg
   xmlns:dc="http://purl.org/dc/elements/1.1/"
   xmlns:cc="http://creativecommons.org/ns#"
   xmlns:rdf="http://www.w3.org/1999/02/22-rdf-syntax-ns#"
   xmlns:svg="http://www.w3.org/2000/svg"
   xmlns="http://www.w3.org/2000/svg"
   xmlns:inkscape="http://www.inkscape.org/namespaces/inkscape"
   version="1.1"
   width="21.25"
   height="73.75"
   id="svg2"
   xml:space="preserve"><metadata
     id="metadata8"><rdf:RDF><cc:Work
         rdf:about=""><dc:format>image/svg+xml</dc:format><dc:type
           rdf:resource="http://purl.org/dc/dcmitype/StillImage" /></cc:Work></rdf:RDF></metadata><defs
     id="defs6" /><g
     transform="matrix(1.25,0,0,-1.25,0,73.75)"
     id="g10"><g
       transform="scale(0.1,0.1)"
       id="g12"><path
         d="m -0.121094,578.531 56.722694,0 C 92.2305,529.16 118.789,480.879 136.289,433.691 153.551,386.191 162.23,339 162.23,292.129 c 0,-46.801 -8.679,-93.91 -25.941,-141.41 C 118.789,102.789 92.2305,54.3086 56.6016,5.25 l -56.722694,0 C 31.3281,53.1797 54.7305,100.879 70.0391,148.379 c 15.6992,47.57 23.5898,95.5 23.5898,143.75 0,48.32 -7.8906,96.09 -23.5898,143.281 -15.3086,47.18 -38.711,94.879 -70.160194,143.121 z"
         inkscape:connector-curvature="0"
         id="path14"
         style="fill:#000000;fill-opacity:1;fill-rule:nonzero;stroke:none" /></g></g></svg>