<?xml version="1.0" encoding="UTF-8" standalone="no"?>
<!-- Created with Inkscape (http://www.inkscape.org/) -->

<svg
   xmlns:dc="http://purl.org/dc/elements/1.1/"
   xmlns:cc="http://creativecommons.org/ns#"
   xmlns:rdf="http://www.w3.org/1999/02/22-rdf-syntax-ns#"
   xmlns:svg="http://www.w3.org/2000/svg"
   xmlns="http://www.w3.org/2000/svg"
   xmlns:inkscape="http://www.inkscape.org/namespaces/inkscape"
   version="1.1"
   width="21.25"
   height="73.75"
   id="svg2"
   xml:space="preserve"><metadata
     id="metadata8"><rdf:RDF><cc:Work
         rdf:about=""><dc:format>image/svg+xml</dc:format><dc:type
           rdf:resource="http://purl.org/dc/dcmitype/StillImage" /></cc:Work></rdf:RDF></metadata><defs
     id="defs6" /><g
     transform="matrix(1.25,0,0,-1.25,0,73.75)"
     id="g10"><g
       transform="scale(0.1,0.1)"
       id="g12"><path
         d="M 162.27,582.789 C 130.781,534.551 107.34,486.852 91.9492,439.66 76.6406,392.48 68.9805,344.699 68.9805,296.379 c 0,-48.238 7.6601,-96.168 22.9687,-143.75 C 107.34,105.129 130.781,57.3984 162.27,9.51172 l -56.719,0 C 70.3086,58.5703 43.9102,107.051 26.3281,154.98 8.71094,202.48 -0.078125,249.59 -0.078125,296.379 c 0,46.883 8.789065,94.07 26.406225,141.57 17.1914,47.18 43.5938,95.461 79.2229,144.84 l 56.719,0 z"
         inkscape:connector-curvature="0"
         id="path14"
         style="fill:#000000;fill-opacity:1;fill-rule:nonzero;stroke:none" /></g></g></svg>