<?xml version="1.0" encoding="UTF-8" standalone="no"?>
<!-- Created with Inkscape (http://www.inkscape.org/) -->

<svg
   xmlns:dc="http://purl.org/dc/elements/1.1/"
   xmlns:cc="http://creativecommons.org/ns#"
   xmlns:rdf="http://www.w3.org/1999/02/22-rdf-syntax-ns#"
   xmlns:svg="http://www.w3.org/2000/svg"
   xmlns="http://www.w3.org/2000/svg"
   xmlns:inkscape="http://www.inkscape.org/namespaces/inkscape"
   version="1.1"
   width="47.5"
   height="62.5"
   id="svg2"
   xml:space="preserve"><metadata
     id="metadata8"><rdf:RDF><cc:Work
         rdf:about=""><dc:format>image/svg+xml</dc:format><dc:type
           rdf:resource="http://purl.org/dc/dcmitype/StillImage" /></cc:Work></rdf:RDF></metadata><defs
     id="defs6" /><g
     transform="matrix(1.25,0,0,-1.25,0,62.5)"
     id="g10"><g
       transform="scale(0.1,0.1)"
       id="g12"><path
         d="m 192.461,278.941 c -32.93,0 -58.91,-9.769 -77.973,-29.222 -19.1794,-19.918 -28.7497,-46.879 -28.7497,-80.938 0,-33.672 9.5703,-60.23 28.7497,-79.6912 19.063,-19.8007 45.043,-29.6796 77.973,-29.6796 32.578,0 58.437,9.8789 77.5,29.6796 19.141,19.4612 28.75,46.0192 28.75,79.6912 0,34.059 -9.609,61.02 -28.75,80.938 -19.063,19.453 -44.922,29.222 -77.5,29.222 z m 144.84,198.75 0,-57.82 c -18.352,7.5 -36.832,13.129 -55.461,16.879 -18.75,4.059 -37.309,6.09 -55.629,6.09 -47.93,0 -84.609,-14.02 -110,-42.031 -25.5508,-28.547 -40.1602,-71.399 -43.9102,-128.59 14.2578,18.32 32.0782,32.34 53.4372,42.031 21.641,9.77 45.203,14.691 70.633,14.691 54.367,0 97.219,-14.3 128.59,-42.82 31.449,-28.75 47.187,-67.891 47.187,-117.34 0,-47.5 -16.488,-86.0505 -49.378,-115.6208 C 290.16,23.9805 246.719,9.41016 192.461,9.41016 129.961,9.41016 82.2305,30.1914 49.3398,71.75 16.4102,113.309 -0.0390625,173.699 -0.0390625,253 c 0,74.141 20.1992625,133.121 60.6288625,176.871 40.3902,44.258 94.6802,66.41 162.8082,66.41 18.321,0 36.872,-1.519 55.622,-4.531 18.64,-3.441 38.05,-8.129 58.281,-14.059 z"
         inkscape:connector-curvature="0"
         id="path14"
         style="fill:#000000;fill-opacity:1;fill-rule:nonzero;stroke:none" /></g></g></svg>