<?xml version="1.0" encoding="UTF-8" standalone="no"?>
<!-- Created with Inkscape (http://www.inkscape.org/) -->

<svg
   xmlns:dc="http://purl.org/dc/elements/1.1/"
   xmlns:cc="http://creativecommons.org/ns#"
   xmlns:rdf="http://www.w3.org/1999/02/22-rdf-syntax-ns#"
   xmlns:svg="http://www.w3.org/2000/svg"
   xmlns="http://www.w3.org/2000/svg"
   xmlns:inkscape="http://www.inkscape.org/namespaces/inkscape"
   version="1.1"
   width="81.25"
   height="133.75"
   id="svg2"
   xml:space="preserve"><metadata
     id="metadata8"><rdf:RDF><cc:Work
         rdf:about=""><dc:format>image/svg+xml</dc:format><dc:type
           rdf:resource="http://purl.org/dc/dcmitype/StillImage" /></cc:Work></rdf:RDF></metadata><defs
     id="defs6" /><g
     transform="matrix(1.25,0,0,-1.25,0,133.75)"
     id="g10"><g
       transform="scale(0.1,0.1)"
       id="g12"><path
         d="m 458.629,723.449 0,187.5 -182.969,0 0,70.321 182.969,0 0,82.5 103.281,0 0,-82.5 86.57,0 0,-70.321 -86.57,0 0,-720.929 -103.281,0 0,94.371 c -21.68,-37.5 -49.059,-65.313 -82.18,-83.442 C 343.32,182.828 303.52,173.77 257.07,173.77 c -75.941,0 -137.808,30.308 -185.6208,90.929 -47.7383,60.629 -71.570294,140.352 -71.570294,239.223 0,98.828 23.831994,178.598 71.570294,239.219 47.8128,60.629 109.6798,90.937 185.6208,90.937 46.45,0 86.25,-9.137 119.379,-27.348 33.121,-18.121 60.5,-45.89 82.18,-83.281 z M 106.602,503.922 c 0,-76.051 15.628,-135.703 46.878,-178.902 31.25,-43.25 74.219,-64.848 128.899,-64.848 54.57,0 97.582,21.598 129.07,64.848 31.442,43.199 47.18,102.851 47.18,178.902 0,75.937 -15.738,135.508 -47.18,178.75 -31.488,43.316 -74.5,65 -129.07,65 -54.68,0 -97.649,-21.684 -128.899,-65 -31.25,-43.242 -46.878,-102.813 -46.878,-178.75 z m 29.378,-407.0314 335.93,0 0,-83.1211 -335.93,0 0,83.1211 z"
         inkscape:connector-curvature="0"
         id="path14"
         style="fill:#000000;fill-opacity:1;fill-rule:nonzero;stroke:none" /></g></g></svg>