<?xml version="1.0" encoding="UTF-8" standalone="no"?>
<!-- Created with Inkscape (http://www.inkscape.org/) -->

<svg
   xmlns:dc="http://purl.org/dc/elements/1.1/"
   xmlns:cc="http://creativecommons.org/ns#"
   xmlns:rdf="http://www.w3.org/1999/02/22-rdf-syntax-ns#"
   xmlns:svg="http://www.w3.org/2000/svg"
   xmlns="http://www.w3.org/2000/svg"
   xmlns:inkscape="http://www.inkscape.org/namespaces/inkscape"
   version="1.1"
   width="42.5"
   height="61.25"
   id="svg2"
   xml:space="preserve"><metadata
     id="metadata8"><rdf:RDF><cc:Work
         rdf:about=""><dc:format>image/svg+xml</dc:format><dc:type
           rdf:resource="http://purl.org/dc/dcmitype/StillImage" /></cc:Work></rdf:RDF></metadata><defs
     id="defs6" /><g
     transform="matrix(1.25,0,0,-1.25,0,61.25)"
     id="g10"><g
       transform="scale(0.1,0.1)"
       id="g12"><path
         d="m 97.5781,69.0508 238.1209,0 0,-63.90236 -335.777125,0 0,61.72266 C 12.6211,78.4297 30.7383,94.7188 54.3008,115.77 183.121,229.91 247.578,304.602 247.578,339.84 c 0,24.68 -9.769,44.57 -29.219,59.68 -19.488,15.199 -45.16,22.82 -77.031,22.82 -19.379,0 -40.547,-3.289 -63.4374,-9.852 C 55.0781,405.93 30.1602,396.09 3.19922,382.961 l 0,69.059 c 28.83208,10.511 55.71098,18.359 80.62888,23.601 24.8829,5.309 48.0119,7.969 69.3709,7.969 54.262,0 97.66,-12.43 130.16,-37.192 32.582,-24.687 48.911,-57.269 48.911,-97.66 0,-52.109 -61.961,-131.25 -185.79,-237.5 C 125.551,93.1992 109.219,79.1289 97.5781,69.0508 z"
         inkscape:connector-curvature="0"
         id="path14"
         style="fill:#000000;fill-opacity:1;fill-rule:nonzero;stroke:none" /></g></g></svg>