<?xml version="1.0" encoding="UTF-8" standalone="no"?>
<!-- Created with Inkscape (http://www.inkscape.org/) -->

<svg
   xmlns:dc="http://purl.org/dc/elements/1.1/"
   xmlns:cc="http://creativecommons.org/ns#"
   xmlns:rdf="http://www.w3.org/1999/02/22-rdf-syntax-ns#"
   xmlns:svg="http://www.w3.org/2000/svg"
   xmlns="http://www.w3.org/2000/svg"
   xmlns:inkscape="http://www.inkscape.org/namespaces/inkscape"
   version="1.1"
   width="126.25"
   height="111.25"
   id="svg2"
   xml:space="preserve"><metadata
     id="metadata8"><rdf:RDF><cc:Work
         rdf:about=""><dc:format>image/svg+xml</dc:format><dc:type
           rdf:resource="http://purl.org/dc/dcmitype/StillImage" /></cc:Work></rdf:RDF></metadata><defs
     id="defs6" /><g
     transform="matrix(1.25,0,0,-1.25,0,111.25)"
     id="g10"><g
       transform="scale(0.1,0.1)"
       id="g12"><path
         d="m 723.871,879.91 89.84,0 -523.441,-869.8514 -89.84,0 L 723.871,879.91 z M 895.27,275.219 c 34.46,-6.797 61.14,-20.391 80,-40.778 18.949,-20.32 28.44,-45.863 28.44,-76.57 0,-46.48 -17.812,-82.2616 -53.44,-107.3397 -35.54,-25 -86.399,-37.5 -152.649,-37.5 -21.371,0 -43.75,1.9882 -67.191,5.9375 C 707.07,22.8398 682.301,28.5 656.051,36 l 0,67.969 c 19.461,-10.1174 40.359,-17.6174 62.66,-22.5002 22.269,-4.918 45.98,-7.3477 71.09,-7.3477 40.711,0 72.269,7.3906 94.687,22.1875 22.5,14.7694 33.75,35.3124 33.75,61.5624 0,27.699 -10.386,48.641 -31.09,62.82 -20.738,14.258 -51.367,21.399 -91.878,21.399 l -48.282,0 0,60.629 52.813,0 c 35.199,0 61.879,5.859 80,17.652 18.211,11.879 27.347,28.988 27.347,51.41 0,21.758 -9.378,38.321 -28.128,49.688 -18.75,11.441 -45.899,17.191 -81.399,17.191 -15,0 -32.031,-1.719 -51.101,-5.16 -19.059,-3.359 -43.821,-9.34 -74.219,-17.969 l 0,64.688 c 27.39,6.332 53.051,11.172 77.039,14.531 23.941,3.441 46.172,5.16 66.711,5.16 53.949,0 96.719,-11.101 128.289,-33.289 31.64,-22.101 47.5,-51.641 47.5,-88.59 0,-25.859 -8.442,-47.769 -25.32,-65.781 -16.79,-17.93 -40.54,-30.27 -71.25,-37.031 z M 271.051,781.621 c -18.672,32.188 -46.871,48.289 -84.68,48.289 -37.82,0 -66.101,-16.101 -84.851,-48.289 -19.0591,-32.18 -28.5903,-80.543 -28.5903,-145 0,-64.68 9.5312,-113.121 28.5903,-145.312 18.75,-32.188 47.031,-48.278 84.851,-48.278 37.809,0 66.008,16.09 84.68,48.278 19.148,32.191 28.75,80.632 28.75,145.312 0,64.457 -9.602,112.82 -28.75,145 z m -84.68,98.289 c 60.188,0 106.168,-20.789 137.969,-62.351 31.871,-41.559 47.808,-101.868 47.808,-180.938 0,-79.293 -15.937,-139.68 -47.808,-181.25 -31.801,-41.562 -77.781,-62.34 -137.969,-62.34 -60.633,0 -106.8827,20.778 -138.7499,62.34 -31.8008,41.57 -47.6601625,101.957 -47.6601625,181.25 0,79.07 15.8593625,139.379 47.6601625,180.938 31.8672,41.562 78.1169,62.351 138.7499,62.351 z"
         inkscape:connector-curvature="0"
         id="path14"
         style="fill:#000000;fill-opacity:1;fill-rule:nonzero;stroke:none" /></g></g></svg>