<?xml version="1.0" encoding="UTF-8" standalone="no"?>
<!-- Created with Inkscape (http://www.inkscape.org/) -->

<svg
   xmlns:dc="http://purl.org/dc/elements/1.1/"
   xmlns:cc="http://creativecommons.org/ns#"
   xmlns:rdf="http://www.w3.org/1999/02/22-rdf-syntax-ns#"
   xmlns:svg="http://www.w3.org/2000/svg"
   xmlns="http://www.w3.org/2000/svg"
   xmlns:inkscape="http://www.inkscape.org/namespaces/inkscape"
   version="1.1"
   width="125"
   height="111.25"
   id="svg2"
   xml:space="preserve"><metadata
     id="metadata8"><rdf:RDF><cc:Work
         rdf:about=""><dc:format>image/svg+xml</dc:format><dc:type
           rdf:resource="http://purl.org/dc/dcmitype/StillImage" /></cc:Work></rdf:RDF></metadata><defs
     id="defs6" /><g
     transform="matrix(1.25,0,0,-1.25,0,111.25)"
     id="g10"><g
       transform="scale(0.1,0.1)"
       id="g12"><path
         d="m 695.738,879.91 89.852,0 -523.442,-869.8514 -89.847,0 L 695.738,879.91 z M 10.5898,463.191 l 114.5312,0 0,343.118 -125.320219,-23.118 0,65.149 129.219219,21.879 76.878,0 0,-407.028 115.153,0 0,-61.722 -310.4612,0 0,61.722 z M 654.34,31.4688 l 0,57.8125 c 18.32,-7.4219 36.871,-13.2032 55.621,-17.3399 18.75,-3.75 37.07,-5.6328 55,-5.6328 48.32,0 85.199,14.0625 110.629,42.1914 25.07,28.012 39.531,70.859 43.281,128.59 -13.133,-17.61 -30.941,-31.481 -53.441,-41.559 -21.25,-9.801 -44.809,-14.691 -70.629,-14.691 -53.981,0 -96.68,14.219 -128.121,42.66 -31.481,28.52 -47.192,67.5 -47.192,116.871 0,48.207 16.293,86.758 48.91,115.629 32.891,29.262 76.481,43.91 130.782,43.91 62.5,0 110.039,-20.789 142.66,-62.351 32.89,-41.559 49.371,-102.028 49.371,-181.399 0,-74.18 -20,-133.129 -60,-176.8787 -40.43,-44.1797 -94.691,-66.25 -162.813,-66.25 -18.359,0 -36.878,1.4882 -55.628,4.3789 -18.75,3.4296 -38.239,8.1211 -58.43,14.0586 z M 799.18,230.371 c 33.011,0 59.058,9.688 78.121,29.07 19.07,19.45 28.597,46.438 28.597,80.93 0,33.641 -9.527,60.199 -28.597,79.688 -19.063,19.89 -45.11,29.851 -78.121,29.851 -31.801,0 -57.621,-9.961 -77.5,-29.851 -19.489,-19.489 -29.219,-46.047 -29.219,-79.688 0,-34.492 9.73,-61.48 29.219,-80.93 19.14,-19.382 45,-29.07 77.5,-29.07 z"
         inkscape:connector-curvature="0"
         id="path14"
         style="fill:#000000;fill-opacity:1;fill-rule:nonzero;stroke:none" /></g></g></svg>