<?xml version="1.0" encoding="UTF-8" standalone="no"?>
<!-- Created with Inkscape (http://www.inkscape.org/) -->

<svg
   xmlns:dc="http://purl.org/dc/elements/1.1/"
   xmlns:cc="http://creativecommons.org/ns#"
   xmlns:rdf="http://www.w3.org/1999/02/22-rdf-syntax-ns#"
   xmlns:svg="http://www.w3.org/2000/svg"
   xmlns="http://www.w3.org/2000/svg"
   xmlns:inkscape="http://www.inkscape.org/namespaces/inkscape"
   version="1.1"
   width="126.25"
   height="111.25"
   id="svg2"
   xml:space="preserve"><metadata
     id="metadata8"><rdf:RDF><cc:Work
         rdf:about=""><dc:format>image/svg+xml</dc:format><dc:type
           rdf:resource="http://purl.org/dc/dcmitype/StillImage" /></cc:Work></rdf:RDF></metadata><defs
     id="defs6" /><g
     transform="matrix(1.25,0,0,-1.25,0,111.25)"
     id="g10"><g
       transform="scale(0.1,0.1)"
       id="g12"><path
         d="m 239.102,655.219 c 34.449,-6.797 61.128,-20.391 80,-40.778 18.949,-20.32 28.437,-45.863 28.437,-76.57 0,-46.48 -17.809,-82.262 -53.437,-107.34 -35.551,-25 -86.403,-37.5 -152.653,-37.5 -21.371,0 -43.7498,1.918 -67.1873,5.778 C 50.8984,402.762 26.1289,408.5 -0.121094,416 l 0,67.969 C 19.3398,473.852 40.2305,466.352 62.5391,461.469 c 22.2617,-4.918 45.9809,-7.348 71.0899,-7.348 40.711,0 72.269,7.391 94.691,22.188 22.5,14.769 33.75,35.312 33.75,61.562 0,27.699 -10.39,48.641 -31.09,62.82 -20.75,14.258 -51.371,21.399 -91.878,21.399 l -48.2817,0 0,60.629 52.8087,0 c 35.199,0 61.883,5.859 80,17.652 18.211,11.879 27.351,28.988 27.351,51.41 0,21.758 -9.378,38.321 -28.128,49.688 -18.75,11.441 -45.903,17.191 -81.403,17.191 -15,0 -32.039,-1.719 -51.0974,-5.16 -19.0625,-3.359 -43.8321,-9.34 -74.2227,-17.969 l 0,64.688 c 27.3906,6.332 53.0508,11.172 77.0313,14.531 23.9488,3.441 46.1798,5.16 66.7188,5.16 53.949,0 96.723,-11.101 128.281,-33.289 31.641,-22.101 47.5,-51.641 47.5,-88.59 0,-25.859 -8.43,-47.769 -25.308,-65.781 -16.801,-17.93 -40.551,-30.27 -71.25,-37.031 z m 478.597,224.691 89.84,0 -523.437,-869.8514 -89.84,0 523.437,869.8514 z m -43.129,-389.691 286.41,0 0,-53.278 -219.531,0 0,-114.531 c 10.5,3.32 21.172,5.781 32.031,7.34 10.391,1.449 20.86,2.191 31.399,2.191 60.32,0 108.012,-14.461 143.133,-43.281 35.187,-28.441 52.808,-67.191 52.808,-116.25 0,-50.551 -18.121,-89.8084 -54.371,-117.8202 -35.937,-27.7304 -86.879,-41.5585 -152.82,-41.5585 -22.418,0 -45.43,1.6796 -69.059,5 -23.55,3.3593 -47.66,8.3593 -72.34,15.1601 l 0,63.4297 c 21.25,-10.1094 43.469,-17.7695 66.719,-22.9609 23.199,-4.9297 47.731,-7.3516 73.59,-7.3516 41.563,0 74.449,9.5312 98.75,28.6016 24.371,19.1408 36.563,44.9998 36.563,77.4998 0,32.57 -12.192,58.43 -36.563,77.5 -24.301,19.141 -57.187,28.75 -98.75,28.75 -19.488,0 -38.988,-1.879 -58.437,-5.629 -19.493,-3.75 -39.332,-9.609 -59.532,-17.5 l 0,234.688 z"
         inkscape:connector-curvature="0"
         id="path14"
         style="fill:#000000;fill-opacity:1;fill-rule:nonzero;stroke:none" /></g></g></svg>