<?xml version="1.0" encoding="UTF-8" standalone="no"?>
<!-- Created with Inkscape (http://www.inkscape.org/) -->

<svg
   xmlns:dc="http://purl.org/dc/elements/1.1/"
   xmlns:cc="http://creativecommons.org/ns#"
   xmlns:rdf="http://www.w3.org/1999/02/22-rdf-syntax-ns#"
   xmlns:svg="http://www.w3.org/2000/svg"
   xmlns="http://www.w3.org/2000/svg"
   xmlns:inkscape="http://www.inkscape.org/namespaces/inkscape"
   version="1.1"
   width="138.75"
   height="103.75"
   id="svg2"
   xml:space="preserve"><metadata
     id="metadata8"><rdf:RDF><cc:Work
         rdf:about=""><dc:format>image/svg+xml</dc:format><dc:type
           rdf:resource="http://purl.org/dc/dcmitype/StillImage" /></cc:Work></rdf:RDF></metadata><defs
     id="defs6" /><g
     transform="matrix(1.25,0,0,-1.25,0,103.75)"
     id="g10"><g
       transform="scale(0.1,0.1)"
       id="g12"><path
         d="m 737.34,546.91 c 0,153.121 -2.34,172.809 21.879,202.649 11.562,12.66 21.871,21.882 43.75,21.882 26.562,0 21.871,-6.882 46.09,-34.531 19.531,-22.969 27.66,-30 46.101,-30 28.75,0 52.961,20.781 52.961,46.09 0,41.559 -45,70.309 -118.59,70.309 -62.34,0 -106.09,-5.778 -138.281,-56.399 -25.309,-40.32 -19.691,-164.691 -19.691,-220 l 0,-334.219 -307.5,597.969 -256.868,0 0,-35.789 28.75,-3.43 c 59.84,-7.972 74.84,-32.191 74.84,-126.722 l 0,-351.25 c 0,-153.278 2.34,-179.848 -21.871,-209.6877 -11.57,-12.6602 -21.879,-21.8711 -43.75,-21.8711 -26.57,0 -21.879,6.8711 -46.1014,34.5312 C 79.5313,119.41 71.4102,126.281 52.9688,126.281 24.2188,126.281 0,105.66 0,80.3398 0,38.7813 45,10.0313 118.59,10.0313 c 62.351,0 106.101,5.7773 138.289,56.4101 25.312,40.3086 19.68,164.6796 19.68,219.9996 l 0,415.93 359.382,-676.2499 101.399,0 0,520.7889 z m 361.72,-331.879 -336.4,0 0,-57.5 336.4,0 0,57.5 z m -162.501,395.16 c -97.809,0 -176.25,-77.191 -176.25,-175.16 0,-99.062 76.101,-177.34 172.812,-177.34 96.719,0 172.819,77.18 172.819,176.25 0,99.059 -73.75,176.25 -169.381,176.25 z m -1.09,-65.632 c 57.652,0 104.841,-49.528 104.841,-110.618 0,-62.191 -47.189,-110.632 -107.189,-110.632 -58.742,0 -108.281,49.531 -108.281,110.632 0,61.09 48.441,110.618 110.629,110.618 z"
         inkscape:connector-curvature="0"
         id="path14"
         style="fill:#000000;fill-opacity:1;fill-rule:nonzero;stroke:none" /></g></g></svg>