<?xml version="1.0" encoding="UTF-8" standalone="no"?>
<!-- Created with Inkscape (http://www.inkscape.org/) -->

<svg
   xmlns:dc="http://purl.org/dc/elements/1.1/"
   xmlns:cc="http://creativecommons.org/ns#"
   xmlns:rdf="http://www.w3.org/1999/02/22-rdf-syntax-ns#"
   xmlns:svg="http://www.w3.org/2000/svg"
   xmlns="http://www.w3.org/2000/svg"
   xmlns:inkscape="http://www.inkscape.org/namespaces/inkscape"
   version="1.1"
   width="127.5"
   height="111.25"
   id="svg2"
   xml:space="preserve"><metadata
     id="metadata8"><rdf:RDF><cc:Work
         rdf:about=""><dc:format>image/svg+xml</dc:format><dc:type
           rdf:resource="http://purl.org/dc/dcmitype/StillImage" /></cc:Work></rdf:RDF></metadata><defs
     id="defs6" /><g
     transform="matrix(1.25,0,0,-1.25,0,111.25)"
     id="g10"><g
       transform="scale(0.1,0.1)"
       id="g12"><path
         d="m 22.3008,870.219 286.4102,0 0,-53.278 -219.5313,0 0,-114.531 c 10.5117,3.32 21.1723,5.781 32.0313,7.34 10.391,1.449 20.859,2.191 31.41,2.191 60.309,0 108,-14.461 143.117,-43.281 35.203,-28.441 52.813,-67.191 52.813,-116.25 0,-50.551 -18.121,-89.808 -54.371,-117.82 -35.942,-27.731 -86.879,-41.559 -152.809,-41.559 -22.422,0 -45.4296,1.641 -69.0702,5 -23.5508,3.321 -47.6524,8.36 -72.3398625,15.16 l 0,63.43 C 21.2109,466.512 43.4414,458.852 66.6797,453.66 c 23.1992,-4.93 47.7303,-7.351 73.5903,-7.351 41.57,0 74.46,9.531 98.75,28.601 24.378,19.141 36.57,45 36.57,77.5 0,32.57 -12.192,58.43 -36.57,77.5 -24.29,19.141 -57.18,28.75 -98.75,28.75 -19.489,0 -38.981,-1.879 -58.4302,-5.629 -19.5,-3.75 -39.3398,-9.609 -59.539,-17.5 l 0,234.688 z m 693.1292,9.691 89.84,0 -523.43,-869.8514 -89.852,0 L 715.43,879.91 z M 836.84,282.559 c -32.93,0 -58.91,-9.758 -77.969,-29.219 -19.18,-19.918 -28.75,-46.871 -28.75,-80.93 0,-33.68 9.57,-60.238 28.75,-79.6912 19.059,-19.8086 45.039,-29.6875 77.969,-29.6875 32.57,0 58.43,9.8789 77.5,29.6875 19.14,19.4532 28.75,46.0112 28.75,79.6912 0,34.059 -9.61,61.012 -28.75,80.93 -19.07,19.461 -44.93,29.219 -77.5,29.219 z m 144.84,198.75 0,-57.809 c -18.36,7.5 -36.84,13.121 -55.469,16.871 -18.75,4.07 -37.301,6.098 -55.621,6.098 -47.93,0 -84.61,-14.02 -110,-42.028 -25.551,-28.562 -40.16,-71.41 -43.91,-128.601 14.261,18.32 32.07,32.351 53.441,42.031 21.641,9.77 45.188,14.688 70.617,14.688 54.383,0 97.231,-14.289 128.602,-42.809 31.44,-28.75 47.18,-67.891 47.18,-117.34 0,-47.5 -16.48,-86.0584 -49.372,-115.6287 -32.617,-29.1797 -76.058,-43.75 -130.308,-43.75 -62.5,0 -110.238,20.7773 -143.129,62.3398 -32.93,41.5699 -49.371,101.9569 -49.371,181.2499 0,74.149 20.191,133.129 60.621,176.879 40.391,44.262 94.687,66.41 162.809,66.41 18.32,0 36.878,-1.531 55.628,-4.539 18.633,-3.43 38.051,-8.121 58.282,-14.062 z"
         inkscape:connector-curvature="0"
         id="path14"
         style="fill:#000000;fill-opacity:1;fill-rule:nonzero;stroke:none" /></g></g></svg>