<?xml version="1.0" encoding="UTF-8" standalone="no"?>
<!-- Created with Inkscape (http://www.inkscape.org/) -->

<svg
   xmlns:dc="http://purl.org/dc/elements/1.1/"
   xmlns:cc="http://creativecommons.org/ns#"
   xmlns:rdf="http://www.w3.org/1999/02/22-rdf-syntax-ns#"
   xmlns:svg="http://www.w3.org/2000/svg"
   xmlns="http://www.w3.org/2000/svg"
   xmlns:inkscape="http://www.inkscape.org/namespaces/inkscape"
   version="1.1"
   width="127.5"
   height="111.25"
   id="svg2"
   xml:space="preserve"><metadata
     id="metadata8"><rdf:RDF><cc:Work
         rdf:about=""><dc:format>image/svg+xml</dc:format><dc:type
           rdf:resource="http://purl.org/dc/dcmitype/StillImage" /></cc:Work></rdf:RDF></metadata><defs
     id="defs6" /><g
     transform="matrix(1.25,0,0,-1.25,0,111.25)"
     id="g10"><g
       transform="scale(0.1,0.1)"
       id="g12"><path
         d="m 239.102,655.219 c 34.449,-6.797 61.128,-20.391 80,-40.778 18.949,-20.32 28.437,-45.863 28.437,-76.57 0,-46.48 -17.809,-82.262 -53.437,-107.34 -35.551,-25 -86.403,-37.5 -152.653,-37.5 -21.371,0 -43.7498,1.918 -67.1873,5.778 C 50.8984,402.762 26.1289,408.5 -0.121094,416 l 0,67.969 C 19.3398,473.852 40.2305,466.352 62.5391,461.469 c 22.2617,-4.918 45.9809,-7.348 71.0899,-7.348 40.711,0 72.269,7.391 94.691,22.188 22.5,14.769 33.75,35.312 33.75,61.562 0,27.699 -10.39,48.641 -31.09,62.82 -20.75,14.258 -51.371,21.399 -91.878,21.399 l -48.2817,0 0,60.629 52.8087,0 c 35.199,0 61.883,5.859 80,17.652 18.211,11.879 27.351,28.988 27.351,51.41 0,21.758 -9.378,38.321 -28.128,49.688 -18.75,11.441 -45.903,17.191 -81.403,17.191 -15,0 -32.039,-1.719 -51.0974,-5.16 -19.0625,-3.359 -43.8321,-9.34 -74.2227,-17.969 l 0,64.688 c 27.3906,6.332 53.0508,11.172 77.0313,14.531 23.9488,3.441 46.1798,5.16 66.7188,5.16 53.949,0 96.723,-11.101 128.281,-33.289 31.641,-22.101 47.5,-51.641 47.5,-88.59 0,-25.859 -8.43,-47.769 -25.308,-65.781 -16.801,-17.93 -40.551,-30.27 -71.25,-37.031 z m 478.597,224.691 89.84,0 -523.437,-869.8514 -89.84,0 L 717.699,879.91 z M 912.07,220.219 c -19.8,16.441 -47.109,24.691 -81.871,24.691 -34.808,0 -62.148,-8.25 -82.039,-24.691 -19.801,-16.168 -29.68,-38.239 -29.68,-66.25 0,-28.438 9.879,-50.739 29.68,-66.8792 19.891,-16.0507 47.231,-24.0585 82.039,-24.0585 34.371,0 61.641,8.1992 81.871,24.6875 19.879,16.0112 29.84,38.0512 29.84,66.0902 0,28.132 -9.961,50.242 -29.84,66.41 z M 757.23,272.41 c -31.492,6.75 -55.859,19.289 -73.128,37.649 -17.5,18.75 -26.25,41.562 -26.25,68.441 0,37.5 15.308,67.07 45.937,88.75 30.699,21.762 72.852,32.66 126.41,32.66 53.512,0 95.621,-10.898 126.25,-32.66 30.313,-21.68 45.461,-51.25 45.461,-88.75 0,-27.73 -8.59,-50.551 -25.781,-68.441 -17.609,-18.36 -41.949,-30.899 -72.969,-37.649 33.641,-6.801 60.981,-21.019 82.039,-42.66 19.761,-20.629 29.681,-45.898 29.681,-75.781 0,-45.309 -15.9,-80.1604 -47.65,-104.5276 -32.191,-24.2617 -77.89,-36.4101 -137.031,-36.4101 -59.609,0 -105.277,12.1484 -137.039,36.4101 -32.18,24.3672 -48.281,59.2186 -48.281,104.5276 0,29.14 9.891,54.41 29.691,75.781 20.2,20.941 47.731,35.16 82.66,42.66 z m -27.031,100 c 0,-23.68 8.781,-42.582 26.403,-56.719 17.187,-13.871 41.718,-20.781 73.597,-20.781 30.313,0 54.602,6.91 72.961,20.781 17.891,13.43 26.879,32.34 26.879,56.719 0,23.512 -8.988,42.418 -26.879,56.711 -17.609,13.828 -41.949,20.789 -72.961,20.789 -31.058,0 -55.59,-6.961 -73.597,-20.789 C 738.98,415.57 730.199,396.66 730.199,372.41 z"
         inkscape:connector-curvature="0"
         id="path14"
         style="fill:#000000;fill-opacity:1;fill-rule:nonzero;stroke:none" /></g></g></svg>