<?xml version="1.0" encoding="UTF-8" standalone="no"?>
<!-- Created with Inkscape (http://www.inkscape.org/) -->

<svg
   xmlns:dc="http://purl.org/dc/elements/1.1/"
   xmlns:cc="http://creativecommons.org/ns#"
   xmlns:rdf="http://www.w3.org/1999/02/22-rdf-syntax-ns#"
   xmlns:svg="http://www.w3.org/2000/svg"
   xmlns="http://www.w3.org/2000/svg"
   xmlns:inkscape="http://www.inkscape.org/namespaces/inkscape"
   version="1.1"
   width="125"
   height="111.25"
   id="svg2"
   xml:space="preserve"><metadata
     id="metadata8"><rdf:RDF><cc:Work
         rdf:about=""><dc:format>image/svg+xml</dc:format><dc:type
           rdf:resource="http://purl.org/dc/dcmitype/StillImage" /></cc:Work></rdf:RDF></metadata><defs
     id="defs6" /><g
     transform="matrix(1.25,0,0,-1.25,0,111.25)"
     id="g10"><g
       transform="scale(0.1,0.1)"
       id="g12"><path
         d="m 10.5898,463.191 114.5312,0 0,343.118 -125.320219,-23.118 0,65.149 129.219219,21.879 76.878,0 0,-407.028 115.153,0 0,-61.722 -310.4612,0 0,61.722 z m 685.1482,416.719 89.852,0 -523.442,-869.8514 -89.847,0 523.437,869.8514 z m 121.41,-597.351 c -32.929,0 -58.91,-9.758 -77.968,-29.219 -19.18,-19.918 -28.75,-46.871 -28.75,-80.93 0,-33.68 9.57,-60.238 28.75,-79.6912 19.058,-19.8086 45.039,-29.6875 77.968,-29.6875 32.582,0 58.442,9.8789 77.5,29.6875 19.141,19.4532 28.75,46.0112 28.75,79.6912 0,34.059 -9.609,61.012 -28.75,80.93 -19.058,19.461 -44.918,29.219 -77.5,29.219 z m 144.84,198.75 0,-57.809 c -18.359,7.5 -36.828,13.121 -55.468,16.871 -18.75,4.07 -37.301,6.098 -55.622,6.098 -47.929,0 -84.609,-14.02 -110,-42.028 -25.546,-28.562 -40.16,-71.41 -43.91,-128.601 14.262,18.32 32.071,32.351 53.442,42.031 21.64,9.77 45.191,14.688 70.621,14.688 54.379,0 97.23,-14.289 128.597,-42.809 31.442,-28.75 47.192,-67.891 47.192,-117.34 0,-47.5 -16.488,-86.0584 -49.379,-115.6287 -32.621,-29.1797 -76.051,-43.75 -130.313,-43.75 -62.5,0 -110.238,20.7773 -143.128,62.3398 -32.93,41.5699 -49.372,101.9569 -49.372,181.2499 0,74.149 20.192,133.129 60.622,176.879 40.39,44.262 94.691,66.41 162.82,66.41 18.32,0 36.871,-1.531 55.621,-4.539 18.629,-3.43 38.051,-8.121 58.277,-14.062 z"
         inkscape:connector-curvature="0"
         id="path14"
         style="fill:#000000;fill-opacity:1;fill-rule:nonzero;stroke:none" /></g></g></svg>