<?xml version="1.0" encoding="UTF-8" standalone="no"?>
<!-- Created with Inkscape (http://www.inkscape.org/) -->

<svg
   xmlns:dc="http://purl.org/dc/elements/1.1/"
   xmlns:cc="http://creativecommons.org/ns#"
   xmlns:rdf="http://www.w3.org/1999/02/22-rdf-syntax-ns#"
   xmlns:svg="http://www.w3.org/2000/svg"
   xmlns="http://www.w3.org/2000/svg"
   xmlns:inkscape="http://www.inkscape.org/namespaces/inkscape"
   version="1.1"
   width="130"
   height="60"
   id="svg2"
   xml:space="preserve"><metadata
     id="metadata8"><rdf:RDF><cc:Work
         rdf:about=""><dc:format>image/svg+xml</dc:format><dc:type
           rdf:resource="http://purl.org/dc/dcmitype/StillImage" /></cc:Work></rdf:RDF></metadata><defs
     id="defs6" /><g
     transform="matrix(1.25,0,0,-1.25,0,60)"
     id="g10"><g
       transform="scale(0.1,0.1)"
       id="g12"><path
         d="m 407.852,470.02 -367.5004,0 L 0.0390625,343.301 29.8789,331.73 c 19.6914,34.54 31.1016,48.442 48.4414,64.54 26.5587,23.121 62.1917,37.96 88.7497,37.96 12.66,0 18.442,-5.621 18.442,-21.871 l 0,-309.839 c 0,-52.9692 -8.133,-66.8794 -39.223,-69.0708 l -31.09,-2.3398 0,-31.0898687 217.653,0 0,31.0898687 -31.09,2.3398 C 271.91,35.6406 262.699,50.6406 262.699,102.52 l 0,306.402 c 0,19.687 4.531,25.308 17.18,25.308 18.441,0 52.973,-13.75 76.101,-29.839 24.219,-17.34 37.969,-34.532 59.84,-72.661 l 32.34,11.571 -40.308,126.719 z M 732.699,0.0195313 893.949,391.73 l 0,-289.21 c 0,-54.2192 -6.879,-65.6294 -40.32,-69.0708 l -20.777,-3.4297 0,-29.9999687 199.378,0 0,29.9999687 -20.78,3.4297 c -33.438,3.4414 -40.321,16.1016 -40.321,69.0708 l 0,265 c 0,52.96 6.883,65.621 40.321,69.058 l 20.78,3.442 0,30 -159.07,0 -135.93,-322.5 -105.941,322.5 -168.129,0 0,-30 20.629,-3.442 c 33.441,-3.437 40.313,-15 40.313,-69.058 l 0,-265 c 0,-52.9692 -7.973,-66.8794 -39.063,-69.0708 l -26.559,-3.4297 0,-29.9999687 180.93,0 0,29.9999687 -27.648,3.4297 C 580.66,35.6406 572.539,50.6406 572.539,102.52 l 0,295 133.59,-397.5004687 26.57,0 z"
         inkscape:connector-curvature="0"
         id="path14"
         style="fill:#000000;fill-opacity:1;fill-rule:nonzero;stroke:none" /></g></g></svg>