<?xml version="1.0" encoding="UTF-8" standalone="no"?>
<!-- Created with Inkscape (http://www.inkscape.org/) -->

<svg
   xmlns:dc="http://purl.org/dc/elements/1.1/"
   xmlns:cc="http://creativecommons.org/ns#"
   xmlns:rdf="http://www.w3.org/1999/02/22-rdf-syntax-ns#"
   xmlns:svg="http://www.w3.org/2000/svg"
   xmlns="http://www.w3.org/2000/svg"
   xmlns:inkscape="http://www.inkscape.org/namespaces/inkscape"
   version="1.1"
   width="92.5"
   height="43.75"
   id="svg2"
   xml:space="preserve"><metadata
     id="metadata8"><rdf:RDF><cc:Work
         rdf:about=""><dc:format>image/svg+xml</dc:format><dc:type
           rdf:resource="http://purl.org/dc/dcmitype/StillImage" /></cc:Work></rdf:RDF></metadata><defs
     id="defs6" /><g
     transform="matrix(1.25,0,0,-1.25,0,43.75)"
     id="g10"><g
       transform="scale(0.1,0.1)"
       id="g12"><path
         d="m 271.02,321.391 0,-50 c -31.879,12.699 -56.02,20.82 -72.348,24.379 -16.25,3.511 -31.684,5.308 -46.25,5.308 -24.301,0 -43.082,-3.988 -56.4025,-11.879 -13.25,-7.808 -19.8476,-20.539 -19.8476,-38.121 0,-14.918 4.3789,-25.387 13.1289,-31.406 8.75,-5.942 26.0082,-11.012 51.8712,-15.152 l 31.558,-5 c 41.879,-6.801 72.661,-18.25 92.348,-34.379 19.692,-16.051 29.531,-36.25 29.531,-60.621 0,-29.5005 -13.519,-52.7817 -40.468,-69.8481 C 227.148,17.6797 187.461,9.19922 135.078,9.19922 c -19.488,0 -39.9999,1.76168 -61.5585,5.32028 -21.4882,3.5118 -45.4687,9.211 -72.03903,17.0313 l 0,53.8984 C 35.5508,69.7109 61.8789,59.5898 80.5508,55.1406 c 18.75,-4.4922 36.9102,-6.7187 54.5272,-6.7187 25.82,0 45.703,4.0976 59.692,12.3476 14.058,8.1993 21.089,21.711 21.089,40.4605 0,16.45 -5.16,28.598 -15.468,36.411 -10.231,7.89 -27.153,13.75 -50.782,17.5 l -31.41,5 c -41.8709,6.757 -72.1092,17.339 -90.6209,31.718 -18.55857,14.45 -27.808569,33.121 -27.808569,55.942 0,26.949 12.890669,49.058 38.749969,66.25 25.8203,17.179 61.9105,25.777 108.2815,25.777 19.14,0 38.508,-1.406 58.121,-4.219 19.687,-2.808 41.719,-7.578 66.098,-14.218 z m 80.152,12.808 103.437,0 90.313,-190.929 91.098,190.929 103.281,0 0,-318.8982 -77.5,0 0,226.8712 -78.602,-166.2501 -75.777,0 -79.223,166.2501 0,-226.8712 -77.027,0 0,318.8982 z"
         inkscape:connector-curvature="0"
         id="path14"
         style="fill:#000000;fill-opacity:1;fill-rule:nonzero;stroke:none" /></g></g></svg>