<?xml version="1.0" encoding="UTF-8" standalone="no"?>
<!-- Created with Inkscape (http://www.inkscape.org/) -->

<svg
   xmlns:dc="http://purl.org/dc/elements/1.1/"
   xmlns:cc="http://creativecommons.org/ns#"
   xmlns:rdf="http://www.w3.org/1999/02/22-rdf-syntax-ns#"
   xmlns:svg="http://www.w3.org/2000/svg"
   xmlns="http://www.w3.org/2000/svg"
   xmlns:inkscape="http://www.inkscape.org/namespaces/inkscape"
   version="1.1"
   width="126.25"
   height="111.25"
   id="svg2"
   xml:space="preserve"><metadata
     id="metadata8"><rdf:RDF><cc:Work
         rdf:about=""><dc:format>image/svg+xml</dc:format><dc:type
           rdf:resource="http://purl.org/dc/dcmitype/StillImage" /></cc:Work></rdf:RDF></metadata><defs
     id="defs6" /><g
     transform="matrix(1.25,0,0,-1.25,0,111.25)"
     id="g10"><g
       transform="scale(0.1,0.1)"
       id="g12"><path
         d="m -0.121094,870.219 346.410094,0 0,-26.879 -195.309,-441.871 -76.4097,0 184.2187,415.472 -258.910094,0 0,53.278 z M 712.07,879.91 l 89.84,0 -523.43,-869.8514 -89.851,0 L 712.07,879.91 z M 906.449,220.219 c -19.808,16.441 -47.109,24.691 -81.879,24.691 -34.8,0 -62.148,-8.25 -82.031,-24.691 -19.809,-16.168 -29.687,-38.239 -29.687,-66.25 0,-28.438 9.878,-50.739 29.687,-66.8792 19.883,-16.0507 47.231,-24.0585 82.031,-24.0585 34.379,0 61.641,8.1992 81.879,24.6875 19.879,16.0112 29.84,38.0512 29.84,66.0902 0,28.132 -9.961,50.242 -29.84,66.41 z M 751.602,272.41 c -31.481,6.75 -55.864,19.289 -73.122,37.649 -17.5,18.75 -26.25,41.562 -26.25,68.441 0,37.5 15.309,67.07 45.93,88.75 30.711,21.762 72.86,32.66 126.41,32.66 53.52,0 95.629,-10.898 126.25,-32.66 30.309,-21.68 45.469,-51.25 45.469,-88.75 0,-27.73 -8.59,-50.551 -25.777,-68.441 -17.621,-18.36 -41.961,-30.899 -72.973,-37.649 33.633,-6.801 60.981,-21.019 82.031,-42.66 19.77,-20.629 29.69,-45.898 29.69,-75.781 0,-45.309 -15.901,-80.1604 -47.658,-104.5276 C 929.41,25.1797 883.711,13.0313 824.57,13.0313 c -59.609,0 -105.269,12.1484 -137.031,36.4101 -32.187,24.3672 -48.277,59.2186 -48.277,104.5276 0,29.14 9.879,54.41 29.687,75.781 20.192,20.941 47.731,35.16 82.653,42.66 z m -27.032,100 c 0,-23.68 8.789,-42.582 26.41,-56.719 17.18,-13.871 41.719,-20.781 73.59,-20.781 30.309,0 54.61,6.91 72.969,20.781 17.891,13.43 26.871,32.34 26.871,56.719 0,23.512 -8.98,42.418 -26.871,56.711 -17.617,13.828 -41.949,20.789 -72.969,20.789 -31.05,0 -55.59,-6.961 -73.59,-20.789 C 733.359,415.57 724.57,396.66 724.57,372.41 z"
         inkscape:connector-curvature="0"
         id="path14"
         style="fill:#000000;fill-opacity:1;fill-rule:nonzero;stroke:none" /></g></g></svg>