<?xml version="1.0" encoding="UTF-8" standalone="no"?>
<!-- Created with Inkscape (http://www.inkscape.org/) -->

<svg
   xmlns:dc="http://purl.org/dc/elements/1.1/"
   xmlns:cc="http://creativecommons.org/ns#"
   xmlns:rdf="http://www.w3.org/1999/02/22-rdf-syntax-ns#"
   xmlns:svg="http://www.w3.org/2000/svg"
   xmlns="http://www.w3.org/2000/svg"
   xmlns:inkscape="http://www.inkscape.org/namespaces/inkscape"
   version="1.1"
   width="81.25"
   height="135"
   id="svg2"
   xml:space="preserve"><metadata
     id="metadata8"><rdf:RDF><cc:Work
         rdf:about=""><dc:format>image/svg+xml</dc:format><dc:type
           rdf:resource="http://purl.org/dc/dcmitype/StillImage" /></cc:Work></rdf:RDF></metadata><defs
     id="defs6" /><g
     transform="matrix(1.25,0,0,-1.25,0,135)"
     id="g10"><g
       transform="scale(0.1,0.1)"
       id="g12"><path
         d="M 118.672,928.609 0.230469,1077.98 l 77.968731,0 93.2808,-99.839 93.29,99.839 77.96,0 -118.429,-149.371 -105.629,0 z m 521.406,-539.058 0,-379.5315 -103.277,0 0,376.2505 c 0,59.449 -11.641,103.98 -34.852,133.589 -23.121,29.571 -57.929,44.371 -104.371,44.371 -55.859,0 -99.848,-17.808 -132.027,-53.429 C 233.359,475.25 217.27,426.809 217.27,365.48 l 0,-355.4605 -103.911,0 0,873.7505 103.911,0 0,-342.5 c 24.679,37.808 53.781,66.011 87.339,84.679 33.512,18.75 72.192,28.129 115.942,28.129 72.258,0 126.91,-22.418 163.898,-67.187 37.071,-44.692 55.629,-110.469 55.629,-197.34 z"
         inkscape:connector-curvature="0"
         id="path14"
         style="fill:#000000;fill-opacity:1;fill-rule:nonzero;stroke:none" /></g></g></svg>