<?xml version="1.0" encoding="UTF-8" standalone="no"?>
<!-- Created with Inkscape (http://www.inkscape.org/) -->

<svg
   xmlns:dc="http://purl.org/dc/elements/1.1/"
   xmlns:cc="http://creativecommons.org/ns#"
   xmlns:rdf="http://www.w3.org/1999/02/22-rdf-syntax-ns#"
   xmlns:svg="http://www.w3.org/2000/svg"
   xmlns="http://www.w3.org/2000/svg"
   xmlns:inkscape="http://www.inkscape.org/namespaces/inkscape"
   version="1.1"
   width="126.25"
   height="111.25"
   id="svg2"
   xml:space="preserve"><metadata
     id="metadata8"><rdf:RDF><cc:Work
         rdf:about=""><dc:format>image/svg+xml</dc:format><dc:type
           rdf:resource="http://purl.org/dc/dcmitype/StillImage" /></cc:Work></rdf:RDF></metadata><defs
     id="defs6" /><g
     transform="matrix(1.25,0,0,-1.25,0,111.25)"
     id="g10"><g
       transform="scale(0.1,0.1)"
       id="g12"><path
         d="m 97.5781,465.371 238.1209,0 0,-63.902 -335.777125,0 0,61.722 C 12.6211,474.75 30.7383,491.039 54.3008,512.09 183.121,626.23 247.578,700.922 247.578,736.16 c 0,24.68 -9.769,44.57 -29.219,59.68 -19.488,15.199 -45.16,22.82 -77.031,22.82 -19.379,0 -40.547,-3.289 -63.4374,-9.851 C 55.0781,802.25 30.1602,792.41 3.19922,779.281 l 0,69.059 c 28.83208,10.512 55.71098,18.359 80.62888,23.601 24.8829,5.309 48.0119,7.969 69.3709,7.969 54.262,0 97.66,-12.43 130.16,-37.191 32.582,-24.688 48.911,-57.27 48.911,-97.66 0,-52.11 -61.961,-131.25 -185.79,-237.5 -20.929,-18.039 -37.261,-32.11 -48.9019,-42.188 z m 622.3439,414.539 89.848,0 -523.442,-869.8514 -89.848,0 523.442,869.8514 z m -43.121,-389.691 286.398,0 0,-53.278 -219.527,0 0,-114.531 c 10.508,3.32 21.168,5.781 32.027,7.34 10.391,1.449 20.86,2.191 31.41,2.191 60.313,0 108.012,-14.461 143.121,-43.281 35.2,-28.441 52.82,-67.191 52.82,-116.25 0,-50.551 -18.128,-89.8084 -54.378,-117.8202 C 912.73,26.8594 861.801,13.0313 795.859,13.0313 c -22.418,0 -45.429,1.6796 -69.058,5 -23.563,3.3593 -47.66,8.3593 -72.352,15.1601 l 0,63.4297 c 21.25,-10.1094 43.481,-17.7695 66.723,-22.9609 23.207,-4.9297 47.738,-7.3516 73.598,-7.3516 41.558,0 74.449,9.5312 98.75,28.6016 24.371,19.1408 36.558,44.9998 36.558,77.4998 0,32.57 -12.187,58.43 -36.558,77.5 -24.301,19.141 -57.192,28.75 -98.75,28.75 -19.5,0 -38.989,-1.879 -58.442,-5.629 -19.488,-3.75 -39.34,-9.609 -59.527,-17.5 l 0,234.688 z"
         inkscape:connector-curvature="0"
         id="path14"
         style="fill:#000000;fill-opacity:1;fill-rule:nonzero;stroke:none" /></g></g></svg>