<?xml version="1.0" encoding="UTF-8" standalone="no"?>
<!-- Created with Inkscape (http://www.inkscape.org/) -->

<svg
   xmlns:dc="http://purl.org/dc/elements/1.1/"
   xmlns:cc="http://creativecommons.org/ns#"
   xmlns:rdf="http://www.w3.org/1999/02/22-rdf-syntax-ns#"
   xmlns:svg="http://www.w3.org/2000/svg"
   xmlns="http://www.w3.org/2000/svg"
   xmlns:inkscape="http://www.inkscape.org/namespaces/inkscape"
   version="1.1"
   width="182.5"
   height="111.25"
   id="svg2"
   xml:space="preserve"><metadata
     id="metadata8"><rdf:RDF><cc:Work
         rdf:about=""><dc:format>image/svg+xml</dc:format><dc:type
           rdf:resource="http://purl.org/dc/dcmitype/StillImage" /></cc:Work></rdf:RDF></metadata><defs
     id="defs6" /><g
     transform="matrix(1.25,0,0,-1.25,0,111.25)"
     id="g10"><g
       transform="scale(0.1,0.1)"
       id="g12"><path
         d="m 695.738,879.91 89.852,0 -523.442,-869.8514 -89.847,0 L 695.738,879.91 z M 10.5898,463.191 l 114.5312,0 0,343.118 -125.320219,-23.118 0,65.149 129.219219,21.879 76.878,0 0,-407.028 115.153,0 0,-61.722 -310.4612,0 0,61.722 z M 660.59,83.1914 l 114.531,0 0,343.1176 -125.32,-23.118 0,65.149 129.219,21.879 76.878,0 0,-407.0276 115.153,0 0,-61.7226 -310.461,0 0,61.7226 z m 692.34,318.4296 c -18.67,32.188 -46.88,48.289 -84.69,48.289 -37.81,0 -66.09,-16.101 -84.84,-48.289 -19.06,-32.18 -28.6,-80.543 -28.6,-145 0,-64.68 9.54,-113.121 28.6,-145.312 18.75,-32.1879 47.03,-48.2777 84.84,-48.2777 37.81,0 66.02,16.0898 84.69,48.2777 19.14,32.191 28.75,80.632 28.75,145.312 0,64.457 -9.61,112.82 -28.75,145 z m -84.69,98.289 c 60.2,0 106.17,-20.789 137.97,-62.351 31.88,-41.559 47.81,-101.868 47.81,-180.938 0,-79.293 -15.93,-139.68 -47.81,-181.2499 -31.8,-41.5625 -77.77,-62.3398 -137.97,-62.3398 -60.62,0 -106.87,20.7773 -138.75,62.3398 -31.79,41.5699 -47.65,101.9569 -47.65,181.2499 0,79.07 15.86,139.379 47.65,180.938 31.88,41.562 78.13,62.351 138.75,62.351 z"
         inkscape:connector-curvature="0"
         id="path14"
         style="fill:#000000;fill-opacity:1;fill-rule:nonzero;stroke:none" /></g></g></svg>