<?xml version="1.0" encoding="UTF-8" standalone="no"?>
<!-- Created with Inkscape (http://www.inkscape.org/) -->

<svg
   xmlns:dc="http://purl.org/dc/elements/1.1/"
   xmlns:cc="http://creativecommons.org/ns#"
   xmlns:rdf="http://www.w3.org/1999/02/22-rdf-syntax-ns#"
   xmlns:svg="http://www.w3.org/2000/svg"
   xmlns="http://www.w3.org/2000/svg"
   xmlns:inkscape="http://www.inkscape.org/namespaces/inkscape"
   version="1.1"
   width="127.5"
   height="111.25"
   id="svg2"
   xml:space="preserve"><metadata
     id="metadata8"><rdf:RDF><cc:Work
         rdf:about=""><dc:format>image/svg+xml</dc:format><dc:type
           rdf:resource="http://purl.org/dc/dcmitype/StillImage" /></cc:Work></rdf:RDF></metadata><defs
     id="defs6" /><g
     transform="matrix(1.25,0,0,-1.25,0,111.25)"
     id="g10"><g
       transform="scale(0.1,0.1)"
       id="g12"><path
         d="m 22.3008,870.219 286.4102,0 0,-53.278 -219.5313,0 0,-114.531 c 10.5117,3.32 21.1723,5.781 32.0313,7.34 10.391,1.449 20.859,2.191 31.41,2.191 60.309,0 108,-14.461 143.117,-43.281 35.203,-28.441 52.813,-67.191 52.813,-116.25 0,-50.551 -18.121,-89.808 -54.371,-117.82 -35.942,-27.731 -86.879,-41.559 -152.809,-41.559 -22.422,0 -45.4296,1.641 -69.0702,5 -23.5508,3.321 -47.6524,8.36 -72.3398625,15.16 l 0,63.43 C 21.2109,466.512 43.4414,458.852 66.6797,453.66 c 23.1992,-4.93 47.7303,-7.351 73.5903,-7.351 41.57,0 74.46,9.531 98.75,28.601 24.378,19.141 36.57,45 36.57,77.5 0,32.57 -12.192,58.43 -36.57,77.5 -24.29,19.141 -57.18,28.75 -98.75,28.75 -19.489,0 -38.981,-1.879 -58.4302,-5.629 -19.5,-3.75 -39.3398,-9.609 -59.539,-17.5 l 0,234.688 z m 693.1292,9.691 89.84,0 -523.43,-869.8514 -89.852,0 L 715.43,879.91 z M 909.801,220.219 C 890,236.66 862.699,244.91 827.93,244.91 c -34.809,0 -62.149,-8.25 -82.032,-24.691 -19.808,-16.168 -29.687,-38.239 -29.687,-66.25 0,-28.438 9.879,-50.739 29.687,-66.8792 19.883,-16.0507 47.223,-24.0585 82.032,-24.0585 34.371,0 61.64,8.1992 81.871,24.6875 19.89,16.0112 29.847,38.0512 29.847,66.0902 0,28.132 -9.957,50.242 -29.847,66.41 z m -154.84,52.191 c -31.481,6.75 -55.859,19.289 -73.121,37.649 -17.5,18.75 -26.25,41.562 -26.25,68.441 0,37.5 15.308,67.07 45.93,88.75 30.71,21.762 72.859,32.66 126.41,32.66 53.519,0 95.621,-10.898 126.25,-32.66 30.308,-21.68 45.468,-51.25 45.468,-88.75 0,-27.73 -8.597,-50.551 -25.777,-68.441 -17.621,-18.36 -41.961,-30.899 -72.973,-37.649 33.633,-6.801 60.981,-21.019 82.032,-42.66 19.77,-20.629 29.69,-45.898 29.69,-75.781 0,-45.309 -15.901,-80.1604 -47.659,-104.5276 C 932.77,25.1797 887.07,13.0313 827.93,13.0313 c -59.61,0 -105.27,12.1484 -137.032,36.4101 -32.187,24.3672 -48.277,59.2186 -48.277,104.5276 0,29.14 9.879,54.41 29.68,75.781 20.199,20.941 47.738,35.16 82.66,42.66 z m -27.031,100 c 0,-23.68 8.789,-42.582 26.41,-56.719 17.18,-13.871 41.711,-20.781 73.59,-20.781 30.308,0 54.609,6.91 72.968,20.781 17.891,13.43 26.872,32.34 26.872,56.719 0,23.512 -8.981,42.418 -26.872,56.711 -17.617,13.828 -41.949,20.789 -72.968,20.789 -31.051,0 -55.59,-6.961 -73.59,-20.789 C 736.719,415.57 727.93,396.66 727.93,372.41 z"
         inkscape:connector-curvature="0"
         id="path14"
         style="fill:#000000;fill-opacity:1;fill-rule:nonzero;stroke:none" /></g></g></svg>