<?xml version="1.0" encoding="UTF-8" standalone="no"?>
<!-- Created with Inkscape (http://www.inkscape.org/) -->

<svg
   xmlns:dc="http://purl.org/dc/elements/1.1/"
   xmlns:cc="http://creativecommons.org/ns#"
   xmlns:rdf="http://www.w3.org/1999/02/22-rdf-syntax-ns#"
   xmlns:svg="http://www.w3.org/2000/svg"
   xmlns="http://www.w3.org/2000/svg"
   xmlns:inkscape="http://www.inkscape.org/namespaces/inkscape"
   version="1.1"
   width="125"
   height="111.25"
   id="svg2"
   xml:space="preserve"><metadata
     id="metadata8"><rdf:RDF><cc:Work
         rdf:about=""><dc:format>image/svg+xml</dc:format><dc:type
           rdf:resource="http://purl.org/dc/dcmitype/StillImage" /></cc:Work></rdf:RDF></metadata><defs
     id="defs6" /><g
     transform="matrix(1.25,0,0,-1.25,0,111.25)"
     id="g10"><g
       transform="scale(0.1,0.1)"
       id="g12"><path
         d="m 10.5898,463.191 114.5312,0 0,343.118 -125.320219,-23.118 0,65.149 129.219219,21.879 76.878,0 0,-407.028 115.153,0 0,-61.722 -310.4612,0 0,61.722 z m 685.1482,416.719 89.852,0 -523.442,-869.8514 -89.847,0 L 695.738,879.91 z M 890.121,220.219 c -19.812,16.441 -47.109,24.691 -81.883,24.691 -34.797,0 -62.148,-8.25 -82.027,-24.691 -19.801,-16.168 -29.691,-38.239 -29.691,-66.25 0,-28.438 9.89,-50.739 29.691,-66.8792 19.879,-16.0507 47.23,-24.0585 82.027,-24.0585 34.383,0 61.641,8.1992 81.883,24.6875 19.879,16.0112 29.84,38.0512 29.84,66.0902 0,28.132 -9.961,50.242 -29.84,66.41 z M 735.27,272.41 c -31.481,6.75 -55.86,19.289 -73.122,37.649 -17.5,18.75 -26.25,41.562 -26.25,68.441 0,37.5 15.313,67.07 45.942,88.75 30.699,21.762 72.851,32.66 126.398,32.66 53.524,0 95.633,-10.898 126.25,-32.66 30.313,-21.68 45.473,-51.25 45.473,-88.75 0,-27.73 -8.59,-50.551 -25.781,-68.441 -17.621,-18.36 -41.95,-30.899 -72.969,-37.649 33.629,-6.801 60.98,-21.019 82.027,-42.66 19.774,-20.629 29.692,-45.898 29.692,-75.781 0,-45.309 -15.899,-80.1604 -47.66,-104.5276 C 913.09,25.1797 867.379,13.0313 808.238,13.0313 748.629,13.0313 702.969,25.1797 671.211,49.4414 639.02,73.8086 622.93,108.66 622.93,153.969 c 0,29.14 9.879,54.41 29.691,75.781 20.188,20.941 47.731,35.16 82.649,42.66 z m -27.032,100 c 0,-23.68 8.793,-42.582 26.41,-56.719 17.192,-13.871 41.723,-20.781 73.59,-20.781 30.313,0 54.614,6.91 72.973,20.781 17.891,13.43 26.879,32.34 26.879,56.719 0,23.512 -8.988,42.418 -26.879,56.711 -17.621,13.828 -41.949,20.789 -72.973,20.789 -31.047,0 -55.578,-6.961 -73.59,-20.789 -17.617,-13.551 -26.41,-32.461 -26.41,-56.711 z"
         inkscape:connector-curvature="0"
         id="path14"
         style="fill:#000000;fill-opacity:1;fill-rule:nonzero;stroke:none" /></g></g></svg>