<?xml version="1.0" encoding="UTF-8" standalone="no"?>
<!-- Created with Inkscape (http://www.inkscape.org/) -->

<svg
   xmlns:dc="http://purl.org/dc/elements/1.1/"
   xmlns:cc="http://creativecommons.org/ns#"
   xmlns:rdf="http://www.w3.org/1999/02/22-rdf-syntax-ns#"
   xmlns:svg="http://www.w3.org/2000/svg"
   xmlns="http://www.w3.org/2000/svg"
   xmlns:inkscape="http://www.inkscape.org/namespaces/inkscape"
   version="1.1"
   width="122.5"
   height="111.25"
   id="svg2"
   xml:space="preserve"><metadata
     id="metadata8"><rdf:RDF><cc:Work
         rdf:about=""><dc:format>image/svg+xml</dc:format><dc:type
           rdf:resource="http://purl.org/dc/dcmitype/StillImage" /></cc:Work></rdf:RDF></metadata><defs
     id="defs6" /><g
     transform="matrix(1.25,0,0,-1.25,0,111.25)"
     id="g10"><g
       transform="scale(0.1,0.1)"
       id="g12"><path
         d="m 10.5898,463.191 114.5312,0 0,343.118 -125.320219,-23.118 0,65.149 129.219219,21.879 76.878,0 0,-407.028 115.153,0 0,-61.722 -310.4612,0 0,61.722 z m 685.1482,416.719 89.852,0 -523.442,-869.8514 -89.847,0 523.437,869.8514 z m 171.41,-604.691 c 34.454,-6.797 61.133,-20.391 80,-40.778 18.942,-20.32 28.442,-45.863 28.442,-76.57 0,-46.48 -17.82,-82.2616 -53.442,-107.3397 -35.546,-25 -86.41,-37.5 -152.66,-37.5 -21.367,0 -43.75,1.9882 -67.187,5.9375 C 678.949,22.8398 654.18,28.5 627.93,36 l 0,67.969 c 19.449,-10.1174 40.351,-17.6174 62.66,-22.5002 22.262,-4.918 45.969,-7.3477 71.09,-7.3477 40.699,0 72.269,7.3906 94.691,22.1875 22.5,14.7694 33.75,35.3124 33.75,61.5624 0,27.699 -10.391,48.641 -31.101,62.82 -20.739,14.258 -51.36,21.399 -91.872,21.399 l -48.277,0 0,60.629 52.809,0 c 35.199,0 61.871,5.859 80,17.652 18.199,11.879 27.34,28.988 27.34,51.41 0,21.758 -9.372,38.321 -28.122,49.688 -18.75,11.441 -45.898,17.191 -81.41,17.191 -15,0 -32.027,-1.719 -51.09,-5.16 -19.058,-3.359 -43.828,-9.34 -74.218,-17.969 l 0,64.688 c 27.379,6.332 53.05,11.172 77.031,14.531 23.949,3.441 46.168,5.16 66.719,5.16 53.949,0 96.718,-11.101 128.281,-33.289 31.641,-22.101 47.5,-51.641 47.5,-88.59 0,-25.859 -8.441,-47.769 -25.313,-65.781 -16.796,-17.93 -40.546,-30.27 -71.25,-37.031 z"
         inkscape:connector-curvature="0"
         id="path14"
         style="fill:#000000;fill-opacity:1;fill-rule:nonzero;stroke:none" /></g></g></svg>