<?xml version="1.0" encoding="UTF-8" standalone="no"?>
<!-- Created with Inkscape (http://www.inkscape.org/) -->

<svg
   xmlns:dc="http://purl.org/dc/elements/1.1/"
   xmlns:cc="http://creativecommons.org/ns#"
   xmlns:rdf="http://www.w3.org/1999/02/22-rdf-syntax-ns#"
   xmlns:svg="http://www.w3.org/2000/svg"
   xmlns="http://www.w3.org/2000/svg"
   xmlns:inkscape="http://www.inkscape.org/namespaces/inkscape"
   version="1.1"
   width="128.75"
   height="111.25"
   id="svg2"
   xml:space="preserve"><metadata
     id="metadata8"><rdf:RDF><cc:Work
         rdf:about=""><dc:format>image/svg+xml</dc:format><dc:type
           rdf:resource="http://purl.org/dc/dcmitype/StillImage" /></cc:Work></rdf:RDF></metadata><defs
     id="defs6" /><g
     transform="matrix(1.25,0,0,-1.25,0,111.25)"
     id="g10"><g
       transform="scale(0.1,0.1)"
       id="g12"><path
         d="M 232.379,802.41 58.9492,567.09 l 173.4298,0 0,235.32 z m -12.34,67.809 93.281,0 0,-303.129 75.782,0 0,-61.25 -75.782,0 0,-104.371 -80.941,0 0,104.371 -232.500094,0 0,67.969 220.160094,296.41 z m 517.34,9.691 89.851,0 -523.441,-869.8514 -89.84,0 523.43,869.8514 z m -43.117,-389.691 286.398,0 0,-53.278 -219.531,0 0,-114.531 c 10.512,3.32 21.172,5.781 32.031,7.34 10.391,1.449 20.86,2.191 31.41,2.191 60.309,0 108.008,-14.461 143.129,-43.281 35.191,-28.441 52.811,-67.191 52.811,-116.25 0,-50.551 -18.13,-89.8084 -54.381,-117.8202 -35.93,-27.7304 -86.867,-41.5585 -152.809,-41.5585 -22.422,0 -45.429,1.6796 -69.058,5 -23.563,3.3593 -47.66,8.3593 -72.352,15.1601 l 0,63.4297 c 21.25,-10.1094 43.481,-17.7695 66.719,-22.9609 23.211,-4.9297 47.742,-7.3516 73.601,-7.3516 41.559,0 74.45,9.5312 98.75,28.6016 24.372,19.1408 36.559,44.9998 36.559,77.4998 0,32.57 -12.187,58.43 -36.559,77.5 -24.3,19.141 -57.191,28.75 -98.75,28.75 -19.5,0 -38.992,-1.879 -58.441,-5.629 -19.488,-3.75 -39.34,-9.609 -59.527,-17.5 l 0,234.688 z"
         inkscape:connector-curvature="0"
         id="path14"
         style="fill:#000000;fill-opacity:1;fill-rule:nonzero;stroke:none" /></g></g></svg>