<?xml version="1.0" encoding="UTF-8" standalone="no"?>
<!-- Created with Inkscape (http://www.inkscape.org/) -->

<svg
   xmlns:dc="http://purl.org/dc/elements/1.1/"
   xmlns:cc="http://creativecommons.org/ns#"
   xmlns:rdf="http://www.w3.org/1999/02/22-rdf-syntax-ns#"
   xmlns:svg="http://www.w3.org/2000/svg"
   xmlns="http://www.w3.org/2000/svg"
   xmlns:inkscape="http://www.inkscape.org/namespaces/inkscape"
   version="1.1"
   width="122.5"
   height="111.25"
   id="svg2"
   xml:space="preserve"><metadata
     id="metadata8"><rdf:RDF><cc:Work
         rdf:about=""><dc:format>image/svg+xml</dc:format><dc:type
           rdf:resource="http://purl.org/dc/dcmitype/StillImage" /></cc:Work></rdf:RDF></metadata><defs
     id="defs6" /><g
     transform="matrix(1.25,0,0,-1.25,0,111.25)"
     id="g10"><g
       transform="scale(0.1,0.1)"
       id="g12"><path
         d="m 10.5898,463.191 114.5312,0 0,343.118 -125.320219,-23.118 0,65.149 129.219219,21.879 76.878,0 0,-407.028 115.153,0 0,-61.722 -310.4612,0 0,61.722 z m 685.1482,416.719 89.852,0 -523.442,-869.8514 -89.847,0 523.437,869.8514 z m -43.117,-389.691 286.399,0 0,-53.278 -219.532,0 0,-114.531 c 10.512,3.32 21.172,5.781 32.032,7.34 10.39,1.449 20.859,2.191 31.41,2.191 60.308,0 108.011,-14.461 143.121,-43.281 35.199,-28.441 52.82,-67.191 52.82,-116.25 0,-50.551 -18.133,-89.8084 -54.383,-117.8202 C 888.551,26.8594 837.621,13.0313 771.68,13.0313 c -22.418,0 -45.43,1.6796 -69.059,5 -23.562,3.3593 -47.66,8.3593 -72.351,15.1601 l 0,63.4297 c 21.25,-10.1094 43.48,-17.7695 66.718,-22.9609 23.211,-4.9297 47.742,-7.3516 73.602,-7.3516 41.558,0 74.449,9.5312 98.75,28.6016 24.371,19.1408 36.558,44.9998 36.558,77.4998 0,32.57 -12.187,58.43 -36.558,77.5 -24.301,19.141 -57.192,28.75 -98.75,28.75 -19.5,0 -38.988,-1.879 -58.442,-5.629 -19.488,-3.75 -39.339,-9.609 -59.527,-17.5 l 0,234.688 z"
         inkscape:connector-curvature="0"
         id="path14"
         style="fill:#000000;fill-opacity:1;fill-rule:nonzero;stroke:none" /></g></g></svg>