<?xml version="1.0" encoding="UTF-8" standalone="no"?>
<!-- Created with Inkscape (http://www.inkscape.org/) -->

<svg
   xmlns:dc="http://purl.org/dc/elements/1.1/"
   xmlns:cc="http://creativecommons.org/ns#"
   xmlns:rdf="http://www.w3.org/1999/02/22-rdf-syntax-ns#"
   xmlns:svg="http://www.w3.org/2000/svg"
   xmlns="http://www.w3.org/2000/svg"
   xmlns:inkscape="http://www.inkscape.org/namespaces/inkscape"
   version="1.1"
   width="125"
   height="111.25"
   id="svg2"
   xml:space="preserve"><metadata
     id="metadata8"><rdf:RDF><cc:Work
         rdf:about=""><dc:format>image/svg+xml</dc:format><dc:type
           rdf:resource="http://purl.org/dc/dcmitype/StillImage" /></cc:Work></rdf:RDF></metadata><defs
     id="defs6" /><g
     transform="matrix(1.25,0,0,-1.25,0,111.25)"
     id="g10"><g
       transform="scale(0.1,0.1)"
       id="g12"><path
         d="m 97.5781,465.371 238.1209,0 0,-63.902 -335.777125,0 0,61.722 C 12.6211,474.75 30.7383,491.039 54.3008,512.09 183.121,626.23 247.578,700.922 247.578,736.16 c 0,24.68 -9.769,44.57 -29.219,59.68 -19.488,15.199 -45.16,22.82 -77.031,22.82 -19.379,0 -40.547,-3.289 -63.4374,-9.851 C 55.0781,802.25 30.1602,792.41 3.19922,779.281 l 0,69.059 c 28.83208,10.512 55.71098,18.359 80.62888,23.601 24.8829,5.309 48.0119,7.969 69.3709,7.969 54.262,0 97.66,-12.43 130.16,-37.191 32.582,-24.688 48.911,-57.27 48.911,-97.66 0,-52.11 -61.961,-131.25 -185.79,-237.5 -20.929,-18.039 -37.261,-32.11 -48.9019,-42.188 z m 622.3439,414.539 89.848,0 -523.442,-869.8514 -89.848,0 L 719.922,879.91 z M 891.328,275.219 c 34.453,-6.797 61.133,-20.391 80,-40.778 18.942,-20.32 28.442,-45.863 28.442,-76.57 0,-46.48 -17.821,-82.2616 -53.442,-107.3397 -35.547,-25 -86.406,-37.5 -152.656,-37.5 -21.371,0 -43.75,1.9882 -67.192,5.9375 C 703.121,22.8398 678.359,28.5 652.109,36 l 0,67.969 c 19.45,-10.1174 40.352,-17.6174 62.661,-22.5002 22.261,-4.918 45.968,-7.3477 71.089,-7.3477 40.7,0 72.262,7.3906 94.692,22.1875 22.5,14.7694 33.75,35.3124 33.75,61.5624 0,27.699 -10.391,48.641 -31.102,62.82 -20.738,14.258 -51.359,21.399 -91.871,21.399 l -48.277,0 0,60.629 52.808,0 c 35.192,0 61.871,5.859 80,17.652 18.2,11.879 27.34,28.988 27.34,51.41 0,21.758 -9.371,38.321 -28.121,49.688 -18.75,11.441 -45.898,17.191 -81.406,17.191 -15,0 -32.031,-1.719 -51.094,-5.16 -19.058,-3.359 -43.828,-9.34 -74.219,-17.969 l 0,64.688 c 27.379,6.332 53.051,11.172 77.032,14.531 23.949,3.441 46.168,5.16 66.718,5.16 53.942,0 96.719,-11.101 128.282,-33.289 31.64,-22.101 47.5,-51.641 47.5,-88.59 0,-25.859 -8.442,-47.769 -25.313,-65.781 -16.797,-17.93 -40.547,-30.27 -71.25,-37.031 z"
         inkscape:connector-curvature="0"
         id="path14"
         style="fill:#000000;fill-opacity:1;fill-rule:nonzero;stroke:none" /></g></g></svg>