<?xml version="1.0" encoding="UTF-8" standalone="no"?>
<!-- Created with Inkscape (http://www.inkscape.org/) -->

<svg
   xmlns:dc="http://purl.org/dc/elements/1.1/"
   xmlns:cc="http://creativecommons.org/ns#"
   xmlns:rdf="http://www.w3.org/1999/02/22-rdf-syntax-ns#"
   xmlns:svg="http://www.w3.org/2000/svg"
   xmlns="http://www.w3.org/2000/svg"
   xmlns:inkscape="http://www.inkscape.org/namespaces/inkscape"
   version="1.1"
   width="93.75"
   height="67.5"
   id="svg2"
   xml:space="preserve"><metadata
     id="metadata8"><rdf:RDF><cc:Work
         rdf:about=""><dc:format>image/svg+xml</dc:format><dc:type
           rdf:resource="http://purl.org/dc/dcmitype/StillImage" /></cc:Work></rdf:RDF></metadata><defs
     id="defs6" /><g
     transform="matrix(1.25,0,0,-1.25,0,67.5)"
     id="g10"><g
       transform="scale(0.1,0.1)"
       id="g12"><path
         d="m 394.059,162.07 c 16.101,-48.441 28.75,-65.6286 51.722,-94.3786 30,-35.7812 73.75,-57.6523 119.84,-57.6523 107.188,0 183.129,105.9409 183.129,266.0899 0,160.16 -88.59,259.223 -214.219,259.223 -43.75,0 -82.972,-15 -115.152,-43.75 -25.32,-23.122 -41.57,-50.782 -64.539,-108.282 -13.899,43.75 -28.75,65.621 -51.871,94.371 -30,35.789 -73.75,57.661 -119.848,57.661 C 76.0898,535.352 0,429.41 0,269.262 0,109.102 88.75,10.0391 214.219,10.0391 c 43.902,0 82.972,15 115.312,43.75 25.309,23.1211 41.41,50.6209 64.528,108.2809 z M 440,306.129 c 26.559,84.062 67.969,127.812 124.531,127.812 78.278,0 138.129,-66.711 138.129,-170.461 0,-96.718 -59.851,-159.07 -141.57,-159.07 -73.75,0 -127.969,30 -147.5,116.41 L 440,306.129 z M 308.75,239.262 C 282.191,155.191 240.781,111.441 184.379,111.441 c -78.438,0 -138.2892,66.719 -138.2892,170.469 0,96.719 59.8512,158.91 141.7192,158.91 73.75,0 127.812,-29.84 147.5,-116.25 L 308.75,239.262 z"
         inkscape:connector-curvature="0"
         id="path14"
         style="fill:#000000;fill-opacity:1;fill-rule:nonzero;stroke:none" /></g></g></svg>