<?xml version="1.0" encoding="UTF-8" standalone="no"?>
<!-- Created with Inkscape (http://www.inkscape.org/) -->

<svg
   xmlns:dc="http://purl.org/dc/elements/1.1/"
   xmlns:cc="http://creativecommons.org/ns#"
   xmlns:rdf="http://www.w3.org/1999/02/22-rdf-syntax-ns#"
   xmlns:svg="http://www.w3.org/2000/svg"
   xmlns="http://www.w3.org/2000/svg"
   xmlns:inkscape="http://www.inkscape.org/namespaces/inkscape"
   version="1.1"
   width="97.5"
   height="151.25"
   id="svg2"
   xml:space="preserve"><metadata
     id="metadata8"><rdf:RDF><cc:Work
         rdf:about=""><dc:format>image/svg+xml</dc:format><dc:type
           rdf:resource="http://purl.org/dc/dcmitype/StillImage" /></cc:Work></rdf:RDF></metadata><defs
     id="defs6" /><g
     transform="matrix(1.25,0,0,-1.25,0,151.25)"
     id="g10"><g
       transform="scale(0.1,0.1)"
       id="g12"><path
         d="m 388.441,787.699 c -82.312,0 -147.742,-30.738 -196.25,-92.179 -48.441,-61.372 -72.66,-145 -72.66,-250.942 0,-105.547 24.219,-189.027 72.66,-250.469 48.508,-61.371 113.938,-92.031 196.25,-92.031 82.379,0 147.579,30.66 195.618,92.031 48.132,61.442 72.191,144.922 72.191,250.469 0,105.942 -24.059,189.57 -72.191,250.942 -48.039,61.441 -113.239,92.179 -195.618,92.179 z m 0,92.192 C 506.02,879.891 600,840.441 670.309,761.609 740.699,682.859 775.941,577.16 775.941,444.578 775.941,312.469 740.699,207 670.309,128.172 600,49.4219 506.02,10.0508 388.441,10.0508 c -117.929,0 -212.191,39.25 -282.82,117.8082 -70.5429,78.629 -105.781156,184.219 -105.781156,316.719 0,132.582 35.238256,238.281 105.781156,317.031 70.629,78.832 164.891,118.282 282.82,118.282 z m -163.601,323.279 335.941,0 0,-83.12 -335.941,0 0,83.12 z m 215.781,-146.25 113.91,0 0,-114.061 -113.91,0 0,114.061 z m -219.531,0 113.91,0 0,-114.061 -113.91,0 0,114.061 z"
         inkscape:connector-curvature="0"
         id="path14"
         style="fill:#000000;fill-opacity:1;fill-rule:nonzero;stroke:none" /></g></g></svg>