<?xml version="1.0" encoding="UTF-8" standalone="no"?>
<!-- Created with Inkscape (http://www.inkscape.org/) -->

<svg
   xmlns:dc="http://purl.org/dc/elements/1.1/"
   xmlns:cc="http://creativecommons.org/ns#"
   xmlns:rdf="http://www.w3.org/1999/02/22-rdf-syntax-ns#"
   xmlns:svg="http://www.w3.org/2000/svg"
   xmlns="http://www.w3.org/2000/svg"
   xmlns:inkscape="http://www.inkscape.org/namespaces/inkscape"
   version="1.1"
   width="97.5"
   height="135"
   id="svg2"
   xml:space="preserve"><metadata
     id="metadata8"><rdf:RDF><cc:Work
         rdf:about=""><dc:format>image/svg+xml</dc:format><dc:type
           rdf:resource="http://purl.org/dc/dcmitype/StillImage" /></cc:Work></rdf:RDF></metadata><defs
     id="defs6" /><g
     transform="matrix(1.25,0,0,-1.25,0,135)"
     id="g10"><g
       transform="scale(0.1,0.1)"
       id="g12"><path
         d="m 330.469,1078.02 114.691,0 0,-115.149 -114.691,0 0,115.149 z m 57.972,-290.309 c -82.312,0 -147.742,-30.742 -196.25,-92.191 -48.441,-61.36 -72.66,-145 -72.66,-250.93 0,-105.551 24.219,-189.031 72.66,-250.469 48.508,-61.371 113.938,-92.031 196.25,-92.031 82.379,0 147.579,30.66 195.618,92.031 48.132,61.438 72.191,144.918 72.191,250.469 0,105.93 -24.059,189.57 -72.191,250.93 -48.039,61.449 -113.239,92.191 -195.618,92.191 z m 0,92.187 C 506.02,879.898 600,840.449 670.309,761.621 740.699,682.871 775.941,577.16 775.941,444.59 775.941,312.48 740.699,207.012 670.309,128.18 600,49.4297 506.02,10.0508 388.441,10.0508 270.512,10.0508 176.25,49.3086 105.621,127.871 35.0781,206.5 -0.160156,312.09 -0.160156,444.59 c 0,132.57 35.238256,238.281 105.781156,317.031 70.629,78.828 164.891,118.277 282.82,118.277 z"
         inkscape:connector-curvature="0"
         id="path14"
         style="fill:#000000;fill-opacity:1;fill-rule:nonzero;stroke:none" /></g></g></svg>