<?xml version="1.0" encoding="UTF-8" standalone="no"?>
<!-- Created with Inkscape (http://www.inkscape.org/) -->

<svg
   xmlns:dc="http://purl.org/dc/elements/1.1/"
   xmlns:cc="http://creativecommons.org/ns#"
   xmlns:rdf="http://www.w3.org/1999/02/22-rdf-syntax-ns#"
   xmlns:svg="http://www.w3.org/2000/svg"
   xmlns="http://www.w3.org/2000/svg"
   xmlns:inkscape="http://www.inkscape.org/namespaces/inkscape"
   version="1.1"
   width="72.5"
   height="113.75"
   id="svg2"
   xml:space="preserve"><metadata
     id="metadata8"><rdf:RDF><cc:Work
         rdf:about=""><dc:format>image/svg+xml</dc:format><dc:type
           rdf:resource="http://purl.org/dc/dcmitype/StillImage" /></cc:Work></rdf:RDF></metadata><defs
     id="defs6" /><g
     transform="matrix(1.25,0,0,-1.25,0,113.75)"
     id="g10"><g
       transform="scale(0.1,0.1)"
       id="g12"><path
         d="m 236.129,900.078 103.281,0 0,-130.777 -103.281,0 0,130.777 z M 288.48,582.73 c -55.429,0 -99.218,-21.64 -131.41,-64.839 C 124.879,474.648 108.789,415.43 108.789,340.23 108.789,265 124.77,205.738 156.762,162.422 188.828,119.18 232.73,97.5781 288.48,97.5781 c 55.071,0 98.75,21.7229 130.93,65.1519 32.192,43.442 48.289,102.579 48.289,177.5 0,74.461 -16.097,133.481 -48.289,177.04 -32.18,43.628 -75.859,65.46 -130.93,65.46 z m 0,87.661 c 89.879,0 160.469,-29.219 211.719,-87.661 51.25,-58.351 76.871,-139.179 76.871,-242.5 0,-102.929 -25.621,-183.71 -76.871,-242.3394 C 448.949,39.3398 378.359,10.0781 288.48,10.0781 198.238,10.0781 127.578,39.3398 76.4492,97.8906 25.3906,156.52 -0.121094,237.301 -0.121094,340.23 c 0,103.321 25.511694,184.149 76.570294,242.5 51.1288,58.442 121.7888,87.661 212.0308,87.661 z"
         inkscape:connector-curvature="0"
         id="path14"
         style="fill:#000000;fill-opacity:1;fill-rule:nonzero;stroke:none" /></g></g></svg>