<?xml version="1.0" encoding="UTF-8" standalone="no"?>
<!-- Created with Inkscape (http://www.inkscape.org/) -->

<svg
   xmlns:dc="http://purl.org/dc/elements/1.1/"
   xmlns:cc="http://creativecommons.org/ns#"
   xmlns:rdf="http://www.w3.org/1999/02/22-rdf-syntax-ns#"
   xmlns:svg="http://www.w3.org/2000/svg"
   xmlns="http://www.w3.org/2000/svg"
   xmlns:inkscape="http://www.inkscape.org/namespaces/inkscape"
   version="1.1"
   width="103.75"
   height="105"
   id="svg2"
   xml:space="preserve"><metadata
     id="metadata8"><rdf:RDF><cc:Work
         rdf:about=""><dc:format>image/svg+xml</dc:format><dc:type
           rdf:resource="http://purl.org/dc/dcmitype/StillImage" /></cc:Work></rdf:RDF></metadata><defs
     id="defs6" /><g
     transform="matrix(1.25,0,0,-1.25,0,105)"
     id="g10"><g
       transform="scale(0.1,0.1)"
       id="g12"><path
         d="m 636.09,773.109 50,61.719 59.531,0 -71.871,-88.129 C 713.012,715.648 745.551,677.25 771.41,631.551 808.789,564.98 827.5,495.77 827.5,423.891 827.5,352.02 808.75,282.84 771.25,216.391 733.828,149.91 682.191,98.8906 616.25,63.2695 550.391,27.7188 482.891,9.98047 413.75,9.98047 c -70,0 -137.969,17.82033 -203.91,53.44143 -20.93,11.1289 -40.43,24.0586 -58.43,38.7501 l -70.6287,-87.6525 -59.0625,0 95.4722,117.9605 c -23.5621,24.692 -44.1402,52.739 -61.7222,84.219 -37.1094,66.25 -55.628956,135.321 -55.628956,207.192 0,71.879 18.519556,141.019 55.628956,207.5 37.0703,66.449 88.5112,117.418 154.3712,152.968 65.941,35.512 133.91,53.282 203.91,53.282 69.141,0 136.719,-17.77 202.66,-53.282 6.75,-3.75 13.32,-7.5 19.68,-11.25 z M 164.379,190.77 588.91,714.672 l -7.82,4.527 c -54.371,29.141 -110.149,43.75 -167.34,43.75 -57.73,0 -113.828,-14.679 -168.281,-44.058 C 190.98,689.52 148.441,647.328 117.809,592.328 87.5,538.031 72.1094,481.898 71.7188,423.891 72.1094,365.84 87.5,309.711 117.809,255.449 131.25,231.469 146.762,209.91 164.379,190.77 z M 627.031,688.891 198.59,159.98 c 14.57,-11.679 30.32,-21.992 47.191,-30.929 54.258,-29.6096 110.239,-44.3791 167.969,-44.3791 57.191,0 112.891,14.6875 167.191,44.0581 54.368,29.379 97.071,71.61 128.118,126.719 30.711,54.262 46.25,110.391 46.562,168.442 -0.312,58.007 -15.851,114.14 -46.562,168.437 -21.68,38.512 -49.02,70.703 -82.028,96.563 z"
         inkscape:connector-curvature="0"
         id="path14"
         style="fill:#000000;fill-opacity:1;fill-rule:nonzero;stroke:none" /></g></g></svg>