<?xml version="1.0" encoding="UTF-8" standalone="no"?>
<!-- Created with Inkscape (http://www.inkscape.org/) -->

<svg
   xmlns:dc="http://purl.org/dc/elements/1.1/"
   xmlns:cc="http://creativecommons.org/ns#"
   xmlns:rdf="http://www.w3.org/1999/02/22-rdf-syntax-ns#"
   xmlns:svg="http://www.w3.org/2000/svg"
   xmlns="http://www.w3.org/2000/svg"
   xmlns:inkscape="http://www.inkscape.org/namespaces/inkscape"
   version="1.1"
   width="60"
   height="90"
   id="svg2"
   xml:space="preserve"><metadata
     id="metadata8"><rdf:RDF><cc:Work
         rdf:about=""><dc:format>image/svg+xml</dc:format><dc:type
           rdf:resource="http://purl.org/dc/dcmitype/StillImage" /></cc:Work></rdf:RDF></metadata><defs
     id="defs6" /><g
     transform="matrix(1.25,0,0,-1.25,0,90)"
     id="g10"><g
       transform="scale(0.1,0.1)"
       id="g12"><path
         d="m 261.988,41.1016 c 0,-20.7032 -7.648,-31.0899 -22.968,-31.0899 -16.168,0 -24.219,10.3867 -24.219,31.0899 l 0,312.8084 c -32.18,26.879 -57.891,40.309 -77.031,40.309 -14.61,0 -28.04,-4.641 -40.3091,-13.899 -12.1914,-9.179 -21.8007,-19.34 -28.75,-30.468 -6.8711,-11.172 -14.5312,-21.332 -22.9726,-30.473 -8.3594,-9.18 -16.3594,-13.75 -24.0586,-13.75 -5.4297,0 -10.4297,2.269 -15.00001,6.883 -4.60938,4.566 -6.878909,9.566 -6.878909,15 0,13 14.539019,35.187 43.597619,66.558 29.1407,31.442 60.6216,47.192 94.3716,47.192 23.011,0 48.679,-9.614 77.031,-28.75 l 0,266.867 c 0,20.699 8.051,31.09 24.219,31.09 15.32,0 22.968,-10.391 22.968,-31.09 l 0,-302.5 C 275,366.141 284.73,358.48 291.211,353.91 c 6.559,-4.609 14.41,-9.371 23.59,-14.371 9.258,-5 16.961,-7.5 23.129,-7.5 16.871,0 33.32,7.422 49.371,22.34 16.14,15 29.929,29.769 41.41,44.383 11.559,14.566 20.391,21.867 26.559,21.867 6.14,0 11.492,-2.149 16.101,-6.41 4.57,-4.18 6.867,-9.328 6.867,-15.457 0,-14.614 -15.738,-37.274 -47.187,-67.973 -31.481,-30.629 -61.36,-45.937 -89.68,-45.937 -23.75,0 -50.242,10.347 -79.383,31.089 l 0,-274.8394 z"
         inkscape:connector-curvature="0"
         id="path14"
         style="fill:#000000;fill-opacity:1;fill-rule:nonzero;stroke:none" /></g></g></svg>