<?xml version="1.0" encoding="UTF-8" standalone="no"?>
<!-- Created with Inkscape (http://www.inkscape.org/) -->

<svg
   xmlns:dc="http://purl.org/dc/elements/1.1/"
   xmlns:cc="http://creativecommons.org/ns#"
   xmlns:rdf="http://www.w3.org/1999/02/22-rdf-syntax-ns#"
   xmlns:svg="http://www.w3.org/2000/svg"
   xmlns="http://www.w3.org/2000/svg"
   xmlns:inkscape="http://www.inkscape.org/namespaces/inkscape"
   version="1.1"
   width="77.5"
   height="78.75"
   id="svg2"
   xml:space="preserve"><metadata
     id="metadata8"><rdf:RDF><cc:Work
         rdf:about=""><dc:format>image/svg+xml</dc:format><dc:type
           rdf:resource="http://purl.org/dc/dcmitype/StillImage" /></cc:Work></rdf:RDF></metadata><defs
     id="defs6" /><g
     transform="matrix(1.25,0,0,-1.25,0,78.75)"
     id="g10"><g
       transform="scale(0.1,0.1)"
       id="g12"><path
         d="m 304.301,618.211 c 69.57,0 131.129,-21.172 184.679,-63.441 l 65.79,66.25 55.46,-55.622 -66.25,-66.25 C 585.23,446.34 605.859,385.129 605.859,315.551 605.859,232.738 576.25,161.73 517.109,102.59 457.93,43.5195 386.988,13.9883 304.301,13.9883 c -68.871,0 -129.692,20.7812 -182.5,62.3515 L 55.5508,10.0898 -0.078125,65.5508 65.5508,131.801 c -41.4922,52.82 -62.19142,114.07 -62.19142,183.75 0,83.437 29.53122,154.73 88.58982,213.91 59.1408,59.141 129.9298,88.75 212.3518,88.75 z M 432.27,498.52 c -37.43,26.96 -80.079,40.468 -127.969,40.468 -60.629,0 -112.781,-21.828 -156.41,-65.468 -43.672,-43.551 -65.4691,-96.211 -65.4691,-157.969 0,-47.922 13.2773,-90.422 39.8481,-127.5 l 310,310.469 z M 177.891,133.051 c 37.07,-26.563 79.218,-39.8401 126.41,-39.8401 61.008,0 113.32,21.7581 156.871,65.3091 43.629,43.64 65.469,95.98 65.469,157.031 0,47.898 -12.93,90.199 -38.75,126.879 l -310,-309.379 z"
         inkscape:connector-curvature="0"
         id="path14"
         style="fill:#000000;fill-opacity:1;fill-rule:nonzero;stroke:none" /></g></g></svg>