<?xml version="1.0" encoding="UTF-8" standalone="no"?>
<!-- Created with Inkscape (http://www.inkscape.org/) -->

<svg
   xmlns:dc="http://purl.org/dc/elements/1.1/"
   xmlns:cc="http://creativecommons.org/ns#"
   xmlns:rdf="http://www.w3.org/1999/02/22-rdf-syntax-ns#"
   xmlns:svg="http://www.w3.org/2000/svg"
   xmlns="http://www.w3.org/2000/svg"
   xmlns:inkscape="http://www.inkscape.org/namespaces/inkscape"
   version="1.1"
   width="60"
   height="92.5"
   id="svg2"
   xml:space="preserve"><metadata
     id="metadata8"><rdf:RDF><cc:Work
         rdf:about=""><dc:format>image/svg+xml</dc:format><dc:type
           rdf:resource="http://purl.org/dc/dcmitype/StillImage" /></cc:Work></rdf:RDF></metadata><defs
     id="defs6" /><g
     transform="matrix(1.25,0,0,-1.25,0,92.5)"
     id="g10"><g
       transform="scale(0.1,0.1)"
       id="g12"><path
         d="m 239.02,690.859 c -52.11,0 -93.122,-26.328 -123.122,-78.91 C 85.9805,559.449 71.0508,497.18 71.0508,425.23 l 0,-21.871 c 23.0078,16.012 45.2382,24.063 66.7192,24.063 23.011,0 47.742,-9.223 74.218,-27.66 26.453,-18.364 50.981,-36.524 73.602,-54.532 22.57,-18.05 40.031,-27.031 52.34,-27.031 21.449,0 44.449,13.789 69.058,41.41 l 0,65.621 c 0,75.079 -15.578,138.129 -46.718,189.059 -31.051,51.02 -71.481,76.57 -121.25,76.57 z M 405.738,296.328 c -23.039,-16.879 -44.488,-25.316 -64.367,-25.316 -23.051,0 -47.191,9.218 -72.5,27.66 -25.32,18.437 -49.301,36.637 -71.883,54.687 -22.609,18 -42.34,27.032 -59.218,27.032 -22.93,0 -45.1489,-13.832 -66.7192,-41.411 l 0,-16.089 c 0,-75.243 15.5078,-138.36 46.5702,-189.379 31.129,-50.9339 71.598,-76.4026 121.399,-76.4026 49.07,0 88.128,23.1601 117.191,69.5316 29.141,46.437 45.668,103.007 49.527,169.687 z m -381.7185,60.934 0,73.597 c 0,91.25 19.8907,165.192 59.6914,221.871 39.8791,56.758 91.6411,85.161 155.3091,85.161 63.64,0 115.359,-28.403 155.16,-85.161 39.879,-56.679 59.84,-130.621 59.84,-221.871 l 0,-24.07 c 6.14,0 11.718,-2.34 16.718,-7.027 5,-4.614 7.5,-9.532 7.5,-14.84 0,-8.442 -8.078,-22.621 -24.218,-42.5 l 0,-26.563 c 0,-90.429 -19.961,-164.031 -59.84,-220.7809 -39.801,-56.6797 -91.52,-85 -155.16,-85 -60.54,0 -110.579,25.8203 -150.1489,77.5 C 49.3789,139.328 27.7695,207.422 24.0195,291.789 c -6.1679,0 -11.7187,2.27 -16.71872,6.883 -5,4.566 -7.499999,9.566 -7.499999,15 0,6.867 8.050779,21.406 24.218719,43.59 z"
         inkscape:connector-curvature="0"
         id="path14"
         style="fill:#000000;fill-opacity:1;fill-rule:nonzero;stroke:none" /></g></g></svg>