<?xml version="1.0" encoding="UTF-8" standalone="no"?>
<!-- Created with Inkscape (http://www.inkscape.org/) -->

<svg
   xmlns:dc="http://purl.org/dc/elements/1.1/"
   xmlns:cc="http://creativecommons.org/ns#"
   xmlns:rdf="http://www.w3.org/1999/02/22-rdf-syntax-ns#"
   xmlns:svg="http://www.w3.org/2000/svg"
   xmlns="http://www.w3.org/2000/svg"
   xmlns:inkscape="http://www.inkscape.org/namespaces/inkscape"
   version="1.1"
   width="66.25"
   height="68.75"
   id="svg2"
   xml:space="preserve"><metadata
     id="metadata8"><rdf:RDF><cc:Work
         rdf:about=""><dc:format>image/svg+xml</dc:format><dc:type
           rdf:resource="http://purl.org/dc/dcmitype/StillImage" /></cc:Work></rdf:RDF></metadata><defs
     id="defs6" /><g
     transform="matrix(1.25,0,0,-1.25,0,68.75)"
     id="g10"><g
       transform="scale(0.1,0.1)"
       id="g12"><path
         d="m 242.539,295.172 197.813,233.437 c 8.437,9.141 15.308,13.75 20.628,13.75 6.129,0 11.481,-2.3 16.09,-6.871 4.571,-4.609 6.879,-9.968 6.879,-16.097 0,-5.43 -3.051,-11.95 -9.07,-19.532 l -173.75,-204.687 192.031,0 c 20.711,0 31.102,-7.731 31.102,-23.121 0,-16.063 -10.391,-24.063 -31.102,-24.063 l -232.18,0 L 71.1289,23.7695 C 63.5195,14.4688 56.6406,9.85938 50.5117,9.85938 c -6.1719,0 -11.5312,2.26952 -16.1015,6.87892 -4.6094,4.6836 -6.8711,10.0703 -6.8711,16.25 0,4.5703 3.4414,11.0898 10.3125,19.5312 L 203.48,247.988 l -172.4995,0 c -20.75,0 -31.101594,8 -31.101594,24.063 0,15.39 10.351594,23.121 31.101594,23.121 l 211.5585,0 z"
         inkscape:connector-curvature="0"
         id="path14"
         style="fill:#000000;fill-opacity:1;fill-rule:nonzero;stroke:none" /></g></g></svg>