<?xml version="1.0" encoding="UTF-8" standalone="no"?>
<!-- Created with Inkscape (http://www.inkscape.org/) -->

<svg
   xmlns:dc="http://purl.org/dc/elements/1.1/"
   xmlns:cc="http://creativecommons.org/ns#"
   xmlns:rdf="http://www.w3.org/1999/02/22-rdf-syntax-ns#"
   xmlns:svg="http://www.w3.org/2000/svg"
   xmlns="http://www.w3.org/2000/svg"
   xmlns:inkscape="http://www.inkscape.org/namespaces/inkscape"
   version="1.1"
   width="71.25"
   height="97.5"
   id="svg2"
   xml:space="preserve"><metadata
     id="metadata8"><rdf:RDF><cc:Work
         rdf:about=""><dc:format>image/svg+xml</dc:format><dc:type
           rdf:resource="http://purl.org/dc/dcmitype/StillImage" /></cc:Work></rdf:RDF></metadata><defs
     id="defs6" /><g
     transform="matrix(1.25,0,0,-1.25,0,97.5)"
     id="g10"><g
       transform="scale(0.1,0.1)"
       id="g12"><path
         d="m 443.551,477.66 122.039,0 0,65.781 -111.719,0 34.527,233.75 -69.058,0 -34.539,-233.75 -150.93,0 35.777,233.75 -69.218,0 -35.629,-233.75 -135.9299,0 0,-65.781 126.7189,0 -23.129,-153.121 -132.5000625,0 0,-65.629 122.1870625,0 -36.8785,-248.8983 69.0705,0 36.871,248.8983 150.937,0 -37.968,-248.8983 69.058,0 37.973,248.8983 125.629,0 0,65.629 -116.41,0 23.121,153.121 z m -69.211,0 -22.969,-153.121 -149.691,0 22.968,153.121 149.692,0 z"
         inkscape:connector-curvature="0"
         id="path14"
         style="fill:#000000;fill-opacity:1;fill-rule:nonzero;stroke:none" /></g></g></svg>