<?xml version="1.0" encoding="UTF-8" standalone="no"?>
<!-- Created with Inkscape (http://www.inkscape.org/) -->

<svg
   xmlns:dc="http://purl.org/dc/elements/1.1/"
   xmlns:cc="http://creativecommons.org/ns#"
   xmlns:rdf="http://www.w3.org/1999/02/22-rdf-syntax-ns#"
   xmlns:svg="http://www.w3.org/2000/svg"
   xmlns="http://www.w3.org/2000/svg"
   xmlns:inkscape="http://www.inkscape.org/namespaces/inkscape"
   version="1.1"
   width="66.25"
   height="68.75"
   id="svg2"
   xml:space="preserve"><metadata
     id="metadata8"><rdf:RDF><cc:Work
         rdf:about=""><dc:format>image/svg+xml</dc:format><dc:type
           rdf:resource="http://purl.org/dc/dcmitype/StillImage" /></cc:Work></rdf:RDF></metadata><defs
     id="defs6" /><g
     transform="matrix(1.25,0,0,-1.25,0,68.75)"
     id="g10"><g
       transform="scale(0.1,0.1)"
       id="g12"><path
         d="m 36.6016,499.859 c -6.0508,7.582 -9.0625,14.102 -9.0625,19.532 0,6.129 2.2617,11.488 6.8711,16.097 4.5703,4.571 9.9296,6.871 16.1015,6.871 5.3086,0 12.1875,-4.609 20.6172,-13.75 l 197.8201,-233.437 224.211,0 c 20.711,0 31.102,-7.731 31.102,-23.121 0,-16.063 -10.391,-24.063 -31.102,-24.063 l -185.148,0 165.617,-195.4685 c 6.883,-8.4414 10.32,-14.9609 10.32,-19.5312 0,-6.1797 -2.308,-11.5664 -6.879,-16.25 -4.609,-4.6094 -9.961,-6.87892 -16.09,-6.87892 -6.179,0 -13.05,4.60942 -20.628,13.91012 l -189.84,224.2185 -219.5315,0 c -20.75,0 -31.101594,8 -31.101594,24.063 0,15.39 10.351594,23.121 31.101594,23.121 l 179.3715,0 -173.7504,204.687 z"
         inkscape:connector-curvature="0"
         id="path14"
         style="fill:#000000;fill-opacity:1;fill-rule:nonzero;stroke:none" /></g></g></svg>