<?xml version="1.0" encoding="UTF-8" standalone="no"?>
<!-- Created with Inkscape (http://www.inkscape.org/) -->

<svg
   xmlns:dc="http://purl.org/dc/elements/1.1/"
   xmlns:cc="http://creativecommons.org/ns#"
   xmlns:rdf="http://www.w3.org/1999/02/22-rdf-syntax-ns#"
   xmlns:svg="http://www.w3.org/2000/svg"
   xmlns="http://www.w3.org/2000/svg"
   xmlns:inkscape="http://www.inkscape.org/namespaces/inkscape"
   version="1.1"
   width="42.5"
   height="106.25"
   id="svg2"
   xml:space="preserve"><metadata
     id="metadata8"><rdf:RDF><cc:Work
         rdf:about=""><dc:format>image/svg+xml</dc:format><dc:type
           rdf:resource="http://purl.org/dc/dcmitype/StillImage" /></cc:Work></rdf:RDF></metadata><defs
     id="defs6" /><g
     transform="matrix(1.25,0,0,-1.25,0,106.25)"
     id="g10"><g
       transform="scale(0.1,0.1)"
       id="g12"><path
         d="m 302.07,10.1797 -271.2497,0 c -20.7422,0 -31.089831,7.6601 -31.089831,22.9687 0,15.3125 10.347631,22.9727 31.089831,22.9727 l 271.2497,0 c 20.7,0 31.09,-7.6602 31.09,-22.9727 0,-15.3086 -10.39,-22.9687 -31.09,-22.9687 z M 92.8516,847.371 l 147.1874,0 L 200.98,556.43 c -3.871,-27.621 -15.39,-41.41 -34.531,-41.41 -19.179,0 -30.711,13.789 -34.539,41.41 L 92.8516,847.371 z"
         inkscape:connector-curvature="0"
         id="path14"
         style="fill:#000000;fill-opacity:1;fill-rule:nonzero;stroke:none" /></g></g></svg>