<?xml version="1.0" encoding="UTF-8" standalone="no"?>
<!-- Created with Inkscape (http://www.inkscape.org/) -->

<svg
   xmlns:dc="http://purl.org/dc/elements/1.1/"
   xmlns:cc="http://creativecommons.org/ns#"
   xmlns:rdf="http://www.w3.org/1999/02/22-rdf-syntax-ns#"
   xmlns:svg="http://www.w3.org/2000/svg"
   xmlns="http://www.w3.org/2000/svg"
   xmlns:inkscape="http://www.inkscape.org/namespaces/inkscape"
   version="1.1"
   width="45"
   height="93.75"
   id="svg2"
   xml:space="preserve"><metadata
     id="metadata8"><rdf:RDF><cc:Work
         rdf:about=""><dc:format>image/svg+xml</dc:format><dc:type
           rdf:resource="http://purl.org/dc/dcmitype/StillImage" /></cc:Work></rdf:RDF></metadata><defs
     id="defs6" /><g
     transform="matrix(1.25,0,0,-1.25,0,93.75)"
     id="g10"><g
       transform="scale(0.1,0.1)"
       id="g12"><path
         d="m 320.512,10.2109 -271.2503,0 c -20.7422,0 -31.1015,7.6602 -31.1015,22.9688 0,15.3086 10.3593,22.9687 31.1015,22.9687 l 271.2503,0 c 20.699,0 31.09,-7.6601 31.09,-22.9687 0,-15.3086 -10.391,-22.9688 -31.09,-22.9688 z M 82.5391,439.578 l 152.9729,0 -166.7229,-304.68 c -10,-19.136 -21.9493,-28.75 -35.7774,-28.75 -9.1836,0 -17.0312,3.282 -23.60154,9.84 -6.48047,6.481 -9.679691,14.301 -9.679691,23.442 0,2.3 0.78125,6.519 2.339841,12.648 l 80.46879,287.5 z m 69.0629,312.82 11.41,0 c 22.258,0 41.09,-7.308 56.398,-21.878 15.32,-14.61 22.969,-32.622 22.969,-54.059 0,-21.492 -7.649,-39.492 -22.969,-54.063 -15.308,-14.5 -34.14,-21.718 -56.398,-21.718 l -11.41,0 c -22.301,0 -41.09,7.218 -56.4028,21.718 -15.3203,14.571 -22.9687,32.571 -22.9687,54.063 0,21.437 7.6484,39.449 22.9687,54.059 15.3128,14.57 34.1018,21.878 56.4028,21.878 z"
         inkscape:connector-curvature="0"
         id="path14"
         style="fill:#000000;fill-opacity:1;fill-rule:nonzero;stroke:none" /></g></g></svg>