<?xml version="1.0" encoding="UTF-8" standalone="no"?>
<!-- Created with Inkscape (http://www.inkscape.org/) -->

<svg
   xmlns:dc="http://purl.org/dc/elements/1.1/"
   xmlns:cc="http://creativecommons.org/ns#"
   xmlns:rdf="http://www.w3.org/1999/02/22-rdf-syntax-ns#"
   xmlns:svg="http://www.w3.org/2000/svg"
   xmlns="http://www.w3.org/2000/svg"
   xmlns:inkscape="http://www.inkscape.org/namespaces/inkscape"
   version="1.1"
   width="127.5"
   height="130"
   id="svg2"
   xml:space="preserve"><metadata
     id="metadata8"><rdf:RDF><cc:Work
         rdf:about=""><dc:format>image/svg+xml</dc:format><dc:type
           rdf:resource="http://purl.org/dc/dcmitype/StillImage" /></cc:Work></rdf:RDF></metadata><defs
     id="defs6" /><g
     transform="matrix(1.25,0,0,-1.25,0,130)"
     id="g10"><g
       transform="scale(0.1,0.1)"
       id="g12"><path
         d="m 706.09,673.91 c 0,41.328 -11.949,74.11 -35.781,98.289 -23.75,24.141 -59.02,36.25 -105.778,36.25 l -228.75,0 0,-264.539 228.75,0 c 19.141,0 37.188,2.86 54.059,8.602 16.879,5.699 31.801,14.136 44.851,25.308 13.118,11.129 23.469,24.731 31.09,40.782 7.699,16.128 11.559,34.57 11.559,55.308 z M 717.5,189.699 c -6.172,13.821 -10.391,31.281 -12.66,52.34 -2.301,21.012 -4.18,38.481 -5.621,52.34 -1.559,23.75 -3.707,47.109 -6.41,70.16 -2.731,23.012 -8.508,43.672 -17.34,62.031 -8.75,18.442 -21.367,33.36 -37.809,44.84 -16.488,11.57 -39.648,17.352 -69.539,17.352 l -232.34,0 0,-299.063 -62.191,0 0,673.903 295.629,0 c 26.871,0 52.34,-3.672 76.402,-10.942 24.149,-7.301 45.238,-18.238 63.289,-32.808 18,-14.614 32.379,-32.973 43.121,-55.153 10.699,-22.187 16.09,-48.679 16.09,-79.379 0,-43.672 -10.93,-80.621 -32.812,-110.941 -21.789,-30.309 -53.399,-49.68 -94.84,-58.117 22.261,-4.614 40.511,-11.883 54.691,-21.883 14.141,-9.918 25.621,-21.789 34.371,-35.617 8.828,-13.75 15,-28.91 18.438,-45.473 3.511,-16.488 5.66,-33.519 6.41,-51.09 0.699,-11.488 1.641,-25.277 2.812,-41.41 1.129,-16.059 2.848,-32.148 5.149,-48.277 2.269,-16.172 5.359,-31.723 9.219,-46.723 3.832,-14.918 8.48,-26.949 13.91,-36.09 l -67.969,0 z m 260,330 c 0,64.449 -12.301,125.231 -36.879,182.34 -24.492,57.07 -57.812,106.723 -100,148.91 -42.18,42.18 -91.871,75.5 -149.062,100 -57.11,24.571 -117.809,36.871 -182.18,36.871 -64.379,0 -125.16,-12.3 -182.348,-36.871 -57.109,-24.5 -106.722,-57.82 -148.91,-100 C 136.02,808.762 102.699,759.109 78.1211,702.039 53.6289,644.93 41.4102,584.148 41.4102,519.699 41.4102,455.32 53.6289,394.539 78.1211,337.352 102.699,280.238 136.02,230.629 178.121,188.449 220.309,146.379 269.922,113.09 327.031,88.6016 384.219,64.0313 445,51.7305 509.379,51.7305 c 64.371,0 125.07,12.3008 182.18,36.8711 57.191,24.4884 106.882,57.7774 149.062,99.8474 42.188,42.18 75.508,91.789 100,148.903 24.578,57.187 36.879,117.968 36.879,182.347 z m 41.41,0 c 0,-70.551 -13.44,-136.679 -40.32,-198.437 C 951.719,259.578 915.23,205.789 869.219,159.852 823.281,113.84 769.41,77.4297 707.66,50.6289 645.98,23.7617 579.879,10.3203 509.379,10.3203 c -70.551,0 -136.68,13.4414 -198.438,40.3086 C 249.262,77.4297 195.391,113.84 149.379,159.852 103.441,205.789 67.0313,259.578 40.1602,321.262 13.3594,383.02 0,449.148 0,519.699 c 0,70.5 13.3594,136.602 40.1602,198.281 26.8711,61.75 63.2808,115.661 109.2188,161.719 46.012,46.012 99.883,82.422 161.562,109.211 61.758,26.88 127.887,40.32 198.438,40.32 70.5,0 136.601,-13.44 198.281,-40.32 61.75,-26.789 115.621,-63.199 161.559,-109.211 46.011,-46.058 82.5,-99.969 109.371,-161.719 26.88,-61.679 40.32,-127.781 40.32,-198.281 z"
         inkscape:connector-curvature="0"
         id="path14"
         style="fill:#000000;fill-opacity:1;fill-rule:nonzero;stroke:none" /></g></g></svg>