<?xml version="1.0" encoding="UTF-8" standalone="no"?>
<!-- Created with Inkscape (http://www.inkscape.org/) -->

<svg
   xmlns:dc="http://purl.org/dc/elements/1.1/"
   xmlns:cc="http://creativecommons.org/ns#"
   xmlns:rdf="http://www.w3.org/1999/02/22-rdf-syntax-ns#"
   xmlns:svg="http://www.w3.org/2000/svg"
   xmlns="http://www.w3.org/2000/svg"
   xmlns:inkscape="http://www.inkscape.org/namespaces/inkscape"
   version="1.1"
   width="113.75"
   height="115"
   id="svg2"
   xml:space="preserve"><metadata
     id="metadata8"><rdf:RDF><cc:Work
         rdf:about=""><dc:format>image/svg+xml</dc:format><dc:type
           rdf:resource="http://purl.org/dc/dcmitype/StillImage" /></cc:Work></rdf:RDF></metadata><defs
     id="defs6" /><g
     transform="matrix(1.25,0,0,-1.25,0,115)"
     id="g10"><g
       transform="scale(0.1,0.1)"
       id="g12"><path
         d="M 907.27,459.27 C 907.27,336.449 862.301,230.871 772.422,142.551 682.621,54.1914 576.328,10.0508 453.52,10.0508 330.699,10.0508 224.34,54.1914 134.449,142.551 44.6484,230.871 -0.230469,336.449 -0.230469,459.27 c 0,125.82 44.140669,232.89 132.500469,321.25 88.429,88.32 195.5,132.5 321.25,132.5 125.82,0 232.89,-44.18 321.25,-132.5 88.32,-88.36 132.5,-195.43 132.5,-321.25 z m -45,0 c 0,110.82 -40.43,206.64 -121.25,287.5 -80.86,80.82 -176.68,121.25 -287.5,121.25 -110.86,0 -206.68,-40.43 -287.5,-121.25 C 85.1602,665.91 44.7695,570.09 44.7695,459.27 44.7695,348.41 85.1602,253.328 166.02,173.949 246.84,94.6602 342.66,55.0508 453.52,55.0508 c 110.82,0 206.64,39.6094 287.5,118.8982 80.82,79.379 121.25,174.461 121.25,285.321 z m -152.661,-247.04 -310,0 0,49.379 121.25,130.313 c 45,50.937 73.481,87.578 85.469,110 11.953,22.5 17.973,47.226 17.973,74.219 0,26.879 -6.02,47.031 -17.973,60.468 -11.988,13.512 -31.488,20.313 -58.437,20.313 -35.942,0 -71.871,-14.961 -107.813,-44.844 l -35.937,40.313 c 44.879,38.949 92.808,58.437 143.75,58.437 44.879,0 79.3,-11.988 103.281,-35.937 23.949,-23.981 35.937,-55.43 35.937,-94.371 0,-29.93 -6.8,-59.071 -20.308,-87.5 -13.442,-28.442 -45.59,-69.649 -96.41,-123.598 l -94.371,-98.75 0,-4.531 233.589,0 0,-53.911 z m -386.41,0 -58.277,0 0,305.469 c 0,32.891 1.449,73.321 4.379,121.25 -5.942,-5.929 -20.903,-17.929 -44.852,-35.929 l -49.371,-40.469 -31.558,40.469 130.308,98.902 49.371,0 0,-489.692 z"
         inkscape:connector-curvature="0"
         id="path14"
         style="fill:#000000;fill-opacity:1;fill-rule:nonzero;stroke:none" /></g></g></svg>