<?xml version="1.0" encoding="UTF-8" standalone="no"?>
<!-- Created with Inkscape (http://www.inkscape.org/) -->

<svg
   xmlns:dc="http://purl.org/dc/elements/1.1/"
   xmlns:cc="http://creativecommons.org/ns#"
   xmlns:rdf="http://www.w3.org/1999/02/22-rdf-syntax-ns#"
   xmlns:svg="http://www.w3.org/2000/svg"
   xmlns="http://www.w3.org/2000/svg"
   xmlns:inkscape="http://www.inkscape.org/namespaces/inkscape"
   version="1.1"
   width="108.75"
   height="110"
   id="svg2"
   xml:space="preserve"><metadata
     id="metadata8"><rdf:RDF><cc:Work
         rdf:about=""><dc:format>image/svg+xml</dc:format><dc:type
           rdf:resource="http://purl.org/dc/dcmitype/StillImage" /></cc:Work></rdf:RDF></metadata><defs
     id="defs6" /><g
     transform="matrix(1.25,0,0,-1.25,0,110)"
     id="g10"><g
       transform="scale(0.1,0.1)"
       id="g12"><path
         d="M 860.121,440.148 C 860.121,320.77 818.09,219.211 734.02,135.461 649.961,51.7891 548.398,9.98828 429.34,9.98828 311.09,9.98828 209.961,51.7891 125.898,135.461 41.8398,219.211 -0.199219,320.77 -0.199219,440.148 c 0,74.141 19.257819,145.821 57.820319,215 C 96.25,724.41 150.121,777.57 219.18,814.68 c 69.058,37.07 139.101,55.621 210.16,55.621 72.262,0 142.961,-18.551 212.031,-55.621 69.059,-37.11 122.731,-90.078 161.09,-158.91 38.437,-68.86 57.66,-140.739 57.66,-215.622 z m -813.6015,0 C 46.5195,333.781 83.7891,243.16 158.398,168.27 233.09,93.4688 323.59,56.0898 429.961,56.0898 c 106.328,0 196.879,37.379 271.559,112.1802 74.691,74.89 112.031,165.511 112.031,271.878 0,66.954 -17.031,131.012 -51.09,192.192 C 728.398,693.59 680.621,740.77 619.18,773.898 557.809,807.02 494.73,823.59 429.961,823.59 365.16,823.59 302.07,807.02 240.738,773.898 179.379,740.77 131.68,693.59 97.6211,632.34 63.5508,571.16 46.5195,507.102 46.5195,440.148 z m 331.7185,-187.5 244.852,0 0,-79.847 -379.539,0 0,72.5 c 30.711,28.828 70.551,65.828 119.539,110.937 49.058,45.082 79.762,73.992 92.18,86.723 23.21,23.519 39.218,43.277 47.968,59.219 8.832,15.941 13.282,31.41 13.282,46.41 0,23.512 -8.899,42.57 -26.719,57.18 -17.813,14.57 -41.321,21.878 -70.461,21.878 -22.11,0 -45.551,-3.558 -70.32,-10.628 -24.68,-7.11 -58.551,-21.52 -101.559,-43.282 l 0,96.102 c 36.328,13.43 68.051,23.039 95.16,28.898 27.18,5.821 52.18,8.75 75,8.75 61.008,0 110,-14.179 146.867,-42.5 36.883,-28.238 55.313,-65.738 55.313,-112.5 0,-21.789 -4.531,-42.5 -13.59,-62.187 -8.981,-19.602 -25.082,-42.5 -48.281,-68.75 -6.371,-6.672 -26.211,-25.621 -59.532,-56.871 -33.238,-31.25 -73.277,-68.59 -120.16,-112.032 z"
         inkscape:connector-curvature="0"
         id="path14"
         style="fill:#000000;fill-opacity:1;fill-rule:nonzero;stroke:none" /></g></g></svg>