<?xml version="1.0" encoding="UTF-8" standalone="no"?>
<!-- Created with Inkscape (http://www.inkscape.org/) -->

<svg
   xmlns:dc="http://purl.org/dc/elements/1.1/"
   xmlns:cc="http://creativecommons.org/ns#"
   xmlns:rdf="http://www.w3.org/1999/02/22-rdf-syntax-ns#"
   xmlns:svg="http://www.w3.org/2000/svg"
   xmlns="http://www.w3.org/2000/svg"
   xmlns:inkscape="http://www.inkscape.org/namespaces/inkscape"
   version="1.1"
   width="127.5"
   height="130"
   id="svg2"
   xml:space="preserve"><metadata
     id="metadata8"><rdf:RDF><cc:Work
         rdf:about=""><dc:format>image/svg+xml</dc:format><dc:type
           rdf:resource="http://purl.org/dc/dcmitype/StillImage" /></cc:Work></rdf:RDF></metadata><defs
     id="defs6" /><g
     transform="matrix(1.25,0,0,-1.25,0,130)"
     id="g10"><g
       transform="scale(0.1,0.1)"
       id="g12"><path
         d="M 783.121,431.262 C 779.262,390.629 770.039,353.988 755.469,321.41 740.859,288.801 722.07,260.98 699.059,237.98 676.129,214.93 648.949,197.078 617.5,184.379 586.02,171.801 551.129,165.48 512.809,165.48 c -49.797,0 -93.508,8.981 -131.09,27.032 -37.5,18.008 -68.91,42.726 -94.219,74.218 -25.309,31.442 -44.488,68.43 -57.5,110.93 -13.051,42.578 -19.531,88.789 -19.531,138.602 0,49.058 6.48,95.039 19.531,137.968 13.012,43 32.34,80.192 57.969,111.559 25.703,31.441 57.34,56.172 94.84,74.223 37.582,18.008 80.941,27.027 130,27.027 31.453,0 61.921,-4.809 91.41,-14.379 29.57,-9.609 56.25,-23.59 80,-42.031 23.75,-18.359 43.633,-41.168 59.691,-68.43 16.129,-27.187 26.129,-58.398 30,-93.597 l -62.031,0 c -5.43,26.019 -14.5,49.218 -27.188,69.527 -12.621,20.32 -27.742,37.351 -45.312,51.101 -17.617,13.821 -37.188,24.411 -58.758,31.719 -21.48,7.262 -44.062,10.93 -67.812,10.93 -42.93,0 -79.528,-8.43 -109.84,-25.309 -30.239,-16.871 -55.117,-39.34 -74.688,-67.34 -19.609,-27.929 -33.832,-59.531 -42.66,-94.851 -8.742,-35.231 -13.121,-71.25 -13.121,-108.117 0,-36.801 4.379,-72.973 13.121,-108.602 8.828,-35.621 22.859,-67.262 42.039,-94.84 19.141,-27.621 44.059,-50.082 74.68,-67.34 30.711,-17.308 67.539,-25.941 110.469,-25.941 29.89,0 56.921,5.352 81.101,16.09 24.141,10.711 45.039,25.672 62.649,44.851 17.703,19.141 31.921,41.598 42.66,67.34 10.703,25.7 17.972,53.52 21.722,83.442 l 62.18,0 z M 977.5,519.699 c 0,64.449 -12.301,125.231 -36.879,182.34 -24.492,57.07 -57.812,106.723 -100,148.91 -42.18,42.18 -91.871,75.5 -149.062,100 -57.11,24.571 -117.809,36.871 -182.18,36.871 -64.379,0 -125.16,-12.3 -182.348,-36.871 -57.109,-24.5 -106.722,-57.82 -148.91,-100 C 136.02,808.762 102.699,759.109 78.1211,702.039 53.6289,644.93 41.4102,584.148 41.4102,519.699 41.4102,455.32 53.6289,394.539 78.1211,337.352 102.699,280.238 136.02,230.629 178.121,188.449 220.309,146.379 269.922,113.09 327.031,88.6016 384.219,64.0313 445,51.7305 509.379,51.7305 c 64.371,0 125.07,12.3008 182.18,36.8711 57.191,24.4884 106.882,57.7774 149.062,99.8474 42.188,42.18 75.508,91.789 100,148.903 24.578,57.187 36.879,117.968 36.879,182.347 z m 41.41,0 c 0,-70.551 -13.44,-136.679 -40.32,-198.437 C 951.719,259.578 915.23,205.789 869.219,159.852 823.281,113.84 769.41,77.4297 707.66,50.6289 645.98,23.7617 579.879,10.3203 509.379,10.3203 c -70.551,0 -136.68,13.4414 -198.438,40.3086 C 249.262,77.4297 195.391,113.84 149.379,159.852 103.441,205.789 67.0313,259.578 40.1602,321.262 13.3594,383.02 0,449.148 0,519.699 c 0,70.5 13.3594,136.602 40.1602,198.281 26.8711,61.75 63.2808,115.661 109.2188,161.719 46.012,46.012 99.883,82.422 161.562,109.211 61.758,26.88 127.887,40.32 198.438,40.32 70.5,0 136.601,-13.44 198.281,-40.32 61.75,-26.789 115.621,-63.199 161.559,-109.211 46.011,-46.058 82.5,-99.969 109.371,-161.719 26.88,-61.679 40.32,-127.781 40.32,-198.281 z"
         inkscape:connector-curvature="0"
         id="path14"
         style="fill:#000000;fill-opacity:1;fill-rule:nonzero;stroke:none" /></g></g></svg>