<?xml version="1.0" encoding="UTF-8" standalone="no"?>
<!-- Created with Inkscape (http://www.inkscape.org/) -->

<svg
   xmlns:dc="http://purl.org/dc/elements/1.1/"
   xmlns:cc="http://creativecommons.org/ns#"
   xmlns:rdf="http://www.w3.org/1999/02/22-rdf-syntax-ns#"
   xmlns:svg="http://www.w3.org/2000/svg"
   xmlns="http://www.w3.org/2000/svg"
   xmlns:inkscape="http://www.inkscape.org/namespaces/inkscape"
   version="1.1"
   width="113.75"
   height="115"
   id="svg2"
   xml:space="preserve"><metadata
     id="metadata8"><rdf:RDF><cc:Work
         rdf:about=""><dc:format>image/svg+xml</dc:format><dc:type
           rdf:resource="http://purl.org/dc/dcmitype/StillImage" /></cc:Work></rdf:RDF></metadata><defs
     id="defs6" /><g
     transform="matrix(1.25,0,0,-1.25,0,115)"
     id="g10"><g
       transform="scale(0.1,0.1)"
       id="g12"><path
         d="M 907.27,459.27 C 907.27,336.449 862.301,230.871 772.422,142.551 682.621,54.1914 576.328,10.0508 453.52,10.0508 330.699,10.0508 224.34,54.1914 134.449,142.551 44.6484,230.871 -0.230469,336.449 -0.230469,459.27 c 0,125.82 44.140669,232.89 132.500469,321.25 88.429,88.32 195.5,132.5 321.25,132.5 125.82,0 232.89,-44.18 321.25,-132.5 88.32,-88.36 132.5,-195.43 132.5,-321.25 z m -45,0 c 0,110.82 -40.43,206.64 -121.25,287.5 -80.86,80.82 -176.68,121.25 -287.5,121.25 -110.86,0 -206.68,-40.43 -287.5,-121.25 C 85.1602,665.91 44.7695,570.09 44.7695,459.27 44.7695,348.41 85.1602,253.328 166.02,173.949 246.84,94.6602 342.66,55.0508 453.52,55.0508 c 110.82,0 206.64,39.6094 287.5,118.8982 80.82,79.379 121.25,174.461 121.25,285.321 z m -426.719,-251.571 0,53.91 c 15,-5.937 34.449,-8.91 58.429,-8.91 50.942,0 89.11,16.449 114.54,49.379 25.39,32.891 38.121,82.344 38.121,148.281 l -4.371,0 c -21.059,-35.937 -55.551,-53.91 -103.442,-53.91 -44.918,0 -79.34,11.961 -103.277,35.942 -23.992,23.949 -35.942,61.328 -35.942,112.187 0,50.942 13.481,91.332 40.469,121.25 26.953,30 62.891,45 107.813,45 47.89,0 86.8,-18.75 116.718,-56.25 30,-37.418 45,-92.027 45,-163.906 0,-95.863 -17.968,-167.731 -53.91,-215.621 -35.929,-47.93 -89.84,-71.879 -161.719,-71.879 -20.929,0 -40.429,1.488 -58.429,4.527 z m 112.34,233.602 c 26.949,0 50.937,8.937 71.879,26.871 20.929,18.008 31.402,38.988 31.402,62.969 0,38.949 -9.762,69.609 -29.223,92.031 -19.488,22.5 -42.648,33.75 -69.527,33.75 -33.043,0 -57.031,-9.024 -72.031,-27.031 -14.922,-17.93 -22.34,-46.371 -22.34,-85.313 0,-32.93 7.418,-58.398 22.34,-76.406 15,-17.934 37.5,-26.871 67.5,-26.871 z M 323.199,212.23 l -58.277,0 0,305.469 c 0,32.891 1.449,73.321 4.379,121.25 -5.942,-5.929 -20.903,-17.929 -44.852,-35.929 l -49.371,-40.469 -31.558,40.469 130.308,98.902 49.371,0 0,-489.692 z"
         inkscape:connector-curvature="0"
         id="path14"
         style="fill:#000000;fill-opacity:1;fill-rule:nonzero;stroke:none" /></g></g></svg>