<?xml version="1.0" encoding="UTF-8" standalone="no"?>
<!-- Created with Inkscape (http://www.inkscape.org/) -->

<svg
   xmlns:dc="http://purl.org/dc/elements/1.1/"
   xmlns:cc="http://creativecommons.org/ns#"
   xmlns:rdf="http://www.w3.org/1999/02/22-rdf-syntax-ns#"
   xmlns:svg="http://www.w3.org/2000/svg"
   xmlns="http://www.w3.org/2000/svg"
   xmlns:inkscape="http://www.inkscape.org/namespaces/inkscape"
   version="1.1"
   width="113.75"
   height="115"
   id="svg2"
   xml:space="preserve"><metadata
     id="metadata8"><rdf:RDF><cc:Work
         rdf:about=""><dc:format>image/svg+xml</dc:format><dc:type
           rdf:resource="http://purl.org/dc/dcmitype/StillImage" /></cc:Work></rdf:RDF></metadata><defs
     id="defs6" /><g
     transform="matrix(1.25,0,0,-1.25,0,115)"
     id="g10"><g
       transform="scale(0.1,0.1)"
       id="g12"><path
         d="M 907.27,459.27 C 907.27,336.449 862.301,230.871 772.422,142.551 682.621,54.1914 576.328,10.0508 453.52,10.0508 330.699,10.0508 224.34,54.1914 134.449,142.551 44.6484,230.871 -0.230469,336.449 -0.230469,459.27 c 0,125.82 44.140669,232.89 132.500469,321.25 88.429,88.32 195.5,132.5 321.25,132.5 125.82,0 232.89,-44.18 321.25,-132.5 88.32,-88.36 132.5,-195.43 132.5,-321.25 z m -45,0 c 0,110.82 -40.43,206.64 -121.25,287.5 -80.86,80.82 -176.68,121.25 -287.5,121.25 -110.86,0 -206.68,-40.43 -287.5,-121.25 C 85.1602,665.91 44.7695,570.09 44.7695,459.27 44.7695,348.41 85.1602,253.328 166.02,173.949 246.84,94.6602 342.66,55.0508 453.52,55.0508 c 110.82,0 206.64,39.6094 287.5,118.8982 80.82,79.379 121.25,174.461 121.25,285.321 z m -273.911,9.058 c 80.821,-11.988 121.25,-50.937 121.25,-116.879 0,-44.918 -15,-80.859 -45,-107.808 -29.918,-26.993 -74.808,-40.469 -134.687,-40.469 -53.981,0 -97.422,8.988 -130.313,27.027 l 0,58.442 c 38.942,-21.051 82.379,-31.563 130.313,-31.563 38.949,0 68.129,7.5 87.5,22.5 19.457,15 29.219,38.942 29.219,71.871 0,30 -10.469,52.422 -31.411,67.352 -20.929,15 -52.421,22.5 -94.371,22.5 l -44.839,0 0,49.371 44.839,0 c 35.942,0 63.629,7.5 83.121,22.5 19.461,15 29.219,38.949 29.219,71.879 0,23.937 -7.5,41.91 -22.5,53.898 -14.918,11.961 -35.859,17.973 -62.808,17.973 -38.981,0 -77.93,-13.512 -116.871,-40.473 l -31.411,45 c 44.879,32.891 94.301,49.379 148.282,49.379 47.89,0 84.57,-11.25 110,-33.75 25.507,-22.418 38.281,-51.558 38.281,-87.5 0,-65.937 -35.942,-106.367 -107.813,-121.25 z m -265.16,-256.098 -58.277,0 0,305.469 c 0,32.891 1.449,73.321 4.379,121.25 -5.942,-5.929 -20.903,-17.929 -44.852,-35.929 l -49.371,-40.469 -31.558,40.469 130.308,98.902 49.371,0 0,-489.692 z"
         inkscape:connector-curvature="0"
         id="path14"
         style="fill:#000000;fill-opacity:1;fill-rule:nonzero;stroke:none" /></g></g></svg>