<?xml version="1.0" encoding="UTF-8" standalone="no"?>
<!-- Created with Inkscape (http://www.inkscape.org/) -->

<svg
   xmlns:dc="http://purl.org/dc/elements/1.1/"
   xmlns:cc="http://creativecommons.org/ns#"
   xmlns:rdf="http://www.w3.org/1999/02/22-rdf-syntax-ns#"
   xmlns:svg="http://www.w3.org/2000/svg"
   xmlns="http://www.w3.org/2000/svg"
   xmlns:inkscape="http://www.inkscape.org/namespaces/inkscape"
   version="1.1"
   width="113.75"
   height="115"
   id="svg2"
   xml:space="preserve"><metadata
     id="metadata8"><rdf:RDF><cc:Work
         rdf:about=""><dc:format>image/svg+xml</dc:format><dc:type
           rdf:resource="http://purl.org/dc/dcmitype/StillImage" /></cc:Work></rdf:RDF></metadata><defs
     id="defs6" /><g
     transform="matrix(1.25,0,0,-1.25,0,115)"
     id="g10"><g
       transform="scale(0.1,0.1)"
       id="g12"><path
         d="M 907.27,459.27 C 907.27,336.449 862.301,230.871 772.422,142.551 682.621,54.1914 576.328,10.0508 453.52,10.0508 330.699,10.0508 224.34,54.1914 134.449,142.551 44.6484,230.871 -0.230469,336.449 -0.230469,459.27 c 0,125.82 44.140669,232.89 132.500469,321.25 88.429,88.32 195.5,132.5 321.25,132.5 125.82,0 232.89,-44.18 321.25,-132.5 88.32,-88.36 132.5,-195.43 132.5,-321.25 z m -45,0 c 0,110.82 -40.43,206.64 -121.25,287.5 -80.86,80.82 -176.68,121.25 -287.5,121.25 -110.86,0 -206.68,-40.43 -287.5,-121.25 C 85.1602,665.91 44.7695,570.09 44.7695,459.27 44.7695,348.41 85.1602,253.328 166.02,173.949 246.84,94.6602 342.66,55.0508 453.52,55.0508 c 110.82,0 206.64,39.6094 287.5,118.8982 80.82,79.379 121.25,174.461 121.25,285.321 z m -224.54,-193.129 0,238.129 c 0,29.878 -5.269,52.339 -15.781,67.339 -10.429,15 -27.609,22.5 -51.558,22.5 -30,0 -53.243,-10.55 -69.692,-31.558 -16.48,-20.942 -24.679,-50.903 -24.679,-89.852 l 0,-206.558 -58.442,0 0,238.129 c 0,29.878 -6.019,52.339 -17.969,67.339 -11.988,15 -28.437,22.5 -49.379,22.5 -32.929,0 -56.871,-11.25 -71.871,-33.75 -15,-22.5 -22.5,-56.211 -22.5,-101.089 l 0,-193.129 -62.808,0 0,372.808 53.898,0 8.91,-49.371 c 20.942,35.942 55.352,53.902 103.282,53.902 53.949,0 89.879,-19.492 107.808,-58.429 l 4.531,0 c 20.942,38.937 56.879,58.429 107.821,58.429 41.949,0 72.648,-11.25 92.027,-33.75 19.453,-22.421 29.223,-56.089 29.223,-101.089 l 0,-242.5 -62.821,0 z"
         inkscape:connector-curvature="0"
         id="path14"
         style="fill:#000000;fill-opacity:1;fill-rule:nonzero;stroke:none" /></g></g></svg>