<?xml version="1.0" encoding="UTF-8" standalone="no"?>
<!-- Created with Inkscape (http://www.inkscape.org/) -->

<svg
   xmlns:dc="http://purl.org/dc/elements/1.1/"
   xmlns:cc="http://creativecommons.org/ns#"
   xmlns:rdf="http://www.w3.org/1999/02/22-rdf-syntax-ns#"
   xmlns:svg="http://www.w3.org/2000/svg"
   xmlns="http://www.w3.org/2000/svg"
   xmlns:inkscape="http://www.inkscape.org/namespaces/inkscape"
   version="1.1"
   width="113.75"
   height="115"
   id="svg2"
   xml:space="preserve"><metadata
     id="metadata8"><rdf:RDF><cc:Work
         rdf:about=""><dc:format>image/svg+xml</dc:format><dc:type
           rdf:resource="http://purl.org/dc/dcmitype/StillImage" /></cc:Work></rdf:RDF></metadata><defs
     id="defs6" /><g
     transform="matrix(1.25,0,0,-1.25,0,115)"
     id="g10"><g
       transform="scale(0.1,0.1)"
       id="g12"><path
         d="M 907.27,459.27 C 907.27,336.449 862.301,230.871 772.422,142.551 682.621,54.1914 576.328,10.0508 453.52,10.0508 330.699,10.0508 224.34,54.1914 134.449,142.551 44.6484,230.871 -0.230469,336.449 -0.230469,459.27 c 0,125.82 44.140669,232.89 132.500469,321.25 88.429,88.32 195.5,132.5 321.25,132.5 125.82,0 232.89,-44.18 321.25,-132.5 88.32,-88.36 132.5,-195.43 132.5,-321.25 z m -45,0 c 0,110.82 -40.43,206.64 -121.25,287.5 -80.86,80.82 -176.68,121.25 -287.5,121.25 -110.86,0 -206.68,-40.43 -287.5,-121.25 C 85.1602,665.91 44.7695,570.09 44.7695,459.27 44.7695,348.41 85.1602,253.328 166.02,173.949 246.84,94.6602 342.66,55.0508 453.52,55.0508 c 110.82,0 206.64,39.6094 287.5,118.8982 80.82,79.379 121.25,174.461 121.25,285.321 z m -539.071,-247.04 -58.277,0 0,305.469 c 0,32.891 1.449,73.321 4.379,121.25 -5.942,-5.929 -20.903,-17.929 -44.852,-35.929 l -49.371,-40.469 -31.558,40.469 130.308,98.902 49.371,0 0,-489.692 z m 80.942,17.969 0,58.442 c 32.89,-21.051 73.32,-31.563 121.25,-31.563 38.949,0 68.16,8.203 87.66,24.692 19.449,16.558 29.219,42.808 29.219,78.75 0,32.89 -9.77,57.57 -29.219,74.058 -19.5,16.442 -48.711,24.692 -87.66,24.692 -17.93,0 -38.871,-1.532 -62.813,-4.54 l -13.598,-4.371 -31.402,22.34 17.973,229.223 233.59,0 0,-53.902 -179.692,0 -13.429,-143.75 c 26.949,5.929 50.929,8.902 71.871,8.902 47.89,0 86.089,-13.512 114.531,-40.473 28.437,-26.871 42.656,-61.328 42.656,-103.277 0,-56.871 -15,-98.832 -45,-125.781 -29.918,-26.993 -74.808,-40.469 -134.687,-40.469 -47.93,0 -88.36,8.988 -121.25,27.027 z"
         inkscape:connector-curvature="0"
         id="path14"
         style="fill:#000000;fill-opacity:1;fill-rule:nonzero;stroke:none" /></g></g></svg>