<?xml version="1.0" encoding="UTF-8" standalone="no"?>
<!-- Created with Inkscape (http://www.inkscape.org/) -->

<svg
   xmlns:dc="http://purl.org/dc/elements/1.1/"
   xmlns:cc="http://creativecommons.org/ns#"
   xmlns:rdf="http://www.w3.org/1999/02/22-rdf-syntax-ns#"
   xmlns:svg="http://www.w3.org/2000/svg"
   xmlns="http://www.w3.org/2000/svg"
   xmlns:inkscape="http://www.inkscape.org/namespaces/inkscape"
   version="1.1"
   width="108.75"
   height="110"
   id="svg2"
   xml:space="preserve"><metadata
     id="metadata8"><rdf:RDF><cc:Work
         rdf:about=""><dc:format>image/svg+xml</dc:format><dc:type
           rdf:resource="http://purl.org/dc/dcmitype/StillImage" /></cc:Work></rdf:RDF></metadata><defs
     id="defs6" /><g
     transform="matrix(1.25,0,0,-1.25,0,110)"
     id="g10"><g
       transform="scale(0.1,0.1)"
       id="g12"><path
         d="M 860.121,440.148 C 860.121,320.77 818.09,219.211 734.02,135.461 649.961,51.7891 548.398,9.98828 429.34,9.98828 311.09,9.98828 209.961,51.7891 125.898,135.461 41.8398,219.211 -0.199219,320.77 -0.199219,440.148 c 0,74.141 19.257819,145.821 57.820319,215 C 96.25,724.41 150.121,777.57 219.18,814.68 c 69.058,37.07 139.101,55.621 210.16,55.621 72.262,0 142.961,-18.551 212.031,-55.621 69.059,-37.11 122.731,-90.078 161.09,-158.91 38.437,-68.86 57.66,-140.739 57.66,-215.622 z m -813.6015,0 C 46.5195,333.781 83.7891,243.16 158.398,168.27 233.09,93.4688 323.59,56.0898 429.961,56.0898 c 106.328,0 196.879,37.379 271.559,112.1802 74.691,74.89 112.031,165.511 112.031,271.878 0,66.954 -17.031,131.012 -51.09,192.192 C 728.398,693.59 680.621,740.77 619.18,773.898 557.809,807.02 494.73,823.59 429.961,823.59 365.16,823.59 302.07,807.02 240.738,773.898 179.379,740.77 131.68,693.59 97.6211,632.34 63.5508,571.16 46.5195,507.102 46.5195,440.148 z m 535.0005,16.25 c 4.89,-1.168 18.359,-13.828 40.468,-37.968 22.071,-24.059 33.133,-53.52 33.133,-88.282 0,-52.808 -20.242,-93.867 -60.633,-123.128 -40.429,-29.18 -97.148,-43.75 -170.148,-43.75 -23.988,0 -48.719,2.109 -74.219,6.41 -25.43,4.371 -54.609,11.601 -87.5,21.718 l 0,94.372 c 34.059,-18.04 62.731,-29.641 86.09,-34.84 23.437,-5.231 47.891,-7.809 73.437,-7.809 43.75,0 76.403,7.34 97.973,22.027 21.559,14.762 32.34,36.442 32.34,65 0,26.563 -10.082,47.114 -30.16,61.723 -20,14.57 -48.551,21.867 -85.621,21.867 l -78.59,0 0,78.602 81.398,0 c 33.75,0 58.832,5.621 75.313,16.871 16.449,11.25 24.687,27.699 24.687,49.379 0,22.5 -8.668,39.609 -25.937,51.398 -17.18,11.762 -42.813,17.66 -76.871,17.66 -19.489,0 -40.59,-1.988 -63.282,-5.937 -22.617,-3.871 -53.91,-11.801 -93.91,-23.75 l 0,84.687 c 35.512,9.063 65.981,15.473 91.41,19.223 25.512,3.75 49.692,5.617 72.5,5.617 60.313,0 108.512,-12.886 144.692,-38.59 36.129,-25.628 54.211,-59.957 54.211,-102.968 0,-30.309 -9.762,-56.168 -29.211,-77.5 -19.5,-21.371 -30,-32.032 -31.57,-32.032 z"
         inkscape:connector-curvature="0"
         id="path14"
         style="fill:#000000;fill-opacity:1;fill-rule:nonzero;stroke:none" /></g></g></svg>