<?xml version="1.0" encoding="UTF-8" standalone="no"?>
<!-- Created with Inkscape (http://www.inkscape.org/) -->

<svg
   xmlns:dc="http://purl.org/dc/elements/1.1/"
   xmlns:cc="http://creativecommons.org/ns#"
   xmlns:rdf="http://www.w3.org/1999/02/22-rdf-syntax-ns#"
   xmlns:svg="http://www.w3.org/2000/svg"
   xmlns="http://www.w3.org/2000/svg"
   xmlns:inkscape="http://www.inkscape.org/namespaces/inkscape"
   version="1.1"
   width="113.75"
   height="115"
   id="svg2"
   xml:space="preserve"><metadata
     id="metadata8"><rdf:RDF><cc:Work
         rdf:about=""><dc:format>image/svg+xml</dc:format><dc:type
           rdf:resource="http://purl.org/dc/dcmitype/StillImage" /></cc:Work></rdf:RDF></metadata><defs
     id="defs6" /><g
     transform="matrix(1.25,0,0,-1.25,0,115)"
     id="g10"><g
       transform="scale(0.1,0.1)"
       id="g12"><path
         d="M 907.27,459.27 C 907.27,336.449 862.301,230.871 772.422,142.551 682.621,54.1914 576.328,10.0508 453.52,10.0508 330.699,10.0508 224.34,54.1914 134.449,142.551 44.6484,230.871 -0.230469,336.449 -0.230469,459.27 c 0,125.82 44.140669,232.89 132.500469,321.25 88.429,88.32 195.5,132.5 321.25,132.5 125.82,0 232.89,-44.18 321.25,-132.5 88.32,-88.36 132.5,-195.43 132.5,-321.25 z m -45,0 c 0,110.82 -40.43,206.64 -121.25,287.5 -80.86,80.82 -176.68,121.25 -287.5,121.25 -110.86,0 -206.68,-40.43 -287.5,-121.25 C 85.1602,665.91 44.7695,570.09 44.7695,459.27 44.7695,348.41 85.1602,253.328 166.02,173.949 246.84,94.6602 342.66,55.0508 453.52,55.0508 c 110.82,0 206.64,39.6094 287.5,118.8982 80.82,79.379 121.25,174.461 121.25,285.321 z m -557.04,-161.719 0,53.898 c 45,-17.929 86.918,-26.871 125.79,-26.871 30,0 53.199,4.453 69.679,13.442 16.449,8.941 24.692,22.421 24.692,40.46 0,11.961 -5.27,22.43 -15.782,31.411 -10.429,8.949 -38.871,22.379 -85.308,40.308 -46.371,18.012 -76.332,35.242 -89.852,51.723 -13.429,16.449 -20.148,35.199 -20.148,56.25 0,29.879 11.949,53.789 35.929,71.719 23.95,18.007 58.36,27.031 103.29,27.031 44.878,0 86.789,-8.981 125.781,-26.871 l -22.5,-49.531 c -35.942,15 -71.879,22.5 -107.821,22.5 -26.871,0 -46.32,-3.75 -58.281,-11.25 -11.988,-7.5 -17.969,-18.719 -17.969,-33.598 0,-11.992 3.68,-21.012 11.098,-27.031 7.5,-5.942 35.942,-18.672 85.313,-38.121 49.449,-19.5 80.937,-37.469 94.379,-53.911 13.511,-16.488 20.308,-35.238 20.308,-56.25 0,-38.871 -12.777,-67.308 -38.277,-85.308 -25.43,-17.93 -63.602,-26.879 -114.531,-26.879 -53.872,0 -95.79,8.949 -125.79,26.879 z"
         inkscape:connector-curvature="0"
         id="path14"
         style="fill:#000000;fill-opacity:1;fill-rule:nonzero;stroke:none" /></g></g></svg>