<?xml version="1.0" encoding="UTF-8" standalone="no"?>
<!-- Created with Inkscape (http://www.inkscape.org/) -->

<svg
   xmlns:dc="http://purl.org/dc/elements/1.1/"
   xmlns:cc="http://creativecommons.org/ns#"
   xmlns:rdf="http://www.w3.org/1999/02/22-rdf-syntax-ns#"
   xmlns:svg="http://www.w3.org/2000/svg"
   xmlns="http://www.w3.org/2000/svg"
   xmlns:inkscape="http://www.inkscape.org/namespaces/inkscape"
   version="1.1"
   width="113.75"
   height="115"
   id="svg2"
   xml:space="preserve"><metadata
     id="metadata8"><rdf:RDF><cc:Work
         rdf:about=""><dc:format>image/svg+xml</dc:format><dc:type
           rdf:resource="http://purl.org/dc/dcmitype/StillImage" /></cc:Work></rdf:RDF></metadata><defs
     id="defs6" /><g
     transform="matrix(1.25,0,0,-1.25,0,115)"
     id="g10"><g
       transform="scale(0.1,0.1)"
       id="g12"><path
         d="M 907.27,459.27 C 907.27,336.449 862.301,230.871 772.422,142.551 682.621,54.1914 576.328,10.0508 453.52,10.0508 330.699,10.0508 224.34,54.1914 134.449,142.551 44.6484,230.871 -0.230469,336.449 -0.230469,459.27 c 0,125.82 44.140669,232.89 132.500469,321.25 88.429,88.32 195.5,132.5 321.25,132.5 125.82,0 232.89,-44.18 321.25,-132.5 88.32,-88.36 132.5,-195.43 132.5,-321.25 z m -45,0 c 0,110.82 -40.43,206.64 -121.25,287.5 -80.86,80.82 -176.68,121.25 -287.5,121.25 -110.86,0 -206.68,-40.43 -287.5,-121.25 C 85.1602,665.91 44.7695,570.09 44.7695,459.27 44.7695,348.41 85.1602,253.328 166.02,173.949 246.84,94.6602 342.66,55.0508 453.52,55.0508 c 110.82,0 206.64,39.6094 287.5,118.8982 80.82,79.379 121.25,174.461 121.25,285.321 z m -592.969,242.652 62.969,0 98.75,-233.594 c 11.949,-30 22.5,-59.957 31.558,-89.848 l 4.371,0 c 0,5.942 8.992,35.86 27.031,89.848 l 80.79,233.594 62.96,0 -157.179,-422.344 c -15,-44.918 -33.051,-75.59 -54.071,-92.027 -20.929,-16.492 -50.859,-24.692 -89.679,-24.692 -23.992,0 -44.961,2.969 -62.973,8.911 l 0,49.371 c 8.942,-5.942 28.442,-8.911 58.442,-8.911 38.941,0 67.378,23.95 85.308,71.879 l 17.973,44.84 -166.25,372.973 z"
         inkscape:connector-curvature="0"
         id="path14"
         style="fill:#000000;fill-opacity:1;fill-rule:nonzero;stroke:none" /></g></g></svg>