<?xml version="1.0" encoding="UTF-8" standalone="no"?>
<!-- Created with Inkscape (http://www.inkscape.org/) -->

<svg
   xmlns:dc="http://purl.org/dc/elements/1.1/"
   xmlns:cc="http://creativecommons.org/ns#"
   xmlns:rdf="http://www.w3.org/1999/02/22-rdf-syntax-ns#"
   xmlns:svg="http://www.w3.org/2000/svg"
   xmlns="http://www.w3.org/2000/svg"
   xmlns:inkscape="http://www.inkscape.org/namespaces/inkscape"
   version="1.1"
   width="108.75"
   height="110"
   id="svg2"
   xml:space="preserve"><metadata
     id="metadata8"><rdf:RDF><cc:Work
         rdf:about=""><dc:format>image/svg+xml</dc:format><dc:type
           rdf:resource="http://purl.org/dc/dcmitype/StillImage" /></cc:Work></rdf:RDF></metadata><defs
     id="defs6" /><g
     transform="matrix(1.25,0,0,-1.25,0,110)"
     id="g10"><g
       transform="scale(0.1,0.1)"
       id="g12"><path
         d="M 860.121,440.148 C 860.121,320.77 818.09,219.211 734.02,135.461 649.961,51.7891 548.398,9.98828 429.34,9.98828 311.09,9.98828 209.961,51.7891 125.898,135.461 41.8398,219.211 -0.199219,320.77 -0.199219,440.148 c 0,74.141 19.257819,145.821 57.820319,215 C 96.25,724.41 150.121,777.57 219.18,814.68 c 69.058,37.07 139.101,55.621 210.16,55.621 72.262,0 142.961,-18.551 212.031,-55.621 69.059,-37.11 122.731,-90.078 161.09,-158.91 38.437,-68.86 57.66,-140.739 57.66,-215.622 z m -813.6015,0 C 46.5195,333.781 83.7891,243.16 158.398,168.27 233.09,93.4688 323.59,56.0898 429.961,56.0898 c 106.328,0 196.879,37.379 271.559,112.1802 74.691,74.89 112.031,165.511 112.031,271.878 0,66.954 -17.031,131.012 -51.09,192.192 C 728.398,693.59 680.621,740.77 619.18,773.898 557.809,807.02 494.73,823.59 429.961,823.59 365.16,823.59 302.07,807.02 240.738,773.898 179.379,740.77 131.68,693.59 97.6211,632.34 63.5508,571.16 46.5195,507.102 46.5195,440.148 z M 432.148,411.551 c -31.367,0 -55.937,-7.5 -73.75,-22.5 -17.808,-15 -26.718,-36.172 -26.718,-63.43 0,-27.422 8.91,-48.601 26.718,-63.601 17.813,-14.918 42.383,-22.34 73.75,-22.34 31.442,0 56.09,7.539 73.903,22.66 17.82,15.191 26.719,36.289 26.719,63.281 0,27.258 -8.899,48.43 -26.719,63.43 -17.813,15 -42.461,22.5 -73.903,22.5 z M 303.09,452.488 c -1.488,0.391 -12.149,11.641 -32.039,33.75 -19.801,22.071 -29.68,48.641 -29.68,79.692 0,43.441 17.07,77.851 51.25,103.281 34.258,25.508 80.777,38.277 139.527,38.277 58.832,0 105.313,-12.769 139.372,-38.277 34.07,-25.43 51.101,-59.84 51.101,-103.281 0,-31.051 -9.851,-57.621 -29.531,-79.692 -19.692,-22.109 -30.281,-33.359 -31.719,-33.75 5.617,-1.168 19.449,-14.019 41.559,-38.59 22.07,-24.488 33.121,-53.91 33.121,-88.277 0,-51.68 -17.813,-91.68 -53.43,-120 C 547.07,177.379 496.91,163.27 432.148,163.27 c -64.687,0 -114.847,14.109 -150.468,42.351 -35.551,28.32 -53.282,68.32 -53.282,120 0,34.367 11.012,63.789 33.122,88.277 22.07,24.571 35.941,37.422 41.57,38.59 z m 40.461,106.723 c 0,-22.813 7.539,-40.43 22.66,-52.813 15.199,-12.418 37.187,-18.597 65.937,-18.597 28.122,0 49.84,6.179 65.153,18.597 15.398,12.383 23.129,30 23.129,52.813 0,23.199 -7.731,40.98 -23.129,53.277 -15.313,12.391 -37.031,18.602 -65.153,18.602 -28.75,0 -50.738,-6.211 -65.937,-18.602 -15.121,-12.297 -22.66,-30.078 -22.66,-53.277 z"
         inkscape:connector-curvature="0"
         id="path14"
         style="fill:#000000;fill-opacity:1;fill-rule:nonzero;stroke:none" /></g></g></svg>