<?xml version="1.0" encoding="UTF-8" standalone="no"?>
<!-- Created with Inkscape (http://www.inkscape.org/) -->

<svg
   xmlns:dc="http://purl.org/dc/elements/1.1/"
   xmlns:cc="http://creativecommons.org/ns#"
   xmlns:rdf="http://www.w3.org/1999/02/22-rdf-syntax-ns#"
   xmlns:svg="http://www.w3.org/2000/svg"
   xmlns="http://www.w3.org/2000/svg"
   xmlns:inkscape="http://www.inkscape.org/namespaces/inkscape"
   version="1.1"
   width="113.75"
   height="115"
   id="svg2"
   xml:space="preserve"><metadata
     id="metadata8"><rdf:RDF><cc:Work
         rdf:about=""><dc:format>image/svg+xml</dc:format><dc:type
           rdf:resource="http://purl.org/dc/dcmitype/StillImage" /></cc:Work></rdf:RDF></metadata><defs
     id="defs6" /><g
     transform="matrix(1.25,0,0,-1.25,0,115)"
     id="g10"><g
       transform="scale(0.1,0.1)"
       id="g12"><path
         d="M 907.27,459.27 C 907.27,336.449 862.301,230.871 772.422,142.551 682.621,54.1914 576.328,10.0508 453.52,10.0508 330.699,10.0508 224.34,54.1914 134.449,142.551 44.6484,230.871 -0.230469,336.449 -0.230469,459.27 c 0,125.82 44.140669,232.89 132.500469,321.25 88.429,88.32 195.5,132.5 321.25,132.5 125.82,0 232.89,-44.18 321.25,-132.5 88.32,-88.36 132.5,-195.43 132.5,-321.25 z m -45,0 c 0,110.82 -40.43,206.64 -121.25,287.5 -80.86,80.82 -176.68,121.25 -287.5,121.25 -110.86,0 -206.68,-40.43 -287.5,-121.25 C 85.1602,665.91 44.7695,570.09 44.7695,459.27 44.7695,348.41 85.1602,253.328 166.02,173.949 246.84,94.6602 342.66,55.0508 453.52,55.0508 c 110.82,0 206.64,39.6094 287.5,118.8982 80.82,79.379 121.25,174.461 121.25,285.321 z m -503.129,-188.598 -4.371,0 -13.598,-49.531 -44.844,0 0,525.629 62.813,0 0,-125.79 c 0,-15 -1.481,-40.46 -4.371,-76.402 l 4.371,0 c 26.949,35.942 67.418,53.902 121.41,53.902 47.89,0 86.789,-16.48 116.719,-49.371 30,-32.929 45,-80.859 45,-143.75 0,-59.918 -15,-106.328 -45,-139.218 -29.93,-32.93 -68.829,-49.371 -116.719,-49.371 -50.942,0 -91.41,17.96 -121.41,53.902 z m 112.339,-4.531 c 35.942,0 62.11,11.949 78.598,35.937 16.442,23.942 24.692,59.883 24.692,107.813 0,44.879 -8.25,79.3 -24.692,103.281 -16.488,23.949 -42.656,35.937 -78.598,35.937 -38.98,0 -67.46,-10.468 -85.46,-31.41 -17.93,-20.929 -26.879,-58.398 -26.879,-112.34 0,-44.918 8.949,-79.339 26.879,-103.281 18,-23.988 46.48,-35.937 85.46,-35.937 z"
         inkscape:connector-curvature="0"
         id="path14"
         style="fill:#000000;fill-opacity:1;fill-rule:nonzero;stroke:none" /></g></g></svg>