<?xml version="1.0" encoding="UTF-8" standalone="no"?>
<!-- Created with Inkscape (http://www.inkscape.org/) -->

<svg
   xmlns:dc="http://purl.org/dc/elements/1.1/"
   xmlns:cc="http://creativecommons.org/ns#"
   xmlns:rdf="http://www.w3.org/1999/02/22-rdf-syntax-ns#"
   xmlns:svg="http://www.w3.org/2000/svg"
   xmlns="http://www.w3.org/2000/svg"
   xmlns:inkscape="http://www.inkscape.org/namespaces/inkscape"
   version="1.1"
   width="108.75"
   height="110"
   id="svg2"
   xml:space="preserve"><metadata
     id="metadata8"><rdf:RDF><cc:Work
         rdf:about=""><dc:format>image/svg+xml</dc:format><dc:type
           rdf:resource="http://purl.org/dc/dcmitype/StillImage" /></cc:Work></rdf:RDF></metadata><defs
     id="defs6" /><g
     transform="matrix(1.25,0,0,-1.25,0,110)"
     id="g10"><g
       transform="scale(0.1,0.1)"
       id="g12"><path
         d="M 860.121,440.148 C 860.121,320.77 818.09,219.211 734.02,135.461 649.961,51.7891 548.398,9.98828 429.34,9.98828 311.09,9.98828 209.961,51.7891 125.898,135.461 41.8398,219.211 -0.199219,320.77 -0.199219,440.148 c 0,74.141 19.257819,145.821 57.820319,215 C 96.25,724.41 150.121,777.57 219.18,814.68 c 69.058,37.07 139.101,55.621 210.16,55.621 72.262,0 142.961,-18.551 212.031,-55.621 69.059,-37.11 122.731,-90.078 161.09,-158.91 38.437,-68.86 57.66,-140.739 57.66,-215.622 z m -813.6015,0 C 46.5195,333.781 83.7891,243.16 158.398,168.27 233.09,93.4688 323.59,56.0898 429.961,56.0898 c 106.328,0 196.879,37.379 271.559,112.1802 74.691,74.89 112.031,165.511 112.031,271.878 0,66.954 -17.031,131.012 -51.09,192.192 C 728.398,693.59 680.621,740.77 619.18,773.898 557.809,807.02 494.73,823.59 429.961,823.59 365.16,823.59 302.07,807.02 240.738,773.898 179.379,740.77 131.68,693.59 97.6211,632.34 63.5508,571.16 46.5195,507.102 46.5195,440.148 z m 224.5315,-252.66 0,87.5 c 31.879,-13.437 56.879,-22.148 75,-26.09 18.129,-3.867 35.789,-5.777 52.969,-5.777 44.57,0 78.75,13.75 102.5,41.25 23.75,27.5 36.57,56.008 38.441,85.617 3.75,4.774 -6.371,1.563 -30.313,-9.687 C 485.66,349.129 458.91,343.59 429.34,343.59 c -59.5,0 -106.641,16.32 -141.41,49.058 -34.809,32.813 -52.192,76.911 -52.192,132.34 0,54.262 18.133,98.211 54.383,131.883 36.328,33.75 84.449,50.617 144.367,50.617 69.262,0 121.762,-23.707 157.5,-71.09 C 627.699,588.98 645.59,521.91 645.59,435.148 645.59,353.469 623.75,287.73 580.121,237.961 536.559,188.16 477.34,163.27 402.461,163.27 c -19.801,0 -39.762,1.761 -59.84,5.32 -20,3.629 -43.871,9.922 -71.57,18.898 z m 163.437,231.25 c 29.141,0 52.231,9.141 69.223,27.5 17.07,18.442 25.629,44.692 25.629,78.75 0,34.063 -8.559,60.242 -25.629,78.602 -16.992,18.32 -40.082,27.5 -69.223,27.5 -29.179,0 -52.418,-9.18 -69.687,-27.5 -17.18,-18.36 -25.781,-44.539 -25.781,-78.602 0,-34.058 8.601,-60.308 25.781,-78.75 17.269,-18.359 40.508,-27.5 69.687,-27.5 z"
         inkscape:connector-curvature="0"
         id="path14"
         style="fill:#000000;fill-opacity:1;fill-rule:nonzero;stroke:none" /></g></g></svg>