<?xml version="1.0" encoding="UTF-8" standalone="no"?>
<!-- Created with Inkscape (http://www.inkscape.org/) -->

<svg
   xmlns:dc="http://purl.org/dc/elements/1.1/"
   xmlns:cc="http://creativecommons.org/ns#"
   xmlns:rdf="http://www.w3.org/1999/02/22-rdf-syntax-ns#"
   xmlns:svg="http://www.w3.org/2000/svg"
   xmlns="http://www.w3.org/2000/svg"
   xmlns:inkscape="http://www.inkscape.org/namespaces/inkscape"
   version="1.1"
   width="127.5"
   height="130"
   id="svg2"
   xml:space="preserve"><metadata
     id="metadata8"><rdf:RDF><cc:Work
         rdf:about=""><dc:format>image/svg+xml</dc:format><dc:type
           rdf:resource="http://purl.org/dc/dcmitype/StillImage" /></cc:Work></rdf:RDF></metadata><defs
     id="defs6" /><g
     transform="matrix(1.25,0,0,-1.25,0,130)"
     id="g10"><g
       transform="scale(0.1,0.1)"
       id="g12"><path
         d="m 779.691,187.352 -47.191,0 -6.879,125.468 c -15.312,-43.05 -41.992,-76.992 -80,-101.871 -37.922,-24.929 -86.402,-37.347 -145.461,-37.347 -47.5,0 -90.082,8.437 -127.66,25.308 -37.5,16.879 -69.34,40.82 -95.469,71.879 -26.051,31.012 -46.011,68.012 -59.84,110.941 -13.75,42.891 -20.632,90.469 -20.632,142.649 0,51.332 6.882,98.672 20.632,142.031 13.829,43.32 33.789,80.32 59.84,110.942 26.129,30.628 57.969,54.57 95.469,71.878 37.578,17.258 80.16,25.93 127.66,25.93 34.57,0 66.949,-4.801 97.18,-14.371 30.32,-9.609 57.351,-23.828 81.101,-42.66 23.75,-18.75 43.469,-41.949 59.219,-69.527 15.699,-27.622 26.641,-59.801 32.809,-96.563 l -62.188,0 c -2.301,19.141 -8.441,38.672 -18.441,58.59 -9.918,19.891 -23.86,37.891 -41.871,54.07 -18.047,16.129 -39.489,29.371 -64.379,39.68 -24.918,10.32 -52.731,15.473 -83.43,15.473 -42.93,0 -79.539,-8.442 -109.851,-25.313 -30.231,-16.879 -55.11,-39.34 -74.688,-67.34 -19.601,-27.929 -33.98,-59.539 -43.121,-94.847 -9.18,-35.231 -13.75,-71.211 -13.75,-107.973 0,-36.789 4.371,-73.039 13.129,-108.75 8.82,-35.617 23,-67.258 42.5,-94.84 19.57,-27.617 44.531,-50.078 74.84,-67.34 30.312,-17.187 67.261,-25.789 110.941,-25.789 36.012,0 67.852,6.102 95.461,18.289 27.578,12.262 50.981,29.531 70.16,51.711 19.141,22.27 33.52,48.36 43.129,78.289 9.57,29.879 14.371,62.852 14.371,98.903 l -217.34,0 0,55.308 273.75,0 0,-342.808 z M 977.5,519.699 c 0,64.449 -12.301,125.231 -36.879,182.34 -24.492,57.07 -57.812,106.723 -100,148.91 -42.18,42.18 -91.871,75.5 -149.062,100 -57.11,24.571 -117.809,36.871 -182.18,36.871 -64.379,0 -125.16,-12.3 -182.348,-36.871 -57.109,-24.5 -106.722,-57.82 -148.91,-100 C 136.02,808.762 102.699,759.109 78.1211,702.039 53.6289,644.93 41.4102,584.148 41.4102,519.699 41.4102,455.32 53.6289,394.539 78.1211,337.352 102.699,280.238 136.02,230.629 178.121,188.449 220.309,146.379 269.922,113.09 327.031,88.6016 384.219,64.0313 445,51.7305 509.379,51.7305 c 64.371,0 125.07,12.3008 182.18,36.8711 57.191,24.4884 106.882,57.7774 149.062,99.8474 42.188,42.18 75.508,91.789 100,148.903 24.578,57.187 36.879,117.968 36.879,182.347 z m 41.41,0 c 0,-70.551 -13.44,-136.679 -40.32,-198.437 C 951.719,259.578 915.23,205.789 869.219,159.852 823.281,113.84 769.41,77.4297 707.66,50.6289 645.98,23.7617 579.879,10.3203 509.379,10.3203 c -70.551,0 -136.68,13.4414 -198.438,40.3086 C 249.262,77.4297 195.391,113.84 149.379,159.852 103.441,205.789 67.0313,259.578 40.1602,321.262 13.3594,383.02 0,449.148 0,519.699 c 0,70.5 13.3594,136.602 40.1602,198.281 26.8711,61.75 63.2808,115.661 109.2188,161.719 46.012,46.012 99.883,82.422 161.562,109.211 61.758,26.88 127.887,40.32 198.438,40.32 70.5,0 136.601,-13.44 198.281,-40.32 61.75,-26.789 115.621,-63.199 161.559,-109.211 46.011,-46.058 82.5,-99.969 109.371,-161.719 26.88,-61.679 40.32,-127.781 40.32,-198.281 z"
         inkscape:connector-curvature="0"
         id="path14"
         style="fill:#000000;fill-opacity:1;fill-rule:nonzero;stroke:none" /></g></g></svg>