<?xml version="1.0" encoding="UTF-8" standalone="no"?>
<!-- Created with Inkscape (http://www.inkscape.org/) -->

<svg
   xmlns:dc="http://purl.org/dc/elements/1.1/"
   xmlns:cc="http://creativecommons.org/ns#"
   xmlns:rdf="http://www.w3.org/1999/02/22-rdf-syntax-ns#"
   xmlns:svg="http://www.w3.org/2000/svg"
   xmlns="http://www.w3.org/2000/svg"
   xmlns:inkscape="http://www.inkscape.org/namespaces/inkscape"
   version="1.1"
   width="113.75"
   height="115"
   id="svg2"
   xml:space="preserve"><metadata
     id="metadata8"><rdf:RDF><cc:Work
         rdf:about=""><dc:format>image/svg+xml</dc:format><dc:type
           rdf:resource="http://purl.org/dc/dcmitype/StillImage" /></cc:Work></rdf:RDF></metadata><defs
     id="defs6" /><g
     transform="matrix(1.25,0,0,-1.25,0,115)"
     id="g10"><g
       transform="scale(0.1,0.1)"
       id="g12"><path
         d="M 907.27,459.27 C 907.27,336.449 862.301,230.871 772.422,142.551 682.621,54.1914 576.328,10.0508 453.52,10.0508 330.699,10.0508 224.34,54.1914 134.449,142.551 44.6484,230.871 -0.230469,336.449 -0.230469,459.27 c 0,125.82 44.140669,232.89 132.500469,321.25 88.429,88.32 195.5,132.5 321.25,132.5 125.82,0 232.89,-44.18 321.25,-132.5 88.32,-88.36 132.5,-195.43 132.5,-321.25 z m -45,0 c 0,110.82 -40.43,206.64 -121.25,287.5 -80.86,80.82 -176.68,121.25 -287.5,121.25 -110.86,0 -206.68,-40.43 -287.5,-121.25 C 85.1602,665.91 44.7695,570.09 44.7695,459.27 44.7695,348.41 85.1602,253.328 166.02,173.949 246.84,94.6602 342.66,55.0508 453.52,55.0508 c 110.82,0 206.64,39.6094 287.5,118.8982 80.82,79.379 121.25,174.461 121.25,285.321 z m -516.571,-71.879 -4.527,0 4.527,-76.411 0,-139.21 -62.808,0 0,534.531 44.839,0 13.442,-44.852 4.527,0 c 30,35.942 70.391,53.91 121.25,53.91 47.891,0 86.102,-16.519 114.531,-49.531 28.52,-32.93 42.821,-80.777 42.821,-143.598 0,-62.929 -14.301,-110.89 -42.821,-143.902 -28.429,-32.93 -66.64,-49.379 -114.531,-49.379 -53.859,0 -94.289,19.461 -121.25,58.442 z m 112.352,274.058 c -38.992,0 -67.461,-10.539 -85.473,-31.558 -17.93,-20.942 -26.879,-56.84 -26.879,-107.661 0,-53.98 8.949,-90.699 26.879,-110.152 18.012,-19.488 46.481,-29.219 85.473,-29.219 35.929,0 62.109,11.25 78.59,33.75 16.449,22.5 24.687,57.692 24.687,105.621 0,47.891 -8.238,83.051 -24.687,105.469 -16.481,22.5 -42.661,33.75 -78.59,33.75 z"
         inkscape:connector-curvature="0"
         id="path14"
         style="fill:#000000;fill-opacity:1;fill-rule:nonzero;stroke:none" /></g></g></svg>