<?xml version="1.0" encoding="UTF-8" standalone="no"?>
<!-- Created with Inkscape (http://www.inkscape.org/) -->

<svg
   xmlns:dc="http://purl.org/dc/elements/1.1/"
   xmlns:cc="http://creativecommons.org/ns#"
   xmlns:rdf="http://www.w3.org/1999/02/22-rdf-syntax-ns#"
   xmlns:svg="http://www.w3.org/2000/svg"
   xmlns="http://www.w3.org/2000/svg"
   xmlns:inkscape="http://www.inkscape.org/namespaces/inkscape"
   version="1.1"
   width="108.75"
   height="110"
   id="svg2"
   xml:space="preserve"><metadata
     id="metadata8"><rdf:RDF><cc:Work
         rdf:about=""><dc:format>image/svg+xml</dc:format><dc:type
           rdf:resource="http://purl.org/dc/dcmitype/StillImage" /></cc:Work></rdf:RDF></metadata><defs
     id="defs6" /><g
     transform="matrix(1.25,0,0,-1.25,0,110)"
     id="g10"><g
       transform="scale(0.1,0.1)"
       id="g12"><path
         d="M 860.121,440.148 C 860.121,320.77 818.09,219.211 734.02,135.461 649.961,51.7891 548.398,9.98828 429.34,9.98828 311.09,9.98828 209.961,51.7891 125.898,135.461 41.8398,219.211 -0.199219,320.77 -0.199219,440.148 c 0,74.141 19.257819,145.821 57.820319,215 C 96.25,724.41 150.121,777.57 219.18,814.68 c 69.058,37.07 139.101,55.621 210.16,55.621 72.262,0 142.961,-18.551 212.031,-55.621 69.059,-37.11 122.731,-90.078 161.09,-158.91 38.437,-68.86 57.66,-140.739 57.66,-215.622 z m -813.6015,0 C 46.5195,333.781 83.7891,243.16 158.398,168.27 233.09,93.4688 323.59,56.0898 429.961,56.0898 c 106.328,0 196.879,37.379 271.559,112.1802 74.691,74.89 112.031,165.511 112.031,271.878 0,66.954 -17.031,131.012 -51.09,192.192 C 728.398,693.59 680.621,740.77 619.18,773.898 557.809,807.02 494.73,823.59 429.961,823.59 365.16,823.59 302.07,807.02 240.738,773.898 179.379,740.77 131.68,693.59 97.6211,632.34 63.5508,571.16 46.5195,507.102 46.5195,440.148 z M 161.52,287.961 l 88.75,0 0,322.34 -96.559,-21.871 0,76.871 105.629,23.597 65.621,0 0,-400.937 89.219,0 0,-71.871 -252.66,0 0,71.871 z M 595.121,628.27 c -23.992,0 -42.422,-14.18 -55.32,-42.5 -12.922,-28.239 -19.371,-72.891 -19.371,-133.899 0,-60.633 6.449,-105.082 19.371,-133.281 12.898,-28.25 31.328,-42.352 55.32,-42.352 23.508,0 41.867,14.102 55,42.352 13.117,28.199 19.68,72.648 19.68,133.281 0,61.008 -6.563,105.66 -19.68,133.899 -13.133,28.32 -31.492,42.5 -55,42.5 z m 0,69.07 c 48.629,0 85.66,-21.371 111.09,-64.07 25.508,-42.61 38.277,-103.079 38.277,-181.399 0,-77.82 -12.769,-138.09 -38.277,-180.781 -25.43,-42.621 -62.461,-63.91 -111.09,-63.91 -49.07,0 -86.371,21.289 -111.883,63.91 -25.429,42.691 -38.117,102.961 -38.117,180.781 0,78.32 12.688,138.789 38.117,181.399 25.512,42.699 62.813,64.07 111.883,64.07 z"
         inkscape:connector-curvature="0"
         id="path14"
         style="fill:#000000;fill-opacity:1;fill-rule:nonzero;stroke:none" /></g></g></svg>