<?xml version="1.0" encoding="UTF-8" standalone="no"?>
<!-- Created with Inkscape (http://www.inkscape.org/) -->

<svg
   xmlns:dc="http://purl.org/dc/elements/1.1/"
   xmlns:cc="http://creativecommons.org/ns#"
   xmlns:rdf="http://www.w3.org/1999/02/22-rdf-syntax-ns#"
   xmlns:svg="http://www.w3.org/2000/svg"
   xmlns="http://www.w3.org/2000/svg"
   xmlns:inkscape="http://www.inkscape.org/namespaces/inkscape"
   version="1.1"
   width="108.75"
   height="110"
   id="svg2"
   xml:space="preserve"><metadata
     id="metadata8"><rdf:RDF><cc:Work
         rdf:about=""><dc:format>image/svg+xml</dc:format><dc:type
           rdf:resource="http://purl.org/dc/dcmitype/StillImage" /></cc:Work></rdf:RDF></metadata><defs
     id="defs6" /><g
     transform="matrix(1.25,0,0,-1.25,0,110)"
     id="g10"><g
       transform="scale(0.1,0.1)"
       id="g12"><path
         d="M 860.121,440.148 C 860.121,320.77 818.09,219.211 734.02,135.461 649.961,51.7891 548.398,9.98828 429.34,9.98828 311.09,9.98828 209.961,51.7891 125.898,135.461 41.8398,219.211 -0.199219,320.77 -0.199219,440.148 c 0,74.141 19.257819,145.821 57.820319,215 C 96.25,724.41 150.121,777.57 219.18,814.68 c 69.058,37.07 139.101,55.621 210.16,55.621 72.262,0 142.961,-18.551 212.031,-55.621 69.059,-37.11 122.731,-90.078 161.09,-158.91 38.437,-68.86 57.66,-140.739 57.66,-215.622 z m -813.6015,0 C 46.5195,333.781 83.7891,243.16 158.398,168.27 233.09,93.4688 323.59,56.0898 429.961,56.0898 c 106.328,0 196.879,37.379 271.559,112.1802 74.691,74.89 112.031,165.511 112.031,271.878 0,66.954 -17.031,131.012 -51.09,192.192 C 728.398,693.59 680.621,740.77 619.18,773.898 557.809,807.02 494.73,823.59 429.961,823.59 365.16,823.59 302.07,807.02 240.738,773.898 179.379,740.77 131.68,693.59 97.6211,632.34 63.5508,571.16 46.5195,507.102 46.5195,440.148 z m 377.8205,11.25 c -29.18,0 -52.43,-9.179 -69.692,-27.5 -17.187,-18.359 -25.777,-44.527 -25.777,-78.597 0,-33.75 8.59,-59.801 25.777,-78.121 17.262,-18.36 40.512,-27.5 69.692,-27.5 29.14,0 52.34,9.14 69.531,27.5 17.258,18.32 25.93,44.371 25.93,78.121 0,34.07 -8.672,60.238 -25.93,78.597 -17.191,18.321 -40.391,27.5 -69.531,27.5 z m 162.808,231.872 0,-87.649 c -31.488,13.117 -56.25,21.719 -74.378,25.777 -18.122,4.141 -36.008,6.25 -53.59,6.25 -44.61,0 -78.75,-13.867 -102.5,-41.558 -23.75,-27.738 -36.559,-56.531 -38.442,-86.41 -3.359,-4.18 6.961,-0.551 30.942,10.941 23.941,11.438 50.511,17.18 79.691,17.18 59.879,0 107.219,-16.641 142.027,-49.84 34.762,-33.121 52.192,-77.34 52.192,-132.66 0,-54.289 -18.211,-98.199 -54.539,-131.711 -36.25,-33.559 -84.332,-50.32 -144.211,-50.32 -69.301,0 -121.879,23.64 -157.82,70.941 -35.93,47.379 -53.899,114.379 -53.899,200.937 0,81.563 21.867,147.34 65.617,197.34 43.832,50 103.211,75 178.133,75 19.758,0 39.57,-1.828 59.367,-5.468 19.883,-3.551 43.672,-9.801 71.41,-18.75 z"
         inkscape:connector-curvature="0"
         id="path14"
         style="fill:#000000;fill-opacity:1;fill-rule:nonzero;stroke:none" /></g></g></svg>