<?xml version="1.0" encoding="UTF-8" standalone="no"?>
<!-- Created with Inkscape (http://www.inkscape.org/) -->

<svg
   xmlns:dc="http://purl.org/dc/elements/1.1/"
   xmlns:cc="http://creativecommons.org/ns#"
   xmlns:rdf="http://www.w3.org/1999/02/22-rdf-syntax-ns#"
   xmlns:svg="http://www.w3.org/2000/svg"
   xmlns="http://www.w3.org/2000/svg"
   xmlns:inkscape="http://www.inkscape.org/namespaces/inkscape"
   version="1.1"
   width="113.75"
   height="115"
   id="svg2"
   xml:space="preserve"><metadata
     id="metadata8"><rdf:RDF><cc:Work
         rdf:about=""><dc:format>image/svg+xml</dc:format><dc:type
           rdf:resource="http://purl.org/dc/dcmitype/StillImage" /></cc:Work></rdf:RDF></metadata><defs
     id="defs6" /><g
     transform="matrix(1.25,0,0,-1.25,0,115)"
     id="g10"><g
       transform="scale(0.1,0.1)"
       id="g12"><path
         d="M 907.27,459.27 C 907.27,336.449 862.301,230.871 772.422,142.551 682.621,54.1914 576.328,10.0508 453.52,10.0508 330.699,10.0508 224.34,54.1914 134.449,142.551 44.6484,230.871 -0.230469,336.449 -0.230469,459.27 c 0,125.82 44.140669,232.89 132.500469,321.25 88.429,88.32 195.5,132.5 321.25,132.5 125.82,0 232.89,-44.18 321.25,-132.5 88.32,-88.36 132.5,-195.43 132.5,-321.25 z m -45,0 c 0,110.82 -40.43,206.64 -121.25,287.5 -80.86,80.82 -176.68,121.25 -287.5,121.25 -110.86,0 -206.68,-40.43 -287.5,-121.25 C 85.1602,665.91 44.7695,570.09 44.7695,459.27 44.7695,348.41 85.1602,253.328 166.02,173.949 246.84,94.6602 342.66,55.0508 453.52,55.0508 c 110.82,0 206.64,39.6094 287.5,118.8982 80.82,79.379 121.25,174.461 121.25,285.321 z m -233.598,260.621 0,-40.469 -67.344,-9.063 c 15,-17.929 22.5,-41.879 22.5,-71.879 0,-32.929 -12.777,-60.621 -38.277,-83.121 -25.43,-22.418 -62.11,-33.589 -110,-33.589 l -31.41,0 c -20.942,-12 -31.411,-27 -31.411,-45 0,-17.93 17.969,-26.879 53.911,-26.879 l 67.339,0 c 44.891,0 77.821,-8.243 98.75,-24.692 21.02,-16.48 31.571,-41.211 31.571,-74.219 0,-41.871 -17.27,-73.359 -51.723,-94.371 -34.488,-20.937 -86.168,-31.41 -155,-31.41 -53.867,0 -94.297,8.211 -121.25,24.692 -26.988,16.558 -40.469,42.808 -40.469,78.75 0,44.879 31.442,74.839 94.371,89.839 -20.929,8.95 -31.402,25.391 -31.402,49.379 0,26.95 14.922,49.411 44.844,67.34 -53.871,18.012 -80.781,52.422 -80.781,103.281 0,41.961 12.699,73.442 38.129,94.379 25.39,20.942 63.589,31.411 114.531,31.411 20.929,0 38.898,-1.489 53.898,-4.379 l 139.223,0 z M 525.391,598.48 c 0,26.961 -7.5,47.192 -22.5,60.629 -14.922,13.512 -37.34,20.313 -67.34,20.313 -29.93,0 -52.352,-6.801 -67.352,-20.313 -15,-13.437 -22.5,-33.668 -22.5,-60.629 0,-23.98 7.5,-42.652 22.5,-56.089 15,-13.442 37.422,-20.161 67.352,-20.161 30,0 52.418,6.719 67.34,20.161 15,13.437 22.5,32.109 22.5,56.089 z m -49.371,-242.5 -71.879,0 c -30,0 -52.5,-6.011 -67.5,-17.96 -14.922,-12 -22.34,-28.442 -22.34,-49.379 0,-21.051 8.199,-36.051 24.679,-45 16.45,-8.981 42.661,-13.442 78.598,-13.442 47.891,0 84.57,5.981 110,17.973 25.512,11.949 38.281,31.449 38.281,58.437 0,17.891 -5.269,30.621 -15.781,38.121 -10.43,7.5 -35.117,11.25 -74.058,11.25 z"
         inkscape:connector-curvature="0"
         id="path14"
         style="fill:#000000;fill-opacity:1;fill-rule:nonzero;stroke:none" /></g></g></svg>