<?xml version="1.0" encoding="UTF-8" standalone="no"?>
<!-- Created with Inkscape (http://www.inkscape.org/) -->

<svg
   xmlns:dc="http://purl.org/dc/elements/1.1/"
   xmlns:cc="http://creativecommons.org/ns#"
   xmlns:rdf="http://www.w3.org/1999/02/22-rdf-syntax-ns#"
   xmlns:svg="http://www.w3.org/2000/svg"
   xmlns="http://www.w3.org/2000/svg"
   xmlns:inkscape="http://www.inkscape.org/namespaces/inkscape"
   version="1.1"
   width="113.75"
   height="115"
   id="svg2"
   xml:space="preserve"><metadata
     id="metadata8"><rdf:RDF><cc:Work
         rdf:about=""><dc:format>image/svg+xml</dc:format><dc:type
           rdf:resource="http://purl.org/dc/dcmitype/StillImage" /></cc:Work></rdf:RDF></metadata><defs
     id="defs6" /><g
     transform="matrix(1.25,0,0,-1.25,0,115)"
     id="g10"><g
       transform="scale(0.1,0.1)"
       id="g12"><path
         d="M 907.27,459.27 C 907.27,336.449 862.301,230.871 772.422,142.551 682.621,54.1914 576.328,10.0508 453.52,10.0508 330.699,10.0508 224.34,54.1914 134.449,142.551 44.6484,230.871 -0.230469,336.449 -0.230469,459.27 c 0,125.82 44.140669,232.89 132.500469,321.25 88.429,88.32 195.5,132.5 321.25,132.5 125.82,0 232.89,-44.18 321.25,-132.5 88.32,-88.36 132.5,-195.43 132.5,-321.25 z m -45,0 c 0,110.82 -40.43,206.64 -121.25,287.5 -80.86,80.82 -176.68,121.25 -287.5,121.25 -110.86,0 -206.68,-40.43 -287.5,-121.25 C 85.1602,665.91 44.7695,570.09 44.7695,459.27 44.7695,348.41 85.1602,253.328 166.02,173.949 246.84,94.6602 342.66,55.0508 453.52,55.0508 c 110.82,0 206.64,39.6094 287.5,118.8982 80.82,79.379 121.25,174.461 121.25,285.321 z M 547.891,257.078 534.449,306.609 c -30,-38.988 -73.429,-58.437 -130.308,-58.437 -41.993,0 -73.442,9.726 -94.371,29.219 -20.942,19.449 -31.411,47.187 -31.411,83.129 0,74.761 61.411,113.671 184.219,116.71 l 71.871,4.54 0,22.5 c 0,23.941 -7.5,42.652 -22.5,56.089 -15,13.442 -37.461,20.161 -67.34,20.161 -38.988,0 -77.929,-8.989 -116.879,-26.879 l -22.5,49.379 c 47.891,20.929 95.821,31.402 143.75,31.402 47.899,0 83.829,-10.473 107.821,-31.402 23.937,-20.942 35.929,-52.43 35.929,-94.379 l 0,-251.563 -44.839,0 z m -17.969,179.692 -58.442,0 c -41.871,-2.93 -74.058,-10.399 -96.558,-22.348 -22.5,-11.992 -33.75,-29.961 -33.75,-53.902 0,-21.059 5.976,-36.84 17.969,-47.348 11.949,-10.434 31.449,-15.621 58.437,-15.621 35.942,0 63.633,8.937 83.121,26.871 19.461,18.008 29.223,45 29.223,80.937 l 0,31.411 z"
         inkscape:connector-curvature="0"
         id="path14"
         style="fill:#000000;fill-opacity:1;fill-rule:nonzero;stroke:none" /></g></g></svg>