<?xml version="1.0" encoding="UTF-8" standalone="no"?>
<!-- Created with Inkscape (http://www.inkscape.org/) -->

<svg
   xmlns:dc="http://purl.org/dc/elements/1.1/"
   xmlns:cc="http://creativecommons.org/ns#"
   xmlns:rdf="http://www.w3.org/1999/02/22-rdf-syntax-ns#"
   xmlns:svg="http://www.w3.org/2000/svg"
   xmlns="http://www.w3.org/2000/svg"
   xmlns:inkscape="http://www.inkscape.org/namespaces/inkscape"
   version="1.1"
   width="113.75"
   height="115"
   id="svg2"
   xml:space="preserve"><metadata
     id="metadata8"><rdf:RDF><cc:Work
         rdf:about=""><dc:format>image/svg+xml</dc:format><dc:type
           rdf:resource="http://purl.org/dc/dcmitype/StillImage" /></cc:Work></rdf:RDF></metadata><defs
     id="defs6" /><g
     transform="matrix(1.25,0,0,-1.25,0,115)"
     id="g10"><g
       transform="scale(0.1,0.1)"
       id="g12"><path
         d="M 907.27,459.27 C 907.27,336.449 862.301,230.871 772.422,142.551 682.621,54.1914 576.328,10.0508 453.52,10.0508 330.699,10.0508 224.34,54.1914 134.449,142.551 44.6484,230.871 -0.230469,336.449 -0.230469,459.27 c 0,125.82 44.140669,232.89 132.500469,321.25 88.429,88.32 195.5,132.5 321.25,132.5 125.82,0 232.89,-44.18 321.25,-132.5 88.32,-88.36 132.5,-195.43 132.5,-321.25 z m -45,0 c 0,110.82 -40.43,206.64 -121.25,287.5 -80.86,80.82 -176.68,121.25 -287.5,121.25 -110.86,0 -206.68,-40.43 -287.5,-121.25 C 85.1602,665.91 44.7695,570.09 44.7695,459.27 44.7695,348.41 85.1602,253.328 166.02,173.949 246.84,94.6602 342.66,55.0508 453.52,55.0508 c 110.82,0 206.64,39.6094 287.5,118.8982 80.82,79.379 121.25,174.461 121.25,285.321 z m -408.75,0 c 0,83.82 12.691,146.71 38.121,188.589 25.507,41.95 65.199,62.969 119.058,62.969 53.949,0 93.641,-21.019 119.071,-62.969 25.5,-41.879 38.281,-104.769 38.281,-188.589 0,-86.879 -12.781,-151.329 -38.281,-193.29 -25.43,-41.871 -65.122,-62.808 -119.071,-62.808 -53.859,0 -93.551,20.937 -119.058,62.808 -25.43,41.961 -38.121,106.411 -38.121,193.29 z m 251.558,0 c 0,65.929 -7.5,116.089 -22.5,150.46 -14.918,34.461 -38.867,51.719 -71.879,51.719 -32.929,0 -56.871,-17.258 -71.871,-51.719 -14.918,-34.371 -22.348,-84.531 -22.348,-150.46 0,-68.872 7.43,-119.809 22.348,-152.821 15,-32.929 38.942,-49.371 71.871,-49.371 33.012,0 56.961,16.442 71.879,49.371 15,33.012 22.5,83.949 22.5,152.821 z m -278.437,-247.04 -283.121,0 0,49.379 103.429,125.782 c 44.891,53.949 72.539,92.89 82.973,116.879 10.508,23.941 15.777,47.89 15.777,71.871 0,26.879 -5.269,47.031 -15.777,60.468 -10.434,13.512 -27.621,20.313 -51.563,20.313 -30,0 -61.48,-14.961 -94.379,-44.844 l -35.929,40.313 c 38.937,38.949 82.379,58.437 130.308,58.437 41.871,0 74.063,-11.988 96.563,-35.937 22.5,-23.981 33.75,-55.43 33.75,-94.371 0,-29.93 -6.793,-58.36 -20.313,-85.321 -13.437,-26.988 -42.621,-68.898 -87.5,-125.777 l -80.937,-98.75 0,-4.531 206.719,0 0,-53.911 z"
         inkscape:connector-curvature="0"
         id="path14"
         style="fill:#000000;fill-opacity:1;fill-rule:nonzero;stroke:none" /></g></g></svg>