<?xml version="1.0" encoding="UTF-8" standalone="no"?>
<!-- Created with Inkscape (http://www.inkscape.org/) -->

<svg
   xmlns:dc="http://purl.org/dc/elements/1.1/"
   xmlns:cc="http://creativecommons.org/ns#"
   xmlns:rdf="http://www.w3.org/1999/02/22-rdf-syntax-ns#"
   xmlns:svg="http://www.w3.org/2000/svg"
   xmlns="http://www.w3.org/2000/svg"
   xmlns:inkscape="http://www.inkscape.org/namespaces/inkscape"
   version="1.1"
   width="127.5"
   height="130"
   id="svg2"
   xml:space="preserve"><metadata
     id="metadata8"><rdf:RDF><cc:Work
         rdf:about=""><dc:format>image/svg+xml</dc:format><dc:type
           rdf:resource="http://purl.org/dc/dcmitype/StillImage" /></cc:Work></rdf:RDF></metadata><defs
     id="defs6" /><g
     transform="matrix(1.25,0,0,-1.25,0,130)"
     id="g10"><g
       transform="scale(0.1,0.1)"
       id="g12"><path
         d="m 761.25,357.66 c 0,-59.058 -22.031,-105.461 -66.09,-139.211 -44.07,-33.75 -104.461,-50.629 -181.101,-50.629 -36.868,0 -71.25,4.809 -103.118,14.379 -31.8,9.571 -59.339,24.141 -82.66,43.75 -23.359,19.571 -41.562,44.102 -54.691,73.59 -13.039,29.449 -19.141,64.141 -18.281,104.063 l 62.031,0 c 0,-34.493 5.551,-63.243 16.719,-86.25 11.14,-23.051 26.453,-41.481 45.941,-55.313 19.57,-13.75 42.191,-23.711 67.809,-29.84 25.711,-6.179 52.742,-9.219 81.101,-9.219 23,0 44.879,2.848 65.621,8.59 20.699,5.821 38.75,14.258 54.059,25.309 15.32,11.141 27.539,24.922 36.719,41.41 9.261,16.563 13.91,35.941 13.91,58.121 0,62.07 -44.489,104.61 -133.438,127.66 l -142.66,36.879 c -19.922,5.313 -38.711,11.602 -56.402,18.903 -17.617,7.269 -33.129,16.878 -46.559,28.75 -13.359,11.878 -24.07,26.796 -32.191,44.847 -8.047,18 -12.028,40.031 -12.028,66.09 0,24.57 4.758,48.359 14.368,71.41 9.57,23 23.75,43.321 42.5,60.93 18.832,17.582 42.07,31.57 69.691,41.883 27.578,10.386 59.77,15.617 96.559,15.617 32.89,0 63.75,-4.801 92.5,-14.367 28.75,-9.614 53.832,-23.242 75.32,-40.942 21.562,-17.621 38.633,-39.449 51.242,-65.468 12.578,-26.051 19.688,-55.582 21.258,-88.59 l -62.039,0 c -1.559,24.566 -7.141,46.437 -16.719,65.617 -9.601,19.141 -22.262,35.391 -37.961,48.75 -15.75,13.441 -34.18,23.601 -55.32,30.473 -21.051,6.949 -43.43,10.468 -67.18,10.468 -51.371,0 -91.211,-12.3 -119.539,-36.871 -28.351,-24.5 -42.5,-57.039 -42.5,-97.66 0,-31.488 9.578,-55.078 28.758,-70.777 19.141,-15.742 42.531,-27.032 70.152,-33.91 l 156.25,-40.313 c 55.199,-13.75 96.949,-34.301 125.309,-61.559 28.441,-27.191 42.66,-66.058 42.66,-116.57 z M 977.5,519.699 c 0,64.449 -12.301,125.231 -36.879,182.34 -24.492,57.07 -57.812,106.723 -100,148.91 -42.18,42.18 -91.871,75.5 -149.062,100 -57.11,24.571 -117.809,36.871 -182.18,36.871 -64.379,0 -125.16,-12.3 -182.348,-36.871 -57.109,-24.5 -106.722,-57.82 -148.91,-100 C 136.02,808.762 102.699,759.109 78.1211,702.039 53.6289,644.93 41.4102,584.148 41.4102,519.699 41.4102,455.32 53.6289,394.539 78.1211,337.352 102.699,280.238 136.02,230.629 178.121,188.449 220.309,146.379 269.922,113.09 327.031,88.6016 384.219,64.0313 445,51.7305 509.379,51.7305 c 64.371,0 125.07,12.3008 182.18,36.8711 57.191,24.4884 106.882,57.7774 149.062,99.8474 42.188,42.18 75.508,91.789 100,148.903 24.578,57.187 36.879,117.968 36.879,182.347 z m 41.41,0 c 0,-70.551 -13.44,-136.679 -40.32,-198.437 C 951.719,259.578 915.23,205.789 869.219,159.852 823.281,113.84 769.41,77.4297 707.66,50.6289 645.98,23.7617 579.879,10.3203 509.379,10.3203 c -70.551,0 -136.68,13.4414 -198.438,40.3086 C 249.262,77.4297 195.391,113.84 149.379,159.852 103.441,205.789 67.0313,259.578 40.1602,321.262 13.3594,383.02 0,449.148 0,519.699 c 0,70.5 13.3594,136.602 40.1602,198.281 26.8711,61.75 63.2808,115.661 109.2188,161.719 46.012,46.012 99.883,82.422 161.562,109.211 61.758,26.88 127.887,40.32 198.438,40.32 70.5,0 136.601,-13.44 198.281,-40.32 61.75,-26.789 115.621,-63.199 161.559,-109.211 46.011,-46.058 82.5,-99.969 109.371,-161.719 26.88,-61.679 40.32,-127.781 40.32,-198.281 z"
         inkscape:connector-curvature="0"
         id="path14"
         style="fill:#000000;fill-opacity:1;fill-rule:nonzero;stroke:none" /></g></g></svg>