<?xml version="1.0" encoding="UTF-8" standalone="no"?>
<!-- Created with Inkscape (http://www.inkscape.org/) -->

<svg
   xmlns:dc="http://purl.org/dc/elements/1.1/"
   xmlns:cc="http://creativecommons.org/ns#"
   xmlns:rdf="http://www.w3.org/1999/02/22-rdf-syntax-ns#"
   xmlns:svg="http://www.w3.org/2000/svg"
   xmlns="http://www.w3.org/2000/svg"
   xmlns:inkscape="http://www.inkscape.org/namespaces/inkscape"
   version="1.1"
   width="113.75"
   height="115"
   id="svg2"
   xml:space="preserve"><metadata
     id="metadata8"><rdf:RDF><cc:Work
         rdf:about=""><dc:format>image/svg+xml</dc:format><dc:type
           rdf:resource="http://purl.org/dc/dcmitype/StillImage" /></cc:Work></rdf:RDF></metadata><defs
     id="defs6" /><g
     transform="matrix(1.25,0,0,-1.25,0,115)"
     id="g10"><g
       transform="scale(0.1,0.1)"
       id="g12"><path
         d="M 907.27,459.27 C 907.27,336.449 862.301,230.871 772.422,142.551 682.621,54.1914 576.328,10.0508 453.52,10.0508 330.699,10.0508 224.34,54.1914 134.449,142.551 44.6484,230.871 -0.230469,336.449 -0.230469,459.27 c 0,125.82 44.140669,232.89 132.500469,321.25 88.429,88.32 195.5,132.5 321.25,132.5 125.82,0 232.89,-44.18 321.25,-132.5 88.32,-88.36 132.5,-195.43 132.5,-321.25 z m -45,0 c 0,110.82 -40.43,206.64 -121.25,287.5 -80.86,80.82 -176.68,121.25 -287.5,121.25 -110.86,0 -206.68,-40.43 -287.5,-121.25 C 85.1602,665.91 44.7695,570.09 44.7695,459.27 44.7695,348.41 85.1602,253.328 166.02,173.949 246.84,94.6602 342.66,55.0508 453.52,55.0508 c 110.82,0 206.64,39.6094 287.5,118.8982 80.82,79.379 121.25,174.461 121.25,285.321 z m -592.969,-4.54 c 0,59.891 15.699,106.29 47.179,139.219 31.45,33.012 74.141,49.531 128.129,49.531 50.821,0 92.692,-17.261 125.621,-51.71 33.008,-34.379 49.54,-80.079 49.54,-137.04 0,-62.808 -15.75,-110.742 -47.192,-143.75 -31.488,-32.929 -74.137,-49.371 -127.969,-49.371 -53.988,0 -96.679,17.192 -128.129,51.563 -31.48,34.449 -47.179,81.637 -47.179,141.558 z m 287.5,0 c 0,45 -9.77,79.461 -29.223,103.442 -19.379,23.949 -47.027,35.937 -82.969,35.937 -38.988,0 -67.461,-11.988 -85.468,-35.937 -17.93,-23.981 -26.871,-58.442 -26.871,-103.442 0,-47.929 9.718,-83.859 29.21,-107.808 19.461,-23.981 47.192,-35.942 83.129,-35.942 35.942,0 63.59,11.961 82.969,35.942 19.453,23.949 29.223,59.879 29.223,107.808 z"
         inkscape:connector-curvature="0"
         id="path14"
         style="fill:#000000;fill-opacity:1;fill-rule:nonzero;stroke:none" /></g></g></svg>