<?xml version="1.0" encoding="UTF-8" standalone="no"?>
<!-- Created with Inkscape (http://www.inkscape.org/) -->

<svg
   xmlns:dc="http://purl.org/dc/elements/1.1/"
   xmlns:cc="http://creativecommons.org/ns#"
   xmlns:rdf="http://www.w3.org/1999/02/22-rdf-syntax-ns#"
   xmlns:svg="http://www.w3.org/2000/svg"
   xmlns="http://www.w3.org/2000/svg"
   xmlns:inkscape="http://www.inkscape.org/namespaces/inkscape"
   version="1.1"
   width="127.5"
   height="130"
   id="svg2"
   xml:space="preserve"><metadata
     id="metadata8"><rdf:RDF><cc:Work
         rdf:about=""><dc:format>image/svg+xml</dc:format><dc:type
           rdf:resource="http://purl.org/dc/dcmitype/StillImage" /></cc:Work></rdf:RDF></metadata><defs
     id="defs6" /><g
     transform="matrix(1.25,0,0,-1.25,0,130)"
     id="g10"><g
       transform="scale(0.1,0.1)"
       id="g12"><path
         d="m 747.5,523.129 c 0,43.75 -5.941,83.793 -17.809,120.16 -11.882,36.441 -28.402,67.5 -49.531,93.121 -21.058,25.711 -46.371,45.86 -75.941,60.469 -29.489,14.57 -61.489,21.883 -95.938,21.883 -36.051,0 -68.672,-7.313 -97.812,-21.883 -29.059,-14.609 -54.18,-34.758 -75.309,-60.469 -21.058,-25.621 -37.351,-56.68 -48.91,-93.121 -11.48,-36.367 -17.191,-76.41 -17.191,-120.16 0,-43.668 5.711,-83.707 17.191,-120.149 11.559,-36.371 27.66,-67.429 48.281,-93.128 20.699,-25.622 45.821,-45.743 75.309,-60.313 29.57,-14.609 62.39,-21.879 98.441,-21.879 34.449,0 66.449,7.27 95.938,21.879 29.57,14.57 54.883,34.883 75.941,60.941 21.129,26.008 37.649,57.071 49.531,93.122 11.868,36.019 17.809,75.859 17.809,119.527 z m 62.031,0 c 0,-56.68 -7.89,-106.867 -23.59,-150.617 C 770.199,328.84 748.75,292.23 721.559,262.66 c -27.18,-29.488 -59.02,-51.871 -95.469,-67.18 -36.36,-15.32 -75.621,-22.968 -117.809,-22.968 -42.929,0 -82.812,7.648 -119.691,22.968 -36.789,15.309 -68.59,37.692 -95.469,67.18 -26.793,29.57 -47.812,66.18 -63.121,109.852 -15.309,43.75 -22.969,93.937 -22.969,150.617 0,56.762 7.66,106.961 22.969,150.633 15.309,43.75 36.328,80.347 63.121,109.84 26.879,29.57 58.68,52.027 95.469,67.347 36.879,15.313 76.762,22.961 119.691,22.961 42.188,0 81.449,-7.648 117.809,-22.961 36.449,-15.32 68.289,-37.777 95.469,-67.347 27.191,-29.493 48.64,-66.09 64.382,-109.84 15.7,-43.672 23.59,-93.871 23.59,-150.633 z m 167.969,-3.43 c 0,64.449 -12.301,125.231 -36.879,182.34 -24.492,57.07 -57.812,106.723 -100,148.91 -42.18,42.18 -91.871,75.5 -149.062,100 -57.11,24.571 -117.809,36.871 -182.18,36.871 -64.379,0 -125.16,-12.3 -182.348,-36.871 -57.109,-24.5 -106.722,-57.82 -148.91,-100 C 136.02,808.762 102.699,759.109 78.1211,702.039 53.6289,644.93 41.4102,584.148 41.4102,519.699 41.4102,455.32 53.6289,394.539 78.1211,337.352 102.699,280.238 136.02,230.629 178.121,188.449 220.309,146.379 269.922,113.09 327.031,88.6016 384.219,64.0313 445,51.7305 509.379,51.7305 c 64.371,0 125.07,12.3008 182.18,36.8711 57.191,24.4884 106.882,57.7774 149.062,99.8474 42.188,42.18 75.508,91.789 100,148.903 24.578,57.187 36.879,117.968 36.879,182.347 z m 41.41,0 c 0,-70.551 -13.44,-136.679 -40.32,-198.437 C 951.719,259.578 915.23,205.789 869.219,159.852 823.281,113.84 769.41,77.4297 707.66,50.6289 645.98,23.7617 579.879,10.3203 509.379,10.3203 c -70.551,0 -136.68,13.4414 -198.438,40.3086 C 249.262,77.4297 195.391,113.84 149.379,159.852 103.441,205.789 67.0313,259.578 40.1602,321.262 13.3594,383.02 0,449.148 0,519.699 c 0,70.5 13.3594,136.602 40.1602,198.281 26.8711,61.75 63.2808,115.661 109.2188,161.719 46.012,46.012 99.883,82.422 161.562,109.211 61.758,26.88 127.887,40.32 198.438,40.32 70.5,0 136.601,-13.44 198.281,-40.32 61.75,-26.789 115.621,-63.199 161.559,-109.211 46.011,-46.058 82.5,-99.969 109.371,-161.719 26.88,-61.679 40.32,-127.781 40.32,-198.281 z"
         inkscape:connector-curvature="0"
         id="path14"
         style="fill:#000000;fill-opacity:1;fill-rule:nonzero;stroke:none" /></g></g></svg>