<?xml version="1.0" encoding="UTF-8" standalone="no"?>
<!-- Created with Inkscape (http://www.inkscape.org/) -->

<svg
   xmlns:dc="http://purl.org/dc/elements/1.1/"
   xmlns:cc="http://creativecommons.org/ns#"
   xmlns:rdf="http://www.w3.org/1999/02/22-rdf-syntax-ns#"
   xmlns:svg="http://www.w3.org/2000/svg"
   xmlns="http://www.w3.org/2000/svg"
   xmlns:inkscape="http://www.inkscape.org/namespaces/inkscape"
   version="1.1"
   width="127.5"
   height="130"
   id="svg2"
   xml:space="preserve"><metadata
     id="metadata8"><rdf:RDF><cc:Work
         rdf:about=""><dc:format>image/svg+xml</dc:format><dc:type
           rdf:resource="http://purl.org/dc/dcmitype/StillImage" /></cc:Work></rdf:RDF></metadata><defs
     id="defs6" /><g
     transform="matrix(1.25,0,0,-1.25,0,130)"
     id="g10"><g
       transform="scale(0.1,0.1)"
       id="g12"><path
         d="m 977.5,519.699 c 0,50.621 -7.5,98.512 -22.5,143.75 -14.922,45.313 -35.781,87.102 -62.66,125.461 L 735.941,166.73 660,166.73 511.719,744.07 363.281,166.73 287.5,166.73 131.09,794.539 C 101.91,755.48 79.6914,712.898 64.3789,666.879 c -15.3203,-45.93 -22.9687,-95 -22.9687,-147.18 0,-64.379 12.2187,-125.16 36.7109,-182.347 C 102.699,280.238 136.02,230.629 178.121,188.449 220.309,146.379 269.922,113.09 327.031,88.6016 384.219,64.0313 445,51.7305 509.379,51.7305 c 64.371,0 125.07,12.3008 182.18,36.8711 57.191,24.4884 106.882,57.7774 149.062,99.8474 42.188,42.18 75.508,91.789 100,148.903 24.578,57.187 36.879,117.968 36.879,182.347 z M 871.719,816.41 c -43.047,52.891 -95.778,94.692 -158.278,125.32 -62.421,30.7 -130.429,46.09 -204.062,46.09 -73.559,0 -141.41,-15.39 -203.598,-46.09 C 243.672,911.102 190.82,869.301 147.191,816.41 l 43.59,0 135.778,-565.781 142.66,565.781 83.902,0 143.758,-565.781 135.621,565.781 39.219,0 z M 1018.91,519.699 c 0,-70.551 -13.44,-136.679 -40.32,-198.437 C 951.719,259.578 915.23,205.789 869.219,159.852 823.281,113.84 769.41,77.4297 707.66,50.6289 645.98,23.7617 579.879,10.3203 509.379,10.3203 c -70.551,0 -136.68,13.4414 -198.438,40.3086 C 249.262,77.4297 195.391,113.84 149.379,159.852 103.441,205.789 67.0313,259.578 40.1602,321.262 13.3594,383.02 0,449.148 0,519.699 c 0,70.5 13.3594,136.602 40.1602,198.281 26.8711,61.75 63.2808,115.661 109.2188,161.719 46.012,46.012 99.883,82.422 161.562,109.211 61.758,26.88 127.887,40.32 198.438,40.32 70.5,0 136.601,-13.44 198.281,-40.32 61.75,-26.789 115.621,-63.199 161.559,-109.211 46.011,-46.058 82.5,-99.969 109.371,-161.719 26.88,-61.679 40.32,-127.781 40.32,-198.281 z"
         inkscape:connector-curvature="0"
         id="path14"
         style="fill:#000000;fill-opacity:1;fill-rule:nonzero;stroke:none" /></g></g></svg>