<?xml version="1.0" encoding="UTF-8" standalone="no"?>
<!-- Created with Inkscape (http://www.inkscape.org/) -->

<svg
   xmlns:dc="http://purl.org/dc/elements/1.1/"
   xmlns:cc="http://creativecommons.org/ns#"
   xmlns:rdf="http://www.w3.org/1999/02/22-rdf-syntax-ns#"
   xmlns:svg="http://www.w3.org/2000/svg"
   xmlns="http://www.w3.org/2000/svg"
   xmlns:inkscape="http://www.inkscape.org/namespaces/inkscape"
   version="1.1"
   width="113.75"
   height="115"
   id="svg2"
   xml:space="preserve"><metadata
     id="metadata8"><rdf:RDF><cc:Work
         rdf:about=""><dc:format>image/svg+xml</dc:format><dc:type
           rdf:resource="http://purl.org/dc/dcmitype/StillImage" /></cc:Work></rdf:RDF></metadata><defs
     id="defs6" /><g
     transform="matrix(1.25,0,0,-1.25,0,115)"
     id="g10"><g
       transform="scale(0.1,0.1)"
       id="g12"><path
         d="M 907.27,459.27 C 907.27,336.449 862.301,230.871 772.422,142.551 682.621,54.1914 576.328,10.0508 453.52,10.0508 330.699,10.0508 224.34,54.1914 134.449,142.551 44.6484,230.871 -0.230469,336.449 -0.230469,459.27 c 0,125.82 44.140669,232.89 132.500469,321.25 88.429,88.32 195.5,132.5 321.25,132.5 125.82,0 232.89,-44.18 321.25,-132.5 88.32,-88.36 132.5,-195.43 132.5,-321.25 z m -45,0 c 0,110.82 -40.43,206.64 -121.25,287.5 -80.86,80.82 -176.68,121.25 -287.5,121.25 -110.86,0 -206.68,-40.43 -287.5,-121.25 C 85.1602,665.91 44.7695,570.09 44.7695,459.27 44.7695,348.41 85.1602,253.328 166.02,173.949 246.84,94.6602 342.66,55.0508 453.52,55.0508 c 110.82,0 206.64,39.6094 287.5,118.8982 80.82,79.379 121.25,174.461 121.25,285.321 z m -188.598,242.652 0,-49.531 c -15,6.019 -34.492,9.058 -58.442,9.058 -98.859,0 -149.761,-67.418 -152.652,-202.179 l 4.371,0 c 21.02,38.941 55.512,58.429 103.442,58.429 41.879,0 75.507,-12.769 100.937,-38.277 25.512,-25.434 38.281,-62.113 38.281,-110 0,-53.871 -13.519,-95.082 -40.468,-123.594 -26.993,-28.437 -62.93,-42.656 -107.813,-42.656 -47.93,0 -86.879,18.668 -116.879,56.098 -29.918,37.5 -44.84,92.179 -44.84,164.058 0,95.82 17.969,167.692 53.911,215.621 35.929,47.891 89.839,71.879 161.71,71.879 20.942,0 40.391,-2.969 58.442,-8.906 z M 561.328,472.699 c -29.918,0 -53.867,-9.758 -71.879,-29.219 -17.929,-19.371 -26.871,-39.609 -26.871,-60.621 0,-38.871 8.942,-69.531 26.871,-92.031 18.012,-22.5 41.961,-33.75 71.879,-33.75 30,0 52.422,8.942 67.344,26.871 15,18.012 22.5,46.492 22.5,85.473 0,32.887 -7.5,58.316 -22.5,76.25 -14.922,18.008 -37.344,27.027 -67.344,27.027 z M 323.199,212.23 l -58.277,0 0,305.469 c 0,32.891 1.449,73.321 4.379,121.25 -5.942,-5.929 -20.903,-17.929 -44.852,-35.929 l -49.371,-40.469 -31.558,40.469 130.308,98.902 49.371,0 0,-489.692 z"
         inkscape:connector-curvature="0"
         id="path14"
         style="fill:#000000;fill-opacity:1;fill-rule:nonzero;stroke:none" /></g></g></svg>