<?xml version="1.0" encoding="UTF-8" standalone="no"?>
<!-- Created with Inkscape (http://www.inkscape.org/) -->

<svg
   xmlns:dc="http://purl.org/dc/elements/1.1/"
   xmlns:cc="http://creativecommons.org/ns#"
   xmlns:rdf="http://www.w3.org/1999/02/22-rdf-syntax-ns#"
   xmlns:svg="http://www.w3.org/2000/svg"
   xmlns="http://www.w3.org/2000/svg"
   xmlns:inkscape="http://www.inkscape.org/namespaces/inkscape"
   version="1.1"
   width="113.75"
   height="115"
   id="svg2"
   xml:space="preserve"><metadata
     id="metadata8"><rdf:RDF><cc:Work
         rdf:about=""><dc:format>image/svg+xml</dc:format><dc:type
           rdf:resource="http://purl.org/dc/dcmitype/StillImage" /></cc:Work></rdf:RDF></metadata><defs
     id="defs6" /><g
     transform="matrix(1.25,0,0,-1.25,0,115)"
     id="g10"><g
       transform="scale(0.1,0.1)"
       id="g12"><path
         d="M 907.27,459.27 C 907.27,336.449 862.301,230.871 772.422,142.551 682.621,54.1914 576.328,10.0508 453.52,10.0508 330.699,10.0508 224.34,54.1914 134.449,142.551 44.6484,230.871 -0.230469,336.449 -0.230469,459.27 c 0,125.82 44.140669,232.89 132.500469,321.25 88.429,88.32 195.5,132.5 321.25,132.5 125.82,0 232.89,-44.18 321.25,-132.5 88.32,-88.36 132.5,-195.43 132.5,-321.25 z m -45,0 c 0,110.82 -40.43,206.64 -121.25,287.5 -80.86,80.82 -176.68,121.25 -287.5,121.25 -110.86,0 -206.68,-40.43 -287.5,-121.25 C 85.1602,665.91 44.7695,570.09 44.7695,459.27 44.7695,348.41 85.1602,253.328 166.02,173.949 246.84,94.6602 342.66,55.0508 453.52,55.0508 c 110.82,0 206.64,39.6094 287.5,118.8982 80.82,79.379 121.25,174.461 121.25,285.321 z m -336.879,197.652 4.531,0 8.906,49.379 49.531,0 0,-534.531 -62.968,0 0,157.179 c 0,11.961 1.488,23.949 4.531,35.942 l 0,22.5 -4.531,0 c -26.993,-38.981 -67.422,-58.442 -121.25,-58.442 -47.93,0 -86.09,16.449 -114.532,49.379 -28.437,33.012 -42.66,80.973 -42.66,143.902 0,62.821 14.223,110.668 42.66,143.598 28.442,33.012 68.121,49.531 119.063,49.531 50.816,0 89.726,-19.488 116.719,-58.437 z m 0,-148.281 0,13.589 c 0,50.821 -9.02,86.719 -27.032,107.661 -17.929,21.019 -46.371,31.558 -85.308,31.558 -32.93,0 -58.403,-11.25 -76.41,-33.75 -17.93,-22.418 -26.871,-57.578 -26.871,-105.469 0,-47.929 8.941,-83.121 26.871,-105.621 18.007,-22.5 43.48,-33.75 76.41,-33.75 74.879,0 112.34,41.911 112.34,125.782 z"
         inkscape:connector-curvature="0"
         id="path14"
         style="fill:#000000;fill-opacity:1;fill-rule:nonzero;stroke:none" /></g></g></svg>