<?xml version="1.0" encoding="UTF-8" standalone="no"?>
<!-- Created with Inkscape (http://www.inkscape.org/) -->

<svg
   xmlns:dc="http://purl.org/dc/elements/1.1/"
   xmlns:cc="http://creativecommons.org/ns#"
   xmlns:rdf="http://www.w3.org/1999/02/22-rdf-syntax-ns#"
   xmlns:svg="http://www.w3.org/2000/svg"
   xmlns="http://www.w3.org/2000/svg"
   xmlns:inkscape="http://www.inkscape.org/namespaces/inkscape"
   version="1.1"
   width="105"
   height="106.25"
   id="svg2"
   xml:space="preserve"><metadata
     id="metadata8"><rdf:RDF><cc:Work
         rdf:about=""><dc:format>image/svg+xml</dc:format><dc:type
           rdf:resource="http://purl.org/dc/dcmitype/StillImage" /></cc:Work></rdf:RDF></metadata><defs
     id="defs6" /><g
     transform="matrix(1.25,0,0,-1.25,0,106.25)"
     id="g10"><g
       transform="scale(0.1,0.1)"
       id="g12"><path
         d="m -0.199219,425.469 c 0,114.57 40.820319,212.691 122.500219,294.371 80.82,80.82 178.91,121.25 294.219,121.25 114.46,0 212.191,-40.43 293.128,-121.25 80.821,-82.11 121.25,-180.231 121.25,-294.371 0,-115.629 -40.429,-213.36 -121.25,-293.129 C 629.102,50.7813 531.41,10 416.52,10 300.781,10 202.699,50.7813 122.301,132.34 40.6211,211.719 -0.199219,309.41 -0.199219,425.469 z m 56.250019,0 C 56.0508,325.16 90.8203,240.199 160.43,170.621 231.879,100.199 317.23,65 416.52,65 c 98.75,0 183.32,35.199 253.75,105.621 70.39,69.258 105.628,154.219 105.628,254.848 0,99.57 -35.238,184.57 -105.628,255 C 600.98,750.859 516.41,786.09 416.52,786.09 316.211,786.09 230.82,750.859 160.43,680.469 90.8203,609.73 56.0508,524.73 56.0508,425.469 z M 416.52,151.559 c -55.86,0 -100.43,25.043 -133.75,75.16 -32.93,51.332 -49.372,118.011 -49.372,200 0,81.133 16.442,147.383 49.372,198.75 33.32,50.082 77.89,75.152 133.75,75.152 55,0 99.14,-25.07 132.5,-75.152 33.64,-50.547 50.468,-116.797 50.468,-198.75 0,-82.809 -16.828,-149.489 -50.468,-200 -33.36,-50.117 -77.5,-75.16 -132.5,-75.16 z m 0,51.562 c 36.96,0 63.91,18.758 80.781,56.258 18.75,36.242 28.129,92.031 28.129,167.34 0,74.453 -9.379,129.84 -28.129,166.09 -16.871,36.761 -43.821,55.16 -80.781,55.16 -36.68,0 -64.02,-18.399 -82.032,-55.16 -18.75,-38.547 -28.117,-93.899 -28.117,-166.09 0,-73.047 9.367,-128.828 28.117,-167.34 18.012,-37.5 45.352,-56.258 82.032,-56.258 z"
         inkscape:connector-curvature="0"
         id="path14"
         style="fill:#000000;fill-opacity:1;fill-rule:nonzero;stroke:none" /></g></g></svg>