<?xml version="1.0" encoding="UTF-8" standalone="no"?>
<!-- Created with Inkscape (http://www.inkscape.org/) -->

<svg
   xmlns:dc="http://purl.org/dc/elements/1.1/"
   xmlns:cc="http://creativecommons.org/ns#"
   xmlns:rdf="http://www.w3.org/1999/02/22-rdf-syntax-ns#"
   xmlns:svg="http://www.w3.org/2000/svg"
   xmlns="http://www.w3.org/2000/svg"
   xmlns:inkscape="http://www.inkscape.org/namespaces/inkscape"
   version="1.1"
   width="73.75"
   height="85"
   id="svg2"
   xml:space="preserve"><metadata
     id="metadata8"><rdf:RDF><cc:Work
         rdf:about=""><dc:format>image/svg+xml</dc:format><dc:type
           rdf:resource="http://purl.org/dc/dcmitype/StillImage" /></cc:Work></rdf:RDF></metadata><defs
     id="defs6" /><g
     transform="matrix(1.25,0,0,-1.25,0,85)"
     id="g10"><g
       transform="scale(0.1,0.1)"
       id="g12"><path
         d="m -0.121094,313.801 0,50.469 475.000094,0 c -4.488,71.14 -25.899,125.32 -64.219,162.5 -38.359,37.269 -91.789,55.941 -160.308,55.941 -39.692,0 -78.204,-4.84 -115.473,-14.531 C 97.6992,558.488 60.7383,543.879 24.1016,524.43 l 0,97.66 c 36.9492,15.699 74.9179,27.691 113.9104,35.93 38.937,8.21 78.437,12.351 118.437,12.351 100.391,0 179.879,-29.223 238.43,-87.66 58.519,-58.359 87.82,-137.301 87.82,-236.871 0,-102.93 -27.82,-184.649 -83.437,-245.16 C 443.711,40.25 368.789,10.0508 274.41,10.0508 189.801,10.0508 122.891,37.2813 73.6289,91.7695 24.4492,146.23 -0.121094,220.25 -0.121094,313.801 z M 103.16,283.488 c 0.82,-56.558 16.641,-101.718 47.5,-135.468 30.942,-33.668 71.801,-50.4692 122.66,-50.4692 57.7,0 103.828,16.2892 138.442,48.9102 34.687,32.578 54.609,78.48 59.84,137.66 L 103.16,283.488 z"
         inkscape:connector-curvature="0"
         id="path14"
         style="fill:#000000;fill-opacity:1;fill-rule:nonzero;stroke:none" /></g></g></svg>