<?xml version="1.0" encoding="UTF-8" standalone="no"?>
<!-- Created with Inkscape (http://www.inkscape.org/) -->

<svg
   xmlns:dc="http://purl.org/dc/elements/1.1/"
   xmlns:cc="http://creativecommons.org/ns#"
   xmlns:rdf="http://www.w3.org/1999/02/22-rdf-syntax-ns#"
   xmlns:svg="http://www.w3.org/2000/svg"
   xmlns="http://www.w3.org/2000/svg"
   xmlns:inkscape="http://www.inkscape.org/namespaces/inkscape"
   version="1.1"
   width="102.5"
   height="107.5"
   id="svg2"
   xml:space="preserve"><metadata
     id="metadata8"><rdf:RDF><cc:Work
         rdf:about=""><dc:format>image/svg+xml</dc:format><dc:type
           rdf:resource="http://purl.org/dc/dcmitype/StillImage" /></cc:Work></rdf:RDF></metadata><defs
     id="defs6" /><g
     transform="matrix(1.25,0,0,-1.25,0,107.5)"
     id="g10"><g
       transform="scale(0.1,0.1)"
       id="g12"><path
         d="m 816.91,853.91 2.192,-2.18 0,-708.601 c 0,-79.8009 -48.872,-123.5899 -146.563,-131.3985 -87.187,0 -134.18,30.6601 -140.937,92.0315 0,51.636 43.597,80.078 130.777,85.308 40.82,0 76.019,-11.05 105.633,-33.121 l 1.718,0 0,371.25 -482.351,0 0,-380.789 C 284.34,68.9102 237.539,23.4492 146.91,10.0117 l -2.18,0 c -96.5698,0 -144.851094,33.1172 -144.851094,99.3673 0,46.762 44.140594,73.172 132.500094,79.223 37.391,0 72.543,-11.993 105.473,-35.942 l 0,701.25 579.058,0 z m -529.531,-116.09 0,-87.66 482.351,0 0,87.66 -482.351,0 z"
         inkscape:connector-curvature="0"
         id="path14"
         style="fill:#000000;fill-opacity:1;fill-rule:nonzero;stroke:none" /></g></g></svg>