<?xml version="1.0" encoding="UTF-8" standalone="no"?>
<!-- Created with Inkscape (http://www.inkscape.org/) -->

<svg
   xmlns:dc="http://purl.org/dc/elements/1.1/"
   xmlns:cc="http://creativecommons.org/ns#"
   xmlns:rdf="http://www.w3.org/1999/02/22-rdf-syntax-ns#"
   xmlns:svg="http://www.w3.org/2000/svg"
   xmlns="http://www.w3.org/2000/svg"
   xmlns:inkscape="http://www.inkscape.org/namespaces/inkscape"
   version="1.1"
   width="103.75"
   height="106.25"
   id="svg2"
   xml:space="preserve"><metadata
     id="metadata8"><rdf:RDF><cc:Work
         rdf:about=""><dc:format>image/svg+xml</dc:format><dc:type
           rdf:resource="http://purl.org/dc/dcmitype/StillImage" /></cc:Work></rdf:RDF></metadata><defs
     id="defs6" /><g
     transform="matrix(1.25,0,0,-1.25,0,106.25)"
     id="g10"><g
       transform="scale(0.1,0.1)"
       id="g12"><path
         d="m 207.621,847.801 c 75.93,0 135.617,-44.02 179.059,-132.031 15.699,-34.801 23.941,-61.36 24.691,-79.68 l 1.719,0 c 13.121,60.621 36.871,110.969 71.25,151.09 40.5,40.39 86.012,60.621 136.558,60.621 78.204,0 140.942,-41.949 188.122,-125.781 11.96,-31.051 17.968,-60.27 17.968,-87.649 0,-93.562 -38.976,-182.82 -116.867,-267.82 L 413.09,9.98828 l -3.289,0 L 94.1797,396.871 c -62.9297,76.758 -94.378919,155.93 -94.378919,237.5 0,79.059 37.230519,141.758 111.719219,188.117 31.449,16.883 63.48,25.313 96.101,25.313 z"
         inkscape:connector-curvature="0"
         id="path14"
         style="fill:#000000;fill-opacity:1;fill-rule:nonzero;stroke:none" /></g></g></svg>