<?xml version="1.0" encoding="UTF-8" standalone="no"?>
<!-- Created with Inkscape (http://www.inkscape.org/) -->

<svg
   xmlns:dc="http://purl.org/dc/elements/1.1/"
   xmlns:cc="http://creativecommons.org/ns#"
   xmlns:rdf="http://www.w3.org/1999/02/22-rdf-syntax-ns#"
   xmlns:svg="http://www.w3.org/2000/svg"
   xmlns="http://www.w3.org/2000/svg"
   xmlns:inkscape="http://www.inkscape.org/namespaces/inkscape"
   version="1.1"
   width="76.25"
   height="121.25"
   id="svg2"
   xml:space="preserve"><metadata
     id="metadata8"><rdf:RDF><cc:Work
         rdf:about=""><dc:format>image/svg+xml</dc:format><dc:type
           rdf:resource="http://purl.org/dc/dcmitype/StillImage" /></cc:Work></rdf:RDF></metadata><defs
     id="defs6" /><g
     transform="matrix(1.25,0,0,-1.25,0,121.25)"
     id="g10"><g
       transform="scale(0.1,0.1)"
       id="g12"><path
         d="m 218.051,965.852 388.121,-113.282 1.558,-2.34 0,-729.378 c 0,-58.0122 -35.929,-94.8832 -107.808,-110.6215 l -30.313,0 c -79.687,0 -119.531,30.6992 -119.531,92.0315 l 0,2.34 c 0,47.07 33.121,74.769 99.371,83.128 l 21.879,1.559 c 32.192,0 63.442,-10.859 93.75,-32.5 l 0,581.09 -307.656,95 0,-595.777 c 0,-51.372 -28.082,-87.5 -84.223,-108.442 l -37.648,-4.531 -14.531,0 c -80.9419,0 -121.410625,28.992 -121.410625,87.031 l 0,4.07 c 0,45.622 31.800825,74.758 95.468725,87.5 l 24.2229,2.34 c 33.32,0 64.918,-12.582 94.84,-37.66 l 0,693.442 3.91,5 z"
         inkscape:connector-curvature="0"
         id="path14"
         style="fill:#000000;fill-opacity:1;fill-rule:nonzero;stroke:none" /></g></g></svg>