<?xml version="1.0" encoding="UTF-8" standalone="no"?>
<!-- Created with Inkscape (http://www.inkscape.org/) -->

<svg
   xmlns:dc="http://purl.org/dc/elements/1.1/"
   xmlns:cc="http://creativecommons.org/ns#"
   xmlns:rdf="http://www.w3.org/1999/02/22-rdf-syntax-ns#"
   xmlns:svg="http://www.w3.org/2000/svg"
   xmlns="http://www.w3.org/2000/svg"
   xmlns:inkscape="http://www.inkscape.org/namespaces/inkscape"
   version="1.1"
   width="126.25"
   height="128.75"
   id="svg2"
   xml:space="preserve"><metadata
     id="metadata8"><rdf:RDF><cc:Work
         rdf:about=""><dc:format>image/svg+xml</dc:format><dc:type
           rdf:resource="http://purl.org/dc/dcmitype/StillImage" /></cc:Work></rdf:RDF></metadata><defs
     id="defs6" /><g
     transform="matrix(1.25,0,0,-1.25,0,128.75)"
     id="g10"><g
       transform="scale(0.1,0.1)"
       id="g12"><path
         d="m 264.84,667.672 c 0,22.066 7.539,40.668 22.66,55.777 15.199,15.199 33.828,22.821 55.941,22.821 21.758,0 40.309,-7.622 55.618,-22.821 15.32,-15.109 22.972,-33.711 22.972,-55.777 0,-22.113 -7.652,-40.781 -22.972,-56.094 -15.309,-15.308 -33.86,-22.969 -55.618,-22.969 -22.113,0 -40.742,7.731 -55.941,23.282 -15.121,15.507 -22.66,34.097 -22.66,55.781 z m 324.539,0 c 0,22.066 7.652,40.668 22.961,55.777 15.39,15.199 33.949,22.821 55.629,22.821 21.761,0 40.39,-7.622 55.941,-22.821 15.5,-15.109 23.281,-33.711 23.281,-55.777 0,-21.684 -7.781,-40.274 -23.281,-55.781 -15.551,-15.551 -34.14,-23.282 -55.789,-23.282 -22.18,0 -40.891,7.731 -56.09,23.282 -15.121,15.507 -22.652,34.097 -22.652,55.781 z M -0.160156,513.301 c 0,139.57 49.218756,258.668 147.660156,357.34 98.441,98.629 217.27,147.969 356.559,147.969 139.691,0 258.519,-49.34 356.562,-147.969 C 958.75,771.969 1007.81,652.871 1007.81,513.301 1007.81,374 958.75,255.328 860.621,157.199 762.578,59.1992 643.75,10.1719 504.059,10.1719 364.77,10.1719 245.941,59.1992 147.5,157.199 49.0586,255.328 -0.160156,374 -0.160156,513.301 z m 75.781256,0 c 0,-118.36 41.8009,-219.18 125.4689,-302.5 83.75,-83.25 184.73,-124.8518 302.969,-124.8518 118.64,0 219.613,41.6018 302.972,124.8518 83.321,83.32 125,184.14 125,302.5 0,118.629 -41.679,219.879 -125,303.75 C 723.672,900.879 622.699,942.828 504.059,942.828 385.82,942.828 284.84,900.879 201.09,817.051 117.422,733.18 75.6211,631.93 75.6211,513.301 z m 132.4999,-232.5 c 13.52,20.929 29.848,40.969 48.91,60.148 68.129,67.699 150.469,101.571 247.028,101.571 96.562,0 178.91,-33.872 247.031,-101.571 18.75,-19.179 35.039,-39.219 48.91,-60.148 l -64.531,-40.473 c -10.86,16.563 -23.59,32.113 -38.278,46.723 -53.132,53.121 -117.5,79.679 -193.132,79.679 -75.618,0 -140,-26.402 -193.118,-79.21 -15,-14.93 -27.742,-30.43 -38.132,-46.571 l -64.688,39.852 z"
         inkscape:connector-curvature="0"
         id="path14"
         style="fill:#000000;fill-opacity:1;fill-rule:nonzero;stroke:none" /></g></g></svg>