<?xml version="1.0" encoding="UTF-8" standalone="no"?>
<!-- Created with Inkscape (http://www.inkscape.org/) -->

<svg
   xmlns:dc="http://purl.org/dc/elements/1.1/"
   xmlns:cc="http://creativecommons.org/ns#"
   xmlns:rdf="http://www.w3.org/1999/02/22-rdf-syntax-ns#"
   xmlns:svg="http://www.w3.org/2000/svg"
   xmlns="http://www.w3.org/2000/svg"
   xmlns:inkscape="http://www.inkscape.org/namespaces/inkscape"
   version="1.1"
   width="68.75"
   height="107.5"
   id="svg2"
   xml:space="preserve"><metadata
     id="metadata8"><rdf:RDF><cc:Work
         rdf:about=""><dc:format>image/svg+xml</dc:format><dc:type
           rdf:resource="http://purl.org/dc/dcmitype/StillImage" /></cc:Work></rdf:RDF></metadata><defs
     id="defs6" /><g
     transform="matrix(1.25,0,0,-1.25,0,107.5)"
     id="g10"><g
       transform="scale(0.1,0.1)"
       id="g12"><path
         d="m 240.121,853.91 48.899,0 4.531,-3.898 0,-21.883 c 10.078,-20.231 47.5,-42.109 112.187,-65.617 89.883,-26.25 134.852,-65.242 134.852,-116.883 0,-54.609 -22.891,-99.84 -68.602,-135.777 l -2.187,0 -16.871,17.968 c 22.89,18.321 34.371,43.16 34.371,74.532 0,26.25 -42.731,52.66 -128.121,79.218 -34.379,15.7 -56.25,28.481 -65.629,38.282 l 0,-598.59 c 0,-57.3128 -41.949,-94.3831 -125.781,-111.2503 l -32.032,0 c -90.6169,0 -135.937219,31.4375 -135.937219,94.3673 0,49.07 39.687519,77.851 119.070219,86.41 l 12.969,0 c 35.93,0 70.539,-11.988 103.898,-35.937 l 0,695.16 4.383,3.898 z"
         inkscape:connector-curvature="0"
         id="path14"
         style="fill:#000000;fill-opacity:1;fill-rule:nonzero;stroke:none" /></g></g></svg>