<?xml version="1.0" encoding="UTF-8" standalone="no"?>
<!-- Created with Inkscape (http://www.inkscape.org/) -->

<svg
   xmlns:dc="http://purl.org/dc/elements/1.1/"
   xmlns:cc="http://creativecommons.org/ns#"
   xmlns:rdf="http://www.w3.org/1999/02/22-rdf-syntax-ns#"
   xmlns:svg="http://www.w3.org/2000/svg"
   xmlns="http://www.w3.org/2000/svg"
   xmlns:inkscape="http://www.inkscape.org/namespaces/inkscape"
   version="1.1"
   width="46.25"
   height="107.5"
   id="svg2"
   xml:space="preserve"><metadata
     id="metadata8"><rdf:RDF><cc:Work
         rdf:about=""><dc:format>image/svg+xml</dc:format><dc:type
           rdf:resource="http://purl.org/dc/dcmitype/StillImage" /></cc:Work></rdf:RDF></metadata><defs
     id="defs6" /><g
     transform="matrix(1.25,0,0,-1.25,0,107.5)"
     id="g10"><g
       transform="scale(0.1,0.1)"
       id="g12"><path
         d="m 265.98,850.621 25.782,0 2.808,-2.82 0,-170.781 66.879,33.75 1.711,-1.09 0,-79.219 c -1.172,-2.621 -24.019,-15.16 -68.59,-37.66 l 0,-209.371 68.59,30.941 0,-75.941 c -0.43,-1.481 -23.281,-14.77 -68.59,-39.84 l 0,-166.719 -2.808,-2.351 -25.782,0 -2.82,2.351 0,153.277 -161.711,-78.597 0,-194.3713 -2.8201,-2.19142 -23.5898,0 -2.8086,2.19142 0,180.3083 -72.351594,-33.75 0,79.852 c 0,2.18 24.101594,14.531 72.351594,37.031 l 0,212.809 -1.1016,0 -71.249994,-31.41 0,77.968 72.351594,36.563 0,161.097 2.8086,2.34 23.5898,0 2.8201,-2.34 0,-147.027 161.711,75.149 0,187.031 2.82,2.82 z M 101.449,500.77 l 0,-211.719 161.711,78.129 0,208.91 -161.711,-75.32 z"
         inkscape:connector-curvature="0"
         id="path14"
         style="fill:#000000;fill-opacity:1;fill-rule:nonzero;stroke:none" /></g></g></svg>