<?xml version="1.0" encoding="UTF-8" standalone="no"?>
<!-- Created with Inkscape (http://www.inkscape.org/) -->

<svg
   xmlns:dc="http://purl.org/dc/elements/1.1/"
   xmlns:cc="http://creativecommons.org/ns#"
   xmlns:rdf="http://www.w3.org/1999/02/22-rdf-syntax-ns#"
   xmlns:svg="http://www.w3.org/2000/svg"
   xmlns="http://www.w3.org/2000/svg"
   xmlns:inkscape="http://www.inkscape.org/namespaces/inkscape"
   version="1.1"
   width="43.75"
   height="107.5"
   id="svg2"
   xml:space="preserve"><metadata
     id="metadata8"><rdf:RDF><cc:Work
         rdf:about=""><dc:format>image/svg+xml</dc:format><dc:type
           rdf:resource="http://purl.org/dc/dcmitype/StillImage" /></cc:Work></rdf:RDF></metadata><defs
     id="defs6" /><g
     transform="matrix(1.25,0,0,-1.25,0,107.5)"
     id="g10"><g
       transform="scale(0.1,0.1)"
       id="g12"><path
         d="m 3.19922,853.988 25.32028,0 2.8086,-3.437 0,-539.531 1.7227,0 C 96.5586,399.66 155.551,443.988 209.922,443.988 294.801,442.941 341.02,394.301 348.52,298.051 337.66,138.988 221.988,42.9414 1.48047,9.92969 l -1.710939,1.71871 0,838.9026 3.429689,3.437 z m 28.12888,-603.117 0,-199.3827 C 187.77,88.5586 266.02,164.191 266.02,278.371 c 0.39,4.879 0.621,9.57 0.621,14.059 0,55.39 -27.93,84.609 -83.75,87.66 -44.61,0 -95.1215,-43.09 -151.5629,-129.219 z"
         inkscape:connector-curvature="0"
         id="path14"
         style="fill:#000000;fill-opacity:1;fill-rule:nonzero;stroke:none" /></g></g></svg>