<?xml version="1.0" encoding="UTF-8" standalone="no"?>
<!-- Created with Inkscape (http://www.inkscape.org/) -->

<svg
   xmlns:dc="http://purl.org/dc/elements/1.1/"
   xmlns:cc="http://creativecommons.org/ns#"
   xmlns:rdf="http://www.w3.org/1999/02/22-rdf-syntax-ns#"
   xmlns:svg="http://www.w3.org/2000/svg"
   xmlns="http://www.w3.org/2000/svg"
   xmlns:inkscape="http://www.inkscape.org/namespaces/inkscape"
   version="1.1"
   width="105"
   height="107.5"
   id="svg2"
   xml:space="preserve"><metadata
     id="metadata8"><rdf:RDF><cc:Work
         rdf:about=""><dc:format>image/svg+xml</dc:format><dc:type
           rdf:resource="http://purl.org/dc/dcmitype/StillImage" /></cc:Work></rdf:RDF></metadata><defs
     id="defs6" /><g
     transform="matrix(1.25,0,0,-1.25,0,107.5)"
     id="g10"><g
       transform="scale(0.1,0.1)"
       id="g12"><path
         d="m 465.391,849.531 c 88.629,0 172.109,-35.429 250.468,-106.25 56.129,-58.051 84.219,-127.261 84.219,-207.66 0,-75.312 -23.437,-138.82 -70.308,-190.461 l 109.058,-82.969 -78.75,-73.601 -1.558,0 -103.911,95.469 c -61.8,-41.25 -133.281,-61.868 -214.531,-61.868 -63.668,0 -122.269,16.481 -175.777,49.528 l 0,-1.719 -145.942,-260 -1.718,0 C 40.2695,62.8086 1.37109,90.5117 -0.078125,93.1211 9.60938,102.5 79.0195,183.52 208.199,336.25 c 8.949,10.82 14.731,16.25 17.352,16.25 42.258,-31.801 93,-47.66 152.179,-47.66 71.571,0 135.551,19.422 192.04,58.281 L 447.891,474.379 387.27,409.84 l -3.29,0 c -70,43.441 -106.71,67.39 -110.152,71.879 l 130.942,144.84 c 105.929,-5.231 158.902,-8.75 158.902,-10.618 L 492.891,526.559 C 578.91,461.02 627.422,425.66 638.359,420.469 l 0,1.09 c 24.692,33.75 37.032,73.793 37.032,120.16 l 0,20.312 c 0,95 -46.993,161.41 -140.942,199.219 C 483.09,787.07 435.16,800 390.699,800 l -20.777,0 c -36.684,0 -77.5,-10.27 -122.5,-30.781 63.629,53.511 136.289,80.312 217.969,80.312 z"
         inkscape:connector-curvature="0"
         id="path14"
         style="fill:#000000;fill-opacity:1;fill-rule:nonzero;stroke:none" /></g></g></svg>