<?xml version="1.0" encoding="UTF-8" standalone="no"?>
<!-- Created with Inkscape (http://www.inkscape.org/) -->

<svg
   xmlns:dc="http://purl.org/dc/elements/1.1/"
   xmlns:cc="http://creativecommons.org/ns#"
   xmlns:rdf="http://www.w3.org/1999/02/22-rdf-syntax-ns#"
   xmlns:svg="http://www.w3.org/2000/svg"
   xmlns="http://www.w3.org/2000/svg"
   xmlns:inkscape="http://www.inkscape.org/namespaces/inkscape"
   version="1.1"
   width="30"
   height="47.5"
   id="svg2"
   xml:space="preserve"><metadata
     id="metadata8"><rdf:RDF><cc:Work
         rdf:about=""><dc:format>image/svg+xml</dc:format><dc:type
           rdf:resource="http://purl.org/dc/dcmitype/StillImage" /></cc:Work></rdf:RDF></metadata><defs
     id="defs6" /><g
     transform="matrix(1.25,0,0,-1.25,0,47.5)"
     id="g10"><g
       transform="scale(0.1,0.1)"
       id="g12"><path
         d="m 231.84,307.531 c -7.192,3.75 -15.121,6.449 -23.75,8.129 -8.559,1.641 -18.09,2.5 -28.602,2.5 -36.679,0 -64.84,-10.59 -84.5271,-31.719 C 75.3516,265.27 65.5898,234.719 65.5898,194.719 l 0,-185.30884 -65.789019,0 0,352.03084 65.789019,0 0,-54.531 c 13.4297,21.32 31.0899,37.18 52.9612,47.5 21.961,10.309 48.679,15.461 80.16,15.461 4.449,0 9.41,-0.23 14.84,-0.621 5.398,-0.309 11.488,-1.051 18.289,-2.191 l 0,-59.528 z"
         inkscape:connector-curvature="0"
         id="path14"
         style="fill:#000000;fill-opacity:1;fill-rule:nonzero;stroke:none" /></g></g></svg>