<?xml version="1.0" encoding="UTF-8" standalone="no"?>
<!-- Created with Inkscape (http://www.inkscape.org/) -->

<svg
   xmlns:dc="http://purl.org/dc/elements/1.1/"
   xmlns:cc="http://creativecommons.org/ns#"
   xmlns:rdf="http://www.w3.org/1999/02/22-rdf-syntax-ns#"
   xmlns:svg="http://www.w3.org/2000/svg"
   xmlns="http://www.w3.org/2000/svg"
   xmlns:inkscape="http://www.inkscape.org/namespaces/inkscape"
   version="1.1"
   width="38.75"
   height="48.75"
   id="svg2"
   xml:space="preserve"><metadata
     id="metadata8"><rdf:RDF><cc:Work
         rdf:about=""><dc:format>image/svg+xml</dc:format><dc:type
           rdf:resource="http://purl.org/dc/dcmitype/StillImage" /></cc:Work></rdf:RDF></metadata><defs
     id="defs6" /><g
     transform="matrix(1.25,0,0,-1.25,0,48.75)"
     id="g10"><g
       transform="scale(0.1,0.1)"
       id="g12"><path
         d="m 281.211,360.34 0,-54.539 c -18.359,8.211 -37.461,14.418 -57.34,18.597 -19.383,4.063 -39.769,6.09 -61.101,6.09 -32.61,0 -56.989,-4.289 -73.1216,-12.808 -16.0586,-9.059 -24.0586,-22.418 -24.0586,-40 0,-13.442 5.7813,-23.91 17.3399,-31.41 11.6406,-7.809 34.8793,-15.11 69.6913,-21.872 l 22.5,-4.527 c 46.758,-8.992 79.527,-21.332 98.277,-37.031 19.454,-16.059 29.223,-38.52 29.223,-67.352 0,-32.6169 -14.652,-58.4372 -43.91,-77.4997 C 229.84,18.9297 190,9.39844 139.18,9.39844 c -21.371,0 -43.6683,1.87106 -66.8792,5.62106 -22.8125,3.75 -46.9922,9.1407 -72.500019,16.25 l 0,60 C 23.75,80.1016 47.5391,71.7383 71.2109,66.1211 94.4102,60.4883 117.461,57.6797 140.27,57.6797 c 30.71,0 54.3,4.6094 70.781,13.9101 16.449,9.3711 24.687,22.5 24.687,39.3712 0,15.699 -6.008,27.891 -17.968,36.559 -10.54,7.5 -36.559,15.511 -78.122,24.07 l -22.347,4.531 c -40.5393,7.809 -69.7619,19.41 -87.6526,34.84 -18.0468,15.699 -27.02731,37.23 -27.02731,64.527 0,32.891 13.32031,58.364 40.00001,76.41 26.1289,18.321 63.5079,27.5 112.1799,27.5 23.949,0 46.609,-1.679 67.969,-5 21.332,-3.046 40.82,-7.738 58.441,-14.058 z"
         inkscape:connector-curvature="0"
         id="path14"
         style="fill:#000000;fill-opacity:1;fill-rule:nonzero;stroke:none" /></g></g></svg>