<?xml version="1.0" encoding="UTF-8" standalone="no"?>
<!-- Created with Inkscape (http://www.inkscape.org/) -->

<svg
   xmlns:dc="http://purl.org/dc/elements/1.1/"
   xmlns:cc="http://creativecommons.org/ns#"
   xmlns:rdf="http://www.w3.org/1999/02/22-rdf-syntax-ns#"
   xmlns:svg="http://www.w3.org/2000/svg"
   xmlns="http://www.w3.org/2000/svg"
   xmlns:inkscape="http://www.inkscape.org/namespaces/inkscape"
   version="1.1"
   width="56.25"
   height="108.75"
   id="svg2"
   xml:space="preserve"><metadata
     id="metadata8"><rdf:RDF><cc:Work
         rdf:about=""><dc:format>image/svg+xml</dc:format><dc:type
           rdf:resource="http://purl.org/dc/dcmitype/StillImage" /></cc:Work></rdf:RDF></metadata><defs
     id="defs6" /><g
     transform="matrix(1.25,0,0,-1.25,0,108.75)"
     id="g10"><g
       transform="scale(0.1,0.1)"
       id="g12"><path
         d="m 199.73,638.359 107.34,0 0,-528.437 c 11.559,3.008 23.52,6.957 35.942,11.879 33.316,13.121 68.117,32.219 104.367,57.34 l 0,-105.6215 C 412.148,52.1484 376.48,36.25 340.352,25.8594 304.301,15.3516 266.988,10.0781 228.48,10.0781 159.488,10.0781 104.141,28.1992 62.3789,64.4492 20.6992,100.781 -0.121094,148.711 -0.121094,208.199 c 0,28.52 6.722654,55.629 20.160194,81.25 13.5117,25.629 37.1093,54.531 70.7812,86.723 l 49.3787,48.277 c 17.571,17.582 30.031,31.332 37.34,41.25 7.262,9.891 12.422,19.531 15.473,28.91 2.258,7.891 3.937,17.422 5,28.59 1.129,11.25 1.718,26.602 1.718,46.102 l 0,69.058 z m 110.622,82.5 -113.903,0 0,142.661 113.903,0 0,-142.661 z M 199.73,107.73 l 0,240.942 -25.16,-24.692 c -21.371,-19.921 -36.84,-38.671 -46.41,-56.25 -9.609,-17.609 -14.371,-35.582 -14.371,-53.902 0,-33.359 12.383,-60.277 37.191,-80.777 13.43,-11.68 29.68,-20.121 48.75,-25.321 z"
         inkscape:connector-curvature="0"
         id="path14"
         style="fill:#000000;fill-opacity:1;fill-rule:nonzero;stroke:none" /></g></g></svg>