<?xml version="1.0" encoding="UTF-8" standalone="no"?>
<!-- Created with Inkscape (http://www.inkscape.org/) -->

<svg
   xmlns:dc="http://purl.org/dc/elements/1.1/"
   xmlns:cc="http://creativecommons.org/ns#"
   xmlns:rdf="http://www.w3.org/1999/02/22-rdf-syntax-ns#"
   xmlns:svg="http://www.w3.org/2000/svg"
   xmlns="http://www.w3.org/2000/svg"
   xmlns:inkscape="http://www.inkscape.org/namespaces/inkscape"
   version="1.1"
   width="127.5"
   height="130"
   id="svg2"
   xml:space="preserve"><metadata
     id="metadata8"><rdf:RDF><cc:Work
         rdf:about=""><dc:format>image/svg+xml</dc:format><dc:type
           rdf:resource="http://purl.org/dc/dcmitype/StillImage" /></cc:Work></rdf:RDF></metadata><defs
     id="defs6" /><g
     transform="matrix(1.25,0,0,-1.25,0,130)"
     id="g10"><g
       transform="scale(0.1,0.1)"
       id="g12"><path
         d="m 496.719,684.23 c 0,-25.32 -3.438,-48.558 -10.309,-69.691 -6.879,-21.059 -15.898,-40.238 -27.031,-57.5 -11.18,-17.187 -24.027,-33.277 -38.598,-48.277 -14.492,-14.922 -29.453,-28.871 -44.84,-41.883 -38.363,-32.18 -70.16,-63.668 -95.472,-94.367 -25.239,-30.633 -40.117,-62.032 -44.688,-94.223 l 258.75,0 0,-51.719 -316.25,0 c 2.27,34.45 8.199,64.918 17.809,91.41 9.57,26.442 22.031,50.54 37.351,72.34 15.309,21.879 33.278,42.539 53.899,62.032 20.711,19.57 43.75,40.507 69.07,62.808 29.879,25.32 52.262,50.629 67.18,75.942 15,25.308 22.5,56.718 22.5,94.218 0,39.141 -8.82,69.84 -26.399,92.032 -17.621,22.187 -43.671,33.277 -78.132,33.277 -19.18,0 -35.469,-4.609 -48.899,-13.75 -13.441,-9.18 -24.379,-21.641 -32.82,-37.34 -8.43,-15.738 -14.61,-33.988 -18.43,-54.687 -3.75,-20.622 -5.629,-42.461 -5.629,-65.473 l -50.621,0 c -0.859,31.449 2.18,60.551 9.059,87.351 6.953,26.872 17.34,50.04 31.09,69.532 13.832,19.566 30.711,34.918 50.632,46.09 19.879,11.128 42.5,16.718 67.809,16.718 43.75,0 80.16,-15.16 109.219,-45.468 29.14,-30.313 43.75,-73.442 43.75,-129.372 z m 351.871,0 c 0,-25.32 -3.43,-48.558 -10.309,-69.691 -6.871,-21.059 -15.902,-40.238 -27.031,-57.5 -11.172,-17.187 -24.02,-33.277 -38.59,-48.277 -14.5,-14.922 -29.379,-28.871 -44.691,-41.883 -38.36,-32.18 -70.16,-63.668 -95.469,-94.367 -25.309,-30.633 -40.27,-62.032 -44.84,-94.223 l 259.84,0 0,-51.719 -317.34,0 c 2.262,34.45 8.199,64.918 17.809,91.41 9.57,26.442 22.031,50.54 37.34,72.34 15.312,21.879 33.132,42.731 53.441,62.66 20.309,20 43.129,40.7 68.441,62.18 29.879,26.02 52.5,51.488 67.809,76.41 15.391,25 23.121,56.25 23.121,93.75 0,39.141 -8.859,69.84 -26.562,92.032 -17.61,22.187 -43.668,33.277 -78.118,33.277 -19.179,0 -35.472,-4.609 -48.91,-13.75 -13.441,-9.18 -24.371,-21.641 -32.812,-37.34 -8.438,-15.738 -14.61,-33.988 -18.438,-54.687 -3.75,-20.622 -5.621,-42.461 -5.621,-65.473 l -50.629,0 c -0.859,31.449 2.188,60.551 9.059,87.351 6.961,26.872 17.351,50.04 31.101,69.532 13.829,19.566 30.7,34.918 50.618,46.09 20,11.128 42.66,16.718 67.972,16.718 43.629,0 80,-15.16 109.059,-45.468 29.14,-30.313 43.75,-73.442 43.75,-129.372 z M 977.5,519.699 c 0,64.449 -12.301,125.231 -36.879,182.34 -24.492,57.07 -57.812,106.723 -100,148.91 -42.18,42.18 -91.871,75.5 -149.062,100 -57.11,24.571 -117.809,36.871 -182.18,36.871 -64.379,0 -125.16,-12.3 -182.348,-36.871 -57.109,-24.5 -106.722,-57.82 -148.91,-100 C 136.02,808.762 102.699,759.109 78.1211,702.039 53.6289,644.93 41.4102,584.148 41.4102,519.699 41.4102,455.32 53.6289,394.539 78.1211,337.352 102.699,280.238 136.02,230.629 178.121,188.449 220.309,146.379 269.922,113.09 327.031,88.6016 384.219,64.0313 445,51.7305 509.379,51.7305 c 64.371,0 125.07,12.3008 182.18,36.8711 57.191,24.4884 106.882,57.7774 149.062,99.8474 42.188,42.18 75.508,91.789 100,148.903 24.578,57.187 36.879,117.968 36.879,182.347 z m 41.41,0 c 0,-70.551 -13.44,-136.679 -40.32,-198.437 C 951.719,259.578 915.23,205.789 869.219,159.852 823.281,113.84 769.41,77.4297 707.66,50.6289 645.98,23.7617 579.879,10.3203 509.379,10.3203 c -70.551,0 -136.68,13.4414 -198.438,40.3086 C 249.262,77.4297 195.391,113.84 149.379,159.852 103.441,205.789 67.0313,259.578 40.1602,321.262 13.3594,383.02 0,449.148 0,519.699 c 0,70.5 13.3594,136.602 40.1602,198.281 26.8711,61.75 63.2808,115.661 109.2188,161.719 46.012,46.012 99.883,82.422 161.562,109.211 61.758,26.88 127.887,40.32 198.438,40.32 70.5,0 136.601,-13.44 198.281,-40.32 61.75,-26.789 115.621,-63.199 161.559,-109.211 46.011,-46.058 82.5,-99.969 109.371,-161.719 26.88,-61.679 40.32,-127.781 40.32,-198.281 z"
         inkscape:connector-curvature="0"
         id="path14"
         style="fill:#000000;fill-opacity:1;fill-rule:nonzero;stroke:none" /></g></g></svg>