<?xml version="1.0" encoding="UTF-8" standalone="no"?>
<!-- Created with Inkscape (http://www.inkscape.org/) -->

<svg
   xmlns:dc="http://purl.org/dc/elements/1.1/"
   xmlns:cc="http://creativecommons.org/ns#"
   xmlns:rdf="http://www.w3.org/1999/02/22-rdf-syntax-ns#"
   xmlns:svg="http://www.w3.org/2000/svg"
   xmlns="http://www.w3.org/2000/svg"
   xmlns:inkscape="http://www.inkscape.org/namespaces/inkscape"
   version="1.1"
   width="127.5"
   height="130"
   id="svg2"
   xml:space="preserve"><metadata
     id="metadata8"><rdf:RDF><cc:Work
         rdf:about=""><dc:format>image/svg+xml</dc:format><dc:type
           rdf:resource="http://purl.org/dc/dcmitype/StillImage" /></cc:Work></rdf:RDF></metadata><defs
     id="defs6" /><g
     transform="matrix(1.25,0,0,-1.25,0,130)"
     id="g10"><g
       transform="scale(0.1,0.1)"
       id="g12"><path
         d="m 829.059,393.289 c 0,45.191 -12.11,79.102 -36.25,101.723 -24.059,22.578 -53.399,33.898 -87.969,33.898 -34.488,0 -63.82,-11.32 -87.961,-33.898 -24.07,-22.621 -36.098,-56.532 -36.098,-101.723 0,-45.238 11.641,-79.34 35,-102.34 23.321,-23.051 53.008,-34.539 89.059,-34.539 36.019,0 65.711,11.488 89.07,34.539 23.43,23 35.149,57.102 35.149,102.34 z m -20.618,300.16 c 0,31.321 -8.871,57.18 -26.562,77.5 -17.617,20.391 -43.289,30.621 -77.039,30.621 -32.93,0 -58.391,-10.23 -76.399,-30.621 -18.05,-20.32 -27.031,-46.179 -27.031,-77.5 0,-36.879 9.918,-65.121 29.84,-84.687 20,-19.492 44.531,-29.223 73.59,-29.223 28.441,0 52.82,9.731 73.129,29.223 20.312,19.566 30.472,47.808 30.472,84.687 z m -302.5,-13.91 c 0,-25.238 -3.441,-48.199 -10.32,-68.91 -6.871,-20.738 -16.32,-39.918 -28.281,-57.5 C 455.469,535.52 441.879,519.422 426.559,504.852 411.25,490.238 395.551,476.02 379.531,462.199 340.352,430.012 307.73,398.762 281.719,368.449 255.66,338.211 240.352,307.039 235.781,274.852 l 256.41,0 0,-52.973 -317.5,0 c 3.118,35.32 9.45,66.172 19.059,92.66 9.57,26.441 22.23,50.551 37.969,72.34 15.703,21.883 34.101,42.742 55.16,62.66 21.012,20 45,40.699 71.871,62.191 31.449,26.008 55.199,51.29 71.25,75.782 16.129,24.566 24.219,55.66 24.219,93.277 0,39.063 -9.61,69.691 -28.75,91.871 -19.18,22.27 -46.41,33.442 -81.719,33.442 -19.922,0 -36.801,-4.653 -50.629,-13.903 -13.742,-9.179 -25.07,-21.648 -33.902,-37.347 -8.75,-15.622 -15.27,-33.832 -19.528,-54.532 -4.179,-20.742 -6.25,-42.621 -6.25,-65.621 l -50.632,0 c -0.739,31.442 2.5,60.539 9.691,87.34 7.27,26.871 17.809,50.082 31.559,69.691 13.832,19.571 31.14,34.879 51.882,45.93 20.7,11.141 44.45,16.719 71.25,16.719 23.008,0 44.098,-3.859 63.278,-11.559 19.14,-7.621 35.82,-18.91 50,-33.91 14.261,-14.922 25.39,-33.281 33.441,-55.148 8,-21.883 12.031,-46.641 12.031,-74.223 z m 374.84,-286.25 c 0,-29.918 -4.609,-56.367 -13.75,-79.379 -9.179,-23.039 -21.64,-42.609 -37.34,-58.75 -15.742,-16.051 -34.339,-28.121 -55.781,-36.25 -21.488,-8.039 -44.851,-12.031 -70.16,-12.031 -25.309,0 -48.711,3.992 -70.16,12.031 -21.481,8.129 -40.07,20.199 -55.781,36.25 -15.739,16.141 -28.2,35.711 -37.34,58.75 -9.18,23.012 -13.75,49.461 -13.75,79.379 0,19.141 2.66,37.731 7.972,55.781 5.387,18.008 12.887,34.258 22.5,48.75 9.571,14.571 20.661,26.879 33.278,36.879 12.691,10 26.722,17.262 42.031,21.871 -23.051,8.442 -42.969,24.879 -59.84,49.379 -16.879,24.571 -25.32,53.75 -25.32,87.5 0,21.442 3.64,41.75 10.941,60.93 7.27,19.141 17.66,35.633 31.098,49.383 13.43,13.828 29.723,24.758 48.902,32.808 19.141,8.008 40.981,12.032 65.469,12.032 23.75,0 45.199,-4.024 64.371,-12.032 19.149,-8.05 35.469,-18.98 48.91,-32.808 13.438,-13.75 23.789,-30.242 31.09,-49.383 7.27,-19.18 10.938,-39.488 10.938,-60.93 0,-33.75 -8.278,-62.347 -24.84,-85.789 C 817.73,584.301 798.012,567.27 775,556.57 c 14.57,0 28.359,-4.8 41.41,-14.371 13,-9.609 24.289,-22.269 33.899,-37.969 9.57,-15.75 17.031,-33.402 22.351,-52.968 5.391,-19.492 8.121,-38.832 8.121,-57.973 z m 96.719,126.41 c 0,64.449 -12.301,125.231 -36.879,182.34 -24.492,57.07 -57.812,106.723 -100,148.91 -42.18,42.18 -91.871,75.5 -149.062,100 -57.11,24.571 -117.809,36.871 -182.18,36.871 -64.379,0 -125.16,-12.3 -182.348,-36.871 -57.109,-24.5 -106.722,-57.82 -148.91,-100 C 136.02,808.762 102.699,759.109 78.1211,702.039 53.6289,644.93 41.4102,584.148 41.4102,519.699 41.4102,455.32 53.6289,394.539 78.1211,337.352 102.699,280.238 136.02,230.629 178.121,188.449 220.309,146.379 269.922,113.09 327.031,88.6016 384.219,64.0313 445,51.7305 509.379,51.7305 c 64.371,0 125.07,12.3008 182.18,36.8711 57.191,24.4884 106.882,57.7774 149.062,99.8474 42.188,42.18 75.508,91.789 100,148.903 24.578,57.187 36.879,117.968 36.879,182.347 z m 41.41,0 c 0,-70.551 -13.44,-136.679 -40.32,-198.437 C 951.719,259.578 915.23,205.789 869.219,159.852 823.281,113.84 769.41,77.4297 707.66,50.6289 645.98,23.7617 579.879,10.3203 509.379,10.3203 c -70.551,0 -136.68,13.4414 -198.438,40.3086 C 249.262,77.4297 195.391,113.84 149.379,159.852 103.441,205.789 67.0313,259.578 40.1602,321.262 13.3594,383.02 0,449.148 0,519.699 c 0,70.5 13.3594,136.602 40.1602,198.281 26.8711,61.75 63.2808,115.661 109.2188,161.719 46.012,46.012 99.883,82.422 161.562,109.211 61.758,26.88 127.887,40.32 198.438,40.32 70.5,0 136.601,-13.44 198.281,-40.32 61.75,-26.789 115.621,-63.199 161.559,-109.211 46.011,-46.058 82.5,-99.969 109.371,-161.719 26.88,-61.679 40.32,-127.781 40.32,-198.281 z"
         inkscape:connector-curvature="0"
         id="path14"
         style="fill:#000000;fill-opacity:1;fill-rule:nonzero;stroke:none" /></g></g></svg>