<?xml version="1.0" encoding="UTF-8" standalone="no"?>
<!-- Created with Inkscape (http://www.inkscape.org/) -->

<svg
   xmlns:dc="http://purl.org/dc/elements/1.1/"
   xmlns:cc="http://creativecommons.org/ns#"
   xmlns:rdf="http://www.w3.org/1999/02/22-rdf-syntax-ns#"
   xmlns:svg="http://www.w3.org/2000/svg"
   xmlns="http://www.w3.org/2000/svg"
   xmlns:inkscape="http://www.inkscape.org/namespaces/inkscape"
   version="1.1"
   width="127.5"
   height="130"
   id="svg2"
   xml:space="preserve"><metadata
     id="metadata8"><rdf:RDF><cc:Work
         rdf:about=""><dc:format>image/svg+xml</dc:format><dc:type
           rdf:resource="http://purl.org/dc/dcmitype/StillImage" /></cc:Work></rdf:RDF></metadata><defs
     id="defs6" /><g
     transform="matrix(1.25,0,0,-1.25,0,130)"
     id="g10"><g
       transform="scale(0.1,0.1)"
       id="g12"><path
         d="m 824.531,420.789 c 0,49.063 -10.39,87.731 -31.09,116.09 -20.742,28.441 -48.711,42.66 -83.91,42.66 -35.312,0 -63.121,-14.379 -83.441,-43.129 -20.309,-28.75 -30.469,-67.648 -30.469,-116.711 0,-21.488 2.5,-42 7.5,-61.57 5,-19.488 12.27,-36.719 21.879,-51.719 9.57,-14.922 21.449,-26.789 35.621,-35.621 14.149,-8.867 30.469,-13.277 48.91,-13.277 18.321,0 34.77,4.566 49.379,13.75 14.57,9.258 26.641,21.328 36.25,36.25 9.57,15 16.871,32.218 21.871,51.718 5,19.571 7.5,40.071 7.5,61.559 z M 500.16,677.352 c 0,-25.313 -3.441,-48.364 -10.32,-69.063 -6.871,-20.738 -16.09,-39.918 -27.649,-57.5 -11.492,-17.617 -24.492,-33.711 -39.07,-48.277 -14.601,-14.614 -29.922,-28.75 -45.93,-42.5 -37.621,-32.192 -69.461,-63.442 -95.472,-93.75 -26.059,-30.313 -41.02,-61.563 -44.84,-93.75 l 262.18,0 0,-52.973 -322.028,0 c 3.129,35.313 9.449,66.172 19.059,92.66 9.57,26.442 22.031,50.539 37.351,72.34 15.309,21.871 33.469,42.582 54.528,62.191 21.133,19.571 44.371,40.469 69.691,62.649 29.879,25.32 52.649,50.391 68.281,75.32 15.7,24.879 23.59,56.129 23.59,93.75 0,39.063 -9.019,69.68 -27.031,91.871 -17.93,22.27 -44.18,33.442 -78.75,33.442 -19.18,0 -35.469,-4.614 -48.91,-13.75 -13.36,-9.184 -24.449,-21.641 -33.281,-37.352 -8.86,-15.738 -15.231,-33.98 -19.059,-54.68 -3.75,-20.75 -5.621,-42.582 -5.621,-65.468 l -51.719,0 c 0,31.328 3.43,60.468 10.309,87.34 6.871,26.878 17.191,50.039 30.941,69.527 13.82,19.57 30.699,34.891 50.621,45.941 20,11.129 43.008,16.719 69.059,16.719 44.461,0 81.25,-15.16 110.32,-45.469 29.141,-30.23 43.75,-73.281 43.75,-129.218 z M 873.91,420.789 c 0,-31.367 -4.031,-59.918 -12.031,-85.629 -8.051,-25.621 -19.18,-47.89 -33.438,-66.711 -14.179,-18.75 -31.41,-33.359 -51.722,-43.75 -20.309,-10.32 -42.739,-15.469 -67.188,-15.469 -27.621,0 -52.152,5.7 -73.59,17.18 -21.492,11.57 -39.691,30.36 -54.691,56.41 -14.922,26.02 -26.41,59.918 -34.531,101.719 -8.047,41.871 -12.028,93.051 -12.028,153.59 0,47.5 4.368,90.391 13.118,128.75 8.832,38.32 21.332,71.101 37.5,98.281 16.14,27.27 35.082,48.36 56.882,63.289 21.868,15 45.469,22.5 70.778,22.5 46.761,0 82.383,-15.16 106.871,-45.469 24.57,-30.242 39.539,-68.71 44.851,-115.468 l -50.472,0 c -3.867,32.187 -14.219,58.789 -31.098,79.84 -16.871,21.128 -40.269,31.718 -70.152,31.718 -22.309,0 -41.328,-7.148 -57.028,-21.41 -15.632,-14.18 -28.671,-33.898 -39.062,-59.211 -10.32,-25.32 -17.969,-55.078 -22.969,-89.219 -5,-34.07 -7.5,-70.628 -7.5,-109.691 9.25,29.141 24.61,53.91 46.09,74.223 21.449,20.308 47.109,30.468 77.031,30.468 23.75,0 45.778,-4.808 66.09,-14.378 20.32,-9.614 37.738,-23.243 52.348,-40.942 14.57,-17.609 25.859,-39.058 33.91,-64.371 8,-25.238 12.031,-53.988 12.031,-86.25 z m 103.59,98.91 c 0,64.449 -12.301,125.231 -36.879,182.34 -24.492,57.07 -57.812,106.723 -100,148.91 -42.18,42.18 -91.871,75.5 -149.062,100 -57.11,24.571 -117.809,36.871 -182.18,36.871 -64.379,0 -125.16,-12.3 -182.348,-36.871 -57.109,-24.5 -106.722,-57.82 -148.91,-100 C 136.02,808.762 102.699,759.109 78.1211,702.039 53.6289,644.93 41.4102,584.148 41.4102,519.699 41.4102,455.32 53.6289,394.539 78.1211,337.352 102.699,280.238 136.02,230.629 178.121,188.449 220.309,146.379 269.922,113.09 327.031,88.6016 384.219,64.0313 445,51.7305 509.379,51.7305 c 64.371,0 125.07,12.3008 182.18,36.8711 57.191,24.4884 106.882,57.7774 149.062,99.8474 42.188,42.18 75.508,91.789 100,148.903 24.578,57.187 36.879,117.968 36.879,182.347 z m 41.41,0 c 0,-70.551 -13.44,-136.679 -40.32,-198.437 C 951.719,259.578 915.23,205.789 869.219,159.852 823.281,113.84 769.41,77.4297 707.66,50.6289 645.98,23.7617 579.879,10.3203 509.379,10.3203 c -70.551,0 -136.68,13.4414 -198.438,40.3086 C 249.262,77.4297 195.391,113.84 149.379,159.852 103.441,205.789 67.0313,259.578 40.1602,321.262 13.3594,383.02 0,449.148 0,519.699 c 0,70.5 13.3594,136.602 40.1602,198.281 26.8711,61.75 63.2808,115.661 109.2188,161.719 46.012,46.012 99.883,82.422 161.562,109.211 61.758,26.88 127.887,40.32 198.438,40.32 70.5,0 136.601,-13.44 198.281,-40.32 61.75,-26.789 115.621,-63.199 161.559,-109.211 46.011,-46.058 82.5,-99.969 109.371,-161.719 26.88,-61.679 40.32,-127.781 40.32,-198.281 z"
         inkscape:connector-curvature="0"
         id="path14"
         style="fill:#000000;fill-opacity:1;fill-rule:nonzero;stroke:none" /></g></g></svg>