<?xml version="1.0" encoding="UTF-8" standalone="no"?>
<!-- Created with Inkscape (http://www.inkscape.org/) -->

<svg
   xmlns:dc="http://purl.org/dc/elements/1.1/"
   xmlns:cc="http://creativecommons.org/ns#"
   xmlns:rdf="http://www.w3.org/1999/02/22-rdf-syntax-ns#"
   xmlns:svg="http://www.w3.org/2000/svg"
   xmlns="http://www.w3.org/2000/svg"
   xmlns:inkscape="http://www.inkscape.org/namespaces/inkscape"
   version="1.1"
   width="127.5"
   height="130"
   id="svg2"
   xml:space="preserve"><metadata
     id="metadata8"><rdf:RDF><cc:Work
         rdf:about=""><dc:format>image/svg+xml</dc:format><dc:type
           rdf:resource="http://purl.org/dc/dcmitype/StillImage" /></cc:Work></rdf:RDF></metadata><defs
     id="defs6" /><g
     transform="matrix(1.25,0,0,-1.25,0,130)"
     id="g10"><g
       transform="scale(0.1,0.1)"
       id="g12"><path
         d="m 501.41,675.012 c 0,-25.313 -3.519,-48.364 -10.469,-69.063 -6.882,-20.629 -16.101,-39.808 -27.66,-57.5 -11.48,-17.621 -24.492,-33.719 -39.062,-48.289 -14.489,-14.609 -29.809,-28.75 -45.938,-42.5 -38.359,-32.18 -70.39,-63.43 -96.09,-93.75 -25.632,-30.308 -40.742,-61.558 -45.312,-93.75 l 263.281,0 0,-51.711 -321.879,0 c 3.008,34.449 9.297,64.922 18.91,91.403 9.571,26.449 22.028,50.628 37.34,72.5 15.309,21.878 33.481,42.539 54.528,62.027 21.14,19.57 44.382,40.473 69.691,62.66 29.879,25.313 52.5,50.621 67.809,75.941 15.32,25.309 22.972,56.321 22.972,93.122 0,40.628 -9.019,71.878 -27.031,93.75 -17.93,21.878 -44.18,32.808 -78.75,32.808 -19.18,0 -35.469,-4.64 -48.91,-13.898 -13.36,-9.184 -24.449,-21.641 -33.281,-37.352 -8.86,-15.621 -15.231,-33.82 -19.059,-54.531 -3.75,-20.738 -5.621,-42.609 -5.621,-65.617 l -49.539,0 c 0,32.187 3.441,61.476 10.32,87.968 6.949,26.442 17.11,49.45 30.461,69.059 13.438,19.57 30.078,34.731 50,45.473 20,10.699 42.66,16.09 67.969,16.09 44.461,0 81.449,-15.153 110.941,-45.473 29.571,-30.309 44.379,-73.43 44.379,-129.367 z m 357.649,-256.41 c 0,-29.922 -4.649,-57.93 -13.899,-84.063 -9.18,-26.059 -21.41,-48.437 -36.719,-67.187 -15.32,-18.75 -33.363,-33.551 -54.062,-44.372 -20.75,-10.75 -42.969,-16.101 -66.719,-16.101 -23.051,0 -44.539,4.422 -64.539,13.281 -19.922,8.828 -37.34,21.488 -52.34,37.969 -14.922,16.449 -26.562,36.57 -35,60.32 -8.359,23.821 -12.929,50.313 -13.75,79.371 l 50.629,0 c 1.559,-45.23 13.039,-80.121 34.531,-104.691 21.438,-24.488 48.629,-36.719 81.559,-36.719 18.441,0 35.078,4.379 50,13.129 15,8.832 27.422,20.941 37.34,36.25 10,15.391 17.66,33.441 22.969,54.063 5.39,20.699 8.132,42.578 8.132,65.628 0,47.5 -10.742,86.399 -32.191,116.719 -21.48,30.313 -50.59,45.461 -87.34,45.461 -23.051,0 -43.558,-5.781 -61.57,-17.34 -18.039,-11.48 -32.418,-30.23 -43.121,-56.25 l -45.938,0 44.848,326.559 249.531,0 0,-51.719 -208.129,0 -31.09,-211.711 c 10.7,17.692 24.879,31.91 42.5,42.653 17.688,10.699 36.481,16.097 56.399,16.097 52.191,0 93.211,-19.609 123.129,-58.75 29.883,-39.07 44.84,-91.961 44.84,-158.597 z M 977.5,519.699 c 0,64.449 -12.301,125.231 -36.879,182.34 -24.492,57.07 -57.812,106.723 -100,148.91 -42.18,42.18 -91.871,75.5 -149.062,100 -57.11,24.571 -117.809,36.871 -182.18,36.871 -64.379,0 -125.16,-12.3 -182.348,-36.871 -57.109,-24.5 -106.722,-57.82 -148.91,-100 C 136.02,808.762 102.699,759.109 78.1211,702.039 53.6289,644.93 41.4102,584.148 41.4102,519.699 41.4102,455.32 53.6289,394.539 78.1211,337.352 102.699,280.238 136.02,230.629 178.121,188.449 220.309,146.379 269.922,113.09 327.031,88.6016 384.219,64.0313 445,51.7305 509.379,51.7305 c 64.371,0 125.07,12.3008 182.18,36.8711 57.191,24.4884 106.882,57.7774 149.062,99.8474 42.188,42.18 75.508,91.789 100,148.903 24.578,57.187 36.879,117.968 36.879,182.347 z m 41.41,0 c 0,-70.551 -13.44,-136.679 -40.32,-198.437 C 951.719,259.578 915.23,205.789 869.219,159.852 823.281,113.84 769.41,77.4297 707.66,50.6289 645.98,23.7617 579.879,10.3203 509.379,10.3203 c -70.551,0 -136.68,13.4414 -198.438,40.3086 C 249.262,77.4297 195.391,113.84 149.379,159.852 103.441,205.789 67.0313,259.578 40.1602,321.262 13.3594,383.02 0,449.148 0,519.699 c 0,70.5 13.3594,136.602 40.1602,198.281 26.8711,61.75 63.2808,115.661 109.2188,161.719 46.012,46.012 99.883,82.422 161.562,109.211 61.758,26.88 127.887,40.32 198.438,40.32 70.5,0 136.601,-13.44 198.281,-40.32 61.75,-26.789 115.621,-63.199 161.559,-109.211 46.011,-46.058 82.5,-99.969 109.371,-161.719 26.88,-61.679 40.32,-127.781 40.32,-198.281 z"
         inkscape:connector-curvature="0"
         id="path14"
         style="fill:#000000;fill-opacity:1;fill-rule:nonzero;stroke:none" /></g></g></svg>