<?xml version="1.0" encoding="UTF-8" standalone="no"?>
<!-- Created with Inkscape (http://www.inkscape.org/) -->

<svg
   xmlns:dc="http://purl.org/dc/elements/1.1/"
   xmlns:cc="http://creativecommons.org/ns#"
   xmlns:rdf="http://www.w3.org/1999/02/22-rdf-syntax-ns#"
   xmlns:svg="http://www.w3.org/2000/svg"
   xmlns="http://www.w3.org/2000/svg"
   xmlns:inkscape="http://www.inkscape.org/namespaces/inkscape"
   version="1.1"
   width="136.25"
   height="137.5"
   id="svg2"
   xml:space="preserve"><metadata
     id="metadata8"><rdf:RDF><cc:Work
         rdf:about=""><dc:format>image/svg+xml</dc:format><dc:type
           rdf:resource="http://purl.org/dc/dcmitype/StillImage" /></cc:Work></rdf:RDF></metadata><defs
     id="defs6" /><g
     transform="matrix(1.25,0,0,-1.25,0,137.5)"
     id="g10"><g
       transform="scale(0.1,0.1)"
       id="g12"><path
         d="m 352.031,909.211 83.59,0 0,-477.34 65.789,0 0,-70.16 -65.789,0 0,-163.441 -73.43,0 0,163.441 -220.781,0 0,70.16 210.621,477.34 z m 10.16,-142.66 -146.101,-334.68 146.101,0 0,334.68 z m 432.34,-26.403 c -3.441,70.704 -23.281,106.09 -59.531,106.09 -61.801,0 -95.699,-93.976 -101.719,-281.867 30,50.508 66.489,75.777 109.528,75.777 46.019,0 82.742,-22.269 110.16,-66.718 C 877.66,534.879 890,485.07 890,424.051 890,355.191 877.23,299.988 851.719,258.43 823.98,210.809 783.789,187.02 731.09,187.02 c -116.481,0 -174.68,115.511 -174.68,346.57 0,258.199 59.531,387.34 178.59,387.34 86.02,0 133.199,-60.27 141.559,-180.782 l -82.028,0 z m -66.25,-171.25 c -56.172,0 -84.222,-48.668 -84.222,-145.937 0,-108.242 29.57,-162.34 88.75,-162.34 51.25,0 76.882,52.578 76.882,157.809 0,100.308 -27.152,150.468 -81.41,150.468 z M 546.25,1097.8 c 86.871,0 170.352,-21.52 250.469,-64.53 71.562,-38.551 132.031,-90.579 181.402,-156.09 73.009,-98.442 109.539,-206.641 109.539,-324.532 0,-87.617 -21.57,-171.488 -64.69,-251.558 C 983.359,227.648 931.328,167.18 866.879,119.68 768.441,46.6719 660.469,10.1484 542.969,10.1484 451.602,10.1484 366.02,32.4492 286.25,77.0195 214.379,116.711 154.102,169.449 105.469,235.301 35.1602,331.551 0,438.27 0,555.461 0,727.648 70.1602,868.941 210.469,979.371 308.59,1058.31 420.512,1097.8 546.25,1097.8 z m -5,-52.81 c -75.941,0 -149.141,-18.36 -219.531,-55.002 C 256.172,956.629 200.98,910.621 156.09,851.871 87.1094,763.199 52.6602,663.469 52.6602,552.648 c 0,-76.796 18.3593,-150.386 55.1488,-220.777 33.32,-65.43 79.382,-120.633 138.132,-165.633 C 334.57,97.4102 434.301,62.9609 545.16,62.9609 c 76.75,0 150.352,18.3594 220.781,55.0001 65.387,33.32 120.618,79.379 165.618,138.129 68.831,88.75 103.281,188.16 103.281,298.281 0,153.828 -61.789,280.93 -185.309,381.25 -91.371,72.889 -194.14,109.369 -308.281,109.369 z"
         inkscape:connector-curvature="0"
         id="path14"
         style="fill:#000000;fill-opacity:1;fill-rule:nonzero;stroke:none" /></g></g></svg>