<?xml version="1.0" encoding="UTF-8" standalone="no"?>
<!-- Created with Inkscape (http://www.inkscape.org/) -->

<svg
   xmlns:dc="http://purl.org/dc/elements/1.1/"
   xmlns:cc="http://creativecommons.org/ns#"
   xmlns:rdf="http://www.w3.org/1999/02/22-rdf-syntax-ns#"
   xmlns:svg="http://www.w3.org/2000/svg"
   xmlns="http://www.w3.org/2000/svg"
   xmlns:inkscape="http://www.inkscape.org/namespaces/inkscape"
   version="1.1"
   width="136.25"
   height="137.5"
   id="svg2"
   xml:space="preserve"><metadata
     id="metadata8"><rdf:RDF><cc:Work
         rdf:about=""><dc:format>image/svg+xml</dc:format><dc:type
           rdf:resource="http://purl.org/dc/dcmitype/StillImage" /></cc:Work></rdf:RDF></metadata><defs
     id="defs6" /><g
     transform="matrix(1.25,0,0,-1.25,0,137.5)"
     id="g10"><g
       transform="scale(0.1,0.1)"
       id="g12"><path
         d="m 227.969,909.211 249.222,0 0,-75.781 -184.07,0 -12.34,-216.25 c 25.821,32.89 58.36,49.371 97.66,49.371 47.887,0 83.829,-25.27 107.809,-75.781 17.578,-38.981 26.41,-87.61 26.41,-145.93 0,-171.879 -52.43,-257.82 -157.191,-257.82 -50.239,0 -89.77,23.011 -118.59,69.07 -20.238,32.18 -32,73.941 -35.32,125.308 l 80.32,0 c 3.32,-80.546 27.851,-120.777 73.59,-120.777 51.25,0 76.871,61.399 76.871,184.219 0,102.5 -23.82,153.75 -71.399,153.75 -34.812,0 -64.179,-26.02 -88.132,-77.969 l -61.09,17.34 16.25,371.25 z m 512.652,11.719 c 111.879,0 167.82,-123.91 167.82,-371.719 C 908.441,307.73 852.5,187.02 740.621,187.02 630.199,187.02 575,309.84 575,555.461 575,799.09 630.199,920.93 740.621,920.93 z m 1.098,-77.969 c -56.879,0 -85.309,-97.582 -85.309,-292.66 0,-190.11 28.43,-285.153 85.309,-285.153 56.871,0 85.312,95.821 85.312,287.5 0,193.512 -28.441,290.313 -85.312,290.313 z M 546.25,1097.8 c 86.871,0 170.352,-21.52 250.469,-64.53 71.562,-38.551 132.031,-90.579 181.402,-156.09 73.009,-98.442 109.539,-206.641 109.539,-324.532 0,-87.617 -21.57,-171.488 -64.69,-251.558 C 983.359,227.648 931.328,167.18 866.879,119.68 768.441,46.6719 660.469,10.1484 542.969,10.1484 451.602,10.1484 366.02,32.4492 286.25,77.0195 214.379,116.711 154.102,169.449 105.469,235.301 35.1602,331.551 0,438.27 0,555.461 0,727.648 70.1602,868.941 210.469,979.371 308.59,1058.31 420.512,1097.8 546.25,1097.8 z m -5,-52.81 c -75.941,0 -149.141,-18.36 -219.531,-55.002 C 256.172,956.629 200.98,910.621 156.09,851.871 87.1094,763.199 52.6602,663.469 52.6602,552.648 c 0,-76.796 18.3593,-150.386 55.1488,-220.777 33.32,-65.43 79.382,-120.633 138.132,-165.633 C 334.57,97.4102 434.301,62.9609 545.16,62.9609 c 76.75,0 150.352,18.3594 220.781,55.0001 65.387,33.32 120.618,79.379 165.618,138.129 68.831,88.75 103.281,188.16 103.281,298.281 0,153.828 -61.789,280.93 -185.309,381.25 -91.371,72.889 -194.14,109.369 -308.281,109.369 z"
         inkscape:connector-curvature="0"
         id="path14"
         style="fill:#000000;fill-opacity:1;fill-rule:nonzero;stroke:none" /></g></g></svg>