<?xml version="1.0" encoding="UTF-8" standalone="no"?>
<!-- Created with Inkscape (http://www.inkscape.org/) -->

<svg
   xmlns:dc="http://purl.org/dc/elements/1.1/"
   xmlns:cc="http://creativecommons.org/ns#"
   xmlns:rdf="http://www.w3.org/1999/02/22-rdf-syntax-ns#"
   xmlns:svg="http://www.w3.org/2000/svg"
   xmlns="http://www.w3.org/2000/svg"
   xmlns:inkscape="http://www.inkscape.org/namespaces/inkscape"
   version="1.1"
   width="127.5"
   height="130"
   id="svg2"
   xml:space="preserve"><metadata
     id="metadata8"><rdf:RDF><cc:Work
         rdf:about=""><dc:format>image/svg+xml</dc:format><dc:type
           rdf:resource="http://purl.org/dc/dcmitype/StillImage" /></cc:Work></rdf:RDF></metadata><defs
     id="defs6" /><g
     transform="matrix(1.25,0,0,-1.25,0,130)"
     id="g10"><g
       transform="scale(0.1,0.1)"
       id="g12"><path
         d="m 757.809,423.129 0,328.91 -186.25,-328.91 186.25,0 z M 523.281,224.23 l -335.941,0 c 3.129,34.45 9.609,64.719 19.539,90.782 10,26.129 23,50.078 39.062,71.867 16.129,21.883 34.918,42.543 56.399,62.031 21.449,19.57 45.629,40.512 72.5,62.82 31.449,25.309 55.199,50.54 71.25,75.782 16.14,25.308 24.219,56.758 24.219,94.367 0,39.891 -9.61,70.711 -28.75,92.5 -19.18,21.883 -46.399,32.82 -81.719,32.82 -19.918,0 -36.949,-4.609 -51.09,-13.75 -14.18,-9.179 -25.699,-21.648 -34.531,-37.347 -8.867,-15.743 -15.43,-33.981 -19.688,-54.692 -4.179,-20.621 -6.25,-42.109 -6.25,-64.371 l -52.812,0 c 0,31.441 3.633,60.551 10.941,87.34 7.262,26.883 18,50.043 32.18,69.531 14.14,19.57 31.609,34.731 52.351,45.469 20.7,10.711 44.45,16.101 71.25,16.101 23.008,0 44.258,-3.871 63.75,-11.57 19.571,-7.609 36.637,-18.898 51.25,-33.898 14.571,-14.922 25.86,-33.09 33.899,-54.532 8.129,-21.492 12.191,-46.019 12.191,-73.601 0,-26.051 -3.672,-49.449 -10.941,-70.149 -7.301,-20.75 -16.871,-39.929 -28.75,-57.5 -11.871,-17.621 -25.699,-33.71 -41.399,-48.281 -15.742,-14.609 -31.679,-28.75 -47.812,-42.5 -39.07,-32.187 -72.039,-63.679 -98.91,-94.379 -26.797,-30.621 -42.5,-62.031 -47.188,-94.218 l 275,0 0,-50.622 z m 354.059,147.18 -71.25,0 0,-149.531 -48.281,0 0,149.531 -235.778,0 0,51.719 234.688,420.941 49.371,0 0,-420.941 71.25,0 0,-51.719 z M 977.5,519.699 c 0,64.449 -12.301,125.231 -36.879,182.34 -24.492,57.07 -57.812,106.723 -100,148.91 -42.18,42.18 -91.871,75.5 -149.062,100 -57.11,24.571 -117.809,36.871 -182.18,36.871 -64.379,0 -125.16,-12.3 -182.348,-36.871 -57.109,-24.5 -106.722,-57.82 -148.91,-100 C 136.02,808.762 102.699,759.109 78.1211,702.039 53.6289,644.93 41.4102,584.148 41.4102,519.699 41.4102,455.32 53.6289,394.539 78.1211,337.352 102.699,280.238 136.02,230.629 178.121,188.449 220.309,146.379 269.922,113.09 327.031,88.6016 384.219,64.0313 445,51.7305 509.379,51.7305 c 64.371,0 125.07,12.3008 182.18,36.8711 57.191,24.4884 106.882,57.7774 149.062,99.8474 42.188,42.18 75.508,91.789 100,148.903 24.578,57.187 36.879,117.968 36.879,182.347 z m 41.41,0 c 0,-70.551 -13.44,-136.679 -40.32,-198.437 C 951.719,259.578 915.23,205.789 869.219,159.852 823.281,113.84 769.41,77.4297 707.66,50.6289 645.98,23.7617 579.879,10.3203 509.379,10.3203 c -70.551,0 -136.68,13.4414 -198.438,40.3086 C 249.262,77.4297 195.391,113.84 149.379,159.852 103.441,205.789 67.0313,259.578 40.1602,321.262 13.3594,383.02 0,449.148 0,519.699 c 0,70.5 13.3594,136.602 40.1602,198.281 26.8711,61.75 63.2808,115.661 109.2188,161.719 46.012,46.012 99.883,82.422 161.562,109.211 61.758,26.88 127.887,40.32 198.438,40.32 70.5,0 136.601,-13.44 198.281,-40.32 61.75,-26.789 115.621,-63.199 161.559,-109.211 46.011,-46.058 82.5,-99.969 109.371,-161.719 26.88,-61.679 40.32,-127.781 40.32,-198.281 z"
         inkscape:connector-curvature="0"
         id="path14"
         style="fill:#000000;fill-opacity:1;fill-rule:nonzero;stroke:none" /></g></g></svg>