<?xml version="1.0" encoding="UTF-8" standalone="no"?>
<!-- Created with Inkscape (http://www.inkscape.org/) -->

<svg
   xmlns:dc="http://purl.org/dc/elements/1.1/"
   xmlns:cc="http://creativecommons.org/ns#"
   xmlns:rdf="http://www.w3.org/1999/02/22-rdf-syntax-ns#"
   xmlns:svg="http://www.w3.org/2000/svg"
   xmlns="http://www.w3.org/2000/svg"
   xmlns:inkscape="http://www.inkscape.org/namespaces/inkscape"
   version="1.1"
   width="136.25"
   height="137.5"
   id="svg2"
   xml:space="preserve"><metadata
     id="metadata8"><rdf:RDF><cc:Work
         rdf:about=""><dc:format>image/svg+xml</dc:format><dc:type
           rdf:resource="http://purl.org/dc/dcmitype/StillImage" /></cc:Work></rdf:RDF></metadata><defs
     id="defs6" /><g
     transform="matrix(1.25,0,0,-1.25,0,137.5)"
     id="g10"><g
       transform="scale(0.1,0.1)"
       id="g12"><path
         d="m 291.879,611.551 39.371,0 c 25.078,0 45.859,11.41 62.34,34.219 18.32,24.378 27.5,58.281 27.5,101.718 0,66.563 -22.301,99.852 -66.871,99.852 -47.93,0 -72.418,-38.711 -73.438,-116.102 l -78.75,0 c 4.879,126.453 56.02,189.692 153.438,189.692 96.562,0 144.84,-58.59 144.84,-175.782 0,-83.867 -36.52,-139.058 -109.528,-165.628 81.25,-21.68 121.879,-83.821 121.879,-186.399 0,-137.422 -53.359,-206.101 -160,-206.101 -104.5,0 -158.398,69.851 -161.719,209.531 l 80.149,0 c 1.14,-90.621 28.48,-135.93 82.031,-135.93 52.82,0 79.219,43.789 79.219,131.399 0,97.269 -31.481,145.941 -94.371,145.941 l -46.09,0 0,73.59 z m 307.18,297.66 249.382,0 0,-75.781 -184.222,0 -12.34,-216.25 c 25.82,32.89 58.351,49.371 97.652,49.371 47.578,0 83.52,-25.27 107.809,-75.781 17.582,-38.981 26.41,-87.61 26.41,-145.93 0,-171.879 -52.422,-257.82 -157.191,-257.82 -50.231,0 -89.68,23.011 -118.438,69.07 -20.23,32.18 -32.18,73.941 -35.93,125.308 l 80.778,0 c 3.441,-80.546 27.972,-120.777 73.59,-120.777 51.25,0 76.882,61.399 76.882,184.219 0,102.5 -23.75,153.75 -71.25,153.75 -34.812,0 -64.382,-26.02 -88.75,-77.969 l -60.632,17.34 16.25,371.25 z M 546.25,1097.8 c 86.871,0 170.352,-21.52 250.469,-64.53 71.562,-38.551 132.031,-90.579 181.402,-156.09 73.009,-98.442 109.539,-206.641 109.539,-324.532 0,-87.617 -21.57,-171.488 -64.69,-251.558 C 983.359,227.648 931.328,167.18 866.879,119.68 768.441,46.6719 660.469,10.1484 542.969,10.1484 451.602,10.1484 366.02,32.4492 286.25,77.0195 214.379,116.711 154.102,169.449 105.469,235.301 35.1602,331.551 0,438.27 0,555.461 0,727.648 70.1602,868.941 210.469,979.371 308.59,1058.31 420.512,1097.8 546.25,1097.8 z m -5,-52.81 c -75.941,0 -149.141,-18.36 -219.531,-55.002 C 256.172,956.629 200.98,910.621 156.09,851.871 87.1094,763.199 52.6602,663.469 52.6602,552.648 c 0,-76.796 18.3593,-150.386 55.1488,-220.777 33.32,-65.43 79.382,-120.633 138.132,-165.633 C 334.57,97.4102 434.301,62.9609 545.16,62.9609 c 76.75,0 150.352,18.3594 220.781,55.0001 65.387,33.32 120.618,79.379 165.618,138.129 68.831,88.75 103.281,188.16 103.281,298.281 0,153.828 -61.789,280.93 -185.309,381.25 -91.371,72.889 -194.14,109.369 -308.281,109.369 z"
         inkscape:connector-curvature="0"
         id="path14"
         style="fill:#000000;fill-opacity:1;fill-rule:nonzero;stroke:none" /></g></g></svg>