<?xml version="1.0" encoding="UTF-8" standalone="no"?>
<!-- Created with Inkscape (http://www.inkscape.org/) -->

<svg
   xmlns:dc="http://purl.org/dc/elements/1.1/"
   xmlns:cc="http://creativecommons.org/ns#"
   xmlns:rdf="http://www.w3.org/1999/02/22-rdf-syntax-ns#"
   xmlns:svg="http://www.w3.org/2000/svg"
   xmlns="http://www.w3.org/2000/svg"
   xmlns:inkscape="http://www.inkscape.org/namespaces/inkscape"
   version="1.1"
   width="127.5"
   height="130"
   id="svg2"
   xml:space="preserve"><metadata
     id="metadata8"><rdf:RDF><cc:Work
         rdf:about=""><dc:format>image/svg+xml</dc:format><dc:type
           rdf:resource="http://purl.org/dc/dcmitype/StillImage" /></cc:Work></rdf:RDF></metadata><defs
     id="defs6" /><g
     transform="matrix(1.25,0,0,-1.25,0,130)"
     id="g10"><g
       transform="scale(0.1,0.1)"
       id="g12"><path
         d="m 834.84,519.699 c 0,37.571 -2.141,72.692 -6.399,105.313 -4.179,32.578 -11.25,60.937 -21.25,85 -9.921,24.136 -22.582,43.316 -37.972,57.5 -15.309,14.258 -34.059,21.398 -56.25,21.398 -23.047,0 -42.418,-7.14 -58.129,-21.398 -15.738,-14.184 -28.391,-33.364 -37.961,-57.5 -9.609,-24.063 -16.68,-52.422 -21.258,-85 -4.601,-32.621 -6.871,-67.742 -6.871,-105.313 0,-37.5 2.27,-72.578 6.871,-105.16 4.578,-32.617 11.649,-61.019 21.258,-85.16 9.57,-24.18 22.223,-43.199 37.961,-57.027 15.711,-13.75 35.082,-20.622 58.129,-20.622 22.191,0 40.941,6.872 56.25,20.622 15.39,13.828 28.051,32.847 37.972,57.027 10,24.141 17.071,52.543 21.25,85.16 4.258,32.582 6.399,67.66 6.399,105.16 z M 512.809,385.16 c 0,-31.48 -5,-58.711 -15,-81.711 -9.918,-22.929 -23.118,-42.269 -39.688,-57.969 -16.48,-15.75 -35.422,-27.46 -56.871,-35.16 -21.48,-7.621 -44.059,-11.41 -67.809,-11.41 -25.32,0 -48.711,4.57 -70.16,13.75 -21.48,9.262 -40.269,22.699 -56.402,40.32 -16.059,17.571 -28.52,39.411 -37.348,65.469 -8.75,26.129 -12.769,56.442 -12.031,90.93 l 52.969,0 c -0.86,-51.359 10.23,-91.25 33.281,-119.68 23.012,-28.359 52.891,-42.5 89.691,-42.5 37.579,0 67.848,11.871 90.778,35.621 23.011,23.75 34.531,57.852 34.531,102.34 0,42.192 -10.738,74.219 -32.191,96.102 -21.481,21.867 -49.45,32.808 -83.899,32.808 l -39.07,0 0,51.719 39.07,0 c 12.262,0 24.371,2.422 36.25,7.34 11.871,5 22.379,12.5 31.559,22.5 9.261,10 16.761,22.07 22.5,36.25 5.703,14.141 8.59,30.473 8.59,48.91 0,32.891 -8.668,60.082 -25.938,81.563 -17.18,21.449 -44.211,32.187 -81.09,32.187 -35.941,0 -63.511,-14.961 -82.652,-44.84 -19.18,-29.929 -29.539,-66.679 -31.098,-110.32 l -50.621,0 c -0.75,29.07 2.891,56.019 10.93,80.941 8.012,25 19.109,46.481 33.289,64.532 14.25,18.007 31.562,32.187 51.871,42.5 20.309,10.386 42.699,15.628 67.191,15.628 49.059,0 88.161,-14.609 117.34,-43.75 29.141,-29.179 43.75,-68.679 43.75,-118.441 0,-35.309 -8.871,-65.078 -26.562,-89.219 -17.617,-24.058 -38.707,-40.308 -63.278,-48.75 33.75,-7.73 60.188,-24.648 79.368,-50.781 19.14,-26.059 28.75,-61.68 28.75,-106.879 z m 373.75,134.539 c 0,-48.25 -3.668,-91.961 -10.938,-131.097 -7.301,-39.063 -18.242,-72.422 -32.812,-100 C 828.32,260.98 810.16,239.699 788.281,224.699 766.41,209.77 741.289,202.352 712.969,202.352 c -29.918,0 -55.778,7.418 -77.66,22.347 -21.868,15 -40.11,36.281 -54.688,63.903 -14.492,27.578 -25.391,60.699 -32.652,99.378 -7.309,38.75 -10.938,82.258 -10.938,130.622 0,49.058 3.629,93.32 10.938,132.808 7.261,39.461 18.16,73.012 32.652,100.629 14.578,27.582 32.82,48.832 54.688,63.75 21.882,15 47.742,22.5 77.66,22.5 28.32,0 53.441,-7.5 75.312,-22.5 21.879,-14.918 40.039,-36.168 54.528,-63.75 14.57,-27.617 25.511,-61.168 32.812,-100.629 7.27,-39.488 10.938,-83.39 10.938,-131.711 z m 90.941,0 c 0,64.449 -12.301,125.231 -36.879,182.34 -24.492,57.07 -57.812,106.723 -100,148.91 -42.18,42.18 -91.871,75.5 -149.062,100 -57.11,24.571 -117.809,36.871 -182.18,36.871 -64.379,0 -125.16,-12.3 -182.348,-36.871 -57.109,-24.5 -106.722,-57.82 -148.91,-100 C 136.02,808.762 102.699,759.109 78.1211,702.039 53.6289,644.93 41.4102,584.148 41.4102,519.699 41.4102,455.32 53.6289,394.539 78.1211,337.352 102.699,280.238 136.02,230.629 178.121,188.449 220.309,146.379 269.922,113.09 327.031,88.6016 384.219,64.0313 445,51.7305 509.379,51.7305 c 64.371,0 125.07,12.3008 182.18,36.8711 57.191,24.4884 106.882,57.7774 149.062,99.8474 42.188,42.18 75.508,91.789 100,148.903 24.578,57.187 36.879,117.968 36.879,182.347 z m 41.41,0 c 0,-70.551 -13.44,-136.679 -40.32,-198.437 C 951.719,259.578 915.23,205.789 869.219,159.852 823.281,113.84 769.262,77.4297 707.191,50.6289 645.078,23.7617 579.141,10.3203 509.379,10.3203 c -70.551,0 -136.68,13.4414 -198.438,40.3086 C 249.262,77.4297 195.391,113.84 149.379,159.852 103.441,205.789 67.0313,259.578 40.1602,321.262 13.3594,383.02 0,449.148 0,519.699 c 0,70.5 13.3594,136.602 40.1602,198.281 26.8711,61.75 63.2808,115.661 109.2188,161.719 46.012,46.012 99.883,82.422 161.562,109.211 61.758,26.88 127.887,40.32 198.438,40.32 69.762,0 135.699,-13.44 197.812,-40.32 62.071,-26.789 116.09,-63.199 162.028,-109.211 46.011,-46.058 82.5,-99.969 109.371,-161.719 26.88,-61.679 40.32,-127.781 40.32,-198.281 z"
         inkscape:connector-curvature="0"
         id="path14"
         style="fill:#000000;fill-opacity:1;fill-rule:nonzero;stroke:none" /></g></g></svg>