<?xml version="1.0" encoding="UTF-8" standalone="no"?>
<!-- Created with Inkscape (http://www.inkscape.org/) -->

<svg
   xmlns:dc="http://purl.org/dc/elements/1.1/"
   xmlns:cc="http://creativecommons.org/ns#"
   xmlns:rdf="http://www.w3.org/1999/02/22-rdf-syntax-ns#"
   xmlns:svg="http://www.w3.org/2000/svg"
   xmlns="http://www.w3.org/2000/svg"
   xmlns:inkscape="http://www.inkscape.org/namespaces/inkscape"
   version="1.1"
   width="127.5"
   height="130"
   id="svg2"
   xml:space="preserve"><metadata
     id="metadata8"><rdf:RDF><cc:Work
         rdf:about=""><dc:format>image/svg+xml</dc:format><dc:type
           rdf:resource="http://purl.org/dc/dcmitype/StillImage" /></cc:Work></rdf:RDF></metadata><defs
     id="defs6" /><g
     transform="matrix(1.25,0,0,-1.25,0,130)"
     id="g10"><g
       transform="scale(0.1,0.1)"
       id="g12"><path
         d="m 815.309,642.82 c 0,21.45 -2.5,41.91 -7.5,61.41 -5,19.571 -12.5,36.79 -22.5,51.719 -9.918,15 -22.149,26.91 -36.719,35.781 -14.61,8.821 -31.481,13.282 -50.621,13.282 -18.36,0 -34.649,-4.461 -48.91,-13.282 -14.18,-8.871 -26.047,-20.781 -35.618,-35.781 -9.613,-14.929 -16.882,-32.308 -21.882,-52.187 -4.918,-19.922 -7.34,-40.59 -7.34,-62.032 0,-49.179 9.922,-88.519 29.84,-117.968 19.89,-29.492 47.851,-44.223 83.91,-44.223 36.011,0 64.57,15.082 85.621,45.313 21.14,30.308 31.719,69.609 31.719,117.968 z M 504.84,678.449 c 0,-25.32 -3.512,-48.558 -10.461,-69.687 -6.879,-21.063 -16.098,-40.242 -27.66,-57.5 -11.489,-17.192 -24.688,-33.09 -39.688,-47.66 -14.922,-14.614 -30.39,-28.75 -46.41,-42.5 -39.062,-32.192 -71.672,-63.832 -97.812,-94.84 -26.047,-31.063 -41.008,-62.66 -44.84,-94.852 l 263.441,0 0,-50.621 -323.129,0 c 2.27,34.449 8.199,64.731 17.809,90.781 9.57,26.02 22.191,50 37.82,71.879 15.699,21.871 34.102,42.531 55.149,62.031 21.14,19.571 44.73,40.5 70.781,62.809 30.711,25.313 53.75,50.551 69.07,75.781 15.309,25.309 22.969,57.11 22.969,95.469 0,39.141 -9.219,69.84 -27.66,92.031 -18.36,22.27 -44.77,33.442 -79.219,33.442 -19.18,0 -35.469,-4.653 -48.91,-13.91 -13.43,-9.18 -24.61,-21.641 -33.43,-37.34 -8.75,-15.742 -15.281,-33.992 -19.539,-54.692 -4.172,-20.621 -6.242,-42.461 -6.242,-65.468 l -51.719,0 c 0,31.449 3.629,60.546 10.93,87.347 7.269,26.871 17.82,50.031 31.57,69.531 13.75,19.571 30.539,34.719 50.461,45.469 20,10.699 43.008,16.09 69.07,16.09 22.258,0 43.008,-3.867 62.188,-11.559 19.141,-7.621 35.82,-18.91 50,-33.91 14.141,-14.922 25.23,-33.09 33.281,-54.531 8.121,-21.488 12.18,-46.019 12.18,-73.59 z m 372.5,-147.187 c 0,-98.871 -15.539,-177.032 -46.559,-234.532 -31.051,-57.5 -75.312,-86.25 -132.812,-86.25 -45.938,0 -82.348,14.532 -109.219,43.59 -26.871,29.141 -42.191,68.282 -45.941,117.34 l 51.722,0 c 2.27,-32.18 12.578,-58.859 30.938,-80 18.441,-21.051 42.582,-31.558 72.5,-31.558 22.261,0 41.25,6.488 56.871,19.527 15.711,13.012 28.601,31.762 38.601,56.25 10,24.57 17.258,53.91 21.868,87.973 4.57,34.136 6.882,72.699 6.882,115.628 -6.882,-29.07 -21.062,-54.339 -42.5,-75.781 -21.492,-21.488 -48.711,-32.187 -81.722,-32.187 -49.809,0 -89.649,18.59 -119.528,55.777 -29.921,37.191 -44.851,88.75 -44.851,154.691 0,30.622 3.789,58.942 11.41,85 7.699,26.008 18.828,48.43 33.441,67.18 14.571,18.828 32.028,33.442 52.34,43.75 20.309,10.391 42.699,15.629 67.188,15.629 27.582,0 52.5,-5.777 74.691,-17.34 22.262,-11.488 41.09,-29.847 56.399,-55.16 15.32,-25.309 27.191,-58.519 35.632,-99.527 8.43,-40.942 12.649,-90.942 12.649,-150 z M 977.5,519.699 c 0,64.449 -12.301,125.231 -36.879,182.34 -24.492,57.07 -57.812,106.723 -100,148.91 -42.18,42.18 -91.871,75.5 -149.062,100 -57.11,24.571 -117.809,36.871 -182.18,36.871 -64.379,0 -125.16,-12.3 -182.348,-36.871 -57.109,-24.5 -106.722,-57.82 -148.91,-100 C 136.02,808.762 102.699,759.109 78.1211,702.039 53.6289,644.93 41.4102,584.148 41.4102,519.699 41.4102,455.32 53.6289,394.539 78.1211,337.352 102.699,280.238 136.02,230.629 178.121,188.449 220.309,146.379 269.922,113.09 327.031,88.6016 384.219,64.0313 445,51.7305 509.379,51.7305 c 64.371,0 125.07,12.3008 182.18,36.8711 57.191,24.4884 106.882,57.7774 149.062,99.8474 42.188,42.18 75.508,91.789 100,148.903 24.578,57.187 36.879,117.968 36.879,182.347 z m 41.41,0 c 0,-70.551 -13.44,-136.679 -40.32,-198.437 C 951.719,259.578 915.23,205.789 869.219,159.852 823.281,113.84 769.41,77.4297 707.66,50.6289 645.98,23.7617 579.879,10.3203 509.379,10.3203 c -70.551,0 -136.68,13.4414 -198.438,40.3086 C 249.262,77.4297 195.391,113.84 149.379,159.852 103.441,205.789 67.0313,259.578 40.1602,321.262 13.3594,383.02 0,449.148 0,519.699 c 0,70.5 13.3594,136.602 40.1602,198.281 26.8711,61.75 63.2808,115.661 109.2188,161.719 46.012,46.012 99.883,82.422 161.562,109.211 61.758,26.88 127.887,40.32 198.438,40.32 70.5,0 136.601,-13.44 198.281,-40.32 61.75,-26.789 115.621,-63.199 161.559,-109.211 46.011,-46.058 82.5,-99.969 109.371,-161.719 26.88,-61.679 40.32,-127.781 40.32,-198.281 z"
         inkscape:connector-curvature="0"
         id="path14"
         style="fill:#000000;fill-opacity:1;fill-rule:nonzero;stroke:none" /></g></g></svg>