<?xml version="1.0" encoding="UTF-8" standalone="no"?>
<!-- Created with Inkscape (http://www.inkscape.org/) -->

<svg
   xmlns:dc="http://purl.org/dc/elements/1.1/"
   xmlns:cc="http://creativecommons.org/ns#"
   xmlns:rdf="http://www.w3.org/1999/02/22-rdf-syntax-ns#"
   xmlns:svg="http://www.w3.org/2000/svg"
   xmlns="http://www.w3.org/2000/svg"
   xmlns:inkscape="http://www.inkscape.org/namespaces/inkscape"
   version="1.1"
   width="127.5"
   height="130"
   id="svg2"
   xml:space="preserve"><metadata
     id="metadata8"><rdf:RDF><cc:Work
         rdf:about=""><dc:format>image/svg+xml</dc:format><dc:type
           rdf:resource="http://purl.org/dc/dcmitype/StillImage" /></cc:Work></rdf:RDF></metadata><defs
     id="defs6" /><g
     transform="matrix(1.25,0,0,-1.25,0,130)"
     id="g10"><g
       transform="scale(0.1,0.1)"
       id="g12"><path
         d="m 495.621,218.449 -317.34,0 c 3.008,34.449 9.098,64.922 18.278,91.403 9.261,26.449 21.562,50.628 36.882,72.5 15.309,21.878 33.278,42.539 53.899,62.027 20.711,19.57 43.75,40.473 69.07,62.66 29.141,25.313 51.399,50.621 66.711,75.941 15.32,25.309 22.969,56.321 22.969,93.122 0,39.878 -9.02,70.777 -27.031,92.66 -18.039,21.867 -44.289,32.808 -78.75,32.808 -18.36,0 -34.059,-4.648 -47.188,-13.91 -13.043,-9.18 -23.98,-21.64 -32.812,-37.34 -8.75,-15.742 -15.079,-33.75 -18.899,-54.058 -3.75,-20.313 -5.629,-41.992 -5.629,-65 l -49.531,0 c 0,31.437 3.441,60.386 10.309,86.867 6.961,26.449 17.113,49.422 30.472,68.91 13.438,19.57 29.879,34.922 49.379,46.09 19.57,11.141 42.031,16.723 67.34,16.723 21.449,0 41.41,-3.872 59.84,-11.563 18.441,-7.738 34.531,-19.059 48.289,-34.059 13.82,-14.929 24.57,-33.281 32.18,-55.16 7.703,-21.8 11.562,-46.48 11.562,-74.058 0,-25.313 -3.281,-48.364 -9.84,-69.063 -6.48,-20.629 -15.269,-39.808 -26.402,-57.5 -11.18,-17.621 -24.027,-33.719 -38.598,-48.289 -14.492,-14.609 -29.801,-28.75 -45.941,-42.5 -36.789,-32.18 -67.809,-63.43 -93.121,-93.75 -25.309,-30.308 -40.27,-61.558 -44.84,-93.75 l 258.742,0 0,-51.711 z m 376.098,173.59 c 0,-31.367 -4.809,-58.559 -14.379,-81.559 -9.61,-23.05 -22.11,-42.191 -37.5,-57.5 -15.309,-15.32 -33.36,-26.839 -54.059,-34.531 -20.621,-7.738 -41.679,-11.57 -63.121,-11.57 -24.609,0 -47.269,4.422 -67.969,13.281 -20.632,8.828 -38.441,22.07 -53.441,39.692 -14.922,17.578 -26.41,39.418 -34.531,65.468 -8.047,26.129 -11.68,56.45 -10.938,90.942 l 48.438,0 c -0.86,-51.371 9.84,-91.063 32.031,-119.063 22.27,-27.929 50.66,-41.879 85.16,-41.879 36.012,0 64.762,11.641 86.25,35 21.442,23.442 32.18,57.34 32.18,101.719 0,41.441 -10.391,73.281 -31.09,95.473 -20.629,22.258 -47.031,33.437 -79.219,33.437 l -36.871,0 0,51.711 36.871,0 c 23.75,0 45.199,9.93 64.379,29.852 19.141,20 28.75,48.359 28.75,85.148 0,32.891 -7.89,59.731 -23.601,80.469 -15.739,20.711 -40.86,31.101 -75.309,31.101 -34.488,0 -60.738,-14.609 -78.75,-43.75 -18.051,-29.179 -27.809,-65.589 -29.379,-109.218 l -49.371,0 c 0,29.136 3.629,55.968 10.941,80.468 7.258,24.571 17.809,45.86 31.559,63.899 13.828,18.012 30.352,32.191 49.531,42.5 19.141,10.32 40.629,15.473 64.379,15.473 45.93,0 82.692,-14.372 110.309,-43.122 27.582,-28.75 41.41,-68.05 41.41,-117.82 0,-35.308 -8.68,-65.07 -25.938,-89.211 -17.191,-24.07 -36.882,-40.32 -59.062,-48.75 32.18,-7.738 57.262,-24.609 75.312,-50.629 18.008,-26.05 27.028,-61.718 27.028,-107.031 z M 977.5,519.699 c 0,64.449 -12.301,125.231 -36.879,182.34 -24.492,57.07 -57.812,106.723 -100,148.91 -42.18,42.18 -91.871,75.5 -149.062,100 -57.11,24.571 -117.809,36.871 -182.18,36.871 -64.379,0 -125.16,-12.3 -182.348,-36.871 -57.109,-24.5 -106.722,-57.82 -148.91,-100 C 136.02,808.762 102.699,759.109 78.1211,702.039 53.6289,644.93 41.4102,584.148 41.4102,519.699 41.4102,455.32 53.6289,394.539 78.1211,337.352 102.699,280.238 136.02,230.629 178.121,188.449 220.309,146.379 269.922,113.09 327.031,88.6016 384.219,64.0313 445,51.7305 509.379,51.7305 c 64.371,0 125.07,12.3008 182.18,36.8711 57.191,24.4884 106.882,57.7774 149.062,99.8474 42.188,42.18 75.508,91.789 100,148.903 24.578,57.187 36.879,117.968 36.879,182.347 z m 41.41,0 c 0,-70.551 -13.44,-136.679 -40.32,-198.437 C 951.719,259.578 915.23,205.789 869.219,159.852 823.281,113.84 769.41,77.4297 707.66,50.6289 645.98,23.7617 579.879,10.3203 509.379,10.3203 c -70.551,0 -136.68,13.4414 -198.438,40.3086 C 249.262,77.4297 195.391,113.84 149.379,159.852 103.441,205.789 67.0313,259.578 40.1602,321.262 13.3594,383.02 0,449.148 0,519.699 c 0,70.5 13.3594,136.602 40.1602,198.281 26.8711,61.75 63.2808,115.661 109.2188,161.719 46.012,46.012 99.883,82.422 161.562,109.211 61.758,26.88 127.887,40.32 198.438,40.32 70.5,0 136.601,-13.44 198.281,-40.32 61.75,-26.789 115.621,-63.199 161.559,-109.211 46.011,-46.058 82.5,-99.969 109.371,-161.719 26.88,-61.679 40.32,-127.781 40.32,-198.281 z"
         inkscape:connector-curvature="0"
         id="path14"
         style="fill:#000000;fill-opacity:1;fill-rule:nonzero;stroke:none" /></g></g></svg>