<?xml version="1.0" encoding="UTF-8" standalone="no"?>
<!-- Created with Inkscape (http://www.inkscape.org/) -->

<svg
   xmlns:dc="http://purl.org/dc/elements/1.1/"
   xmlns:cc="http://creativecommons.org/ns#"
   xmlns:rdf="http://www.w3.org/1999/02/22-rdf-syntax-ns#"
   xmlns:svg="http://www.w3.org/2000/svg"
   xmlns="http://www.w3.org/2000/svg"
   xmlns:inkscape="http://www.inkscape.org/namespaces/inkscape"
   version="1.1"
   width="136.25"
   height="137.5"
   id="svg2"
   xml:space="preserve"><metadata
     id="metadata8"><rdf:RDF><cc:Work
         rdf:about=""><dc:format>image/svg+xml</dc:format><dc:type
           rdf:resource="http://purl.org/dc/dcmitype/StillImage" /></cc:Work></rdf:RDF></metadata><defs
     id="defs6" /><g
     transform="matrix(1.25,0,0,-1.25,0,137.5)"
     id="g10"><g
       transform="scale(0.1,0.1)"
       id="g12"><path
         d="m 350.941,909.211 83.59,0 0,-477.34 65.778,0 0,-70.16 -65.778,0 0,-163.441 -73.59,0 0,163.441 -220.632,0 0,70.16 210.632,477.34 z m 10,-142.66 L 215,431.871 l 145.941,0 0,334.68 z m 234.84,142.66 249.219,0 0,-75.781 -184.059,0 -12.5,-216.25 c 26.25,32.89 58.829,49.371 97.809,49.371 47.5,0 83.441,-25.27 107.809,-75.781 17.582,-38.981 26.41,-87.61 26.41,-145.93 0,-171.879 -52.457,-257.82 -157.348,-257.82 -50.543,0 -90,23.011 -118.43,69.07 -20.242,32.18 -32.191,73.941 -35.941,125.308 l 80.941,0 c 3.321,-80.546 27.809,-120.777 73.43,-120.777 51.328,0 77.039,61.399 77.039,184.219 0,102.5 -23.832,153.75 -71.41,153.75 -34.801,0 -64.34,-26.02 -88.59,-77.969 l -60.781,17.34 16.402,371.25 z M 546.25,1097.8 c 86.871,0 170.352,-21.52 250.469,-64.53 71.562,-38.551 132.031,-90.579 181.402,-156.09 73.009,-98.442 109.539,-206.641 109.539,-324.532 0,-87.617 -21.57,-171.488 -64.69,-251.558 C 983.359,227.648 931.328,167.18 866.879,119.68 768.441,46.6719 660.469,10.1484 542.969,10.1484 451.602,10.1484 366.02,32.4492 286.25,77.0195 214.379,116.711 154.102,169.449 105.469,235.301 35.1602,331.551 0,438.27 0,555.461 0,727.648 70.1602,868.941 210.469,979.371 308.59,1058.31 420.512,1097.8 546.25,1097.8 z m -5,-52.81 c -75.941,0 -149.141,-18.36 -219.531,-55.002 C 256.172,956.629 200.98,910.621 156.09,851.871 87.1094,763.199 52.6602,663.469 52.6602,552.648 c 0,-76.796 18.3593,-150.386 55.1488,-220.777 33.32,-65.43 79.382,-120.633 138.132,-165.633 C 334.57,97.4102 434.301,62.9609 545.16,62.9609 c 76.75,0 150.352,18.3594 220.781,55.0001 65.387,33.32 120.618,79.379 165.618,138.129 68.831,88.75 103.281,188.16 103.281,298.281 0,153.828 -61.789,280.93 -185.309,381.25 -91.371,72.889 -194.14,109.369 -308.281,109.369 z"
         inkscape:connector-curvature="0"
         id="path14"
         style="fill:#000000;fill-opacity:1;fill-rule:nonzero;stroke:none" /></g></g></svg>