<?xml version="1.0" encoding="UTF-8" standalone="no"?>
<!-- Created with Inkscape (http://www.inkscape.org/) -->

<svg
   xmlns:dc="http://purl.org/dc/elements/1.1/"
   xmlns:cc="http://creativecommons.org/ns#"
   xmlns:rdf="http://www.w3.org/1999/02/22-rdf-syntax-ns#"
   xmlns:svg="http://www.w3.org/2000/svg"
   xmlns="http://www.w3.org/2000/svg"
   xmlns:inkscape="http://www.inkscape.org/namespaces/inkscape"
   version="1.1"
   width="136.25"
   height="137.5"
   id="svg2"
   xml:space="preserve"><metadata
     id="metadata8"><rdf:RDF><cc:Work
         rdf:about=""><dc:format>image/svg+xml</dc:format><dc:type
           rdf:resource="http://purl.org/dc/dcmitype/StillImage" /></cc:Work></rdf:RDF></metadata><defs
     id="defs6" /><g
     transform="matrix(1.25,0,0,-1.25,0,137.5)"
     id="g10"><g
       transform="scale(0.1,0.1)"
       id="g12"><path
         d="m 362.66,909.801 83.75,0 0,-477.352 65.149,0 0,-70.148 -65.149,0 0,-163.442 -73.601,0 0,163.442 -221.25,0 0,70.148 211.101,477.352 z m 10.149,-142.66 -146.559,-334.692 146.559,0 0,334.692 z M 546.25,1097.92 c 86.871,0 170.352,-21.56 250.469,-64.69 71.562,-38.55 132.031,-90.582 181.402,-156.089 73.009,-98.442 109.539,-206.641 109.539,-324.532 0,-87.621 -21.57,-171.48 -64.69,-251.558 C 983.359,227.691 931.328,167.219 866.879,119.641 768.441,46.75 660.469,10.2695 542.969,10.2695 451.602,10.2695 366.02,32.5313 286.25,76.9805 214.379,116.672 154.102,169.48 105.469,235.422 35.1602,331.238 0,437.77 0,554.949 0,727.449 70.1602,868.898 210.469,979.328 308.91,1058.39 420.82,1097.92 546.25,1097.92 z m 333.59,-899.061 -304.84,0 c 8.199,115.7 55,235.7 140.309,360 58.441,84.571 87.66,150.469 87.66,197.661 0,58.32 -21.559,87.5 -64.688,87.5 -54.301,0 -81.953,-54.848 -82.972,-164.54 l -80.309,0 c 1.02,64.77 10.941,115.36 29.691,151.719 31.008,59.891 75.539,89.852 133.59,89.852 96.641,0 145,-54.141 145,-162.352 0,-64.371 -36.871,-148.238 -110.621,-251.558 -52.82,-74.922 -88.051,-151.25 -105.629,-229.063 l 219.528,0 0,-72.5 c 98.832,97.692 148.281,213.942 148.281,348.75 0,153.832 -61.789,280.942 -185.309,381.25 -91.371,73.012 -193.203,109.532 -305.472,109.532 -77.809,0 -151.95,-18.36 -222.34,-55.001 C 256.172,956.75 200.98,910.73 156.09,851.98 87.1094,763.23 52.6602,663.781 52.6602,553.699 c 0,-77.5 18.3593,-151.398 55.1488,-221.719 33.32,-65.539 79.382,-120.742 138.132,-165.621 C 334.57,97.4102 434.301,62.9219 545.16,62.9219 c 124.68,0 236.25,45.3081 334.68,135.9371 z"
         inkscape:connector-curvature="0"
         id="path14"
         style="fill:#000000;fill-opacity:1;fill-rule:nonzero;stroke:none" /></g></g></svg>