<?xml version="1.0" encoding="UTF-8" standalone="no"?>
<!-- Created with Inkscape (http://www.inkscape.org/) -->

<svg
   xmlns:dc="http://purl.org/dc/elements/1.1/"
   xmlns:cc="http://creativecommons.org/ns#"
   xmlns:rdf="http://www.w3.org/1999/02/22-rdf-syntax-ns#"
   xmlns:svg="http://www.w3.org/2000/svg"
   xmlns="http://www.w3.org/2000/svg"
   xmlns:inkscape="http://www.inkscape.org/namespaces/inkscape"
   version="1.1"
   width="127.5"
   height="130"
   id="svg2"
   xml:space="preserve"><metadata
     id="metadata8"><rdf:RDF><cc:Work
         rdf:about=""><dc:format>image/svg+xml</dc:format><dc:type
           rdf:resource="http://purl.org/dc/dcmitype/StillImage" /></cc:Work></rdf:RDF></metadata><defs
     id="defs6" /><g
     transform="matrix(1.25,0,0,-1.25,0,130)"
     id="g10"><g
       transform="scale(0.1,0.1)"
       id="g12"><path
         d="m 505.941,202.352 -318.601,0 c 2.269,34.449 8.211,64.918 17.82,91.41 9.57,26.437 22.031,50.617 37.34,72.5 15.391,21.867 33.441,42.539 54.059,62.027 20.711,19.57 43.75,40.473 69.062,62.66 29.891,25.313 52.5,50.621 67.82,75.93 15.387,25.32 23.118,56.332 23.118,93.133 0,40.617 -9.02,71.867 -27.028,93.75 -18.051,21.867 -44.301,32.808 -78.75,32.808 -18.441,0 -34.371,-4.648 -47.812,-13.91 -13.438,-9.18 -24.61,-21.64 -33.438,-37.34 -8.75,-15.742 -15.082,-33.98 -18.91,-54.691 -3.859,-20.617 -5.781,-42.457 -5.781,-65.469 l -50.461,0 c 0,32.192 3.43,61.488 10.312,87.969 6.868,26.449 17.028,49.461 30.469,69.07 13.43,19.571 30.07,34.723 50,45.461 19.879,10.711 42.5,16.102 67.809,16.102 43.75,0 80.152,-15.16 109.222,-45.473 29.137,-30.309 43.75,-73.437 43.75,-129.379 0,-25.308 -3.441,-48.359 -10.32,-69.058 C 488.75,569.23 479.73,550.051 468.59,532.352 457.422,514.73 444.57,498.641 430,484.07 415.512,469.461 400.551,455.32 385.16,441.57 346.801,409.379 315.199,378.129 290.309,347.82 265.391,317.512 250.23,286.262 244.84,254.07 l 261.101,0 0,-51.718 z m 345,569.218 C 821.762,737.82 796.09,699.27 773.91,655.949 751.719,612.699 732.73,566.57 717.031,517.512 701.289,468.449 688.629,417.039 679.059,363.289 669.449,309.621 663.121,255.199 660,200.012 l -57.5,0 c 3.121,63.629 11.328,123.789 24.691,180.468 13.43,56.75 29.719,109.29 48.899,157.649 19.14,48.32 39.851,92.031 62.031,131.101 22.27,39.141 44.578,72.891 66.879,101.25 l -264.531,0 0,54.059 310.472,0 0,-52.969 z M 977.5,519.699 c 0,64.449 -12.301,125.231 -36.879,182.34 -24.492,57.07 -57.812,106.723 -100,148.91 -42.18,42.18 -91.871,75.5 -149.062,100 -57.11,24.571 -117.809,36.871 -182.18,36.871 -64.379,0 -125.16,-12.3 -182.348,-36.871 -57.109,-24.5 -106.722,-57.82 -148.91,-100 C 136.02,808.762 102.699,759.109 78.1211,702.039 53.6289,644.93 41.4102,584.148 41.4102,519.699 41.4102,455.32 53.6289,394.539 78.1211,337.352 102.699,280.238 136.02,230.629 178.121,188.449 220.309,146.379 269.922,113.09 327.031,88.6016 384.219,64.0313 445,51.7305 509.379,51.7305 c 64.371,0 125.07,12.3008 182.18,36.8711 57.191,24.4884 106.882,57.7774 149.062,99.8474 42.188,42.18 75.508,91.789 100,148.903 24.578,57.187 36.879,117.968 36.879,182.347 z m 41.41,0 c 0,-70.551 -13.44,-136.679 -40.32,-198.437 C 951.719,259.578 915.23,205.789 869.219,159.852 823.281,113.84 769.41,77.4297 707.66,50.6289 645.98,23.7617 579.879,10.3203 509.379,10.3203 c -70.551,0 -136.68,13.4414 -198.438,40.3086 C 249.262,77.4297 195.391,113.84 149.379,159.852 103.441,205.789 67.0313,259.578 40.1602,321.262 13.3594,383.02 0,449.148 0,519.699 c 0,70.5 13.3594,136.602 40.1602,198.281 26.8711,61.75 63.2808,115.661 109.2188,161.719 46.012,46.012 99.883,82.422 161.562,109.211 61.758,26.88 127.887,40.32 198.438,40.32 70.5,0 136.601,-13.44 198.281,-40.32 61.75,-26.789 115.621,-63.199 161.559,-109.211 46.011,-46.058 82.5,-99.969 109.371,-161.719 26.88,-61.679 40.32,-127.781 40.32,-198.281 z"
         inkscape:connector-curvature="0"
         id="path14"
         style="fill:#000000;fill-opacity:1;fill-rule:nonzero;stroke:none" /></g></g></svg>