<?xml version="1.0" encoding="UTF-8" standalone="no"?>
<!-- Created with Inkscape (http://www.inkscape.org/) -->

<svg
   xmlns:dc="http://purl.org/dc/elements/1.1/"
   xmlns:cc="http://creativecommons.org/ns#"
   xmlns:rdf="http://www.w3.org/1999/02/22-rdf-syntax-ns#"
   xmlns:svg="http://www.w3.org/2000/svg"
   xmlns="http://www.w3.org/2000/svg"
   xmlns:inkscape="http://www.inkscape.org/namespaces/inkscape"
   version="1.1"
   width="110"
   height="135"
   id="svg2"
   xml:space="preserve"><metadata
     id="metadata8"><rdf:RDF><cc:Work
         rdf:about=""><dc:format>image/svg+xml</dc:format><dc:type
           rdf:resource="http://purl.org/dc/dcmitype/StillImage" /></cc:Work></rdf:RDF></metadata><defs
     id="defs6" /><g
     transform="matrix(1.25,0,0,-1.25,0,135)"
     id="g10"><g
       transform="scale(0.1,0.1)"
       id="g12"><path
         d="m 131.328,233.762 c 16.012,-22.5 35.082,-42.934 57.192,-61.25 17.261,-14.184 36.402,-27.231 57.339,-39.223 l -27.5,-59.5273 c -26.25,14.918 -50.078,31.3593 -71.41,49.3673 -28.039,22.82 -51.9881,48.051 -71.8709,75.781 l 56.2499,34.852 z m 497.5,-100.473 c 20.942,11.992 40,25.039 57.192,39.223 19.449,16.437 38.589,36.867 57.339,61.25 l 56.09,-34.223 C 777.34,170.238 753.398,144.809 727.578,123.129 706.211,105.121 682.27,88.6797 655.699,73.7617 l -26.871,59.5273 z m 114.531,537.34 c -16.48,22.391 -35.589,42.82 -57.339,61.25 -17.192,14.141 -36.25,27.23 -57.192,39.223 l 26.871,59.527 c 26.571,-15 50.512,-31.481 71.879,-49.367 27.692,-22.813 51.641,-48.09 71.871,-75.782 l -56.09,-34.851 z m -497.5,100.473 C 224.922,759.109 205.781,746.02 188.52,731.879 166.41,713.449 147.34,693.02 131.328,670.629 L 75.0781,705.48 c 18.3203,25.821 42.2619,51.09 71.8709,75.782 21.332,17.886 45.16,34.367 71.41,49.367 l 27.5,-59.527 z M 351.328,87.1992 c 28.512,-8.2109 57.192,-12.3476 85.942,-12.3476 28.82,0 57.5,4.1367 85.929,12.3476 l 21.41,-61.7187 C 508.98,15.3984 473.199,10.3203 437.27,10.3203 c -35.942,0 -71.879,5.0781 -107.821,15.1602 l 21.879,61.7187 z M 802.27,366.262 c 6.011,27.258 9.058,55.859 9.058,85.777 0,30 -3.047,58.672 -9.058,86.09 l 61.71,21.883 c 7.5,-34.063 11.25,-70 11.25,-107.813 0,-37.82 -3.75,-73.75 -11.25,-107.82 l -61.71,21.883 z M 523.199,817.199 c -28.429,8.199 -57.109,12.34 -85.929,12.34 -28.75,0 -57.43,-4.141 -85.942,-12.34 l -21.879,61.711 c 35.942,10.078 71.879,15.16 107.821,15.16 35.929,0 71.71,-5.082 107.339,-15.16 l -21.41,-61.711 z M 72.8906,538.129 c -6.0508,-27.418 -9.0625,-56.09 -9.0625,-86.09 0,-29.918 3.0117,-58.519 9.0625,-85.777 L 11.1719,344.379 c -7.50002,34.07 -11.250025,70 -11.250025,107.82 0,37.813 3.750005,73.75 11.250025,107.813 l 61.7187,-21.883 z m 634.0584,486.881 113.91,0 0,-113.44 -113.91,0 0,113.44 z m -219.527,0 113.906,0 0,-113.44 -113.906,0 0,113.44 z m 243.598,48.28 111.71,0 -182.96,-211.251 -85.942,0 157.192,211.251 z"
         inkscape:connector-curvature="0"
         id="path14"
         style="fill:#000000;fill-opacity:1;fill-rule:nonzero;stroke:none" /></g></g></svg>