<?xml version="1.0" encoding="UTF-8" standalone="no"?>
<!-- Created with Inkscape (http://www.inkscape.org/) -->

<svg
   xmlns:dc="http://purl.org/dc/elements/1.1/"
   xmlns:cc="http://creativecommons.org/ns#"
   xmlns:rdf="http://www.w3.org/1999/02/22-rdf-syntax-ns#"
   xmlns:svg="http://www.w3.org/2000/svg"
   xmlns="http://www.w3.org/2000/svg"
   xmlns:inkscape="http://www.inkscape.org/namespaces/inkscape"
   version="1.1"
   width="101.25"
   height="105"
   id="svg2"
   xml:space="preserve"><metadata
     id="metadata8"><rdf:RDF><cc:Work
         rdf:about=""><dc:format>image/svg+xml</dc:format><dc:type
           rdf:resource="http://purl.org/dc/dcmitype/StillImage" /></cc:Work></rdf:RDF></metadata><defs
     id="defs6" /><g
     transform="matrix(1.25,0,0,-1.25,0,105)"
     id="g10"><g
       transform="scale(0.1,0.1)"
       id="g12"><path
         d="m 544.922,654.031 -8.121,-45 C 505.699,642.469 458.52,662 406.641,662 268.359,662 148.672,529.5 148.672,375.129 c 0,-99.07 62.187,-165.789 154.379,-165.789 70.148,0 125.469,33.289 180.777,109.379 l 0,-12.66 c 0,-52.969 36.871,-96.719 81.871,-96.719 55.321,0 125.473,39.07 172.821,95.629 43.75,51.722 67.96,117.5 67.96,185.472 0,187.649 -172.808,340.938 -385.929,340.938 C 186.641,831.379 0.078125,647 0.078125,419.031 0.078125,192 185.551,9.96875 417.109,9.96875 c 115.161,0 232.661,48.44145 308.75,126.72225 28.75,28.899 45.942,55.309 67.969,104.84 l -53.129,0 C 718.828,203.559 702.73,182.781 677.422,158.559 613.98,99.8086 511.48,61.8398 417.109,61.8398 216.641,61.8398 55.2305,223.09 55.2305,423.559 55.2305,618.25 220.078,779.5 418.199,779.5 c 187.821,0 338.75,-132.5 338.75,-296.09 0,-54.07 -18.429,-108.281 -49.527,-150.781 -31.25,-40.32 -66.871,-64.539 -96.871,-64.539 -24.223,0 -42.66,19.539 -42.66,44.851 0,8.118 2.339,27.649 5.781,48.438 l 54.219,292.652 -82.969,0 z m -15,-82.972 C 505.699,444.34 489.609,391.379 457.422,340.59 422.73,288.719 366.328,251.84 319.141,251.84 c -50.782,0 -84.063,40.469 -84.063,101.41 0,56.559 20.621,130.16 49.531,175.16 37.969,59.84 87.5,90.93 141.719,90.93 39.063,0 73.594,-14.84 99.063,-43.75 l 4.531,-4.531 z"
         inkscape:connector-curvature="0"
         id="path14"
         style="fill:#000000;fill-opacity:1;fill-rule:nonzero;stroke:none" /></g></g></svg>