<?xml version="1.0" encoding="UTF-8" standalone="no"?>
<!-- Created with Inkscape (http://www.inkscape.org/) -->

<svg
   xmlns:dc="http://purl.org/dc/elements/1.1/"
   xmlns:cc="http://creativecommons.org/ns#"
   xmlns:rdf="http://www.w3.org/1999/02/22-rdf-syntax-ns#"
   xmlns:svg="http://www.w3.org/2000/svg"
   xmlns="http://www.w3.org/2000/svg"
   xmlns:inkscape="http://www.inkscape.org/namespaces/inkscape"
   version="1.1"
   width="31.25"
   height="126.25"
   id="svg2"
   xml:space="preserve"><metadata
     id="metadata8"><rdf:RDF><cc:Work
         rdf:about=""><dc:format>image/svg+xml</dc:format><dc:type
           rdf:resource="http://purl.org/dc/dcmitype/StillImage" /></cc:Work></rdf:RDF></metadata><defs
     id="defs6" /><g
     transform="matrix(1.25,0,0,-1.25,0,126.25)"
     id="g10"><g
       transform="scale(0.1,0.1)"
       id="g12"><path
         d="m 245.469,48.0195 c -62.348,11.5703 -87.66,35.6289 -87.66,81.7185 l 0,254.692 c 0,66.718 -13.75,93.281 -64.5277,120.941 50.7777,27.649 64.5277,54.059 64.5277,120.938 l 0,254.531 c 0,46.09 25.312,70.308 87.66,81.871 l 0,36.879 -28.91,1.09 c -90.938,0 -130.1488,-43.75 -130.1488,-143.91 l 0,-253.43 C 86.4102,555.988 59.8398,533.02 0,523.809 L 0,486.93 c 59.8398,-9.219 86.4102,-32.34 86.4102,-79.532 l 0,-253.437 c 0,-99.0626 40.3088,-144.06256 125.6208,-144.06256 5.778,0 20.629,0 33.438,1.24996 l 0,36.8711 z"
         inkscape:connector-curvature="0"
         id="path14"
         style="fill:#000000;fill-opacity:1;fill-rule:nonzero;stroke:none" /></g></g></svg>