<?xml version="1.0" encoding="UTF-8" standalone="no"?>
<!-- Created with Inkscape (http://www.inkscape.org/) -->

<svg
   xmlns:dc="http://purl.org/dc/elements/1.1/"
   xmlns:cc="http://creativecommons.org/ns#"
   xmlns:rdf="http://www.w3.org/1999/02/22-rdf-syntax-ns#"
   xmlns:svg="http://www.w3.org/2000/svg"
   xmlns="http://www.w3.org/2000/svg"
   xmlns:inkscape="http://www.inkscape.org/namespaces/inkscape"
   version="1.1"
   width="31.25"
   height="126.25"
   id="svg2"
   xml:space="preserve"><metadata
     id="metadata8"><rdf:RDF><cc:Work
         rdf:about=""><dc:format>image/svg+xml</dc:format><dc:type
           rdf:resource="http://purl.org/dc/dcmitype/StillImage" /></cc:Work></rdf:RDF></metadata><defs
     id="defs6" /><g
     transform="matrix(1.25,0,0,-1.25,0,126.25)"
     id="g10"><g
       transform="scale(0.1,0.1)"
       id="g12"><path
         d="M 0,962.711 C 62.1914,951.148 87.5,926.93 87.5,880.84 l 0,-254.531 C 87.5,559.43 101.41,533.02 152.031,505.371 101.41,477.711 87.5,451.148 87.5,384.43 l 0,-254.692 C 87.5,83.6484 62.1914,59.5898 0,48.0195 L 0,11.1484 28.75,9.89844 c 91.09,0 130.309,43.91016 130.309,144.06256 l 0,253.437 c 0,47.192 26.41,70.313 86.41,79.532 l 0,36.879 c -60,9.211 -86.41,32.179 -86.41,79.531 l 0,253.43 c 0,97.82 -40.469,143.91 -125.6176,143.91 -5.7812,0 -20.7812,0 -33.4414,-1.09 l 0,-36.879 z"
         inkscape:connector-curvature="0"
         id="path14"
         style="fill:#000000;fill-opacity:1;fill-rule:nonzero;stroke:none" /></g></g></svg>