<?xml version="1.0" encoding="UTF-8" standalone="no"?>
<!-- Created with Inkscape (http://www.inkscape.org/) -->

<svg
   xmlns:dc="http://purl.org/dc/elements/1.1/"
   xmlns:cc="http://creativecommons.org/ns#"
   xmlns:rdf="http://www.w3.org/1999/02/22-rdf-syntax-ns#"
   xmlns:svg="http://www.w3.org/2000/svg"
   xmlns="http://www.w3.org/2000/svg"
   xmlns:inkscape="http://www.inkscape.org/namespaces/inkscape"
   version="1.1"
   width="21.25"
   height="103.75"
   id="svg2"
   xml:space="preserve"><metadata
     id="metadata8"><rdf:RDF><cc:Work
         rdf:about=""><dc:format>image/svg+xml</dc:format><dc:type
           rdf:resource="http://purl.org/dc/dcmitype/StillImage" /></cc:Work></rdf:RDF></metadata><defs
     id="defs6" /><g
     transform="matrix(1.25,0,0,-1.25,0,103.75)"
     id="g10"><g
       transform="scale(0.1,0.1)"
       id="g12"><path
         d="m 87.5,824.422 c -41.4102,0 -74.8398,-33.434 -74.8398,-74.844 0,-39.219 33.4296,-73.75 73.75,-73.75 41.3988,0 74.8398,33.442 74.8398,73.75 0,41.41 -33.441,74.844 -73.75,74.844 z m -19.5312,-215.313 0,-35.781 c 0,-43.75 -9.2188,-129.058 -19.5274,-183.117 L 16.0898,233.488 C 5.78125,180.52 0,140.211 0,115.988 0,49.1094 31.0898,10.0508 82.9688,10.0508 c 55.3122,0 82.9722,37.9687 82.9722,116.2502 0,25.308 0,25.308 -13.91,103.75 l -25.312,150.937 c -9.219,49.532 -17.34,147.34 -17.34,191.25 l 0,36.871 -41.4102,0 z"
         inkscape:connector-curvature="0"
         id="path14"
         style="fill:#000000;fill-opacity:1;fill-rule:nonzero;stroke:none" /></g></g></svg>