<?xml version="1.0" encoding="UTF-8" standalone="no"?>
<!-- Created with Inkscape (http://www.inkscape.org/) -->

<svg
   xmlns:dc="http://purl.org/dc/elements/1.1/"
   xmlns:cc="http://creativecommons.org/ns#"
   xmlns:rdf="http://www.w3.org/1999/02/22-rdf-syntax-ns#"
   xmlns:svg="http://www.w3.org/2000/svg"
   xmlns="http://www.w3.org/2000/svg"
   xmlns:inkscape="http://www.inkscape.org/namespaces/inkscape"
   version="1.1"
   width="57.5"
   height="92.5"
   id="svg2"
   xml:space="preserve"><metadata
     id="metadata8"><rdf:RDF><cc:Work
         rdf:about=""><dc:format>image/svg+xml</dc:format><dc:type
           rdf:resource="http://purl.org/dc/dcmitype/StillImage" /></cc:Work></rdf:RDF></metadata><defs
     id="defs6" /><g
     transform="matrix(1.25,0,0,-1.25,0,92.5)"
     id="g10"><g
       transform="scale(0.1,0.1)"
       id="g12"><path
         d="m 260.43,566.441 c 36.871,-3.429 58.75,-26.562 60.941,-63.429 5.777,-47.192 30,-73.602 64.527,-73.602 31.09,0 56.563,26.41 56.563,59.852 0,67.957 -77.191,122.179 -182.031,129.058 l 0,118.59 -42.66,0 0,-118.59 C 87.6211,605.66 -0.0390625,512.219 -0.0390625,384.41 -0.0390625,261.129 93.2383,159.719 217.77,148.32 l 0,-138.2809 42.66,0 0,138.2809 c 82.808,5.621 154.371,50.621 194.691,122.032 l -27.66,16.089 c -57.66,-49.531 -86.41,-63.281 -132.5,-63.281 -10.473,0 -18.441,1.102 -34.531,3.442 l 0,339.839 z M 217.77,240.352 c -46.09,23.117 -64.532,43.91 -79.532,84.218 -9.218,25.309 -13.75,54.059 -13.75,81.719 0,86.402 34.532,144.063 93.282,161.25 l 0,-327.187 z"
         inkscape:connector-curvature="0"
         id="path14"
         style="fill:#000000;fill-opacity:1;fill-rule:nonzero;stroke:none" /></g></g></svg>