<?xml version="1.0" encoding="UTF-8" standalone="no"?>
<!-- Created with Inkscape (http://www.inkscape.org/) -->

<svg
   xmlns:dc="http://purl.org/dc/elements/1.1/"
   xmlns:cc="http://creativecommons.org/ns#"
   xmlns:rdf="http://www.w3.org/1999/02/22-rdf-syntax-ns#"
   xmlns:svg="http://www.w3.org/2000/svg"
   xmlns="http://www.w3.org/2000/svg"
   xmlns:inkscape="http://www.inkscape.org/namespaces/inkscape"
   version="1.1"
   width="90"
   height="103.75"
   id="svg2"
   xml:space="preserve"><metadata
     id="metadata8"><rdf:RDF><cc:Work
         rdf:about=""><dc:format>image/svg+xml</dc:format><dc:type
           rdf:resource="http://purl.org/dc/dcmitype/StillImage" /></cc:Work></rdf:RDF></metadata><defs
     id="defs6" /><g
     transform="matrix(1.25,0,0,-1.25,0,103.75)"
     id="g10"><g
       transform="scale(0.1,0.1)"
       id="g12"><path
         d="m 286.879,485.75 -12.66,30 c -18.438,46.102 -21.879,63.281 -21.879,95.629 0,105.941 65.629,176.25 162.351,176.25 67.969,0 132.5,-40.309 132.5,-84.059 0,-5.789 -1.101,-12.66 -4.531,-18.441 -15,-32.348 -17.351,-40.309 -17.351,-54.219 0,-26.41 24.222,-48.281 54.222,-48.281 36.879,0 62.188,29.84 62.188,73.59 0,97.972 -91.098,168.281 -217.809,168.281 -82.969,0 -161.25,-28.75 -209.691,-78.43 C 175.16,707 146.25,642.469 146.25,592.941 c 0,-24.222 5.781,-50.781 21.871,-107.191 l -112.8124,0 -16.0898,-49.531 146.2502,0 39.222,-92.188 C 266.09,243.879 269.531,234.66 271.879,197.781 208.441,217.32 171.719,224.352 135.941,224.352 58.75,224.352 0,178.25 0,117.16 0,56.0703 57.6602,9.96875 132.5,9.96875 207.34,9.96875 270.781,44.5 323.75,112.469 L 428.59,59.5 c 73.75,-36.8711 97.82,-44.8398 137.031,-44.8398 86.41,0 152.039,63.2812 152.039,145.1598 0,69.059 -51.719,120.93 -119.691,120.93 -38.129,0 -66.879,-9.219 -100.309,-31.09 l 18.43,-32.34 c 31.101,13.899 46.101,17.34 66.879,17.34 36.871,0 62.191,-21.879 62.191,-55.308 0,-39.223 -36.879,-69.071 -86.41,-69.071 -25.309,0 -25.309,0 -97.969,24.071 L 351.41,169.031 c 13.75,42.5 17.18,62.188 17.18,87.5 0,26.571 -6.871,57.66 -17.18,81.719 l -41.57,97.969 190.16,0 18.441,49.531 -231.562,0 z M 263.75,140.129 C 229.219,82.6289 190.16,56.0703 138.281,56.0703 c -44.9997,0 -77.1912,25.3086 -77.1912,61.0897 0,36.871 32.1915,61.09 81.7192,61.09 41.57,0 74.851,-10.469 120.941,-38.121 z"
         inkscape:connector-curvature="0"
         id="path14"
         style="fill:#000000;fill-opacity:1;fill-rule:nonzero;stroke:none" /></g></g></svg>