<?xml version="1.0" encoding="UTF-8" standalone="no"?>
<!-- Created with Inkscape (http://www.inkscape.org/) -->

<svg
   xmlns:dc="http://purl.org/dc/elements/1.1/"
   xmlns:cc="http://creativecommons.org/ns#"
   xmlns:rdf="http://www.w3.org/1999/02/22-rdf-syntax-ns#"
   xmlns:svg="http://www.w3.org/2000/svg"
   xmlns="http://www.w3.org/2000/svg"
   xmlns:inkscape="http://www.inkscape.org/namespaces/inkscape"
   version="1.1"
   width="73.75"
   height="73.75"
   id="svg2"
   xml:space="preserve"><metadata
     id="metadata8"><rdf:RDF><cc:Work
         rdf:about=""><dc:format>image/svg+xml</dc:format><dc:type
           rdf:resource="http://purl.org/dc/dcmitype/StillImage" /></cc:Work></rdf:RDF></metadata><defs
     id="defs6" /><g
     transform="matrix(1.25,0,0,-1.25,0,73.75)"
     id="g10"><g
       transform="scale(0.1,0.1)"
       id="g12"><path
         d="M 1.17188,68.7109 58.8281,9.96094 119.77,71.0586 c 56.558,-42.6602 106.089,-59.8477 171.71,-59.8477 65.629,0 115.161,17.1875 171.719,59.8477 l 60.942,-61.09766 57.66,58.74996 -61.102,61.0981 c 40.321,54.062 56.571,101.402 56.571,167.031 0,66.871 -16.25,115.16 -58.911,170.469 l 61.09,60 -57.5,59.839 -61.09,-61.089 c -56.41,40.312 -105.937,57.652 -168.281,57.652 -63.277,0 -117.5,-18.43 -171.558,-58.75 L 58.8281,587.148 0.078125,527.309 62.2695,465.121 C 21.9492,410.898 5.69922,364.809 5.69922,296.84 5.69922,232.309 20.6992,188.559 62.2695,129.809 L 1.17188,68.7109 z M 294.922,488.09 c 101.406,0 187.808,-87.5 187.808,-190.16 0,-104.84 -86.402,-191.25 -191.25,-191.25 -105.929,0 -191.25,85.32 -191.25,192.5 0,104.851 86.411,188.91 194.692,188.91 z"
         inkscape:connector-curvature="0"
         id="path14"
         style="fill:#000000;fill-opacity:1;fill-rule:nonzero;stroke:none" /></g></g></svg>