<?xml version="1.0" encoding="UTF-8" standalone="no"?>
<!-- Created with Inkscape (http://www.inkscape.org/) -->

<svg
   xmlns:dc="http://purl.org/dc/elements/1.1/"
   xmlns:cc="http://creativecommons.org/ns#"
   xmlns:rdf="http://www.w3.org/1999/02/22-rdf-syntax-ns#"
   xmlns:svg="http://www.w3.org/2000/svg"
   xmlns="http://www.w3.org/2000/svg"
   xmlns:inkscape="http://www.inkscape.org/namespaces/inkscape"
   version="1.1"
   width="97.5"
   height="100"
   id="svg2"
   xml:space="preserve"><metadata
     id="metadata8"><rdf:RDF><cc:Work
         rdf:about=""><dc:format>image/svg+xml</dc:format><dc:type
           rdf:resource="http://purl.org/dc/dcmitype/StillImage" /></cc:Work></rdf:RDF></metadata><defs
     id="defs6" /><g
     transform="matrix(1.25,0,0,-1.25,0,100)"
     id="g10"><g
       transform="scale(0.1,0.1)"
       id="g12"><path
         d="m 425.039,280.762 266.25,0 0,46.097 -266.25,0 0,37.961 65.781,99.071 200.469,0 0,46.089 -170.629,0 79.539,118.59 c 66.871,102.5 88.75,119.852 170.461,134.852 l 0,31.09 -279.84,0 0,-31.09 c 65.629,-16.102 79.379,-25.313 79.379,-54.223 0,-14.84 -2.187,-19.527 -31.097,-66.719 L 398.629,408.57 247.699,655.141 c -21.879,36.871 -25.32,44.839 -25.32,58.75 0,25.308 17.191,36.871 73.75,47.179 l 12.66,2.352 0,31.09 -308.7499375,0 0,-31.09 C 72.5391,746.07 84.1016,736.859 134.73,650.449 l 84.219,-140.469 -159.0701,0 0,-46.089 187.8201,0 73.75,-125.629 0,-11.403 -261.5701,0 0,-46.097 261.5701,0 0,-121.09 c 0,-87.5001 -18.437,-110.4728 -93.289,-113.9103 l -20.781,-1.25 0,-34.53123 331.723,0 0,34.53123 C 445.82,47.9492 425.039,68.7305 425.039,159.672 l 0,121.09 z"
         inkscape:connector-curvature="0"
         id="path14"
         style="fill:#000000;fill-opacity:1;fill-rule:nonzero;stroke:none" /></g></g></svg>