<?xml version="1.0" encoding="UTF-8" standalone="no"?>
<!-- Created with Inkscape (http://www.inkscape.org/) -->

<svg
   xmlns:dc="http://purl.org/dc/elements/1.1/"
   xmlns:cc="http://creativecommons.org/ns#"
   xmlns:rdf="http://www.w3.org/1999/02/22-rdf-syntax-ns#"
   xmlns:svg="http://www.w3.org/2000/svg"
   xmlns="http://www.w3.org/2000/svg"
   xmlns:inkscape="http://www.inkscape.org/namespaces/inkscape"
   version="1.1"
   width="66.25"
   height="128.75"
   id="svg2"
   xml:space="preserve"><metadata
     id="metadata8"><rdf:RDF><cc:Work
         rdf:about=""><dc:format>image/svg+xml</dc:format><dc:type
           rdf:resource="http://purl.org/dc/dcmitype/StillImage" /></cc:Work></rdf:RDF></metadata><defs
     id="defs6" /><g
     transform="matrix(1.25,0,0,-1.25,0,128.75)"
     id="g10"><g
       transform="scale(0.1,0.1)"
       id="g12"><path
         d="m 214.34,758.781 c -69.219,20.778 -97.969,51.879 -97.969,106.09 0,69.07 55.309,109.379 150.93,109.379 77.187,0 125.629,-30 125.629,-77.191 l 0,-13.899 c -1.25,-20.629 -1.25,-20.629 -1.25,-24.07 0,-35.781 24.218,-62.18 57.66,-62.18 29.84,0 52.961,27.5 52.961,65.621 0,88.59 -107.18,157.809 -244.211,157.809 C 112.93,1020.34 14.9609,946.59 14.9609,838.309 14.9609,765.66 42.6211,721.91 116.371,680.5 34.4883,615.969 4.64844,567.531 4.64844,499.559 c 0,-43.75 16.08986,-82.969 47.19136,-115.149 28.75,-31.101 74.8402,-51.879 145.1482,-65.629 l 124.383,-26.562 c 69.219,-13.75 99.059,-44.848 99.059,-101.41 0,-81.719 -62.192,-134.6879 -160,-134.6879 -40.309,0 -86.41,10.3203 -117.5,25.3203 C 120.898,93 109.488,111.441 109.488,135.5 c 0,5.781 0,10.469 1.102,16.25 4.68,28.75 4.68,28.75 4.68,35.621 0,33.438 -23.1216,57.66 -55.3091,57.66 -34.5312,0 -59.9999625,-28.75 -59.9999625,-65.621 C -0.0390625,84.8711 115.27,10.0313 260.43,10.0313 c 155.468,0 261.41,82.9687 261.41,204.9997 0,63.438 -25.32,110.629 -79.379,150.938 49.527,63.441 71.41,117.5 71.41,182.031 0,77.191 -55.32,140.469 -144.07,167.031 L 214.34,758.781 z M 305.27,624.09 c 91.101,-27.649 127.968,-67.969 127.968,-138.281 0,-35.778 -7.027,-60 -31.25,-103.75 -39.058,10.472 -58.75,13.91 -96.718,21.882 l -81.719,17.34 c -79.531,16.09 -129.0627,59.84 -129.0627,116.41 0,43.75 17.1917,78.278 63.2817,128.899 l 147.5,-42.5 z"
         inkscape:connector-curvature="0"
         id="path14"
         style="fill:#000000;fill-opacity:1;fill-rule:nonzero;stroke:none" /></g></g></svg>