<?xml version="1.0" encoding="UTF-8" standalone="no"?>
<!-- Created with Inkscape (http://www.inkscape.org/) -->

<svg
   xmlns:dc="http://purl.org/dc/elements/1.1/"
   xmlns:cc="http://creativecommons.org/ns#"
   xmlns:rdf="http://www.w3.org/1999/02/22-rdf-syntax-ns#"
   xmlns:svg="http://www.w3.org/2000/svg"
   xmlns="http://www.w3.org/2000/svg"
   xmlns:inkscape="http://www.inkscape.org/namespaces/inkscape"
   version="1.1"
   width="41.25"
   height="18.75"
   id="svg2"
   xml:space="preserve"><metadata
     id="metadata8"><rdf:RDF><cc:Work
         rdf:about=""><dc:format>image/svg+xml</dc:format><dc:type
           rdf:resource="http://purl.org/dc/dcmitype/StillImage" /></cc:Work></rdf:RDF></metadata><defs
     id="defs6" /><g
     transform="matrix(1.25,0,0,-1.25,0,18.75)"
     id="g10"><g
       transform="scale(0.1,0.1)"
       id="g12"><path
         d="m 69.1797,145.941 c -38.1289,0 -69.2187625,-30 -69.2187625,-67.9722 C -0.0390625,41.0898 31.0508,10 67.9297,10 c 36.8713,0 67.9683,31.0898 67.9683,67.9688 0,36.8712 -31.097,67.9722 -66.7183,67.9722 z m 187.8083,0 c -38.117,0 -69.218,-30 -69.218,-67.9722 C 187.77,41.0898 218.871,10 255.738,10 c 36.883,0 67.973,31.0898 67.973,67.9688 0,36.8712 -31.09,67.9722 -66.723,67.9722 z"
         inkscape:connector-curvature="0"
         id="path14"
         style="fill:#000000;fill-opacity:1;fill-rule:nonzero;stroke:none" /></g></g></svg>