<?xml version="1.0" encoding="UTF-8" standalone="no"?>
<!-- Created with Inkscape (http://www.inkscape.org/) -->

<svg
   xmlns:dc="http://purl.org/dc/elements/1.1/"
   xmlns:cc="http://creativecommons.org/ns#"
   xmlns:rdf="http://www.w3.org/1999/02/22-rdf-syntax-ns#"
   xmlns:svg="http://www.w3.org/2000/svg"
   xmlns="http://www.w3.org/2000/svg"
   xmlns:inkscape="http://www.inkscape.org/namespaces/inkscape"
   version="1.1"
   width="101.25"
   height="102.5"
   id="svg2"
   xml:space="preserve"><metadata
     id="metadata8"><rdf:RDF><cc:Work
         rdf:about=""><dc:format>image/svg+xml</dc:format><dc:type
           rdf:resource="http://purl.org/dc/dcmitype/StillImage" /></cc:Work></rdf:RDF></metadata><defs
     id="defs6" /><g
     transform="matrix(1.25,0,0,-1.25,0,102.5)"
     id="g10"><g
       transform="scale(0.1,0.1)"
       id="g12"><path
         d="m 561.09,619.371 -25.469,0 -12.652,-24.223 c -34.528,25.473 -75.938,38.122 -128.91,38.122 -51.868,0 -111.868,-27.649 -152.18,-70.309 -37.969,-41.402 -59.848,-97.973 -59.848,-158.902 0,-127.969 96.719,-224.688 226.879,-224.688 84.211,0 148.59,36.867 198.281,114.059 l -33.441,18.441 c -40.309,-61.101 -96.871,-95.633 -155.629,-95.633 -37.961,0 -82.961,20.633 -110.461,50.633 -28.91,31.09 -45,81.867 -45,138.277 0,109.372 61.09,191.25 142.809,191.25 45,0 91.09,-25.308 120.941,-67.968 12.809,-18.442 19.68,-30 40.309,-67.969 l 26.562,0 -32.191,158.91 z M 407.809,816.398 c -104.84,0 -208.59,-42.66 -289.219,-118.589 C 41.4102,626.398 0,526.09 0,415.461 0,190.93 179.691,9.98828 403.281,9.98828 626.719,9.98828 806.41,190.93 806.41,416.711 c 0,109.379 -41.41,207.348 -118.601,281.098 -75,72.5 -184.368,118.589 -280,118.589 z m -1.09,-46.089 c 84.062,0 178.441,-40.321 246.402,-104.848 C 720,603.27 756.879,513.43 756.879,416.711 756.879,216.238 599.059,56.0898 403.281,56.0898 207.34,56.0898 49.5313,216.238 49.5313,415.461 c 0,97.969 35.7773,184.379 103.7497,250 69.059,66.879 161.25,104.848 253.438,104.848 z"
         inkscape:connector-curvature="0"
         id="path14"
         style="fill:#000000;fill-opacity:1;fill-rule:nonzero;stroke:none" /></g></g></svg>