<?xml version="1.0" encoding="UTF-8" standalone="no"?>
<!-- Created with Inkscape (http://www.inkscape.org/) -->

<svg
   xmlns:dc="http://purl.org/dc/elements/1.1/"
   xmlns:cc="http://creativecommons.org/ns#"
   xmlns:rdf="http://www.w3.org/1999/02/22-rdf-syntax-ns#"
   xmlns:svg="http://www.w3.org/2000/svg"
   xmlns="http://www.w3.org/2000/svg"
   xmlns:inkscape="http://www.inkscape.org/namespaces/inkscape"
   version="1.1"
   width="50"
   height="58.75"
   id="svg2"
   xml:space="preserve"><metadata
     id="metadata8"><rdf:RDF><cc:Work
         rdf:about=""><dc:format>image/svg+xml</dc:format><dc:type
           rdf:resource="http://purl.org/dc/dcmitype/StillImage" /></cc:Work></rdf:RDF></metadata><defs
     id="defs6" /><g
     transform="matrix(1.25,0,0,-1.25,0,58.75)"
     id="g10"><g
       transform="scale(0.1,0.1)"
       id="g12"><path
         d="m 374.488,172.461 c -10.468,-8.121 -23.117,-12.66 -34.687,-12.66 -21.871,0 -28.75,15 -28.75,57.66 l 0,150.777 c 0,33.442 -8.121,53.133 -28.75,67.973 -24.211,18.437 -70.313,31.25 -114.063,31.25 -73.7497,0 -145.1482,-41.563 -145.1482,-84.223 0,-19.527 18.4297,-36.867 39.0586,-36.867 24.2227,0 41.5626,17.34 41.5626,43.899 l 0,7.968 c 0,10.313 0,12.66 4.527,16.102 12.66,10.461 28.91,16.25 49.532,16.25 46.101,0 75,-19.692 75,-50.789 l 0,-51.871 C 133.711,314.18 99.0195,307.301 59.9609,288.871 21.8398,271.52 -0.0390625,241.52 -0.0390625,206.988 c 0,-54.058 46.0898625,-90.937 112.9690625,-90.937 44.84,0 79.531,12.66 123.281,46.097 13.75,-30 42.66,-45 87.5,-45 30,0 47.187,6.872 72.66,27.653 l -21.883,27.66 z M 232.77,204.648 c -36.872,-32.187 -64.532,-45.937 -94.532,-45.937 -33.437,0 -57.6482,21.879 -57.6482,52.969 0,41.41 41.5582,63.281 152.1802,80.621 l 0,-87.653 z m 134.691,-148.5972 -351.4102,0 0,-46.08986 351.4102,0 0,46.08986 z"
         inkscape:connector-curvature="0"
         id="path14"
         style="fill:#000000;fill-opacity:1;fill-rule:nonzero;stroke:none" /></g></g></svg>