<?xml version="1.0" encoding="UTF-8" standalone="no"?>
<!-- Created with Inkscape (http://www.inkscape.org/) -->

<svg
   xmlns:dc="http://purl.org/dc/elements/1.1/"
   xmlns:cc="http://creativecommons.org/ns#"
   xmlns:rdf="http://www.w3.org/1999/02/22-rdf-syntax-ns#"
   xmlns:svg="http://www.w3.org/2000/svg"
   xmlns="http://www.w3.org/2000/svg"
   xmlns:inkscape="http://www.inkscape.org/namespaces/inkscape"
   version="1.1"
   width="101.25"
   height="102.5"
   id="svg2"
   xml:space="preserve"><metadata
     id="metadata8"><rdf:RDF><cc:Work
         rdf:about=""><dc:format>image/svg+xml</dc:format><dc:type
           rdf:resource="http://purl.org/dc/dcmitype/StillImage" /></cc:Work></rdf:RDF></metadata><defs
     id="defs6" /><g
     transform="matrix(1.25,0,0,-1.25,0,102.5)"
     id="g10"><g
       transform="scale(0.1,0.1)"
       id="g12"><path
         d="m 491.949,424.68 c 73.75,12.66 115.16,54.218 115.16,116.41 0,69.058 -56.41,111.719 -149.687,111.719 l -262.652,0 0,-26.411 18.429,-2.339 c 32.192,-3.438 39.071,-16.098 39.071,-65.629 l 0,-248.91 c 0,-49.532 -6.879,-62.18 -39.071,-65.622 l -18.429,-2.339 0,-26.571 192.339,0 0,26.571 -25.308,2.339 c -30,2.192 -38.129,17.192 -38.129,65.622 l 0,108.289 85.308,0 142.821,-202.821 110.621,0 0,25.473 c -33.442,6.879 -48.442,14.848 -67.973,40.309 l -102.5,143.91 z m -168.277,27.66 0,133.75 c 0,24.058 24.219,33.281 89.848,33.281 81.871,0 121.089,-26.41 121.089,-81.723 0,-55.308 -39.218,-85.308 -108.281,-85.308 l -102.656,0 z m 84.219,364.058 c -104.84,0 -208.59,-42.66 -289.219,-118.589 C 41.4805,626.398 0.078125,526.09 0.078125,415.461 0.078125,190.93 179.77,9.98828 403.199,9.98828 626.641,9.98828 806.48,190.93 806.48,416.711 c 0,109.379 -41.558,207.348 -118.75,281.098 -74.839,72.5 -184.21,118.589 -279.839,118.589 z m -1.25,-46.089 c 84.058,0 178.589,-40.321 246.558,-104.848 66.879,-62.191 103.75,-152.031 103.75,-248.75 0,-200.473 -157.808,-360.6212 -353.75,-360.6212 -195.777,0 -353.5896,160.1482 -353.5896,359.3712 0,97.969 35.6211,184.379 103.5896,250 69.223,66.879 161.25,104.848 253.442,104.848 z"
         inkscape:connector-curvature="0"
         id="path14"
         style="fill:#000000;fill-opacity:1;fill-rule:nonzero;stroke:none" /></g></g></svg>