<?xml version="1.0" encoding="UTF-8" standalone="no"?>
<!-- Created with Inkscape (http://www.inkscape.org/) -->

<svg
   xmlns:dc="http://purl.org/dc/elements/1.1/"
   xmlns:cc="http://creativecommons.org/ns#"
   xmlns:rdf="http://www.w3.org/1999/02/22-rdf-syntax-ns#"
   xmlns:svg="http://www.w3.org/2000/svg"
   xmlns="http://www.w3.org/2000/svg"
   xmlns:inkscape="http://www.inkscape.org/namespaces/inkscape"
   version="1.1"
   width="43.75"
   height="46.25"
   id="svg2"
   xml:space="preserve"><metadata
     id="metadata8"><rdf:RDF><cc:Work
         rdf:about=""><dc:format>image/svg+xml</dc:format><dc:type
           rdf:resource="http://purl.org/dc/dcmitype/StillImage" /></cc:Work></rdf:RDF></metadata><defs
     id="defs6" /><g
     transform="matrix(1.25,0,0,-1.25,0,46.25)"
     id="g10"><g
       transform="scale(0.1,0.1)"
       id="g12"><path
         d="M 176.289,362.551 C 78.3203,362.551 0.0390625,285.359 0.0390625,187.391 0.0390625,88.3281 75.9805,10.0508 172.852,10.0508 c 96.718,0 172.808,77.1875 172.808,176.2502 0,99.058 -73.75,176.25 -169.371,176.25 z m -1.25,-65.621 c 57.66,0 104.84,-49.539 104.84,-110.629 0,-62.192 -47.18,-110.6213 -107.027,-110.6213 -58.75,0 -108.2817,49.5313 -108.2817,110.6213 0,61.09 48.2817,110.629 110.4687,110.629 z"
         inkscape:connector-curvature="0"
         id="path14"
         style="fill:#000000;fill-opacity:1;fill-rule:nonzero;stroke:none" /></g></g></svg>