<?xml version="1.0" encoding="UTF-8" standalone="no"?>
<!-- Created with Inkscape (http://www.inkscape.org/) -->

<svg
   xmlns:dc="http://purl.org/dc/elements/1.1/"
   xmlns:cc="http://creativecommons.org/ns#"
   xmlns:rdf="http://www.w3.org/1999/02/22-rdf-syntax-ns#"
   xmlns:svg="http://www.w3.org/2000/svg"
   xmlns="http://www.w3.org/2000/svg"
   xmlns:inkscape="http://www.inkscape.org/namespaces/inkscape"
   version="1.1"
   width="50"
   height="61.25"
   id="svg2"
   xml:space="preserve"><metadata
     id="metadata8"><rdf:RDF><cc:Work
         rdf:about=""><dc:format>image/svg+xml</dc:format><dc:type
           rdf:resource="http://purl.org/dc/dcmitype/StillImage" /></cc:Work></rdf:RDF></metadata><defs
     id="defs6" /><g
     transform="matrix(1.25,0,0,-1.25,0,61.25)"
     id="g10"><g
       transform="scale(0.1,0.1)"
       id="g12"><path
         d="m 399.77,144.738 -35.79,8.121 -9.21,-19.531 C 331.801,82.5508 317.891,74.5781 254.609,74.5781 l -153.281,0 c 77.192,47.1919 99.063,60.9419 132.5,87.4999 85.313,67.973 126.723,130.16 126.723,190.16 0,79.371 -74.852,137.032 -179.692,137.032 -96.7184,0 -178.58947,-59.84 -178.58947,-131.411 0,-35.621 23.12107,-62.179 52.96097,-62.179 24.2187,0 46.0975,19.679 46.0975,40.308 0,8.121 -4.5272,18.442 -11.4061,25.473 -12.8125,13.75 -15,18.437 -15,27.648 0,29.852 47.1871,57.5 96.7191,57.5 57.66,0 94.531,-34.531 94.531,-86.398 0,-59.852 -46.094,-132.5 -129.063,-202.66 C 97.8906,124.109 80.6992,111.461 -0.078125,65.3594 l 0,-55.3086 362.969125,0 36.879,134.6872 z"
         inkscape:connector-curvature="0"
         id="path14"
         style="fill:#000000;fill-opacity:1;fill-rule:nonzero;stroke:none" /></g></g></svg>