<?xml version="1.0" encoding="UTF-8" standalone="no"?>
<!-- Created with Inkscape (http://www.inkscape.org/) -->

<svg
   xmlns:dc="http://purl.org/dc/elements/1.1/"
   xmlns:cc="http://creativecommons.org/ns#"
   xmlns:rdf="http://www.w3.org/1999/02/22-rdf-syntax-ns#"
   xmlns:svg="http://www.w3.org/2000/svg"
   xmlns="http://www.w3.org/2000/svg"
   xmlns:inkscape="http://www.inkscape.org/namespaces/inkscape"
   version="1.1"
   width="51.25"
   height="62.5"
   id="svg2"
   xml:space="preserve"><metadata
     id="metadata8"><rdf:RDF><cc:Work
         rdf:about=""><dc:format>image/svg+xml</dc:format><dc:type
           rdf:resource="http://purl.org/dc/dcmitype/StillImage" /></cc:Work></rdf:RDF></metadata><defs
     id="defs6" /><g
     transform="matrix(1.25,0,0,-1.25,0,62.5)"
     id="g10"><g
       transform="scale(0.1,0.1)"
       id="g12"><path
         d="m 270.699,279.578 c 64.531,17.344 101.41,55.313 101.41,103.75 0,66.723 -74.839,115.16 -175.16,115.16 -92.179,0 -165.7771,-50.629 -165.7771,-114.066 0,-27.652 19.5273,-48.434 45.9375,-48.434 24.2186,0 43.9106,16.25 43.9106,36.871 0,4.692 -1.25,11.563 -3.442,17.352 -5.777,17.34 -5.777,17.34 -5.777,20.777 0,25.313 36.871,44.84 82.969,44.84 55.152,0 90.929,-31.09 90.929,-78.277 0,-50.781 -42.648,-82.973 -110.621,-82.973 -6.879,0 -28.75,1.094 -41.406,2.344 l 0,-41.563 c 46.098,3.442 46.098,3.442 52.969,3.442 76.089,0 119.839,-37.973 119.839,-102.5 0,-65.6291 -45,-103.5901 -120.929,-103.5901 -54.223,0 -99.2229,20.6172 -99.2229,46.0899 0,1.0898 0,3.4372 1.25,5.6212 5.7813,16.25 5.7813,16.25 5.7813,24.219 0,24.218 -19.6875,41.57 -45,41.57 -26.4102,0 -48.437525,-23.133 -48.437525,-51.883 0,-61.0897 81.878925,-108.2772 187.808125,-108.2772 123.29,0 213.129,61.0898 213.129,146.2502 0,57.66 -43.75,103.75 -115.16,119.84 l -15,3.437 z"
         inkscape:connector-curvature="0"
         id="path14"
         style="fill:#000000;fill-opacity:1;fill-rule:nonzero;stroke:none" /></g></g></svg>