<?xml version="1.0" encoding="UTF-8" standalone="no"?>
<!-- Created with Inkscape (http://www.inkscape.org/) -->

<svg
   xmlns:dc="http://purl.org/dc/elements/1.1/"
   xmlns:cc="http://creativecommons.org/ns#"
   xmlns:rdf="http://www.w3.org/1999/02/22-rdf-syntax-ns#"
   xmlns:svg="http://www.w3.org/2000/svg"
   xmlns="http://www.w3.org/2000/svg"
   xmlns:inkscape="http://www.inkscape.org/namespaces/inkscape"
   version="1.1"
   width="91.25"
   height="103.75"
   id="svg2"
   xml:space="preserve"><metadata
     id="metadata8"><rdf:RDF><cc:Work
         rdf:about=""><dc:format>image/svg+xml</dc:format><dc:type
           rdf:resource="http://purl.org/dc/dcmitype/StillImage" /></cc:Work></rdf:RDF></metadata><defs
     id="defs6" /><g
     transform="matrix(1.25,0,0,-1.25,0,103.75)"
     id="g10"><g
       transform="scale(0.1,0.1)"
       id="g12"><path
         d="m 148.672,318.699 c 31.098,-46.09 71.406,-66.719 130.156,-66.719 79.371,0 143.902,28.75 240.781,107.04 l 0,-96.719 209.692,0 0,34.527 -28.91,2.344 c -50.621,5.777 -71.411,32.187 -71.411,95.629 l 0,426.25 -39.21,0 c -59.848,-13.91 -82.821,-16.102 -173.911,-23.129 l 0,-34.531 27.661,-2.192 c 58.75,-4.679 76.089,-26.558 76.089,-95.621 l 0,-257.027 c -77.187,-67.973 -145.16,-101.25 -201.718,-101.25 -72.5,0 -104.84,39.058 -104.84,126.719 l 0,387.031 -39.071,0 c -60,-13.91 -85.3081,-17.352 -174.058125,-23.129 l 0,-34.531 27.656225,-2.192 C 85.2305,756.52 103.672,734.641 103.672,667.77 l 0,-382.5 c 0,-24.071 -4.5314,-54.071 -13.7501,-87.5 C 71.4805,127.449 70.2305,119.48 70.2305,92.9219 c 0,-48.2813 24.2187,-82.97268 57.6605,-82.97268 32.187,0 55.308,34.69138 55.308,85.32028 0,24.2105 -3.429,40.3085 -21.871,105.9295 -10.469,41.571 -12.656,52.973 -12.656,89.852 l 0,27.648 z"
         inkscape:connector-curvature="0"
         id="path14"
         style="fill:#000000;fill-opacity:1;fill-rule:nonzero;stroke:none" /></g></g></svg>