<?xml version="1.0" encoding="UTF-8" standalone="no"?>
<!-- Created with Inkscape (http://www.inkscape.org/) -->

<svg
   xmlns:dc="http://purl.org/dc/elements/1.1/"
   xmlns:cc="http://creativecommons.org/ns#"
   xmlns:rdf="http://www.w3.org/1999/02/22-rdf-syntax-ns#"
   xmlns:svg="http://www.w3.org/2000/svg"
   xmlns="http://www.w3.org/2000/svg"
   xmlns:inkscape="http://www.inkscape.org/namespaces/inkscape"
   version="1.1"
   width="81.25"
   height="100"
   id="svg2"
   xml:space="preserve"><metadata
     id="metadata8"><rdf:RDF><cc:Work
         rdf:about=""><dc:format>image/svg+xml</dc:format><dc:type
           rdf:resource="http://purl.org/dc/dcmitype/StillImage" /></cc:Work></rdf:RDF></metadata><defs
     id="defs6" /><g
     transform="matrix(1.25,0,0,-1.25,0,100)"
     id="g10"><g
       transform="scale(0.1,0.1)"
       id="g12"><path
         d="m 292.621,352.172 0,-193.602 C 292.621,75.6094 276.52,57.1719 199.34,49.1992 l -21.879,-2.3398 0,-36.87893 471.09,0 0,36.87893 -24.211,2.3398 C 564.488,54.9805 546.051,81.3906 546.051,158.57 l 0,478.129 c 0,92.192 12.66,110.621 78.289,117.5 l 24.211,2.34 0,37.973 -349.063,0 C 213.09,794.512 169.34,786.391 117.461,762.32 44.9609,726.539 -0.0390625,655.141 -0.0390625,573.262 -0.0390625,501.859 38.0898,430.449 95.5898,393.57 141.68,364.82 195.898,352.172 274.18,352.172 l 18.441,0 z m 171.719,404.367 0,-708.5898 -86.41,0 0,708.5898 86.41,0 z M 292.621,386.699 C 185.43,393.57 115.27,469.672 115.27,579.039 c 0,110.633 65.628,176.25 177.351,177.5 l 0,-369.84 z"
         inkscape:connector-curvature="0"
         id="path14"
         style="fill:#000000;fill-opacity:1;fill-rule:nonzero;stroke:none" /></g></g></svg>