<?xml version="1.0" encoding="UTF-8" standalone="no"?>
<!-- Created with Inkscape (http://www.inkscape.org/) -->

<svg
   xmlns:dc="http://purl.org/dc/elements/1.1/"
   xmlns:cc="http://creativecommons.org/ns#"
   xmlns:rdf="http://www.w3.org/1999/02/22-rdf-syntax-ns#"
   xmlns:svg="http://www.w3.org/2000/svg"
   xmlns="http://www.w3.org/2000/svg"
   xmlns:inkscape="http://www.inkscape.org/namespaces/inkscape"
   version="1.1"
   width="27.5"
   height="31.25"
   id="svg2"
   xml:space="preserve"><metadata
     id="metadata8"><rdf:RDF><cc:Work
         rdf:about=""><dc:format>image/svg+xml</dc:format><dc:type
           rdf:resource="http://purl.org/dc/dcmitype/StillImage" /></cc:Work></rdf:RDF></metadata><defs
     id="defs6" /><g
     transform="matrix(1.25,0,0,-1.25,0,31.25)"
     id="g10"><g
       transform="scale(0.1,0.1)"
       id="g12"><path
         d="m 103.711,240.398 -35.7813,0 -28.75,-89.839 c 24.2187,8.121 39.2187,11.562 54.2187,11.562 44.8396,0 69.0626,-20.781 69.0626,-58.75 0,-35.7812 -23.121,-62.3397 -52.973,-62.3397 -23.1169,0 -33.4372,8.1171 -44.9997,34.6796 -7.9688,20.6289 -17.1875,27.6601 -35.6172,27.6601 -16.25,0 -28.9101625,-12.6601 -28.9101625,-28.9101 0,-34.5312 51.8788625,-64.53121 111.8790625,-64.53121 63.281,0 105.93,39.21871 105.93,97.96831 0,52.973 -39.219,85.313 -101.399,85.313 -2.351,0 -6.883,0 -13.75,-1.25 -2.351,0 -8.1327,0 -13.9101,-1.09 l 15.0001,49.527 z"
         inkscape:connector-curvature="0"
         id="path14"
         style="fill:#000000;fill-opacity:1;fill-rule:nonzero;stroke:none" /></g></g></svg>