<?xml version="1.0" encoding="UTF-8" standalone="no"?>
<!-- Created with Inkscape (http://www.inkscape.org/) -->

<svg
   xmlns:dc="http://purl.org/dc/elements/1.1/"
   xmlns:cc="http://creativecommons.org/ns#"
   xmlns:rdf="http://www.w3.org/1999/02/22-rdf-syntax-ns#"
   xmlns:svg="http://www.w3.org/2000/svg"
   xmlns="http://www.w3.org/2000/svg"
   xmlns:inkscape="http://www.inkscape.org/namespaces/inkscape"
   version="1.1"
   width="32.5"
   height="60"
   id="svg2"
   xml:space="preserve"><metadata
     id="metadata8"><rdf:RDF><cc:Work
         rdf:about=""><dc:format>image/svg+xml</dc:format><dc:type
           rdf:resource="http://purl.org/dc/dcmitype/StillImage" /></cc:Work></rdf:RDF></metadata><defs
     id="defs6" /><g
     transform="matrix(1.25,0,0,-1.25,0,60)"
     id="g10"><g
       transform="scale(0.1,0.1)"
       id="g12"><path
         d="m 167.07,470.02 -28.75,0 C 90.9805,459.699 75.9805,457.359 2.37891,449.23 l 0,-29.839 33.28129,-1.25 c 48.4414,-2.34 54.2187,-7.969 54.2187,-58.75 l 0,-257.969 c 0,-35.7814 -1.0898,-46.0939 -8.1172,-51.8712 C 72.5391,40.3281 44.8789,31.1094 30.0391,31.1094 l -30.0000375,0 0,-31.0898687 255.7809375,0 0,31.0898687 -28.91,0 c -12.648,0 -37.961,5.7812 -44.84,11.5625 -11.558,7.9687 -15,20.6289 -15,56.4062 l 0,370.9419 z"
         inkscape:connector-curvature="0"
         id="path14"
         style="fill:#000000;fill-opacity:1;fill-rule:nonzero;stroke:none" /></g></g></svg>