<?xml version="1.0" encoding="UTF-8" standalone="no"?>
<!-- Created with Inkscape (http://www.inkscape.org/) -->

<svg
   xmlns:dc="http://purl.org/dc/elements/1.1/"
   xmlns:cc="http://creativecommons.org/ns#"
   xmlns:rdf="http://www.w3.org/1999/02/22-rdf-syntax-ns#"
   xmlns:svg="http://www.w3.org/2000/svg"
   xmlns="http://www.w3.org/2000/svg"
   xmlns:inkscape="http://www.inkscape.org/namespaces/inkscape"
   version="1.1"
   width="45"
   height="58.75"
   id="svg2"
   xml:space="preserve"><metadata
     id="metadata8"><rdf:RDF><cc:Work
         rdf:about=""><dc:format>image/svg+xml</dc:format><dc:type
           rdf:resource="http://purl.org/dc/dcmitype/StillImage" /></cc:Work></rdf:RDF></metadata><defs
     id="defs6" /><g
     transform="matrix(1.25,0,0,-1.25,0,58.75)"
     id="g10"><g
       transform="scale(0.1,0.1)"
       id="g12"><path
         d="M 173.91,467.461 C 69.0586,467.461 0,397.148 0,293.398 0,185.121 69.0586,116.051 176.25,116.051 c 103.75,0 173.91,70.16 173.91,175 0,106.097 -70.16,176.41 -176.25,176.41 z m 1.25,-36.871 c 59.84,0 94.371,-51.879 94.371,-141.719 0,-87.66 -33.441,-135.941 -93.281,-135.941 -61.09,0 -95.6289,49.531 -95.6289,141.718 0,84.063 35.7889,135.942 94.5389,135.942 z M 351.41,56.0508 0,56.0508 0,9.96094 l 351.41,0 0,46.08986 z"
         inkscape:connector-curvature="0"
         id="path14"
         style="fill:#000000;fill-opacity:1;fill-rule:nonzero;stroke:none" /></g></g></svg>