<?xml version="1.0" encoding="UTF-8" standalone="no"?>
<!-- Created with Inkscape (http://www.inkscape.org/) -->

<svg
   xmlns:dc="http://purl.org/dc/elements/1.1/"
   xmlns:cc="http://creativecommons.org/ns#"
   xmlns:rdf="http://www.w3.org/1999/02/22-rdf-syntax-ns#"
   xmlns:svg="http://www.w3.org/2000/svg"
   xmlns="http://www.w3.org/2000/svg"
   xmlns:inkscape="http://www.inkscape.org/namespaces/inkscape"
   version="1.1"
   width="113.75"
   height="100"
   id="svg2"
   xml:space="preserve"><metadata
     id="metadata8"><rdf:RDF><cc:Work
         rdf:about=""><dc:format>image/svg+xml</dc:format><dc:type
           rdf:resource="http://purl.org/dc/dcmitype/StillImage" /></cc:Work></rdf:RDF></metadata><defs
     id="defs6" /><g
     transform="matrix(1.25,0,0,-1.25,0,100)"
     id="g10"><g
       transform="scale(0.1,0.1)"
       id="g12"><path
         d="m 167.07,794.512 -28.75,0 C 90.9805,784.199 75.9805,781.859 2.37891,773.73 l 0,-29.839 33.28129,-1.25 c 48.4414,-2.352 54.2187,-7.969 54.2187,-58.75 l 0,-257.969 c 0,-35.781 -1.0898,-46.102 -8.1172,-51.883 -9.2226,-9.219 -36.8828,-18.43 -51.7226,-18.43 l -30.0000375,0 0,-31.097 255.7809375,0 0,31.097 -28.91,0 c -12.648,0 -37.961,5.782 -44.84,11.563 -11.558,7.969 -15,20.617 -15,56.398 l 0,370.942 z m 573.75,0 -67.968,0 L 138.32,9.98047 l 66.719,0 L 740.82,794.512 z m 58.75,-314.532 -75,0 C 715.352,468.422 675.039,413.262 601.449,312.949 l -114.07,-142.808 13.75,-34.532 221.25,0 0,-24.218 c 0,-54.2191 -8.117,-69.2191 -41.559,-70.3207 l -27.66,-1.0898 0,-30.00003 215.469,0 0,30.00003 -27.649,1.0898 c -32.191,1.1016 -41.41,16.1016 -41.41,70.3207 l 0,24.218 89.84,0 19.539,49.532 -109.379,0 0,294.839 z m -77.191,-294.839 -169.367,0 79.527,101.398 c 16.09,19.531 50.621,64.383 89.84,117.5 l 0,-218.898 z"
         inkscape:connector-curvature="0"
         id="path14"
         style="fill:#000000;fill-opacity:1;fill-rule:nonzero;stroke:none" /></g></g></svg>