<?xml version="1.0" encoding="UTF-8" standalone="no"?>
<!-- Created with Inkscape (http://www.inkscape.org/) -->

<svg
   xmlns:dc="http://purl.org/dc/elements/1.1/"
   xmlns:cc="http://creativecommons.org/ns#"
   xmlns:rdf="http://www.w3.org/1999/02/22-rdf-syntax-ns#"
   xmlns:svg="http://www.w3.org/2000/svg"
   xmlns="http://www.w3.org/2000/svg"
   xmlns:inkscape="http://www.inkscape.org/namespaces/inkscape"
   version="1.1"
   width="116.25"
   height="100"
   id="svg2"
   xml:space="preserve"><metadata
     id="metadata8"><rdf:RDF><cc:Work
         rdf:about=""><dc:format>image/svg+xml</dc:format><dc:type
           rdf:resource="http://purl.org/dc/dcmitype/StillImage" /></cc:Work></rdf:RDF></metadata><defs
     id="defs6" /><g
     transform="matrix(1.25,0,0,-1.25,0,100)"
     id="g10"><g
       transform="scale(0.1,0.1)"
       id="g12"><path
         d="m 167.07,794.512 -28.75,0 C 90.9805,784.199 75.9805,781.859 2.37891,773.73 l 0,-29.839 33.28129,-1.25 c 48.4414,-2.352 54.2187,-7.969 54.2187,-58.75 l 0,-257.969 c 0,-35.781 -1.0898,-46.102 -8.1172,-51.883 -9.2226,-9.219 -36.8828,-18.43 -51.7226,-18.43 l -30.0000375,0 0,-31.097 255.7809375,0 0,31.097 -28.91,0 c -12.648,0 -37.961,5.782 -44.84,11.563 -11.558,7.969 -15,20.617 -15,56.398 l 0,370.942 z m 551.879,0 -67.969,0 -534.531,-784.53153 66.711,0 535.789,784.53153 z m 208.43,-649.692 -35.617,7.969 -9.223,-19.527 C 859.41,82.4805 845.66,74.5117 782.23,74.5117 l -153.281,0 c 77.18,47.1873 99.211,61.0973 132.5,87.5003 85.313,67.968 126.711,130.16 126.711,190.16 0,79.527 -74.84,137.027 -179.68,137.027 -96.718,0 -178.601,-59.84 -178.601,-131.25 0,-35.777 23.133,-62.187 53.133,-62.187 24.058,0 45.937,19.527 45.937,40.308 0,7.969 -4.539,18.442 -11.41,25.321 -12.66,13.75 -15,18.429 -15,27.648 0,29.852 47.191,57.5 96.723,57.5 57.648,0 94.527,-34.527 94.527,-86.398 0,-59.852 -46.09,-132.5 -129.059,-202.661 -39.218,-33.441 -56.41,-46.089 -137.031,-92.1909 l 0,-55.30863 362.813,0 36.867,134.83953 z"
         inkscape:connector-curvature="0"
         id="path14"
         style="fill:#000000;fill-opacity:1;fill-rule:nonzero;stroke:none" /></g></g></svg>