<?xml version="1.0" encoding="UTF-8" standalone="no"?>
<!-- Created with Inkscape (http://www.inkscape.org/) -->

<svg
   xmlns:dc="http://purl.org/dc/elements/1.1/"
   xmlns:cc="http://creativecommons.org/ns#"
   xmlns:rdf="http://www.w3.org/1999/02/22-rdf-syntax-ns#"
   xmlns:svg="http://www.w3.org/2000/svg"
   xmlns="http://www.w3.org/2000/svg"
   xmlns:inkscape="http://www.inkscape.org/namespaces/inkscape"
   version="1.1"
   width="121.25"
   height="101.25"
   id="svg2"
   xml:space="preserve"><metadata
     id="metadata8"><rdf:RDF><cc:Work
         rdf:about=""><dc:format>image/svg+xml</dc:format><dc:type
           rdf:resource="http://purl.org/dc/dcmitype/StillImage" /></cc:Work></rdf:RDF></metadata><defs
     id="defs6" /><g
     transform="matrix(1.25,0,0,-1.25,0,101.25)"
     id="g10"><g
       transform="scale(0.1,0.1)"
       id="g12"><path
         d="m 270.699,584.859 c 64.531,17.34 101.41,55.313 101.41,103.75 0,66.719 -74.839,115.161 -175.16,115.161 -92.179,0 -165.9295,-50.629 -165.9295,-114.071 0,-27.648 19.6797,-48.429 46.0899,-48.429 24.2186,0 43.9106,16.25 43.9106,36.871 0,4.687 -1.25,11.558 -3.598,17.347 -5.621,17.34 -5.621,17.34 -5.621,20.782 0,25.308 36.871,44.839 82.808,44.839 55.313,0 91.09,-31.089 91.09,-78.281 0,-50.777 -42.648,-82.969 -110.621,-82.969 -6.879,0 -28.75,1.09 -41.406,2.34 l 0,-41.558 c 46.098,3.437 46.098,3.437 52.969,3.437 75.937,0 119.839,-37.969 119.839,-102.5 0,-65.629 -45,-103.59 -121.089,-103.59 -54.063,0 -99.0629,20.621 -99.0629,46.09 0,1.094 0,3.442 1.25,5.621 5.7813,16.25 5.7813,16.25 5.7813,24.223 0,24.219 -19.6875,41.566 -45,41.566 -26.5586,0 -48.437525,-23.129 -48.437525,-51.879 0,-61.089 81.878925,-108.281 187.808125,-108.281 123.29,0 213.129,61.094 213.129,146.25 0,57.66 -43.75,103.75 -115.16,119.844 l -15,3.437 z m 555.321,209.692 -67.969,0 -534.531,-784.5315 66.71,0 535.79,784.5315 z m 28.75,-314.531 -74.848,0 C 770.699,468.449 730.391,413.301 656.641,312.988 l -114.063,-142.816 13.902,-34.531 221.098,0 0,-24.219 c 0,-54.2228 -7.969,-69.2228 -41.406,-70.3126 l -27.652,-1.0899 0,-30 215.46,0 0,30 -27.652,1.0899 C 863.98,42.1992 854.77,57.1992 854.77,111.422 l 0,24.219 89.839,0 19.692,49.531 -109.531,0 0,294.848 z m -77.192,-294.848 -169.379,0 5.781,6.879 30,37.969 133.598,174.058 0,-218.906 z"
         inkscape:connector-curvature="0"
         id="path14"
         style="fill:#000000;fill-opacity:1;fill-rule:nonzero;stroke:none" /></g></g></svg>