<?xml version="1.0" encoding="UTF-8" standalone="no"?>
<!-- Created with Inkscape (http://www.inkscape.org/) -->

<svg
   xmlns:dc="http://purl.org/dc/elements/1.1/"
   xmlns:cc="http://creativecommons.org/ns#"
   xmlns:rdf="http://www.w3.org/1999/02/22-rdf-syntax-ns#"
   xmlns:svg="http://www.w3.org/2000/svg"
   xmlns="http://www.w3.org/2000/svg"
   xmlns:inkscape="http://www.inkscape.org/namespaces/inkscape"
   version="1.1"
   width="71.25"
   height="103.75"
   id="svg2"
   xml:space="preserve"><metadata
     id="metadata8"><rdf:RDF><cc:Work
         rdf:about=""><dc:format>image/svg+xml</dc:format><dc:type
           rdf:resource="http://purl.org/dc/dcmitype/StillImage" /></cc:Work></rdf:RDF></metadata><defs
     id="defs6" /><g
     transform="matrix(1.25,0,0,-1.25,0,103.75)"
     id="g10"><g
       transform="scale(0.1,0.1)"
       id="g12"><path
         d="m 321.48,824.422 c -40.308,0 -73.75,-33.434 -73.75,-74.844 0,-39.219 33.442,-73.75 72.5,-73.75 42.661,0 76.098,33.442 76.098,73.75 0,41.41 -33.437,74.844 -74.848,74.844 z M 294.922,609.109 C 296.02,505.359 271.949,466.141 193.52,436.301 l -37.969,-13.91 C 102.578,403.961 68.0508,380.988 43.8281,352.078 16.1719,315.211 0.078125,269.109 0.078125,224.27 0.078125,156.301 34.6094,92.8594 91.0195,59.5781 142.891,28.4883 210.859,10.0508 276.48,10.0508 c 76.098,0 159.071,24.0586 205,59.8398 49.692,39.2184 79.54,89.8474 79.54,135.9374 0,48.442 -29.848,84.063 -71.411,84.063 -33.437,0 -62.187,-26.403 -62.187,-55.313 0,-11.406 2.348,-18.437 13.75,-42.656 8.129,-14.844 10.469,-24.063 10.469,-36.711 0,-55.3204 -72.661,-99.2227 -163.59,-99.2227 -104.852,0 -163.602,57.6527 -163.602,157.9727 0,63.277 27.66,115.148 79.531,150.777 l 65.629,45 c 62.192,41.403 79.532,74.84 79.532,148.59 0,15 -1.25,27.66 -2.34,50.781 l -51.879,0 z"
         inkscape:connector-curvature="0"
         id="path14"
         style="fill:#000000;fill-opacity:1;fill-rule:nonzero;stroke:none" /></g></g></svg>