<?xml version="1.0" encoding="UTF-8" standalone="no"?>
<!-- Created with Inkscape (http://www.inkscape.org/) -->

<svg
   xmlns:dc="http://purl.org/dc/elements/1.1/"
   xmlns:cc="http://creativecommons.org/ns#"
   xmlns:rdf="http://www.w3.org/1999/02/22-rdf-syntax-ns#"
   xmlns:svg="http://www.w3.org/2000/svg"
   xmlns="http://www.w3.org/2000/svg"
   xmlns:inkscape="http://www.inkscape.org/namespaces/inkscape"
   version="1.1"
   width="108.75"
   height="125"
   id="svg2"
   xml:space="preserve"><metadata
     id="metadata8"><rdf:RDF><cc:Work
         rdf:about=""><dc:format>image/svg+xml</dc:format><dc:type
           rdf:resource="http://purl.org/dc/dcmitype/StillImage" /></cc:Work></rdf:RDF></metadata><defs
     id="defs6" /><g
     transform="matrix(1.25,0,0,-1.25,0,125)"
     id="g10"><g
       transform="scale(0.1,0.1)"
       id="g12"><path
         d="m 490.738,794.512 -107.187,0 L 185.43,286.539 C 108.238,89.5117 89.8008,62.9492 12.6211,47.9492 l -12.6601625,-2.1875 0,-35.78123 308.7500625,0 0,35.78123 c -41.41,5.6289 -61.09,10.3086 -73.75,18.4375 -17.191,11.4102 -28.75,32.1914 -28.75,52.9728 0,17.187 8.129,49.527 21.879,85.148 l 36.871,99.071 297.187,0 57.653,-148.602 c 6.879,-19.527 12.66,-40.309 12.66,-49.527 0,-16.0901 -9.223,-31.0901 -24.223,-40.3128 C 597.93,54.9805 581.84,51.3906 541.52,45.7617 l 0,-35.78123 323.601,0 0,35.78123 C 790.27,57.1719 776.52,69.8203 734.961,177.012 l -244.223,617.5 z m -208.437,-443.59 127.82,345.617 131.399,-345.617 -259.219,0 z m 305.16,634.84 c -12.66,-16.09 -32.191,-25.313 -55.16,-25.313 -15,0 -28.903,2.192 -56.563,10.313 -58.75,16.097 -82.968,20.777 -109.367,20.777 -45,0 -84.07,-31.09 -99.07,-78.43 l 33.437,-11.41 c 14.852,17.192 27.66,22.973 44.852,22.973 16.09,0 26.558,-2.352 62.18,-11.563 56.57,-16.097 81.878,-20.629 109.531,-20.629 55.32,0 86.41,25.309 103.597,82.969 l -33.437,10.313 z"
         inkscape:connector-curvature="0"
         id="path14"
         style="fill:#000000;fill-opacity:1;fill-rule:nonzero;stroke:none" /></g></g></svg>