<?xml version="1.0" encoding="UTF-8" standalone="no"?>
<!-- Created with Inkscape (http://www.inkscape.org/) -->

<svg
   xmlns:dc="http://purl.org/dc/elements/1.1/"
   xmlns:cc="http://creativecommons.org/ns#"
   xmlns:rdf="http://www.w3.org/1999/02/22-rdf-syntax-ns#"
   xmlns:svg="http://www.w3.org/2000/svg"
   xmlns="http://www.w3.org/2000/svg"
   xmlns:inkscape="http://www.inkscape.org/namespaces/inkscape"
   version="1.1"
   width="108.75"
   height="127.5"
   id="svg2"
   xml:space="preserve"><metadata
     id="metadata8"><rdf:RDF><cc:Work
         rdf:about=""><dc:format>image/svg+xml</dc:format><dc:type
           rdf:resource="http://purl.org/dc/dcmitype/StillImage" /></cc:Work></rdf:RDF></metadata><defs
     id="defs6" /><g
     transform="matrix(1.25,0,0,-1.25,0,127.5)"
     id="g10"><g
       transform="scale(0.1,0.1)"
       id="g12"><path
         d="m 490.738,794.52 -107.187,0 L 185.43,286.559 C 108.238,89.5195 89.8008,62.9609 12.6211,47.9609 l -12.6601625,-2.1914 0,-35.78122 308.7500625,0 0,35.78122 c -41.41,5.6289 -61.09,10.3203 -73.75,18.4414 -17.191,11.4102 -28.75,32.1875 -28.75,52.9691 0,17.191 8.129,49.531 21.879,85.16 l 36.871,99.058 297.187,0 57.653,-148.589 c 6.879,-19.539 12.66,-40.321 12.66,-49.539 0,-16.0903 -9.223,-31.0903 -24.223,-40.3091 C 597.93,54.9883 581.84,51.3984 541.52,45.7695 l 0,-35.78122 323.601,0 0,35.78122 C 790.27,57.1797 776.52,69.8398 734.961,177.02 L 490.738,794.52 z M 282.301,350.93 410.121,696.559 541.52,350.93 l -259.219,0 z m 57.5,662.5 c -37.961,0 -69.063,-30 -69.063,-67.969 0,-36.871 31.102,-67.973 67.973,-67.973 36.879,0 67.969,31.102 67.969,67.973 0,36.879 -31.09,67.969 -66.879,67.969 z m 187.82,0 c -37.973,0 -69.07,-30 -69.07,-67.969 0,-36.871 31.097,-67.973 67.969,-67.973 36.878,0 67.968,31.102 67.968,67.973 0,36.879 -31.09,67.969 -66.867,67.969 z"
         inkscape:connector-curvature="0"
         id="path14"
         style="fill:#000000;fill-opacity:1;fill-rule:nonzero;stroke:none" /></g></g></svg>