<?xml version="1.0" encoding="UTF-8" standalone="no"?>
<!-- Created with Inkscape (http://www.inkscape.org/) -->

<svg
   xmlns:dc="http://purl.org/dc/elements/1.1/"
   xmlns:cc="http://creativecommons.org/ns#"
   xmlns:rdf="http://www.w3.org/1999/02/22-rdf-syntax-ns#"
   xmlns:svg="http://www.w3.org/2000/svg"
   xmlns="http://www.w3.org/2000/svg"
   xmlns:inkscape="http://www.inkscape.org/namespaces/inkscape"
   version="1.1"
   width="186.25"
   height="100"
   id="svg2"
   xml:space="preserve"><metadata
     id="metadata8"><rdf:RDF><cc:Work
         rdf:about=""><dc:format>image/svg+xml</dc:format><dc:type
           rdf:resource="http://purl.org/dc/dcmitype/StillImage" /></cc:Work></rdf:RDF></metadata><defs
     id="defs6" /><g
     transform="matrix(1.25,0,0,-1.25,0,100)"
     id="g10"><g
       transform="scale(0.1,0.1)"
       id="g12"><path
         d="M 786.801,794.512 259.141,198.891 C 173.98,100.922 109.449,62.9492 0.078125,45.7617 l 0,-35.78123 384.691875,0 0,35.78123 c -74.848,3.4375 -105.942,18.4375 -105.942,49.5274 0,22.9729 12.652,44.8519 50.621,92.0309 l 187.821,215.469 286.871,0 0,-226.867 c 0,-94.5314 -15,-118.7501 -74.84,-126.7228 l -28.91,-3.4375 0,-35.78123 683.279,0 97.81,253.44153 -39.06,15 C 1399.77,217.32 1370.86,183.891 1332.89,150.609 1268.36,94.0391 1178.52,59.5117 1093.36,59.5117 l -43.91,0 c -43.75,0 -85.149,8.1289 -103.591,20.7774 -19.687,12.6601 -26.558,31.1019 -26.558,66.7229 l 0,255.777 79.527,0 c 50.622,0 85.312,-10.309 102.502,-32.18 20.78,-24.218 34.53,-66.879 34.53,-107.187 l 0,-13.75 40.31,0 0,350.148 -40.31,0 0,-10.308 c 0,-42.653 -17.19,-94.532 -36.88,-112.973 -20.62,-18.43 -44.84,-24.219 -100.152,-24.219 l -79.527,0 0,193.602 c 0,76.09 28.898,99.058 125.619,99.058 168.13,0 277.66,-50.621 357.19,-167.031 l 40.31,11.563 -86.4,205 -569.219,0 z M 564.449,452.32 l 239.692,281.102 0,-281.102 -239.692,0 z"
         inkscape:connector-curvature="0"
         id="path14"
         style="fill:#000000;fill-opacity:1;fill-rule:nonzero;stroke:none" /></g></g></svg>