<?xml version="1.0" encoding="UTF-8" standalone="no"?>
<!-- Created with Inkscape (http://www.inkscape.org/) -->

<svg
   xmlns:dc="http://purl.org/dc/elements/1.1/"
   xmlns:cc="http://creativecommons.org/ns#"
   xmlns:rdf="http://www.w3.org/1999/02/22-rdf-syntax-ns#"
   xmlns:svg="http://www.w3.org/2000/svg"
   xmlns="http://www.w3.org/2000/svg"
   xmlns:inkscape="http://www.inkscape.org/namespaces/inkscape"
   version="1.1"
   width="95"
   height="130"
   id="svg2"
   xml:space="preserve"><metadata
     id="metadata8"><rdf:RDF><cc:Work
         rdf:about=""><dc:format>image/svg+xml</dc:format><dc:type
           rdf:resource="http://purl.org/dc/dcmitype/StillImage" /></cc:Work></rdf:RDF></metadata><defs
     id="defs6" /><g
     transform="matrix(1.25,0,0,-1.25,0,130)"
     id="g10"><g
       transform="scale(0.1,0.1)"
       id="g12"><path
         d="m 398.52,225.398 c 156.71,0 278.902,66.872 359.531,198.122 l -49.531,27.66 c -33.442,-49.532 -56.411,-74.852 -94.54,-102.5 -55.308,-41.41 -130.152,-67.969 -190,-67.969 -71.402,0 -154.371,37.969 -203.902,93.277 -54.219,58.75 -84.219,152.192 -84.219,255.782 0,203.91 112.969,354.839 265,354.839 85.313,0 170.469,-48.429 224.692,-126.711 21.871,-32.347 35.777,-56.41 71.398,-120.937 l 36.879,0 -55.308,277.649 -37.969,0 -24.223,-48.43 c -67.969,51.87 -138.277,73.75 -237.348,73.75 -92.179,0 -200.46,-50.782 -270.781,-126.719 C 38.0508,838.359 -0.078125,736.961 -0.078125,628.68 -0.078125,412.109 145.078,251.961 363.98,227.738 l -24.21,-77.187 c 23.121,8.129 38.121,11.558 54.21,11.558 45,0 69.071,-20.781 69.071,-58.75 0,-35.7809 -22.973,-62.3395 -52.973,-62.3395 -22.969,0 -33.437,8.1289 -44.848,34.6914 -8.121,20.6172 -17.339,27.6481 -35.781,27.6481 -16.09,0 -28.75,-12.6481 -28.75,-28.8981 0,-34.5312 51.879,-64.53121 111.723,-64.53121 63.277,0 105.937,39.21871 105.937,97.96831 0,52.961 -39.058,85.313 -102.5,85.313 -2.339,0 -6.879,0 -12.66,-1.25 -2.34,0 -8.121,0 -15,-1.102 l 10.321,34.539 z"
         inkscape:connector-curvature="0"
         id="path14"
         style="fill:#000000;fill-opacity:1;fill-rule:nonzero;stroke:none" /></g></g></svg>