<?xml version="1.0" encoding="UTF-8" standalone="no"?>
<!-- Created with Inkscape (http://www.inkscape.org/) -->

<svg
   xmlns:dc="http://purl.org/dc/elements/1.1/"
   xmlns:cc="http://creativecommons.org/ns#"
   xmlns:rdf="http://www.w3.org/1999/02/22-rdf-syntax-ns#"
   xmlns:svg="http://www.w3.org/2000/svg"
   xmlns="http://www.w3.org/2000/svg"
   xmlns:inkscape="http://www.inkscape.org/namespaces/inkscape"
   version="1.1"
   width="97.5"
   height="127.5"
   id="svg2"
   xml:space="preserve"><metadata
     id="metadata8"><rdf:RDF><cc:Work
         rdf:about=""><dc:format>image/svg+xml</dc:format><dc:type
           rdf:resource="http://purl.org/dc/dcmitype/StillImage" /></cc:Work></rdf:RDF></metadata><defs
     id="defs6" /><g
     transform="matrix(1.25,0,0,-1.25,0,127.5)"
     id="g10"><g
       transform="scale(0.1,0.1)"
       id="g12"><path
         d="m 657.891,794.52 -657.812875,0 0,-35.782 28.749975,-3.429 C 88.6719,747.34 103.672,723.121 103.672,628.59 l 0,-452.66 C 103.672,81.3984 88.6719,57.1797 28.8281,49.2109 l -28.749975,-3.4414 0,-35.78122 671.562875,0 104.839,245.32072 -35.781,16.25 C 615.23,110.148 520.699,59.5195 349.141,59.5195 c -57.661,0 -96.871,10.3203 -115.313,32.1914 -10.308,13.9101 -15,32.3481 -15,69.2191 l 0,243.129 85.313,0 c 91.089,0 130.16,-40.321 141.718,-148.75 l 39.219,0 0,344.531 -39.219,0 C 429.77,479.988 404.301,453.59 306.48,453.59 l -87.652,0 0,195.781 c 0,73.75 30,95.617 131.402,95.617 156.719,0 244.219,-43.75 350.161,-172.808 l 36.879,15 -79.379,207.34 z m -373.282,218.91 c -38.129,0 -69.218,-30 -69.218,-67.969 0,-36.871 31.089,-67.973 67.968,-67.973 36.871,0 67.969,31.102 67.969,67.973 0,36.879 -31.098,67.969 -66.719,67.969 z m 187.661,0 c -37.969,0 -69.071,-30 -69.071,-67.969 0,-36.871 31.102,-67.973 67.973,-67.973 36.879,0 67.969,31.102 67.969,67.973 0,36.879 -31.09,67.969 -66.871,67.969 z"
         inkscape:connector-curvature="0"
         id="path14"
         style="fill:#000000;fill-opacity:1;fill-rule:nonzero;stroke:none" /></g></g></svg>