<?xml version="1.0" encoding="UTF-8" standalone="no"?>
<!-- Created with Inkscape (http://www.inkscape.org/) -->

<svg
   xmlns:dc="http://purl.org/dc/elements/1.1/"
   xmlns:cc="http://creativecommons.org/ns#"
   xmlns:rdf="http://www.w3.org/1999/02/22-rdf-syntax-ns#"
   xmlns:svg="http://www.w3.org/2000/svg"
   xmlns="http://www.w3.org/2000/svg"
   xmlns:inkscape="http://www.inkscape.org/namespaces/inkscape"
   version="1.1"
   width="40"
   height="127.5"
   id="svg2"
   xml:space="preserve"><metadata
     id="metadata8"><rdf:RDF><cc:Work
         rdf:about=""><dc:format>image/svg+xml</dc:format><dc:type
           rdf:resource="http://purl.org/dc/dcmitype/StillImage" /></cc:Work></rdf:RDF></metadata><defs
     id="defs6" /><g
     transform="matrix(1.25,0,0,-1.25,0,127.5)"
     id="g10"><g
       transform="scale(0.1,0.1)"
       id="g12"><path
         d="m 213.199,628.59 c 0,95.621 12.66,116.398 74.852,126.719 l 22.969,3.429 0,35.793 -310.941875,0 0,-35.793 22.972675,-3.429 C 85.2305,744.988 97.8906,724.211 97.8906,628.59 l 0,-452.66 C 97.8906,80.3086 85.2305,59.5313 23.0508,49.2109 l -22.972675,-3.4296 0,-35.79302 310.941875,0 0,35.79302 -22.969,3.4296 C 225.859,59.5313 213.199,80.3086 213.199,175.93 l 0,452.66 z M 48.3594,877.488 208.52,910.93 c 49.531,10.308 71.402,27.66 71.402,57.5 0,24.218 -17.192,42.66 -40.313,42.66 -22.968,0 -54.058,-13.75 -87.5,-39.219 L 42.5781,893.59 48.3594,877.488 z"
         inkscape:connector-curvature="0"
         id="path14"
         style="fill:#000000;fill-opacity:1;fill-rule:nonzero;stroke:none" /></g></g></svg>