<?xml version="1.0" encoding="UTF-8" standalone="no"?>
<!-- Created with Inkscape (http://www.inkscape.org/) -->

<svg
   xmlns:dc="http://purl.org/dc/elements/1.1/"
   xmlns:cc="http://creativecommons.org/ns#"
   xmlns:rdf="http://www.w3.org/1999/02/22-rdf-syntax-ns#"
   xmlns:svg="http://www.w3.org/2000/svg"
   xmlns="http://www.w3.org/2000/svg"
   xmlns:inkscape="http://www.inkscape.org/namespaces/inkscape"
   version="1.1"
   width="41.25"
   height="127.5"
   id="svg2"
   xml:space="preserve"><metadata
     id="metadata8"><rdf:RDF><cc:Work
         rdf:about=""><dc:format>image/svg+xml</dc:format><dc:type
           rdf:resource="http://purl.org/dc/dcmitype/StillImage" /></cc:Work></rdf:RDF></metadata><defs
     id="defs6" /><g
     transform="matrix(1.25,0,0,-1.25,0,127.5)"
     id="g10"><g
       transform="scale(0.1,0.1)"
       id="g12"><path
         d="m 216.641,628.59 c 0,95.621 12.66,116.398 74.839,126.719 l 22.969,3.429 0,35.782 -310.92947,0 0,-35.782 22.96097,-3.429 C 88.6719,744.988 101.328,724.211 101.328,628.59 l 0,-452.66 C 101.328,80.3086 88.6719,59.5195 26.4805,49.2109 l -22.96097,-3.4414 0,-35.78122 310.92947,0 0,35.78122 -22.969,3.4414 C 229.301,59.5195 216.641,80.3086 216.641,175.93 l 0,452.66 z M 163.52,1013.43 -0.078125,905.148 14.9219,876.238 163.52,929.371 l 147.5,-53.133 16.089,28.91 -163.589,108.282 z"
         inkscape:connector-curvature="0"
         id="path14"
         style="fill:#000000;fill-opacity:1;fill-rule:nonzero;stroke:none" /></g></g></svg>