<?xml version="1.0" encoding="UTF-8" standalone="no"?>
<!-- Created with Inkscape (http://www.inkscape.org/) -->

<svg
   xmlns:dc="http://purl.org/dc/elements/1.1/"
   xmlns:cc="http://creativecommons.org/ns#"
   xmlns:rdf="http://www.w3.org/1999/02/22-rdf-syntax-ns#"
   xmlns:svg="http://www.w3.org/2000/svg"
   xmlns="http://www.w3.org/2000/svg"
   xmlns:inkscape="http://www.inkscape.org/namespaces/inkscape"
   version="1.1"
   width="105"
   height="100"
   id="svg2"
   xml:space="preserve"><metadata
     id="metadata8"><rdf:RDF><cc:Work
         rdf:about=""><dc:format>image/svg+xml</dc:format><dc:type
           rdf:resource="http://purl.org/dc/dcmitype/StillImage" /></cc:Work></rdf:RDF></metadata><defs
     id="defs6" /><g
     transform="matrix(1.25,0,0,-1.25,0,100)"
     id="g10"><g
       transform="scale(0.1,0.1)"
       id="g12"><path
         d="m 103.672,455.762 -103.593875,0 0,-54.063 103.593875,0 0,-225.777 C 103.672,81.3906 89.9219,57.1719 28.8281,49.1992 l -28.749975,-3.4375 0,-35.78123 351.249875,0 c 178.594,0 274.223,25.30863 354.844,95.62853 77.187,66.871 124.379,177.34 124.379,290.313 0,109.367 -44.852,223.437 -115.16,290.308 -78.282,74.84 -190,108.282 -364.063,108.282 l -351.249875,0 0,-35.782 28.749975,-3.441 C 88.6719,747.32 103.672,723.109 103.672,627.48 l 0,-171.718 z m 115.156,0 0,185.468 c 0,43.911 3.594,65.782 13.902,77.192 13.75,17.34 65.629,28.898 123.29,28.898 125.46,0 217.652,-41.558 275.308,-122.179 40.313,-58.75 63.281,-137.032 63.281,-221.102 0,-92.18 -27.5,-179.84 -73.589,-238.59 C 564.449,95.2891 471.172,57.1719 354.77,57.1719 c -56.411,0 -103.598,10.4687 -119.692,25.3086 -12.656,11.5586 -16.25,29.9995 -16.25,77.1915 l 0,242.027 230.473,0 0,54.063 -230.473,0 z"
         inkscape:connector-curvature="0"
         id="path14"
         style="fill:#000000;fill-opacity:1;fill-rule:nonzero;stroke:none" /></g></g></svg>