<?xml version="1.0" encoding="UTF-8" standalone="no"?>
<!-- Created with Inkscape (http://www.inkscape.org/) -->

<svg
   xmlns:dc="http://purl.org/dc/elements/1.1/"
   xmlns:cc="http://creativecommons.org/ns#"
   xmlns:rdf="http://www.w3.org/1999/02/22-rdf-syntax-ns#"
   xmlns:svg="http://www.w3.org/2000/svg"
   xmlns="http://www.w3.org/2000/svg"
   xmlns:inkscape="http://www.inkscape.org/namespaces/inkscape"
   version="1.1"
   width="101.25"
   height="125"
   id="svg2"
   xml:space="preserve"><metadata
     id="metadata8"><rdf:RDF><cc:Work
         rdf:about=""><dc:format>image/svg+xml</dc:format><dc:type
           rdf:resource="http://purl.org/dc/dcmitype/StillImage" /></cc:Work></rdf:RDF></metadata><defs
     id="defs6" /><g
     transform="matrix(1.25,0,0,-1.25,0,125)"
     id="g10"><g
       transform="scale(0.1,0.1)"
       id="g12"><path
         d="M 169.41,708.109 596.762,9.98047 l 101.398,0 0,618.58953 c 0,94.539 15,118.75 74.852,126.719 l 28.75,3.441 0,35.782 -284.532,0 0,-35.782 40.309,-3.441 c 58.75,-5.777 74.84,-33.277 74.84,-126.719 l 0,-455 -375.469,620.942 -256.8709375,0 0,-35.782 L 28.7891,755.289 C 88.6289,747.32 103.629,723.109 103.629,628.57 l 0,-452.648 C 103.629,81.3906 88.6289,57.1719 28.7891,49.1992 l -28.7500375,-3.4375 0,-35.78123 284.5309375,0 0,35.78123 -40.308,3.4375 C 185.512,54.9805 169.41,82.4805 169.41,175.922 l 0,532.187 z m 372.039,277.653 c -12.66,-16.09 -32.187,-25.313 -55.32,-25.313 -15,0 -28.75,2.192 -56.399,10.313 -58.75,16.097 -82.968,20.777 -109.531,20.777 -44.847,0 -84.07,-31.09 -99.07,-78.43 l 33.441,-11.41 c 15,17.192 27.66,22.973 45,22.973 16.09,0 26.41,-2.352 62.192,-11.563 56.398,-16.097 81.718,-20.629 109.367,-20.629 55.32,0 86.41,25.309 103.75,82.969 l -33.43,10.313 z"
         inkscape:connector-curvature="0"
         id="path14"
         style="fill:#000000;fill-opacity:1;fill-rule:nonzero;stroke:none" /></g></g></svg>