<?xml version="1.0" encoding="UTF-8" standalone="no"?>
<!-- Created with Inkscape (http://www.inkscape.org/) -->

<svg
   xmlns:dc="http://purl.org/dc/elements/1.1/"
   xmlns:cc="http://creativecommons.org/ns#"
   xmlns:rdf="http://www.w3.org/1999/02/22-rdf-syntax-ns#"
   xmlns:svg="http://www.w3.org/2000/svg"
   xmlns="http://www.w3.org/2000/svg"
   xmlns:inkscape="http://www.inkscape.org/namespaces/inkscape"
   version="1.1"
   width="103.75"
   height="128.75"
   id="svg2"
   xml:space="preserve"><metadata
     id="metadata8"><rdf:RDF><cc:Work
         rdf:about=""><dc:format>image/svg+xml</dc:format><dc:type
           rdf:resource="http://purl.org/dc/dcmitype/StillImage" /></cc:Work></rdf:RDF></metadata><defs
     id="defs6" /><g
     transform="matrix(1.25,0,0,-1.25,0,128.75)"
     id="g10"><g
       transform="scale(0.1,0.1)"
       id="g12"><path
         d="M 414.77,824.5 C 183.199,824.5 -0.078125,645.91 -0.078125,420.129 -0.078125,187.469 177.422,9.96875 410.078,9.96875 c 126.723,0 251.25,57.66015 327.192,150.94125 56.402,69.059 85.308,156.719 85.308,253.43 0,237.351 -171.719,410.16 -407.808,410.16 z m -2.348,-55.309 c 168.129,0 274.219,-139.382 274.219,-361.722 0,-207.34 -108.282,-342.1877 -275.313,-342.1877 -168.277,0 -275.469,138.2777 -275.469,353.7497 0,211.879 109.532,350.16 276.563,350.16 z m -1.094,259.219 -163.598,-107.191 14.848,-28.75 148.75,51.871 147.344,-51.871 16.25,28.75 -163.594,107.191 z"
         inkscape:connector-curvature="0"
         id="path14"
         style="fill:#000000;fill-opacity:1;fill-rule:nonzero;stroke:none" /></g></g></svg>