<?xml version="1.0" encoding="UTF-8" standalone="no"?>
<!-- Created with Inkscape (http://www.inkscape.org/) -->

<svg
   xmlns:dc="http://purl.org/dc/elements/1.1/"
   xmlns:cc="http://creativecommons.org/ns#"
   xmlns:rdf="http://www.w3.org/1999/02/22-rdf-syntax-ns#"
   xmlns:svg="http://www.w3.org/2000/svg"
   xmlns="http://www.w3.org/2000/svg"
   xmlns:inkscape="http://www.inkscape.org/namespaces/inkscape"
   version="1.1"
   width="103.75"
   height="126.25"
   id="svg2"
   xml:space="preserve"><metadata
     id="metadata8"><rdf:RDF><cc:Work
         rdf:about=""><dc:format>image/svg+xml</dc:format><dc:type
           rdf:resource="http://purl.org/dc/dcmitype/StillImage" /></cc:Work></rdf:RDF></metadata><defs
     id="defs6" /><g
     transform="matrix(1.25,0,0,-1.25,0,126.25)"
     id="g10"><g
       transform="scale(0.1,0.1)"
       id="g12"><path
         d="M 414.77,824.488 C 183.199,824.488 -0.078125,645.891 -0.078125,420.109 -0.078125,187.461 177.422,9.96094 410.078,9.96094 c 126.723,0 251.25,57.64846 327.192,150.93006 56.402,69.07 85.308,156.718 85.308,253.437 0,237.352 -171.719,410.16 -407.808,410.16 z m -2.348,-55.308 c 168.129,0 274.219,-139.379 274.219,-361.719 0,-207.352 -108.282,-342.1915 -275.313,-342.1915 -168.277,0 -275.469,138.2815 -275.469,353.7505 0,211.871 109.532,350.16 276.563,350.16 z m 150.937,231.56 c -12.66,-16.099 -32.339,-25.31 -55.308,-25.31 -15,0 -28.75,2.179 -56.41,10.308 -58.75,16.092 -82.969,20.782 -109.532,20.782 -44.839,0 -84.058,-31.09 -99.058,-78.442 L 276.48,916.68 c 15,17.179 27.661,22.961 44.848,22.961 16.25,0 26.563,-2.34 62.344,-11.563 56.406,-16.09 81.719,-20.617 109.379,-20.617 55.308,0 86.398,25.309 103.75,82.969 l -33.442,10.31 z"
         inkscape:connector-curvature="0"
         id="path14"
         style="fill:#000000;fill-opacity:1;fill-rule:nonzero;stroke:none" /></g></g></svg>