<?xml version="1.0" encoding="UTF-8" standalone="no"?>
<!-- Created with Inkscape (http://www.inkscape.org/) -->

<svg
   xmlns:dc="http://purl.org/dc/elements/1.1/"
   xmlns:cc="http://creativecommons.org/ns#"
   xmlns:rdf="http://www.w3.org/1999/02/22-rdf-syntax-ns#"
   xmlns:svg="http://www.w3.org/2000/svg"
   xmlns="http://www.w3.org/2000/svg"
   xmlns:inkscape="http://www.inkscape.org/namespaces/inkscape"
   version="1.1"
   width="103.75"
   height="115"
   id="svg2"
   xml:space="preserve"><metadata
     id="metadata8"><rdf:RDF><cc:Work
         rdf:about=""><dc:format>image/svg+xml</dc:format><dc:type
           rdf:resource="http://purl.org/dc/dcmitype/StillImage" /></cc:Work></rdf:RDF></metadata><defs
     id="defs6" /><g
     transform="matrix(1.25,0,0,-1.25,0,115)"
     id="g10"><g
       transform="scale(0.1,0.1)"
       id="g12"><path
         d="m 802.891,916.66 -70.161,0 -86.402,-109.531 c -72.656,45 -142.969,63.441 -230.469,63.441 -235,0 -415.937125,-178.59 -415.937125,-409.058 0,-119.692 42.656225,-215.321 133.750125,-302.973 L 14.9219,9.94141 l 72.6562,0 L 177.422,122.91 c 79.527,-47.3397 146.25,-66.8709 231.558,-66.8709 108.29,0 215.469,41.5625 292.661,114.0629 79.379,74.839 120.937,173.91 120.937,292.66 0,126.718 -39.219,216.558 -133.75,312.179 L 802.891,916.66 z M 194.609,235.73 c -44.839,78.43 -58.75,131.399 -58.75,222.34 0,221.25 106.09,357.192 277.661,357.192 73.75,0 123.281,-20.782 180.929,-73.75 L 194.609,235.73 z M 628.98,694.32 c 42.661,-77.191 57.661,-139.379 57.661,-242.031 0,-206.098 -108.282,-340.937 -274.219,-340.937 -74.844,0 -129.063,23.128 -183.121,78.277 L 628.98,694.32 z"
         inkscape:connector-curvature="0"
         id="path14"
         style="fill:#000000;fill-opacity:1;fill-rule:nonzero;stroke:none" /></g></g></svg>