<?xml version="1.0" encoding="UTF-8" standalone="no"?>
<!-- Created with Inkscape (http://www.inkscape.org/) -->

<svg
   xmlns:dc="http://purl.org/dc/elements/1.1/"
   xmlns:cc="http://creativecommons.org/ns#"
   xmlns:rdf="http://www.w3.org/1999/02/22-rdf-syntax-ns#"
   xmlns:svg="http://www.w3.org/2000/svg"
   xmlns="http://www.w3.org/2000/svg"
   xmlns:inkscape="http://www.inkscape.org/namespaces/inkscape"
   version="1.1"
   width="105"
   height="128.75"
   id="svg2"
   xml:space="preserve"><metadata
     id="metadata8"><rdf:RDF><cc:Work
         rdf:about=""><dc:format>image/svg+xml</dc:format><dc:type
           rdf:resource="http://purl.org/dc/dcmitype/StillImage" /></cc:Work></rdf:RDF></metadata><defs
     id="defs6" /><g
     transform="matrix(1.25,0,0,-1.25,0,128.75)"
     id="g10"><g
       transform="scale(0.1,0.1)"
       id="g12"><path
         d="m 736.211,643.559 c 0,94.543 15,118.75 74.84,126.722 l 28.75,3.438 0,35.781 -282.18,0 0,-35.781 37.969,-3.438 C 654.34,764.5 670.43,737 670.43,643.559 l 0,-305.309 c 0,-124.371 -9.219,-169.219 -42.5,-208.441 C 592.148,88.4102 525.27,65.2813 440.121,65.2813 c -94.531,0 -163.601,30 -193.601,85.3207 -20.782,36.867 -27.649,80.617 -27.649,185.457 l 0,307.5 c 0,93.441 17.34,122.191 74.84,126.722 l 42.66,3.438 0,35.781 -336.4100625,0 0,-35.781 28.9101625,-3.438 c 59.8398,-7.972 74.8399,-32.179 74.8399,-126.722 l 0,-385.93 c 0,-96.719 26.41,-148.598 101.41,-195.7774 57.5,-36.8828 122.027,-51.88285 217.649,-51.88285 131.41,0 210.781,26.56255 265,87.50005 34.531,39.2222 48.441,85.3122 48.441,162.5002 l 0,383.59 z M 376.68,892.469 536.84,925.91 c 49.531,10.309 71.398,27.649 71.398,57.5 0,24.22 -17.187,42.65 -40.308,42.65 -22.969,0 -54.059,-13.75 -87.5,-39.208 l -109.532,-78.293 5.782,-16.09 z"
         inkscape:connector-curvature="0"
         id="path14"
         style="fill:#000000;fill-opacity:1;fill-rule:nonzero;stroke:none" /></g></g></svg>