<?xml version="1.0" encoding="UTF-8" standalone="no"?>
<!-- Created with Inkscape (http://www.inkscape.org/) -->

<svg
   xmlns:dc="http://purl.org/dc/elements/1.1/"
   xmlns:cc="http://creativecommons.org/ns#"
   xmlns:rdf="http://www.w3.org/1999/02/22-rdf-syntax-ns#"
   xmlns:svg="http://www.w3.org/2000/svg"
   xmlns="http://www.w3.org/2000/svg"
   xmlns:inkscape="http://www.inkscape.org/namespaces/inkscape"
   version="1.1"
   width="105"
   height="128.75"
   id="svg2"
   xml:space="preserve"><metadata
     id="metadata8"><rdf:RDF><cc:Work
         rdf:about=""><dc:format>image/svg+xml</dc:format><dc:type
           rdf:resource="http://purl.org/dc/dcmitype/StillImage" /></cc:Work></rdf:RDF></metadata><defs
     id="defs6" /><g
     transform="matrix(1.25,0,0,-1.25,0,128.75)"
     id="g10"><g
       transform="scale(0.1,0.1)"
       id="g12"><path
         d="m 736.211,643.559 c 0,94.531 15,118.75 74.84,126.722 l 28.75,3.438 0,35.781 -282.18,0 0,-35.781 37.969,-3.438 C 654.34,764.5 670.43,737 670.43,643.559 l 0,-305.309 c 0,-124.371 -9.219,-169.219 -42.5,-208.441 C 592.148,88.4102 525.27,65.2813 440.121,65.2813 c -94.531,0 -163.601,30 -193.601,85.3087 -20.782,36.879 -27.649,80.629 -27.649,185.469 l 0,307.5 c 0,93.441 17.34,122.191 74.84,126.722 l 42.66,3.438 0,35.781 -336.4100625,0 0,-35.781 L 28.8711,770.281 C 88.7109,762.309 103.711,738.09 103.711,643.559 l 0,-385.93 c 0,-96.719 26.41,-148.598 101.41,-195.7892 57.5,-36.871 122.027,-51.87105 217.649,-51.87105 131.41,0 210.781,26.56255 265,87.50005 34.531,39.2222 48.441,85.3122 48.441,162.5002 l 0,383.59 z m -293.75,384.851 -163.59,-107.191 14.84,-28.75 148.75,51.871 147.34,-51.871 16.25,28.75 -163.59,107.191 z"
         inkscape:connector-curvature="0"
         id="path14"
         style="fill:#000000;fill-opacity:1;fill-rule:nonzero;stroke:none" /></g></g></svg>