<?xml version="1.0" encoding="UTF-8" standalone="no"?>
<!-- Created with Inkscape (http://www.inkscape.org/) -->

<svg
   xmlns:dc="http://purl.org/dc/elements/1.1/"
   xmlns:cc="http://creativecommons.org/ns#"
   xmlns:rdf="http://www.w3.org/1999/02/22-rdf-syntax-ns#"
   xmlns:svg="http://www.w3.org/2000/svg"
   xmlns="http://www.w3.org/2000/svg"
   xmlns:inkscape="http://www.inkscape.org/namespaces/inkscape"
   version="1.1"
   width="101.25"
   height="127.5"
   id="svg2"
   xml:space="preserve"><metadata
     id="metadata8"><rdf:RDF><cc:Work
         rdf:about=""><dc:format>image/svg+xml</dc:format><dc:type
           rdf:resource="http://purl.org/dc/dcmitype/StillImage" /></cc:Work></rdf:RDF></metadata><defs
     id="defs6" /><g
     transform="matrix(1.25,0,0,-1.25,0,127.5)"
     id="g10"><g
       transform="scale(0.1,0.1)"
       id="g12"><path
         d="M 443.48,339.531 633.629,630.93 c 59.851,92.191 87.5,111.718 168.133,127.808 l 0,35.793 -286.723,0 0,-35.793 c 62.191,-10.308 84.063,-22.957 84.063,-50.617 0,-13.75 -6.872,-32.191 -18.442,-49.531 L 417.07,407.488 254.57,670.148 c -12.66,20.633 -17.191,31.09 -17.191,41.411 0,26.562 20.633,37.972 90.941,47.179 l 0,35.793 -328.2809375,0 0,-35.793 C 64.5703,743.898 85.1992,726.559 135.98,643.59 l 192.34,-306.41 0,-161.25 c 0,-93.4417 -17.191,-122.1917 -74.84,-126.7191 l -47.191,-3.4296 0,-35.79302 359.371,0 0,35.79302 -47.18,3.4296 c -57.66,4.5274 -75,33.2774 -75,126.7191 l 0,163.601 z m -48.281,537.957 160.153,33.442 c 49.527,10.308 71.41,27.66 71.41,57.5 0,24.218 -17.352,42.66 -40.313,42.66 -23.129,0 -54.219,-13.75 -87.66,-39.219 L 389.41,893.59 l 5.789,-16.102 z"
         inkscape:connector-curvature="0"
         id="path14"
         style="fill:#000000;fill-opacity:1;fill-rule:nonzero;stroke:none" /></g></g></svg>