<?xml version="1.0" encoding="UTF-8" standalone="no"?>
<!-- Created with Inkscape (http://www.inkscape.org/) -->

<svg
   xmlns:dc="http://purl.org/dc/elements/1.1/"
   xmlns:cc="http://creativecommons.org/ns#"
   xmlns:rdf="http://www.w3.org/1999/02/22-rdf-syntax-ns#"
   xmlns:svg="http://www.w3.org/2000/svg"
   xmlns="http://www.w3.org/2000/svg"
   xmlns:inkscape="http://www.inkscape.org/namespaces/inkscape"
   version="1.1"
   width="85"
   height="100"
   id="svg2"
   xml:space="preserve"><metadata
     id="metadata8"><rdf:RDF><cc:Work
         rdf:about=""><dc:format>image/svg+xml</dc:format><dc:type
           rdf:resource="http://purl.org/dc/dcmitype/StillImage" /></cc:Work></rdf:RDF></metadata><defs
     id="defs6" /><g
     transform="matrix(1.25,0,0,-1.25,0,100)"
     id="g10"><g
       transform="scale(0.1,0.1)"
       id="g12"><path
         d="m 220.078,645.922 0,16.09 c 0,20.777 7.973,55.308 16.094,66.879 10.308,15 26.558,22.968 57.656,26.398 l 28.75,3.441 0,35.782 -322.499875,0 0,-35.782 28.749975,-3.441 C 89.9219,747.32 103.672,724.199 103.672,628.57 l 0,-452.648 C 103.672,81.3906 88.6719,57.1719 28.8281,49.1992 l -28.749975,-3.4375 0,-35.78123 337.499875,0 0,35.78123 -30,3.4375 c -48.437,5.7813 -74.848,21.8711 -81.719,49.5313 -4.687,19.5315 -7.031,48.2815 -7.031,77.1915 l 0,19.527 162.5,0 c 76.094,0 146.25,16.09 190.152,43.75 59.848,38.121 99.071,110.621 99.071,185.473 0,134.84 -111.879,221.25 -288.129,221.25 l -162.344,0 z m -1.25,-400.942 0,351.411 145.152,0 c 119.848,0 189.071,-64.532 189.071,-175.161 0,-48.441 -15,-89.839 -43.91,-122.031 C 474.609,259.98 431.949,244.98 362.891,244.98 l -144.063,0 z"
         inkscape:connector-curvature="0"
         id="path14"
         style="fill:#000000;fill-opacity:1;fill-rule:nonzero;stroke:none" /></g></g></svg>