<?xml version="1.0" encoding="UTF-8" standalone="no"?>
<!-- Created with Inkscape (http://www.inkscape.org/) -->

<svg
   xmlns:dc="http://purl.org/dc/elements/1.1/"
   xmlns:cc="http://creativecommons.org/ns#"
   xmlns:rdf="http://www.w3.org/1999/02/22-rdf-syntax-ns#"
   xmlns:svg="http://www.w3.org/2000/svg"
   xmlns="http://www.w3.org/2000/svg"
   xmlns:inkscape="http://www.inkscape.org/namespaces/inkscape"
   version="1.1"
   width="105"
   height="117.5"
   id="svg2"
   xml:space="preserve"><metadata
     id="metadata8"><rdf:RDF><cc:Work
         rdf:about=""><dc:format>image/svg+xml</dc:format><dc:type
           rdf:resource="http://purl.org/dc/dcmitype/StillImage" /></cc:Work></rdf:RDF></metadata><defs
     id="defs6" /><g
     transform="matrix(1.25,0,0,-1.25,0,117.5)"
     id="g10"><g
       transform="scale(0.1,0.1)"
       id="g12"><path
         d="M -0.0390625,32.9688 C 32.3008,18.1211 73.7109,10 116.371,10 c 76.09,0 148.59,35.7813 198.117,96.719 40.313,49.531 60,122.179 60,221.25 l 0,307.652 c 0,99.059 11.41,142.809 48.282,191.098 32.351,43.902 77.191,66.871 126.718,66.871 64.532,0 107.192,-40.309 107.192,-99.059 0,-51.883 -31.09,-84.062 -103.75,-110.633 L 521.84,673.59 c -40.32,-15 -64.539,-39.219 -64.539,-65.621 0,-20.789 10.469,-32.348 49.539,-53.129 L 564.488,525 c 84.063,-42.66 84.063,-42.66 96.723,-52.969 38.129,-27.66 54.219,-58.75 54.219,-102.66 0,-99.062 -94.532,-192.34 -194.692,-192.34 -35.777,0 -65.617,8.117 -118.59,33.438 l -26.558,-43.75 c 47.18,-26.571 102.5,-40.321 154.371,-40.321 167.027,0 302.969,116.25 302.969,259.223 0,75.938 -48.442,137.027 -145.16,180.777 l -65.622,30 c -24.218,11.571 -34.527,20.782 -34.527,30 0,12.661 10.309,21.883 37.969,32.192 l 26.398,10.308 c 61.102,24.223 99.223,72.661 99.223,125.633 0,81.719 -82.973,141.719 -195.941,141.719 -88.75,0 -171.559,-35.781 -225.782,-96.719 -33.437,-38.133 -48.437,-71.562 -64.527,-144.062 l -96.723,0 0,-37.969 96.723,0 0,-367.5 c 0,-91.102 -12.66,-142.969 -47.191,-183.281 -25.309,-29.8479 -66.872,-50.6292 -103.75,-50.6292 -27.6489,0 -48.2817,4.5313 -95.6216,21.879 l -18.4374625,-45 z"
         inkscape:connector-curvature="0"
         id="path14"
         style="fill:#000000;fill-opacity:1;fill-rule:nonzero;stroke:none" /></g></g></svg>