<?xml version="1.0" encoding="UTF-8" standalone="no"?>
<!-- Created with Inkscape (http://www.inkscape.org/) -->

<svg
   xmlns:dc="http://purl.org/dc/elements/1.1/"
   xmlns:cc="http://creativecommons.org/ns#"
   xmlns:rdf="http://www.w3.org/1999/02/22-rdf-syntax-ns#"
   xmlns:svg="http://www.w3.org/2000/svg"
   xmlns="http://www.w3.org/2000/svg"
   xmlns:inkscape="http://www.inkscape.org/namespaces/inkscape"
   version="1.1"
   width="80"
   height="97.5"
   id="svg2"
   xml:space="preserve"><metadata
     id="metadata8"><rdf:RDF><cc:Work
         rdf:about=""><dc:format>image/svg+xml</dc:format><dc:type
           rdf:resource="http://purl.org/dc/dcmitype/StillImage" /></cc:Work></rdf:RDF></metadata><defs
     id="defs6" /><g
     transform="matrix(1.25,0,0,-1.25,0,97.5)"
     id="g10"><g
       transform="scale(0.1,0.1)"
       id="g12"><path
         d="M 388.281,347.539 C 250,332.539 244.219,331.449 193.59,318.789 65.6211,286.449 0,230.039 0,152.859 0,69.8906 74.8398,10.0391 177.34,10.0391 c 77.191,0 133.75,24.0703 210.941,88.6015 21.879,-62.1914 61.098,-88.6015 129.059,-88.6015 48.281,0 86.41,13.75 118.601,44.8515 l -21.882,30 c -19.528,-17.3515 -32.34,-23.1289 -51.868,-23.1289 -24.222,0 -44.851,12.8164 -54.07,32.3477 C 500,110.199 497.66,125.199 497.66,174.73 l 0,244.219 c 0,69.063 -18.441,104.84 -65.629,131.41 -42.652,24.063 -102.5,39.063 -155.472,39.063 -49.528,0 -111.868,-13.75 -157.969,-33.442 -54.0587,-24.058 -93.2814,-72.5 -93.2814,-112.808 0,-27.66 25.3125,-50.781 55.3125,-50.781 32.3479,0 58.7579,26.558 58.7579,58.898 l -1.098,32.191 c 0,33.442 51.879,59.848 116.25,59.848 81.879,0 133.75,-40.316 133.75,-103.598 l 0,-92.191 z m 0,-197.027 C 323.75,89.4219 275.309,65.3594 217.809,65.3594 162.5,65.3594 117.5,109.109 117.5,164.422 c 0,77.187 96.719,127.808 270.781,142.808 l 0,-156.718 z m 35.629,623.277 c -12.66,-16.09 -32.191,-25.309 -55.32,-25.309 -14.84,0 -28.75,2.192 -56.399,10.309 -58.75,16.102 -82.972,20.789 -109.382,20.789 -45,0 -84.219,-31.098 -99.059,-78.437 l 33.281,-11.411 c 15,17.192 27.66,22.969 45,22.969 16.09,0 26.559,-2.34 62.188,-11.558 56.402,-16.102 81.871,-20.629 109.531,-20.629 55.16,0 86.41,25.316 103.59,82.968 l -33.43,10.309 z"
         inkscape:connector-curvature="0"
         id="path14"
         style="fill:#000000;fill-opacity:1;fill-rule:nonzero;stroke:none" /></g></g></svg>