<?xml version="1.0" encoding="UTF-8" standalone="no"?>
<!-- Created with Inkscape (http://www.inkscape.org/) -->

<svg
   xmlns:dc="http://purl.org/dc/elements/1.1/"
   xmlns:cc="http://creativecommons.org/ns#"
   xmlns:rdf="http://www.w3.org/1999/02/22-rdf-syntax-ns#"
   xmlns:svg="http://www.w3.org/2000/svg"
   xmlns="http://www.w3.org/2000/svg"
   xmlns:inkscape="http://www.inkscape.org/namespaces/inkscape"
   version="1.1"
   width="80"
   height="101.25"
   id="svg2"
   xml:space="preserve"><metadata
     id="metadata8"><rdf:RDF><cc:Work
         rdf:about=""><dc:format>image/svg+xml</dc:format><dc:type
           rdf:resource="http://purl.org/dc/dcmitype/StillImage" /></cc:Work></rdf:RDF></metadata><defs
     id="defs6" /><g
     transform="matrix(1.25,0,0,-1.25,0,101.25)"
     id="g10"><g
       transform="scale(0.1,0.1)"
       id="g12"><path
         d="M 388.281,347.539 C 250,332.539 244.219,331.441 193.59,318.789 65.6211,286.441 0,230.039 0,152.852 0,69.8789 74.8398,10.0391 177.34,10.0391 c 77.191,0 133.75,24.0625 210.941,88.5898 21.879,-62.1875 61.098,-88.5898 129.059,-88.5898 48.281,0 86.41,13.75 118.601,44.8398 l -21.882,30 C 594.531,67.5391 581.719,61.75 562.191,61.75 537.969,61.75 517.34,74.5703 508.121,94.1016 500,110.191 497.66,125.191 497.66,174.719 l 0,244.222 c 0,69.059 -18.441,104.848 -65.629,131.411 -42.652,24.058 -102.5,39.058 -155.472,39.058 -49.528,0 -111.868,-13.75 -157.969,-33.441 -54.0587,-24.059 -93.2814,-72.5 -93.2814,-112.809 0,-27.66 25.3125,-50.781 55.3125,-50.781 32.3479,0 58.7579,26.562 58.7579,58.91 l -1.098,32.18 c 0,33.441 51.879,59.851 116.25,59.851 81.879,0 133.75,-40.32 133.75,-103.601 l 0,-92.18 z m 0,-197.039 C 323.75,89.4102 275.309,65.3516 217.809,65.3516 162.5,65.3516 117.5,109.102 117.5,164.41 c 0,77.192 96.719,127.809 270.781,142.809 l 0,-156.719 z M 177.34,804.879 c -37.961,0 -69.059,-30 -69.059,-67.969 0,-36.871 31.098,-67.969 67.969,-67.969 36.871,0 67.969,31.098 67.969,67.969 0,36.879 -31.098,67.969 -66.879,67.969 z m 187.82,0 c -37.969,0 -69.07,-30 -69.07,-67.969 0,-36.871 31.101,-67.969 67.969,-67.969 36.882,0 67.972,31.098 67.972,67.969 0,36.879 -31.09,67.969 -66.871,67.969 z"
         inkscape:connector-curvature="0"
         id="path14"
         style="fill:#000000;fill-opacity:1;fill-rule:nonzero;stroke:none" /></g></g></svg>