<?xml version="1.0" encoding="UTF-8" standalone="no"?>
<!-- Created with Inkscape (http://www.inkscape.org/) -->

<svg
   xmlns:dc="http://purl.org/dc/elements/1.1/"
   xmlns:cc="http://creativecommons.org/ns#"
   xmlns:rdf="http://www.w3.org/1999/02/22-rdf-syntax-ns#"
   xmlns:svg="http://www.w3.org/2000/svg"
   xmlns="http://www.w3.org/2000/svg"
   xmlns:inkscape="http://www.inkscape.org/namespaces/inkscape"
   version="1.1"
   width="80"
   height="108.75"
   id="svg2"
   xml:space="preserve"><metadata
     id="metadata8"><rdf:RDF><cc:Work
         rdf:about=""><dc:format>image/svg+xml</dc:format><dc:type
           rdf:resource="http://purl.org/dc/dcmitype/StillImage" /></cc:Work></rdf:RDF></metadata><defs
     id="defs6" /><g
     transform="matrix(1.25,0,0,-1.25,0,108.75)"
     id="g10"><g
       transform="scale(0.1,0.1)"
       id="g12"><path
         d="M 388.281,347.539 C 250,332.539 244.219,331.441 193.59,318.789 65.6211,286.441 0,230.039 0,152.852 0,69.8789 74.8398,10.0391 177.34,10.0391 c 77.191,0 133.75,24.0625 210.941,88.5898 21.879,-62.1875 61.098,-88.5898 129.059,-88.5898 48.281,0 86.41,13.75 118.601,44.8398 l -21.882,30 c -19.528,-17.3398 -32.34,-23.1172 -51.868,-23.1172 -24.222,0 -44.851,12.8086 -54.07,32.3399 C 500,110.191 497.66,125.191 497.66,174.73 l 0,244.211 c 0,69.071 -18.441,104.848 -65.629,131.411 -42.652,24.058 -102.5,39.058 -155.472,39.058 -49.528,0 -111.868,-13.75 -157.969,-33.43 -54.0587,-24.07 -93.2814,-72.5 -93.2814,-112.82 0,-27.648 25.3125,-50.781 55.3125,-50.781 32.3479,0 58.7579,26.562 58.7579,58.91 l -1.098,32.191 c 0,33.43 51.879,59.84 116.25,59.84 81.879,0 133.75,-40.308 133.75,-103.59 l 0,-92.191 z m 0,-197.027 C 323.75,89.4102 275.309,65.3516 217.809,65.3516 162.5,65.3516 117.5,109.102 117.5,164.41 c 0,77.192 96.719,127.82 270.781,142.82 l 0,-156.718 z m -119.84,713.117 c -58.75,0 -107.191,-47.188 -107.191,-105.938 0,-58.75 47.34,-107.179 106.09,-107.179 58.75,0 105.941,48.429 105.941,107.179 0,57.5 -47.191,105.938 -104.84,105.938 z m 0,-42.649 c 33.438,0 62.18,-29.851 62.18,-63.289 0,-35.781 -28.742,-64.531 -63.281,-64.531 -35.781,0 -63.43,28.75 -63.43,64.531 0,35.629 28.75,63.289 64.531,63.289 z"
         inkscape:connector-curvature="0"
         id="path14"
         style="fill:#000000;fill-opacity:1;fill-rule:nonzero;stroke:none" /></g></g></svg>