<?xml version="1.0" encoding="UTF-8" standalone="no"?>
<!-- Created with Inkscape (http://www.inkscape.org/) -->

<svg
   xmlns:dc="http://purl.org/dc/elements/1.1/"
   xmlns:cc="http://creativecommons.org/ns#"
   xmlns:rdf="http://www.w3.org/1999/02/22-rdf-syntax-ns#"
   xmlns:svg="http://www.w3.org/2000/svg"
   xmlns="http://www.w3.org/2000/svg"
   xmlns:inkscape="http://www.inkscape.org/namespaces/inkscape"
   version="1.1"
   width="115"
   height="73.75"
   id="svg2"
   xml:space="preserve"><metadata
     id="metadata8"><rdf:RDF><cc:Work
         rdf:about=""><dc:format>image/svg+xml</dc:format><dc:type
           rdf:resource="http://purl.org/dc/dcmitype/StillImage" /></cc:Work></rdf:RDF></metadata><defs
     id="defs6" /><g
     transform="matrix(1.25,0,0,-1.25,0,73.75)"
     id="g10"><g
       transform="scale(0.1,0.1)"
       id="g12"><path
         d="M 879.059,171.289 C 853.59,130.98 839.84,114.891 816.879,97.5391 784.531,72.2305 739.691,56.1406 697.031,56.1406 c -77.191,0 -146.41,47.1794 -171.722,116.2504 -13.75,39.211 -20.778,81.871 -22.969,146.398 l 415.781,0 0,25.313 c 0,85.16 -27.652,147.5 -87.5,191.25 -46.09,34.539 -103.742,54.07 -162.5,54.07 -74.84,0 -133.59,-22.973 -199.211,-77.192 -42.66,52.969 -103.75,77.192 -194.691,77.192 C 141.719,589.422 30,521.449 30,442.07 c 0,-27.648 22.9688,-49.679 51.8789,-49.679 36.7111,0 59.8401,24.211 59.8401,61.089 l 0,18.442 c 0,42.648 48.441,71.398 119.84,71.398 78.281,0 124.382,-40.308 124.382,-109.371 l 0,-81.879 c -114.062,0 -147.5,-4.531 -220,-27.648 C 61.0898,291.141 0,227.699 0,151.762 0,66.4492 74.8398,10.0391 186.559,10.0391 c 115.32,0 184.382,41.4101 239.691,141.7229 C 457.34,102.07 476.879,81.4492 515,57.2305 562.191,26.1406 615.16,10.0391 672.809,10.0391 c 103.601,0 183.132,46.1015 243.132,141.7229 l -36.882,19.527 z m -493.118,116.41 c -1.101,-85.308 -1.101,-88.75 -10.32,-117.66 -19.68,-63.277 -82.961,-108.2773 -152.18,-108.2773 -66.722,0 -117.5,46.0903 -117.5,106.0903 0,37.968 20.778,70.16 62.34,97.82 48.278,31.25 104.688,45 217.66,53.117 l 0,-31.09 z m 117.5,69.063 c 5.778,50.629 10.309,74.84 20.778,99.058 22.972,52.969 77.191,87.5 137.031,87.5 87.66,0 142.809,-65.621 142.809,-170.468 l 0,-16.09 -300.618,0 z"
         inkscape:connector-curvature="0"
         id="path14"
         style="fill:#000000;fill-opacity:1;fill-rule:nonzero;stroke:none" /></g></g></svg>