<?xml version="1.0" encoding="UTF-8" standalone="no"?>
<!-- Created with Inkscape (http://www.inkscape.org/) -->

<svg
   xmlns:dc="http://purl.org/dc/elements/1.1/"
   xmlns:cc="http://creativecommons.org/ns#"
   xmlns:rdf="http://www.w3.org/1999/02/22-rdf-syntax-ns#"
   xmlns:svg="http://www.w3.org/2000/svg"
   xmlns="http://www.w3.org/2000/svg"
   xmlns:inkscape="http://www.inkscape.org/namespaces/inkscape"
   version="1.1"
   width="67.5"
   height="101.25"
   id="svg2"
   xml:space="preserve"><metadata
     id="metadata8"><rdf:RDF><cc:Work
         rdf:about=""><dc:format>image/svg+xml</dc:format><dc:type
           rdf:resource="http://purl.org/dc/dcmitype/StillImage" /></cc:Work></rdf:RDF></metadata><defs
     id="defs6" /><g
     transform="matrix(1.25,0,0,-1.25,0,101.25)"
     id="g10"><g
       transform="scale(0.1,0.1)"
       id="g12"><path
         d="m 276.449,230.07 c 114.063,-1.25 199.371,43.75 254.68,134.692 l -33.43,20.777 C 433.16,304.922 385.98,276.172 315.66,276.172 c -118.59,0 -198.121,95.617 -198.121,238.437 0,64.532 11.563,120.93 33.441,165.782 26.399,55.308 71.399,82.968 134.68,82.968 60,0 114.07,-35.629 114.07,-75.937 l -1.101,-40.313 c 0,-33.437 25.32,-58.75 58.75,-58.75 33.441,0 58.75,27.653 58.75,63.282 0,37.968 -24.219,77.179 -65.617,108.281 -46.102,33.437 -100.313,49.527 -169.383,49.527 -82.969,0 -150.93,-25.308 -199.3673,-75.937 C 29.8789,680.391 0.0390625,601.012 0.0390625,519.141 0.0390625,433.98 33.4805,351.012 87.5391,299.141 127.852,261.172 168.16,243.82 241.91,232.262 l -25.308,-81.723 c 22.968,8.133 37.968,11.57 54.058,11.57 43.91,0 67.969,-20.789 67.969,-58.75 0,-35.7887 -22.969,-62.3473 -52.969,-62.3473 -22.961,0 -33.43,8.1289 -44.84,34.6875 -8.121,20.6211 -17.34,27.6598 -35.781,27.6598 -16.09,0 -28.75,-12.6598 -28.75,-28.9098 0,-34.5273 51.871,-64.52732 111.723,-64.52732 63.437,0 105.937,39.21872 105.937,97.96912 0,52.968 -39.07,85.308 -101.25,85.308 -2.347,0 -7.039,0 -13.91,-1.25 -1.09,0 -6.879,0 -13.75,-1.09 l 11.41,39.211 z"
         inkscape:connector-curvature="0"
         id="path14"
         style="fill:#000000;fill-opacity:1;fill-rule:nonzero;stroke:none" /></g></g></svg>