<?xml version="1.0" encoding="UTF-8" standalone="no"?>
<!-- Created with Inkscape (http://www.inkscape.org/) -->

<svg
   xmlns:dc="http://purl.org/dc/elements/1.1/"
   xmlns:cc="http://creativecommons.org/ns#"
   xmlns:rdf="http://www.w3.org/1999/02/22-rdf-syntax-ns#"
   xmlns:svg="http://www.w3.org/2000/svg"
   xmlns="http://www.w3.org/2000/svg"
   xmlns:inkscape="http://www.inkscape.org/namespaces/inkscape"
   version="1.1"
   width="66.25"
   height="101.25"
   id="svg2"
   xml:space="preserve"><metadata
     id="metadata8"><rdf:RDF><cc:Work
         rdf:about=""><dc:format>image/svg+xml</dc:format><dc:type
           rdf:resource="http://purl.org/dc/dcmitype/StillImage" /></cc:Work></rdf:RDF></metadata><defs
     id="defs6" /><g
     transform="matrix(1.25,0,0,-1.25,0,101.25)"
     id="g10"><g
       transform="scale(0.1,0.1)"
       id="g12"><path
         d="M 485.039,172.398 C 443.48,96.4609 390.512,61.7695 319.102,61.7695 237.379,61.7695 177.379,103.34 146.289,180.52 129.102,220.84 123.32,271.461 123.32,353.34 l 399.692,0 C 521.91,420.059 506.91,461.621 468.949,505.371 422.852,559.59 352.539,589.43 271.91,589.43 114.102,589.43 0.0390625,470.84 0.0390625,304.898 0.0390625,227.711 28.7891,150.52 75.9805,97.5586 c 51.8715,-58.75 122.1795,-87.5 208.5895,-87.5 105.942,0 179.692,43.75 238.442,143.9024 l -37.973,18.437 z M 126.762,399.43 c 7.968,48.281 15,69.058 33.437,93.281 24.063,33.437 60.93,50.629 107.031,50.629 61.09,0 104.84,-28.75 126.719,-85.16 4.68,-12.66 10.461,-42.66 9.211,-55.309 l 0,-3.441 -276.398,0 z m 221.09,270.629 5.777,16.25 -109.367,78.281 c -33.442,25.308 -65.633,39.219 -87.5,39.219 -23.133,0 -40.473,-18.438 -40.473,-42.661 0,-30 22.031,-47.187 71.563,-57.66 l 160,-33.429 z"
         inkscape:connector-curvature="0"
         id="path14"
         style="fill:#000000;fill-opacity:1;fill-rule:nonzero;stroke:none" /></g></g></svg>