<?xml version="1.0" encoding="UTF-8" standalone="no"?>
<!-- Created with Inkscape (http://www.inkscape.org/) -->

<svg
   xmlns:dc="http://purl.org/dc/elements/1.1/"
   xmlns:cc="http://creativecommons.org/ns#"
   xmlns:rdf="http://www.w3.org/1999/02/22-rdf-syntax-ns#"
   xmlns:svg="http://www.w3.org/2000/svg"
   xmlns="http://www.w3.org/2000/svg"
   xmlns:inkscape="http://www.inkscape.org/namespaces/inkscape"
   version="1.1"
   width="38.75"
   height="100"
   id="svg2"
   xml:space="preserve"><metadata
     id="metadata8"><rdf:RDF><cc:Work
         rdf:about=""><dc:format>image/svg+xml</dc:format><dc:type
           rdf:resource="http://purl.org/dc/dcmitype/StillImage" /></cc:Work></rdf:RDF></metadata><defs
     id="defs6" /><g
     transform="matrix(1.25,0,0,-1.25,0,100)"
     id="g10"><g
       transform="scale(0.1,0.1)"
       id="g12"><path
         d="m 209.609,568.75 -39.058,0 C 100.23,556.09 62.2695,550.309 1.17188,545.629 l 0,-34.539 22.96872,-2.18 c 60,-5.781 76.0894,-26.57 76.0894,-95.629 l 0,-270.781 c 0,-63.4414 -20.7808,-89.8398 -71.4019,-95.6211 l -28.906225,-2.3476 0,-34.5313 308.750125,0 0,34.5313 -27.652,2.3476 C 229.301,52.6602 209.609,79.0586 209.609,142.5 l 0,426.25 z m 21.871,90.941 5.79,16.25 -109.379,78.278 c -33.4418,25.312 -65.6215,39.222 -87.5004,39.222 -23.1211,0 -40.468725,-18.441 -40.468725,-42.66 0,-30 22.027325,-47.191 71.558625,-57.652 L 231.48,659.691 z"
         inkscape:connector-curvature="0"
         id="path14"
         style="fill:#000000;fill-opacity:1;fill-rule:nonzero;stroke:none" /></g></g></svg>