<?xml version="1.0" encoding="UTF-8" standalone="no"?>
<!-- Created with Inkscape (http://www.inkscape.org/) -->

<svg
   xmlns:dc="http://purl.org/dc/elements/1.1/"
   xmlns:cc="http://creativecommons.org/ns#"
   xmlns:rdf="http://www.w3.org/1999/02/22-rdf-syntax-ns#"
   xmlns:svg="http://www.w3.org/2000/svg"
   xmlns="http://www.w3.org/2000/svg"
   xmlns:inkscape="http://www.inkscape.org/namespaces/inkscape"
   version="1.1"
   width="41.25"
   height="100"
   id="svg2"
   xml:space="preserve"><metadata
     id="metadata8"><rdf:RDF><cc:Work
         rdf:about=""><dc:format>image/svg+xml</dc:format><dc:type
           rdf:resource="http://purl.org/dc/dcmitype/StillImage" /></cc:Work></rdf:RDF></metadata><defs
     id="defs6" /><g
     transform="matrix(1.25,0,0,-1.25,0,100)"
     id="g10"><g
       transform="scale(0.1,0.1)"
       id="g12"><path
         d="m 223.441,568.73 -39.062,0 C 114.059,556.07 76.0898,550.289 15,545.609 l 0,-34.539 22.9688,-2.179 c 60,-5.782 76.0902,-26.571 76.0902,-95.629 l 0,-270.782 c 0,-63.4409 -20.7777,-89.8394 -71.3988,-95.6206 L 13.75,44.5117 l 0,-34.53123 308.75,0 0,34.53123 -27.66,2.3477 c -51.719,5.7812 -71.399,32.1797 -71.399,95.6206 l 0,426.25 z M 163.59,794.512 0,687.32 15,658.57 163.59,710.449 311.09,658.57 327.191,687.32 163.59,794.512 z"
         inkscape:connector-curvature="0"
         id="path14"
         style="fill:#000000;fill-opacity:1;fill-rule:nonzero;stroke:none" /></g></g></svg>