<?xml version="1.0" encoding="UTF-8" standalone="no"?>
<!-- Created with Inkscape (http://www.inkscape.org/) -->

<svg
   xmlns:dc="http://purl.org/dc/elements/1.1/"
   xmlns:cc="http://creativecommons.org/ns#"
   xmlns:rdf="http://www.w3.org/1999/02/22-rdf-syntax-ns#"
   xmlns:svg="http://www.w3.org/2000/svg"
   xmlns="http://www.w3.org/2000/svg"
   xmlns:inkscape="http://www.inkscape.org/namespaces/inkscape"
   version="1.1"
   width="41.25"
   height="100"
   id="svg2"
   xml:space="preserve"><metadata
     id="metadata8"><rdf:RDF><cc:Work
         rdf:about=""><dc:format>image/svg+xml</dc:format><dc:type
           rdf:resource="http://purl.org/dc/dcmitype/StillImage" /></cc:Work></rdf:RDF></metadata><defs
     id="defs6" /><g
     transform="matrix(1.25,0,0,-1.25,0,100)"
     id="g10"><g
       transform="scale(0.1,0.1)"
       id="g12"><path
         d="m 222.34,568.73 -39.219,0 C 112.969,556.07 74.8398,550.289 13.75,545.609 l 0,-34.539 23.1289,-2.179 c 59.8399,-5.782 76.0901,-26.571 76.0901,-95.629 l 0,-270.782 c 0,-63.4409 -20.7776,-89.8394 -71.5588,-95.6206 l -28.75,-2.3477 0,-34.53123 308.7498,0 0,34.53123 -27.66,2.3477 c -51.871,5.7812 -71.41,32.1797 -71.41,95.6206 l 0,426.25 z M 69.0586,794.512 C 31.0898,794.512 0,764.512 0,726.539 0,689.672 31.0898,658.57 67.9688,658.57 c 36.8712,0 67.9722,31.102 67.9722,67.969 0,36.883 -31.101,67.973 -66.8824,67.973 z m 187.8204,0 c -37.969,0 -69.07,-30 -69.07,-67.973 0,-36.867 31.101,-67.969 67.972,-67.969 36.879,0 67.969,31.102 67.969,67.969 0,36.883 -31.09,67.973 -66.871,67.973 z"
         inkscape:connector-curvature="0"
         id="path14"
         style="fill:#000000;fill-opacity:1;fill-rule:nonzero;stroke:none" /></g></g></svg>