<?xml version="1.0" encoding="UTF-8" standalone="no"?>
<!-- Created with Inkscape (http://www.inkscape.org/) -->

<svg
   xmlns:dc="http://purl.org/dc/elements/1.1/"
   xmlns:cc="http://creativecommons.org/ns#"
   xmlns:rdf="http://www.w3.org/1999/02/22-rdf-syntax-ns#"
   xmlns:svg="http://www.w3.org/2000/svg"
   xmlns="http://www.w3.org/2000/svg"
   xmlns:inkscape="http://www.inkscape.org/namespaces/inkscape"
   version="1.1"
   width="71.25"
   height="112.5"
   id="svg2"
   xml:space="preserve"><metadata
     id="metadata8"><rdf:RDF><cc:Work
         rdf:about=""><dc:format>image/svg+xml</dc:format><dc:type
           rdf:resource="http://purl.org/dc/dcmitype/StillImage" /></cc:Work></rdf:RDF></metadata><defs
     id="defs6" /><g
     transform="matrix(1.25,0,0,-1.25,0,112.5)"
     id="g10"><g
       transform="scale(0.1,0.1)"
       id="g12"><path
         d="m 197.07,743.801 c 82.809,-43.75 134.692,-94.379 177.34,-171.563 -27.648,12.653 -55.308,18.434 -92.18,18.434 C 114.102,590.672 0.0390625,471.922 0.0390625,298.02 0.0390625,125.199 111.762,10.0508 282.23,10.0508 c 174.059,0 281.09,114.0582 281.09,300.6212 0,229.219 -108.281,398.598 -307.5,480.469 l 100.16,66.718 -25.32,36.879 -127.961,-84.066 c -42.5,12.656 -94.379,24.219 -159.9998,34.527 L 16.1289,796.77 C 71.4492,785.359 109.41,777.238 146.289,765.672 L 41.4492,694.27 l 24.211,-37.969 131.4098,87.5 z m 84.059,-199.223 c 102.5,0 164.691,-95.629 164.691,-254.687 0,-146.25 -59.84,-233.7504 -161.25,-233.7504 -105.941,0 -167.031,88.5974 -167.031,244.2184 0,148.59 64.531,244.219 163.59,244.219 z"
         inkscape:connector-curvature="0"
         id="path14"
         style="fill:#000000;fill-opacity:1;fill-rule:nonzero;stroke:none" /></g></g></svg>