<?xml version="1.0" encoding="UTF-8" standalone="no"?>
<!-- Created with Inkscape (http://www.inkscape.org/) -->

<svg
   xmlns:dc="http://purl.org/dc/elements/1.1/"
   xmlns:cc="http://creativecommons.org/ns#"
   xmlns:rdf="http://www.w3.org/1999/02/22-rdf-syntax-ns#"
   xmlns:svg="http://www.w3.org/2000/svg"
   xmlns="http://www.w3.org/2000/svg"
   xmlns:inkscape="http://www.inkscape.org/namespaces/inkscape"
   version="1.1"
   width="91.25"
   height="96.25"
   id="svg2"
   xml:space="preserve"><metadata
     id="metadata8"><rdf:RDF><cc:Work
         rdf:about=""><dc:format>image/svg+xml</dc:format><dc:type
           rdf:resource="http://purl.org/dc/dcmitype/StillImage" /></cc:Work></rdf:RDF></metadata><defs
     id="defs6" /><g
     transform="matrix(1.25,0,0,-1.25,0,96.25)"
     id="g10"><g
       transform="scale(0.1,0.1)"
       id="g12"><path
         d="m 213.051,568.738 -39.071,0 C 102.578,554.828 64.4492,550.301 -0.078125,545.609 l 0,-34.531 27.656225,-2.187 c 58.75,-4.68 76.0939,-26.563 76.0939,-95.621 l 0,-270.782 c 0,-63.4372 -20.7814,-89.8474 -71.4025,-95.6286 l -28.74997,-2.3399 0,-34.53122 309.83947,0 0,34.53122 -28.75,2.3399 c -50.781,5.7812 -71.558,32.1914 -71.558,95.6286 l 0,284.532 c 71.558,64.531 139.527,96.718 203.898,96.718 63.442,0 97.973,-40.308 97.973,-115.16 l 0,-266.09 c 0,-63.4372 -20.781,-89.8474 -71.402,-95.6286 l -28.75,-2.3399 0,-34.53122 309.839,0 0,34.53122 -28.75,2.3399 c -50.781,5.7812 -71.41,32.1914 -71.41,95.6286 l 0,284.532 c 0,95.621 -65.777,152.031 -174.058,152.031 -87.5,0 -155.469,-28.75 -237.34,-101.41 l 0,91.097 z m 281.09,194.692 c -12.661,-16.102 -32.192,-25.321 -55.161,-25.321 -15,0 -28.902,2.192 -56.558,10.321 -58.75,16.09 -82.973,20.781 -109.371,20.781 -45,0 -84.071,-31.102 -99.071,-78.441 l 33.442,-11.411 c 14.848,17.192 27.656,22.969 44.848,22.969 16.089,0 26.558,-2.34 62.179,-11.558 56.571,-16.09 81.879,-20.629 109.531,-20.629 55.321,0 86.411,25.32 103.598,82.968 l -33.437,10.321 z"
         inkscape:connector-curvature="0"
         id="path14"
         style="fill:#000000;fill-opacity:1;fill-rule:nonzero;stroke:none" /></g></g></svg>