<?xml version="1.0" encoding="UTF-8" standalone="no"?>
<!-- Created with Inkscape (http://www.inkscape.org/) -->

<svg
   xmlns:dc="http://purl.org/dc/elements/1.1/"
   xmlns:cc="http://creativecommons.org/ns#"
   xmlns:rdf="http://www.w3.org/1999/02/22-rdf-syntax-ns#"
   xmlns:svg="http://www.w3.org/2000/svg"
   xmlns="http://www.w3.org/2000/svg"
   xmlns:inkscape="http://www.inkscape.org/namespaces/inkscape"
   version="1.1"
   width="71.25"
   height="97.5"
   id="svg2"
   xml:space="preserve"><metadata
     id="metadata8"><rdf:RDF><cc:Work
         rdf:about=""><dc:format>image/svg+xml</dc:format><dc:type
           rdf:resource="http://purl.org/dc/dcmitype/StillImage" /></cc:Work></rdf:RDF></metadata><defs
     id="defs6" /><g
     transform="matrix(1.25,0,0,-1.25,0,97.5)"
     id="g10"><g
       transform="scale(0.1,0.1)"
       id="g12"><path
         d="m 278.789,589.422 c -80.629,0 -152.027,-27.66 -198.1288,-74.844 C 32.2305,463.949 0.0390625,378.641 0.0390625,298.012 0.0390625,124.109 111.762,10.0391 283.48,10.0391 c 167.032,0 279.84,115.1599 279.84,285.6329 0,74.84 -26.41,150.937 -69.058,203.906 -48.442,57.652 -125.633,89.844 -215.473,89.844 z m 1.09,-46.094 c 103.75,0 165.941,-95.629 165.941,-253.437 0,-146.25 -59.84,-233.7504 -161.25,-233.7504 -105.941,0 -167.031,88.5894 -167.031,244.2184 0,147.34 64.531,242.969 162.34,242.969 z M 433.16,773.789 c -12.648,-16.09 -32.18,-25.309 -55.308,-25.309 -15,0 -28.75,2.192 -56.403,10.309 -58.75,16.102 -82.969,20.789 -109.539,20.789 -44.84,0 -84.058,-31.098 -99.058,-78.437 l 33.437,-11.411 c 15,17.192 27.66,22.969 45,22.969 16.09,0 26.41,-2.34 62.191,-11.558 56.399,-16.102 81.719,-20.629 109.372,-20.629 55.308,0 86.41,25.316 103.75,82.968 l -33.442,10.309 z"
         inkscape:connector-curvature="0"
         id="path14"
         style="fill:#000000;fill-opacity:1;fill-rule:nonzero;stroke:none" /></g></g></svg>