<?xml version="1.0" encoding="UTF-8" standalone="no"?>
<!-- Created with Inkscape (http://www.inkscape.org/) -->

<svg
   xmlns:dc="http://purl.org/dc/elements/1.1/"
   xmlns:cc="http://creativecommons.org/ns#"
   xmlns:rdf="http://www.w3.org/1999/02/22-rdf-syntax-ns#"
   xmlns:svg="http://www.w3.org/2000/svg"
   xmlns="http://www.w3.org/2000/svg"
   xmlns:inkscape="http://www.inkscape.org/namespaces/inkscape"
   version="1.1"
   width="71.25"
   height="101.25"
   id="svg2"
   xml:space="preserve"><metadata
     id="metadata8"><rdf:RDF><cc:Work
         rdf:about=""><dc:format>image/svg+xml</dc:format><dc:type
           rdf:resource="http://purl.org/dc/dcmitype/StillImage" /></cc:Work></rdf:RDF></metadata><defs
     id="defs6" /><g
     transform="matrix(1.25,0,0,-1.25,0,101.25)"
     id="g10"><g
       transform="scale(0.1,0.1)"
       id="g12"><path
         d="M 278.789,589.41 C 198.16,589.41 126.762,561.75 80.6602,514.57 32.2305,463.941 0.0390625,378.629 0.0390625,298 0.0390625,124.102 111.762,10.0391 283.48,10.0391 c 167.032,0 279.84,115.1519 279.84,285.6209 0,74.84 -26.41,150.942 -69.058,203.91 -48.442,57.649 -125.633,89.84 -215.473,89.84 z m 1.09,-46.09 c 103.75,0 165.941,-95.629 165.941,-253.441 0,-146.25 -59.84,-233.7501 -161.25,-233.7501 -105.941,0 -167.031,88.5901 -167.031,244.2231 0,147.339 64.531,242.968 162.34,242.968 z m -90.93,261.559 c -37.969,0 -69.07,-30 -69.07,-67.969 0,-36.871 31.101,-67.969 67.973,-67.969 36.878,0 67.968,31.098 67.968,67.969 0,36.879 -31.09,67.969 -66.871,67.969 z m 187.813,0 c -38.133,0 -69.223,-30 -69.223,-67.969 0,-36.871 31.09,-67.969 67.973,-67.969 36.867,0 67.968,31.098 67.968,67.969 0,36.879 -31.101,67.969 -66.718,67.969 z"
         inkscape:connector-curvature="0"
         id="path14"
         style="fill:#000000;fill-opacity:1;fill-rule:nonzero;stroke:none" /></g></g></svg>