<?xml version="1.0" encoding="UTF-8" standalone="no"?>
<!-- Created with Inkscape (http://www.inkscape.org/) -->

<svg
   xmlns:dc="http://purl.org/dc/elements/1.1/"
   xmlns:cc="http://creativecommons.org/ns#"
   xmlns:rdf="http://www.w3.org/1999/02/22-rdf-syntax-ns#"
   xmlns:svg="http://www.w3.org/2000/svg"
   xmlns="http://www.w3.org/2000/svg"
   xmlns:inkscape="http://www.inkscape.org/namespaces/inkscape"
   version="1.1"
   width="73.75"
   height="77.5"
   id="svg2"
   xml:space="preserve"><metadata
     id="metadata8"><rdf:RDF><cc:Work
         rdf:about=""><dc:format>image/svg+xml</dc:format><dc:type
           rdf:resource="http://purl.org/dc/dcmitype/StillImage" /></cc:Work></rdf:RDF></metadata><defs
     id="defs6" /><g
     transform="matrix(1.25,0,0,-1.25,0,77.5)"
     id="g10"><g
       transform="scale(0.1,0.1)"
       id="g12"><path
         d="m 291.41,152.828 c -40.32,0 -72.5,-31.098 -72.5,-70.3085 0,-40.3203 32.18,-72.5 71.399,-72.5 39.222,0 71.41,32.1797 71.41,71.4024 0,39.2191 -32.188,71.4061 -70.309,71.4061 z m 0,460.781 c -40.32,0 -72.5,-32.187 -72.5,-70.16 0,-40.308 32.18,-72.648 71.399,-72.648 39.222,0 71.41,32.34 71.41,71.398 0,39.223 -32.188,71.41 -70.309,71.41 z M 580.621,356.73 0,356.73 l 0,-89.839 580.621,0 0,89.839 z"
         inkscape:connector-curvature="0"
         id="path14"
         style="fill:#000000;fill-opacity:1;fill-rule:nonzero;stroke:none" /></g></g></svg>