<?xml version="1.0" encoding="UTF-8" standalone="no"?>
<!-- Created with Inkscape (http://www.inkscape.org/) -->

<svg
   xmlns:dc="http://purl.org/dc/elements/1.1/"
   xmlns:cc="http://creativecommons.org/ns#"
   xmlns:rdf="http://www.w3.org/1999/02/22-rdf-syntax-ns#"
   xmlns:svg="http://www.w3.org/2000/svg"
   xmlns="http://www.w3.org/2000/svg"
   xmlns:inkscape="http://www.inkscape.org/namespaces/inkscape"
   version="1.1"
   width="71.25"
   height="86.25"
   id="svg2"
   xml:space="preserve"><metadata
     id="metadata8"><rdf:RDF><cc:Work
         rdf:about=""><dc:format>image/svg+xml</dc:format><dc:type
           rdf:resource="http://purl.org/dc/dcmitype/StillImage" /></cc:Work></rdf:RDF></metadata><defs
     id="defs6" /><g
     transform="matrix(1.25,0,0,-1.25,0,86.25)"
     id="g10"><g
       transform="scale(0.1,0.1)"
       id="g12"><path
         d="m 51.9102,9.94141 57.4998,0 40.32,66.86719 c 33.43,-18.4375 82.969,-28.75 134.84,-28.75 167.032,0 278.75,115.1604 278.75,287.9724 0,97.969 -41.41,188.91 -108.281,239.528 L 520.66,684 466.602,684 414.73,598.691 c -33.441,18.43 -85.32,28.75 -135.941,28.75 C 110.66,627.441 0.0390625,509.941 0.0390625,330.25 0.0390625,232.281 36.9102,155.09 108.32,101.031 L 51.9102,9.94141 z M 152.07,173.531 c -22.968,45 -34.531,96.867 -34.531,160.16 0,154.368 63.281,247.649 167.031,247.649 39.219,0 67.969,-11.399 94.532,-39.059 L 152.07,173.531 z M 410.199,503.059 C 433.16,462.75 445.82,399.309 445.82,330.25 445.82,181.648 387.07,94.1484 286.91,94.1484 247.699,94.1484 208.48,109 184.262,132.121 l 225.937,370.938 z"
         inkscape:connector-curvature="0"
         id="path14"
         style="fill:#000000;fill-opacity:1;fill-rule:nonzero;stroke:none" /></g></g></svg>