<?xml version="1.0" encoding="UTF-8" standalone="no"?>
<!-- Created with Inkscape (http://www.inkscape.org/) -->

<svg
   xmlns:dc="http://purl.org/dc/elements/1.1/"
   xmlns:cc="http://creativecommons.org/ns#"
   xmlns:rdf="http://www.w3.org/1999/02/22-rdf-syntax-ns#"
   xmlns:svg="http://www.w3.org/2000/svg"
   xmlns="http://www.w3.org/2000/svg"
   xmlns:inkscape="http://www.inkscape.org/namespaces/inkscape"
   version="1.1"
   width="91.25"
   height="101.25"
   id="svg2"
   xml:space="preserve"><metadata
     id="metadata8"><rdf:RDF><cc:Work
         rdf:about=""><dc:format>image/svg+xml</dc:format><dc:type
           rdf:resource="http://purl.org/dc/dcmitype/StillImage" /></cc:Work></rdf:RDF></metadata><defs
     id="defs6" /><g
     transform="matrix(1.25,0,0,-1.25,0,101.25)"
     id="g10"><g
       transform="scale(0.1,0.1)"
       id="g12"><path
         d="m 519.609,20.3711 209.692,0 0,34.5273 -28.91,2.3399 C 649.77,63.0195 628.98,89.4297 628.98,152.871 l 0,426.25 -39.21,0 C 529.922,565.211 506.949,563.02 415.859,555.988 l 0,-34.527 27.661,-2.191 c 58.75,-4.68 76.089,-26.559 76.089,-95.622 l 0,-257.027 C 442.422,98.6484 374.449,65.3711 317.891,65.3711 c -72.5,0 -104.84,39.0589 -104.84,126.7189 l 0,387.031 -39.071,0 c -60,-13.91 -85.3081,-17.351 -174.058125,-23.133 l 0,-34.527 27.656225,-2.191 c 58.75,-4.68 76.0939,-26.559 76.0939,-95.622 l 0,-240.777 c 0,-57.66 10.308,-89.9999 36.879,-119.8515 31.09,-35.7812 74.84,-52.9609 134.84,-52.9609 82.808,0 146.25,27.6523 244.218,107.0314 l 0,-96.7189 z m -70.308,649.6879 5.777,16.25 -109.527,78.281 c -33.281,25.308 -65.629,39.219 -87.5,39.219 -22.973,0 -40.321,-18.438 -40.321,-42.661 0,-30 21.879,-47.187 71.411,-57.66 l 160.16,-33.429 z"
         inkscape:connector-curvature="0"
         id="path14"
         style="fill:#000000;fill-opacity:1;fill-rule:nonzero;stroke:none" /></g></g></svg>