<?xml version="1.0" encoding="UTF-8" standalone="no"?>
<!-- Created with Inkscape (http://www.inkscape.org/) -->

<svg
   xmlns:dc="http://purl.org/dc/elements/1.1/"
   xmlns:cc="http://creativecommons.org/ns#"
   xmlns:rdf="http://www.w3.org/1999/02/22-rdf-syntax-ns#"
   xmlns:svg="http://www.w3.org/2000/svg"
   xmlns="http://www.w3.org/2000/svg"
   xmlns:inkscape="http://www.inkscape.org/namespaces/inkscape"
   version="1.1"
   width="85"
   height="107.5"
   id="svg2"
   xml:space="preserve"><metadata
     id="metadata8"><rdf:RDF><cc:Work
         rdf:about=""><dc:format>image/svg+xml</dc:format><dc:type
           rdf:resource="http://purl.org/dc/dcmitype/StillImage" /></cc:Work></rdf:RDF></metadata><defs
     id="defs6" /><g
     transform="matrix(1.25,0,0,-1.25,0,107.5)"
     id="g10"><g
       transform="scale(0.1,0.1)"
       id="g12"><path
         d="m 574.922,831.391 c -139.531,20.781 -172.813,24.218 -225.942,24.218 -88.589,0 -154.371,-25.32 -202.652,-79.531 C 111.801,738.109 100.23,696.539 100.23,611.391 l 0,-42.661 -97.96047,0 0,-37.968 97.96047,0 0,-388.282 c 0,-63.4409 -20.7808,-89.8394 -71.4019,-95.6206 l -28.906225,-2.3477 0,-34.53123 310.000125,0 0,34.53123 -28.902,2.3477 c -50.629,5.7812 -71.411,32.1797 -71.411,95.6206 l 0,388.282 116.411,0 0,37.968 -116.411,0 0,71.411 c 0,69.058 3.442,92.187 18.442,117.5 23.121,35.781 70.308,61.089 118.75,61.089 46.09,0 90.929,-23.121 104.84,-52.968 6.879,-16.25 13.75,-66.871 13.75,-107.184 l 0,-516.098 c 0,-63.4409 -20.782,-89.8394 -71.411,-95.6206 l -28.75,-2.3477 0,-34.53123 309.848,0 0,34.53123 -28.75,2.3477 c -50.777,5.7812 -71.406,32.1797 -71.406,95.6206 l 0,688.911 z"
         inkscape:connector-curvature="0"
         id="path14"
         style="fill:#000000;fill-opacity:1;fill-rule:nonzero;stroke:none" /></g></g></svg>