<?xml version="1.0" encoding="UTF-8" standalone="no"?>
<!-- Created with Inkscape (http://www.inkscape.org/) -->

<svg
   xmlns:dc="http://purl.org/dc/elements/1.1/"
   xmlns:cc="http://creativecommons.org/ns#"
   xmlns:rdf="http://www.w3.org/1999/02/22-rdf-syntax-ns#"
   xmlns:svg="http://www.w3.org/2000/svg"
   xmlns="http://www.w3.org/2000/svg"
   xmlns:inkscape="http://www.inkscape.org/namespaces/inkscape"
   version="1.1"
   width="91.25"
   height="101.25"
   id="svg2"
   xml:space="preserve"><metadata
     id="metadata8"><rdf:RDF><cc:Work
         rdf:about=""><dc:format>image/svg+xml</dc:format><dc:type
           rdf:resource="http://purl.org/dc/dcmitype/StillImage" /></cc:Work></rdf:RDF></metadata><defs
     id="defs6" /><g
     transform="matrix(1.25,0,0,-1.25,0,101.25)"
     id="g10"><g
       transform="scale(0.1,0.1)"
       id="g12"><path
         d="m 519.609,20.3516 209.692,0 0,34.5273 -28.91,2.3399 C 649.77,63 628.98,89.4102 628.98,152.852 l 0,426.25 -39.21,0 C 529.922,565.191 506.949,563 415.859,555.969 l 0,-34.528 27.661,-2.191 c 58.75,-4.68 76.089,-26.559 76.089,-95.621 l 0,-257.027 C 442.422,98.6289 374.449,65.3516 317.891,65.3516 c -72.5,0 -104.84,39.0584 -104.84,126.7184 l 0,387.032 -39.071,0 C 113.98,565.191 88.6719,561.75 -0.078125,555.969 l 0,-34.528 27.656225,-2.191 c 58.75,-4.68 76.0939,-26.559 76.0939,-95.621 l 0,-240.777 c 0,-57.661 10.308,-90.0004 36.879,-119.852 31.09,-35.7812 74.84,-52.9609 134.84,-52.9609 82.808,0 146.25,27.6523 244.218,107.0309 l 0,-96.7184 z M 360.551,804.879 196.949,697.691 l 15,-28.75 148.602,51.879 147.5,-51.879 16.09,28.75 -163.59,107.188 z"
         inkscape:connector-curvature="0"
         id="path14"
         style="fill:#000000;fill-opacity:1;fill-rule:nonzero;stroke:none" /></g></g></svg>