<?xml version="1.0" encoding="UTF-8" standalone="no"?>
<!-- Created with Inkscape (http://www.inkscape.org/) -->

<svg
   xmlns:dc="http://purl.org/dc/elements/1.1/"
   xmlns:cc="http://creativecommons.org/ns#"
   xmlns:rdf="http://www.w3.org/1999/02/22-rdf-syntax-ns#"
   xmlns:svg="http://www.w3.org/2000/svg"
   xmlns="http://www.w3.org/2000/svg"
   xmlns:inkscape="http://www.inkscape.org/namespaces/inkscape"
   version="1.1"
   width="85"
   height="107.5"
   id="svg2"
   xml:space="preserve"><metadata
     id="metadata8"><rdf:RDF><cc:Work
         rdf:about=""><dc:format>image/svg+xml</dc:format><dc:type
           rdf:resource="http://purl.org/dc/dcmitype/StillImage" /></cc:Work></rdf:RDF></metadata><defs
     id="defs6" /><g
     transform="matrix(1.25,0,0,-1.25,0,107.5)"
     id="g10"><g
       transform="scale(0.1,0.1)"
       id="g12"><path
         d="m 209.609,568.73 0,71.411 c 0,74.839 2.34,89.839 18.442,117.5 21.871,37.968 67.969,61.089 119.84,61.089 57.66,0 110.629,-34.531 111.718,-73.75 1.25,-48.441 1.25,-48.441 10.469,-63.441 10.313,-18.43 29.844,-28.75 51.723,-28.75 33.429,0 57.648,24.223 57.648,57.66 0,25.313 -10.308,48.281 -34.527,73.75 -46.094,47.192 -109.531,71.41 -190.152,71.41 -88.598,0 -169.219,-30 -210.79,-78.437 -31.089,-36.883 -43.75,-85.16 -43.75,-164.692 l 0,-43.75 -97.96047,0 0,-37.968 97.96047,0 0,-388.282 c 0,-63.4409 -20.7808,-89.8394 -71.4019,-95.6206 l -28.906225,-2.3477 0,-34.53123 310.000125,0 0,34.53123 -28.902,2.3477 c -50.629,5.7812 -71.411,32.1797 -71.411,95.6206 l 0,388.282 153.282,0 c 84.058,0 104.839,-24.223 104.839,-121.09 l 0,-267.192 c 0,-63.4409 -20.781,-89.8394 -71.402,-95.6206 l -28.906,-2.3477 0,-34.53123 310,0 0,34.53123 -28.902,2.3477 c -50.629,5.7812 -71.411,32.1797 -71.411,95.6206 l 0,426.25 -367.5,0 z"
         inkscape:connector-curvature="0"
         id="path14"
         style="fill:#000000;fill-opacity:1;fill-rule:nonzero;stroke:none" /></g></g></svg>