<?xml version="1.0" encoding="UTF-8" standalone="no"?>
<!-- Created with Inkscape (http://www.inkscape.org/) -->

<svg
   xmlns:dc="http://purl.org/dc/elements/1.1/"
   xmlns:cc="http://creativecommons.org/ns#"
   xmlns:rdf="http://www.w3.org/1999/02/22-rdf-syntax-ns#"
   xmlns:svg="http://www.w3.org/2000/svg"
   xmlns="http://www.w3.org/2000/svg"
   xmlns:inkscape="http://www.inkscape.org/namespaces/inkscape"
   version="1.1"
   width="122.5"
   height="111.25"
   id="svg2"
   xml:space="preserve"><metadata
     id="metadata8"><rdf:RDF><cc:Work
         rdf:about=""><dc:format>image/svg+xml</dc:format><dc:type
           rdf:resource="http://purl.org/dc/dcmitype/StillImage" /></cc:Work></rdf:RDF></metadata><defs
     id="defs6" /><g
     transform="matrix(1.25,0,0,-1.25,0,111.25)"
     id="g10"><g
       transform="scale(0.1,0.1)"
       id="g12"><path
         d="m 400.27,883.77 0,-85.942 -98.75,0 c -37.11,0 -62.93,-7.5 -77.5,-22.5 -14.29,-14.918 -21.399,-41.84 -21.399,-80.777 l 0,-55.629 283.59,0 0,43.75 c 0,70 16.25,120.976 48.75,152.969 32.578,32.07 84.301,48.129 155.16,48.129 l 287.5,0 0,-873.7505 -103.91,0 0,787.8085 -184.84,0 c -36.992,0 -62.742,-7.5 -77.191,-22.5 -14.379,-14.918 -21.559,-41.84 -21.559,-80.777 l 0,-55.629 170.149,0 0,-80.313 -170.149,0 0,-548.5895 -103.91,0 0,548.5895 -283.59,0 0,-548.5895 -103.9101,0 0,548.5895 -98.7499625,0 0,80.313 98.7499625,0 0,43.75 c 0,70 16.2891,120.976 48.9101,152.969 32.578,32.07 84.258,48.129 155,48.129 l 97.649,0 z"
         inkscape:connector-curvature="0"
         id="path14"
         style="fill:#000000;fill-opacity:1;fill-rule:nonzero;stroke:none" /></g></g></svg>