<?xml version="1.0" encoding="UTF-8" standalone="no"?>
<!-- Created with Inkscape (http://www.inkscape.org/) -->

<svg
   xmlns:dc="http://purl.org/dc/elements/1.1/"
   xmlns:cc="http://creativecommons.org/ns#"
   xmlns:rdf="http://www.w3.org/1999/02/22-rdf-syntax-ns#"
   xmlns:svg="http://www.w3.org/2000/svg"
   xmlns="http://www.w3.org/2000/svg"
   xmlns:inkscape="http://www.inkscape.org/namespaces/inkscape"
   version="1.1"
   width="82.5"
   height="135"
   id="svg2"
   xml:space="preserve"><metadata
     id="metadata8"><rdf:RDF><cc:Work
         rdf:about=""><dc:format>image/svg+xml</dc:format><dc:type
           rdf:resource="http://purl.org/dc/dcmitype/StillImage" /></cc:Work></rdf:RDF></metadata><defs
     id="defs6" /><g
     transform="matrix(1.25,0,0,-1.25,0,135)"
     id="g10"><g
       transform="scale(0.1,0.1)"
       id="g12"><path
         d="M 354.77,395.91 210.859,746.07 c -3.437,8.129 -4.687,15 -4.687,23.129 0,24.211 17.348,36.871 62.187,42.653 l 0,34.527 -268.437125,0 0,-35.777 C 56.4805,802.629 70.2305,791.07 92.1094,738.102 L 298.359,256.539 269.609,189.66 C 244.141,127.48 203.828,84.8203 172.73,84.8203 c -11.402,0 -22.96,7.0313 -37.96,21.8787 -28.75,31.25 -40.3208,38.121 -63.2895,38.121 -33.4297,0 -61.0899,-26.558 -61.0899,-56.5583 0,-44.8515 46.0899,-78.28123 108.2814,-78.28123 46.098,0 87.5,19.53123 125.469,58.75003 35.781,36.8715 60,77.1795 97.968,169.3715 l 199.371,467.66 c 27.661,64.527 55.321,89.84 117.5,104.84 l 0,35.777 -253.429,0 0,-34.527 c 60.929,-11.563 78.277,-24.223 78.277,-56.563 0,-20.629 -8.129,-52.969 -21.879,-87.5 L 354.77,395.91 z m -128.911,541.41 160,33.442 c 49.532,10.468 71.563,27.648 71.563,57.648 0,24.22 -17.344,42.66 -40.473,42.66 -22.969,0 -54.058,-13.91 -87.5,-39.22 l -109.371,-78.28 5.781,-16.25 z"
         inkscape:connector-curvature="0"
         id="path14"
         style="fill:#000000;fill-opacity:1;fill-rule:nonzero;stroke:none" /></g></g></svg>