<?xml version="1.0" encoding="UTF-8" standalone="no"?>
<!-- Created with Inkscape (http://www.inkscape.org/) -->

<svg
   xmlns:dc="http://purl.org/dc/elements/1.1/"
   xmlns:cc="http://creativecommons.org/ns#"
   xmlns:rdf="http://www.w3.org/1999/02/22-rdf-syntax-ns#"
   xmlns:svg="http://www.w3.org/2000/svg"
   xmlns="http://www.w3.org/2000/svg"
   xmlns:inkscape="http://www.inkscape.org/namespaces/inkscape"
   version="1.1"
   width="81.25"
   height="137.5"
   id="svg2"
   xml:space="preserve"><metadata
     id="metadata8"><rdf:RDF><cc:Work
         rdf:about=""><dc:format>image/svg+xml</dc:format><dc:type
           rdf:resource="http://purl.org/dc/dcmitype/StillImage" /></cc:Work></rdf:RDF></metadata><defs
     id="defs6" /><g
     transform="matrix(1.25,0,0,-1.25,0,137.5)"
     id="g10"><g
       transform="scale(0.1,0.1)"
       id="g12"><path
         d="m 209.609,1098.6 -39.058,0 C 103.672,1085.94 67.8906,1081.41 -0.078125,1075.63 l 0,-34.53 24.218725,-2.34 c 60,-5.78 76.0894,-26.57 76.0894,-95.631 l 0,-800.617 c 0,-62.1917 -20.7808,-91.1018 -71.4019,-95.6331 l -28.906225,-2.3398 0,-34.5274 310.000125,0 0,34.5274 -28.902,2.3398 c -50.629,4.5313 -71.411,33.4414 -71.411,95.6331 l 0,178.59 c 53.121,-40.313 109.532,-58.75 182.032,-58.75 146.41,0 256.879,126.718 256.879,292.5 0,71.558 -24.071,146.41 -63.29,198.277 -41.402,54.062 -112.96,88.601 -187.808,88.601 -75.942,0 -135.942,-27.66 -187.813,-86.41 l 0,343.28 z m 0,-400.78 c 50.782,64.532 91.09,88.59 150.942,88.59 103.75,0 170.469,-96.719 170.469,-246.398 0,-130.321 -71.411,-225.942 -168.129,-225.942 -57.661,0 -109.371,22.032 -153.282,63.442 l 0,320.308 z"
         inkscape:connector-curvature="0"
         id="path14"
         style="fill:#000000;fill-opacity:1;fill-rule:nonzero;stroke:none" /></g></g></svg>