<?xml version="1.0" encoding="UTF-8" standalone="no"?>
<!-- Created with Inkscape (http://www.inkscape.org/) -->

<svg
   xmlns:dc="http://purl.org/dc/elements/1.1/"
   xmlns:cc="http://creativecommons.org/ns#"
   xmlns:rdf="http://www.w3.org/1999/02/22-rdf-syntax-ns#"
   xmlns:svg="http://www.w3.org/2000/svg"
   xmlns="http://www.w3.org/2000/svg"
   xmlns:inkscape="http://www.inkscape.org/namespaces/inkscape"
   version="1.1"
   width="82.5"
   height="135"
   id="svg2"
   xml:space="preserve"><metadata
     id="metadata8"><rdf:RDF><cc:Work
         rdf:about=""><dc:format>image/svg+xml</dc:format><dc:type
           rdf:resource="http://purl.org/dc/dcmitype/StillImage" /></cc:Work></rdf:RDF></metadata><defs
     id="defs6" /><g
     transform="matrix(1.25,0,0,-1.25,0,135)"
     id="g10"><g
       transform="scale(0.1,0.1)"
       id="g12"><path
         d="m 354.77,395.891 -143.911,350.16 c -3.437,8.129 -4.687,15 -4.687,23.129 0,24.211 17.348,36.871 62.187,42.648 l 0,34.531 -268.437125,0 0,-35.781 C 56.4805,802.609 70.2305,791.051 92.1094,738.078 L 298.359,256.52 269.609,189.641 C 244.141,127.461 203.828,84.8008 172.73,84.8008 c -11.402,0 -22.96,7.0273 -37.96,21.8792 -28.75,31.25 -40.3208,38.121 -63.2895,38.121 -33.4297,0 -61.0899,-26.563 -61.0899,-56.5627 0,-44.8477 46.0899,-78.27736 108.2814,-78.27736 46.098,0 87.5,19.52736 125.469,58.74996 35.781,36.8671 60,77.1801 97.968,169.3671 l 199.371,467.66 c 27.661,64.532 55.321,89.84 117.5,104.84 l 0,35.781 -253.429,0 0,-34.531 c 60.929,-11.558 78.277,-24.219 78.277,-56.558 0,-20.629 -8.129,-52.969 -21.879,-87.5 L 354.77,395.891 z M 248.828,1072.14 c -37.969,0 -69.058,-30 -69.058,-67.96 0,-36.879 31.089,-67.969 67.96,-67.969 36.879,0 67.969,31.09 67.969,67.969 0,36.87 -31.09,67.96 -66.871,67.96 z m 187.813,0 c -38.121,0 -69.219,-30 -69.219,-67.96 0,-36.879 31.098,-67.969 67.969,-67.969 36.879,0 67.968,31.09 67.968,67.969 0,36.87 -31.089,67.96 -66.718,67.96 z"
         inkscape:connector-curvature="0"
         id="path14"
         style="fill:#000000;fill-opacity:1;fill-rule:nonzero;stroke:none" /></g></g></svg>